$MeshFormat
2.2 0 8
$EndMeshFormat
$Nodes
1293
1 17.5 0 -244
2 17.350285 2.284208 -244
3 16.903702 4.529333 -244
4 16.167892 6.69696 -244
5 15.155445 8.75 -244
6 13.883683 10.653325 -244
7 12.374369 12.374369 -244
8 10.653325 13.883683 -244
9 8.75 15.155445 -244
10 6.69696 16.167892 -244
11 4.529333 16.903702 -244
12 2.284208 17.350285 -244
13 0 17.5 -244
14 -2.284208 17.350285 -244
15 -4.529333 16.903702 -244
16 -6.69696 16.167892 -244
17 -8.75 15.155445 -244
18 -10.653325 13.883683 -244
19 -12.374369 12.374369 -244
20 -13.883683 10.653325 -244
21 -15.155445 8.75 -244
22 -16.167892 6.69696 -244
23 -16.903702 4.529333 -244
24 -17.350285 2.284208 -244
25 -17.5 0 -244
26 -17.350285 -2.284208 -244
27 -16.903702 -4.529333 -244
28 -16.167892 -6.69696 -244
29 -15.155445 -8.75 -244
30 -13.883683 -10.653325 -244
31 -12.374369 -12.374369 -244
32 -10.653325 -13.883683 -244
33 -8.75 -15.155445 -244
34 -6.69696 -16.167892 -244
35 -4.529333 -16.903702 -244
36 -2.284208 -17.350285 -244
37 -0 -17.5 -244
38 2.284208 -17.350285 -244
39 4.529333 -16.903702 -244
40 6.69696 -16.167892 -244
41 8.75 -15.155445 -244
42 10.653325 -13.883683 -244
43 12.374369 -12.374369 -244
44 13.883683 -10.653325 -244
45 15.155445 -8.75 -244
46 16.167892 -6.69696 -244
47 16.903702 -4.529333 -244
48 17.350285 -2.284208 -244
49 17.5 0 -244
50 20.746902 2.731381 -234.962963
51 20.212892 5.416028 -234.962963
52 19.333035 8.008005000000001 -234.962963
53 18.122383 10.462963 -234.962963
54 16.601653 12.738897 -234.962963
55 14.796864 14.796864 -234.962963
56 12.738897 16.601653 -234.962963
57 10.462963 18.122383 -234.962963
58 8.008005000000001 19.333035 -234.962963
59 5.416028 20.212892 -234.962963
60 2.731381 20.746902 -234.962963
61 0 20.925926 -234.962963
62 -2.731381 20.746902 -234.962963
63 -5.416028 20.212892 -234.962963
64 -8.008005000000001 19.333035 -234.962963
65 -10.462963 18.122383 -234.962963
66 -12.738897 16.601653 -234.962963
67 -14.796864 14.796864 -234.962963
68 -16.601653 12.738897 -234.962963
69 -18.122383 10.462963 -234.962963
70 -19.333035 8.008005000000001 -234.962963
71 -20.212892 5.416028 -234.962963
72 -20.746902 2.731381 -234.962963
73 -20.925926 0 -234.962963
74 -20.746902 -2.731381 -234.962963
75 -20.212892 -5.416028 -234.962963
76 -19.333035 -8.008005000000001 -234.962963
77 -18.122383 -10.462963 -234.962963
78 -16.601653 -12.738897 -234.962963
79 -14.796864 -14.796864 -234.962963
80 -12.738897 -16.601653 -234.962963
81 -10.462963 -18.122383 -234.962963
82 -8.008005000000001 -19.333035 -234.962963
83 -5.416028 -20.212892 -234.962963
84 -2.731381 -20.746902 -234.962963
85 -0 -20.925926 -234.962963
86 2.731381 -20.746902 -234.962963
87 5.416028 -20.212892 -234.962963
88 8.008005000000001 -19.333035 -234.962963
89 10.462963 -18.122383 -234.962963
90 12.738897 -16.601653 -234.962963
91 14.796864 -14.796864 -234.962963
92 16.601653 -12.738897 -234.962963
93 18.122383 -10.462963 -234.962963
94 19.333035 -8.008005000000001 -234.962963
95 20.212892 -5.416028 -234.962963
96 20.746902 -2.731381 -234.962963
97 20.925926 0 -234.962963
98 24.143518 3.178554 -225.925926
99 23.522083 6.302723 -225.925926
100 22.498178 9.319050000000001 -225.925926
101 21.089322 12.175926 -225.925926
102 19.319623 14.824468 -225.925926
103 17.21936 17.21936 -225.925926
104 14.824468 19.319623 -225.925926
105 12.175926 21.089322 -225.925926
106 9.319050000000001 22.498178 -225.925926
107 6.302723 23.522083 -225.925926
108 3.178554 24.143518 -225.925926
109 0 24.351852 -225.925926
110 -3.178554 24.143518 -225.925926
111 -6.302723 23.522083 -225.925926
112 -9.319050000000001 22.498178 -225.925926
113 -12.175926 21.089322 -225.925926
114 -14.824468 19.319623 -225.925926
115 -17.21936 17.21936 -225.925926
116 -19.319623 14.824468 -225.925926
117 -21.089322 12.175926 -225.925926
118 -22.498178 9.319050000000001 -225.925926
119 -23.522083 6.302723 -225.925926
120 -24.143518 3.178554 -225.925926
121 -24.351852 0 -225.925926
122 -24.143518 -3.178554 -225.925926
123 -23.522083 -6.302723 -225.925926
124 -22.498178 -9.319050000000001 -225.925926
125 -21.089322 -12.175926 -225.925926
126 -19.319623 -14.824468 -225.925926
127 -17.21936 -17.21936 -225.925926
128 -14.824468 -19.319623 -225.925926
129 -12.175926 -21.089322 -225.925926
130 -9.319050000000001 -22.498178 -225.925926
131 -6.302723 -23.522083 -225.925926
132 -3.178554 -24.143518 -225.925926
133 -0 -24.351852 -225.925926
134 3.178554 -24.143518 -225.925926
135 6.302723 -23.522083 -225.925926
136 9.319050000000001 -22.498178 -225.925926
137 12.175926 -21.089322 -225.925926
138 14.824468 -19.319623 -225.925926
139 17.21936 -17.21936 -225.925926
140 19.319623 -14.824468 -225.925926
141 21.089322 -12.175926 -225.925926
142 22.498178 -9.319050000000001 -225.925926
143 23.522083 -6.302723 -225.925926
144 24.143518 -3.178554 -225.925926
145 24.351852 0 -225.925926
146 27.540135 3.625728 -216.888889
147 26.831273 7.189418 -216.888889
148 25.66332 10.630095 -216.888889
149 24.056261 13.888889 -216.888889
150 22.037593 16.91004 -216.888889
151 19.641855 19.641855 -216.888889
152 16.91004 22.037593 -216.888889
153 13.888889 24.056261 -216.888889
154 10.630095 25.66332 -216.888889
155 7.189418 26.831273 -216.888889
156 3.625728 27.540135 -216.888889
157 0 27.777778 -216.888889
158 -3.625728 27.540135 -216.888889
159 -7.189418 26.831273 -216.888889
160 -10.630095 25.66332 -216.888889
161 -13.888889 24.056261 -216.888889
162 -16.91004 22.037593 -216.888889
163 -19.641855 19.641855 -216.888889
164 -22.037593 16.91004 -216.888889
165 -24.056261 13.888889 -216.888889
166 -25.66332 10.630095 -216.888889
167 -26.831273 7.189418 -216.888889
168 -27.540135 3.625728 -216.888889
169 -27.777778 0 -216.888889
170 -27.540135 -3.625728 -216.888889
171 -26.831273 -7.189418 -216.888889
172 -25.66332 -10.630095 -216.888889
173 -24.056261 -13.888889 -216.888889
174 -22.037593 -16.91004 -216.888889
175 -19.641855 -19.641855 -216.888889
176 -16.91004 -22.037593 -216.888889
177 -13.888889 -24.056261 -216.888889
178 -10.630095 -25.66332 -216.888889
179 -7.189418 -26.831273 -216.888889
180 -3.625728 -27.540135 -216.888889
181 -0 -27.777778 -216.888889
182 3.625728 -27.540135 -216.888889
183 7.189418 -26.831273 -216.888889
184 10.630095 -25.66332 -216.888889
185 13.888889 -24.056261 -216.888889
186 16.91004 -22.037593 -216.888889
187 19.641855 -19.641855 -216.888889
188 22.037593 -16.91004 -216.888889
189 24.056261 -13.888889 -216.888889
190 25.66332 -10.630095 -216.888889
191 26.831273 -7.189418 -216.888889
192 27.540135 -3.625728 -216.888889
193 27.777778 0 -216.888889
194 30.936752 4.072901 -207.851852
195 30.140463 8.076112999999999 -207.851852
196 28.828463 11.94114 -207.851852
197 27.0232 15.601852 -207.851852
198 24.755563 18.995611 -207.851852
199 22.06435 22.06435 -207.851852
200 18.995611 24.755563 -207.851852
201 15.601852 27.0232 -207.851852
202 11.94114 28.828463 -207.851852
203 8.076112999999999 30.140463 -207.851852
204 4.072901 30.936752 -207.851852
205 0 31.203704 -207.851852
206 -4.072901 30.936752 -207.851852
207 -8.076112999999999 30.140463 -207.851852
208 -11.94114 28.828463 -207.851852
209 -15.601852 27.0232 -207.851852
210 -18.995611 24.755563 -207.851852
211 -22.06435 22.06435 -207.851852
212 -24.755563 18.995611 -207.851852
213 -27.0232 15.601852 -207.851852
214 -28.828463 11.94114 -207.851852
215 -30.140463 8.076112999999999 -207.851852
216 -30.936752 4.072901 -207.851852
217 -31.203704 0 -207.851852
218 -30.936752 -4.072901 -207.851852
219 -30.140463 -8.076112999999999 -207.851852
220 -28.828463 -11.94114 -207.851852
221 -27.0232 -15.601852 -207.851852
222 -24.755563 -18.995611 -207.851852
223 -22.06435 -22.06435 -207.851852
224 -18.995611 -24.755563 -207.851852
225 -15.601852 -27.0232 -207.851852
226 -11.94114 -28.828463 -207.851852
227 -8.076112999999999 -30.140463 -207.851852
228 -4.072901 -30.936752 -207.851852
229 -0 -31.203704 -207.851852
230 4.072901 -30.936752 -207.851852
231 8.076112999999999 -30.140463 -207.851852
232 11.94114 -28.828463 -207.851852
233 15.601852 -27.0232 -207.851852
234 18.995611 -24.755563 -207.851852
235 22.06435 -22.06435 -207.851852
236 24.755563 -18.995611 -207.851852
237 27.0232 -15.601852 -207.851852
238 28.828463 -11.94114 -207.851852
239 30.140463 -8.076112999999999 -207.851852
240 30.936752 -4.072901 -207.851852
241 31.203704 0 -207.851852
242 34.333368 4.520074 -198.814815
243 33.449654 8.962808000000001 -198.814815
244 31.993606 13.252186 -198.814815
245 29.990139 17.314815 -198.814815
246 27.473532 21.081183 -198.814815
247 24.486846 24.486846 -198.814815
248 21.081183 27.473532 -198.814815
249 17.314815 29.990139 -198.814815
250 13.252186 31.993606 -198.814815
251 8.962808000000001 33.449654 -198.814815
252 4.520074 34.333368 -198.814815
253 0 34.62963 -198.814815
254 -4.520074 34.333368 -198.814815
255 -8.962808000000001 33.449654 -198.814815
256 -13.252186 31.993606 -198.814815
257 -17.314815 29.990139 -198.814815
258 -21.081183 27.473532 -198.814815
259 -24.486846 24.486846 -198.814815
260 -27.473532 21.081183 -198.814815
261 -29.990139 17.314815 -198.814815
262 -31.993606 13.252186 -198.814815
263 -33.449654 8.962808000000001 -198.814815
264 -34.333368 4.520074 -198.814815
265 -34.62963 0 -198.814815
266 -34.333368 -4.520074 -198.814815
267 -33.449654 -8.962808000000001 -198.814815
268 -31.993606 -13.252186 -198.814815
269 -29.990139 -17.314815 -198.814815
270 -27.473532 -21.081183 -198.814815
271 -24.486846 -24.486846 -198.814815
272 -21.081183 -27.473532 -198.814815
273 -17.314815 -29.990139 -198.814815
274 -13.252186 -31.993606 -198.814815
275 -8.962808000000001 -33.449654 -198.814815
276 -4.520074 -34.333368 -198.814815
277 -0 -34.62963 -198.814815
278 4.520074 -34.333368 -198.814815
279 8.962808000000001 -33.449654 -198.814815
280 13.252186 -31.993606 -198.814815
281 17.314815 -29.990139 -198.814815
282 21.081183 -27.473532 -198.814815
283 24.486846 -24.486846 -198.814815
284 27.473532 -21.081183 -198.814815
285 29.990139 -17.314815 -198.814815
286 31.993606 -13.252186 -198.814815
287 33.449654 -8.962808000000001 -198.814815
288 34.333368 -4.520074 -198.814815
289 34.62963 0 -198.814815
290 37.729985 4.967247 -189.777778
291 36.758844 9.849503 -189.777778
292 35.158749 14.563231 -189.777778
293 32.957078 19.027778 -189.777778
294 30.191502 23.166754 -189.777778
295 26.909341 26.909341 -189.777778
296 23.166754 30.191502 -189.777778
297 19.027778 32.957078 -189.777778
298 14.563231 35.158749 -189.777778
299 9.849503 36.758844 -189.777778
300 4.967247 37.729985 -189.777778
301 0 38.055556 -189.777778
302 -4.967247 37.729985 -189.777778
303 -9.849503 36.758844 -189.777778
304 -14.563231 35.158749 -189.777778
305 -19.027778 32.957078 -189.777778
306 -23.166754 30.191502 -189.777778
307 -26.909341 26.909341 -189.777778
308 -30.191502 23.166754 -189.777778
309 -32.957078 19.027778 -189.777778
310 -35.158749 14.563231 -189.777778
311 -36.758844 9.849503 -189.777778
312 -37.729985 4.967247 -189.777778
313 -38.055556 0 -189.777778
314 -37.729985 -4.967247 -189.777778
315 -36.758844 -9.849503 -189.777778
316 -35.158749 -14.563231 -189.777778
317 -32.957078 -19.027778 -189.777778
318 -30.191502 -23.166754 -189.777778
319 -26.909341 -26.909341 -189.777778
320 -23.166754 -30.191502 -189.777778
321 -19.027778 -32.957078 -189.777778
322 -14.563231 -35.158749 -189.777778
323 -9.849503 -36.758844 -189.777778
324 -4.967247 -37.729985 -189.777778
325 -0 -38.055556 -189.777778
326 4.967247 -37.729985 -189.777778
327 9.849503 -36.758844 -189.777778
328 14.563231 -35.158749 -189.777778
329 19.027778 -32.957078 -189.777778
330 23.166754 -30.191502 -189.777778
331 26.909341 -26.909341 -189.777778
332 30.191502 -23.166754 -189.777778
333 32.957078 -19.027778 -189.777778
334 35.158749 -14.563231 -189.777778
335 36.758844 -9.849503 -189.777778
336 37.729985 -4.967247 -189.777778
337 38.055556 0 -189.777778
338 41.126602 5.41442 -180.740741
339 40.068034 10.736197 -180.740741
340 38.323892 15.874276 -180.740741
341 35.924017 20.740741 -180.740741
342 32.909472 25.252326 -180.740741
343 29.331837 29.331837 -180.740741
344 25.252326 32.909472 -180.740741
345 20.740741 35.924017 -180.740741
346 15.874276 38.323892 -180.740741
347 10.736197 40.068034 -180.740741
348 5.41442 41.126602 -180.740741
349 0 41.481481 -180.740741
350 -5.41442 41.126602 -180.740741
351 -10.736197 40.068034 -180.740741
352 -15.874276 38.323892 -180.740741
353 -20.740741 35.924017 -180.740741
354 -25.252326 32.909472 -180.740741
355 -29.331837 29.331837 -180.740741
356 -32.909472 25.252326 -180.740741
357 -35.924017 20.740741 -180.740741
358 -38.323892 15.874276 -180.740741
359 -40.068034 10.736197 -180.740741
360 -41.126602 5.41442 -180.740741
361 -41.481481 0 -180.740741
362 -41.126602 -5.41442 -180.740741
363 -40.068034 -10.736197 -180.740741
364 -38.323892 -15.874276 -180.740741
365 -35.924017 -20.740741 -180.740741
366 -32.909472 -25.252326 -180.740741
367 -29.331837 -29.331837 -180.740741
368 -25.252326 -32.909472 -180.740741
369 -20.740741 -35.924017 -180.740741
370 -15.874276 -38.323892 -180.740741
371 -10.736197 -40.068034 -180.740741
372 -5.41442 -41.126602 -180.740741
373 -0 -41.481481 -180.740741
374 5.41442 -41.126602 -180.740741
375 10.736197 -40.068034 -180.740741
376 15.874276 -38.323892 -180.740741
377 20.740741 -35.924017 -180.740741
378 25.252326 -32.909472 -180.740741
379 29.331837 -29.331837 -180.740741
380 32.909472 -25.252326 -180.740741
381 35.924017 -20.740741 -180.740741
382 38.323892 -15.874276 -180.740741
383 40.068034 -10.736197 -180.740741
384 41.126602 -5.41442 -180.740741
385 41.481481 0 -180.740741
386 44.523218 5.861593 -171.703704
387 43.377225 11.622892 -171.703704
388 41.489035 17.185321 -171.703704
389 38.890956 22.453704 -171.703704
390 35.627442 27.337898 -171.703704
391 31.754332 31.754332 -171.703704
392 27.337898 35.627442 -171.703704
393 22.453704 38.890956 -171.703704
394 17.185321 41.489035 -171.703704
395 11.622892 43.377225 -171.703704
396 5.861593 44.523218 -171.703704
397 0 44.907407 -171.703704
398 -5.861593 44.523218 -171.703704
399 -11.622892 43.377225 -171.703704
400 -17.185321 41.489035 -171.703704
401 -22.453704 38.890956 -171.703704
402 -27.337898 35.627442 -171.703704
403 -31.754332 31.754332 -171.703704
404 -35.627442 27.337898 -171.703704
405 -38.890956 22.453704 -171.703704
406 -41.489035 17.185321 -171.703704
407 -43.377225 11.622892 -171.703704
408 -44.523218 5.861593 -171.703704
409 -44.907407 0 -171.703704
410 -44.523218 -5.861593 -171.703704
411 -43.377225 -11.622892 -171.703704
412 -41.489035 -17.185321 -171.703704
413 -38.890956 -22.453704 -171.703704
414 -35.627442 -27.337898 -171.703704
415 -31.754332 -31.754332 -171.703704
416 -27.337898 -35.627442 -171.703704
417 -22.453704 -38.890956 -171.703704
418 -17.185321 -41.489035 -171.703704
419 -11.622892 -43.377225 -171.703704
420 -5.861593 -44.523218 -171.703704
421 -0 -44.907407 -171.703704
422 5.861593 -44.523218 -171.703704
423 11.622892 -43.377225 -171.703704
424 17.185321 -41.489035 -171.703704
425 22.453704 -38.890956 -171.703704
426 27.337898 -35.627442 -171.703704
427 31.754332 -31.754332 -171.703704
428 35.627442 -27.337898 -171.703704
429 38.890956 -22.453704 -171.703704
430 41.489035 -17.185321 -171.703704
431 43.377225 -11.622892 -171.703704
432 44.523218 -5.861593 -171.703704
433 44.907407 0 -171.703704
434 47.919835 6.308766 -162.666667
435 46.686415 12.509587 -162.666667
436 44.654177 18.496366 -162.666667
437 41.857895 24.166667 -162.666667
438 38.345411 29.423469 -162.666667
439 34.176828 34.176828 -162.666667
440 29.423469 38.345411 -162.666667
441 24.166667 41.857895 -162.666667
442 18.496366 44.654177 -162.666667
443 12.509587 46.686415 -162.666667
444 6.308766 47.919835 -162.666667
445 0 48.333333 -162.666667
446 -6.308766 47.919835 -162.666667
447 -12.509587 46.686415 -162.666667
448 -18.496366 44.654177 -162.666667
449 -24.166667 41.857895 -162.666667
450 -29.423469 38.345411 -162.666667
451 -34.176828 34.176828 -162.666667
452 -38.345411 29.423469 -162.666667
453 -41.857895 24.166667 -162.666667
454 -44.654177 18.496366 -162.666667
455 -46.686415 12.509587 -162.666667
456 -47.919835 6.308766 -162.666667
457 -48.333333 0 -162.666667
458 -47.919835 -6.308766 -162.666667
459 -46.686415 -12.509587 -162.666667
460 -44.654177 -18.496366 -162.666667
461 -41.857895 -24.166667 -162.666667
462 -38.345411 -29.423469 -162.666667
463 -34.176828 -34.176828 -162.666667
464 -29.423469 -38.345411 -162.666667
465 -24.166667 -41.857895 -162.666667
466 -18.496366 -44.654177 -162.666667
467 -12.509587 -46.686415 -162.666667
468 -6.308766 -47.919835 -162.666667
469 -0 -48.333333 -162.666667
470 6.308766 -47.919835 -162.666667
471 12.509587 -46.686415 -162.666667
472 18.496366 -44.654177 -162.666667
473 24.166667 -41.857895 -162.666667
474 29.423469 -38.345411 -162.666667
475 34.176828 -34.176828 -162.666667
476 38.345411 -29.423469 -162.666667
477 41.857895 -24.166667 -162.666667
478 44.654177 -18.496366 -162.666667
479 46.686415 -12.509587 -162.666667
480 47.919835 -6.308766 -162.666667
481 48.333333 0 -162.666667
482 51.316452 6.755939 -153.62963
483 49.995605 13.396282 -153.62963
484 47.81932 19.807411 -153.62963
485 44.824833 25.87963 -153.62963
486 41.063381 31.509041 -153.62963
487 36.599323 36.599323 -153.62963
488 31.509041 41.063381 -153.62963
489 25.87963 44.824833 -153.62963
490 19.807411 47.81932 -153.62963
491 13.396282 49.995605 -153.62963
492 6.755939 51.316452 -153.62963
493 0 51.759259 -153.62963
494 -6.755939 51.316452 -153.62963
495 -13.396282 49.995605 -153.62963
496 -19.807411 47.81932 -153.62963
497 -25.87963 44.824833 -153.62963
498 -31.509041 41.063381 -153.62963
499 -36.599323 36.599323 -153.62963
500 -41.063381 31.509041 -153.62963
501 -44.824833 25.87963 -153.62963
502 -47.81932 19.807411 -153.62963
503 -49.995605 13.396282 -153.62963
504 -51.316452 6.755939 -153.62963
505 -51.759259 0 -153.62963
506 -51.316452 -6.755939 -153.62963
507 -49.995605 -13.396282 -153.62963
508 -47.81932 -19.807411 -153.62963
509 -44.824833 -25.87963 -153.62963
510 -41.063381 -31.509041 -153.62963
511 -36.599323 -36.599323 -153.62963
512 -31.509041 -41.063381 -153.62963
513 -25.87963 -44.824833 -153.62963
514 -19.807411 -47.81932 -153.62963
515 -13.396282 -49.995605 -153.62963
516 -6.755939 -51.316452 -153.62963
517 -0 -51.759259 -153.62963
518 6.755939 -51.316452 -153.62963
519 13.396282 -49.995605 -153.62963
520 19.807411 -47.81932 -153.62963
521 25.87963 -44.824833 -153.62963
522 31.509041 -41.063381 -153.62963
523 36.599323 -36.599323 -153.62963
524 41.063381 -31.509041 -153.62963
525 44.824833 -25.87963 -153.62963
526 47.81932 -19.807411 -153.62963
527 49.995605 -13.396282 -153.62963
528 51.316452 -6.755939 -153.62963
529 51.759259 0 -153.62963
530 54.713068 7.203112 -144.592593
531 53.304796 14.282977 -144.592593
532 50.984463 21.118456 -144.592593
533 47.791772 27.592593 -144.592593
534 43.781351 33.594612 -144.592593
535 39.021819 39.021819 -144.592593
536 33.594612 43.781351 -144.592593
537 27.592593 47.791772 -144.592593
538 21.118456 50.984463 -144.592593
539 14.282977 53.304796 -144.592593
540 7.203112 54.713068 -144.592593
541 0 55.185185 -144.592593
542 -7.203112 54.713068 -144.592593
543 -14.282977 53.304796 -144.592593
544 -21.118456 50.984463 -144.592593
545 -27.592593 47.791772 -144.592593
546 -33.594612 43.781351 -144.592593
547 -39.021819 39.021819 -144.592593
548 -43.781351 33.594612 -144.592593
549 -47.791772 27.592593 -144.592593
550 -50.984463 21.118456 -144.592593
551 -53.304796 14.282977 -144.592593
552 -54.713068 7.203112 -144.592593
553 -55.185185 0 -144.592593
554 -54.713068 -7.203112 -144.592593
555 -53.304796 -14.282977 -144.592593
556 -50.984463 -21.118456 -144.592593
557 -47.791772 -27.592593 -144.592593
558 -43.781351 -33.594612 -144.592593
559 -39.021819 -39.021819 -144.592593
560 -33.594612 -43.781351 -144.592593
561 -27.592593 -47.791772 -144.592593
562 -21.118456 -50.984463 -144.592593
563 -14.282977 -53.304796 -144.592593
564 -7.203112 -54.713068 -144.592593
565 -0 -55.185185 -144.592593
566 7.203112 -54.713068 -144.592593
567 14.282977 -53.304796 -144.592593
568 21.118456 -50.984463 -144.592593
569 27.592593 -47.791772 -144.592593
570 33.594612 -43.781351 -144.592593
571 39.021819 -39.021819 -144.592593
572 43.781351 -33.594612 -144.592593
573 47.791772 -27.592593 -144.592593
574 50.984463 -21.118456 -144.592593
575 53.304796 -14.282977 -144.592593
576 54.713068 -7.203112 -144.592593
577 55.185185 0 -144.592593
578 57.98919 7.634422 -135.876145
579 56.496592 15.138216 -135.876145
580 54.037322 22.382992 -135.876145
581 50.653459 29.244788 -135.876145
582 46.402901 35.606198 -135.876145
583 41.358376 41.358376 -135.876145
584 35.606198 46.402901 -135.876145
585 29.244788 50.653459 -135.876145
586 22.382992 54.037322 -135.876145
587 15.138216 56.496592 -135.876145
588 7.634422 57.98919 -135.876145
589 0 58.489576 -135.876145
590 -7.634422 57.98919 -135.876145
591 -15.138216 56.496592 -135.876145
592 -22.382992 54.037322 -135.876145
593 -29.244788 50.653459 -135.876145
594 -35.606198 46.402901 -135.876145
595 -41.358376 41.358376 -135.876145
596 -46.402901 35.606198 -135.876145
597 -50.653459 29.244788 -135.876145
598 -54.037322 22.382992 -135.876145
599 -56.496592 15.138216 -135.876145
600 -57.98919 7.634422 -135.876145
601 -58.489576 0 -135.876145
602 -57.98919 -7.634422 -135.876145
603 -56.496592 -15.138216 -135.876145
604 -54.037322 -22.382992 -135.876145
605 -50.653459 -29.244788 -135.876145
606 -46.402901 -35.606198 -135.876145
607 -41.358376 -41.358376 -135.876145
608 -35.606198 -46.402901 -135.876145
609 -29.244788 -50.653459 -135.876145
610 -22.382992 -54.037322 -135.876145
611 -15.138216 -56.496592 -135.876145
612 -7.634422 -57.98919 -135.876145
613 -0 -58.489576 -135.876145
614 7.634422 -57.98919 -135.876145
615 15.138216 -56.496592 -135.876145
616 22.382992 -54.037322 -135.876145
617 29.244788 -50.653459 -135.876145
618 35.606198 -46.402901 -135.876145
619 41.358376 -41.358376 -135.876145
620 46.402901 -35.606198 -135.876145
621 50.653459 -29.244788 -135.876145
622 54.037322 -22.382992 -135.876145
623 56.496592 -15.138216 -135.876145
624 57.98919 -7.634422 -135.876145
625 58.489576 0 -135.876145
626 58.109685 7.650285 -135.555556
627 56.613986 15.169672 -135.555556
628 54.149606 22.429501 -135.555556
629 50.758711 29.305556 -135.555556
630 46.499321 35.680184 -135.555556
631 41.444314 41.444314 -135.555556
632 35.680184 46.499321 -135.555556
633 29.305556 50.758711 -135.555556
634 22.429501 54.149606 -135.555556
635 15.169672 56.613986 -135.555556
636 7.650285 58.109685 -135.555556
637 0 58.611111 -135.555556
638 -7.650285 58.109685 -135.555556
639 -15.169672 56.613986 -135.555556
640 -22.429501 54.149606 -135.555556
641 -29.305556 50.758711 -135.555556
642 -35.680184 46.499321 -135.555556
643 -41.444314 41.444314 -135.555556
644 -46.499321 35.680184 -135.555556
645 -50.758711 29.305556 -135.555556
646 -54.149606 22.429501 -135.555556
647 -56.613986 15.169672 -135.555556
648 -58.109685 7.650285 -135.555556
649 -58.611111 0 -135.555556
650 -58.109685 -7.650285 -135.555556
651 -56.613986 -15.169672 -135.555556
652 -54.149606 -22.429501 -135.555556
653 -50.758711 -29.305556 -135.555556
654 -46.499321 -35.680184 -135.555556
655 -41.444314 -41.444314 -135.555556
656 -35.680184 -46.499321 -135.555556
657 -29.305556 -50.758711 -135.555556
658 -22.429501 -54.149606 -135.555556
659 -15.169672 -56.613986 -135.555556
660 -7.650285 -58.109685 -135.555556
661 -0 -58.611111 -135.555556
662 7.650285 -58.109685 -135.555556
663 15.169672 -56.613986 -135.555556
664 22.429501 -54.149606 -135.555556
665 29.305556 -50.758711 -135.555556
666 35.680184 -46.499321 -135.555556
667 41.444314 -41.444314 -135.555556
668 46.499321 -35.680184 -135.555556
669 50.758711 -29.305556 -135.555556
670 54.149606 -22.429501 -135.555556
671 56.613986 -15.169672 -135.555556
672 58.109685 -7.650285 -135.555556
673 58.611111 0 -135.555556
674 58.557206 7.709202 -134.364881
675 57.049988 15.286498 -134.364881
676 54.566629 22.602238 -134.364881
677 51.14962 29.531247 -134.364881
678 46.857427 35.954968 -134.364881
679 41.76349 41.76349 -134.364881
680 35.954968 46.857427 -134.364881
681 29.531247 51.14962 -134.364881
682 22.602238 54.566629 -134.364881
683 15.286498 57.049988 -134.364881
684 7.709202 58.557206 -134.364881
685 0 59.062494 -134.364881
686 -7.709202 58.557206 -134.364881
687 -15.286498 57.049988 -134.364881
688 -22.602238 54.566629 -134.364881
689 -29.531247 51.14962 -134.364881
690 -35.954968 46.857427 -134.364881
691 -41.76349 41.76349 -134.364881
692 -46.857427 35.954968 -134.364881
693 -51.14962 29.531247 -134.364881
694 -54.566629 22.602238 -134.364881
695 -57.049988 15.286498 -134.364881
696 -58.557206 7.709202 -134.364881
697 -59.062494 0 -134.364881
698 -58.557206 -7.709202 -134.364881
699 -57.049988 -15.286498 -134.364881
700 -54.566629 -22.602238 -134.364881
701 -51.14962 -29.531247 -134.364881
702 -46.857427 -35.954968 -134.364881
703 -41.76349 -41.76349 -134.364881
704 -35.954968 -46.857427 -134.364881
705 -29.531247 -51.14962 -134.364881
706 -22.602238 -54.566629 -134.364881
707 -15.286498 -57.049988 -134.364881
708 -7.709202 -58.557206 -134.364881
709 -0 -59.062494 -134.364881
710 7.709202 -58.557206 -134.364881
711 15.286498 -57.049988 -134.364881
712 22.602238 -54.566629 -134.364881
713 29.531247 -51.14962 -134.364881
714 35.954968 -46.857427 -134.364881
715 41.76349 -41.76349 -134.364881
716 46.857427 -35.954968 -134.364881
717 51.14962 -29.531247 -134.364881
718 54.566629 -22.602238 -134.364881
719 57.049988 -15.286498 -134.364881
720 58.557206 -7.709202 -134.364881
721 59.062494 0 -134.364881
722 59.125222 7.783983 -132.853617
723 57.603384 15.43478 -132.853617
724 55.095936 22.821484 -132.853617
725 51.645781 29.817706 -132.853617
726 47.311953 36.303738 -132.853617
727 42.168604 42.168604 -132.853617
728 36.303738 47.311953 -132.853617
729 29.817706 51.645781 -132.853617
730 22.821484 55.095936 -132.853617
731 15.43478 57.603384 -132.853617
732 7.783983 59.125222 -132.853617
733 0 59.635411 -132.853617
734 -7.783983 59.125222 -132.853617
735 -15.43478 57.603384 -132.853617
736 -22.821484 55.095936 -132.853617
737 -29.817706 51.645781 -132.853617
738 -36.303738 47.311953 -132.853617
739 -42.168604 42.168604 -132.853617
740 -47.311953 36.303738 -132.853617
741 -51.645781 29.817706 -132.853617
742 -55.095936 22.821484 -132.853617
743 -57.603384 15.43478 -132.853617
744 -59.125222 7.783983 -132.853617
745 -59.635411 0 -132.853617
746 -59.125222 -7.783983 -132.853617
747 -57.603384 -15.43478 -132.853617
748 -55.095936 -22.821484 -132.853617
749 -51.645781 -29.817706 -132.853617
750 -47.311953 -36.303738 -132.853617
751 -42.168604 -42.168604 -132.853617
752 -36.303738 -47.311953 -132.853617
753 -29.817706 -51.645781 -132.853617
754 -22.821484 -55.095936 -132.853617
755 -15.43478 -57.603384 -132.853617
756 -7.783983 -59.125222 -132.853617
757 -0 -59.635411 -132.853617
758 7.783983 -59.125222 -132.853617
759 15.43478 -57.603384 -132.853617
760 22.821484 -55.095936 -132.853617
761 29.817706 -51.645781 -132.853617
762 36.303738 -47.311953 -132.853617
763 42.168604 -42.168604 -132.853617
764 47.311953 -36.303738 -132.853617
765 51.645781 -29.817706 -132.853617
766 55.095936 -22.821484 -132.853617
767 57.603384 -15.43478 -132.853617
768 59.125222 -7.783983 -132.853617
769 59.635411 0 -132.853617
770 59.693239 7.858764 -131.342353
771 58.15678 15.583062 -131.342353
772 55.625243 23.04073 -131.342353
773 52.141943 30.104165 -131.342353
774 47.766479 36.652509 -131.342353
775 42.573718 42.573718 -131.342353
776 36.652509 47.766479 -131.342353
777 30.104165 52.141943 -131.342353
778 23.04073 55.625243 -131.342353
779 15.583062 58.15678 -131.342353
780 7.858764 59.693239 -131.342353
781 0 60.208329 -131.342353
782 -7.858764 59.693239 -131.342353
783 -15.583062 58.15678 -131.342353
784 -23.04073 55.625243 -131.342353
785 -30.104165 52.141943 -131.342353
786 -36.652509 47.766479 -131.342353
787 -42.573718 42.573718 -131.342353
788 -47.766479 36.652509 -131.342353
789 -52.141943 30.104165 -131.342353
790 -55.625243 23.04073 -131.342353
791 -58.15678 15.583062 -131.342353
792 -59.693239 7.858764 -131.342353
793 -60.208329 0 -131.342353
794 -59.693239 -7.858764 -131.342353
795 -58.15678 -15.583062 -131.342353
796 -55.625243 -23.04073 -131.342353
797 -52.141943 -30.104165 -131.342353
798 -47.766479 -36.652509 -131.342353
799 -42.573718 -42.573718 -131.342353
800 -36.652509 -47.766479 -131.342353
801 -30.104165 -52.141943 -131.342353
802 -23.04073 -55.625243 -131.342353
803 -15.583062 -58.15678 -131.342353
804 -7.858764 -59.693239 -131.342353
805 -0 -60.208329 -131.342353
806 7.858764 -59.693239 -131.342353
807 15.583062 -58.15678 -131.342353
808 23.04073 -55.625243 -131.342353
809 30.104165 -52.141943 -131.342353
810 36.652509 -47.766479 -131.342353
811 42.573718 -42.573718 -131.342353
812 47.766479 -36.652509 -131.342353
813 52.141943 -30.104165 -131.342353
814 55.625243 -23.04073 -131.342353
815 58.15678 -15.583062 -131.342353
816 59.693239 -7.858764 -131.342353
817 60.208329 0 -131.342353
818 60.261255 7.933545 -129.831089
819 58.710176 15.731344 -129.831089
820 56.15455 23.259976 -129.831089
821 52.638104 30.390623 -129.831089
822 48.221005 37.001279 -129.831089
823 42.978832 42.978832 -129.831089
824 37.001279 48.221005 -129.831089
825 30.390623 52.638104 -129.831089
826 23.259976 56.15455 -129.831089
827 15.731344 58.710176 -129.831089
828 7.933545 60.261255 -129.831089
829 0 60.781247 -129.831089
830 -7.933545 60.261255 -129.831089
831 -15.731344 58.710176 -129.831089
832 -23.259976 56.15455 -129.831089
833 -30.390623 52.638104 -129.831089
834 -37.001279 48.221005 -129.831089
835 -42.978832 42.978832 -129.831089
836 -48.221005 37.001279 -129.831089
837 -52.638104 30.390623 -129.831089
838 -56.15455 23.259976 -129.831089
839 -58.710176 15.731344 -129.831089
840 -60.261255 7.933545 -129.831089
841 -60.781247 0 -129.831089
842 -60.261255 -7.933545 -129.831089
843 -58.710176 -15.731344 -129.831089
844 -56.15455 -23.259976 -129.831089
845 -52.638104 -30.390623 -129.831089
846 -48.221005 -37.001279 -129.831089
847 -42.978832 -42.978832 -129.831089
848 -37.001279 -48.221005 -129.831089
849 -30.390623 -52.638104 -129.831089
850 -23.259976 -56.15455 -129.831089
851 -15.731344 -58.710176 -129.831089
852 -7.933545 -60.261255 -129.831089
853 -0 -60.781247 -129.831089
854 7.933545 -60.261255 -129.831089
855 15.731344 -58.710176 -129.831089
856 23.259976 -56.15455 -129.831089
857 30.390623 -52.638104 -129.831089
858 37.001279 -48.221005 -129.831089
859 42.978832 -42.978832 -129.831089
860 48.221005 -37.001279 -129.831089
861 52.638104 -30.390623 -129.831089
862 56.15455 -23.259976 -129.831089
863 58.710176 -15.731344 -129.831089
864 60.261255 -7.933545 -129.831089
865 60.781247 0 -129.831089
866 60.807991 8.005523999999999 -128.319825
867 59.263572 15.879626 -128.319825
868 56.683857 23.479222 -128.319825
869 53.134265 30.677082 -128.319825
870 48.675531 37.350049 -128.319825
871 43.383946 43.383946 -128.319825
872 37.350049 48.675531 -128.319825
873 30.677082 53.134265 -128.319825
874 23.479222 56.683857 -128.319825
875 15.879626 59.263572 -128.319825
876 8.008324999999999 60.829271 -128.319825
877 0 61.354165 -128.319825
878 -8.008324999999999 60.829271 -128.319825
879 -15.879626 59.263572 -128.319825
880 -23.479222 56.683857 -128.319825
881 -30.677082 53.134265 -128.319825
882 -37.350049 48.675531 -128.319825
883 -43.383946 43.383946 -128.319825
884 -48.675531 37.350049 -128.319825
885 -53.134265 30.677082 -128.319825
886 -56.683857 23.479222 -128.319825
887 -59.263572 15.879626 -128.319825
888 -60.807991 8.005523999999999 -128.319825
889 -61.249665 0 -128.319825
890 -60.807991 -8.005523999999999 -128.319825
891 -59.263572 -15.879626 -128.319825
892 -56.683857 -23.479222 -128.319825
893 -53.134265 -30.677082 -128.319825
894 -48.675531 -37.350049 -128.319825
895 -43.383946 -43.383946 -128.319825
896 -37.350049 -48.675531 -128.319825
897 -30.677082 -53.134265 -128.319825
898 -23.479222 -56.683857 -128.319825
899 -15.879626 -59.263572 -128.319825
900 -8.008324999999999 -60.829271 -128.319825
901 -0 -61.354165 -128.319825
902 8.008324999999999 -60.829271 -128.319825
903 15.879626 -59.263572 -128.319825
904 23.479222 -56.683857 -128.319825
905 30.677082 -53.134265 -128.319825
906 37.350049 -48.675531 -128.319825
907 43.383946 -43.383946 -128.319825
908 48.675531 -37.350049 -128.319825
909 53.134265 -30.677082 -128.319825
910 56.683857 -23.479222 -128.319825
911 59.263572 -15.879626 -128.319825
912 60.807991 -8.005523999999999 -128.319825
913 60.5461305 7.983620333333334 -128.5717023333333
914 61.136601 8.048786 -126.808561
915 59.816968 16.027908 -126.808561
916 57.213164 23.698468 -126.808561
917 53.630426 30.963541 -126.808561
918 49.130058 37.698819 -126.808561
919 43.78906 43.78906 -126.808561
920 37.698819 49.130058 -126.808561
921 30.963541 53.630426 -126.808561
922 23.698468 57.213164 -126.808561
923 16.027908 59.816968 -126.808561
924 8.083106000000001 61.397288 -126.808561
925 0 61.927082 -126.808561
926 -8.083106000000001 61.397288 -126.808561
927 -16.027908 59.816968 -126.808561
928 -23.698468 57.213164 -126.808561
929 -30.963541 53.630426 -126.808561
930 -37.698819 49.130058 -126.808561
931 -43.78906 43.78906 -126.808561
932 -49.130058 37.698819 -126.808561
933 -53.630426 30.963541 -126.808561
934 -57.213164 23.698468 -126.808561
935 -59.816968 16.027908 -126.808561
936 -61.136601 8.048786 -126.808561
937 -61.486766 0 -126.808561
938 -61.136601 -8.048786 -126.808561
939 -59.816968 -16.027908 -126.808561
940 -57.213164 -23.698468 -126.808561
941 -53.630426 -30.963541 -126.808561
942 -49.130058 -37.698819 -126.808561
943 -43.78906 -43.78906 -126.808561
944 -37.698819 -49.130058 -126.808561
945 -30.963541 -53.630426 -126.808561
946 -23.698468 -57.213164 -126.808561
947 -16.027908 -59.816968 -126.808561
948 -8.083106000000001 -61.397288 -126.808561
949 -0 -61.927082 -126.808561
950 8.083106000000001 -61.397288 -126.808561
951 16.027908 -59.816968 -126.808561
952 23.698468 -57.213164 -126.808561
953 30.963541 -53.630426 -126.808561
954 37.698819 -49.130058 -126.808561
955 43.78906 -43.78906 -126.808561
956 49.130058 -37.698819 -126.808561
957 53.630426 -30.963541 -126.808561
958 57.213164 -23.698468 -126.808561
959 59.816968 -16.027908 -126.808561
960 61.136601 -8.048786 -126.808561
961 60.81825041666667 9.367778722222223 -127.1024178888889
962 61.176744 8.054071 -126.518519
963 59.919101 16.055275 -126.518519
964 57.314749 23.740546 -126.518519
965 53.72565 31.018519 -126.518519
966 49.217291 37.765755 -126.518519
967 43.86681 43.86681 -126.518519
968 37.765755 49.217291 -126.518519
969 31.018519 53.72565 -126.518519
970 23.740546 57.314749 -126.518519
971 16.056367 59.923176 -126.518519
972 8.097458 61.506302 -126.518519
973 0 62.037037 -126.518519
974 -8.097458 61.506302 -126.518519
975 -16.056367 59.923176 -126.518519
976 -23.740546 57.314749 -126.518519
977 -31.018519 53.72565 -126.518519
978 -37.765755 49.217291 -126.518519
979 -43.86681 43.86681 -126.518519
980 -49.217291 37.765755 -126.518519
981 -53.72565 31.018519 -126.518519
982 -57.314749 23.740546 -126.518519
983 -59.919101 16.055275 -126.518519
984 -61.176744 8.054071 -126.518519
985 -61.512558 0 -126.518519
986 -61.176744 -8.054071 -126.518519
987 -59.919101 -16.055275 -126.518519
988 -57.314749 -23.740546 -126.518519
989 -53.72565 -31.018519 -126.518519
990 -49.217291 -37.765755 -126.518519
991 -43.86681 -43.86681 -126.518519
992 -37.765755 -49.217291 -126.518519
993 -31.018519 -53.72565 -126.518519
994 -23.740546 -57.314749 -126.518519
995 -16.056367 -59.923176 -126.518519
996 -8.097458 -61.506302 -126.518519
997 -0 -62.037037 -126.518519
998 8.097458 -61.506302 -126.518519
999 16.056367 -59.923176 -126.518519
1000 23.740546 -57.314749 -126.518519
1001 31.018519 -53.72565 -126.518519
1002 37.765755 -49.217291 -126.518519
1003 43.86681 -43.86681 -126.518519
1004 49.217291 -37.765755 -126.518519
1005 53.72565 -31.018519 -126.518519
1006 57.314749 -23.740546 -126.518519
1007 59.919101 -16.055275 -126.518519
1008 61.176744 -8.054071 -126.518519
1009 60.90738790277778 9.606556287037037 -126.6158354814815
1010 10.91107153252785 13.68205094319051 -244
1011 -3.894116344235482 17.06123846318192 -244
1012 -15.76695518829233 7.592965434557283 -244
1013 -15.76695518829234 -7.592965434557258 -244
1014 -3.894116344235505 -17.06123846318191 -244
1015 10.91107153252782 -13.68205094319053 -244
1016 13.04710145545049 16.36054774659632 -234.962963
1017 -4.656456597420821 20.40126934565132 -234.962963
1018 -18.85360785802984 9.079419017377246 -234.962963
1019 -18.85360785802977 -9.079419017377383 -234.962963
1020 -4.656456597420672 -20.40126934565135 -234.962963
1021 13.04710145545053 -16.36054774659628 -234.962963
1022 17.21935968365115 17.21935968365123 -225.925926
1023 -1.120600728528624e-13 24.351852 -225.925926
1024 -17.2193596836513 17.21935968365108 -225.925926
1025 -24.351852 -2.241201457057248e-13 -225.925926
1026 -17.21935968365102 -17.21935968365135 -225.925926
1027 1.685571005060693e-13 -24.351852 -225.925926
1028 17.21935968365125 -17.21935968365113 -225.925926
1029 21.27901247909261 17.85521152302332 -216.888889
1030 4.823560529336582 27.35577113585194 -216.888889
1031 -13.88888899999997 24.05626140868451 -216.888889
1032 -26.10257300842914 9.500559612828635 -216.888889
1033 -26.10257300842916 -9.500559612828583 -216.888889
1034 -13.88888900000001 -24.05626140868449 -216.888889
1035 4.823560529336539 -27.35577113585195 -216.888889
1036 21.27901247909259 -17.85521152302335 -216.888889
1037 25.24432682344551 18.34107702809967 -207.851852
1038 9.642474823445474 29.67648602174516 -207.851852
1039 -9.642474823445561 29.67648602174513 -207.851852
1040 -25.24432682344555 18.34107702809961 -207.851852
1041 -31.203704 -3.775045934314644e-14 -207.851852
1042 -25.24432682344551 -18.34107702809967 -207.851852
1043 -9.642474823445529 -29.67648602174514 -207.851852
1044 9.642474823445571 -29.67648602174513 -207.851852
1045 25.24432682344553 -18.34107702809963 -207.851852
1046 29.13229857813667 18.72219147138486 -198.814815
1047 14.38566819670055 31.50021943528867 -198.814815
1048 -4.928310192913652 34.27715029840321 -198.814815
1049 -22.67758491805361 26.17132813254549 -198.814815
1050 -33.22688666386978 9.75629420237275 -198.814815
1051 -33.22688666386984 -9.756294202372567 -198.814815
1052 -22.67758491805376 -26.17132813254537 -198.814815
1053 -4.928310192913919 -34.27715029840317 -198.814815
1054 14.38566819670033 -31.50021943528877 -198.814815
1055 29.13229857813661 -18.72219147138496 -198.814815
1056 32.95707825114131 19.02777800000002 -189.777778
1057 19.02777799999996 32.95707825114135 -189.777778
1058 -4.837003159954227e-14 38.055556 -189.777778
1059 -19.02777800000002 32.9570782511413 -189.777778
1060 -32.95707825114136 19.02777799999993 -189.777778
1061 -38.055556 -1.812403721713086e-13 -189.777778
1062 -32.95707825114119 -19.02777800000023 -189.777778
1063 -19.0277779999997 -32.9570782511415 -189.777778
1064 3.310107745375197e-13 -38.055556 -189.777778
1065 19.02777800000018 -32.95707825114122 -189.777778
1066 32.95707825114136 -19.02777799999993 -189.777778
1067 36.73002730446915 19.2774054313933 -180.740741
1068 23.56416699829827 34.13858959637425 -180.740741
1069 5.000040011814284 41.17903429942982 -180.740741
1070 -14.70953588436207 38.78585850564643 -180.740741
1071 -31.04933437855531 27.50730994848506 -180.740741
1072 -40.27610455166424 9.927168181146738 -180.740741
1073 -40.27610455166425 -9.927168181146692 -180.740741
1074 -31.04933437855533 -27.50730994848503 -180.740741
1075 -14.7095358843621 -38.78585850564642 -180.740741
1076 5.000040011814264 -41.17903429942982 -180.740741
1077 23.56416699829827 -34.13858959637424 -180.740741
1078 36.73002730446913 -19.27740543139334 -180.740741
1079 40.4601756452232 19.48459366323396 -171.703704
1080 27.99931029241957 35.11002458860513 -171.703704
1081 9.992838147196469 43.78148454800938 -171.703704
1082 -9.992838147196123 43.78148454800945 -171.703704
1083 -27.9993102924193 35.11002458860534 -171.703704
1084 -40.46017564522302 19.48459366323431 -171.703704
1085 -44.907407 4.243001823065373e-13 -171.703704
1086 -40.46017564522338 -19.48459366323357 -171.703704
1087 -27.99931029241991 -35.11002458860485 -171.703704
1088 -9.992838147196728 -43.78148454800932 -171.703704
1089 9.992838147196011 -43.78148454800949 -171.703704
1090 27.99931029241934 -35.11002458860531 -171.703704
1091 40.46017564522312 -19.48459366323412 -171.703704
1092 44.15469681487721 19.65893761308483 -162.666667
1093 32.34131241763455 35.91866631702584 -162.666667
1094 14.93582129178335 45.96773130391362 -162.666667
1095 -5.052209023093928 48.06855794462589 -162.666667
1096 -24.16666650000016 41.85789422757264 -162.666667
1097 -39.10248779178355 28.409620331541 -162.666667
1098 -47.2771337094181 10.04906498688768 -162.666667
1099 -47.27713370941806 -10.0490649868879 -162.666667
1100 -39.1024877917834 -28.4096203315412 -162.666667
1101 -24.16666649999987 -41.85789422757281 -162.666667
1102 -5.052209023093672 -48.06855794462592 -162.666667
1103 14.93582129178353 -45.96773130391357 -162.666667
1104 32.34131241763463 -35.91866631702577 -162.666667
1105 44.15469681487723 -19.6589376130848 -162.666667
1106 47.81932000805062 19.80741089079364 -153.62963
1107 36.59932302809087 36.59932302809081 -153.62963
1108 19.80741089079373 47.81932000805058 -153.62963
1109 1.180978780307006e-13 51.759259 -153.62963
1110 -19.80741089079352 47.81932000805067 -153.62963
1111 -36.59932302809076 36.59932302809092 -153.62963
1112 -47.81932000805057 19.80741089079375 -153.62963
1113 -51.759259 7.529565703925803e-14 -153.62963
1114 -47.81932000805064 -19.80741089079359 -153.62963
1115 -36.59932302809093 -36.59932302809075 -153.62963
1116 -19.80741089079378 -47.81932000805057 -153.62963
1117 -1.014506213430197e-13 -51.759259 -153.62963
1118 19.80741089079359 -47.81932000805064 -153.62963
1119 36.5993230280908 -36.59932302809089 -153.62963
1120 47.8193200080506 -19.8074108907937 -153.62963
1121 51.45865248704183 19.93518817824624 -144.592593
1122 40.78234381347182 37.17801872832926 -144.592593
1123 24.5981536251242 49.39975183863795 -144.592593
1124 5.091846486628993 54.94977472966408 -144.592593
1125 -15.10214273478082 53.07852605623607 -144.592593
1126 -33.25650389599673 44.03872832064726 -144.592593
1127 -46.91938992540867 29.05125629833732 -144.592593
1128 -54.24555235607949 10.14025113436862 -144.592593
1129 -54.24555235607963 -10.14025113436788 -144.592593
1130 -46.91938992540901 -29.05125629833676 -144.592593
1131 -33.25650389599723 -44.03872832064688 -144.592593
1132 -15.10214273478121 -53.07852605623596 -144.592593
1133 5.091846486628699 -54.9497747296641 -144.592593
1134 24.59815362512396 -49.39975183863807 -144.592593
1135 40.78234381347169 -37.1780187283294 -144.592593
1136 51.45865248704181 -19.93518817824628 -144.592593
1137 54.96222296009656 20.00461316657761 -135.876145
1138 44.80561467518512 37.5963747486192 -135.876145
1139 29.24478799999997 50.65345867258063 -135.876145
1140 10.15660828491139 57.60098791519678 -135.876145
1141 -10.15660828491146 57.60098791519676 -135.876145
1142 -29.24478800000003 50.65345867258059 -135.876145
1143 -44.80561467518515 37.59637474861917 -135.876145
1144 -54.96222296009657 20.00461316657758 -135.876145
1145 -58.489576 -1.88119189501075e-14 -135.876145
1146 -54.96222296009655 -20.00461316657764 -135.876145
1147 -44.80561467518514 -37.59637474861918 -135.876145
1148 -29.24478799999998 -50.65345867258062 -135.876145
1149 -10.15660828491137 -57.60098791519678 -135.876145
1150 10.15660828491151 -57.60098791519675 -135.876145
1151 29.24478800000014 -50.65345867258053 -135.876145
1152 44.8056146751853 -37.59637474861899 -135.876145
1153 54.96222296009661 -20.00461316657749 -135.876145
1154 55.07642850276378 20.04618058469669 -135.555556
1155 44.8987158865796 37.67449594076244 -135.555556
1156 29.30555549999999 50.75871107002956 -135.555556
1157 10.17771261618417 57.72067652545912 -135.555556
1158 -10.17771261618421 57.7206765254591 -135.555556
1159 -29.30555550000003 50.75871107002953 -135.555556
1160 -44.89871588657963 37.67449594076241 -135.555556
1161 -55.07642850276379 20.04618058469666 -135.555556
1162 -58.611111 3.320611586594318e-14 -135.555556
1163 -55.07642850276382 -20.04618058469658 -135.555556
1164 -44.89871588657972 -37.67449594076229 -135.555556
1165 -29.3055555000002 -50.75871107002943 -135.555556
1166 -10.17771261618443 -57.72067652545906 -135.555556
1167 10.1777126161839 -57.72067652545916 -135.555556
1168 29.30555549999973 -50.7587110700297 -135.555556
1169 44.8987158865794 -37.67449594076269 -135.555556
1170 55.07642850276372 -20.04618058469687 -135.555556
1171 55.50058977701199 20.20056266305146 -134.364881
1172 45.24449532544796 37.96463934038559 -134.364881
1173 29.53124699999998 51.149620214866 -134.364881
1174 10.256094451564 58.16520200343702 -134.364881
1175 -10.25609445156406 58.16520200343701 -134.364881
1176 -29.53124700000003 51.14962021486596 -134.364881
1177 -45.24449532544799 37.96463934038556 -134.364881
1178 -55.500589777012 20.20056266305144 -134.364881
1179 -59.062494 7.232830542499603e-15 -134.364881
1180 -55.50058977701201 -20.2005626630514 -134.364881
1181 -45.24449532544809 -37.96463934038545 -134.364881
1182 -29.5312470000002 -51.14962021486586 -134.364881
1183 -10.25609445156426 -58.16520200343697 -134.364881
1184 10.25609445156373 -58.16520200343707 -134.364881
1185 29.53124699999973 -51.14962021486614 -134.364881
1186 45.24449532544777 -37.96463934038583 -134.364881
1187 55.5005897770119 -20.20056266305169 -134.364881
1188 56.03895565423478 20.39651181750517 -132.853617
1189 45.68337520966635 38.33290328936437 -132.853617
1190 29.81770549999996 51.64578089112597 -132.853617
1191 10.35558044456835 58.72941510686952 -132.853617
1192 -10.35558044456849 58.7294151068695 -132.853617
1193 -29.81770550000008 51.6457808911259 -132.853617
1194 -45.68337520966644 38.33290328936428 -132.853617
1195 -56.03895565423483 20.39651181750507 -132.853617
1196 -59.635411 -7.214733732788031e-14 -132.853617
1197 -56.03895565423478 -20.39651181750518 -132.853617
1198 -45.68337520966637 -38.33290328936435 -132.853617
1199 -29.81770549999997 -51.64578089112596 -132.853617
1200 -10.35558044456852 -58.7294151068695 -132.853617
1201 10.35558044456823 -58.72941510686955 -132.853617
1202 29.81770549999982 -51.64578089112606 -132.853617
1203 45.6833752096662 -38.33290328936457 -132.853617
1204 56.03895565423473 -20.3965118175053 -132.853617
1205 56.57732247115023 20.59246131397898 -131.342353
1206 46.12225585992926 38.70116788113069 -131.342353
1207 30.1041645000001 52.14194243341127 -131.342353
1208 10.45506661122114 59.29362919510974 -131.342353
1209 -10.45506661122083 59.29362919510979 -131.342353
1210 -30.10416449999985 52.14194243341141 -131.342353
1211 -46.12225585992908 38.70116788113092 -131.342353
1212 -56.5773224711501 20.5924613139793 -131.342353
1213 -60.208329 2.747518427446689e-13 -131.342353
1214 -56.57732247115029 -20.59246131397878 -131.342353
1215 -46.12225585992935 -38.70116788113058 -131.342353
1216 -30.10416450000011 -52.14194243341126 -131.342353
1217 -10.45506661122115 -59.29362919510974 -131.342353
1218 10.45506661122087 -59.29362919510979 -131.342353
1219 30.10416449999991 -52.14194243341138 -131.342353
1220 46.12225585992917 -38.7011678811308 -131.342353
1221 56.57732247115019 -20.59246131397906 -131.342353
1222 57.48795138466498 19.73563863849876 -129.831089
1223 47.96494421932803 37.33261460053073 -129.831089
1224 33.2441910950343 50.88402249539487 -129.831089
1225 14.92091402882026 58.92135700592413 -129.831089
1226 -5.019275594252146 60.57364822580817 -129.831089
1227 -24.415548824602 55.66184476343274 -129.831089
1228 -41.16601849353233 44.71821673842958 -129.831089
1229 -53.45551130209814 28.92867605519248 -129.831089
1230 -59.95227001336281 10.00426444671709 -129.831089
1231 -59.95227001336281 -10.00426444671708 -129.831089
1232 -53.45551130209817 -28.92867605519242 -129.831089
1233 -41.16601849353236 -44.71821673842955 -129.831089
1234 -24.41554882460205 -55.66184476343272 -129.831089
1235 -5.019275594252188 -60.57364822580817 -129.831089
1236 14.92091402882016 -58.92135700592415 -129.831089
1237 33.24419109503427 -50.88402249539489 -129.831089
1238 47.96494421932798 -37.3326146005308 -129.831089
1239 57.48795138466497 -19.73563863849878 -129.831089
1240 54.77229002826903 27.25591751154798 -128.319825
1241 42.95428680411354 43.56401662459358 -128.319825
1242 26.48124352750344 55.15099995151312 -128.319825
1243 7.138448039471815 60.76130547179528 -128.319825
1244 -12.97795548500768 59.78680631851491 -128.319825
1245 -31.68793924814502 52.33323372351873 -128.319825
1246 -46.96386213011519 39.20823766358501 -128.319825
1247 -57.15027630934618 21.83423471814065 -128.319825
1248 -61.07183091392692 2.084745598757237 -128.319825
1249 -58.50338459270571 -17.89064205818914 -128.319825
1250 -49.52525920179399 -35.91852909126504 -128.319825
1251 -35.17871878770068 -50.05345030188631 -128.319825
1252 -17.01985789972144 -58.76408249066498 -128.319825
1253 2.983465078706629 -61.10636999191699 -128.319825
1254 22.66347465857621 -56.82658424445809 -128.319825
1255 39.88740250797666 -46.38840532432619 -128.319825
1256 52.78876183377206 -30.92314549343374 -128.319825
1257 59.94955909319534 -12.10222848729617 -128.3474368422084
1258 54.67589129319022 28.69956291081092 -126.808561
1259 42.39849274020837 44.89417993981815 -126.808561
1260 25.52888405270667 56.22628333845503 -126.808561
1261 5.894239096729457 61.4685009711167 -126.808561
1262 -14.37881633512712 60.05305519096334 -126.808561
1263 -33.09448785473481 52.13322051598187 -126.808561
1264 -48.22570783690126 38.56684880025985 -126.808561
1265 -58.13147027396214 20.82249019071201 -126.808561
1266 -61.36683888059563 0.7654267973644603 -126.808561
1267 -58.62464585457043 -19.37328451114404 -126.808561
1268 -49.16692045522102 -37.35955184147985 -126.808561
1269 -34.37662812509855 -51.29682112067435 -126.808561
1270 -15.86304079320896 -59.67818853492336 -126.808561
1271 4.368700927583256 -61.59570574349551 -126.808561
1272 24.12727183310383 -56.84185653368709 -126.808561
1273 41.27258009712695 -45.93137244970772 -126.808561
1274 53.94768763160567 -30.0461017460712 -126.808561
1275 60.53657963976566 -10.85657563154601 -126.8751347061557
1276 54.66627453422007 28.9528563592586 -126.518519
1277 42.31493890994459 45.12336276012714 -126.518519
1278 25.38516366781757 56.41157341689129 -126.518519
1279 5.708746315494532 61.59611419277253 -126.518519
1280 -14.58535197516213 60.11605877505134 -126.518519
1281 -33.30132224405852 52.1314903323451 -126.518519
1282 -48.414161365231 38.50640020104531 -126.518519
1283 -58.28395921676061 20.71315475026859 -126.518519
1284 -61.39867548615742 0.6100088087978337 -126.518519
1285 -58.67561664587896 -19.55773032417567 -126.518519
1286 -49.16414044234378 -37.54413920624056 -126.518519
1287 -34.32292951663678 -51.46460680332675 -126.518519
1288 -15.76807163947039 -59.81674448428416 -126.518519
1289 4.492894020323184 -61.6967040057345 -126.518519
1290 24.26773869568824 -56.9012430060038 -126.518519
1291 41.41681709972106 -45.94906987118358 -126.518519
1292 54.08469237273955 -30.02531945324284 -126.518519
1293 60.61422517442708 -10.79280127797109 -126.5408569627493
$EndNodes
$Elements
1314
1 15 2 0 1 1
2 15 2 0 2 2
3 15 2 0 3 3
4 15 2 0 4 4
5 15 2 0 5 5
6 15 2 0 6 6
7 15 2 0 7 7
8 15 2 0 8 8
9 15 2 0 9 9
10 15 2 0 10 10
11 15 2 0 11 11
12 15 2 0 12 12
13 15 2 0 13 13
14 15 2 0 14 14
15 15 2 0 15 15
16 15 2 0 16 16
17 15 2 0 17 17
18 15 2 0 18 18
19 15 2 0 19 19
20 15 2 0 20 20
21 15 2 0 21 21
22 15 2 0 22 22
23 15 2 0 23 23
24 15 2 0 24 24
25 15 2 0 25 25
26 15 2 0 26 26
27 15 2 0 27 27
28 15 2 0 28 28
29 15 2 0 29 29
30 15 2 0 30 30
31 15 2 0 31 31
32 15 2 0 32 32
33 15 2 0 33 33
34 15 2 0 34 34
35 15 2 0 35 35
36 15 2 0 36 36
37 15 2 0 37 37
38 15 2 0 38 38
39 15 2 0 39 39
40 15 2 0 40 40
41 15 2 0 41 41
42 15 2 0 42 42
43 15 2 0 43 43
44 15 2 0 44 44
45 15 2 0 45 45
46 15 2 0 46 46
47 15 2 0 47 47
48 15 2 0 48 48
49 15 2 0 49 49
50 15 2 0 50 50
51 15 2 0 51 51
52 15 2 0 52 52
53 15 2 0 53 53
54 15 2 0 54 54
55 15 2 0 55 55
56 15 2 0 56 56
57 15 2 0 57 57
58 15 2 0 58 58
59 15 2 0 59 59
60 15 2 0 60 60
61 15 2 0 61 61
62 15 2 0 62 62
63 15 2 0 63 63
64 15 2 0 64 64
65 15 2 0 65 65
66 15 2 0 66 66
67 15 2 0 67 67
68 15 2 0 68 68
69 15 2 0 69 69
70 15 2 0 70 70
71 15 2 0 71 71
72 15 2 0 72 72
73 15 2 0 73 73
74 15 2 0 74 74
75 15 2 0 75 75
76 15 2 0 76 76
77 15 2 0 77 77
78 15 2 0 78 78
79 15 2 0 79 79
80 15 2 0 80 80
81 15 2 0 81 81
82 15 2 0 82 82
83 15 2 0 83 83
84 15 2 0 84 84
85 15 2 0 85 85
86 15 2 0 86 86
87 15 2 0 87 87
88 15 2 0 88 88
89 15 2 0 89 89
90 15 2 0 90 90
91 15 2 0 91 91
92 15 2 0 92 92
93 15 2 0 93 93
94 15 2 0 94 94
95 15 2 0 95 95
96 15 2 0 96 96
97 15 2 0 97 97
98 15 2 0 98 98
99 15 2 0 99 99
100 15 2 0 100 100
101 15 2 0 101 101
102 15 2 0 102 102
103 15 2 0 103 103
104 15 2 0 104 104
105 15 2 0 105 105
106 15 2 0 106 106
107 15 2 0 107 107
108 15 2 0 108 108
109 15 2 0 109 109
110 15 2 0 110 110
111 15 2 0 111 111
112 15 2 0 112 112
113 15 2 0 113 113
114 15 2 0 114 114
115 15 2 0 115 115
116 15 2 0 116 116
117 15 2 0 117 117
118 15 2 0 118 118
119 15 2 0 119 119
120 15 2 0 120 120
121 15 2 0 121 121
122 15 2 0 122 122
123 15 2 0 123 123
124 15 2 0 124 124
125 15 2 0 125 125
126 15 2 0 126 126
127 15 2 0 127 127
128 15 2 0 128 128
129 15 2 0 129 129
130 15 2 0 130 130
131 15 2 0 131 131
132 15 2 0 132 132
133 15 2 0 133 133
134 15 2 0 134 134
135 15 2 0 135 135
136 15 2 0 136 136
137 15 2 0 137 137
138 15 2 0 138 138
139 15 2 0 139 139
140 15 2 0 140 140
141 15 2 0 141 141
142 15 2 0 142 142
143 15 2 0 143 143
144 15 2 0 144 144
145 15 2 0 145 145
146 15 2 0 146 146
147 15 2 0 147 147
148 15 2 0 148 148
149 15 2 0 149 149
150 15 2 0 150 150
151 15 2 0 151 151
152 15 2 0 152 152
153 15 2 0 153 153
154 15 2 0 154 154
155 15 2 0 155 155
156 15 2 0 156 156
157 15 2 0 157 157
158 15 2 0 158 158
159 15 2 0 159 159
160 15 2 0 160 160
161 15 2 0 161 161
162 15 2 0 162 162
163 15 2 0 163 163
164 15 2 0 164 164
165 15 2 0 165 165
166 15 2 0 166 166
167 15 2 0 167 167
168 15 2 0 168 168
169 15 2 0 169 169
170 15 2 0 170 170
171 15 2 0 171 171
172 15 2 0 172 172
173 15 2 0 173 173
174 15 2 0 174 174
175 15 2 0 175 175
176 15 2 0 176 176
177 15 2 0 177 177
178 15 2 0 178 178
179 15 2 0 179 179
180 15 2 0 180 180
181 15 2 0 181 181
182 15 2 0 182 182
183 15 2 0 183 183
184 15 2 0 184 184
185 15 2 0 185 185
186 15 2 0 186 186
187 15 2 0 187 187
188 15 2 0 188 188
189 15 2 0 189 189
190 15 2 0 190 190
191 15 2 0 191 191
192 15 2 0 192 192
193 15 2 0 193 193
194 15 2 0 194 194
195 15 2 0 195 195
196 15 2 0 196 196
197 15 2 0 197 197
198 15 2 0 198 198
199 15 2 0 199 199
200 15 2 0 200 200
201 15 2 0 201 201
202 15 2 0 202 202
203 15 2 0 203 203
204 15 2 0 204 204
205 15 2 0 205 205
206 15 2 0 206 206
207 15 2 0 207 207
208 15 2 0 208 208
209 15 2 0 209 209
210 15 2 0 210 210
211 15 2 0 211 211
212 15 2 0 212 212
213 15 2 0 213 213
214 15 2 0 214 214
215 15 2 0 215 215
216 15 2 0 216 216
217 15 2 0 217 217
218 15 2 0 218 218
219 15 2 0 219 219
220 15 2 0 220 220
221 15 2 0 221 221
222 15 2 0 222 222
223 15 2 0 223 223
224 15 2 0 224 224
225 15 2 0 225 225
226 15 2 0 226 226
227 15 2 0 227 227
228 15 2 0 228 228
229 15 2 0 229 229
230 15 2 0 230 230
231 15 2 0 231 231
232 15 2 0 232 232
233 15 2 0 233 233
234 15 2 0 234 234
235 15 2 0 235 235
236 15 2 0 236 236
237 15 2 0 237 237
238 15 2 0 238 238
239 15 2 0 239 239
240 15 2 0 240 240
241 15 2 0 241 241
242 15 2 0 242 242
243 15 2 0 243 243
244 15 2 0 244 244
245 15 2 0 245 245
246 15 2 0 246 246
247 15 2 0 247 247
248 15 2 0 248 248
249 15 2 0 249 249
250 15 2 0 250 250
251 15 2 0 251 251
252 15 2 0 252 252
253 15 2 0 253 253
254 15 2 0 254 254
255 15 2 0 255 255
256 15 2 0 256 256
257 15 2 0 257 257
258 15 2 0 258 258
259 15 2 0 259 259
260 15 2 0 260 260
261 15 2 0 261 261
262 15 2 0 262 262
263 15 2 0 263 263
264 15 2 0 264 264
265 15 2 0 265 265
266 15 2 0 266 266
267 15 2 0 267 267
268 15 2 0 268 268
269 15 2 0 269 269
270 15 2 0 270 270
271 15 2 0 271 271
272 15 2 0 272 272
273 15 2 0 273 273
274 15 2 0 274 274
275 15 2 0 275 275
276 15 2 0 276 276
277 15 2 0 277 277
278 15 2 0 278 278
279 15 2 0 279 279
280 15 2 0 280 280
281 15 2 0 281 281
282 15 2 0 282 282
283 15 2 0 283 283
284 15 2 0 284 284
285 15 2 0 285 285
286 15 2 0 286 286
287 15 2 0 287 287
288 15 2 0 288 288
289 15 2 0 289 289
290 15 2 0 290 290
291 15 2 0 291 291
292 15 2 0 292 292
293 15 2 0 293 293
294 15 2 0 294 294
295 15 2 0 295 295
296 15 2 0 296 296
297 15 2 0 297 297
298 15 2 0 298 298
299 15 2 0 299 299
300 15 2 0 300 300
301 15 2 0 301 301
302 15 2 0 302 302
303 15 2 0 303 303
304 15 2 0 304 304
305 15 2 0 305 305
306 15 2 0 306 306
307 15 2 0 307 307
308 15 2 0 308 308
309 15 2 0 309 309
310 15 2 0 310 310
311 15 2 0 311 311
312 15 2 0 312 312
313 15 2 0 313 313
314 15 2 0 314 314
315 15 2 0 315 315
316 15 2 0 316 316
317 15 2 0 317 317
318 15 2 0 318 318
319 15 2 0 319 319
320 15 2 0 320 320
321 15 2 0 321 321
322 15 2 0 322 322
323 15 2 0 323 323
324 15 2 0 324 324
325 15 2 0 325 325
326 15 2 0 326 326
327 15 2 0 327 327
328 15 2 0 328 328
329 15 2 0 329 329
330 15 2 0 330 330
331 15 2 0 331 331
332 15 2 0 332 332
333 15 2 0 333 333
334 15 2 0 334 334
335 15 2 0 335 335
336 15 2 0 336 336
337 15 2 0 337 337
338 15 2 0 338 338
339 15 2 0 339 339
340 15 2 0 340 340
341 15 2 0 341 341
342 15 2 0 342 342
343 15 2 0 343 343
344 15 2 0 344 344
345 15 2 0 345 345
346 15 2 0 346 346
347 15 2 0 347 347
348 15 2 0 348 348
349 15 2 0 349 349
350 15 2 0 350 350
351 15 2 0 351 351
352 15 2 0 352 352
353 15 2 0 353 353
354 15 2 0 354 354
355 15 2 0 355 355
356 15 2 0 356 356
357 15 2 0 357 357
358 15 2 0 358 358
359 15 2 0 359 359
360 15 2 0 360 360
361 15 2 0 361 361
362 15 2 0 362 362
363 15 2 0 363 363
364 15 2 0 364 364
365 15 2 0 365 365
366 15 2 0 366 366
367 15 2 0 367 367
368 15 2 0 368 368
369 15 2 0 369 369
370 15 2 0 370 370
371 15 2 0 371 371
372 15 2 0 372 372
373 15 2 0 373 373
374 15 2 0 374 374
375 15 2 0 375 375
376 15 2 0 376 376
377 15 2 0 377 377
378 15 2 0 378 378
379 15 2 0 379 379
380 15 2 0 380 380
381 15 2 0 381 381
382 15 2 0 382 382
383 15 2 0 383 383
384 15 2 0 384 384
385 15 2 0 385 385
386 15 2 0 386 386
387 15 2 0 387 387
388 15 2 0 388 388
389 15 2 0 389 389
390 15 2 0 390 390
391 15 2 0 391 391
392 15 2 0 392 392
393 15 2 0 393 393
394 15 2 0 394 394
395 15 2 0 395 395
396 15 2 0 396 396
397 15 2 0 397 397
398 15 2 0 398 398
399 15 2 0 399 399
400 15 2 0 400 400
401 15 2 0 401 401
402 15 2 0 402 402
403 15 2 0 403 403
404 15 2 0 404 404
405 15 2 0 405 405
406 15 2 0 406 406
407 15 2 0 407 407
408 15 2 0 408 408
409 15 2 0 409 409
410 15 2 0 410 410
411 15 2 0 411 411
412 15 2 0 412 412
413 15 2 0 413 413
414 15 2 0 414 414
415 15 2 0 415 415
416 15 2 0 416 416
417 15 2 0 417 417
418 15 2 0 418 418
419 15 2 0 419 419
420 15 2 0 420 420
421 15 2 0 421 421
422 15 2 0 422 422
423 15 2 0 423 423
424 15 2 0 424 424
425 15 2 0 425 425
426 15 2 0 426 426
427 15 2 0 427 427
428 15 2 0 428 428
429 15 2 0 429 429
430 15 2 0 430 430
431 15 2 0 431 431
432 15 2 0 432 432
433 15 2 0 433 433
434 15 2 0 434 434
435 15 2 0 435 435
436 15 2 0 436 436
437 15 2 0 437 437
438 15 2 0 438 438
439 15 2 0 439 439
440 15 2 0 440 440
441 15 2 0 441 441
442 15 2 0 442 442
443 15 2 0 443 443
444 15 2 0 444 444
445 15 2 0 445 445
446 15 2 0 446 446
447 15 2 0 447 447
448 15 2 0 448 448
449 15 2 0 449 449
450 15 2 0 450 450
451 15 2 0 451 451
452 15 2 0 452 452
453 15 2 0 453 453
454 15 2 0 454 454
455 15 2 0 455 455
456 15 2 0 456 456
457 15 2 0 457 457
458 15 2 0 458 458
459 15 2 0 459 459
460 15 2 0 460 460
461 15 2 0 461 461
462 15 2 0 462 462
463 15 2 0 463 463
464 15 2 0 464 464
465 15 2 0 465 465
466 15 2 0 466 466
467 15 2 0 467 467
468 15 2 0 468 468
469 15 2 0 469 469
470 15 2 0 470 470
471 15 2 0 471 471
472 15 2 0 472 472
473 15 2 0 473 473
474 15 2 0 474 474
475 15 2 0 475 475
476 15 2 0 476 476
477 15 2 0 477 477
478 15 2 0 478 478
479 15 2 0 479 479
480 15 2 0 480 480
481 15 2 0 481 481
482 15 2 0 482 482
483 15 2 0 483 483
484 15 2 0 484 484
485 15 2 0 485 485
486 15 2 0 486 486
487 15 2 0 487 487
488 15 2 0 488 488
489 15 2 0 489 489
490 15 2 0 490 490
491 15 2 0 491 491
492 15 2 0 492 492
493 15 2 0 493 493
494 15 2 0 494 494
495 15 2 0 495 495
496 15 2 0 496 496
497 15 2 0 497 497
498 15 2 0 498 498
499 15 2 0 499 499
500 15 2 0 500 500
501 15 2 0 501 501
502 15 2 0 502 502
503 15 2 0 503 503
504 15 2 0 504 504
505 15 2 0 505 505
506 15 2 0 506 506
507 15 2 0 507 507
508 15 2 0 508 508
509 15 2 0 509 509
510 15 2 0 510 510
511 15 2 0 511 511
512 15 2 0 512 512
513 15 2 0 513 513
514 15 2 0 514 514
515 15 2 0 515 515
516 15 2 0 516 516
517 15 2 0 517 517
518 15 2 0 518 518
519 15 2 0 519 519
520 15 2 0 520 520
521 15 2 0 521 521
522 15 2 0 522 522
523 15 2 0 523 523
524 15 2 0 524 524
525 15 2 0 525 525
526 15 2 0 526 526
527 15 2 0 527 527
528 15 2 0 528 528
529 15 2 0 529 529
530 15 2 0 530 530
531 15 2 0 531 531
532 15 2 0 532 532
533 15 2 0 533 533
534 15 2 0 534 534
535 15 2 0 535 535
536 15 2 0 536 536
537 15 2 0 537 537
538 15 2 0 538 538
539 15 2 0 539 539
540 15 2 0 540 540
541 15 2 0 541 541
542 15 2 0 542 542
543 15 2 0 543 543
544 15 2 0 544 544
545 15 2 0 545 545
546 15 2 0 546 546
547 15 2 0 547 547
548 15 2 0 548 548
549 15 2 0 549 549
550 15 2 0 550 550
551 15 2 0 551 551
552 15 2 0 552 552
553 15 2 0 553 553
554 15 2 0 554 554
555 15 2 0 555 555
556 15 2 0 556 556
557 15 2 0 557 557
558 15 2 0 558 558
559 15 2 0 559 559
560 15 2 0 560 560
561 15 2 0 561 561
562 15 2 0 562 562
563 15 2 0 563 563
564 15 2 0 564 564
565 15 2 0 565 565
566 15 2 0 566 566
567 15 2 0 567 567
568 15 2 0 568 568
569 15 2 0 569 569
570 15 2 0 570 570
571 15 2 0 571 571
572 15 2 0 572 572
573 15 2 0 573 573
574 15 2 0 574 574
575 15 2 0 575 575
576 15 2 0 576 576
577 15 2 0 577 577
578 15 2 0 578 578
579 15 2 0 579 579
580 15 2 0 580 580
581 15 2 0 581 581
582 15 2 0 582 582
583 15 2 0 583 583
584 15 2 0 584 584
585 15 2 0 585 585
586 15 2 0 586 586
587 15 2 0 587 587
588 15 2 0 588 588
589 15 2 0 589 589
590 15 2 0 590 590
591 15 2 0 591 591
592 15 2 0 592 592
593 15 2 0 593 593
594 15 2 0 594 594
595 15 2 0 595 595
596 15 2 0 596 596
597 15 2 0 597 597
598 15 2 0 598 598
599 15 2 0 599 599
600 15 2 0 600 600
601 15 2 0 601 601
602 15 2 0 602 602
603 15 2 0 603 603
604 15 2 0 604 604
605 15 2 0 605 605
606 15 2 0 606 606
607 15 2 0 607 607
608 15 2 0 608 608
609 15 2 0 609 609
610 15 2 0 610 610
611 15 2 0 611 611
612 15 2 0 612 612
613 15 2 0 613 613
614 15 2 0 614 614
615 15 2 0 615 615
616 15 2 0 616 616
617 15 2 0 617 617
618 15 2 0 618 618
619 15 2 0 619 619
620 15 2 0 620 620
621 15 2 0 621 621
622 15 2 0 622 622
623 15 2 0 623 623
624 15 2 0 624 624
625 15 2 0 625 625
626 15 2 0 626 626
627 15 2 0 627 627
628 15 2 0 628 628
629 15 2 0 629 629
630 15 2 0 630 630
631 15 2 0 631 631
632 15 2 0 632 632
633 15 2 0 633 633
634 15 2 0 634 634
635 15 2 0 635 635
636 15 2 0 636 636
637 15 2 0 637 637
638 15 2 0 638 638
639 15 2 0 639 639
640 15 2 0 640 640
641 15 2 0 641 641
642 15 2 0 642 642
643 15 2 0 643 643
644 15 2 0 644 644
645 15 2 0 645 645
646 15 2 0 646 646
647 15 2 0 647 647
648 15 2 0 648 648
649 15 2 0 649 649
650 15 2 0 650 650
651 15 2 0 651 651
652 15 2 0 652 652
653 15 2 0 653 653
654 15 2 0 654 654
655 15 2 0 655 655
656 15 2 0 656 656
657 15 2 0 657 657
658 15 2 0 658 658
659 15 2 0 659 659
660 15 2 0 660 660
661 15 2 0 661 661
662 15 2 0 662 662
663 15 2 0 663 663
664 15 2 0 664 664
665 15 2 0 665 665
666 15 2 0 666 666
667 15 2 0 667 667
668 15 2 0 668 668
669 15 2 0 669 669
670 15 2 0 670 670
671 15 2 0 671 671
672 15 2 0 672 672
673 15 2 0 673 673
674 15 2 0 674 674
675 15 2 0 675 675
676 15 2 0 676 676
677 15 2 0 677 677
678 15 2 0 678 678
679 15 2 0 679 679
680 15 2 0 680 680
681 15 2 0 681 681
682 15 2 0 682 682
683 15 2 0 683 683
684 15 2 0 684 684
685 15 2 0 685 685
686 15 2 0 686 686
687 15 2 0 687 687
688 15 2 0 688 688
689 15 2 0 689 689
690 15 2 0 690 690
691 15 2 0 691 691
692 15 2 0 692 692
693 15 2 0 693 693
694 15 2 0 694 694
695 15 2 0 695 695
696 15 2 0 696 696
697 15 2 0 697 697
698 15 2 0 698 698
699 15 2 0 699 699
700 15 2 0 700 700
701 15 2 0 701 701
702 15 2 0 702 702
703 15 2 0 703 703
704 15 2 0 704 704
705 15 2 0 705 705
706 15 2 0 706 706
707 15 2 0 707 707
708 15 2 0 708 708
709 15 2 0 709 709
710 15 2 0 710 710
711 15 2 0 711 711
712 15 2 0 712 712
713 15 2 0 713 713
714 15 2 0 714 714
715 15 2 0 715 715
716 15 2 0 716 716
717 15 2 0 717 717
718 15 2 0 718 718
719 15 2 0 719 719
720 15 2 0 720 720
721 15 2 0 721 721
722 15 2 0 722 722
723 15 2 0 723 723
724 15 2 0 724 724
725 15 2 0 725 725
726 15 2 0 726 726
727 15 2 0 727 727
728 15 2 0 728 728
729 15 2 0 729 729
730 15 2 0 730 730
731 15 2 0 731 731
732 15 2 0 732 732
733 15 2 0 733 733
734 15 2 0 734 734
735 15 2 0 735 735
736 15 2 0 736 736
737 15 2 0 737 737
738 15 2 0 738 738
739 15 2 0 739 739
740 15 2 0 740 740
741 15 2 0 741 741
742 15 2 0 742 742
743 15 2 0 743 743
744 15 2 0 744 744
745 15 2 0 745 745
746 15 2 0 746 746
747 15 2 0 747 747
748 15 2 0 748 748
749 15 2 0 749 749
750 15 2 0 750 750
751 15 2 0 751 751
752 15 2 0 752 752
753 15 2 0 753 753
754 15 2 0 754 754
755 15 2 0 755 755
756 15 2 0 756 756
757 15 2 0 757 757
758 15 2 0 758 758
759 15 2 0 759 759
760 15 2 0 760 760
761 15 2 0 761 761
762 15 2 0 762 762
763 15 2 0 763 763
764 15 2 0 764 764
765 15 2 0 765 765
766 15 2 0 766 766
767 15 2 0 767 767
768 15 2 0 768 768
769 15 2 0 769 769
770 15 2 0 770 770
771 15 2 0 771 771
772 15 2 0 772 772
773 15 2 0 773 773
774 15 2 0 774 774
775 15 2 0 775 775
776 15 2 0 776 776
777 15 2 0 777 777
778 15 2 0 778 778
779 15 2 0 779 779
780 15 2 0 780 780
781 15 2 0 781 781
782 15 2 0 782 782
783 15 2 0 783 783
784 15 2 0 784 784
785 15 2 0 785 785
786 15 2 0 786 786
787 15 2 0 787 787
788 15 2 0 788 788
789 15 2 0 789 789
790 15 2 0 790 790
791 15 2 0 791 791
792 15 2 0 792 792
793 15 2 0 793 793
794 15 2 0 794 794
795 15 2 0 795 795
796 15 2 0 796 796
797 15 2 0 797 797
798 15 2 0 798 798
799 15 2 0 799 799
800 15 2 0 800 800
801 15 2 0 801 801
802 15 2 0 802 802
803 15 2 0 803 803
804 15 2 0 804 804
805 15 2 0 805 805
806 15 2 0 806 806
807 15 2 0 807 807
808 15 2 0 808 808
809 15 2 0 809 809
810 15 2 0 810 810
811 15 2 0 811 811
812 15 2 0 812 812
813 15 2 0 813 813
814 15 2 0 814 814
815 15 2 0 815 815
816 15 2 0 816 816
817 15 2 0 817 817
818 15 2 0 818 818
819 15 2 0 819 819
820 15 2 0 820 820
821 15 2 0 821 821
822 15 2 0 822 822
823 15 2 0 823 823
824 15 2 0 824 824
825 15 2 0 825 825
826 15 2 0 826 826
827 15 2 0 827 827
828 15 2 0 828 828
829 15 2 0 829 829
830 15 2 0 830 830
831 15 2 0 831 831
832 15 2 0 832 832
833 15 2 0 833 833
834 15 2 0 834 834
835 15 2 0 835 835
836 15 2 0 836 836
837 15 2 0 837 837
838 15 2 0 838 838
839 15 2 0 839 839
840 15 2 0 840 840
841 15 2 0 841 841
842 15 2 0 842 842
843 15 2 0 843 843
844 15 2 0 844 844
845 15 2 0 845 845
846 15 2 0 846 846
847 15 2 0 847 847
848 15 2 0 848 848
849 15 2 0 849 849
850 15 2 0 850 850
851 15 2 0 851 851
852 15 2 0 852 852
853 15 2 0 853 853
854 15 2 0 854 854
855 15 2 0 855 855
856 15 2 0 856 856
857 15 2 0 857 857
858 15 2 0 858 858
859 15 2 0 859 859
860 15 2 0 860 860
861 15 2 0 861 861
862 15 2 0 862 862
863 15 2 0 863 863
864 15 2 0 864 864
865 15 2 0 865 865
866 15 2 0 866 866
867 15 2 0 867 867
868 15 2 0 868 868
869 15 2 0 869 869
870 15 2 0 870 870
871 15 2 0 871 871
872 15 2 0 872 872
873 15 2 0 873 873
874 15 2 0 874 874
875 15 2 0 875 875
876 15 2 0 876 876
877 15 2 0 877 877
878 15 2 0 878 878
879 15 2 0 879 879
880 15 2 0 880 880
881 15 2 0 881 881
882 15 2 0 882 882
883 15 2 0 883 883
884 15 2 0 884 884
885 15 2 0 885 885
886 15 2 0 886 886
887 15 2 0 887 887
888 15 2 0 888 888
889 15 2 0 889 889
890 15 2 0 890 890
891 15 2 0 891 891
892 15 2 0 892 892
893 15 2 0 893 893
894 15 2 0 894 894
895 15 2 0 895 895
896 15 2 0 896 896
897 15 2 0 897 897
898 15 2 0 898 898
899 15 2 0 899 899
900 15 2 0 900 900
901 15 2 0 901 901
902 15 2 0 902 902
903 15 2 0 903 903
904 15 2 0 904 904
905 15 2 0 905 905
906 15 2 0 906 906
907 15 2 0 907 907
908 15 2 0 908 908
909 15 2 0 909 909
910 15 2 0 910 910
911 15 2 0 911 911
912 15 2 0 912 912
913 15 2 0 913 913
914 15 2 0 914 914
915 15 2 0 915 915
916 15 2 0 916 916
917 15 2 0 917 917
918 15 2 0 918 918
919 15 2 0 919 919
920 15 2 0 920 920
921 15 2 0 921 921
922 15 2 0 922 922
923 15 2 0 923 923
924 15 2 0 924 924
925 15 2 0 925 925
926 15 2 0 926 926
927 15 2 0 927 927
928 15 2 0 928 928
929 15 2 0 929 929
930 15 2 0 930 930
931 15 2 0 931 931
932 15 2 0 932 932
933 15 2 0 933 933
934 15 2 0 934 934
935 15 2 0 935 935
936 15 2 0 936 936
937 15 2 0 937 937
938 15 2 0 938 938
939 15 2 0 939 939
940 15 2 0 940 940
941 15 2 0 941 941
942 15 2 0 942 942
943 15 2 0 943 943
944 15 2 0 944 944
945 15 2 0 945 945
946 15 2 0 946 946
947 15 2 0 947 947
948 15 2 0 948 948
949 15 2 0 949 949
950 15 2 0 950 950
951 15 2 0 951 951
952 15 2 0 952 952
953 15 2 0 953 953
954 15 2 0 954 954
955 15 2 0 955 955
956 15 2 0 956 956
957 15 2 0 957 957
958 15 2 0 958 958
959 15 2 0 959 959
960 15 2 0 960 960
961 15 2 0 961 961
962 15 2 0 962 962
963 15 2 0 963 963
964 15 2 0 964 964
965 15 2 0 965 965
966 15 2 0 966 966
967 15 2 0 967 967
968 15 2 0 968 968
969 15 2 0 969 969
970 15 2 0 970 970
971 15 2 0 971 971
972 15 2 0 972 972
973 15 2 0 973 973
974 15 2 0 974 974
975 15 2 0 975 975
976 15 2 0 976 976
977 15 2 0 977 977
978 15 2 0 978 978
979 15 2 0 979 979
980 15 2 0 980 980
981 15 2 0 981 981
982 15 2 0 982 982
983 15 2 0 983 983
984 15 2 0 984 984
985 15 2 0 985 985
986 15 2 0 986 986
987 15 2 0 987 987
988 15 2 0 988 988
989 15 2 0 989 989
990 15 2 0 990 990
991 15 2 0 991 991
992 15 2 0 992 992
993 15 2 0 993 993
994 15 2 0 994 994
995 15 2 0 995 995
996 15 2 0 996 996
997 15 2 0 997 997
998 15 2 0 998 998
999 15 2 0 999 999
1000 15 2 0 1000 1000
1001 15 2 0 1001 1001
1002 15 2 0 1002 1002
1003 15 2 0 1003 1003
1004 15 2 0 1004 1004
1005 15 2 0 1005 1005
1006 15 2 0 1006 1006
1007 15 2 0 1007 1007
1008 15 2 0 1008 1008
1009 15 2 0 1009 1009
1010 1 2 0 1000000 49 1010
1011 1 2 0 1000000 1010 1011
1012 1 2 0 1000000 1011 1012
1013 1 2 0 1000000 1012 1013
1014 1 2 0 1000000 1013 1014
1015 1 2 0 1000000 1014 1015
1016 1 2 0 1000000 1015 49
1017 1 2 0 1000001 97 1016
1018 1 2 0 1000001 1016 1017
1019 1 2 0 1000001 1017 1018
1020 1 2 0 1000001 1018 1019
1021 1 2 0 1000001 1019 1020
1022 1 2 0 1000001 1020 1021
1023 1 2 0 1000001 1021 97
1024 1 2 0 1000002 145 1022
1025 1 2 0 1000002 1022 1023
1026 1 2 0 1000002 1023 1024
1027 1 2 0 1000002 1024 1025
1028 1 2 0 1000002 1025 1026
1029 1 2 0 1000002 1026 1027
1030 1 2 0 1000002 1027 1028
1031 1 2 0 1000002 1028 145
1032 1 2 0 1000003 193 1029
1033 1 2 0 1000003 1029 1030
1034 1 2 0 1000003 1030 1031
1035 1 2 0 1000003 1031 1032
1036 1 2 0 1000003 1032 1033
1037 1 2 0 1000003 1033 1034
1038 1 2 0 1000003 1034 1035
1039 1 2 0 1000003 1035 1036
1040 1 2 0 1000003 1036 193
1041 1 2 0 1000004 241 1037
1042 1 2 0 1000004 1037 1038
1043 1 2 0 1000004 1038 1039
1044 1 2 0 1000004 1039 1040
1045 1 2 0 1000004 1040 1041
1046 1 2 0 1000004 1041 1042
1047 1 2 0 1000004 1042 1043
1048 1 2 0 1000004 1043 1044
1049 1 2 0 1000004 1044 1045
1050 1 2 0 1000004 1045 241
1051 1 2 0 1000005 289 1046
1052 1 2 0 1000005 1046 1047
1053 1 2 0 1000005 1047 1048
1054 1 2 0 1000005 1048 1049
1055 1 2 0 1000005 1049 1050
1056 1 2 0 1000005 1050 1051
1057 1 2 0 1000005 1051 1052
1058 1 2 0 1000005 1052 1053
1059 1 2 0 1000005 1053 1054
1060 1 2 0 1000005 1054 1055
1061 1 2 0 1000005 1055 289
1062 1 2 0 1000006 337 1056
1063 1 2 0 1000006 1056 1057
1064 1 2 0 1000006 1057 1058
1065 1 2 0 1000006 1058 1059
1066 1 2 0 1000006 1059 1060
1067 1 2 0 1000006 1060 1061
1068 1 2 0 1000006 1061 1062
1069 1 2 0 1000006 1062 1063
1070 1 2 0 1000006 1063 1064
1071 1 2 0 1000006 1064 1065
1072 1 2 0 1000006 1065 1066
1073 1 2 0 1000006 1066 337
1074 1 2 0 1000007 385 1067
1075 1 2 0 1000007 1067 1068
1076 1 2 0 1000007 1068 1069
1077 1 2 0 1000007 1069 1070
1078 1 2 0 1000007 1070 1071
1079 1 2 0 1000007 1071 1072
1080 1 2 0 1000007 1072 1073
1081 1 2 0 1000007 1073 1074
1082 1 2 0 1000007 1074 1075
1083 1 2 0 1000007 1075 1076
1084 1 2 0 1000007 1076 1077
1085 1 2 0 1000007 1077 1078
1086 1 2 0 1000007 1078 385
1087 1 2 0 1000008 433 1079
1088 1 2 0 1000008 1079 1080
1089 1 2 0 1000008 1080 1081
1090 1 2 0 1000008 1081 1082
1091 1 2 0 1000008 1082 1083
1092 1 2 0 1000008 1083 1084
1093 1 2 0 1000008 1084 1085
1094 1 2 0 1000008 1085 1086
1095 1 2 0 1000008 1086 1087
1096 1 2 0 1000008 1087 1088
1097 1 2 0 1000008 1088 1089
1098 1 2 0 1000008 1089 1090
1099 1 2 0 1000008 1090 1091
1100 1 2 0 1000008 1091 433
1101 1 2 0 1000009 481 1092
1102 1 2 0 1000009 1092 1093
1103 1 2 0 1000009 1093 1094
1104 1 2 0 1000009 1094 1095
1105 1 2 0 1000009 1095 1096
1106 1 2 0 1000009 1096 1097
1107 1 2 0 1000009 1097 1098
1108 1 2 0 1000009 1098 1099
1109 1 2 0 1000009 1099 1100
1110 1 2 0 1000009 1100 1101
1111 1 2 0 1000009 1101 1102
1112 1 2 0 1000009 1102 1103
1113 1 2 0 1000009 1103 1104
1114 1 2 0 1000009 1104 1105
1115 1 2 0 1000009 1105 481
1116 1 2 0 1000010 529 1106
1117 1 2 0 1000010 1106 1107
1118 1 2 0 1000010 1107 1108
1119 1 2 0 1000010 1108 1109
1120 1 2 0 1000010 1109 1110
1121 1 2 0 1000010 1110 1111
1122 1 2 0 1000010 1111 1112
1123 1 2 0 1000010 1112 1113
1124 1 2 0 1000010 1113 1114
1125 1 2 0 1000010 1114 1115
1126 1 2 0 1000010 1115 1116
1127 1 2 0 1000010 1116 1117
1128 1 2 0 1000010 1117 1118
1129 1 2 0 1000010 1118 1119
1130 1 2 0 1000010 1119 1120
1131 1 2 0 1000010 1120 529
1132 1 2 0 1000011 577 1121
1133 1 2 0 1000011 1121 1122
1134 1 2 0 1000011 1122 1123
1135 1 2 0 1000011 1123 1124
1136 1 2 0 1000011 1124 1125
1137 1 2 0 1000011 1125 1126
1138 1 2 0 1000011 1126 1127
1139 1 2 0 1000011 1127 1128
1140 1 2 0 1000011 1128 1129
1141 1 2 0 1000011 1129 1130
1142 1 2 0 1000011 1130 1131
1143 1 2 0 1000011 1131 1132
1144 1 2 0 1000011 1132 1133
1145 1 2 0 1000011 1133 1134
1146 1 2 0 1000011 1134 1135
1147 1 2 0 1000011 1135 1136
1148 1 2 0 1000011 1136 577
1149 1 2 0 1000012 625 1137
1150 1 2 0 1000012 1137 1138
1151 1 2 0 1000012 1138 1139
1152 1 2 0 1000012 1139 1140
1153 1 2 0 1000012 1140 1141
1154 1 2 0 1000012 1141 1142
1155 1 2 0 1000012 1142 1143
1156 1 2 0 1000012 1143 1144
1157 1 2 0 1000012 1144 1145
1158 1 2 0 1000012 1145 1146
1159 1 2 0 1000012 1146 1147
1160 1 2 0 1000012 1147 1148
1161 1 2 0 1000012 1148 1149
1162 1 2 0 1000012 1149 1150
1163 1 2 0 1000012 1150 1151
1164 1 2 0 1000012 1151 1152
1165 1 2 0 1000012 1152 1153
1166 1 2 0 1000012 1153 625
1167 1 2 0 1000013 673 1154
1168 1 2 0 1000013 1154 1155
1169 1 2 0 1000013 1155 1156
1170 1 2 0 1000013 1156 1157
1171 1 2 0 1000013 1157 1158
1172 1 2 0 1000013 1158 1159
1173 1 2 0 1000013 1159 1160
1174 1 2 0 1000013 1160 1161
1175 1 2 0 1000013 1161 1162
1176 1 2 0 1000013 1162 1163
1177 1 2 0 1000013 1163 1164
1178 1 2 0 1000013 1164 1165
1179 1 2 0 1000013 1165 1166
1180 1 2 0 1000013 1166 1167
1181 1 2 0 1000013 1167 1168
1182 1 2 0 1000013 1168 1169
1183 1 2 0 1000013 1169 1170
1184 1 2 0 1000013 1170 673
1185 1 2 0 1000014 721 1171
1186 1 2 0 1000014 1171 1172
1187 1 2 0 1000014 1172 1173
1188 1 2 0 1000014 1173 1174
1189 1 2 0 1000014 1174 1175
1190 1 2 0 1000014 1175 1176
1191 1 2 0 1000014 1176 1177
1192 1 2 0 1000014 1177 1178
1193 1 2 0 1000014 1178 1179
1194 1 2 0 1000014 1179 1180
1195 1 2 0 1000014 1180 1181
1196 1 2 0 1000014 1181 1182
1197 1 2 0 1000014 1182 1183
1198 1 2 0 1000014 1183 1184
1199 1 2 0 1000014 1184 1185
1200 1 2 0 1000014 1185 1186
1201 1 2 0 1000014 1186 1187
1202 1 2 0 1000014 1187 721
1203 1 2 0 1000015 769 1188
1204 1 2 0 1000015 1188 1189
1205 1 2 0 1000015 1189 1190
1206 1 2 0 1000015 1190 1191
1207 1 2 0 1000015 1191 1192
1208 1 2 0 1000015 1192 1193
1209 1 2 0 1000015 1193 1194
1210 1 2 0 1000015 1194 1195
1211 1 2 0 1000015 1195 1196
1212 1 2 0 1000015 1196 1197
1213 1 2 0 1000015 1197 1198
1214 1 2 0 1000015 1198 1199
1215 1 2 0 1000015 1199 1200
1216 1 2 0 1000015 1200 1201
1217 1 2 0 1000015 1201 1202
1218 1 2 0 1000015 1202 1203
1219 1 2 0 1000015 1203 1204
1220 1 2 0 1000015 1204 769
1221 1 2 0 1000016 817 1205
1222 1 2 0 1000016 1205 1206
1223 1 2 0 1000016 1206 1207
1224 1 2 0 1000016 1207 1208
1225 1 2 0 1000016 1208 1209
1226 1 2 0 1000016 1209 1210
1227 1 2 0 1000016 1210 1211
1228 1 2 0 1000016 1211 1212
1229 1 2 0 1000016 1212 1213
1230 1 2 0 1000016 1213 1214
1231 1 2 0 1000016 1214 1215
1232 1 2 0 1000016 1215 1216
1233 1 2 0 1000016 1216 1217
1234 1 2 0 1000016 1217 1218
1235 1 2 0 1000016 1218 1219
1236 1 2 0 1000016 1219 1220
1237 1 2 0 1000016 1220 1221
1238 1 2 0 1000016 1221 817
1239 1 2 0 1000017 865 1222
1240 1 2 0 1000017 1222 1223
1241 1 2 0 1000017 1223 1224
1242 1 2 0 1000017 1224 1225
1243 1 2 0 1000017 1225 1226
1244 1 2 0 1000017 1226 1227
1245 1 2 0 1000017 1227 1228
1246 1 2 0 1000017 1228 1229
1247 1 2 0 1000017 1229 1230
1248 1 2 0 1000017 1230 1231
1249 1 2 0 1000017 1231 1232
1250 1 2 0 1000017 1232 1233
1251 1 2 0 1000017 1233 1234
1252 1 2 0 1000017 1234 1235
1253 1 2 0 1000017 1235 1236
1254 1 2 0 1000017 1236 1237
1255 1 2 0 1000017 1237 1238
1256 1 2 0 1000017 1238 1239
1257 1 2 0 1000017 1239 865
1258 1 2 0 1000018 913 1240
1259 1 2 0 1000018 1240 1241
1260 1 2 0 1000018 1241 1242
1261 1 2 0 1000018 1242 1243
1262 1 2 0 1000018 1243 1244
1263 1 2 0 1000018 1244 1245
1264 1 2 0 1000018 1245 1246
1265 1 2 0 1000018 1246 1247
1266 1 2 0 1000018 1247 1248
1267 1 2 0 1000018 1248 1249
1268 1 2 0 1000018 1249 1250
1269 1 2 0 1000018 1250 1251
1270 1 2 0 1000018 1251 1252
1271 1 2 0 1000018 1252 1253
1272 1 2 0 1000018 1253 1254
1273 1 2 0 1000018 1254 1255
1274 1 2 0 1000018 1255 1256
1275 1 2 0 1000018 1256 1257
1276 1 2 0 1000018 1257 913
1277 1 2 0 1000019 961 1258
1278 1 2 0 1000019 1258 1259
1279 1 2 0 1000019 1259 1260
1280 1 2 0 1000019 1260 1261
1281 1 2 0 1000019 1261 1262
1282 1 2 0 1000019 1262 1263
1283 1 2 0 1000019 1263 1264
1284 1 2 0 1000019 1264 1265
1285 1 2 0 1000019 1265 1266
1286 1 2 0 1000019 1266 1267
1287 1 2 0 1000019 1267 1268
1288 1 2 0 1000019 1268 1269
1289 1 2 0 1000019 1269 1270
1290 1 2 0 1000019 1270 1271
1291 1 2 0 1000019 1271 1272
1292 1 2 0 1000019 1272 1273
1293 1 2 0 1000019 1273 1274
1294 1 2 0 1000019 1274 1275
1295 1 2 0 1000019 1275 961
1296 1 2 0 1000020 1009 1276
1297 1 2 0 1000020 1276 1277
1298 1 2 0 1000020 1277 1278
1299 1 2 0 1000020 1278 1279
1300 1 2 0 1000020 1279 1280
1301 1 2 0 1000020 1280 1281
1302 1 2 0 1000020 1281 1282
1303 1 2 0 1000020 1282 1283
1304 1 2 0 1000020 1283 1284
1305 1 2 0 1000020 1284 1285
1306 1 2 0 1000020 1285 1286
1307 1 2 0 1000020 1286 1287
1308 1 2 0 1000020 1287 1288
1309 1 2 0 1000020 1288 1289
1310 1 2 0 1000020 1289 1290
1311 1 2 0 1000020 1290 1291
1312 1 2 0 1000020 1291 1292
1313 1 2 0 1000020 1292 1293
1314 1 2 0 1000020 1293 1009
$EndElements
