$MeshFormat
2.2 0 8
$EndMeshFormat
$PhysicalNames
4
2 1 "horn_surface"
2 2 "throat_cap"
2 3 "interface_wall"
2 4 "interface_face"
$EndPhysicalNames
$Nodes
218
1 12.7 0 -130
2 0 12.7 -130
3 131.43916 0 0
4 0 102.161151 30
5 131.439163 0 5
6 0 102.161148 35
7 0 0 -130
8 0 0 5
9 11.72883832975918 4.858248758081892 -130
10 8.976865124999996 8.976865125000007 -130
11 4.858248758081878 11.72883832975918 -130
12 131.4391099545948 18.49308228970907 5.000026522702599
13 131.4326622200701 36.98616222293155 5.003130036852692
14 131.2931735488611 55.47826900503922 5.070235245539011
15 130.0215497996761 73.90130534071504 5.677044281041612
16 123.2683081240926 90.52914255270666 8.769335743318674
17 108.298137945408 98.93066274530364 14.93688933373038
18 91.01830285872616 101.410920374177 20.96036522393917
19 73.23584541377198 102.0304381137858 25.98221413358745
20 55.16844089535844 102.1473025928138 29.91141982562385
21 36.89402835714385 102.160553085356 32.72796164094578
22 18.48157004893377 102.1611469154216 34.42174341670926
23 0 8.503161710481162 -130
24 0 4.306323420962341 -130
25 4.306323420962361 0 -130
26 8.503161710481182 0 -130
27 0 85.13429000000002 30.00000000000001
28 0 68.10743200000005 25.00000000000001
29 0 51.08057400000003 20.00000000000001
30 0 34.05371600000001 15
31 0 17.02685800000002 10
32 18.77702328571429 0 5
33 37.55404657142858 0 5
34 56.33106985714286 0 5
35 75.10809314285716 0 5
36 93.88511642857145 0 5
37 112.6621397142857 0 5
38 11.72883832975918 4.858248758081896 -130
39 8.976865124999996 8.976865125000007 -130
40 4.858248758081876 11.72883832975918 -130
41 0 13.81230754444208 -125.189943509741
42 0 15.04863112143297 -120.4101850183492
43 0 16.5009244389645 -115.2081237628856
44 0 18.40823082072027 -108.7691565546377
45 0 20.89956487293047 -100.789871761833
46 0 24.15182613899284 -90.90613896734811
47 0 28.42129709994286 -78.67887066667227
48 0 34.1100393161709 -63.59713402709801
49 0 41.62159058160784 -45.76874810439958
50 0 50.28810030927174 -28.02711271215006
51 0 60.25861268105144 -10.98736425144133
52 0 71.94989382183861 4.912637932099273
53 0 85.93608547045463 18.81508335900192
54 131.4391132765979 18.49308223135306 2.264920637969848e-05
55 131.4326629339027 36.98616210472591 0.003128559081747009
56 131.2931729916677 55.47826886811906 0.07023747107746797
57 130.0215522703797 73.90130468611832 0.6770448428898129
58 123.2683081843177 90.52914055785078 3.769338590282565
59 108.2981380028392 98.930662867923 9.936888805399473
60 91.01830495369526 101.4109187692909 15.96037117302484
61 73.23584661448405 102.0304363007273 20.98221655602002
62 55.16844032989199 102.1473029049107 24.91141435272874
63 36.89402844725333 102.1605513323379 27.72796059651898
64 18.48156991509743 102.1611477094961 29.42173948800015
65 13.88947753836082 0 -125.1493844608724
66 15.25555290310505 0 -120.345393722812
67 16.91083722993651 0 -115.1043990046245
68 19.14186583578785 0 -108.6241522886967
69 22.12861843391256 0 -100.6113933877593
70 26.11924960998802 0 -90.71700405464023
71 31.48123667047687 0 -78.53610230246167
72 38.83135507492528 0 -63.65555423984278
73 48.80331714997588 0 -46.65561399513532
74 60.7707031266037 0 -30.6768089333942
75 75.16018642241757 0 -16.86229368722087
76 92.29017219762746 0 -6.693876090905777
77 111.5249298126835 0 -1.508162172151123
78 131.4391132765979 18.49308223135306 2.264920637969848e-05
79 131.4326629339027 36.98616210472591 0.003128559081747009
80 131.2931729916677 55.47826886811906 0.07023747107746797
81 130.0215522703797 73.90130468611832 0.6770448428898129
82 123.2683081843177 90.52914055785078 3.769338590282565
83 108.2981380028392 98.930662867923 9.936888805399473
84 91.01830495369526 101.4109187692909 15.96037117302484
85 73.23584661448405 102.0304363007273 20.98221655602002
86 55.16844032989199 102.1473029049107 24.91141435272874
87 36.89402844725333 102.1605513323379 27.72796059651898
88 18.48156991509743 102.1611477094961 29.42173948800015
89 0 102.161148 32.4999999999991
90 131.4391099545948 18.49308228970906 5.000026522702598
91 131.4326622200701 36.98616222293155 5.003130036852691
92 131.2931735488611 55.47826900503924 5.07023524553901
93 130.0215497996761 73.90130534071503 5.677044281041612
94 123.2683081240926 90.52914255270666 8.769335743318672
95 108.298137945408 98.93066274530365 14.93688933373038
96 91.01830285872617 101.410920374177 20.96036522393916
97 73.23584541377197 102.0304381137858 25.98221413358745
98 55.16844089535847 102.1473025928138 29.91141982562385
99 36.89402835714392 102.160553085356 32.72796164094576
100 18.48157004893382 102.1611469154216 34.42174341670926
101 131.439163 0 2.499999999999098
102 100.7757190655695 89.19493292576048 5.256321236741099
103 115.8992439009323 64.17056735543507 -0.5713168034903181
104 58.61461727249909 15.65639764976764 -41.36342415629821
105 13.39637513159292 57.65500555637968 -21.55468595246958
106 39.00083303806441 12.21900012170036 -72.9948042535454
107 26.08792187320634 7.546464516454267 -96.01376042926624
108 4.476154138595026 15.82870201080009 -117.8242087692387
109 13.76766817514352 44.42396087365387 -52.40006406933027
110 44.88390278853013 89.03860791014758 17.07161619834181
111 18.45666938264258 5.328186782871995 -112.0124260913089
112 84.89649395654612 15.76816327066587 -11.08112236136808
113 6.452214883134534 20.59768358666389 -105.074187880584
114 11.63871956250919 7.668564598065341 -125.4011666180397
115 9.735383230770152 28.87324197233235 -85.69571200770056
116 115.4542195798178 27.7342221161482 -1.036332139132569
117 15.96117358686734 79.41665012903951 11.7766167875749
118 7.650708362039421 11.60475389124958 -125.4360150188044
119 10.63167744810842 10.62982158632814 -121.8665847690731
120 16.25994346849199 4.252622542097129 -117.4754699677449
121 14.95654870355685 9.805358704446192 -114.5982826787645
122 17.61043186035361 11.03835622767815 -108.2072531207042
123 12.32524940914308 14.91794243598086 -110.786774883316
124 15.41457684427843 16.35907734215198 -104.2953875314736
125 6.892695786812716 24.41667879202443 -95.89011944925205
126 17.92319888072827 22.86008634069838 -91.12152447123198
127 21.57333710710939 27.66946302423829 -80.15060600725835
128 28.72614236572486 19.34448499161285 -83.27882620496547
129 14.40369989587423 3.969973854324687 -122.6048713852038
130 4.804309054231487 17.87735825308585 -112.1138733141274
131 4.061885158888187 14.21303056340973 -122.7438219501654
132 47.31008042973564 13.18737906777818 -58.91251762694331
133 48.80167449065123 31.38463676511501 -49.1381458727443
134 60.35230065249585 35.35483099619987 -34.22502585608706
135 46.01241063490133 47.74555590802292 -36.58407714707197
136 59.34193506384571 53.34070834290411 -24.82300547859139
137 73.37095583470987 40.23163786908783 -20.42467526814064
138 73.92854951742341 59.16887297652764 -14.0153092058526
139 55.54594915891025 65.91987427584101 -10.20953212798018
140 88.64532134600636 46.52849619648492 -9.153216941040521
141 70.96234796958078 74.60849500486239 -1.653257197932428
142 90.49304335623341 66.03837963312532 -5.159348952675502
143 70.22281069872444 20.81847463389242 -27.07448873580246
144 37.67241358981092 58.97835158240816 -19.42236442211796
145 36.03039892056537 68.29515175761412 -5.000220386726033
146 51.16056571293246 77.41063370946708 4.72663619749594
147 66.67119828791458 87.89239659499559 11.59103128604865
148 10.35119095720275 13.74974223505611 -115.8440780328689
149 11.98696531531409 34.86085719619157 -72.49408645146906
150 26.31230898985914 34.54432277593978 -65.41702676803509
151 11.15399052643604 49.35058827540858 -37.39080653126789
152 18.44409722397448 67.46536300108359 -6.316077640672188
153 116.5418474620162 45.84080458011232 -0.8835119687550856
154 27.66584003774732 90.11269693348626 20.23943251930861
155 102.5566004249796 14.1854780430003 -3.261930015412963
156 33.02575446646183 40.97035838703083 -51.46461247780264
157 21.59370543641604 5.797285483980803 -104.9750396416355
158 20.66034398659957 13.14212119825726 -100.8728328131359
159 26.79680330965668 50.79335072569568 -34.80339478862783
160 13.7484467770063 7.756668946832413 -119.9750251242727
161 99.28798153370512 34.03357970994543 -4.90639163867082
162 33.13149651876432 78.31120021827859 8.148593471488351
163 32.38984200089995 24.82745111913137 -73.70868788650266
164 39.95081680622927 27.85625989081656 -62.07360854012804
165 7.972712822134385 13.15632672791369 -120.7677121832091
166 101.5927144932103 54.80743884165997 -3.498431507687719
167 24.22573517038819 15.91010958008205 -92.73826455414219
168 13.14436462716661 3.741407482857854 -126.5466215512447
169 31.68763171090293 8.552633680504474 -85.2120027268048
170 82.10630426411485 91.58873246990666 10.62765048593484
171 103.1450632167435 73.69044204035099 -0.7612600131962799
172 85.6453237924994 79.6186234595117 1.266672005276579
173 3.704903927564383 13.0955493087071 -126.5963218672867
174 114.5497970001244 80.25522689970879 1.221018971413508
175 12.20568280108984 92.1571247974401 23.03490979633001
176 83.63884630535249 31.54046743446188 -13.58782981299522
177 118.6808370838144 12.72326380335797 -0.7376602588994725
178 14.0154032262911 20.57898147655527 -98.61179800455284
179 11.70140897255289 11.04152834016401 -118.925434973878
180 3.93847969422055 6.693201940634571 -130
181 6.947227158407262 4.021211271849182 -130
182 3.112373198523247 3.112373198523242 -130
183 63.23504465577813 85.75135215189917 24.19823989089622
184 118.4416965058261 45.40890778166268 6.809065934812858
185 14.66633351780777 41.36953796856724 16.58426130684258
186 66.56657973239801 16.24560769695276 8.064664990258407
187 94.68249753596655 84.41220672602805 16.10056591880614
188 28.36629230987633 86.37007517947147 29.14925823365371
189 103.2586311901317 14.38924039206536 6.421322479421719
190 26.62546940437754 14.22184434654272 8.631950845300437
191 111.4981704555045 79.18344649302551 10.3847946039103
192 96.23960648937692 66.78956230161029 12.68296443120755
193 79.3751360584247 74.52710119845614 17.98509267466323
194 78.81392589373962 55.49637943518269 14.24382420480738
195 62.05714322431615 65.1055365114826 19.0362667957949
196 60.92020048481443 46.33672395024711 14.7151637526366
197 45.20053435103441 56.07430893528394 18.75146219662577
198 45.25844099743922 37.67514621547716 13.94498111952122
199 76.96748338753373 34.09556388591173 10.68960271363952
200 45.39674409625814 74.99756313150399 24.04411286492468
201 29.60655470972382 66.6843167359247 23.11014925194577
202 99.77482333189536 45.76280594246806 9.564716123449337
203 45.64997650829584 18.5240281423109 9.237691431669978
204 84.45992371734714 16.12715311362582 7.384131687011132
205 114.5653541355401 28.70800445284543 6.621463399431263
206 14.32921906170887 25.4435349899753 12.04617331091665
207 14.03600275437327 75.97640680828044 26.80488343148146
208 14.92120462544947 58.24005834041634 21.47825427806598
209 29.75730655352577 48.58067900851459 17.86896506093742
210 95.82695063402143 27.80611640488785 8.187519518287676
211 59.0700614239945 30.55904645741629 11.36597100950999
212 81.04384597666518 89.79380668847125 21.10691159045144
213 114.539491131602 61.11372846950553 8.157647282753205
214 45.78355274987023 90.32176829404804 28.39934623812197
215 29.37173789894257 30.97158462333221 13.03014434385917
216 117.9447211481329 13.36926832807464 5.729657564067121
217 11.93929208900657 11.34007770261411 8.115761560920262
218 12.66357167386497 90.07836437549867 31.14097471600143
$EndNodes
$Elements
333
1 2 2 1 1 144 152 145
2 2 2 1 1 105 152 144
3 2 2 1 1 130 148 108
4 2 2 1 1 151 159 109
5 2 2 1 1 123 130 113
6 2 2 1 1 109 159 156
7 2 2 1 1 123 148 130
8 2 2 1 1 170 172 147
9 2 2 1 1 114 160 129
10 2 2 1 1 113 124 123
11 2 2 1 1 74 143 75
12 2 2 1 1 119 160 114
13 2 2 1 1 131 165 118
14 2 2 1 1 75 143 112
15 2 2 1 1 118 165 119
16 2 2 1 1 147 172 141
17 2 2 1 1 117 152 52
18 2 2 1 1 62 147 110
19 2 2 1 1 115 126 125
20 2 2 1 1 117 162 152
21 2 2 1 1 106 169 128
22 2 2 1 1 104 143 74
23 2 2 1 1 52 152 51
24 2 2 1 1 112 161 155
25 2 2 1 1 115 125 46
26 2 2 1 1 118 119 114
27 2 2 1 1 146 147 141
28 2 2 1 1 144 159 105
29 2 2 1 1 112 176 161
30 2 2 1 1 141 142 138
31 2 2 1 1 144 145 139
32 2 2 1 1 132 133 104
33 2 2 1 1 39 118 114
34 2 2 1 1 61 147 62
35 2 2 1 1 139 146 141
36 2 2 1 1 152 162 145
37 2 2 1 1 137 176 143
38 2 2 1 1 148 165 108
39 2 2 1 1 136 144 139
40 2 2 1 1 143 176 112
41 2 2 1 1 158 178 167
42 2 2 1 1 67 111 68
43 2 2 1 1 71 106 72
44 2 2 1 1 70 169 71
45 2 2 1 1 69 107 70
46 2 2 1 1 110 147 146
47 2 2 1 1 45 113 44
48 2 2 1 1 48 149 47
49 2 2 1 1 47 115 46
50 2 2 1 1 120 160 121
51 2 2 1 1 113 178 124
52 2 2 1 1 121 148 123
53 2 2 1 1 133 134 104
54 2 2 1 1 49 109 48
55 2 2 1 1 66 120 67
56 2 2 1 1 67 120 111
57 2 2 1 1 133 135 134
58 2 2 1 1 73 104 74
59 2 2 1 1 135 136 134
60 2 2 1 1 43 108 42
61 2 2 1 1 135 144 136
62 2 2 1 1 136 137 134
63 2 2 1 1 136 138 137
64 2 2 1 1 138 140 137
65 2 2 1 1 136 139 138
66 2 2 1 1 138 142 140
67 2 2 1 1 139 141 138
68 2 2 1 1 128 163 106
69 2 2 1 1 126 178 125
70 2 2 1 1 75 112 76
71 2 2 1 1 137 143 134
72 2 2 1 1 40 118 39
73 2 2 1 1 39 114 38
74 2 2 1 1 120 121 111
75 2 2 1 1 51 105 50
76 2 2 1 1 53 117 52
77 2 2 1 1 107 169 70
78 2 2 1 1 145 146 139
79 2 2 1 1 66 129 120
80 2 2 1 1 73 132 104
81 2 2 1 1 71 169 106
82 2 2 1 1 69 157 107
83 2 2 1 1 108 131 42
84 2 2 1 1 47 149 115
85 2 2 1 1 46 125 45
86 2 2 1 1 113 130 44
87 2 2 1 1 44 130 43
88 2 2 1 1 55 153 56
89 2 2 1 1 129 168 114
90 2 2 1 1 65 129 66
91 2 2 1 1 76 155 77
92 2 2 1 1 109 149 48
93 2 2 1 1 56 103 57
94 2 2 1 1 63 154 64
95 2 2 1 1 4 175 53
96 2 2 1 1 59 102 60
97 2 2 1 1 161 166 153
98 2 2 1 1 54 116 55
99 2 2 1 1 62 110 63
100 2 2 1 1 156 159 135
101 2 2 1 1 42 131 41
102 2 2 1 1 68 157 69
103 2 2 1 1 51 152 105
104 2 2 1 1 43 130 108
105 2 2 1 1 72 132 73
106 2 2 1 1 134 143 104
107 2 2 1 1 110 154 63
108 2 2 1 1 133 156 135
109 2 2 1 1 127 128 126
110 2 2 1 1 118 173 131
111 2 2 1 1 109 150 149
112 2 2 1 1 109 156 150
113 2 2 1 1 116 161 153
114 2 2 1 1 116 153 55
115 2 2 1 1 111 157 68
116 2 2 1 1 1 168 65
117 2 2 1 1 121 123 122
118 2 2 1 1 122 158 157
119 2 2 1 1 41 173 2
120 2 2 1 1 105 151 50
121 2 2 1 1 38 168 1
122 2 2 1 1 112 155 76
123 2 2 1 1 115 149 127
124 2 2 1 1 165 179 119
125 2 2 1 1 135 159 144
126 2 2 1 1 2 173 40
127 2 2 1 1 167 169 107
128 2 2 1 1 167 178 126
129 2 2 1 1 122 157 111
130 2 2 1 1 141 172 142
131 2 2 1 1 64 175 4
132 2 2 1 1 129 160 120
133 2 2 1 1 115 127 126
134 2 2 1 1 157 158 107
135 2 2 1 1 77 177 3
136 2 2 1 1 124 178 158
137 2 2 1 1 121 179 148
138 2 2 1 1 149 150 127
139 2 2 1 1 163 164 106
140 2 2 1 1 106 164 132
141 2 2 1 1 49 151 109
142 2 2 1 1 50 151 49
143 2 2 1 1 108 165 131
144 2 2 1 1 56 153 103
145 2 2 1 1 121 122 111
146 2 2 1 1 128 167 126
147 2 2 1 1 160 179 121
148 2 2 1 1 60 170 61
149 2 2 1 1 132 164 133
150 2 2 1 1 125 178 113
151 2 2 1 1 102 174 171
152 2 2 1 1 155 161 116
153 2 2 1 1 3 177 54
154 2 2 1 1 140 166 161
155 2 2 1 1 123 124 122
156 2 2 1 1 110 162 154
157 2 2 1 1 155 177 77
158 2 2 1 1 148 179 165
159 2 2 1 1 105 159 151
160 2 2 1 1 145 162 146
161 2 2 1 1 156 164 150
162 2 2 1 1 106 132 72
163 2 2 1 1 124 158 122
164 2 2 1 1 53 175 117
165 2 2 1 1 114 168 38
166 2 2 1 1 40 173 118
167 2 2 1 1 103 174 57
168 2 2 1 1 146 162 110
169 2 2 1 1 45 125 113
170 2 2 1 1 102 170 60
171 2 2 1 1 116 177 155
172 2 2 1 1 133 164 156
173 2 2 1 1 142 166 140
174 2 2 1 1 166 171 103
175 2 2 1 1 57 174 58
176 2 2 1 1 127 163 128
177 2 2 1 1 140 176 137
178 2 2 1 1 65 168 129
179 2 2 1 1 131 173 41
180 2 2 1 1 142 171 166
181 2 2 1 1 150 163 127
182 2 2 1 1 142 172 171
183 2 2 1 1 153 166 103
184 2 2 1 1 61 170 147
185 2 2 1 1 54 177 116
186 2 2 1 1 128 169 167
187 2 2 1 1 154 162 117
188 2 2 1 1 171 172 102
189 2 2 1 1 161 176 140
190 2 2 1 1 119 179 160
191 2 2 1 1 154 175 64
192 2 2 1 1 158 167 107
193 2 2 1 1 150 164 163
194 2 2 1 1 171 174 103
195 2 2 1 1 102 172 170
196 2 2 1 1 117 175 154
197 2 2 1 1 58 102 59
198 2 2 1 1 58 174 102
199 2 2 3 4 100 88 89
200 2 2 3 4 101 78 90
201 2 2 3 4 83 94 82
202 2 2 3 4 83 95 94
203 2 2 3 4 85 96 84
204 2 2 3 4 3 78 101
205 2 2 3 4 89 88 4
206 2 2 3 4 90 5 101
207 2 2 3 4 89 6 100
208 2 2 3 4 90 78 79
209 2 2 3 4 91 79 80
210 2 2 3 4 91 90 79
211 2 2 3 4 81 92 80
212 2 2 3 4 91 80 92
213 2 2 3 4 82 93 81
214 2 2 3 4 93 92 81
215 2 2 3 4 82 94 93
216 2 2 3 4 84 95 83
217 2 2 3 4 96 95 84
218 2 2 3 4 86 97 85
219 2 2 3 4 97 96 85
220 2 2 3 4 98 86 87
221 2 2 3 4 97 86 98
222 2 2 3 4 88 99 87
223 2 2 3 4 99 98 87
224 2 2 3 4 100 99 88
225 2 2 2 211251 26 1 9
226 2 2 2 211251 11 2 23
227 2 2 2 211251 23 180 11
228 2 2 2 211251 11 180 10
229 2 2 2 211251 9 181 26
230 2 2 2 211251 180 181 10
231 2 2 2 211251 26 181 25
232 2 2 2 211251 181 182 25
233 2 2 2 211251 10 181 9
234 2 2 2 211251 24 180 23
235 2 2 2 211251 25 182 7
236 2 2 2 211251 7 182 24
237 2 2 2 211251 180 182 181
238 2 2 2 211251 24 182 180
239 2 2 4 211255 202 213 192
240 2 2 4 211255 202 210 205
241 2 2 4 211255 202 205 184
242 2 2 4 211255 184 213 202
243 2 2 4 211255 17 191 16
244 2 2 4 211255 187 191 17
245 2 2 4 211255 198 215 203
246 2 2 4 211255 186 204 199
247 2 2 4 211255 188 201 200
248 2 2 4 211255 183 200 195
249 2 2 4 211255 203 215 190
250 2 2 4 211255 183 195 193
251 2 2 4 211255 199 211 186
252 2 2 4 211255 200 201 197
253 2 2 4 211255 195 200 197
254 2 2 4 211255 208 209 201
255 2 2 4 211255 194 202 192
256 2 2 4 211255 197 198 196
257 2 2 4 211255 199 202 194
258 2 2 4 211255 196 199 194
259 2 2 4 211255 195 197 196
260 2 2 4 211255 195 196 194
261 2 2 4 211255 193 195 194
262 2 2 4 211255 185 209 208
263 2 2 4 211255 193 194 192
264 2 2 4 211255 187 193 192
265 2 2 4 211255 205 210 189
266 2 2 4 211255 192 213 191
267 2 2 4 211255 201 209 197
268 2 2 4 211255 36 204 35
269 2 2 4 211255 33 190 32
270 2 2 4 211255 34 203 33
271 2 2 4 211255 35 186 34
272 2 2 4 211255 37 189 36
273 2 2 4 211255 187 192 191
274 2 2 4 211255 18 187 17
275 2 2 4 211255 14 184 13
276 2 2 4 211255 20 183 19
277 2 2 4 211255 22 188 21
278 2 2 4 211255 16 191 15
279 2 2 4 211255 189 204 36
280 2 2 4 211255 30 185 29
281 2 2 4 211255 186 203 34
282 2 2 4 211255 33 203 190
283 2 2 4 211255 35 204 186
284 2 2 4 211255 196 211 199
285 2 2 4 211255 200 214 188
286 2 2 4 211255 203 211 198
287 2 2 4 211255 188 207 201
288 2 2 4 211255 13 205 12
289 2 2 4 211255 31 206 30
290 2 2 4 211255 184 205 13
291 2 2 4 211255 193 212 183
292 2 2 4 211255 5 216 37
293 2 2 4 211255 12 216 5
294 2 2 4 211255 183 214 200
295 2 2 4 211255 28 207 27
296 2 2 4 211255 15 213 14
297 2 2 4 211255 204 210 199
298 2 2 4 211255 32 217 8
299 2 2 4 211255 6 218 22
300 2 2 4 211255 8 217 31
301 2 2 4 211255 27 218 6
302 2 2 4 211255 30 206 185
303 2 2 4 211255 188 214 21
304 2 2 4 211255 20 214 183
305 2 2 4 211255 199 210 202
306 2 2 4 211255 29 208 28
307 2 2 4 211255 183 212 19
308 2 2 4 211255 185 208 29
309 2 2 4 211255 186 211 203
310 2 2 4 211255 187 212 193
311 2 2 4 211255 197 209 198
312 2 2 4 211255 191 213 15
313 2 2 4 211255 198 211 196
314 2 2 4 211255 18 212 187
315 2 2 4 211255 28 208 207
316 2 2 4 211255 19 212 18
317 2 2 4 211255 21 214 20
318 2 2 4 211255 189 210 204
319 2 2 4 211255 206 215 185
320 2 2 4 211255 207 208 201
321 2 2 4 211255 14 213 184
322 2 2 4 211255 190 217 32
323 2 2 4 211255 37 216 189
324 2 2 4 211255 185 215 209
325 2 2 4 211255 22 218 188
326 2 2 4 211255 190 215 206
327 2 2 4 211255 205 216 12
328 2 2 4 211255 31 217 206
329 2 2 4 211255 189 216 205
330 2 2 4 211255 209 215 198
331 2 2 4 211255 206 217 190
332 2 2 4 211255 207 218 27
333 2 2 4 211255 188 218 207
$EndElements
