$MeshFormat
2.2 0 8
$EndMeshFormat
$PhysicalNames
4
2 1 "horn_surface"
2 2 "throat_cap"
2 3 "interface_wall"
2 4 "interface_face"
$EndPhysicalNames
$Nodes
621
1 12.7 0 -170
2 0 12.7 -170
3 145.392341 0 11
4 0 145.392341 0
5 0 0 -170
6 145.392341 0 16
7 0 145.392341 5
8 0 0 16
9 8.974349020833333 8.974349020833333 -170
10 144.9284754757172 9.8976234834617 10.25117173791762
11 143.9311673877443 19.75466487670264 9.505414140082443
12 142.2660392516499 29.52128840207824 8.76649757079147
13 139.923165733093 39.14894155419763 8.038094480456454
14 136.929224052326 48.59546610889447 7.323395560328661
15 133.2978608853943 57.81705599398543 6.625714618014117
16 129.0456531340243 66.77088591557589 5.948291645062401
17 124.1920451782986 75.41530407280013 5.294277517886766
18 118.7592730643105 83.71002139407005 4.666720950731224
19 112.7722783499412 91.61629882164648 4.06855301541525
20 106.2586076768333 99.09713176727088 3.502573150335118
21 99.24830105911479 106.1174255865801 2.971436110917883
22 91.77376208476036 112.6441728037436 2.477639551520062
23 83.86962266726906 118.6466144758214 2.023510940240342
24 75.57258916837372 124.0963981461433 1.611195007441888
25 66.92127736808489 128.9677265376602 1.24264300040869
26 57.95603543129589 133.2374933941791 0.9196035689903921
27 48.71875487587461 136.8854069131039 0.64361209940707
28 39.25267264093347 139.8941013014113 0.4159819947614445
29 29.6021622752781 142.2492331635333 0.2377989836028631
30 19.81008130765678 143.9237459269272 0.1111097818501485
31 9.925747934557428 144.9265668721914 0.03523916054807039
32 0 6.34999999999999 -170
33 6.350000000000009 0 -170
34 8.974349020833333 8.974349020833332 -170
35 0 13.89636547103028 -160.2495221077968
36 0 16.83954449258976 -150.8619734076977
37 0 20.66181539636973 -141.7908118019104
38 0 24.91262688673939 -132.9110056926506
39 0 29.3958374659643 -124.1458841834569
40 0 34.023578467958 -115.4561033658217
41 0 38.75501961855869 -106.8223154603139
42 0 43.57463703688992 -98.2374302548379
43 0 48.48114882685372 -89.70191477514356
44 0 53.483159316783 -81.22202720034873
45 0 58.59833012501565 -72.80995077563108
46 0 63.85092030941786 -64.48304458395353
47 0 69.27399353744883 -56.26624579833412
48 0 74.90981998082964 -48.19405983758802
49 0 80.81101075168823 -40.31406253969617
50 0 87.04426270866202 -32.69451581962709
51 0 93.68933831652134 -25.43229214449213
52 0 100.8451450252449 -18.67437761941358
53 0 108.6057366658687 -12.62378664034864
54 0 117.033822416628 -7.548815751848537
55 0 126.0986364943359 -3.732223075630201
56 0 135.641969642674 -1.34473803871649
57 144.9284754757172 9.897623483461697 10.25117173791762
58 143.9311673877443 19.75466487670263 9.505414140082443
59 142.2660392516499 29.52128840207823 8.766497570791472
60 139.923165733093 39.14894155419763 8.038094480456456
61 136.929224052326 48.59546610889446 7.323395560328661
62 133.2978608853943 57.81705599398541 6.625714618014118
63 129.0456531340243 66.77088591557586 5.948291645062401
64 124.1920451782986 75.41530407280011 5.294277517886768
65 118.7592730643105 83.71002139407005 4.666720950731225
66 112.7722783499412 91.61629882164647 4.068553015415252
67 106.2586076768333 99.09713176727084 3.502573150335118
68 99.24830105911479 106.1174255865801 2.971436110917884
69 91.77376208476034 112.6441728037437 2.477639551520062
70 83.86962266726908 118.6466144758214 2.023510940240342
71 75.57258916837374 124.0963981461433 1.611195007441888
72 66.92127736808489 128.9677265376601 1.24264300040869
73 57.95603543129585 133.2374933941792 0.919603568990391
74 48.71875487587457 136.8854069131039 0.643612099407069
75 39.25267264093347 139.8941013014113 0.4159819947614444
76 29.60216227527809 142.2492331635333 0.2377989836028631
77 19.81008130765673 143.9237459269272 0.1111097818501481
78 9.925747934557435 144.9265668721915 0.03523916054807044
79 13.84855530922866 0 -160.3531445536724
80 16.68190738850589 0 -151.0464702895656
81 20.36855074083826 0 -142.038071802669
82 24.46934000266265 0 -133.2091808486483
83 28.79078057769528 0 -124.4858386957761
84 33.24524234966858 0 -115.8295744229169
85 37.79146332811097 0 -107.2211166193288
86 42.41221228920737 0 -98.65242358841809
87 47.10397028933347 0 -90.12240532065097
88 51.87198484291526 0 -81.63478581063782
89 56.72877779117927 0 -73.19767251243448
90 61.69336382964897 0 -64.82356456959992
91 66.79033384530071 0 -56.52942421097053
92 72.05100147156377 0 -48.33821999266645
93 77.51566264143833 0 -40.28181700026972
94 83.23218286067474 0 -32.40236818294294
95 89.25986767769834 0 -24.75870751050877
96 95.67337303327599 0 -17.43654844080652
97 102.5568407620162 0 -10.55552382984188
98 109.9966083869917 0 -4.282351284075994
99 118.0539998486901 0 1.171765218501308
100 126.7291480421549 0 5.57293051126348
101 135.9206146096935 0 8.762026215525861
102 144.9284754757172 9.8976234834617 15.25117173791762
103 143.9311673877443 19.75466487670264 14.50541414008244
104 142.2660392516499 29.52128840207824 13.76649757079147
105 139.923165733093 39.14894155419763 13.03809448045645
106 136.929224052326 48.59546610889447 12.32339556032866
107 133.2978608853943 57.81705599398543 11.62571461801411
108 129.0456531340243 66.77088591557589 10.9482916450624
109 124.1920451782986 75.41530407280013 10.29427751788677
110 118.7592730643105 83.71002139407005 9.666720950731227
111 112.7722783499412 91.61629882164648 9.068553015415249
112 106.2586076768333 99.09713176727088 8.502573150335119
113 99.24830105911479 106.1174255865801 7.971436110917884
114 91.77376208476036 112.6441728037436 7.477639551520063
115 83.86962266726906 118.6466144758214 7.023510940240342
116 75.57258916837372 124.0963981461433 6.611195007441887
117 66.92127736808489 128.9677265376602 6.242643000408689
118 57.95603543129589 133.2374933941791 5.919603568990392
119 48.71875487587461 136.8854069131039 5.64361209940707
120 39.25267264093347 139.8941013014113 5.415981994761444
121 29.6021622752781 142.2492331635333 5.237798983602862
122 19.81008130765678 143.9237459269272 5.111109781850148
123 9.925747934557428 144.9265668721914 5.035239160548071
124 0 135.6995182666666 5.733333333333333
125 0 126.0066955333333 6.466666666666667
126 0 116.3138728 7.200000000000001
127 0 106.6210500666666 7.933333333333334
128 0 96.92822733333331 8.666666666666668
129 0 87.23540459999998 9.400000000000002
130 0 77.54258186666664 10.13333333333334
131 0 67.84975913333331 10.86666666666667
132 0 58.15693639999998 11.6
133 0 48.46411366666668 12.33333333333333
134 0 38.77129093333336 13.06666666666666
135 0 29.07846820000005 13.8
136 0 19.38564546666673 14.53333333333333
137 0 9.692822733333401 15.26666666666666
138 9.692822733333344 0 16
139 19.38564546666669 0 16
140 29.07846820000003 0 16
141 38.77129093333337 0 16
142 48.46411366666673 0 16
143 58.15693640000011 0 16
144 67.84975913333346 0 16
145 77.54258186666681 0 16
146 87.23540460000014 0 16
147 96.92822733333342 0 16
148 106.6210500666667 0 16
149 116.3138728 0 16
150 126.0066955333333 0 16
151 135.6995182666666 0 16
152 97.46182648722508 96.17163156146627 1.927190024472795
153 74.60508958330666 8.42782817933948 -44.18911656008319
154 8.512398526896712 83.56707000783629 -36.2093237033418
155 92.41136490315586 8.429041394334281 -21.04922952709322
156 67.11122971860804 119.0921787241187 0.1710436682344594
157 8.508613727540844 66.10793591123515 -60.07466209588583
158 123.5847949659413 58.5689945441653 4.675799386896601
159 58.55765861726107 8.62988158965234 -69.3537093118677
160 8.511952907643712 96.96919144525695 -21.73773606871974
161 7.850801261057783 55.75914288038028 -76.44223282731268
162 49.27669267243241 8.014884304125752 -85.36396320209307
163 41.74132099985309 130.7205234387317 -0.56390144108547
164 106.4195020436184 8.320513809660131 -7.35144648049485
165 7.527268038331419 45.66478734294841 -93.42234106829731
166 39.94584027588879 7.039826164124707 -102.277794988409
167 132.3499603379246 31.60936827160171 6.489752435078552
168 8.509389521580177 112.6120029757141 -9.741243313057298
169 7.953173075131568 35.81311473068138 -110.4964274925418
170 30.19082231503525 8.379368949723096 -119.7320399756906
171 114.1710464391508 75.2803133815504 3.434858534333503
172 82.72737766943689 108.8374822801097 0.9339500588888877
173 23.64759373334584 135.6902047038986 -0.8111374510827943
174 7.326981865208237 26.21448446879568 -128.28514537581
175 122.5444781519716 8.1502971643084 3.246692888438343
176 21.76702247403908 7.052404954952782 -136.6692589393523
177 10.84544976942895 134.1192343605271 -1.487450140910393
178 136.7677750692867 14.08658631300986 8.175397353171244
179 6.180359228060404 17.23074370048911 -147.1344577772282
180 13.0274827097136 8.087766903058609 -155.0185404534506
181 10.61597751134693 123.5814009757847 -4.377690963139495
182 17.83974253678164 116.500450795465 -6.991043250078881
183 17.0277864038911 107.8531532982937 -12.07651654162532
184 25.9197966581912 110.9423035069372 -8.988456100799104
185 25.25198764771341 102.988759338328 -14.21765169331286
186 33.96087119920009 105.5270539364454 -10.70649882095536
187 33.24609654668015 97.51853062876269 -16.41614000645835
188 41.83359617911498 99.73967514705478 -12.32021408803044
189 41.20793137502005 91.90465401833524 -18.15256066592022
190 49.66817402166634 93.89766360980683 -13.46516168983592
191 48.99059026503193 85.95551011479847 -19.47486016950301
192 57.26391160601162 87.60480777394325 -14.35355293300953
193 56.59348483331372 79.71576955048741 -20.2387456196188
194 48.71852741826847 78.5448323501363 -25.81478561006536
195 56.19875413230579 72.20597634417751 -26.47000420616759
196 63.8731453110083 73.09093279937285 -20.52095615892407
197 63.33731178676295 65.43690602308691 -26.54529844554837
198 55.89716130684736 64.8238160087276 -33.09533528147998
199 70.79231814434185 66.09567273532241 -20.29922198351228
200 69.9994480388702 58.21324179185201 -26.13358315909881
201 77.30791527484284 58.76324639779101 -19.57407719262309
202 76.24088722396716 50.69350270936779 -25.08286442495614
203 83.38941593739547 51.14509760669512 -18.36067910163116
204 69.34182278044662 50.41456226873537 -32.06902765815618
205 78.84400401902631 67.15068789785829 -13.96225446404411
206 75.22164207264876 42.68163503924279 -30.66160831656788
207 68.70399501047798 42.62159696870111 -37.99227133507363
208 32.72269169977072 89.96592178608027 -22.96152801075318
209 74.14000961707067 34.66309900920604 -36.19724102998265
210 68.13749477292141 34.49674288930584 -43.77780690255506
211 62.3495898120407 42.62373454614615 -45.4475821275061
212 61.95386454352957 34.96027057299747 -51.53317425378346
213 56.11705939027445 42.7245105833749 -52.87089281592382
214 56.00081881614359 35.19622262796757 -59.30261754013647
215 49.83319931130661 42.70290818342294 -60.50702294977816
216 50.06076459199755 35.45157348617042 -67.08022499811725
217 43.54856488165586 42.70202094033586 -68.0138732712789
218 42.66267797331692 50.38002403231161 -60.2812867800336
219 44.07773985918113 35.69008708271281 -74.82696882291518
220 80.5029382440581 34.65456854916216 -28.74712773516582
221 37.22053698062491 42.67980900198519 -75.29885527844476
222 37.99729761787014 35.86540555738214 -82.50228384458578
223 58.2102463193248 95.91927337409815 -9.116570850278613
224 65.67633642487316 89.46906242316926 -9.529269921978671
225 42.8155869682428 108.2845703938457 -7.246804224779149
226 30.65332460201196 42.3421560002518 -82.75085623040611
227 31.76438668231859 35.91461280409029 -90.06136692567802
228 29.40901149700721 48.58553146136919 -75.29930499960939
229 38.55405321703823 28.88975724052287 -89.35617452280881
230 32.65475448493519 29.23332200516973 -97.16250905354862
231 61.30978074926176 26.43087563250487 -57.86581655185239
232 49.99984964950316 28.01956228770075 -73.44947355170189
233 69.23783699749301 8.236597857825799 -52.25723729836979
234 78.91178865372567 26.28163234202147 -33.94339708321019
235 86.14993211610448 8.432145863317821 -28.5068098131683
236 85.30285649862711 26.50927273277764 -26.21497800946782
237 56.0384611128178 50.12861188560102 -46.35305260698895
238 87.14416763321179 34.72542317838047 -21.5681732261732
239 91.82110805038872 26.48525823081827 -19.14934231247311
240 94.16221485326038 34.9043971028999 -14.7614955117607
241 99.04101618357436 26.78661597330237 -12.196570100035
242 101.655844230428 35.20484835296948 -8.473897642655336
243 106.4516000944307 26.9809216363577 -6.177654568450301
244 109.7106052091797 35.62464759564912 -2.909931111587256
245 104.597897311048 43.79488720814217 -4.753002051255025
246 99.24002191461979 8.38480050124331 -13.84649312461904
247 114.5468544188407 26.77668918739041 -0.891453274424576
248 114.1225024186146 8.278869247328563 -1.620028087177232
249 25.3955407345318 35.97106767944432 -97.06078308478376
250 26.55930314285312 29.41115490736162 -104.8278736281728
251 66.95838563697596 98.23228527274635 -5.152520079024423
252 74.36552197963685 91.73428151933057 -5.141437998787758
253 72.98640491190081 82.81829863453018 -9.511199276308661
254 81.55340644962439 84.91078580062764 -4.872063942268327
255 22.47141346436397 47.71751863486384 -82.17573201182607
256 71.1418961392433 16.73122700001477 -47.61821334389045
257 59.49896155180176 104.7090799659833 -4.779581895182981
258 113.1604461786047 44.34027296404088 0.0340491829941213
259 107.8072520734379 52.47062826135109 -1.39949886916779
260 99.25953140876918 51.92927252965132 -6.25349218608793
261 103.6541614363461 62.42131175253182 -1.516070016596452
262 94.10824237502084 60.47696754317194 -6.944188833905708
263 96.38003982619271 69.86308431065861 -3.086843074140736
264 26.37558398776042 119.3172409271522 -4.930789280763823
265 7.788106008807944 50.55277078786372 -85.06047844722048
266 33.17304951599517 22.23770684847113 -103.9952271861389
267 27.76019231346794 23.18052764363361 -111.0290658022383
268 82.47930747704166 93.76791091801229 -1.894459225245353
269 21.75687513981676 53.80431977391457 -73.45481255629649
270 28.83613957456319 54.28619836289752 -67.79696121583055
271 8.13074885512872 60.85998285279683 -68.22036430093749
272 16.73526182778615 62.34908807797324 -63.21238462848051
273 16.93751432035495 67.74063331814884 -55.27306123046245
274 8.511637251568596 77.46989882313363 -43.96161024834728
275 16.95754517237413 79.62043860853971 -39.37998355319732
276 16.38755256604238 86.15841765886977 -31.77098439258669
277 25.00051776182151 81.46736772172594 -34.55758076377764
278 25.27695639000612 75.09182292248903 -42.05470770071563
279 33.35260333127391 76.30336105372574 -36.73498164943765
280 33.37409620665956 69.92344451497318 -44.19076955718543
281 41.27763663515387 70.59028714457168 -38.37081996563884
282 41.13356038354113 64.08482479034267 -45.74449031197579
283 33.4214596592446 63.73704431860819 -51.82975689215787
284 113.1007833189473 60.80225236511565 1.895663795732659
285 20.49456197133561 29.28693506322241 -112.0240740934745
286 22.24641426551149 23.63210895712664 -118.0497768174293
287 91.22601976088123 88.42979758127024 -0.6165079862135122
288 88.74022085961553 78.01227936577104 -4.149964438432458
289 97.54290645618914 80.27996420053985 -0.3196505139723561
290 33.61939724966941 14.78493412451462 -109.6886494154864
291 68.68488786396644 108.0089545720353 -1.665650191468998
292 17.09261597499473 7.511750040504094 -146.090364039424
293 76.94463036674308 16.85997934954101 -39.38590907677344
294 65.84599153613109 16.66594433638366 -55.53224981229302
295 41.05722931681493 57.71075180207715 -53.22296434588932
296 87.35339843500712 68.48359687945995 -8.103157918469023
297 120.0536233181206 17.80197354847932 1.820269187108909
298 85.35865304780749 59.7021154655835 -12.94842248431841
299 72.92498890418862 25.56897885163956 -41.98489227290671
300 48.58572139928107 57.64515882256507 -46.47777773848016
301 103.2052166674266 18.36920178233399 -9.659610387562791
302 96.01324449810367 17.31640084498732 -16.4791825901076
303 80.10137899781806 75.9804018201729 -9.039232270397184
304 104.5596804444154 73.22564262143969 0.7112105364929161
305 107.8540254816271 83.6733115052719 2.747952892178263
306 83.07135753679765 17.06273689581826 -31.27468186563683
307 80.34898132775777 8.326311406643615 -36.0992331753311
308 89.19994965478264 17.60762656180363 -23.78689156146311
309 71.86982704963027 74.24040337015572 -14.63304920840262
310 25.00156148951879 63.69129900114448 -57.21131618193475
311 13.56976045596161 28.76035000064225 -119.4599567251029
312 33.10183724767487 57.26295066155974 -60.43709114907458
313 91.1870422942315 51.61073145174905 -11.88630950794961
314 25.35091994260858 69.15157809283475 -49.634456081995
315 89.07119343870134 43.02425661632497 -16.74956590145204
316 96.70219497890876 43.41214651275462 -10.31216662028451
317 7.237680896458301 21.63932675758434 -137.1326568682617
318 15.65036622043413 20.26856243913277 -131.351734095068
319 128.2121585573892 15.97960075483847 5.443185369816587
320 135.5128249499277 22.25488301313723 7.520784192669017
321 41.03098859951263 84.4979837321218 -24.52951382356992
322 24.69157448788881 95.20382127645441 -20.63632844903332
323 64.70811066327077 81.1059167788796 -14.7067661767642
324 62.90298902718078 57.78127510526951 -32.90731457965632
325 55.82129719099644 57.56211434801236 -39.75503781557001
326 17.04555411573671 73.77724763232568 -46.89621989314593
327 50.39380781436573 102.3354434621113 -8.308752494824079
328 51.92156777452789 111.1265031762258 -4.133088616498988
329 43.95710467550281 116.8279932196261 -3.564393111755209
330 51.93997684823819 119.8272488804581 -1.61890657904023
331 34.86775287780321 114.0525037237952 -6.05026644038275
332 49.2994997452469 50.54351398868445 -53.1738988645516
333 8.334854144616772 90.07593281152994 -28.73457431749246
334 16.59912499650522 92.6670073156961 -24.8131571515348
335 75.44419226353358 100.7246972082075 -1.983778098505077
336 55.60534830883078 27.59504874789268 -65.48676893464854
337 54.86234192582869 19.81520050365276 -71.34419775669431
338 54.13121066468579 6.280585226482948 -77.26094972938263
339 49.52066997650178 20.7230855894407 -79.33959492030205
340 44.35622067600246 28.43557143680605 -81.41057817377668
341 44.13740819256002 20.99584933101522 -87.78031984247414
342 38.8303338235455 21.87784292915209 -95.53050434742225
343 43.85133907899015 13.41015266295354 -92.8666297666586
344 48.4999081471207 64.47796621258047 -39.4765359408964
345 25.74199437713934 7.437094103278991 -128.6268147164055
346 81.90333480725704 42.77405800141953 -23.63649250872073
347 62.67348195634493 50.2718194183977 -39.11862116735669
348 8.149820292929116 40.51660854520366 -102.1337391935792
349 16.97431985179656 35.6816554083679 -105.2697259117783
350 16.84614746184016 41.22440892506398 -96.36818104003684
351 24.01597611661413 41.92660073997926 -89.65691076640063
352 8.778637035153544 71.73204172574962 -51.80022860191009
353 117.9770766872565 36.38561982535369 1.544892618842906
354 122.1304005242653 43.79229374734982 3.61629564445779
355 123.2344007200179 28.61763138723034 3.462794697523401
356 63.99640147853057 8.130845271286988 -60.52566045513751
357 36.14031394869386 49.76684465529856 -67.51685871497638
358 131.0515106747123 7.716062154484987 6.786609333333701
359 60.7121972516346 17.15844861674252 -63.30664796124247
360 8.510632606567629 104.4658267814309 -15.31609668388427
361 24.25511739259878 88.05592464755989 -27.62865014335944
362 14.69400281098427 15.13844155529412 -140.6891156113886
363 16.99773495558742 100.1621642394426 -17.87686077307693
364 48.78038399335632 71.200155534141 -32.58538049311539
365 67.27037443820706 25.46076106084159 -49.82674332132913
366 35.62445568458691 122.8207102466279 -2.776761140142136
367 41.17679614555028 76.97458872368185 -31.71392896211727
368 117.6927600236991 52.19622918514104 2.644583386699446
369 32.68964837397577 133.3896632641056 -0.73486693559531
370 111.0149863212142 17.14447537464097 -3.670113622878018
371 131.0324456139965 41.69329429870745 6.121411506669252
372 119.2387140005579 67.64904571483088 4.087389413406783
373 90.76755060560177 103.7922876347215 1.596573400789486
374 75.23781566043493 114.7756375512601 0.6239491885145911
375 33.18158191210444 82.74926139695393 -29.83110030791761
376 24.28357741110802 16.32019282649713 -123.9979419426222
377 15.83001701455066 46.78207381959511 -87.97922820154263
378 60.24162310292861 113.7875116658631 -1.809986992832777
379 19.23455929930062 123.4664061534284 -3.979524808601375
380 50.44641022109078 128.3318420748425 -0.2273839177557871
381 99.93466880966763 88.30900193941525 1.539633912309746
382 127.8331885772339 50.50928792859672 5.451907225830137
383 35.44736640213038 5.627932264916971 -110.9406787915838
384 15.49928705012466 52.43915639824881 -79.06207652445721
385 6.265730759174057 13.98262415022434 -155.1214196097158
386 8.943639747689629 10.10705971907534 -162.0484557870104
387 21.0876091306371 14.14928471942503 -131.6278740913872
388 59.43383266912667 124.6079517942926 0.08855738969348068
389 37.82543246228921 15.99061256613524 -101.6840145113909
390 15.92283181483584 57.91266512276668 -70.28715957434619
391 125.3689052103812 36.23916760681918 4.431600757180099
392 5.877474652530305 31.76563644027074 -118.5934275610854
393 28.3078528621353 16.95010613270116 -116.8104954124095
394 25.79440016089477 127.5528596902986 -2.333229419646942
395 44.79394099006453 5.406132372849259 -93.86213737840637
396 16.98170288605683 23.41848597286114 -124.8480181082339
397 82.82937707102208 101.5359335695072 -0.1453777398063234
398 110.853744995894 68.12488592249431 1.978638563201003
399 48.23014752090148 15.48207136231237 -84.39974259495175
400 23.63628621476744 59.02755397920723 -64.60201528492989
401 137.9715337112331 7.279039465088943 8.857010442019037
402 17.89819010080712 130.5685561358569 -2.022914038131969
403 89.72156816108178 96.32625583459317 0.4273728606084246
404 127.9837064106348 23.0730241288232 5.229043614286272
405 12.32397359706825 12.7361244075256 -148.4976548697598
406 52.65206645204023 14.29001472706742 -77.53306560171168
407 105.5853619936508 91.91626855840289 2.969854530717125
408 75.82547479638194 107.8226708815332 -0.3573032784542667
409 6.024379297370022 129.3431407168758 -2.674476208995418
410 14.08323867788997 32.41465288857255 -112.8857112933925
411 44.48810342743447 123.8824622978571 -1.58845614908972
412 16.45900886437999 137.9825333328192 -0.6966715194039208
413 5.734183017442173 139.5563437283839 -0.6582012394898749
414 5.066336218409376 5.066336218409372 -170
415 4.974746652470849 145.203256006036 2.504281713969507
416 14.85782003832066 144.5118714436721 2.534441833274311
417 24.69092481770699 143.1821135376612 2.612969970626974
418 34.40549178265145 141.1644247437583 2.740420969617363
419 44.06342352233415 138.4541361649146 3.149175726880458
420 53.42947860858496 135.1163359226377 3.425077863874229
421 62.54366179996369 131.146572850152 3.748010113969139
422 71.36327684448398 126.5638794786712 4.116436857015427
423 79.68794325765521 121.4947087717646 4.113113059563309
424 87.95558036557172 115.6501098258509 4.982581821960617
425 95.65100977658464 109.3710016269296 5.476205443597929
426 102.8977051525367 102.5826196849157 6.007155249143606
427 109.6621601878483 95.3170625197673 6.572934653685422
428 115.9131893439088 87.60858840226378 7.170889830992992
429 121.6220582175297 79.49344405843965 7.798222222800096
430 126.7626029174943 71.00968656275428 8.45200153410549
431 131.1847036952623 62.46364342799244 8.44838018739892
432 135.2475267652078 53.09651465810587 9.82660782773771
433 138.4600009475594 44.04499112232885 9.822942224451639
434 141.2136934132216 34.20270971175226 11.26918186719688
435 143.2151133238408 24.49710330194751 12.01141162020564
436 145.1968878751694 5.113633108105629 12.78151168256023
437 144.5301799652749 14.67711888370987 12.77434267716941
438 96.05381619710525 97.8317304428094 8.598310023161469
439 62.81991073177828 7.639155136529004 15.42204173989312
440 8.395245038117967 63.00269072021545 11.23338305356918
441 118.5953030482926 67.38405351263565 10.901900823898
442 66.97519976710652 118.2130832911932 7.056310654755183
443 91.22785831253856 8.610418890039785 15.34855839868884
444 8.347964157913907 92.09206061253785 9.032558169960286
445 8.417928204110666 33.92293106322884 13.43348080224035
446 131.1107774201646 41.25254197688442 12.87894177003021
447 40.51065619540064 130.5304432895545 6.124411621233079
448 33.85963882577514 8.534325062368341 15.35431559616269
449 112.2057703679891 8.607986332670862 15.34874239129662
450 8.398513789359262 111.4674614313132 7.566666517335271
451 108.8991708064181 82.49304688502059 9.758794316408157
452 83.39551557212954 108.3946542671998 7.799147098500367
453 134.6162864435662 23.20004288412846 14.24474600980853
454 24.35332802883365 133.7159155251423 5.88340720965258
455 8.41822091540298 14.53923414512848 14.90000005057186
456 130.7093794200804 7.808232543338918 15.40924967692181
457 7.795361538066633 130.6316931357525 6.11675141714425
458 8.469860492964392 24.03961117719693 14.1812266498785
459 16.86462915859441 28.72304519807116 13.82689041800901
460 16.84236431567088 38.70786312928121 13.07146549132994
461 25.22976102157287 33.71983365146116 13.44884661064847
462 25.25471912622891 43.5728055617092 12.70339679869308
463 33.69193571251135 38.71339686401563 13.07104680555665
464 33.68559507553054 48.46720453584471 12.33309949283607
465 42.14473824938702 43.57507624305556 12.70322497455069
466 42.12546711628271 53.33282513991946 11.9649794793737
467 50.59733441415317 48.44614716128132 12.33469260505385
468 50.58093007419986 58.2145257301216 11.59564290474027
469 59.07116756947408 53.31486148703755 11.9663385417099
470 59.06407936255808 63.09415599660391 11.22646298516371
471 50.57093602057958 67.98422899253075 10.85649298096047
472 67.55095359889383 58.20473389461853 11.59638373689344
473 67.54325695499236 48.42681807501679 12.33615497003479
474 76.03771483308279 53.31064964480377 11.9666572038022
475 59.06562649019737 72.87313436561564 10.48661134491747
476 50.56746344326905 77.7592682522512 10.11693934444203
477 76.03605936599226 63.09600987112454 11.22632276754329
478 76.03488429710977 43.53084166969927 12.70657157930678
479 84.52617662297416 48.41421252641099 12.33710867122315
480 42.07763912449919 72.8688775142102 10.48693337507194
481 42.07025923524589 82.63882565856099 9.747764903209582
482 59.06674726598905 82.66287067819178 9.745945778186616
483 50.62361821242401 38.67191894629832 13.07418487666745
484 84.51787578610876 38.63018522468556 13.07734226067632
485 93.02326113618179 43.50216865392241 12.70874089518963
486 93.03237540708101 53.30630176529608 11.96698617901201
487 33.59124309650942 77.74571237019882 10.11796493234868
488 33.57826659644066 87.51506238721649 9.378841702664207
489 42.05609222344803 92.40865802337537 9.008605183888918
490 33.5593587647917 97.28953250976446 8.63933109467632
491 42.04050867095751 102.1924999204352 8.268385537858343
492 101.5363405481075 48.3942689396736 12.3386175689353
493 101.5140584282748 38.58694315686449 13.08061382844401
494 33.54261403329702 107.0748549527799 7.898999431246093
495 76.03348763244267 33.76362521575535 13.44553333168218
496 84.49351581044701 28.87554415678023 13.81535259098924
497 33.71755962766304 28.80329527280131 13.82081889865552
498 101.5463236227276 58.21148202494929 11.59587326856207
499 33.61378388553338 67.97634004341073 10.85708984230947
500 76.02333196505103 24.01917761684648 14.18277247350535
501 67.57332592342996 28.8928700811712 13.81404181387882
502 25.23735938178096 53.3170379611229 11.96617392510859
503 25.14086740507125 72.84313944205348 10.48888066719225
504 67.56513198068083 77.7657820633984 10.11644659826339
505 67.58116581615769 87.57171397800371 9.374555719073424
506 76.07886072444795 82.66865872555732 9.745507964120785
507 59.05955211580096 92.46354151685918 9.004452921842503
508 93.02827970428555 63.12706596545139 11.22397319929131
509 110.0421736206756 43.47326426849666 12.71092774228106
510 110.0142764975397 33.66759483894727 13.45279868685011
511 101.5079807552231 28.79226604922181 13.82165315217836
512 25.08413727926276 102.0414108085884 8.279816536470216
513 25.06097805222894 111.7787842828847 7.543112569093394
514 67.55193458282352 97.34493008687031 8.635140012693121
515 59.04359032568717 102.2668054405286 8.26276386992453
516 42.0421502881893 111.7759222324164 7.543329114307429
517 101.4876796560833 67.92417972429047 10.86103630271951
518 92.94986166638112 72.78813651538094 10.49304219459458
519 109.8118652439117 24.18806388616115 14.16999489462023
520 118.2280525518864 28.76888272313473 13.82342227613856
521 101.5203033260205 19.54452147475292 14.52131304601179
522 117.4658982494564 17.87137100192471 14.64789917267881
523 85.3921194889295 17.69498006510732 14.66124451339294
524 75.53417731029447 14.67218019873737 14.88994160285319
525 67.31297874182228 107.7883452947307 7.84501879914
526 58.57649878134683 112.2882062220372 7.504571155466747
527 58.48298823531998 122.8077921047232 6.708687085811625
528 25.20791332522288 63.05258945798098 11.22960781979267
529 93.02487564196274 23.91590534518916 14.19058572174482
530 93.01989357896286 33.68308296582855 13.4516269054256
531 67.55780357922666 19.91660895192136 14.49316200887689
532 59.00765294357973 24.35970784448804 14.15700891754873
533 59.09361226877903 33.82392393603462 13.44097134103628
534 50.64850269705644 28.96496597799607 13.80858728366293
535 50.54778081860238 19.44977830339234 14.52848123611294
536 42.20719969894763 24.07488867461094 14.17855762901876
537 42.41476700007998 14.53087410426154 14.90063254248654
538 33.79010150684585 18.85170478135515 14.57372992691925
539 25.35937690121524 13.78459822631539 14.95709381372939
540 25.268796778028 23.62079697172065 14.21291302643717
541 51.64076715502961 9.202953012648772 15.30372895210192
542 25.12992348824165 82.58626108226937 9.751741809730087
543 16.7115579257691 77.64675263633021 10.12545199736868
544 42.10884306216226 63.09217717020861 11.22661269333605
545 25.12434669059 92.27622764185288 9.018624518765492
546 59.0887310293567 43.53733119305713 12.70608062701712
547 42.18383826583756 33.78294874842834 13.44407146234782
548 8.419902007460538 43.60529377151747 12.70093883833543
549 118.2009927776313 38.5419461510741 13.08401820806785
550 118.5495397325654 49.13475210868949 12.28259461717611
551 67.56822404189307 38.63846748849438 13.07671568099658
552 8.413796061240713 53.30102237753898 11.96738564086541
553 50.55540216633956 87.53626408962556 9.377237669931271
554 33.97440150895269 116.1772347823821 7.21033741402986
555 26.26100647125643 122.3905517591505 6.740254275789006
556 16.83870681885717 48.45052051131088 12.33436178566263
557 8.377866939895673 101.7755099062795 8.299933968975633
558 101.6436671898901 9.823358884188313 15.25679053028885
559 67.54790558419867 67.97989947411921 10.85682058199591
560 109.6481324584833 53.42251151194417 11.95819409329897
561 76.07734457642925 92.43200901164488 9.006838688131547
562 84.36863307300719 87.19759222529967 9.402860862215396
563 85.25750262291464 97.43405264907125 8.628397297204055
564 84.53330898885778 58.19085230629418 11.59743401645707
565 8.221767058447844 121.1233818185898 6.836125101296991
566 121.384294264384 8.305218649485859 15.37164899684795
567 33.66316020557036 58.20636243408602 11.59626053916105
568 50.53803170670577 97.31542163464266 8.637372438861114
569 84.5177534445083 67.9696277552228 10.85759777890117
570 8.354401346088867 72.71857842973634 10.49830466095933
571 16.80624278441757 58.16742558969844 11.59920642543216
572 76.04782202868995 72.8751561887054 10.48645845259306
573 109.5809787580974 62.99782078111872 11.23375158141856
574 50.40879061868338 107.02257360122 7.902954957715436
575 16.76224690372857 67.89819504427253 10.86300211680192
576 84.50729420884679 77.72395646806508 10.11961109429479
577 8.317256416497814 82.40585473107518 9.765390925670548
578 109.4141931320603 72.42257428246464 10.52069967611757
579 16.72027334938635 87.31522336109707 9.39396103141744
580 16.71341930579586 97.02024718104968 8.659704550479908
581 16.84986290561217 18.72788738339251 14.58309762740591
582 15.86445687550545 8.601690817123199 15.34921887876219
583 16.70460504179186 106.7328810601542 7.924872314695013
584 92.58541436815734 81.86477524273378 9.80632771695003
585 16.86514693095806 116.583292477181 7.179616204387416
586 16.38218119221732 126.873675741814 6.401073010304719
587 31.51853257604656 129.1838988526297 6.226287591599804
588 75.82273894385608 103.0224842467688 8.205591297634971
589 81.96145645786167 7.992518937948931 15.39530710833759
590 133.1500093705113 31.75890610118377 13.59720508960349
591 102.620446751707 90.92130703893314 9.121134409495667
592 75.49144079149114 113.3602636355038 7.423462197603193
593 123.8977560074851 58.26375632996639 11.5919183724215
594 127.8893630292596 49.74859406146908 12.23615299178539
595 100.8497857078295 76.94486662297749 10.17855500043337
596 50.36508770872139 117.1444316261414 7.137161920565617
597 42.42314299562857 121.1284434007806 6.835742077302649
598 49.74277775323871 126.9556685319518 6.394869670612136
599 125.8078866495244 24.289666521623 14.16230793129503
600 91.14577947033629 104.4844072662359 8.094986055275436
601 136.5140216618642 14.10261610197409 14.93303326527749
602 14.37994383474631 136.4886501428269 5.673629496886188
603 59.24434202910463 15.51503243823916 14.82617368527084
604 126.7277261147785 15.5850342546637 14.82087738477921
605 72.69617050000016 6.71236812193222 15.49215996803174
606 125.008122710363 34.67332227886784 13.37670805209459
607 108.5295008532263 16.00706028924369 14.788947997858
608 43.18117540801533 6.465580997439083 15.51083129551259
609 94.22326155653737 16.01527513613213 14.78832651967294
610 24.23205680032911 6.059805156673362 15.54153122859702
611 116.0543419399 58.24057905738049 11.59367189289839
612 93.02280927185241 90.02113102188932 9.189239380198531
613 7.11321239337515 7.100311014960932 15.46280930035878
614 116.3256968950019 76.36520055481461 10.22241097062597
615 6.710783770703886 138.3789331958238 5.530615744019644
616 138.3927881800484 6.663182447430158 15.49588117979145
617 33.16609299883352 135.8455054750245 5.722288061150725
618 35.78307955342964 123.5574628462654 6.651968866060295
619 99.76239387578566 84.17648598667627 9.631429784799094
620 68.38781985131821 12.48427719611257 15.05547258939882
621 123.5510189376928 43.42799134234372 12.71435301141827
$EndNodes
$Elements
1111
1 2 2 1 1 1 386 79
2 2 2 1 1 318 396 376
3 2 2 1 1 376 387 318
4 2 2 1 1 54 181 168
5 2 2 1 1 34 386 1
6 2 2 1 1 355 404 297
7 2 2 1 1 218 357 312
8 2 2 1 1 297 404 319
9 2 2 1 1 231 359 336
10 2 2 1 1 247 355 297
11 2 2 1 1 304 398 261
12 2 2 1 1 288 289 263
13 2 2 1 1 263 304 261
14 2 2 1 1 294 359 231
15 2 2 1 1 55 181 54
16 2 2 1 1 218 312 295
17 2 2 1 1 284 372 158
18 2 2 1 1 250 349 249
19 2 2 1 1 158 368 284
20 2 2 1 1 181 182 168
21 2 2 1 1 171 305 65
22 2 2 1 1 155 308 302
23 2 2 1 1 48 352 47
24 2 2 1 1 297 370 247
25 2 2 1 1 376 396 286
26 2 2 1 1 247 370 243
27 2 2 1 1 210 365 212
28 2 2 1 1 246 301 164
29 2 2 1 1 65 305 66
30 2 2 1 1 263 296 288
31 2 2 1 1 159 406 337
32 2 2 1 1 158 382 368
33 2 2 1 1 205 303 296
34 2 2 1 1 368 382 354
35 2 2 1 1 234 299 209
36 2 2 1 1 312 357 270
37 2 2 1 1 35 386 2
38 2 2 1 1 337 359 159
39 2 2 1 1 299 365 210
40 2 2 1 1 246 302 301
41 2 2 1 1 293 299 234
42 2 2 1 1 289 304 263
43 2 2 1 1 209 299 210
44 2 2 1 1 166 383 290
45 2 2 1 1 306 307 293
46 2 2 1 1 155 302 246
47 2 2 1 1 234 306 293
48 2 2 1 1 285 349 250
49 2 2 1 1 235 308 155
50 2 2 1 1 75 369 76
51 2 2 1 1 336 359 337
52 2 2 1 1 295 332 218
53 2 2 1 1 274 352 48
54 2 2 1 1 2 386 34
55 2 2 1 1 290 383 170
56 2 2 1 1 47 352 157
57 2 2 1 1 378 388 156
58 2 2 1 1 296 303 288
59 2 2 1 1 235 307 306
60 2 2 1 1 261 398 284
61 2 2 1 1 156 374 291
62 2 2 1 1 296 298 205
63 2 2 1 1 290 389 166
64 2 2 1 1 330 388 378
65 2 2 1 1 291 378 156
66 2 2 1 1 306 308 235
67 2 2 1 1 304 305 171
68 2 2 1 1 161 390 384
69 2 2 1 1 349 350 249
70 2 2 1 1 162 406 338
71 2 2 1 1 399 406 162
72 2 2 1 1 338 406 159
73 2 2 1 1 390 400 269
74 2 2 1 1 152 381 287
75 2 2 1 1 100 358 101
76 2 2 1 1 300 325 237
77 2 2 1 1 231 365 294
78 2 2 1 1 269 400 270
79 2 2 1 1 262 298 296
80 2 2 1 1 208 375 361
81 2 2 1 1 212 365 231
82 2 2 1 1 76 369 173
83 2 2 1 1 384 390 269
84 2 2 1 1 237 332 300
85 2 2 1 1 300 332 295
86 2 2 1 1 262 313 298
87 2 2 1 1 215 332 213
88 2 2 1 1 302 308 239
89 2 2 1 1 275 326 274
90 2 2 1 1 170 393 290
91 2 2 1 1 205 309 303
92 2 2 1 1 182 183 168
93 2 2 1 1 79 386 180
94 2 2 1 1 181 409 177
95 2 2 1 1 163 369 75
96 2 2 1 1 165 350 348
97 2 2 1 1 162 395 343
98 2 2 1 1 310 314 283
99 2 2 1 1 213 332 237
100 2 2 1 1 283 312 310
101 2 2 1 1 217 357 218
102 2 2 1 1 287 403 152
103 2 2 1 1 313 315 203
104 2 2 1 1 301 370 164
105 2 2 1 1 160 363 334
106 2 2 1 1 298 313 203
107 2 2 1 1 223 327 257
108 2 2 1 1 245 316 260
109 2 2 1 1 278 326 275
110 2 2 1 1 303 309 253
111 2 2 1 1 300 344 325
112 2 2 1 1 343 395 166
113 2 2 1 1 83 345 170
114 2 2 1 1 356 359 294
115 2 2 1 1 273 314 310
116 2 2 1 1 309 323 253
117 2 2 1 1 331 366 329
118 2 2 1 1 177 413 78
119 2 2 1 1 243 370 301
120 2 2 1 1 315 346 203
121 2 2 1 1 325 347 237
122 2 2 1 1 260 316 313
123 2 2 1 1 225 331 329
124 2 2 1 1 221 357 217
125 2 2 1 1 174 392 311
126 2 2 1 1 325 344 198
127 2 2 1 1 252 335 268
128 2 2 1 1 218 332 215
129 2 2 1 1 81 292 176
130 2 2 1 1 253 323 224
131 2 2 1 1 190 327 223
132 2 2 1 1 293 307 153
133 2 2 1 1 343 399 162
134 2 2 1 1 242 316 245
135 2 2 1 1 225 329 328
136 2 2 1 1 292 362 176
137 2 2 1 1 292 405 362
138 2 2 1 1 289 305 304
139 2 2 1 1 233 356 294
140 2 2 1 1 324 347 325
141 2 2 1 1 177 402 181
142 2 2 1 1 182 184 183
143 2 2 1 1 203 346 202
144 2 2 1 1 224 323 192
145 2 2 1 1 361 375 277
146 2 2 1 1 321 375 208
147 2 2 1 1 189 321 208
148 2 2 1 1 80 292 81
149 2 2 1 1 165 377 350
150 2 2 1 1 153 307 93
151 2 2 1 1 324 325 198
152 2 2 1 1 350 377 351
153 2 2 1 1 197 324 198
154 2 2 1 1 238 346 315
155 2 2 1 1 169 410 392
156 2 2 1 1 174 318 317
157 2 2 1 1 339 341 340
158 2 2 1 1 222 340 229
159 2 2 1 1 231 336 214
160 2 2 1 1 340 341 229
161 2 2 1 1 313 316 315
162 2 2 1 1 230 342 266
163 2 2 1 1 166 389 343
164 2 2 1 1 270 400 312
165 2 2 1 1 154 333 276
166 2 2 1 1 57 178 58
167 2 2 1 1 194 367 321
168 2 2 1 1 312 400 310
169 2 2 1 1 219 340 222
170 2 2 1 1 59 320 167
171 2 2 1 1 183 360 168
172 2 2 1 1 329 330 328
173 2 2 1 1 187 322 185
174 2 2 1 1 191 321 189
175 2 2 1 1 288 303 254
176 2 2 1 1 159 359 356
177 2 2 1 1 201 298 203
178 2 2 1 1 59 167 60
179 2 2 1 1 237 347 211
180 2 2 1 1 184 185 183
181 2 2 1 1 200 324 197
182 2 2 1 1 41 348 169
183 2 2 1 1 45 271 161
184 2 2 1 1 229 342 230
185 2 2 1 1 43 265 165
186 2 2 1 1 353 355 247
187 2 2 1 1 182 264 184
188 2 2 1 1 76 173 77
189 2 2 1 1 341 342 229
190 2 2 1 1 280 314 278
191 2 2 1 1 37 179 36
192 2 2 1 1 204 347 324
193 2 2 1 1 154 275 274
194 2 2 1 1 184 331 186
195 2 2 1 1 341 343 342
196 2 2 1 1 327 328 257
197 2 2 1 1 266 290 267
198 2 2 1 1 220 234 209
199 2 2 1 1 260 313 262
200 2 2 1 1 211 347 207
201 2 2 1 1 62 158 63
202 2 2 1 1 201 202 200
203 2 2 1 1 154 274 49
204 2 2 1 1 202 206 204
205 2 2 1 1 50 333 154
206 2 2 1 1 206 209 207
207 2 2 1 1 220 236 234
208 2 2 1 1 64 171 65
209 2 2 1 1 360 363 160
210 2 2 1 1 193 195 194
211 2 2 1 1 236 306 234
212 2 2 1 1 206 220 209
213 2 2 1 1 202 204 200
214 2 2 1 1 230 266 250
215 2 2 1 1 193 194 191
216 2 2 1 1 201 203 202
217 2 2 1 1 192 193 191
218 2 2 1 1 74 163 75
219 2 2 1 1 212 231 214
220 2 2 1 1 216 232 219
221 2 2 1 1 39 174 38
222 2 2 1 1 197 198 195
223 2 2 1 1 206 207 204
224 2 2 1 1 209 210 207
225 2 2 1 1 67 152 68
226 2 2 1 1 232 340 219
227 2 2 1 1 222 229 227
228 2 2 1 1 199 200 197
229 2 2 1 1 160 333 51
230 2 2 1 1 196 197 195
231 2 2 1 1 282 295 283
232 2 2 1 1 69 172 70
233 2 2 1 1 189 208 187
234 2 2 1 1 264 331 184
235 2 2 1 1 42 348 41
236 2 2 1 1 281 282 280
237 2 2 1 1 46 271 45
238 2 2 1 1 254 303 253
239 2 2 1 1 196 309 199
240 2 2 1 1 190 191 189
241 2 2 1 1 367 375 321
242 2 2 1 1 52 360 160
243 2 2 1 1 71 156 72
244 2 2 1 1 282 300 295
245 2 2 1 1 208 322 187
246 2 2 1 1 44 265 43
247 2 2 1 1 168 360 53
248 2 2 1 1 199 201 200
249 2 2 1 1 157 272 271
250 2 2 1 1 165 348 42
251 2 2 1 1 41 169 40
252 2 2 1 1 287 288 254
253 2 2 1 1 266 267 250
254 2 2 1 1 282 283 280
255 2 2 1 1 210 212 211
256 2 2 1 1 273 310 272
257 2 2 1 1 252 253 224
258 2 2 1 1 279 280 278
259 2 2 1 1 295 312 283
260 2 2 1 1 229 230 227
261 2 2 1 1 238 239 236
262 2 2 1 1 157 273 272
263 2 2 1 1 43 165 42
264 2 2 1 1 161 265 44
265 2 2 1 1 279 281 280
266 2 2 1 1 212 214 213
267 2 2 1 1 45 161 44
268 2 2 1 1 157 271 46
269 2 2 1 1 208 361 322
270 2 2 1 1 193 196 195
271 2 2 1 1 190 192 191
272 2 2 1 1 188 189 187
273 2 2 1 1 47 157 46
274 2 2 1 1 277 278 275
275 2 2 1 1 194 321 191
276 2 2 1 1 337 339 232
277 2 2 1 1 50 154 49
278 2 2 1 1 186 187 185
279 2 2 1 1 214 216 215
280 2 2 1 1 49 274 48
281 2 2 1 1 196 199 197
282 2 2 1 1 184 186 185
283 2 2 1 1 204 324 200
284 2 2 1 1 91 233 92
285 2 2 1 1 154 276 275
286 2 2 1 1 216 219 217
287 2 2 1 1 210 211 207
288 2 2 1 1 277 279 278
289 2 2 1 1 207 347 204
290 2 2 1 1 212 213 211
291 2 2 1 1 214 336 216
292 2 2 1 1 220 238 236
293 2 2 1 1 88 338 89
294 2 2 1 1 219 222 221
295 2 2 1 1 51 333 50
296 2 2 1 1 252 254 253
297 2 2 1 1 94 235 95
298 2 2 1 1 287 289 288
299 2 2 1 1 283 314 280
300 2 2 1 1 205 298 201
301 2 2 1 1 188 190 189
302 2 2 1 1 162 338 88
303 2 2 1 1 244 247 243
304 2 2 1 1 276 277 275
305 2 2 1 1 214 215 213
306 2 2 1 1 240 241 239
307 2 2 1 1 222 227 226
308 2 2 1 1 186 188 187
309 2 2 1 1 230 250 249
310 2 2 1 1 260 262 261
311 2 2 1 1 262 296 263
312 2 2 1 1 89 159 90
313 2 2 1 1 52 160 51
314 2 2 1 1 267 286 285
315 2 2 1 1 245 260 259
316 2 2 1 1 242 243 241
317 2 2 1 1 269 270 228
318 2 2 1 1 216 217 215
319 2 2 1 1 223 224 192
320 2 2 1 1 53 360 52
321 2 2 1 1 249 351 227
322 2 2 1 1 87 162 88
323 2 2 1 1 54 168 53
324 2 2 1 1 89 338 159
325 2 2 1 1 219 221 217
326 2 2 1 1 95 155 96
327 2 2 1 1 92 233 153
328 2 2 1 1 95 235 155
329 2 2 1 1 339 340 232
330 2 2 1 1 85 166 86
331 2 2 1 1 196 323 309
332 2 2 1 1 251 252 224
333 2 2 1 1 92 153 93
334 2 2 1 1 222 226 221
335 2 2 1 1 96 246 97
336 2 2 1 1 199 205 201
337 2 2 1 1 186 331 225
338 2 2 1 1 268 287 254
339 2 2 1 1 230 249 227
340 2 2 1 1 97 246 164
341 2 2 1 1 233 294 256
342 2 2 1 1 97 164 98
343 2 2 1 1 83 170 84
344 2 2 1 1 213 237 211
345 2 2 1 1 190 223 192
346 2 2 1 1 217 218 215
347 2 2 1 1 227 351 226
348 2 2 1 1 238 240 239
349 2 2 1 1 267 285 250
350 2 2 1 1 186 225 188
351 2 2 1 1 226 351 255
352 2 2 1 1 223 251 224
353 2 2 1 1 226 228 221
354 2 2 1 1 99 248 175
355 2 2 1 1 233 256 153
356 2 2 1 1 262 263 261
357 2 2 1 1 255 269 228
358 2 2 1 1 318 362 317
359 2 2 1 1 252 268 254
360 2 2 1 1 256 293 153
361 2 2 1 1 362 405 179
362 2 2 1 1 226 255 228
363 2 2 1 1 223 257 251
364 2 2 1 1 79 180 80
365 2 2 1 1 81 176 82
366 2 2 1 1 260 261 259
367 2 2 1 1 99 175 100
368 2 2 1 1 336 337 232
369 2 2 1 1 257 291 251
370 2 2 1 1 348 350 349
371 2 2 1 1 286 311 285
372 2 2 1 1 256 299 293
373 2 2 1 1 199 309 205
374 2 2 1 1 240 242 241
375 2 2 1 1 242 244 243
376 2 2 1 1 238 315 240
377 2 2 1 1 248 297 175
378 2 2 1 1 348 349 169
379 2 2 1 1 98 248 99
380 2 2 1 1 245 259 258
381 2 2 1 1 261 284 259
382 2 2 1 1 155 246 96
383 2 2 1 1 242 245 244
384 2 2 1 1 180 292 80
385 2 2 1 1 245 258 244
386 2 2 1 1 216 336 232
387 2 2 1 1 192 323 193
388 2 2 1 1 202 346 206
389 2 2 1 1 297 319 175
390 2 2 1 1 220 346 238
391 2 2 1 1 164 248 98
392 2 2 1 1 334 363 322
393 2 2 1 1 319 320 178
394 2 2 1 1 344 364 198
395 2 2 1 1 160 334 333
396 2 2 1 1 93 307 94
397 2 2 1 1 206 346 220
398 2 2 1 1 195 364 194
399 2 2 1 1 193 323 196
400 2 2 1 1 241 302 239
401 2 2 1 1 350 351 249
402 2 2 1 1 225 328 327
403 2 2 1 1 167 371 60
404 2 2 1 1 317 362 179
405 2 2 1 1 314 326 278
406 2 2 1 1 188 327 190
407 2 2 1 1 91 356 233
408 2 2 1 1 345 376 170
409 2 2 1 1 159 356 90
410 2 2 1 1 294 365 256
411 2 2 1 1 282 344 300
412 2 2 1 1 251 335 252
413 2 2 1 1 240 316 242
414 2 2 1 1 183 363 360
415 2 2 1 1 164 370 248
416 2 2 1 1 244 353 247
417 2 2 1 1 228 357 221
418 2 2 1 1 94 307 235
419 2 2 1 1 239 308 236
420 2 2 1 1 248 370 297
421 2 2 1 1 78 412 177
422 2 2 1 1 82 345 83
423 2 2 1 1 364 367 194
424 2 2 1 1 37 317 179
425 2 2 1 1 273 326 314
426 2 2 1 1 358 401 101
427 2 2 1 1 326 352 274
428 2 2 1 1 284 368 259
429 2 2 1 1 58 320 59
430 2 2 1 1 90 356 91
431 2 2 1 1 198 364 195
432 2 2 1 1 256 365 299
433 2 2 1 1 174 317 38
434 2 2 1 1 56 413 177
435 2 2 1 1 351 377 255
436 2 2 1 1 225 327 188
437 2 2 1 1 258 368 354
438 2 2 1 1 281 344 282
439 2 2 1 1 258 354 353
440 2 2 1 1 315 316 240
441 2 2 1 1 101 401 3
442 2 2 1 1 158 372 63
443 2 2 1 1 60 371 61
444 2 2 1 1 333 334 276
445 2 2 1 1 3 401 57
446 2 2 1 1 152 373 68
447 2 2 1 1 291 335 251
448 2 2 1 1 55 409 181
449 2 2 1 1 172 374 70
450 2 2 1 1 281 364 344
451 2 2 1 1 177 409 56
452 2 2 1 1 243 301 241
453 2 2 1 1 257 378 291
454 2 2 1 1 270 357 228
455 2 2 1 1 185 363 183
456 2 2 1 1 258 353 244
457 2 2 1 1 322 363 185
458 2 2 1 1 63 372 64
459 2 2 1 1 392 410 311
460 2 2 1 1 68 373 69
461 2 2 1 1 70 374 71
462 2 2 1 1 287 381 289
463 2 2 1 1 179 385 36
464 2 2 1 1 301 302 241
465 2 2 1 1 330 378 328
466 2 2 1 1 236 308 306
467 2 2 1 1 264 366 331
468 2 2 1 1 366 394 369
469 2 2 1 1 343 389 342
470 2 2 1 1 176 345 82
471 2 2 1 1 175 358 100
472 2 2 1 1 271 390 161
473 2 2 1 1 362 387 176
474 2 2 1 1 266 389 290
475 2 2 1 1 259 368 258
476 2 2 1 1 167 404 355
477 2 2 1 1 264 394 366
478 2 2 1 1 64 372 171
479 2 2 1 1 284 398 372
480 2 2 1 1 341 399 343
481 2 2 1 1 69 373 172
482 2 2 1 1 279 367 281
483 2 2 1 1 71 374 156
484 2 2 1 1 281 367 364
485 2 2 1 1 355 391 167
486 2 2 1 1 267 393 286
487 2 2 1 1 279 375 367
488 2 2 1 1 305 407 66
489 2 2 1 1 318 387 362
490 2 2 1 1 39 392 174
491 2 2 1 1 276 361 277
492 2 2 1 1 169 392 40
493 2 2 1 1 157 352 273
494 2 2 1 1 38 317 37
495 2 2 1 1 170 383 84
496 2 2 1 1 166 395 86
497 2 2 1 1 87 395 162
498 2 2 1 1 85 383 166
499 2 2 1 1 62 382 158
500 2 2 1 1 73 380 74
501 2 2 1 1 322 361 334
502 2 2 1 1 277 375 279
503 2 2 1 1 377 384 255
504 2 2 1 1 178 320 58
505 2 2 1 1 366 369 163
506 2 2 1 1 181 379 182
507 2 2 1 1 156 388 72
508 2 2 1 1 73 388 380
509 2 2 1 1 77 412 78
510 2 2 1 1 67 407 152
511 2 2 1 1 56 409 55
512 2 2 1 1 265 377 165
513 2 2 1 1 285 410 349
514 2 2 1 1 74 380 163
515 2 2 1 1 61 382 62
516 2 2 1 1 328 378 257
517 2 2 1 1 286 393 376
518 2 2 1 1 265 384 377
519 2 2 1 1 182 379 264
520 2 2 1 1 289 381 305
521 2 2 1 1 354 391 353
522 2 2 1 1 311 396 174
523 2 2 1 1 366 411 329
524 2 2 1 1 329 411 330
525 2 2 1 1 320 404 167
526 2 2 1 1 334 361 276
527 2 2 1 1 345 387 376
528 2 2 1 1 371 382 61
529 2 2 1 1 161 384 265
530 2 2 1 1 371 391 354
531 2 2 1 1 354 382 371
532 2 2 1 1 380 388 330
533 2 2 1 1 349 410 169
534 2 2 1 1 255 384 269
535 2 2 1 1 319 358 175
536 2 2 1 1 181 402 379
537 2 2 1 1 319 404 320
538 2 2 1 1 385 386 35
539 2 2 1 1 171 398 304
540 2 2 1 1 167 391 371
541 2 2 1 1 268 403 287
542 2 2 1 1 4 413 56
543 2 2 1 1 178 358 319
544 2 2 1 1 179 405 385
545 2 2 1 1 152 407 381
546 2 2 1 1 342 389 266
547 2 2 1 1 335 397 268
548 2 2 1 1 272 390 271
549 2 2 1 1 72 388 73
550 2 2 1 1 36 385 35
551 2 2 1 1 372 398 171
552 2 2 1 1 374 408 291
553 2 2 1 1 78 413 4
554 2 2 1 1 174 396 318
555 2 2 1 1 272 400 390
556 2 2 1 1 290 393 267
557 2 2 1 1 376 393 170
558 2 2 1 1 330 411 380
559 2 2 1 1 163 411 366
560 2 2 1 1 353 391 355
561 2 2 1 1 286 396 311
562 2 2 1 1 339 399 341
563 2 2 1 1 180 386 385
564 2 2 1 1 369 394 173
565 2 2 1 1 84 383 85
566 2 2 1 1 310 400 272
567 2 2 1 1 57 401 178
568 2 2 1 1 273 352 326
569 2 2 1 1 173 412 77
570 2 2 1 1 337 406 339
571 2 2 1 1 86 395 87
572 2 2 1 1 66 407 67
573 2 2 1 1 40 392 39
574 2 2 1 1 176 387 345
575 2 2 1 1 311 410 285
576 2 2 1 1 180 405 292
577 2 2 1 1 339 406 399
578 2 2 1 1 381 407 305
579 2 2 1 1 373 397 172
580 2 2 1 1 397 408 172
581 2 2 1 1 291 408 335
582 2 2 1 1 152 403 373
583 2 2 1 1 335 408 397
584 2 2 1 1 172 408 374
585 2 2 1 1 379 394 264
586 2 2 1 1 385 405 180
587 2 2 1 1 394 402 173
588 2 2 1 1 373 403 397
589 2 2 1 1 380 411 163
590 2 2 1 1 379 402 394
591 2 2 1 1 397 403 268
592 2 2 1 1 178 401 358
593 2 2 1 1 177 412 402
594 2 2 1 1 402 412 173
595 2 2 2 210622 1 414 33
596 2 2 2 210622 32 414 2
597 2 2 2 210622 9 414 1
598 2 2 2 210622 2 414 9
599 2 2 2 210622 33 414 5
600 2 2 2 210622 5 414 32
601 2 2 3 210623 123 415 31
602 2 2 3 210623 11 437 103
603 2 2 3 210623 12 435 104
604 2 2 3 210623 6 436 3
605 2 2 3 210623 13 434 105
606 2 2 3 210623 105 433 13
607 2 2 3 210623 15 432 107
608 2 2 3 210623 107 431 15
609 2 2 3 210623 17 430 109
610 2 2 3 210623 18 429 110
611 2 2 3 210623 19 428 111
612 2 2 3 210623 20 427 112
613 2 2 3 210623 21 426 113
614 2 2 3 210623 22 425 114
615 2 2 3 210623 23 424 115
616 2 2 3 210623 115 423 23
617 2 2 3 210623 25 422 117
618 2 2 3 210623 26 421 118
619 2 2 3 210623 27 420 119
620 2 2 3 210623 28 419 120
621 2 2 3 210623 120 418 28
622 2 2 3 210623 121 417 29
623 2 2 3 210623 122 416 30
624 2 2 3 210623 31 416 123
625 2 2 3 210623 30 417 122
626 2 2 3 210623 29 418 121
627 2 2 3 210623 119 419 27
628 2 2 3 210623 118 420 26
629 2 2 3 210623 117 421 25
630 2 2 3 210623 116 422 24
631 2 2 3 210623 24 423 116
632 2 2 3 210623 114 424 22
633 2 2 3 210623 113 425 21
634 2 2 3 210623 112 426 20
635 2 2 3 210623 111 427 19
636 2 2 3 210623 110 428 18
637 2 2 3 210623 109 429 17
638 2 2 3 210623 108 430 16
639 2 2 3 210623 16 431 108
640 2 2 3 210623 106 432 14
641 2 2 3 210623 14 433 106
642 2 2 3 210623 104 434 12
643 2 2 3 210623 103 435 11
644 2 2 3 210623 102 437 10
645 2 2 3 210623 10 436 102
646 2 2 3 210623 4 415 7
647 2 2 3 210623 3 436 10
648 2 2 3 210623 31 415 4
649 2 2 3 210623 102 436 6
650 2 2 3 210623 7 415 123
651 2 2 3 210623 10 437 11
652 2 2 3 210623 11 435 12
653 2 2 3 210623 12 434 13
654 2 2 3 210623 13 433 14
655 2 2 3 210623 14 432 15
656 2 2 3 210623 15 431 16
657 2 2 3 210623 16 430 17
658 2 2 3 210623 17 429 18
659 2 2 3 210623 18 428 19
660 2 2 3 210623 19 427 20
661 2 2 3 210623 20 426 21
662 2 2 3 210623 21 425 22
663 2 2 3 210623 22 424 23
664 2 2 3 210623 23 423 24
665 2 2 3 210623 24 422 25
666 2 2 3 210623 25 421 26
667 2 2 3 210623 26 420 27
668 2 2 3 210623 27 419 28
669 2 2 3 210623 28 418 29
670 2 2 3 210623 29 417 30
671 2 2 3 210623 30 416 31
672 2 2 3 210623 103 437 102
673 2 2 3 210623 104 435 103
674 2 2 3 210623 105 434 104
675 2 2 3 210623 106 433 105
676 2 2 3 210623 107 432 106
677 2 2 3 210623 108 431 107
678 2 2 3 210623 109 430 108
679 2 2 3 210623 110 429 109
680 2 2 3 210623 111 428 110
681 2 2 3 210623 112 427 111
682 2 2 3 210623 113 426 112
683 2 2 3 210623 114 425 113
684 2 2 3 210623 115 424 114
685 2 2 3 210623 116 423 115
686 2 2 3 210623 117 422 116
687 2 2 3 210623 118 421 117
688 2 2 3 210623 119 420 118
689 2 2 3 210623 120 419 119
690 2 2 3 210623 121 418 120
691 2 2 3 210623 122 417 121
692 2 2 3 210623 123 416 122
693 2 2 4 210644 523 589 443
694 2 2 4 210644 439 541 143
695 2 2 4 210644 443 609 523
696 2 2 4 210644 454 586 555
697 2 2 4 210644 449 566 522
698 2 2 4 210644 555 587 454
699 2 2 4 210644 588 592 525
700 2 2 4 210644 522 607 449
701 2 2 4 210644 452 592 588
702 2 2 4 210644 118 527 117
703 2 2 4 210644 143 541 142
704 2 2 4 210644 439 603 541
705 2 2 4 210644 442 526 525
706 2 2 4 210644 525 592 442
707 2 2 4 210644 117 527 442
708 2 2 4 210644 458 581 459
709 2 2 4 210644 453 604 601
710 2 2 4 210644 596 598 597
711 2 2 4 210644 438 600 563
712 2 2 4 210644 563 612 438
713 2 2 4 210644 538 539 448
714 2 2 4 210644 537 538 448
715 2 2 4 210644 550 594 593
716 2 2 4 210644 452 588 563
717 2 2 4 210644 454 602 586
718 2 2 4 210644 593 611 550
719 2 2 4 210644 461 540 497
720 2 2 4 210644 459 581 540
721 2 2 4 210644 524 589 523
722 2 2 4 210644 139 582 138
723 2 2 4 210644 459 540 461
724 2 2 4 210644 527 598 596
725 2 2 4 210644 442 527 526
726 2 2 4 210644 563 600 452
727 2 2 4 210644 521 609 558
728 2 2 4 210644 497 540 538
729 2 2 4 210644 590 599 453
730 2 2 4 210644 590 606 599
731 2 2 4 210644 441 578 573
732 2 2 4 210644 455 581 458
733 2 2 4 210644 581 582 539
734 2 2 4 210644 599 604 453
735 2 2 4 210644 118 598 527
736 2 2 4 210644 497 538 536
737 2 2 4 210644 538 540 539
738 2 2 4 210644 558 607 521
739 2 2 4 210644 612 619 591
740 2 2 4 210644 438 612 591
741 2 2 4 210644 463 547 465
742 2 2 4 210644 483 534 533
743 2 2 4 210644 536 547 497
744 2 2 4 210644 528 567 499
745 2 2 4 210644 497 547 463
746 2 2 4 210644 533 546 483
747 2 2 4 210644 586 602 457
748 2 2 4 210644 467 546 469
749 2 2 4 210644 523 529 496
750 2 2 4 210644 483 547 534
751 2 2 4 210644 465 547 483
752 2 2 4 210644 502 567 528
753 2 2 4 210644 529 530 496
754 2 2 4 210644 543 575 503
755 2 2 4 210644 483 546 467
756 2 2 4 210644 484 530 485
757 2 2 4 210644 469 546 473
758 2 2 4 210644 496 530 484
759 2 2 4 210644 485 530 493
760 2 2 4 210644 511 521 519
761 2 2 4 210644 471 544 468
762 2 2 4 210644 542 543 503
763 2 2 4 210644 500 531 524
764 2 2 4 210644 488 545 542
765 2 2 4 210644 493 511 510
766 2 2 4 210644 104 453 103
767 2 2 4 210644 468 544 466
768 2 2 4 210644 534 547 536
769 2 2 4 210644 511 519 510
770 2 2 4 210644 122 454 121
771 2 2 4 210644 487 542 503
772 2 2 4 210644 512 545 490
773 2 2 4 210644 500 524 523
774 2 2 4 210644 495 500 496
775 2 2 4 210644 473 551 478
776 2 2 4 210644 478 495 484
777 2 2 4 210644 500 523 496
778 2 2 4 210644 501 531 500
779 2 2 4 210644 511 529 521
780 2 2 4 210644 495 496 484
781 2 2 4 210644 490 545 488
782 2 2 4 210644 499 567 544
783 2 2 4 210644 106 446 105
784 2 2 4 210644 487 499 480
785 2 2 4 210644 487 503 499
786 2 2 4 210644 494 512 490
787 2 2 4 210644 493 530 511
788 2 2 4 210644 120 447 119
789 2 2 4 210644 503 528 499
790 2 2 4 210644 495 501 500
791 2 2 4 210644 488 542 487
792 2 2 4 210644 481 487 480
793 2 2 4 210644 501 532 531
794 2 2 4 210644 534 535 532
795 2 2 4 210644 536 537 535
796 2 2 4 210644 109 441 108
797 2 2 4 210644 537 541 535
798 2 2 4 210644 480 544 471
799 2 2 4 210644 534 536 535
800 2 2 4 210644 117 442 116
801 2 2 4 210644 511 530 529
802 2 2 4 210644 546 551 473
803 2 2 4 210644 113 438 112
804 2 2 4 210644 111 451 110
805 2 2 4 210644 536 538 537
806 2 2 4 210644 115 452 114
807 2 2 4 210644 478 484 479
808 2 2 4 210644 481 488 487
809 2 2 4 210644 476 480 471
810 2 2 4 210644 499 544 480
811 2 2 4 210644 493 510 509
812 2 2 4 210644 473 478 474
813 2 2 4 210644 458 459 445
814 2 2 4 210644 519 522 520
815 2 2 4 210644 135 458 445
816 2 2 4 210644 137 455 136
817 2 2 4 210644 476 481 480
818 2 2 4 210644 533 534 532
819 2 2 4 210644 533 551 546
820 2 2 4 210644 455 458 136
821 2 2 4 210644 495 551 501
822 2 2 4 210644 501 551 533
823 2 2 4 210644 134 548 133
824 2 2 4 210644 485 493 492
825 2 2 4 210644 445 548 134
826 2 2 4 210644 494 513 512
827 2 2 4 210644 558 609 443
828 2 2 4 210644 465 483 467
829 2 2 4 210644 135 445 134
830 2 2 4 210644 136 458 135
831 2 2 4 210644 461 497 463
832 2 2 4 210644 469 473 472
833 2 2 4 210644 478 551 495
834 2 2 4 210644 459 460 445
835 2 2 4 210644 460 548 445
836 2 2 4 210644 501 533 532
837 2 2 4 210644 459 461 460
838 2 2 4 210644 548 552 133
839 2 2 4 210644 141 448 140
840 2 2 4 210644 133 552 132
841 2 2 4 210644 478 479 474
842 2 2 4 210644 489 490 488
843 2 2 4 210644 475 476 471
844 2 2 4 210644 570 575 543
845 2 2 4 210644 473 474 472
846 2 2 4 210644 470 471 468
847 2 2 4 210644 564 569 477
848 2 2 4 210644 484 485 479
849 2 2 4 210644 132 440 131
850 2 2 4 210644 461 462 460
851 2 2 4 210644 461 463 462
852 2 2 4 210644 507 553 482
853 2 2 4 210644 144 439 143
854 2 2 4 210644 464 502 462
855 2 2 4 210644 508 569 564
856 2 2 4 210644 548 556 552
857 2 2 4 210644 514 515 507
858 2 2 4 210644 505 507 482
859 2 2 4 210644 517 518 508
860 2 2 4 210644 493 509 492
861 2 2 4 210644 481 489 488
862 2 2 4 210644 519 520 510
863 2 2 4 210644 463 465 464
864 2 2 4 210644 498 508 486
865 2 2 4 210644 129 444 128
866 2 2 4 210644 525 526 515
867 2 2 4 210644 554 555 513
868 2 2 4 210644 460 556 548
869 2 2 4 210644 132 552 440
870 2 2 4 210644 147 443 146
871 2 2 4 210644 515 568 507
872 2 2 4 210644 491 494 490
873 2 2 4 210644 476 553 481
874 2 2 4 210644 465 467 466
875 2 2 4 210644 470 475 471
876 2 2 4 210644 128 557 127
877 2 2 4 210644 463 464 462
878 2 2 4 210644 475 482 476
879 2 2 4 210644 494 554 513
880 2 2 4 210644 467 469 468
881 2 2 4 210644 475 504 482
882 2 2 4 210644 465 466 464
883 2 2 4 210644 469 472 470
884 2 2 4 210644 504 506 505
885 2 2 4 210644 505 514 507
886 2 2 4 210644 148 558 147
887 2 2 4 210644 474 477 472
888 2 2 4 210644 502 556 462
889 2 2 4 210644 498 517 508
890 2 2 4 210644 514 525 515
891 2 2 4 210644 127 450 126
892 2 2 4 210644 504 505 482
893 2 2 4 210644 526 574 515
894 2 2 4 210644 467 468 466
895 2 2 4 210644 462 556 460
896 2 2 4 210644 469 470 468
897 2 2 4 210644 482 553 476
898 2 2 4 210644 510 549 509
899 2 2 4 210644 481 553 489
900 2 2 4 210644 485 492 486
901 2 2 4 210644 149 449 148
902 2 2 4 210644 489 491 490
903 2 2 4 210644 544 567 466
904 2 2 4 210644 562 563 561
905 2 2 4 210644 485 486 479
906 2 2 4 210644 528 571 502
907 2 2 4 210644 492 498 486
908 2 2 4 210644 126 565 125
909 2 2 4 210644 506 562 561
910 2 2 4 210644 464 567 502
911 2 2 4 210644 491 516 494
912 2 2 4 210644 508 564 486
913 2 2 4 210644 571 575 440
914 2 2 4 210644 549 550 509
915 2 2 4 210644 444 557 128
916 2 2 4 210644 513 583 512
917 2 2 4 210644 150 566 149
918 2 2 4 210644 479 564 474
919 2 2 4 210644 477 559 472
920 2 2 4 210644 472 559 470
921 2 2 4 210644 516 554 494
922 2 2 4 210644 475 559 504
923 2 2 4 210644 470 559 475
924 2 2 4 210644 512 580 545
925 2 2 4 210644 125 457 124
926 2 2 4 210644 506 561 505
927 2 2 4 210644 147 558 443
928 2 2 4 210644 466 567 464
929 2 2 4 210644 474 564 477
930 2 2 4 210644 440 570 131
931 2 2 4 210644 509 560 492
932 2 2 4 210644 552 571 440
933 2 2 4 210644 505 561 514
934 2 2 4 210644 492 560 498
935 2 2 4 210644 486 564 479
936 2 2 4 210644 127 557 450
937 2 2 4 210644 550 560 509
938 2 2 4 210644 151 456 150
939 2 2 4 210644 520 549 510
940 2 2 4 210644 518 569 508
941 2 2 4 210644 449 558 148
942 2 2 4 210644 131 570 130
943 2 2 4 210644 555 585 513
944 2 2 4 210644 504 572 506
945 2 2 4 210644 450 565 126
946 2 2 4 210644 556 571 552
947 2 2 4 210644 503 575 528
948 2 2 4 210644 507 568 553
949 2 2 4 210644 553 568 489
950 2 2 4 210644 149 566 449
951 2 2 4 210644 515 574 568
952 2 2 4 210644 489 568 491
953 2 2 4 210644 502 571 556
954 2 2 4 210644 528 575 571
955 2 2 4 210644 125 565 457
956 2 2 4 210644 560 573 498
957 2 2 4 210644 545 579 542
958 2 2 4 210644 456 566 150
959 2 2 4 210644 572 576 506
960 2 2 4 210644 577 579 444
961 2 2 4 210644 498 573 517
962 2 2 4 210644 477 572 559
963 2 2 4 210644 568 574 491
964 2 2 4 210644 512 583 580
965 2 2 4 210644 129 577 444
966 2 2 4 210644 506 576 562
967 2 2 4 210644 569 572 477
968 2 2 4 210644 559 572 504
969 2 2 4 210644 491 574 516
970 2 2 4 210644 513 585 583
971 2 2 4 210644 570 577 130
972 2 2 4 210644 440 575 570
973 2 2 4 210644 569 576 572
974 2 2 4 210644 543 577 570
975 2 2 4 210644 555 586 585
976 2 2 4 210644 130 577 129
977 2 2 4 210644 543 579 577
978 2 2 4 210644 518 576 569
979 2 2 4 210644 545 580 579
980 2 2 4 210644 542 579 543
981 2 2 4 210644 573 578 517
982 2 2 4 210644 514 588 525
983 2 2 4 210644 540 581 539
984 2 2 4 210644 563 588 561
985 2 2 4 210644 444 580 557
986 2 2 4 210644 566 604 522
987 2 2 4 210644 579 580 444
988 2 2 4 210644 146 589 145
989 2 2 4 210644 580 583 557
990 2 2 4 210644 557 583 450
991 2 2 4 210644 582 613 138
992 2 2 4 210644 576 584 562
993 2 2 4 210644 583 585 450
994 2 2 4 210644 527 596 526
995 2 2 4 210644 589 605 145
996 2 2 4 210644 450 585 565
997 2 2 4 210644 603 620 531
998 2 2 4 210644 555 618 587
999 2 2 4 210644 554 618 555
1000 2 2 4 210644 518 584 576
1001 2 2 4 210644 441 614 578
1002 2 2 4 210644 449 607 558
1003 2 2 4 210644 455 582 581
1004 2 2 4 210644 585 586 565
1005 2 2 4 210644 516 597 554
1006 2 2 4 210644 561 588 514
1007 2 2 4 210644 526 596 574
1008 2 2 4 210644 565 586 457
1009 2 2 4 210644 578 595 517
1010 2 2 4 210644 451 595 578
1011 2 2 4 210644 518 595 584
1012 2 2 4 210644 597 598 447
1013 2 2 4 210644 448 608 537
1014 2 2 4 210644 532 603 531
1015 2 2 4 210644 541 603 535
1016 2 2 4 210644 601 604 456
1017 2 2 4 210644 443 589 146
1018 2 2 4 210644 539 610 448
1019 2 2 4 210644 104 590 453
1020 2 2 4 210644 446 590 105
1021 2 2 4 210644 441 593 108
1022 2 2 4 210644 105 590 104
1023 2 2 4 210644 523 609 529
1024 2 2 4 210644 442 592 116
1025 2 2 4 210644 438 591 112
1026 2 2 4 210644 111 591 451
1027 2 2 4 210644 115 592 452
1028 2 2 4 210644 582 610 539
1029 2 2 4 210644 108 593 107
1030 2 2 4 210644 112 591 111
1031 2 2 4 210644 116 592 115
1032 2 2 4 210644 524 605 589
1033 2 2 4 210644 107 594 106
1034 2 2 4 210644 106 594 446
1035 2 2 4 210644 144 605 439
1036 2 2 4 210644 519 607 522
1037 2 2 4 210644 119 598 118
1038 2 2 4 210644 517 595 518
1039 2 2 4 210644 439 620 603
1040 2 2 4 210644 8 613 137
1041 2 2 4 210644 448 610 140
1042 2 2 4 210644 138 613 8
1043 2 2 4 210644 574 596 516
1044 2 2 4 210644 562 612 563
1045 2 2 4 210644 447 598 119
1046 2 2 4 210644 550 611 560
1047 2 2 4 210644 113 600 438
1048 2 2 4 210644 452 600 114
1049 2 2 4 210644 103 601 102
1050 2 2 4 210644 7 615 123
1051 2 2 4 210644 123 602 122
1052 2 2 4 210644 102 616 6
1053 2 2 4 210644 124 615 7
1054 2 2 4 210644 6 616 151
1055 2 2 4 210644 593 594 107
1056 2 2 4 210644 141 608 448
1057 2 2 4 210644 587 617 454
1058 2 2 4 210644 447 617 587
1059 2 2 4 210644 522 599 520
1060 2 2 4 210644 109 614 441
1061 2 2 4 210644 454 617 121
1062 2 2 4 210644 120 617 447
1063 2 2 4 210644 451 614 110
1064 2 2 4 210644 114 600 113
1065 2 2 4 210644 596 597 516
1066 2 2 4 210644 453 601 103
1067 2 2 4 210644 122 602 454
1068 2 2 4 210644 578 614 451
1069 2 2 4 210644 535 603 532
1070 2 2 4 210644 456 604 566
1071 2 2 4 210644 599 606 520
1072 2 2 4 210644 573 611 441
1073 2 2 4 210644 145 605 144
1074 2 2 4 210644 446 606 590
1075 2 2 4 210644 455 613 582
1076 2 2 4 210644 446 621 606
1077 2 2 4 210644 541 608 142
1078 2 2 4 210644 142 608 141
1079 2 2 4 210644 520 606 549
1080 2 2 4 210644 139 610 582
1081 2 2 4 210644 521 607 519
1082 2 2 4 210644 441 611 593
1083 2 2 4 210644 537 608 541
1084 2 2 4 210644 529 609 521
1085 2 2 4 210644 587 618 447
1086 2 2 4 210644 140 610 139
1087 2 2 4 210644 606 621 549
1088 2 2 4 210644 560 611 573
1089 2 2 4 210644 591 619 451
1090 2 2 4 210644 137 613 455
1091 2 2 4 210644 451 619 595
1092 2 2 4 210644 605 620 439
1093 2 2 4 210644 522 604 599
1094 2 2 4 210644 110 614 109
1095 2 2 4 210644 584 619 612
1096 2 2 4 210644 531 620 524
1097 2 2 4 210644 457 615 124
1098 2 2 4 210644 151 616 456
1099 2 2 4 210644 584 612 562
1100 2 2 4 210644 121 617 120
1101 2 2 4 210644 597 618 554
1102 2 2 4 210644 595 619 584
1103 2 2 4 210644 549 621 550
1104 2 2 4 210644 601 616 102
1105 2 2 4 210644 123 615 602
1106 2 2 4 210644 447 618 597
1107 2 2 4 210644 550 621 594
1108 2 2 4 210644 594 621 446
1109 2 2 4 210644 456 616 601
1110 2 2 4 210644 602 615 457
1111 2 2 4 210644 524 620 605
$EndElements
