$MeshFormat
2.2 0 8
$EndMeshFormat
$Nodes
164
1 -10.606602 -10.606602 -100
2 -7.5 -12.990381 -100
3 -3.882286 -14.488887 -100
4 -0 -15 -100
5 3.882286 -14.488887 -100
6 7.5 -12.990381 -100
7 10.606602 -10.606602 -100
8 12.990381 -7.5 -100
9 14.488887 -3.882286 -100
10 15 0 -100
11 14.488887 3.882286 -100
12 12.990381 7.5 -100
13 10.606602 10.606602 -100
14 7.5 12.990381 -100
15 3.882286 14.488887 -100
16 0 15 -100
17 -3.882286 14.488887 -100
18 -7.5 12.990381 -100
19 -10.606602 10.606602 -100
20 -12.990381 7.5 -100
21 -14.488887 3.882286 -100
22 -15 0 -100
23 -14.488887 -3.882286 -100
24 -12.990381 -7.5 -100
25 -24.748737 -24.748737 -50
26 -17.5 -30.310889 -50
27 -9.058667 -33.807404 -50
28 -0 -35 -50
29 9.058667 -33.807404 -50
30 17.5 -30.310889 -50
31 24.748737 -24.748737 -50
32 30.310889 -17.5 -50
33 33.807404 -9.058667 -50
34 35 0 -50
35 33.807404 9.058667 -50
36 30.310889 17.5 -50
37 24.748737 24.748737 -50
38 17.5 30.310889 -50
39 9.058667 33.807404 -50
40 0 35 -50
41 -9.058667 33.807404 -50
42 -17.5 30.310889 -50
43 -24.748737 24.748737 -50
44 -30.310889 17.5 -50
45 -33.807404 9.058667 -50
46 -35 0 -50
47 -33.807404 -9.058667 -50
48 -30.310889 -17.5 -50
49 -42.426407 -42.426407 0
50 -30 -51.961524 0
51 -15.529143 -57.95555 0
52 -0 -60 0
53 15.529143 -57.95555 0
54 30 -51.961524 0
55 42.426407 -42.426407 0
56 51.961524 -30 0
57 57.95555 -15.529143 0
58 60 0 0
59 57.95555 15.529143 0
60 51.961524 30 0
61 42.426407 42.426407 0
62 30 51.961524 0
63 15.529143 57.95555 0
64 0 60 0
65 -15.529143 57.95555 0
66 -30 51.961524 0
67 -42.426407 42.426407 0
68 -51.961524 30 0
69 -57.95555 15.529143 0
70 -60 0 0
71 -57.95555 -15.529143 0
72 -51.961524 -30 0
73 -7.414814666666668 -12.8428355 -100
74 -17.301234 -29.96661616666667 -50
75 14.829629 2.220446049250313e-16 -100
76 59.31851666666667 8.881784197001252e-16 0
77 -1.332267629550188e-15 59.31851666666667 0
78 -3.33066907387547e-16 14.829629 -100
79 14.829629 2.220446049250313e-16 -100
80 0 0 -100
81 -3.33066907387547e-16 14.829629 -100
82 59.31851666666667 4.440892098500626e-16 0
83 -4.440892098500626e-16 59.31851666666667 0
84 -4.440892098500626e-16 59.31851666666667 20
85 59.31851666666667 4.440892098500626e-16 20
86 59.31851666666667 4.440892098500626e-16 20
87 0 0 20
88 -4.440892098500626e-16 59.31851666666667 20
89 9.922911125139825 -11.02050382771384 -100
90 13.54738402466981 6.031686325475585 -100
91 -1.550098356891184 14.7482218348086 -100
92 -14.50549137908321 3.083241240589237 -100
93 1.646435834057332 -34.56312361302787 -50
94 20.07118119322107 -28.18604155691679 -50
95 32.12342941967039 -12.86027871380106 -50
96 33.9768889218317 6.54851732266257 -50
97 25.04294628216692 23.87840787827569 -50
98 8.157835024254965 33.62703198615393 -50
99 -11.31726179570125 32.69910771415078 -50
100 -27.19904239518555 21.38956650805726 -50
101 -34.44541886858031 3.289132339828526 -50
102 -30.75576107757335 -15.85570622834705 -50
103 21.09006211041376 0 -82.84485042330962
104 27.81797098649741 0 -65.86759474641522
105 35.01013024084312 0 -49.08174670153954
106 42.66187477405916 0 -32.50035256680439
107 50.76713862066393 0 -16.13586063302952
108 56.41497950804097 18.33032246745071 0
109 47.98914273011901 34.86614249554767 0
110 34.86614249554764 47.98914273011903 0
111 18.33032246745073 56.41497950804097 0
112 0 21.09006211041375 -82.84485042330965
113 0 27.81797098649739 -65.86759474641522
114 0 35.0101302408431 -49.08174670153955
115 0 42.66187477405915 -32.50035256680442
116 0 50.76713862066389 -16.13586063302955
117 10.4861315 10.4861315 -100
118 10.4861315 10.4861315 -100
119 56.41497950804099 18.33032246745069 0
120 47.98914273011901 34.86614249554765 0
121 34.86614249554765 47.98914273011902 0
122 18.33032246745071 56.41497950804097 0
123 0 59.31851666666667 10.00000000000001
124 56.41497950804099 18.33032246745069 20
125 47.98914273011901 34.86614249554765 20
126 34.86614249554765 47.98914273011902 20
127 18.33032246745071 56.41497950804097 20
128 59.31851666666667 0 10.00000000000001
129 39.5456777778582 0 20
130 19.77283888882979 0 20
131 0 19.77283888869735 20
132 0 39.54567777778885 20
133 56.41497950804099 18.33032246745069 20
134 47.98914273011901 34.86614249554765 20
135 34.86614249554765 47.98914273011902 20
136 18.33032246745071 56.41497950804097 20
137 35.01345435902461 38.03287408362984 -14.33064830237358
138 12.87364575148621 36.14325223297944 -41.65718657831812
139 27.26884537991286 15.8074782834033 -57.06976070068261
140 44.85834561440484 13.79178100775159 -23.74067148948941
141 13.76812089203645 22.00797793801724 -70.42232625914346
142 17.75979153286839 47.8703227878438 -15.56686800597743
143 36.11174035321859 15.01428753170749 -40.05019011831324
144 35.97499067565022 27.43780808022542 -27.16151859935336
145 14.89042601257255 28.78102200751027 -55.01584312695268
146 12.74711070325913 16.27259971658771 -83.94871155769739
147 25.83157715675197 27.30468537945929 -43.36113066761769
148 16.0435662757405 8.22869540669166 -91.04633912164124
149 46.33394299135617 24.86147019969898 -12.6193350001081
150 8.15244441682327 15.75223623975174 -91.85194165065489
151 22.46321240283279 38.33546070024946 -28.8283214277099
152 21.53340209400251 10.44912382843175 -75.4992036329551
153 51.6462866982788 12.61124044269159 -11.50452610657416
154 52.85292845728569 26.92988231479945 9.97328331574556
155 58.10903429957323 11.91567780202248 10
156 26.92988231479945 52.85292845728569 9.973283315745563
157 11.91567780205175 58.10903429956724 10
158 41.94452533333333 41.94452533333333 9.979124922189026
159 30.06279103582536 30.06279103582538 19.99999999999999
160 39.60351416125189 19.72062037011059 20
161 19.34723771898637 39.91247231163018 19.99999999999999
162 24.78536468085681 14.83496768643949 19.99999999999999
163 13.96256125390014 25.73734104159739 20
164 10.74549325465954 10.7454941173656 20
$EndNodes
$Elements
248
1 15 2 0 1 1
2 15 2 0 2 2
3 15 2 0 3 3
4 15 2 0 4 4
5 15 2 0 5 5
6 15 2 0 6 6
7 15 2 0 7 7
8 15 2 0 8 8
9 15 2 0 9 9
10 15 2 0 10 10
11 15 2 0 11 11
12 15 2 0 12 12
13 15 2 0 13 13
14 15 2 0 14 14
15 15 2 0 15 15
16 15 2 0 16 16
17 15 2 0 17 17
18 15 2 0 18 18
19 15 2 0 19 19
20 15 2 0 20 20
21 15 2 0 21 21
22 15 2 0 22 22
23 15 2 0 23 23
24 15 2 0 24 24
25 15 2 0 25 25
26 15 2 0 26 26
27 15 2 0 27 27
28 15 2 0 28 28
29 15 2 0 29 29
30 15 2 0 30 30
31 15 2 0 31 31
32 15 2 0 32 32
33 15 2 0 33 33
34 15 2 0 34 34
35 15 2 0 35 35
36 15 2 0 36 36
37 15 2 0 37 37
38 15 2 0 38 38
39 15 2 0 39 39
40 15 2 0 40 40
41 15 2 0 41 41
42 15 2 0 42 42
43 15 2 0 43 43
44 15 2 0 44 44
45 15 2 0 45 45
46 15 2 0 46 46
47 15 2 0 47 47
48 15 2 0 48 48
49 15 2 0 49 49
50 15 2 0 50 50
51 15 2 0 51 51
52 15 2 0 52 52
53 15 2 0 53 53
54 15 2 0 54 54
55 15 2 0 55 55
56 15 2 0 56 56
57 15 2 0 57 57
58 15 2 0 58 58
59 15 2 0 59 59
60 15 2 0 60 60
61 15 2 0 61 61
62 15 2 0 62 62
63 15 2 0 63 63
64 15 2 0 64 64
65 15 2 0 65 65
66 15 2 0 66 66
67 15 2 0 67 67
68 15 2 0 68 68
69 15 2 0 69 69
70 15 2 0 70 70
71 15 2 0 71 71
72 15 2 0 72 72
73 15 2 0 73 73
74 15 2 0 74 74
75 15 2 0 85 75
76 15 2 0 86 76
77 15 2 0 87 77
78 15 2 0 88 78
79 15 2 0 89 79
80 15 2 0 90 80
81 15 2 0 91 81
82 15 2 0 92 82
83 15 2 0 93 83
84 15 2 0 94 84
85 15 2 0 95 85
86 15 2 0 96 86
87 15 2 0 97 87
88 15 2 0 98 88
89 1 2 0 10073 73 89
90 1 2 0 10073 89 90
91 1 2 0 10073 90 91
92 1 2 0 10073 91 92
93 1 2 0 10073 92 73
94 1 2 0 10074 74 93
95 1 2 0 10074 93 94
96 1 2 0 10074 94 95
97 1 2 0 10074 95 96
98 1 2 0 10074 96 97
99 1 2 0 10074 97 98
100 1 2 0 10074 98 99
101 1 2 0 10074 99 100
102 1 2 0 10074 100 101
103 1 2 0 10074 101 102
104 1 2 0 10074 102 74
105 1 2 0 10093 75 103
106 1 2 0 10093 103 104
107 1 2 0 10093 104 105
108 1 2 0 10093 105 106
109 1 2 0 10093 106 107
110 1 2 0 10093 107 76
111 1 2 0 10094 76 108
112 1 2 0 10094 108 109
113 1 2 0 10094 109 110
114 1 2 0 10094 110 111
115 1 2 0 10094 111 77
116 1 2 0 10095 78 112
117 1 2 0 10095 112 113
118 1 2 0 10095 113 114
119 1 2 0 10095 114 115
120 1 2 0 10095 115 116
121 1 2 0 10095 116 77
122 1 2 0 10096 75 117
123 1 2 0 10096 117 78
124 1 2 0 10097 79 80
125 1 2 0 10098 80 81
126 1 2 0 10099 79 118
127 1 2 0 10099 118 81
128 1 2 0 10100 82 119
129 1 2 0 10100 119 120
130 1 2 0 10100 120 121
131 1 2 0 10100 121 122
132 1 2 0 10100 122 83
133 1 2 0 10101 84 123
134 1 2 0 10101 123 83
135 1 2 0 10102 85 124
136 1 2 0 10102 124 125
137 1 2 0 10102 125 126
138 1 2 0 10102 126 127
139 1 2 0 10102 127 84
140 1 2 0 10103 85 128
141 1 2 0 10103 128 82
142 1 2 0 10104 86 129
143 1 2 0 10104 129 130
144 1 2 0 10104 130 87
145 1 2 0 10105 87 131
146 1 2 0 10105 131 132
147 1 2 0 10105 132 88
148 1 2 0 10106 86 133
149 1 2 0 10106 133 134
150 1 2 0 10106 134 135
151 1 2 0 10106 135 136
152 1 2 0 10106 136 88
153 2 2 0 1 111 142 116
154 2 2 0 1 116 142 115
155 2 2 0 1 142 151 115
156 2 2 0 1 116 77 111
157 2 2 0 1 112 150 78
158 2 2 0 1 75 148 103
159 2 2 0 1 110 142 111
160 2 2 0 1 137 142 110
161 2 2 0 1 144 149 140
162 2 2 0 1 137 149 144
163 2 2 0 1 115 151 138
164 2 2 0 1 139 152 141
165 2 2 0 1 141 145 139
166 2 2 0 1 146 152 148
167 2 2 0 1 143 144 140
168 2 2 0 1 104 152 139
169 2 2 0 1 106 143 140
170 2 2 0 1 113 145 141
171 2 2 0 1 113 141 112
172 2 2 0 1 109 137 110
173 2 2 0 1 137 151 142
174 2 2 0 1 104 139 105
175 2 2 0 1 115 138 114
176 2 2 0 1 106 140 107
177 2 2 0 1 138 145 114
178 2 2 0 1 148 152 103
179 2 2 0 1 114 145 113
180 2 2 0 1 141 146 112
181 2 2 0 1 147 151 144
182 2 2 0 1 105 143 106
183 2 2 0 1 138 151 147
184 2 2 0 1 144 151 137
185 2 2 0 1 143 147 144
186 2 2 0 1 76 153 108
187 2 2 0 1 139 143 105
188 2 2 0 1 107 153 76
189 2 2 0 1 109 149 137
190 2 2 0 1 117 150 148
191 2 2 0 1 108 149 109
192 2 2 0 1 138 147 145
193 2 2 0 1 145 147 139
194 2 2 0 1 146 150 112
195 2 2 0 1 103 152 104
196 2 2 0 1 148 150 146
197 2 2 0 1 139 147 143
198 2 2 0 1 117 148 75
199 2 2 0 1 140 153 107
200 2 2 0 1 141 152 146
201 2 2 0 1 78 150 117
202 2 2 0 1 108 153 149
203 2 2 0 1 149 153 140
204 2 2 0 2 80 118 79
205 2 2 0 2 80 81 118
206 2 2 0 4 123 157 84
207 2 2 0 4 83 157 123
208 2 2 0 4 85 155 128
209 2 2 0 4 128 155 82
210 2 2 0 4 124 155 85
211 2 2 0 4 82 155 119
212 2 2 0 4 84 157 127
213 2 2 0 4 122 157 83
214 2 2 0 4 125 154 124
215 2 2 0 4 127 156 126
216 2 2 0 4 120 158 121
217 2 2 0 4 121 158 156
218 2 2 0 4 154 158 120
219 2 2 0 4 156 158 126
220 2 2 0 4 125 158 154
221 2 2 0 4 119 154 120
222 2 2 0 4 121 156 122
223 2 2 0 4 126 158 125
224 2 2 0 4 154 155 124
225 2 2 0 4 127 157 156
226 2 2 0 4 119 155 154
227 2 2 0 4 156 157 122
228 2 2 0 210102 136 88 132
229 2 2 0 210102 129 86 133
230 2 2 0 210102 132 161 136
231 2 2 0 210102 133 160 129
232 2 2 0 210102 129 162 130
233 2 2 0 210102 135 159 134
234 2 2 0 210102 134 160 133
235 2 2 0 210102 136 161 135
236 2 2 0 210102 135 161 159
237 2 2 0 210102 159 160 134
238 2 2 0 210102 160 162 129
239 2 2 0 210102 131 163 132
240 2 2 0 210102 132 163 161
241 2 2 0 210102 130 164 87
242 2 2 0 210102 87 164 131
243 2 2 0 210102 161 163 159
244 2 2 0 210102 159 162 160
245 2 2 0 210102 159 163 162
246 2 2 0 210102 162 164 130
247 2 2 0 210102 163 164 162
248 2 2 0 210102 131 164 163
$EndElements
