$MeshFormat
2.2 0 8
$EndMeshFormat
$Nodes
292
1 15 0 -100
2 14.488887 3.882286 -100
3 12.990381 7.5 -100
4 10.606602 10.606602 -100
5 7.5 12.990381 -100
6 3.882286 14.488887 -100
7 0 15 -100
8 -3.882286 14.488887 -100
9 -7.5 12.990381 -100
10 -10.606602 10.606602 -100
11 -12.990381 7.5 -100
12 -14.488887 3.882286 -100
13 -15 0 -100
14 35 0 -48
15 33.807404 9.058667 -48.133975
16 30.310889 17.5 -48.5
17 24.748737 24.748737 -49
18 17.5 30.310889 -49.5
19 9.058667 33.807404 -49.866025
20 0 35 -50
21 -9.058667 33.807404 -49.866025
22 -17.5 30.310889 -49.5
23 -24.748737 24.748737 -49
24 -30.310889 17.5 -48.5
25 -33.807404 9.058667 -48.133975
26 -35 0 -48
27 60 0 6
28 57.95555 15.529143 5.598076
29 51.961524 30 4.5
30 42.426407 42.426407 3
31 30 51.961524 1.5
32 15.529143 57.95555 0.401924
33 0 60 0
34 -15.529143 57.95555 0.401924
35 -30 51.961524 1.5
36 -42.426407 42.426407 3
37 -51.961524 30 4.5
38 -57.95555 15.529143 5.598076
39 -60 0 6
40 60 0 16
41 57.95555 15.529143 15.598076
42 51.961524 30 14.5
43 42.426407 42.426407 13
44 30 51.961524 11.5
45 15.529143 57.95555 10.401924
46 0 60 10
47 -15.529143 57.95555 10.401924
48 -30 51.961524 11.5
49 -42.426407 42.426407 13
50 -51.961524 30 14.5
51 -57.95555 15.529143 15.598076
52 -60 0 16
53 60 0 20
54 57.95555 15.529143 20
55 51.961524 30 20
56 42.426407 42.426407 20
57 30 51.961524 20
58 15.529143 57.95555 20
59 0 60 20
60 -15.529143 57.95555 20
61 -30 51.961524 20
62 -42.426407 42.426407 20
63 -51.961524 30 20
64 -57.95555 15.529143 20
65 -60 0 20
66 7.414320506434609 12.84312079074608 -100
67 -7.414320506434598 12.84312079074608 -100
68 31.09343428544999 14.96754350945998 -48.40979421422129
69 21.57501529587753 27.05218839688725 -49.21246083071027
70 7.704261046491718 33.73378236026175 -49.86056908136972
71 -7.704261046491119 33.73378236026188 -49.86056908136973
72 -21.57501529587707 27.05218839688762 -49.21246083071031
73 -31.09343428544981 14.96754350946036 -48.40979421422131
74 56.71387069499228 16.63035881817969 5.37891312245547
75 49.79546264256764 32.02713069186218 4.178335072511196
76 38.85053542105917 44.82485206556454 2.592954700856054
77 24.67120427451585 53.94389185415129 1.12591958898188
78 8.459793452440479 58.71143221352923 0.2511369935214447
79 -8.459793452440945 58.71143221352916 0.2511369935214574
80 -24.67120427451628 53.94389185415109 1.125919588981914
81 -38.8505354210595 44.82485206556425 2.592954700856096
82 -49.79546264256782 32.0271306918619 4.178335072511225
83 -56.71387069499234 16.63035881817948 5.378913122455481
84 56.71387069499228 16.63035881817969 15.37891312245547
85 49.79546264256764 32.02713069186218 14.17833507251119
86 38.85053542105917 44.82485206556454 12.59295470085605
87 24.67120427451585 53.94389185415129 11.12591958898188
88 8.459793452440479 58.71143221352923 10.25113699352145
89 -8.459793452440945 58.71143221352916 10.25113699352146
90 -24.67120427451628 53.94389185415109 11.12591958898191
91 -38.8505354210595 44.82485206556425 12.5929547008561
92 -49.79546264256782 32.0271306918619 14.17833507251123
93 -56.71387069499234 16.63035881817948 15.37891312245548
94 56.72165684837908 16.60354408658177 20
95 49.80823932127416 32.00660399194534 20
96 38.84272005049733 44.83162272119002 20
97 24.63984949822086 53.95821725844724 20
98 8.441189130831015 58.71410926048658 20
99 -8.441189130830574 58.71410926048664 20
100 -24.63984949822041 53.95821725844745 20
101 -38.84272005049692 44.83162272119038 20
102 -49.80823932127386 32.00660399194582 20
103 -56.72165684837897 16.60354408658215 20
104 4.618527782440651e-14 0 -100
105 -17.49999999999996 0 -48
106 2.131628207280301e-14 0 -48
107 17.50000000000001 0 -48
108 -42.85714285714283 0 6
109 -25.71428571428562 0 6
110 -8.57142857142842 0 6
111 8.571428571428783 0 6
112 25.71428571428588 0 6
113 42.85714285714295 0 6
114 -42.85714285714283 0 16
115 -25.71428571428562 0 16
116 -8.57142857142842 0 16
117 8.571428571428783 0 16
118 25.71428571428588 0 16
119 42.85714285714295 0 16
120 -42.85714285714283 0 20
121 -25.71428571428562 0 20
122 -8.57142857142842 0 20
123 8.571428571428783 0 20
124 25.71428571428588 0 20
125 42.85714285714295 0 20
126 7.414320506434616 12.84312079074607 -100
127 -7.414320506434593 12.84312079074608 -100
128 -20.55312221649211 0 -84.50211059664403
129 -26.40686113803135 0 -69.11524550507787
130 -32.55624194068221 0 -53.84412198565641
131 -38.99596188656419 0 -38.69314086213687
132 -45.72042980397048 0 -23.66636539579657
133 -52.72379762981485 0 -8.767524365237506
134 56.71387069499228 16.63035881817969 5.37891312245547
135 49.79546264256764 32.02713069186218 4.178335072511196
136 38.85053542105918 44.82485206556454 2.592954700856055
137 24.67120427451586 53.94389185415127 1.125919588981881
138 8.459793452440479 58.71143221352922 0.2511369935214446
139 -8.459793452440941 58.71143221352916 0.2511369935214573
140 -24.6712042745163 53.94389185415108 1.125919588981916
141 -38.8505354210595 44.82485206556426 2.592954700856096
142 -49.79546264256784 32.02713069186187 4.178335072511228
143 -56.71387069499234 16.63035881817945 5.378913122455483
144 20.55312221649211 0 -84.50211059664403
145 26.40686113803135 0 -69.11524550507787
146 32.55624194068221 0 -53.84412198565641
147 38.99596188656419 0 -38.69314086213687
148 45.72042980397048 0 -23.66636539579657
149 52.72379762981485 0 -8.767524365237506
150 4.618527782440651e-14 0 -100
151 -42.85714285714283 0 6
152 -25.71428571428562 0 6
153 -8.57142857142841 0 6
154 8.571428571428783 0 6
155 25.71428571428589 0 6
156 42.85714285714294 0 6
157 56.71387069499228 16.63035881817969 5.37891312245547
158 49.79546264256764 32.02713069186218 4.178335072511196
159 38.85053542105918 44.82485206556454 2.592954700856055
160 24.67120427451586 53.94389185415127 1.125919588981881
161 8.459793452440479 58.71143221352922 0.2511369935214446
162 -8.459793452440941 58.71143221352916 0.2511369935214573
163 -24.6712042745163 53.94389185415108 1.125919588981916
164 -38.8505354210595 44.82485206556426 2.592954700856096
165 -49.79546264256784 32.02713069186187 4.178335072511228
166 -56.71387069499234 16.63035881817945 5.378913122455483
167 -60 0 13.00009418604572
168 56.72165684837908 16.60354408658176 20
169 49.80823932127416 32.00660399194532 20
170 38.84272005049735 44.83162272118999 20
171 24.63984949822088 53.95821725844723 20
172 8.441189130831049 58.71410926048657 20
173 -8.441189130830544 58.71410926048664 20
174 -24.63984949822039 53.95821725844746 20
175 -38.84272005049691 44.83162272119039 20
176 -49.80823932127383 32.00660399194587 20
177 -56.72165684837896 16.60354408658217 20
178 60 0 13.00009418604572
179 -42.85714285714283 0 6
180 -25.71428571428562 0 6
181 -8.57142857142841 0 6
182 8.571428571428783 0 6
183 25.71428571428589 0 6
184 42.85714285714294 0 6
185 -42.85714285714283 0 20
186 -25.71428571428562 0 20
187 -8.57142857142841 0 20
188 8.571428571428783 0 20
189 25.71428571428589 0 20
190 42.85714285714294 0 20
191 0.1452000808103064 52.44315672425505 -12.75450188087695
192 -1.110223024625157e-16 18.90900885885237 -88.68092549447306
193 26.85400573441243 13.43022233200984 -59.28337587137982
194 -33.04730560313725 13.94543173755528 -45.10879339852372
195 -29.32756401962504 43.47954916081352 -11.32611293097025
196 39.75340472963504 14.87369520837925 -29.95267326330399
197 29.32756401962539 43.47954916081515 -11.32611293096726
198 -46.84295161248966 12.30710044636114 -16.61114314283911
199 -19.86994207686416 13.43301187690341 -74.80080060360034
200 20.64132872359764 13.02955197951244 -73.6433425253467
201 15.20114498979324 24.52998704131049 -63.01249878565886
202 22.36889175380699 25.87848131409766 -50.05801422485244
203 7.777093967948463 32.74188888235891 -52.01971324440471
204 -0.5511120478988544 28.73164906181128 -63.64351944331035
205 16.45943749145072 36.02855210118756 -38.44581612943655
206 0.5475576182769887 39.5561430473858 -39.00029034151051
207 -26.49566895245678 13.65450882000699 -59.83612702558146
208 -22.70442107568614 25.87838386788012 -49.53223912761165
209 -30.5723795292501 26.7597694607362 -35.15229875241103
210 47.98053903495014 23.80029724182928 -6.53091047654256
211 8.770924112983302 45.21534598791838 -25.26320806330711
212 -16.59976292947682 36.53951215983923 -37.31197632465552
213 -8.049559218422285 45.40203865325046 -25.17759304011623
214 -14.8625343310639 24.62402990811317 -63.26019282706289
215 29.93834574616518 27.49336950138198 -35.18528477073751
216 33.19061950666681 14.42934572027496 -44.37330373030874
217 37.81696514341635 28.93230505229618 -19.80102723574124
218 47.48250907761404 12.38342538749545 -15.24285315115628
219 -8.188997133574023 33.00493840285092 -51.20401686311038
220 -40.07812729855583 13.85365568640889 -29.97584928271201
221 -38.0782434206877 26.67209051631978 -21.97922896542122
222 24.12668344528802 38.97000838619579 -24.88044145851689
223 -7.756013148771902 21.92046173429218 -77.1858159259842
224 7.236855667411954 22.79520827511734 -75.49847365526485
225 14.28054486687589 13.55376877900426 -86.40541451190369
226 -25.54261272894946 37.91006140648967 -25.01156412549871
227 -41.07965152610195 33.92501771782258 -8.334251217094678
228 -16.02171887969519 50.42052940482852 -11.44222677088838
229 16.02171887969478 50.42052940482864 -11.4422267708884
230 40.99651729719906 34.94846265026695 -7.226178682410448
231 -14.20789709920722 12.88507725070687 -87.78103359844698
232 -49.35491580777281 20.63378366788547 -6.413209127347541
233 53.00920015834457 11.04622129999391 -4.542037100401463
234 1.900701818158268e-13 0 -8.846149779161808
235 16.81746262856939 0 -54.82058955021098
236 -28.49827964752817 0 -23.62444860000001
237 -10.15457727535431 0 -71.73919206616611
238 28.27926525559758 0 -25.63361189618235
239 9.731343849216902 0 -72.23672770662556
240 17.45904859087206 0 -8.499700900242674
241 8.571428571428804 0 -23.52002180074417
242 -10.25030916263049 0 -26.17452869961473
243 1.637370526022085 0 -35.88330939832152
244 -22.74062581908629 0 -39.71556279151601
245 -0.08941891287154746 0 -58.44569862144986
246 -35.72390045468828 0 -8.91195407448461
247 -18.31169976687114 0 -9.406636399412854
248 35.5959789192834 0 -8.364503384642038
249 15.38404318877291 0 -38.08572296212954
250 -16.25637332441089 0 -56.15416483883775
251 0.1453885764719525 0 -84.44891682509058
252 -8.249493535048344 0 -91.91586751031139
253 -8.330043602980304 0 -43.61489041391983
254 5.992452421437983 0 -46.72494503934234
255 10.21891833935727 0 -89.04660558618912
256 27.22539280969329 0 -42.51564711760697
257 -0.2437149406256853 59.3180131998724 9.415135176239804
258 -16.49927909487176 56.97765558052267 8.942111196726767
259 16.3205255755432 57.02913094651468 10.13321064971023
260 -53.81827089901298 24.55342415055627 13.7410892719316
261 -58.6277427861761 8.574565744709066 12.73557703346832
262 53.81827089900311 24.55342415057807 13.7410892721185
263 58.62774278617587 8.574565744710199 12.73557703346813
264 -31.52810902589272 50.24583932466248 9.463991294753958
265 31.43256845199873 50.30567970934897 10.57698506546022
266 -44.82083799627552 38.84264966580678 12.66388065080047
267 45.16948897671544 38.43163915000675 12.10123076081426
268 -17.14285714285705 0 13.00338311676318
269 -34.28571428571425 0 13.00338311676318
270 -51.71716490483705 0 12.92672620542611
271 2.131628207280301e-13 0 12.99999999999996
272 17.14285714285732 0 13.00338311676318
273 34.28571428571443 0 13.00338311676317
274 51.71716490483716 0 12.92672620542611
275 1.723903671004259e-13 44.09354080958951 20
276 16.62272568054776 13.31771423921074 20
277 -16.63509616799508 13.32012807568359 20
278 -25.01021882993599 38.39941872828525 20
279 25.00610058881616 38.39700489181224 20
280 -40.56385271431808 19.40710679703726 20
281 40.56385271431832 19.40710679703702 20
282 -0.006179989027967449 14.26053992561976 20
283 9.9920320317267 29.78951339965482 20
284 -10.37129348196056 29.96947890748648 20
285 13.55286388705922 45.65572233989963 20
286 -13.60642700750284 45.52175329911459 20
287 -26.52561734374196 24.1737640139022 20
288 26.4596589806086 24.14296515043917 20
289 -36.15012965195336 31.76370325047218 20
290 36.13611433110291 31.75706071048476 20
291 -29.75388971416969 11.64111196685699 20
292 29.74981178567235 11.63938285919677 20
$EndNodes
$Elements
522
1 15 2 0 1 1
2 15 2 0 2 2
3 15 2 0 3 3
4 15 2 0 4 4
5 15 2 0 5 5
6 15 2 0 6 6
7 15 2 0 7 7
8 15 2 0 8 8
9 15 2 0 9 9
10 15 2 0 10 10
11 15 2 0 11 11
12 15 2 0 12 12
13 15 2 0 13 13
14 15 2 0 14 14
15 15 2 0 15 15
16 15 2 0 16 16
17 15 2 0 17 17
18 15 2 0 18 18
19 15 2 0 19 19
20 15 2 0 20 20
21 15 2 0 21 21
22 15 2 0 22 22
23 15 2 0 23 23
24 15 2 0 24 24
25 15 2 0 25 25
26 15 2 0 26 26
27 15 2 0 27 27
28 15 2 0 28 28
29 15 2 0 29 29
30 15 2 0 30 30
31 15 2 0 31 31
32 15 2 0 32 32
33 15 2 0 33 33
34 15 2 0 34 34
35 15 2 0 35 35
36 15 2 0 36 36
37 15 2 0 37 37
38 15 2 0 38 38
39 15 2 0 39 39
40 15 2 0 40 40
41 15 2 0 41 41
42 15 2 0 42 42
43 15 2 0 43 43
44 15 2 0 44 44
45 15 2 0 45 45
46 15 2 0 46 46
47 15 2 0 47 47
48 15 2 0 48 48
49 15 2 0 49 49
50 15 2 0 50 50
51 15 2 0 51 51
52 15 2 0 52 52
53 15 2 0 53 53
54 15 2 0 54 54
55 15 2 0 55 55
56 15 2 0 56 56
57 15 2 0 57 57
58 15 2 0 58 58
59 15 2 0 59 59
60 15 2 0 60 60
61 15 2 0 61 61
62 15 2 0 62 62
63 15 2 0 63 63
64 15 2 0 64 64
65 15 2 0 65 65
66 1 2 0 10066 1 66
67 1 2 0 10066 66 67
68 1 2 0 10066 67 13
69 1 2 0 10067 14 68
70 1 2 0 10067 68 69
71 1 2 0 10067 69 70
72 1 2 0 10067 70 71
73 1 2 0 10067 71 72
74 1 2 0 10067 72 73
75 1 2 0 10067 73 26
76 1 2 0 10068 27 74
77 1 2 0 10068 74 75
78 1 2 0 10068 75 76
79 1 2 0 10068 76 77
80 1 2 0 10068 77 78
81 1 2 0 10068 78 79
82 1 2 0 10068 79 80
83 1 2 0 10068 80 81
84 1 2 0 10068 81 82
85 1 2 0 10068 82 83
86 1 2 0 10068 83 39
87 1 2 0 10069 40 84
88 1 2 0 10069 84 85
89 1 2 0 10069 85 86
90 1 2 0 10069 86 87
91 1 2 0 10069 87 88
92 1 2 0 10069 88 89
93 1 2 0 10069 89 90
94 1 2 0 10069 90 91
95 1 2 0 10069 91 92
96 1 2 0 10069 92 93
97 1 2 0 10069 93 52
98 1 2 0 10070 53 94
99 1 2 0 10070 94 95
100 1 2 0 10070 95 96
101 1 2 0 10070 96 97
102 1 2 0 10070 97 98
103 1 2 0 10070 98 99
104 1 2 0 10070 99 100
105 1 2 0 10070 100 101
106 1 2 0 10070 101 102
107 1 2 0 10070 102 103
108 1 2 0 10070 103 65
109 1 2 0 10071 13 104
110 1 2 0 10071 104 1
111 1 2 0 10072 26 105
112 1 2 0 10072 105 106
113 1 2 0 10072 106 107
114 1 2 0 10072 107 14
115 1 2 0 10073 39 108
116 1 2 0 10073 108 109
117 1 2 0 10073 109 110
118 1 2 0 10073 110 111
119 1 2 0 10073 111 112
120 1 2 0 10073 112 113
121 1 2 0 10073 113 27
122 1 2 0 10074 52 114
123 1 2 0 10074 114 115
124 1 2 0 10074 115 116
125 1 2 0 10074 116 117
126 1 2 0 10074 117 118
127 1 2 0 10074 118 119
128 1 2 0 10074 119 40
129 1 2 0 10075 65 120
130 1 2 0 10075 120 121
131 1 2 0 10075 121 122
132 1 2 0 10075 122 123
133 1 2 0 10075 123 124
134 1 2 0 10075 124 125
135 1 2 0 10075 125 53
136 1 2 0 10076 1 126
137 1 2 0 10076 126 127
138 1 2 0 10076 127 13
139 1 2 0 10077 13 128
140 1 2 0 10077 128 129
141 1 2 0 10077 129 130
142 1 2 0 10077 130 131
143 1 2 0 10077 131 132
144 1 2 0 10077 132 133
145 1 2 0 10077 133 39
146 1 2 0 10078 27 134
147 1 2 0 10078 134 135
148 1 2 0 10078 135 136
149 1 2 0 10078 136 137
150 1 2 0 10078 137 138
151 1 2 0 10078 138 139
152 1 2 0 10078 139 140
153 1 2 0 10078 140 141
154 1 2 0 10078 141 142
155 1 2 0 10078 142 143
156 1 2 0 10078 143 39
157 1 2 0 10079 1 144
158 1 2 0 10079 144 145
159 1 2 0 10079 145 146
160 1 2 0 10079 146 147
161 1 2 0 10079 147 148
162 1 2 0 10079 148 149
163 1 2 0 10079 149 27
164 1 2 0 10080 13 150
165 1 2 0 10080 150 1
166 1 2 0 10081 39 151
167 1 2 0 10081 151 152
168 1 2 0 10081 152 153
169 1 2 0 10081 153 154
170 1 2 0 10081 154 155
171 1 2 0 10081 155 156
172 1 2 0 10081 156 27
173 1 2 0 10082 27 157
174 1 2 0 10082 157 158
175 1 2 0 10082 158 159
176 1 2 0 10082 159 160
177 1 2 0 10082 160 161
178 1 2 0 10082 161 162
179 1 2 0 10082 162 163
180 1 2 0 10082 163 164
181 1 2 0 10082 164 165
182 1 2 0 10082 165 166
183 1 2 0 10082 166 39
184 1 2 0 10083 39 167
185 1 2 0 10083 167 65
186 1 2 0 10084 53 168
187 1 2 0 10084 168 169
188 1 2 0 10084 169 170
189 1 2 0 10084 170 171
190 1 2 0 10084 171 172
191 1 2 0 10084 172 173
192 1 2 0 10084 173 174
193 1 2 0 10084 174 175
194 1 2 0 10084 175 176
195 1 2 0 10084 176 177
196 1 2 0 10084 177 65
197 1 2 0 10085 27 178
198 1 2 0 10085 178 53
199 1 2 0 10086 39 179
200 1 2 0 10086 179 180
201 1 2 0 10086 180 181
202 1 2 0 10086 181 182
203 1 2 0 10086 182 183
204 1 2 0 10086 183 184
205 1 2 0 10086 184 27
206 1 2 0 10087 65 185
207 1 2 0 10087 185 186
208 1 2 0 10087 186 187
209 1 2 0 10087 187 188
210 1 2 0 10087 188 189
211 1 2 0 10087 189 190
212 1 2 0 10087 190 53
213 2 2 0 1 143 232 133
214 2 2 0 1 226 228 213
215 2 2 0 1 133 232 198
216 2 2 0 1 143 133 39
217 2 2 0 1 126 225 1
218 2 2 0 1 148 218 149
219 2 2 0 1 1 225 144
220 2 2 0 1 195 226 221
221 2 2 0 1 146 216 147
222 2 2 0 1 128 231 13
223 2 2 0 1 221 227 195
224 2 2 0 1 212 226 213
225 2 2 0 1 195 228 226
226 2 2 0 1 218 233 149
227 2 2 0 1 13 231 127
228 2 2 0 1 147 216 196
229 2 2 0 1 198 232 221
230 2 2 0 1 221 232 227
231 2 2 0 1 212 213 206
232 2 2 0 1 193 216 146
233 2 2 0 1 215 217 196
234 2 2 0 1 211 229 222
235 2 2 0 1 217 222 197
236 2 2 0 1 222 229 197
237 2 2 0 1 206 219 212
238 2 2 0 1 191 229 211
239 2 2 0 1 196 216 215
240 2 2 0 1 197 230 217
241 2 2 0 1 207 214 199
242 2 2 0 1 217 230 210
243 2 2 0 1 196 218 148
244 2 2 0 1 211 213 191
245 2 2 0 1 129 207 199
246 2 2 0 1 145 200 193
247 2 2 0 1 215 222 217
248 2 2 0 1 200 201 193
249 2 2 0 1 199 231 128
250 2 2 0 1 129 199 128
251 2 2 0 1 144 200 145
252 2 2 0 1 134 210 135
253 2 2 0 1 208 214 207
254 2 2 0 1 145 193 146
255 2 2 0 1 201 204 203
256 2 2 0 1 210 218 217
257 2 2 0 1 130 207 129
258 2 2 0 1 140 195 141
259 2 2 0 1 136 197 137
260 2 2 0 1 194 207 130
261 2 2 0 1 138 191 139
262 2 2 0 1 194 220 209
263 2 2 0 1 194 208 207
264 2 2 0 1 208 219 214
265 2 2 0 1 131 220 194
266 2 2 0 1 131 194 130
267 2 2 0 1 212 219 208
268 2 2 0 1 198 220 132
269 2 2 0 1 132 220 131
270 2 2 0 1 147 196 148
271 2 2 0 1 133 198 132
272 2 2 0 1 201 202 193
273 2 2 0 1 209 212 208
274 2 2 0 1 194 209 208
275 2 2 0 1 201 203 202
276 2 2 0 1 203 206 205
277 2 2 0 1 206 213 211
278 2 2 0 1 203 205 202
279 2 2 0 1 127 192 126
280 2 2 0 1 206 211 205
281 2 2 0 1 203 219 206
282 2 2 0 1 204 219 203
283 2 2 0 1 192 225 126
284 2 2 0 1 213 228 191
285 2 2 0 1 198 221 220
286 2 2 0 1 214 223 199
287 2 2 0 1 191 228 139
288 2 2 0 1 138 229 191
289 2 2 0 1 141 227 142
290 2 2 0 1 210 230 135
291 2 2 0 1 139 228 140
292 2 2 0 1 137 229 138
293 2 2 0 1 224 225 192
294 2 2 0 1 200 224 201
295 2 2 0 1 214 219 204
296 2 2 0 1 195 227 141
297 2 2 0 1 202 216 193
298 2 2 0 1 211 222 205
299 2 2 0 1 204 224 223
300 2 2 0 1 223 224 192
301 2 2 0 1 27 233 134
302 2 2 0 1 220 221 209
303 2 2 0 1 205 222 215
304 2 2 0 1 201 224 204
305 2 2 0 1 140 228 195
306 2 2 0 1 197 229 137
307 2 2 0 1 221 226 209
308 2 2 0 1 144 225 200
309 2 2 0 1 209 226 212
310 2 2 0 1 205 215 202
311 2 2 0 1 149 233 27
312 2 2 0 1 204 223 214
313 2 2 0 1 217 218 196
314 2 2 0 1 135 230 136
315 2 2 0 1 136 230 197
316 2 2 0 1 223 231 199
317 2 2 0 1 127 231 192
318 2 2 0 1 227 232 142
319 2 2 0 1 200 225 224
320 2 2 0 1 142 232 143
321 2 2 0 1 192 231 223
322 2 2 0 1 134 233 210
323 2 2 0 1 215 216 202
324 2 2 0 1 210 233 218
325 2 2 0 2 236 244 242
326 2 2 0 2 244 253 242
327 2 2 0 2 240 241 238
328 2 2 0 2 242 247 236
329 2 2 0 2 128 251 237
330 2 2 0 2 241 249 238
331 2 2 0 2 242 253 243
332 2 2 0 2 237 251 239
333 2 2 0 2 238 248 240
334 2 2 0 2 239 245 237
335 2 2 0 2 149 248 148
336 2 2 0 2 236 247 246
337 2 2 0 2 153 247 234
338 2 2 0 2 156 248 149
339 2 2 0 2 148 248 238
340 2 2 0 2 246 247 152
341 2 2 0 2 234 247 242
342 2 2 0 2 251 255 239
343 2 2 0 2 152 247 153
344 2 2 0 2 151 246 152
345 2 2 0 2 133 246 151
346 2 2 0 2 239 255 144
347 2 2 0 2 133 151 39
348 2 2 0 2 156 149 27
349 2 2 0 2 132 246 133
350 2 2 0 2 236 246 132
351 2 2 0 2 130 250 244
352 2 2 0 2 240 248 155
353 2 2 0 2 234 241 240
354 2 2 0 2 234 240 154
355 2 2 0 2 242 243 241
356 2 2 0 2 155 248 156
357 2 2 0 2 234 242 241
358 2 2 0 2 145 239 144
359 2 2 0 2 245 250 237
360 2 2 0 2 130 244 131
361 2 2 0 2 243 249 241
362 2 2 0 2 237 250 129
363 2 2 0 2 154 240 155
364 2 2 0 2 153 234 154
365 2 2 0 2 128 237 129
366 2 2 0 2 235 239 145
367 2 2 0 2 129 250 130
368 2 2 0 2 235 245 239
369 2 2 0 2 249 256 238
370 2 2 0 2 146 235 145
371 2 2 0 2 131 236 132
372 2 2 0 2 131 244 236
373 2 2 0 2 148 238 147
374 2 2 0 2 245 254 253
375 2 2 0 2 235 256 249
376 2 2 0 2 238 256 147
377 2 2 0 2 245 253 250
378 2 2 0 2 253 254 243
379 2 2 0 2 249 254 235
380 2 2 0 2 146 256 235
381 2 2 0 2 13 252 128
382 2 2 0 2 144 255 1
383 2 2 0 2 150 255 251
384 2 2 0 2 243 254 249
385 2 2 0 2 1 255 150
386 2 2 0 2 250 253 244
387 2 2 0 2 150 252 13
388 2 2 0 2 251 252 150
389 2 2 0 2 235 254 245
390 2 2 0 2 147 256 146
391 2 2 0 2 128 252 251
392 2 2 0 3 168 262 169
393 2 2 0 3 176 260 177
394 2 2 0 3 158 262 157
395 2 2 0 3 166 260 165
396 2 2 0 3 176 266 260
397 2 2 0 3 168 263 157
398 2 2 0 3 166 261 177
399 2 2 0 3 260 266 165
400 2 2 0 3 262 267 169
401 2 2 0 3 158 267 262
402 2 2 0 3 170 267 159
403 2 2 0 3 164 266 175
404 2 2 0 3 175 266 176
405 2 2 0 3 173 258 174
406 2 2 0 3 172 257 173
407 2 2 0 3 165 266 164
408 2 2 0 3 159 267 158
409 2 2 0 3 169 267 170
410 2 2 0 3 175 264 164
411 2 2 0 3 159 265 170
412 2 2 0 3 174 264 175
413 2 2 0 3 257 258 173
414 2 2 0 3 258 264 174
415 2 2 0 3 171 259 172
416 2 2 0 3 172 259 257
417 2 2 0 3 161 259 160
418 2 2 0 3 170 265 171
419 2 2 0 3 164 264 163
420 2 2 0 3 160 265 159
421 2 2 0 3 163 258 162
422 2 2 0 3 162 257 161
423 2 2 0 3 157 262 168
424 2 2 0 3 177 260 166
425 2 2 0 3 171 265 259
426 2 2 0 3 163 264 258
427 2 2 0 3 259 265 160
428 2 2 0 3 257 259 161
429 2 2 0 3 162 258 257
430 2 2 0 3 157 263 27
431 2 2 0 3 177 261 65
432 2 2 0 3 27 263 178
433 2 2 0 3 39 261 166
434 2 2 0 3 167 261 39
435 2 2 0 3 53 263 168
436 2 2 0 3 178 263 53
437 2 2 0 3 65 261 167
438 2 2 0 4 167 270 65
439 2 2 0 4 39 270 167
440 2 2 0 4 53 274 178
441 2 2 0 4 178 274 27
442 2 2 0 4 185 269 186
443 2 2 0 4 186 268 187
444 2 2 0 4 188 272 189
445 2 2 0 4 189 273 190
446 2 2 0 4 182 271 181
447 2 2 0 4 187 271 188
448 2 2 0 4 181 268 180
449 2 2 0 4 180 269 179
450 2 2 0 4 183 272 182
451 2 2 0 4 184 273 183
452 2 2 0 4 184 274 190
453 2 2 0 4 185 270 179
454 2 2 0 4 179 269 185
455 2 2 0 4 187 268 181
456 2 2 0 4 180 268 186
457 2 2 0 4 186 269 180
458 2 2 0 4 182 272 188
459 2 2 0 4 189 272 183
460 2 2 0 4 190 273 184
461 2 2 0 4 183 273 189
462 2 2 0 4 181 271 187
463 2 2 0 4 188 271 182
464 2 2 0 4 27 274 184
465 2 2 0 4 179 270 39
466 2 2 0 4 190 274 53
467 2 2 0 4 65 270 185
468 2 2 0 210083 67 13 104
469 2 2 0 210083 104 1 66
470 2 2 0 210083 104 66 67
471 2 2 0 210087 120 280 103
472 2 2 0 210087 94 281 125
473 2 2 0 210087 120 103 65
474 2 2 0 210087 94 125 53
475 2 2 0 210087 283 288 279
476 2 2 0 210087 278 287 284
477 2 2 0 210087 276 288 283
478 2 2 0 210087 284 287 277
479 2 2 0 210087 276 282 123
480 2 2 0 210087 122 282 277
481 2 2 0 210087 124 276 123
482 2 2 0 210087 122 277 121
483 2 2 0 210087 275 284 283
484 2 2 0 210087 123 282 122
485 2 2 0 210087 99 275 98
486 2 2 0 210087 97 279 96
487 2 2 0 210087 101 278 100
488 2 2 0 210087 283 284 282
489 2 2 0 210087 276 283 282
490 2 2 0 210087 103 280 102
491 2 2 0 210087 95 281 94
492 2 2 0 210087 282 284 277
493 2 2 0 210087 120 291 280
494 2 2 0 210087 281 292 125
495 2 2 0 210087 279 285 283
496 2 2 0 210087 284 286 278
497 2 2 0 210087 283 285 275
498 2 2 0 210087 275 286 284
499 2 2 0 210087 121 291 120
500 2 2 0 210087 125 292 124
501 2 2 0 210087 98 285 97
502 2 2 0 210087 100 286 99
503 2 2 0 210087 99 286 275
504 2 2 0 210087 275 285 98
505 2 2 0 210087 97 285 279
506 2 2 0 210087 278 286 100
507 2 2 0 210087 280 289 102
508 2 2 0 210087 95 290 281
509 2 2 0 210087 279 290 96
510 2 2 0 210087 101 289 278
511 2 2 0 210087 102 289 101
512 2 2 0 210087 96 290 95
513 2 2 0 210087 277 291 121
514 2 2 0 210087 124 292 276
515 2 2 0 210087 287 289 280
516 2 2 0 210087 281 290 288
517 2 2 0 210087 288 290 279
518 2 2 0 210087 278 289 287
519 2 2 0 210087 287 291 277
520 2 2 0 210087 276 292 288
521 2 2 0 210087 280 291 287
522 2 2 0 210087 288 292 281
$EndElements
