$MeshFormat
2.2 0 8
$EndMeshFormat
$PhysicalNames
4
2 1 "horn_surface"
2 2 "throat_cap"
2 3 "interface_wall"
2 4 "interface_face"
$EndPhysicalNames
$Nodes
304
1 14.829629 2.220446049250313e-16 -100
2 59.31851666666667 8.881784197001252e-16 0
3 -1.332267629550188e-15 59.31851666666667 0
4 -3.33066907387547e-16 14.829629 -100
5 14.829629 2.220446049250313e-16 -100
6 0 0 -100
7 -3.33066907387547e-16 14.829629 -100
8 59.31851666666667 4.440892098500626e-16 0
9 -4.440892098500626e-16 59.31851666666667 0
10 -4.440892098500626e-16 59.31851666666667 20
11 59.31851666666667 4.440892098500626e-16 20
12 59.31851666666667 4.440892098500626e-16 20
13 0 0 20
14 -4.440892098500626e-16 59.31851666666667 20
15 17.45059226581805 0 -92.63982449269375
16 20.16256711327116 0 -85.2969005757723
17 22.96050940902087 0 -77.98630177042267
18 25.84421424515042 0 -70.70910590138371
19 28.81342762319366 0 -63.46637830066766
20 31.86784655775717 0 -56.25916978331828
21 35.00711946495484 0 -49.08851469818554
22 38.23084678857595 0 -41.95542907309932
23 41.53858150092385 0 -34.86090867394286
24 44.92983003548187 0 -27.8059272520031
25 48.40405316857019 0 -20.79143478569107
26 51.96066707033834 0 -13.81835580206354
27 55.59904459108217 0 -6.887587838472841
28 58.8103067646438 7.742523763769327 0
29 57.29728737178759 15.35276185648676 0
30 54.80248148881197 22.69993104278863 0
31 51.37134222770616 29.65925822760982 0
32 47.0599576138309 36.1103755164376 0
33 41.94452533333333 41.94452533333333 0
34 36.11037551643763 47.05995761383087 0
35 29.65925822760983 51.37134222770616 0
36 22.69993104278866 54.80248148881195 0
37 15.35276185648675 57.2972873717876 0
38 7.742523763769345 58.8103067646438 0
39 0 17.45059226581804 -92.63982449269375
40 0 20.16256711327115 -85.2969005757723
41 0 22.96050940902085 -77.98630177042264
42 0 25.8442142451504 -70.70910590138369
43 0 28.81342762319365 -63.46637830066764
44 0 31.86784655775715 -56.25916978331827
45 0 35.00711946495485 -49.08851469818553
46 0 38.23084678857594 -41.95542907309931
47 0 41.53858150092385 -34.86090867394287
48 0 44.92983003548185 -27.80592725200311
49 0 48.40405316857017 -20.7914347856911
50 0 51.96066707033832 -13.81835580206355
51 0 55.59904459108213 -6.887587838472836
52 12.84283496319328 7.414815596443269 -100
53 7.414815596443269 12.84283496319327 -100
54 11.12222175 0 -100
55 7.414814500000002 0 -100
56 3.707407250000004 0 -100
57 0 3.707407249999999 -100
58 0 7.4148145 -100
59 0 11.12222175 -100
60 14.32432156373172 3.838190428816657 -100
61 12.84283553133237 7.414814612397397 -100
62 10.48613149999999 10.48613150000001 -100
63 7.414814612397381 12.84283553133238 -100
64 3.838190428816665 14.32432156373171 -100
65 58.8103067646438 7.742523763769315 0
66 57.2972873717876 15.35276185648674 0
67 54.80248148881196 22.69993104278863 0
68 51.37134222770618 29.65925822760981 0
69 47.0599576138309 36.1103755164376 0
70 41.94452533333335 41.94452533333332 0
71 36.11037551643762 47.05995761383087 0
72 29.65925822760985 51.37134222770615 0
73 22.69993104278866 54.80248148881195 0
74 15.35276185648675 57.2972873717876 0
75 7.742523763769341 58.81030676464379 0
76 0 59.31851666666667 13.33333333333333
77 0 59.31851666666667 6.666666666666664
78 58.8103067646438 7.742523763769315 20
79 57.2972873717876 15.35276185648674 20
80 54.80248148881196 22.69993104278863 20
81 51.37134222770618 29.65925822760981 20
82 47.0599576138309 36.1103755164376 20
83 41.94452533333335 41.94452533333332 20
84 36.11037551643762 47.05995761383087 20
85 29.65925822760985 51.37134222770615 20
86 22.69993104278866 54.80248148881195 20
87 15.35276185648675 57.2972873717876 20
88 7.742523763769341 58.81030676464379 20
89 59.31851666666667 0 13.33333333333333
90 59.31851666666667 0 6.666666666666664
91 51.90370208336479 0 20
92 44.4888875000476 0 20
93 37.0740729167115 0 20
94 29.65925833335832 0 20
95 22.24444374999528 0 20
96 14.82962916663499 0 20
97 7.414814583295416 0 20
98 0 7.414814583256177 20
99 0 14.82962916656205 20
100 0 22.2444437499061 20
101 0 29.659258333275 20
102 0 37.07407291665348 20
103 0 44.48888750002452 20
104 0 51.90370208336918 20
105 58.8103067646438 7.742523763769315 20
106 57.2972873717876 15.35276185648674 20
107 54.80248148881196 22.69993104278863 20
108 51.37134222770618 29.65925822760981 20
109 47.0599576138309 36.1103755164376 20
110 41.94452533333335 41.94452533333332 20
111 36.11037551643762 47.05995761383087 20
112 29.65925822760985 51.37134222770615 20
113 22.69993104278866 54.80248148881195 20
114 15.35276185648675 57.2972873717876 20
115 7.742523763769341 58.81030676464379 20
116 6.479828785562046 42.72836148013659 -31.34168513468644
117 42.06409014362362 36.77839124921132 -6.368760932103539
118 39.23722253522307 7.764958522426508 -38.13701121542822
119 5.818238206562131 33.00119125199853 -52.47836840852082
120 25.35139658524114 49.98406212850348 -6.049979163306503
121 26.59999231305391 6.733092287389752 -66.78895305296253
122 20.62420993817699 6.704306343520839 -81.28286304103047
123 32.84625803250366 6.872770847785437 -52.37047158407773
124 46.5007295035165 7.356393250625352 -23.44114303101252
125 7.023143514713647 26.54046089450273 -66.75231119540531
126 50.16423076689153 25.47754289797542 -5.642780580948433
127 6.805469459280735 49.8665018498335 -16.99152047447168
128 7.384648694093997 17.43201022710374 -88.59627732549592
129 53.24092604109142 6.783446261425261 -10.53377523244545
130 11.16723954936612 55.06242264438501 -5.791881664824773
131 12.01459760245586 12.01459760245586 -93.91043377047852
132 17.35904756459278 7.673534064755465 -88.46719913585039
133 16.48454295587993 12.92033034900822 -83.22689030181024
134 19.66096044242877 12.93754772122666 -76.51404128106736
135 14.07419167079885 17.92823994320626 -78.41702768113839
136 17.46600584015742 18.5008548440392 -71.70681249010555
137 11.08226007266077 22.32430644938798 -73.00461894060342
138 14.68343485204946 23.52737553496131 -66.07268826042385
139 20.98724765736216 19.02535374413768 -64.63567870461701
140 18.48420779422521 24.23908236862291 -59.49722025962056
141 24.43990224024687 19.48657152722429 -57.679554417
142 22.20983382704651 24.98748796674001 -52.65871689613418
143 27.8880979722854 19.96944934247237 -50.68174074367091
144 25.90407116297892 25.68932021448858 -45.79639986251529
145 31.33021848419617 20.56742717379949 -43.60077775792482
146 29.5699796538666 26.41854528925328 -38.87882968596469
147 23.44535526565256 31.05810965453837 -40.47132300654825
148 27.37038845974656 31.88723625260302 -33.83919505970005
149 33.2415789144883 27.12364391737041 -31.99508255615036
150 31.2422631405939 32.76379661864814 -27.10583058509917
151 36.93579110848127 27.76574605403419 -25.19966413889774
152 24.79211760298633 37.10892760846927 -28.42318671050762
153 28.89263848726443 38.11970441042256 -21.93112683908988
154 22.08969084429009 41.84627944094451 -22.96012508178343
155 38.56943779643914 21.16805947489858 -29.7264169308043
156 41.95451513823924 22.01997793372407 -22.83302827601906
157 40.6529127126436 28.49379511605104 -18.33575230332627
158 26.44950256849656 43.05181070198028 -16.60358278329489
159 32.90307167197478 39.20040820532178 -15.33275055889848
160 19.44014616656968 46.48891882072894 -16.87185968400557
161 45.42882146572305 22.79288560134895 -16.02023429123251
162 18.23482601883138 40.44150536333899 -28.97059582554075
163 46.12544244253712 15.91237514509146 -20.01808923772126
164 49.55325119031832 16.852926337284 -13.08443171651011
165 44.75310042460683 28.88590269132778 -11.30906989250637
166 16.04092736414471 28.67010160225423 -53.98510588454657
167 30.97436926172486 44.10659079612324 -10.10566351157034
168 49.69346778381978 10.31145486973986 -16.16480007363673
169 42.79373282270745 14.4655961560864 -27.30846876860365
170 39.04187005400298 14.75785430181063 -34.43907879117818
171 32.51967582215788 14.08211401368584 -48.12155763006335
172 12.19069143386328 27.58738053676543 -60.25695901414821
173 25.96717825702456 13.42497295855796 -62.46369345337823
174 29.19103436796433 13.74166031383966 -55.34132220602004
175 29.69172059746474 6.746413337549912 -59.57858130395047
176 36.01100825622293 7.3965641048296 -45.17550257258117
177 35.69453674089037 14.58956349153026 -41.23621141904916
178 39.02940675614157 34.42933192641494 -13.65494172886286
179 6.551612686231822 20.77114075684165 -81.03954738008247
180 23.61061326558034 6.689170848225041 -73.96968849168104
181 34.85729638895135 20.9986311909686 -36.65238279133951
182 35.06215779089271 33.68361210710302 -20.361370528488
183 22.83873470862903 13.05323607216847 -69.56706000828514
184 42.72325000528823 7.220307095014674 -31.10855120893662
185 19.55109123534323 30.01574074910862 -47.26448773514137
186 16.62100567081408 34.59240388782524 -41.63380078617425
187 12.08131957715504 33.17600333885264 -48.41395071024617
188 8.994592175878774 37.13734378921824 -41.99842244225004
189 12.85507702750369 39.34079415408446 -35.17911083679648
190 20.54461258308443 36.08518820033012 -34.89222592695011
191 8.046426629743031 46.16601227123756 -23.87831173075597
192 15.45350365024234 44.53872600390176 -23.31181573458392
193 47.15869147600537 31.27430903337933 -5.039559524254969
194 18.31609462365871 53.10392117194523 -5.809589287350867
195 13.6164527821421 51.08324111098997 -12.073523124151
196 52.86242526008575 18.35773008330852 -6.211137077943183
197 36.83794211081087 42.6806831299451 -5.424959070037239
198 6.658073378216635 53.21589343061652 -10.61107720283782
199 12.92001973691177 48.03269797025055 -18.14834534005432
200 55.24298946150201 11.40737486349755 -5.371541563585355
201 20.12987237238134 49.48797598399963 -11.00309709956132
202 5.790144778610591 40.17706498025811 -36.8675751740071
203 5.790268029962117 29.95925645933593 -59.42476049793096
204 31.57665048374838 47.25824283235729 -4.573220759596662
205 11.74613229858882 16.93734864288475 -84.10516070931909
206 5.610623580230531 15.65376792507814 -94.91786960388261
207 15.64218767932995 5.780494320683449 -94.78618626768835
208 4.912408612846741 23.96080418496948 -74.17272958333184
209 5.66912836120986 35.45106623153982 -47.08601479086548
210 36.42879514050489 39.40720701497796 -10.54583849424987
211 12.38975191138622 42.70352509081268 -28.76125188028339
212 56.28164106468306 5.701052446547575 -5.070356230170021
213 48.43386538692735 22.58610939007704 -10.97297307128596
214 5.505358819095254 56.39594856106661 -4.894517157645806
215 52.32308182646118 12.38978754688274 -10.34683159384914
216 49.92667645044256 4.338580366383578 -17.41100853789684
217 24.98197784679131 46.64719042054232 -11.97983016487121
218 13.38790758179883 13.74242908676332 -87.91150469915377
219 10.5992936321074 30.67004179362137 -54.91150817827466
220 5.49025331108222 3.075332706492759 -100
221 6.524822348103312 9.046679969426314 -100
222 10.53510723823321 4.541052378468976 -100
223 2.890043854824562 8.992460403755423 -100
224 3.513237127794417 5.840939926923078 -100
225 9.4724853053741 7.484910529546102 -100
226 7.209159185639827 5.580670709524618 -100
227 2.714010471349212 2.71401047134921 -100
228 4.133574248828388 11.26570384364917 -100
229 8.284560046703433 2.642620399298778 -100
230 5.827411722110829 59.03092931518471 9.99613948917823
231 59.03092931518448 5.82741172211308 9.996263615628884
232 56.17010202102615 19.06716755297373 6.71845182708098
233 19.06716755297373 56.17010202102615 6.718451827081006
234 49.32120588666715 32.95536160821477 6.718451830747274
235 34.1659108419193 48.49026204998083 13.27587987956829
236 53.20078337661388 26.23573641830162 13.28154817088527
237 44.59770237344733 39.11115135544465 13.28154816958728
238 39.11115135544467 44.59770237344731 6.718451830412723
239 26.23573641830167 53.20078337661386 6.718451829114749
240 12.96475578727393 57.88416638792825 6.531124559421446
241 11.41763912914038 58.20886624412597 14.52090370300465
242 58.08255797697813 12.04416772739529 6.44152600030683
243 58.10625518092981 11.9292327023226 13.67675347153551
244 22.79413657771759 54.76336562293697 12.90144231654048
245 56.17010202102615 19.06716755297373 13.92798570136398
246 53.20078337661388 26.23573641830162 6.072014297596543
247 49.32120588666715 32.95536160821477 13.92798570381531
248 32.95536160821481 49.32120588666713 6.072014296184805
249 39.31551245720861 44.41770315671766 13.87448927792042
250 44.59770237344733 39.11115135544465 6.072014296482252
251 27.91293556162777 52.34058546495991 14.36685863313317
252 17.49910256374087 56.67844962128785 14.61860400748114
253 5.440090580909133 59.06792025283329 4.811254990597776
254 5.008333374169446 59.10614258863092 15.34897126843628
255 59.08045076173062 5.302439496763359 4.79388915442775
256 59.1062472991169 5.007099205157736 15.34942159785967
257 6.481533157640015 25.94192913740447 20.00000000000001
258 39.44971952266613 34.59735611863562 20
259 25.95515473849582 6.425567254596142 19.99999999999999
260 23.08586159037391 47.54140900011555 20.00000000000001
261 40.60672049683082 6.310060300408136 20.00000000000001
262 47.05995772417309 23.20814087175936 20.00000000000001
263 6.790916016153618 39.7705072375696 19.99999999999999
264 11.12222187496522 6.421417793504293 20.00000000000002
265 10.40059491034496 51.91384667438704 19.99999999999998
266 52.01385333596889 10.6688360778728 20.00000000000001
267 18.40540162129052 6.469588546835679 20.00000000000001
268 22.01854261214207 12.90280811079089 20
269 29.6870094817842 12.88609286012762 19.99999999999999
270 25.85879704203307 19.36275405113802 19.99999999999999
271 33.43727030689754 19.37005283247876 19.99999999999999
272 29.61460625881384 25.86246482788844 20.00000000000002
273 22.07214219301508 25.8795509760821 19.99999999999999
274 25.81988563571119 32.41235369878719 20.00000000000001
275 18.34249910783931 32.44418854780611 19.99999999999999
276 38.24790074227835 26.29554529872749 19.99999999999999
277 14.37073034724307 25.88777555984071 20
278 10.84490912470564 32.51106823779298 20
279 10.72347645264315 19.15316746564127 20.00000000000001
280 14.58038239958621 38.8302353824437 20.00000000000001
281 18.01656653243976 19.18431975627529 20
282 22.63465366262632 39.96764654485455 19.99999999999999
283 29.29994909323872 37.91752767018992 20
284 33.35370318781146 6.4192405498642 19.99999999999999
285 37.07920147612755 12.83624254043222 19.99999999999999
286 44.69241534812082 11.99538634601067 19.99999999999999
287 14.51599599262658 12.73475407945678 20.00000000000001
288 6.630780300623387 12.07412026958286 20
289 41.36323337442019 18.85190127103664 19.99999999999999
290 32.97939403021366 32.38292180853449 19.99999999999999
291 49.5382017645905 17.12949177862078 20.00000000000001
292 16.98367274968592 50.33433620989018 19.99999999999998
293 44.63777413571427 29.97413421047522 20
294 11.9135432198454 45.24811589446436 20
295 47.9265820727985 5.697725596396157 19.99999999999999
296 5.719521014419395 47.86316205189247 20
297 4.819218781494195 33.36666562496425 20
298 35.70190188395665 39.85906445748152 20
299 17.83962273671331 44.38434857938876 20
300 29.26394629489782 44.57187277253401 20
301 4.625746021574575 18.53703645823409 20
302 5.428021040223495 5.428020982596108 19.99999999999999
303 5.09765519492576 53.88202469895747 20.00000000000001
304 53.90518112487531 5.069850871419341 20.00000000000001
$EndNodes
$Elements
485
1 2 2 1 1 124 169 163
2 2 2 1 1 163 168 124
3 2 2 1 1 156 169 155
4 2 2 1 1 165 178 117
5 2 2 1 1 170 184 118
6 2 2 1 1 163 169 156
7 2 2 1 1 135 179 137
8 2 2 1 1 169 184 170
9 2 2 1 1 118 177 170
10 2 2 1 1 169 170 155
11 2 2 1 1 117 193 165
12 2 2 1 1 176 177 118
13 2 2 1 1 21 176 22
14 2 2 1 1 179 208 137
15 2 2 1 1 125 138 137
16 2 2 1 1 131 218 132
17 2 2 1 1 131 206 128
18 2 2 1 1 132 207 131
19 2 2 1 1 128 218 131
20 2 2 1 1 165 193 126
21 2 2 1 1 123 174 171
22 2 2 1 1 22 176 118
23 2 2 1 1 188 209 46
24 2 2 1 1 46 202 188
25 2 2 1 1 126 213 165
26 2 2 1 1 123 175 174
27 2 2 1 1 123 176 21
28 2 2 1 1 124 184 169
29 2 2 1 1 127 198 195
30 2 2 1 1 180 183 121
31 2 2 1 1 116 211 189
32 2 2 1 1 174 175 173
33 2 2 1 1 189 202 116
34 2 2 1 1 148 190 152
35 2 2 1 1 171 176 123
36 2 2 1 1 120 204 167
37 2 2 1 1 125 172 138
38 2 2 1 1 191 199 192
39 2 2 1 1 170 181 155
40 2 2 1 1 173 175 121
41 2 2 1 1 18 180 121
42 2 2 1 1 160 199 195
43 2 2 1 1 147 190 148
44 2 2 1 1 167 217 120
45 2 2 1 1 178 182 159
46 2 2 1 1 140 172 166
47 2 2 1 1 134 183 180
48 2 2 1 1 195 201 160
49 2 2 1 1 152 190 162
50 2 2 1 1 139 183 136
51 2 2 1 1 121 183 173
52 2 2 1 1 173 183 139
53 2 2 1 1 159 182 153
54 2 2 1 1 24 184 124
55 2 2 1 1 136 183 134
56 2 2 1 1 16 132 122
57 2 2 1 1 157 182 178
58 2 2 1 1 132 133 122
59 2 2 1 1 187 188 186
60 2 2 1 1 177 181 170
61 2 2 1 1 185 187 186
62 2 2 1 1 16 122 17
63 2 2 1 1 40 128 39
64 2 2 1 1 15 132 16
65 2 2 1 1 171 174 143
66 2 2 1 1 166 187 185
67 2 2 1 1 166 185 142
68 2 2 1 1 145 181 177
69 2 2 1 1 48 191 116
70 2 2 1 1 121 175 19
71 2 2 1 1 158 167 159
72 2 2 1 1 157 165 161
73 2 2 1 1 26 129 27
74 2 2 1 1 158 159 153
75 2 2 1 1 154 158 153
76 2 2 1 1 23 184 24
77 2 2 1 1 148 150 149
78 2 2 1 1 157 161 156
79 2 2 1 1 151 157 156
80 2 2 1 1 50 127 49
81 2 2 1 1 152 153 150
82 2 2 1 1 150 151 149
83 2 2 1 1 138 172 140
84 2 2 1 1 143 174 141
85 2 2 1 1 142 185 144
86 2 2 1 1 127 191 49
87 2 2 1 1 148 149 146
88 2 2 1 1 147 148 146
89 2 2 1 1 19 175 20
90 2 2 1 1 24 124 25
91 2 2 1 1 148 152 150
92 2 2 1 1 49 191 48
93 2 2 1 1 151 156 155
94 2 2 1 1 154 160 158
95 2 2 1 1 154 192 160
96 2 2 1 1 133 134 122
97 2 2 1 1 22 118 23
98 2 2 1 1 152 154 153
99 2 2 1 1 144 146 145
100 2 2 1 1 161 164 163
101 2 2 1 1 151 155 149
102 2 2 1 1 20 175 123
103 2 2 1 1 144 147 146
104 2 2 1 1 20 123 21
105 2 2 1 1 45 119 44
106 2 2 1 1 18 121 19
107 2 2 1 1 43 125 42
108 2 2 1 1 48 116 47
109 2 2 1 1 144 145 143
110 2 2 1 1 145 171 143
111 2 2 1 1 185 186 147
112 2 2 1 1 142 144 143
113 2 2 1 1 144 185 147
114 2 2 1 1 161 163 156
115 2 2 1 1 142 143 141
116 2 2 1 1 140 166 142
117 2 2 1 1 141 174 173
118 2 2 1 1 141 173 139
119 2 2 1 1 140 142 141
120 2 2 1 1 162 192 154
121 2 2 1 1 140 141 139
122 2 2 1 1 164 168 163
123 2 2 1 1 138 139 136
124 2 2 1 1 138 140 139
125 2 2 1 1 35 120 36
126 2 2 1 1 152 162 154
127 2 2 1 1 32 117 33
128 2 2 1 1 30 126 31
129 2 2 1 1 137 138 136
130 2 2 1 1 37 130 38
131 2 2 1 1 195 199 127
132 2 2 1 1 135 137 136
133 2 2 1 1 133 135 134
134 2 2 1 1 135 136 134
135 2 2 1 1 153 182 150
136 2 2 1 1 151 182 157
137 2 2 1 1 53 131 52
138 2 2 1 1 157 178 165
139 2 2 1 1 162 190 189
140 2 2 1 1 118 184 23
141 2 2 1 1 171 177 176
142 2 2 1 1 188 189 186
143 2 2 1 1 137 208 125
144 2 2 1 1 150 182 151
145 2 2 1 1 155 181 149
146 2 2 1 1 186 190 147
147 2 2 1 1 29 196 30
148 2 2 1 1 40 179 128
149 2 2 1 1 129 216 168
150 2 2 1 1 134 180 122
151 2 2 1 1 117 197 33
152 2 2 1 1 120 194 36
153 2 2 1 1 146 181 145
154 2 2 1 1 17 180 18
155 2 2 1 1 178 210 117
156 2 2 1 1 168 216 124
157 2 2 1 1 127 199 191
158 2 2 1 1 145 177 171
159 2 2 1 1 30 196 126
160 2 2 1 1 149 181 146
161 2 2 1 1 33 197 34
162 2 2 1 1 36 194 37
163 2 2 1 1 197 210 167
164 2 2 1 1 164 213 196
165 2 2 1 1 192 211 191
166 2 2 1 1 195 198 130
167 2 2 1 1 189 190 186
168 2 2 1 1 189 211 162
169 2 2 1 1 135 205 179
170 2 2 1 1 41 179 40
171 2 2 1 1 51 198 50
172 2 2 1 1 26 216 129
173 2 2 1 1 39 206 4
174 2 2 1 1 1 207 15
175 2 2 1 1 122 180 17
176 2 2 1 1 166 219 187
177 2 2 1 1 47 202 46
178 2 2 1 1 126 193 31
179 2 2 1 1 167 210 159
180 2 2 1 1 27 212 2
181 2 2 1 1 2 212 28
182 2 2 1 1 43 203 125
183 2 2 1 1 119 203 44
184 2 2 1 1 4 206 53
185 2 2 1 1 52 207 1
186 2 2 1 1 125 203 172
187 2 2 1 1 125 208 42
188 2 2 1 1 194 195 130
189 2 2 1 1 168 215 129
190 2 2 1 1 46 209 45
191 2 2 1 1 37 194 130
192 2 2 1 1 28 200 29
193 2 2 1 1 132 218 133
194 2 2 1 1 165 213 161
195 2 2 1 1 191 211 116
196 2 2 1 1 187 219 119
197 2 2 1 1 120 201 194
198 2 2 1 1 32 193 117
199 2 2 1 1 160 217 158
200 2 2 1 1 35 204 120
201 2 2 1 1 196 213 126
202 2 2 1 1 167 204 197
203 2 2 1 1 124 216 25
204 2 2 1 1 41 208 179
205 2 2 1 1 194 201 195
206 2 2 1 1 31 193 32
207 2 2 1 1 192 199 160
208 2 2 1 1 188 202 189
209 2 2 1 1 38 214 3
210 2 2 1 1 3 214 51
211 2 2 1 1 50 198 127
212 2 2 1 1 29 200 196
213 2 2 1 1 196 215 164
214 2 2 1 1 179 205 128
215 2 2 1 1 187 209 188
216 2 2 1 1 117 210 197
217 2 2 1 1 53 206 131
218 2 2 1 1 131 207 52
219 2 2 1 1 164 215 168
220 2 2 1 1 116 202 47
221 2 2 1 1 201 217 160
222 2 2 1 1 51 214 198
223 2 2 1 1 133 205 135
224 2 2 1 1 44 203 43
225 2 2 1 1 128 206 39
226 2 2 1 1 15 207 132
227 2 2 1 1 197 204 34
228 2 2 1 1 34 204 35
229 2 2 1 1 172 219 166
230 2 2 1 1 119 219 203
231 2 2 1 1 159 210 178
232 2 2 1 1 42 208 41
233 2 2 1 1 205 218 128
234 2 2 1 1 162 211 192
235 2 2 1 1 45 209 119
236 2 2 1 1 129 212 27
237 2 2 1 1 119 209 187
238 2 2 1 1 161 213 164
239 2 2 1 1 130 214 38
240 2 2 1 1 25 216 26
241 2 2 1 1 158 217 167
242 2 2 1 1 198 214 130
243 2 2 1 1 200 215 196
244 2 2 1 1 120 217 201
245 2 2 1 1 28 212 200
246 2 2 1 1 129 215 200
247 2 2 1 1 200 212 129
248 2 2 1 1 203 219 172
249 2 2 1 1 133 218 205
250 2 2 2 2 60 54 222
251 2 2 2 2 59 64 228
252 2 2 2 2 5 54 60
253 2 2 2 2 59 7 64
254 2 2 2 2 223 221 224
255 2 2 2 2 224 221 226
256 2 2 2 2 223 59 228
257 2 2 2 2 222 54 229
258 2 2 2 2 61 60 222
259 2 2 2 2 63 62 221
260 2 2 2 2 55 56 220
261 2 2 2 2 58 59 223
262 2 2 2 2 57 58 224
263 2 2 2 2 58 223 224
264 2 2 2 2 56 6 227
265 2 2 2 2 6 57 227
266 2 2 2 2 54 55 229
267 2 2 2 2 220 224 226
268 2 2 2 2 226 222 229
269 2 2 2 2 61 222 225
270 2 2 2 2 225 222 226
271 2 2 2 2 221 62 225
272 2 2 2 2 62 61 225
273 2 2 2 2 63 221 228
274 2 2 2 2 57 224 227
275 2 2 2 2 221 223 228
276 2 2 2 2 220 56 227
277 2 2 2 2 64 63 228
278 2 2 2 2 55 220 229
279 2 2 2 2 224 220 227
280 2 2 2 2 220 226 229
281 2 2 2 2 221 225 226
282 2 2 3 4 242 243 232
283 2 2 3 4 243 245 232
284 2 2 3 4 232 245 236
285 2 2 3 4 236 246 232
286 2 2 3 4 235 248 238
287 2 2 3 4 234 247 237
288 2 2 3 4 238 249 235
289 2 2 3 4 237 250 234
290 2 2 3 4 234 246 236
291 2 2 3 4 239 248 235
292 2 2 3 4 236 247 234
293 2 2 3 4 237 249 238
294 2 2 3 4 238 250 237
295 2 2 3 4 235 251 239
296 2 2 3 4 240 252 241
297 2 2 3 4 233 252 240
298 2 2 3 4 73 239 233
299 2 2 3 4 68 234 69
300 2 2 3 4 85 235 84
301 2 2 3 4 72 239 73
302 2 2 3 4 81 236 80
303 2 2 3 4 70 238 71
304 2 2 3 4 83 237 82
305 2 2 3 4 73 233 74
306 2 2 3 4 66 232 67
307 2 2 3 4 74 240 75
308 2 2 3 4 65 242 66
309 2 2 3 4 236 245 80
310 2 2 3 4 235 249 84
311 2 2 3 4 234 250 69
312 2 2 3 4 232 246 67
313 2 2 3 4 238 248 71
314 2 2 3 4 237 247 82
315 2 2 3 4 68 246 234
316 2 2 3 4 72 248 239
317 2 2 3 4 81 247 236
318 2 2 3 4 70 250 238
319 2 2 3 4 83 249 237
320 2 2 3 4 79 243 78
321 2 2 3 4 88 241 87
322 2 2 3 4 233 240 74
323 2 2 3 4 66 242 232
324 2 2 3 4 89 231 90
325 2 2 3 4 77 230 76
326 2 2 3 4 231 243 242
327 2 2 3 4 240 241 230
328 2 2 3 4 239 244 233
329 2 2 3 4 80 245 79
330 2 2 3 4 71 248 72
331 2 2 3 4 82 247 81
332 2 2 3 4 67 246 68
333 2 2 3 4 84 249 83
334 2 2 3 4 69 250 70
335 2 2 3 4 86 251 85
336 2 2 3 4 10 254 88
337 2 2 3 4 8 255 65
338 2 2 3 4 78 256 11
339 2 2 3 4 75 253 9
340 2 2 3 4 79 245 243
341 2 2 3 4 87 252 86
342 2 2 3 4 244 251 86
343 2 2 3 4 244 252 233
344 2 2 3 4 240 253 75
345 2 2 3 4 65 255 242
346 2 2 3 4 90 255 8
347 2 2 3 4 76 254 10
348 2 2 3 4 11 256 89
349 2 2 3 4 9 253 77
350 2 2 3 4 239 251 244
351 2 2 3 4 243 256 78
352 2 2 3 4 88 254 241
353 2 2 3 4 230 253 240
354 2 2 3 4 242 255 231
355 2 2 3 4 86 252 244
356 2 2 3 4 231 256 243
357 2 2 3 4 241 254 230
358 2 2 3 4 85 251 235
359 2 2 3 4 241 252 87
360 2 2 3 4 231 255 90
361 2 2 3 4 230 254 76
362 2 2 3 4 89 256 231
363 2 2 3 4 77 253 230
364 2 2 4 210102 276 289 262
365 2 2 4 210102 262 293 276
366 2 2 4 210102 278 280 263
367 2 2 4 210102 286 291 289
368 2 2 4 210102 289 291 262
369 2 2 4 210102 263 297 278
370 2 2 4 210102 282 300 260
371 2 2 4 210102 268 287 267
372 2 2 4 210102 283 300 282
373 2 2 4 210102 276 293 258
374 2 2 4 210102 257 279 277
375 2 2 4 210102 277 278 257
376 2 2 4 210102 98 288 99
377 2 2 4 210102 258 290 276
378 2 2 4 210102 273 281 270
379 2 2 4 210102 281 287 268
380 2 2 4 210102 270 281 268
381 2 2 4 210102 267 287 264
382 2 2 4 210102 277 281 273
383 2 2 4 210102 111 300 298
384 2 2 4 210102 279 288 287
385 2 2 4 210102 279 281 277
386 2 2 4 210102 115 265 114
387 2 2 4 210102 106 266 105
388 2 2 4 210102 275 277 273
389 2 2 4 210102 108 262 107
390 2 2 4 210102 275 278 277
391 2 2 4 210102 113 260 112
392 2 2 4 210102 110 258 109
393 2 2 4 210102 274 275 273
394 2 2 4 210102 96 264 97
395 2 2 4 210102 275 280 278
396 2 2 4 210102 272 273 270
397 2 2 4 210102 275 282 280
398 2 2 4 210102 95 267 96
399 2 2 4 210102 96 267 264
400 2 2 4 210102 274 282 275
401 2 2 4 210102 100 257 101
402 2 2 4 210102 94 259 95
403 2 2 4 210102 272 274 273
404 2 2 4 210102 93 284 94
405 2 2 4 210102 102 263 103
406 2 2 4 210102 259 269 268
407 2 2 4 210102 259 267 95
408 2 2 4 210102 269 270 268
409 2 2 4 210102 259 268 267
410 2 2 4 210102 92 261 93
411 2 2 4 210102 271 272 270
412 2 2 4 210102 269 271 270
413 2 2 4 210102 274 283 282
414 2 2 4 210102 271 276 272
415 2 2 4 210102 94 284 259
416 2 2 4 210102 261 284 93
417 2 2 4 210102 259 284 269
418 2 2 4 210102 261 285 284
419 2 2 4 210102 284 285 269
420 2 2 4 210102 269 285 271
421 2 2 4 210102 98 302 288
422 2 2 4 210102 279 287 281
423 2 2 4 210102 271 289 276
424 2 2 4 210102 298 300 283
425 2 2 4 210102 290 298 283
426 2 2 4 210102 261 286 285
427 2 2 4 210102 280 294 263
428 2 2 4 210102 287 288 264
429 2 2 4 210102 285 289 271
430 2 2 4 210102 286 289 285
431 2 2 4 210102 278 297 257
432 2 2 4 210102 276 290 272
433 2 2 4 210102 274 290 283
434 2 2 4 210102 257 301 279
435 2 2 4 210102 258 298 290
436 2 2 4 210102 91 295 92
437 2 2 4 210102 13 302 98
438 2 2 4 210102 97 302 13
439 2 2 4 210102 257 297 101
440 2 2 4 210102 102 297 263
441 2 2 4 210102 103 296 104
442 2 2 4 210102 100 301 257
443 2 2 4 210102 279 301 288
444 2 2 4 210102 266 291 286
445 2 2 4 210102 265 294 292
446 2 2 4 210102 265 292 114
447 2 2 4 210102 106 291 266
448 2 2 4 210102 262 291 107
449 2 2 4 210102 272 290 274
450 2 2 4 210102 108 293 262
451 2 2 4 210102 113 292 260
452 2 2 4 210102 258 293 109
453 2 2 4 210102 107 291 106
454 2 2 4 210102 261 295 286
455 2 2 4 210102 114 292 113
456 2 2 4 210102 109 293 108
457 2 2 4 210102 260 299 282
458 2 2 4 210102 14 303 115
459 2 2 4 210102 105 304 12
460 2 2 4 210102 104 303 14
461 2 2 4 210102 12 304 91
462 2 2 4 210102 286 295 266
463 2 2 4 210102 111 298 110
464 2 2 4 210102 112 300 111
465 2 2 4 210102 282 299 280
466 2 2 4 210102 294 299 292
467 2 2 4 210102 288 302 264
468 2 2 4 210102 263 296 103
469 2 2 4 210102 91 304 295
470 2 2 4 210102 92 295 261
471 2 2 4 210102 288 301 99
472 2 2 4 210102 296 303 104
473 2 2 4 210102 110 298 258
474 2 2 4 210102 101 297 102
475 2 2 4 210102 260 300 112
476 2 2 4 210102 99 301 100
477 2 2 4 210102 264 302 97
478 2 2 4 210102 115 303 265
479 2 2 4 210102 266 304 105
480 2 2 4 210102 294 296 263
481 2 2 4 210102 292 299 260
482 2 2 4 210102 265 296 294
483 2 2 4 210102 280 299 294
484 2 2 4 210102 295 304 266
485 2 2 4 210102 265 303 296
$EndElements
