$MeshFormat
2.2 0 8
$EndMeshFormat
$PhysicalNames
4
2 1 "horn_surface"
2 2 "throat_cap"
2 3 "interface_wall"
2 4 "interface_face"
$EndPhysicalNames
$Nodes
430
1 15 0 -100
2 0 15 -100
3 60 0 40
4 0 60 0
5 60 0 50
6 0 60 10
7 4.8 0 13.2
8 0 4.8 10
9 0 0 -100
10 0 0 13.2
11 14.47935266101804 3.879747568792221 -100
12 12.98183200277036 7.495073559506185 -100
13 10.59962472916665 10.59962472916668 -100
14 7.495073559506146 12.98183200277038 -100
15 3.879747568792177 14.47935266101805 -100
16 4.66091314159001 1.133837264546919 13.01747513664836
17 4.109294816722277 2.474549753484326 12.34644105778138
18 2.891467466369537 3.827416525295725 11.16387116299195
19 1.399246939653452 4.58822464836224 10.27577790210955
20 0 11.25 -100
21 0 7.5 -100
22 0 3.75 -100
23 3.75 0 -100
24 7.5 0 -100
25 11.25 0 -100
26 0 2.240397525076765 11.70640164994882
27 3.01935407615328 0 13.2
28 4.022106490474632 0 13.2
29 14.47935266101804 3.87974756879222 -100
30 12.98183200277036 7.495073559506187 -100
31 10.59962472916665 10.59962472916668 -100
32 7.495073559506151 12.98183200277037 -100
33 3.879747568792178 14.47935266101805 -100
34 0 15.06961442026165 -96.06682401702032
35 0 15.28837703928126 -91.99476455662534
36 0 15.6714358156216 -87.78492964041462
37 0 16.23413343137488 -83.43944770739284
38 0 16.99178664281129 -78.96148204196398
39 0 17.95945091192069 -74.35519984973787
40 0 19.15169124841555 -69.62570107521147
41 0 20.58236508987949 -64.77890416957439
42 0 22.26444172110502 -59.82139405568998
43 0 24.20985833354765 -54.7602477856461
44 0 26.42943248267972 -49.60283839880201
45 0 28.93282109757708 -44.35664956151933
46 0 31.72854076421516 -39.02907642560318
47 0 34.82402078252761 -33.62728019279013
48 0 38.22570517520589 -28.15803565028401
49 0 41.93917219331762 -22.6276361793795
50 0 45.96927295827417 -17.04181378966152
51 0 50.32027578673254 -11.40569894847345
52 0 54.99601115494905 -5.723796949835372
53 59.42716279489511 7.923740982265564 39.24096769138484
54 57.92053490006082 15.50732983564504 37.27897250983191
55 55.56543153524975 22.53327405925033 34.31319970803263
56 52.51405895354815 28.9402715615014 30.6536769840252
57 48.86884778651125 34.74336437602108 26.55283013636643
58 44.68542608401263 39.98097228995171 22.20991653712409
59 39.98097228995162 44.6854260840127 17.79008346287583
60 34.74336437602098 48.86884778651132 13.44716986363349
61 28.94027156150129 52.51405895354821 9.346323015974727
62 22.53327405925032 55.56543153524976 5.686800291967367
63 15.50732983564491 57.92053490006086 2.721027490168049
64 7.923740982265408 59.42716279489512 0.7590323086151342
65 15.03734172480209 0 -95.9670910919739
66 15.15334845842929 0 -91.82737379297104
67 15.35418281655012 0 -87.57960218978759
68 15.64625077579923 0 -83.22269145997596
69 16.03619149404171 0 -78.75573024677452
70 16.5308631154091 0 -74.17799517403958
71 17.13732469086849 0 -69.48895898122876
72 17.86281770783554 0 -64.68829943610916
73 18.71474455637605 0 -59.77590755415668
74 19.70064409280608 0 -54.75188821904811
75 20.82816740059413 0 -49.61656299329911
76 22.10505212156174 0 -44.37046713128073
77 23.53909558540049 0 -39.01434195472903
78 25.13812799374241 0 -33.54913094302236
79 26.90998930452663 0 -27.97596223526448
80 28.86250325049806 0 -22.29613738393582
81 31.00345714631326 0 -16.51111015615272
82 33.34058281734264 0 -10.6224710433286
83 35.88154085643811 0 -4.631917499881398
84 38.63390586646609 0 1.458755219408316
85 41.6051625962158 0 7.647695411956438
86 44.80269695750339 0 13.93300780657133
87 48.23379786161701 0 20.31278091967971
88 51.90565886624756 0 26.78511268847619
89 55.82538482772118 0 33.34812757229087
90 59.42716279489511 7.923740982265564 39.24096769138484
91 57.92053490006082 15.50732983564504 37.27897250983191
92 55.56543153524975 22.53327405925033 34.31319970803263
93 52.51405895354815 28.9402715615014 30.6536769840252
94 48.86884778651125 34.74336437602108 26.55283013636643
95 44.68542608401263 39.98097228995171 22.20991653712409
96 39.98097228995162 44.6854260840127 17.79008346287583
97 34.74336437602098 48.86884778651132 13.44716986363349
98 28.94027156150129 52.51405895354821 9.346323015974727
99 22.53327405925032 55.56543153524976 5.686800291967367
100 15.50732983564491 57.92053490006086 2.721027490168049
101 7.923740982265408 59.42716279489512 0.7590323086151342
102 0 60 5
103 59.42716279489511 7.923740982265564 49.24096769138485
104 57.92053490006082 15.50732983564504 47.2789725098319
105 55.56543153524975 22.53327405925033 44.31319970803263
106 52.51405895354815 28.9402715615014 40.6536769840252
107 48.86884778651125 34.74336437602108 36.55283013636642
108 44.68542608401263 39.98097228995171 32.20991653712409
109 39.98097228995162 44.6854260840127 27.79008346287583
110 34.74336437602098 48.86884778651132 23.44716986363349
111 28.94027156150129 52.51405895354821 19.34632301597473
112 22.53327405925032 55.56543153524976 15.68680029196737
113 15.50732983564491 57.92053490006086 12.72102749016805
114 7.923740982265408 59.42716279489512 10.75903230861513
115 60 0 45
116 59.42716279489511 7.923740982265564 49.24096769138485
117 57.92053490006082 15.50732983564504 47.2789725098319
118 55.56543153524975 22.53327405925033 44.31319970803263
119 52.51405895354815 28.9402715615014 40.6536769840252
120 48.86884778651125 34.74336437602108 36.55283013636642
121 44.68542608401263 39.98097228995171 32.20991653712409
122 39.98097228995162 44.6854260840127 27.79008346287583
123 34.74336437602098 48.86884778651132 23.44716986363349
124 28.94027156150129 52.51405895354821 19.34632301597473
125 22.53327405925032 55.56543153524976 15.68680029196737
126 15.50732983564491 57.92053490006086 12.72102749016805
127 7.923740982265408 59.42716279489512 10.75903230861513
128 0 52.71253428849815 10
129 0 45.42506857699615 10
130 0 38.13760286549398 10
131 0 30.85013715399167 10
132 0 23.56267144248918 10
133 0 16.27520573098655 10
134 0 9.671545498410673 10
135 4.66114415500815 1.13288720155672 13.01777383430831
136 4.108711413939446 2.475518310434182 12.34577604493079
137 2.889324458909458 3.829034550054251 11.16215282109809
138 1.398214603231175 4.588539345224184 10.27537733812024
139 53.48657160497748 0 45.65771440331832
140 46.97314320995479 0 41.31542880663653
141 40.45971481493194 0 36.97314320995464
142 33.94628641990892 0 32.63085761327262
143 27.43285802488574 0 28.2885720165905
144 20.94006892004534 0 23.96004594669689
145 15.63998332694205 0 20.4266555512947
146 11.847868556457 0 17.898579037638
147 9.13103380438853 0 16.08735586959235
148 5.802545857736088 0 13.86836390515739
149 31.90589456338946 5.217809087560185 -13.74418776246327
150 4.770961379333277 36.08474329381161 -30.47932884167329
151 5.337701368388288 43.40082236989674 -19.52481341005853
152 31.33361373221343 45.52953983077985 6.825730707081716
153 5.067811162857648 29.67088492784845 -41.34662567037082
154 25.80488417972859 4.84259334348313 -30.63524699024875
155 37.16750503038671 5.377203515331932 -1.445285239759087
156 20.13457077275044 3.895803050177749 -51.48271819688894
157 4.278593941969987 20.82325355198735 -62.04289304371376
158 43.17380512001216 5.310706785327417 10.9576364064214
159 16.42536463451063 3.891703443779055 -71.74480765571792
160 4.723266012926761 24.65045078596721 -51.89354441446866
161 15.50148166684164 3.27030465503941 -80.96488656114521
162 14.80954447826968 3.607338297198158 -89.68248524459558
163 17.88984216318462 3.881555777476039 -62.48509917072973
164 22.51905112011379 4.728511084269496 -41.61127354701647
165 4.103315033702177 17.95291556628612 -71.83852945627186
166 19.39365023614763 51.9558611970439 -0.4607869679863445
167 44.9207031276047 32.44576200087892 19.71527806316853
168 3.69371587252483 15.45399030901431 -85.54759966494287
169 11.84148705368908 9.271580832029271 -95.87046790341499
170 51.8456514105216 21.36835973549834 28.23040024785013
171 3.24275783429113 14.77631993355402 -94.35955155945369
172 49.98323168839155 6.358116861999073 23.59801780063621
173 6.229006795498905 52.10933532649425 -8.113124240837529
174 53.33252402679006 5.566931973422487 29.31501266748831
175 51.61333522497105 12.92718145664371 26.84177879985172
176 47.75074334055449 12.75178972527239 20.13635961322019
177 11.63293250745332 53.93447501852558 -3.744565047253541
178 16.53198995142284 48.2910782008556 -6.668546299609741
179 22.66873456771682 45.8102509120717 -3.296160426061395
180 19.775017632146 42.55695081142228 -9.713588619349329
181 25.27320545619064 39.41497099496754 -6.043555498355429
182 22.77910489320737 36.55908407477285 -12.11513353604575
183 27.49120957198254 33.16188825122097 -8.08985428925501
184 25.15174075857846 30.34798332505514 -14.29033411057048
185 29.23535816043537 26.93831105035817 -9.742864015356471
186 31.51522465108068 29.3255036782435 -4.079813191062057
187 27.63575607754532 23.6453437375593 -15.12980479683403
188 23.28829280365862 27.73914560722928 -19.92489407603611
189 25.11525314220696 21.7478363369884 -21.77563169877885
190 21.53287538903569 25.27977529911128 -25.64297653994486
191 23.48770305359581 19.6695329223542 -27.15319806657006
192 32.72582239872722 23.17473594521958 -5.381597442545325
193 35.21663211060868 25.40899652961452 0.4239998187380473
194 20.06419933267695 22.97579190628952 -31.09725508283088
195 19.05732447096915 30.81362990871537 -23.65223419354294
196 26.31354123436868 15.60787778062078 -23.67938337006169
197 21.94718400617511 17.44944002796962 -32.93877564207974
198 18.69334989591913 20.80153183002694 -36.67919180718961
199 16.16917542408559 25.84243318475133 -34.68389902768778
200 14.88005173621971 23.72662611763004 -40.11281422781809
201 17.55099007793528 18.92486166353255 -41.8732182124136
202 27.62720057194924 5.038258318947261 -25.18075709520252
203 13.82935766332068 21.70852957649017 -45.45329912690163
204 16.49538198485392 17.0823469032149 -47.35544697570031
205 34.04798843342711 32.05526180888955 1.876738208712394
206 37.67113993677755 27.92484605084482 5.956502929127907
207 38.36307927383273 21.03986926537714 4.546429769172282
208 41.13571889156785 23.72094931994419 10.49953955895146
209 4.895731433161054 27.0231760698982 -46.63961752494618
210 12.96353129886283 19.87339369817341 -50.64866260658082
211 15.64325524484407 15.4709342034114 -52.53049048509088
212 12.30111062603311 18.2030307898633 -55.65611576321152
213 14.94821099852107 14.0114690362211 -57.59010526817784
214 16.70938140750536 39.71868123970582 -16.16826955445354
215 6.237562954779152 47.5024103018844 -13.80045409874033
216 11.75468791253159 16.69898557963484 -60.63588743760484
217 14.44117574105563 12.72195579637039 -62.31202330462574
218 11.34108429223042 15.34386685454498 -65.57544140887121
219 13.98533156194005 11.51525308299701 -67.3529214402682
220 11.15088000039768 14.09252738513969 -70.28795597103894
221 13.69280995336629 10.45715961768908 -72.05199793133973
222 11.05636707566544 13.02821508840304 -74.78634000543308
223 3.788922544215806 16.9563711357835 -76.52461132845484
224 19.41083577918072 13.8962973198131 -43.81203808665965
225 4.353699927763969 22.64236970335824 -57.02145522358069
226 4.058598507324117 19.29636036802953 -67.00877966362251
227 36.60104591639435 34.81110742420481 7.539183956279544
228 13.508542493283 9.508884000407692 -76.62811800155725
229 11.03128306090002 12.10048315299147 -79.27147374725544
230 41.54424089971457 16.81793137419523 9.40323747939075
231 38.99868294974105 14.07440116325677 3.842823824305133
232 40.01717978847819 5.782729409969029 4.653159895076414
233 17.63285796734394 10.91813963438014 -53.91436544606599
234 10.88490324774579 29.03147375455225 -37.35861237753196
235 13.54390138541316 30.31685315985623 -32.10002420673854
236 4.542710130920725 32.82646149572587 -35.95084290391568
237 44.39234384976904 19.43577232661426 15.19859611186079
238 26.1746213207327 10.1720298799633 -27.31563013787363
239 24.14299715116951 9.962104037228666 -33.27284642567587
240 20.50153525946766 15.63676086929798 -38.62497111254484
241 9.983443278104218 26.2191797023777 -43.34752027232526
242 13.41906842215692 8.656629995205144 -81.0824449915055
243 11.08687165771539 11.28177992278446 -83.76918900939599
244 13.41165930101326 7.886508523794078 -85.4181106159688
245 11.2704316045762 10.52545038167707 -88.12048370207368
246 7.813153178752035 14.09774538601336 -82.66990209296004
247 13.8224176035793 45.03047233499373 -12.54722606147483
248 28.12146095986549 42.56673886811867 0.4022522931182356
249 3.470132684322617 16.1715760965024 -81.10152619960513
250 7.800362095239425 13.54776891728766 -86.85080162444504
251 8.736882943616308 12.55817658221316 -90.63898003649116
252 9.13352429481599 11.93617748307324 -96.5927538378436
253 4.705803129440053 14.69280644215021 -89.76107551899011
254 11.63709066472402 9.740307176725359 -92.07044414290074
255 13.64113382947858 6.485627119704096 -93.31539620657266
256 18.37468763432467 12.39035278196901 -49.09238489025315
257 20.65151699657745 8.958336039067733 -45.35291835927376
258 22.1575700502621 10.30839771617902 -39.10745930673455
259 17.02125530932898 9.148089308945183 -59.33146930645363
260 19.0238031403254 5.900803577288639 -54.83267362730361
261 16.12103048706781 8.705254362369548 -64.36246601708969
262 17.13261590312575 3.787091578092666 -67.07845225855753
263 24.19266145999176 4.35578808742763 -35.94675744278398
264 15.0711580753713 3.502018482414288 -85.71488000336205
265 29.69154569791946 5.096487721679592 -19.47216465905372
266 30.30550880819976 10.60421094931448 -16.34398740151739
267 32.5852851191372 10.91223543558787 -10.78425802908404
268 30.41433962972409 16.37591236130983 -13.63298452526712
269 33.51223468502023 6.776514928776052 -9.579769712556576
270 46.46040842607606 5.801990043897533 17.22866488285566
271 9.340386408261256 23.89707996640396 -48.69503913789286
272 36.0217174837161 17.65908012411447 -1.167982275601845
273 35.05886724422548 10.57603282446255 -5.251908117399626
274 33.1655017643934 16.89437148928123 -7.38335494071328
275 30.67956257255757 21.85343359682108 -10.15709837939096
276 5.028036850924622 39.60215971861989 -25.01746722538936
277 11.06969193366585 39.70022921448496 -21.39783414998135
278 36.34631843665051 41.65218362857828 11.027735391165
279 8.474615119737775 20.07296999641862 -58.75152132154145
280 25.77047510101191 49.07729043129135 3.05817290763739
281 44.39062566285856 12.4225470740654 13.98227267901693
282 7.846581400830579 14.88935133734454 -78.00622408669959
283 15.92566561193392 3.610796760417784 -76.18142644101999
284 29.96601193857439 36.00200656328609 -2.056082261756708
285 8.876787308495416 21.79781737440782 -53.91047426489649
286 20.5994896570709 33.74738467154782 -18.07779149069805
287 17.66504151562236 28.19761087771103 -29.03340638816671
288 8.092669222935569 18.51883212647752 -63.73361098936405
289 28.14950621680045 10.39947559516847 -21.89254568627666
290 10.086337730292 36.512989180609 -26.59959839953695
291 15.68940312076608 36.04891717650474 -21.74185832752544
292 13.42100096475332 7.306367472339466 -89.4800243563856
293 40.74106428553774 30.70290057062307 12.32309823837769
294 40.64396192235876 37.40468052029468 15.08562628667728
295 47.89006995501192 19.80821568490396 21.38276887836056
296 14.44615146350733 32.83674910534255 -27.40928003214328
297 7.849205374672672 15.86473319922458 -73.51222109604026
298 48.44291215585452 27.15112138991427 23.82458302608435
299 44.32699587554514 26.11173143975477 16.75105032033334
300 5.751800066513917 13.88604196802866 -96.84118200316996
301 7.934495065548278 17.06943313988083 -68.71908946782146
302 32.399210481659 38.62993193870874 3.427609500473931
303 15.61822061195176 7.587607259010102 -69.59811127398693
304 27.85902601049755 18.1498585340418 -18.39901933168723
305 21.25247380458997 3.764980396556052 -46.87857944160746
306 5.290144649264339 56.16450638659825 -3.614314842743052
307 54.48565850596314 16.16861523294188 31.88046048631884
308 14.80250333256363 2.834359500315758 -94.11007480096738
309 24.20810648826934 14.5000129416234 -29.81094969902601
310 41.71274414430663 10.87414929082653 8.650855407632205
311 15.17392708617268 6.987990895019316 -74.02937170657485
312 13.87175384081563 5.755581826462807 -96.63838682254172
313 35.18629373728287 4.2322457391735 -6.006657598448895
314 7.404553402818109 13.18654451762644 -94.03637856192944
315 19.6245354025781 8.163100124493855 -49.9634509822671
316 11.08303107620106 49.40906312275106 -9.21958982770253
317 10.78824840340036 43.17828280936143 -17.04401113998924
318 55.77941719384066 9.326171444844887 33.49928980323733
319 9.197146195817185 33.27109464949154 -32.20080121923512
320 14.8013773004184 6.413742243330725 -78.711832073176
321 37.35115567127052 10.7093113749403 -0.2567963631869261
322 22.54798736444426 13.67518009742033 -34.9947933852488
323 2.803107730429217 14.75960703398112 -97.23978994622823
324 14.73553996532306 2.848867719927921 -97.20818360765578
325 18.67451764345628 3.851873905285441 -58.34985786369172
326 14.6264620579538 5.773082827752439 -82.80271696988957
327 9.773895520384228 11.53267449306812 -93.79362789478078
328 28.46144160959671 13.93631387084797 -19.41885239195786
329 59.79186033388399 4.325121719111607 42.50000000002701
330 4.241539729747148 59.79775912348627 7.523502710659125
331 58.55197521605871 12.92020240416907 42.2789725098319
332 12.92020240416932 58.55197521605864 7.72102749016768
333 13.86768603521888 3.380009020748157 18.97697715418729
334 24.41630375467552 6.123203264878141 25.77954855836844
335 6.263326348674674 34.49387000989351 10.77531311392787
336 4.420107319442766 4.297025810648918 12.11410648668529
337 6.228701766249387 1.724251232022027 13.99973427608966
338 33.40507156273978 40.97943664695995 24.08964201708616
339 43.20797365860375 32.74463444067262 32.95985256488568
340 5.421492124330358 20.15615242316391 10.95524507643035
341 37.608910017489 6.195191490344205 34.72329098689447
342 4.8371848249595 12.97337561469938 11.13653330385317
343 9.988237784478986 15.98455907846651 13.53820079018749
344 22.89677054617475 48.30790546946753 16.57178965114202
345 50.57371557829818 22.65782628130965 40.75688208826902
346 11.36641187264614 21.82158470201295 13.51527173449425
347 14.88538243340759 17.70048822234332 16.39472332451113
348 16.71793131547921 23.75477391900479 16.42727150630989
349 19.98140075460823 19.51334923877834 19.53597438089007
350 21.85405459872563 25.73532581843467 19.44157779810551
351 25.42168131740242 21.32186192496743 22.98862097480307
352 18.01630594399452 29.69155049146656 16.24883840032142
353 9.436085320366164 10.880505194288 14.12606117613471
354 13.04999141967647 12.68581025922647 16.2419080938817
355 17.58930033637345 13.21518870958541 19.37581868444846
356 3.289415210148236 6.516886369841549 10.99260267114313
357 5.1199568806391 7.054669213000381 12.00855356856173
358 10.86484247989302 2.35905863527801 17.07408582607852
359 6.437074073914906 5.499146358307497 13.26383926652617
360 27.41503618488482 27.87535595009859 22.82453883085157
361 31.10750696687994 23.26501921156003 26.60877506191115
362 5.655547802315674 48.9448112248924 10.48500493014435
363 29.4103484237981 17.05270575752454 26.95825958878302
364 35.05494413571037 18.5489972883995 30.6504403182517
365 49.90043731789468 5.453615932934148 43.04388926023179
366 32.9874291659784 29.72091152849922 26.3450116152956
367 12.02504055484408 6.049428340062807 17.15921290938846
368 16.49783951116758 7.393239689693605 20.0328764557358
369 7.246148026272566 26.12740330830135 11.31225720901957
370 23.15721201377252 15.2245171364177 22.89882743580521
371 20.94124654360178 9.660636182298154 22.67213646701232
372 17.69792790922175 3.412939507822499 21.5781219137109
373 30.8707384795327 6.018142340492943 30.18796542899053
374 6.010030905488886 3.512005323046814 13.45862999631466
375 7.42916587664689 3.810869038971926 14.40544636557907
376 8.637374418693252 6.222800152389037 14.67213899035326
377 7.218712446121951 8.469222632055795 13.12537877104808
378 29.40280594346436 34.76260506163485 22.67369364296298
379 1.557228492848116 6.93862350123497 10.23312433953872
380 5.68042766950327 41.88635409409355 10.55139433300426
381 12.10589527115505 38.56655684256444 12.44772419278099
382 12.69834312228181 32.07981620633679 13.1398583292383
383 43.96686787966338 6.216225611023529 39.00157512998636
384 40.96036834469301 13.4940681186972 35.92239383458199
385 23.50804398707326 32.55439708357078 19.19204829227842
386 19.06191218202213 37.06169734528814 15.83742238105576
387 16.7717977706789 43.74589317603324 14.03586616629275
388 25.90461505137244 38.98322535386448 19.58020095836629
389 36.37656940742991 24.74173253089738 30.05140491148894
390 40.4229701825362 20.63085330243306 33.99562116212455
391 28.04205749953477 45.434101699759 19.84626798403828
392 38.86154066913998 37.27039240420608 28.70863293209704
393 17.05413048383708 50.23542322390949 13.69417646287521
394 46.49314491253323 26.57700932064968 36.90308566755422
395 47.65244339341958 11.76788013288251 40.82397521966029
396 11.29915596170205 45.73158533660572 11.84456887140483
397 45.92114617190566 18.20468470785208 38.44652808150283
398 52.17094429052698 16.7597740837196 43.09664272165988
399 33.95479186286179 12.0354175833685 31.32538162351479
400 20.50032426961334 5.401757475137088 23.20831819958047
401 11.40471386815002 52.89891440672226 11.64667098715597
402 7.686598497386719 1.85566112205099 14.97840533492953
403 4.669085742762833 54.81601580714352 10.32527662733404
404 27.57146608190136 11.30952184944269 26.99849466989559
405 41.09841960500495 27.10206446473288 32.87132781767519
406 3.546210214142858 9.505581640276414 10.83361469799215
407 53.92380602911467 9.101659045023615 45.42534959250024
408 11.3223491981672 8.899315969408596 15.93542545266103
409 37.82701129891444 31.00026546329622 29.5092081051863
410 13.09664335227827 26.3834597364198 13.90027152057919
411 21.90165588783977 42.14474166837184 16.76133471941951
412 34.10251838467622 35.41661442315147 25.78139216287346
413 9.775530967821082 4.412085516315239 15.93771803404757
414 14.49781651869067 9.931114890357321 17.97348697882043
415 5.159821676462521 2.566749532099422 13.07883769674426
416 3.110396197534058 5.552883050147051 -100
417 9.146661171247789 6.596090466039802 -100
418 4.59042987089753 10.65083854882765 -100
419 9.093991809039828 2.922097465250262 -100
420 5.906863087039818 3.552319746729026 -100
421 7.566718246778375 9.575672492817459 -100
422 5.642414005370867 7.288554296253922 -100
423 2.74519052838329 2.745190528383289 -100
424 11.3903675288152 4.178601811917694 -100
425 2.670884504240692 8.376107662493293 -100
426 3.280557239718232 1.354361412429109 12.69118670798659
427 1.677759747010814 1.191657554790531 12.53335099700257
428 2.072689427639817 2.408711851141793 11.89017682864079
429 1.2778508865632 3.552367909087757 10.97308403259763
430 3.91592672003527 0.6466206986886559 13.02462789334787
$EndNodes
$Elements
710
1 2 2 1 1 268 304 187
2 2 2 1 1 153 236 234
3 2 2 1 1 239 263 258
4 2 2 1 1 187 275 268
5 2 2 1 1 89 318 53
6 2 2 1 1 36 253 35
7 2 2 1 1 246 250 168
8 2 2 1 1 236 319 234
9 2 2 1 1 234 241 153
10 2 2 1 1 53 3 89
11 2 2 1 1 273 274 272
12 2 2 1 1 174 318 89
13 2 2 1 1 264 292 244
14 2 2 1 1 253 314 171
15 2 2 1 1 168 249 246
16 2 2 1 1 162 292 264
17 2 2 1 1 278 294 227
18 2 2 1 1 258 263 164
19 2 2 1 1 272 321 273
20 2 2 1 1 227 294 293
21 2 2 1 1 175 295 170
22 2 2 1 1 167 299 293
23 2 2 1 1 35 253 171
24 2 2 1 1 162 308 255
25 2 2 1 1 293 294 167
26 2 2 1 1 249 282 246
27 2 2 1 1 163 261 259
28 2 2 1 1 223 282 249
29 2 2 1 1 255 292 162
30 2 2 1 1 227 302 278
31 2 2 1 1 251 314 253
32 2 2 1 1 278 302 152
33 2 2 1 1 214 291 277
34 2 2 1 1 176 295 175
35 2 2 1 1 74 325 260
36 2 2 1 1 232 321 231
37 2 2 1 1 258 322 239
38 2 2 1 1 234 319 235
39 2 2 1 1 168 253 36
40 2 2 1 1 277 317 214
41 2 2 1 1 245 250 243
42 2 2 1 1 176 281 237
43 2 2 1 1 295 299 298
44 2 2 1 1 233 315 260
45 2 2 1 1 73 325 74
46 2 2 1 1 231 310 232
47 2 2 1 1 257 258 164
48 2 2 1 1 218 301 288
49 2 2 1 1 243 250 246
50 2 2 1 1 163 262 261
51 2 2 1 1 237 295 176
52 2 2 1 1 203 241 200
53 2 2 1 1 238 309 196
54 2 2 1 1 200 241 234
55 2 2 1 1 196 289 238
56 2 2 1 1 237 299 295
57 2 2 1 1 245 251 250
58 2 2 1 1 74 260 156
59 2 2 1 1 251 253 250
60 2 2 1 1 56 298 57
61 2 2 1 1 235 319 296
62 2 2 1 1 164 305 257
63 2 2 1 1 259 325 163
64 2 2 1 1 296 319 290
65 2 2 1 1 250 253 168
66 2 2 1 1 248 280 152
67 2 2 1 1 288 301 226
68 2 2 1 1 262 303 261
69 2 2 1 1 223 249 38
70 2 2 1 1 254 255 169
71 2 2 1 1 203 271 241
72 2 2 1 1 175 318 174
73 2 2 1 1 308 312 255
74 2 2 1 1 286 291 214
75 2 2 1 1 260 315 156
76 2 2 1 1 68 264 161
77 2 2 1 1 210 271 203
78 2 2 1 1 239 322 309
79 2 2 1 1 224 257 256
80 2 2 1 1 166 280 179
81 2 2 1 1 57 298 167
82 2 2 1 1 154 263 239
83 2 2 1 1 153 241 209
84 2 2 1 1 247 317 215
85 2 2 1 1 224 258 257
86 2 2 1 1 270 281 176
87 2 2 1 1 172 270 176
88 2 2 1 1 197 240 198
89 2 2 1 1 254 292 255
90 2 2 1 1 224 256 204
91 2 2 1 1 85 232 158
92 2 2 1 1 158 281 270
93 2 2 1 1 39 223 38
94 2 2 1 1 41 226 40
95 2 2 1 1 307 318 175
96 2 2 1 1 43 225 42
97 2 2 1 1 152 302 248
98 2 2 1 1 213 259 217
99 2 2 1 1 45 209 44
100 2 2 1 1 259 261 217
101 2 2 1 1 42 225 157
102 2 2 1 1 40 226 165
103 2 2 1 1 47 236 46
104 2 2 1 1 182 286 214
105 2 2 1 1 44 209 160
106 2 2 1 1 166 178 177
107 2 2 1 1 51 215 50
108 2 2 1 1 46 236 153
109 2 2 1 1 179 280 248
110 2 2 1 1 81 265 149
111 2 2 1 1 245 254 251
112 2 2 1 1 188 286 184
113 2 2 1 1 265 266 149
114 2 2 1 1 272 274 192
115 2 2 1 1 177 316 173
116 2 2 1 1 170 298 56
117 2 2 1 1 308 324 312
118 2 2 1 1 50 215 151
119 2 2 1 1 193 272 192
120 2 2 1 1 179 180 178
121 2 2 1 1 181 182 180
122 2 2 1 1 187 189 188
123 2 2 1 1 183 184 182
124 2 2 1 1 69 283 70
125 2 2 1 1 189 191 190
126 2 2 1 1 191 197 194
127 2 2 1 1 201 204 203
128 2 2 1 1 204 211 210
129 2 2 1 1 166 177 63
130 2 2 1 1 185 187 184
131 2 2 1 1 211 213 212
132 2 2 1 1 161 283 69
133 2 2 1 1 213 217 216
134 2 2 1 1 217 219 218
135 2 2 1 1 219 221 220
136 2 2 1 1 182 214 180
137 2 2 1 1 209 271 160
138 2 2 1 1 198 201 200
139 2 2 1 1 207 272 193
140 2 2 1 1 221 228 222
141 2 2 1 1 189 190 188
142 2 2 1 1 62 280 166
143 2 2 1 1 191 194 190
144 2 2 1 1 228 242 229
145 2 2 1 1 184 286 182
146 2 2 1 1 187 188 184
147 2 2 1 1 221 222 220
148 2 2 1 1 228 229 222
149 2 2 1 1 197 198 194
150 2 2 1 1 219 220 218
151 2 2 1 1 217 218 216
152 2 2 1 1 242 243 229
153 2 2 1 1 213 216 212
154 2 2 1 1 211 212 210
155 2 2 1 1 204 210 203
156 2 2 1 1 244 245 243
157 2 2 1 1 166 179 178
158 2 2 1 1 242 244 243
159 2 2 1 1 63 177 64
160 2 2 1 1 201 203 200
161 2 2 1 1 202 289 265
162 2 2 1 1 233 259 213
163 2 2 1 1 181 183 182
164 2 2 1 1 231 272 207
165 2 2 1 1 72 262 163
166 2 2 1 1 179 181 180
167 2 2 1 1 152 280 61
168 2 2 1 1 195 286 188
169 2 2 1 1 183 185 184
170 2 2 1 1 157 226 41
171 2 2 1 1 160 225 43
172 2 2 1 1 165 223 39
173 2 2 1 1 153 209 45
174 2 2 1 1 231 321 272
175 2 2 1 1 150 236 47
176 2 2 1 1 62 166 63
177 2 2 1 1 230 231 207
178 2 2 1 1 78 263 154
179 2 2 1 1 189 196 191
180 2 2 1 1 201 224 204
181 2 2 1 1 183 284 186
182 2 2 1 1 173 215 51
183 2 2 1 1 238 289 202
184 2 2 1 1 70 283 159
185 2 2 1 1 261 303 219
186 2 2 1 1 211 233 213
187 2 2 1 1 276 290 150
188 2 2 1 1 87 270 172
189 2 2 1 1 60 152 61
190 2 2 1 1 57 167 58
191 2 2 1 1 180 247 178
192 2 2 1 1 220 301 218
193 2 2 1 1 55 170 56
194 2 2 1 1 151 277 276
195 2 2 1 1 165 297 223
196 2 2 1 1 210 285 271
197 2 2 1 1 42 157 41
198 2 2 1 1 44 160 43
199 2 2 1 1 40 165 39
200 2 2 1 1 46 153 45
201 2 2 1 1 48 150 47
202 2 2 1 1 198 200 199
203 2 2 1 1 160 285 225
204 2 2 1 1 37 168 36
205 2 2 1 1 298 299 167
206 2 2 1 1 50 151 49
207 2 2 1 1 277 290 276
208 2 2 1 1 233 260 259
209 2 2 1 1 68 161 69
210 2 2 1 1 70 159 71
211 2 2 1 1 66 162 67
212 2 2 1 1 265 289 266
213 2 2 1 1 72 163 73
214 2 2 1 1 74 156 75
215 2 2 1 1 172 176 175
216 2 2 1 1 76 164 77
217 2 2 1 1 35 171 34
218 2 2 1 1 78 154 79
219 2 2 1 1 243 246 229
220 2 2 1 1 52 173 51
221 2 2 1 1 271 285 160
222 2 2 1 1 154 239 238
223 2 2 1 1 81 149 82
224 2 2 1 1 80 265 81
225 2 2 1 1 83 155 84
226 2 2 1 1 85 158 86
227 2 2 1 1 198 240 201
228 2 2 1 1 87 172 88
229 2 2 1 1 215 316 247
230 2 2 1 1 88 174 89
231 2 2 1 1 204 256 211
232 2 2 1 1 186 192 185
233 2 2 1 1 190 287 195
234 2 2 1 1 172 174 88
235 2 2 1 1 61 280 62
236 2 2 1 1 277 291 290
237 2 2 1 1 151 276 49
238 2 2 1 1 218 288 216
239 2 2 1 1 214 247 180
240 2 2 1 1 216 288 279
241 2 2 1 1 216 279 212
242 2 2 1 1 240 258 224
243 2 2 1 1 48 276 150
244 2 2 1 1 190 195 188
245 2 2 1 1 195 291 286
246 2 2 1 1 198 199 194
247 2 2 1 1 208 230 207
248 2 2 1 1 172 175 174
249 2 2 1 1 309 322 197
250 2 2 1 1 206 207 193
251 2 2 1 1 181 284 183
252 2 2 1 1 71 262 72
253 2 2 1 1 77 263 78
254 2 2 1 1 60 278 152
255 2 2 1 1 79 202 80
256 2 2 1 1 200 234 199
257 2 2 1 1 223 297 282
258 2 2 1 1 229 282 222
259 2 2 1 1 222 297 220
260 2 2 1 1 183 186 185
261 2 2 1 1 32 252 31
262 2 2 1 1 214 317 247
263 2 2 1 1 86 270 87
264 2 2 1 1 179 248 181
265 2 2 1 1 201 240 224
266 2 2 1 1 178 316 177
267 2 2 1 1 211 256 233
268 2 2 1 1 156 315 305
269 2 2 1 1 219 303 221
270 2 2 1 1 266 267 149
271 2 2 1 1 245 292 254
272 2 2 1 1 154 238 202
273 2 2 1 1 31 169 30
274 2 2 1 1 59 294 278
275 2 2 1 1 186 193 192
276 2 2 1 1 159 262 71
277 2 2 1 1 212 285 210
278 2 2 1 1 34 323 2
279 2 2 1 1 164 263 77
280 2 2 1 1 31 252 169
281 2 2 1 1 154 202 79
282 2 2 1 1 49 276 48
283 2 2 1 1 38 249 37
284 2 2 1 1 266 268 267
285 2 2 1 1 206 208 207
286 2 2 1 1 208 237 230
287 2 2 1 1 194 287 190
288 2 2 1 1 305 315 257
289 2 2 1 1 202 265 80
290 2 2 1 1 170 307 175
291 2 2 1 1 196 309 191
292 2 2 1 1 225 279 157
293 2 2 1 1 246 282 229
294 2 2 1 1 169 327 254
295 2 2 1 1 58 294 59
296 2 2 1 1 244 292 245
297 2 2 1 1 186 284 205
298 2 2 1 1 59 278 60
299 2 2 1 1 226 301 165
300 2 2 1 1 158 310 281
301 2 2 1 1 158 270 86
302 2 2 1 1 268 275 274
303 2 2 1 1 241 271 209
304 2 2 1 1 279 285 212
305 2 2 1 1 167 294 58
306 2 2 1 1 1 324 65
307 2 2 1 1 239 309 238
308 2 2 1 1 67 264 68
309 2 2 1 1 234 235 199
310 2 2 1 1 84 232 85
311 2 2 1 1 268 274 267
312 2 2 1 1 199 287 194
313 2 2 1 1 187 304 189
314 2 2 1 1 291 296 290
315 2 2 1 1 205 206 193
316 2 2 1 1 195 296 291
317 2 2 1 1 293 299 208
318 2 2 1 1 155 321 232
319 2 2 1 1 186 205 193
320 2 2 1 1 267 274 273
321 2 2 1 1 269 313 82
322 2 2 1 1 279 288 157
323 2 2 1 1 205 227 206
324 2 2 1 1 217 261 219
325 2 2 1 1 287 296 195
326 2 2 1 1 232 310 158
327 2 2 1 1 235 287 199
328 2 2 1 1 248 284 181
329 2 2 1 1 185 275 187
330 2 2 1 1 256 315 233
331 2 2 1 1 76 305 164
332 2 2 1 1 32 300 252
333 2 2 1 1 215 317 151
334 2 2 1 1 237 281 230
335 2 2 1 1 82 313 83
336 2 2 1 1 66 308 162
337 2 2 1 1 37 249 168
338 2 2 1 1 282 297 222
339 2 2 1 1 157 288 226
340 2 2 1 1 225 285 279
341 2 2 1 1 205 302 227
342 2 2 1 1 266 328 268
343 2 2 1 1 156 305 75
344 2 2 1 1 54 307 55
345 2 2 1 1 255 312 169
346 2 2 1 1 297 301 220
347 2 2 1 1 33 300 32
348 2 2 1 1 173 306 177
349 2 2 1 1 235 296 287
350 2 2 1 1 55 307 170
351 2 2 1 1 165 301 297
352 2 2 1 1 149 269 82
353 2 2 1 1 206 293 208
354 2 2 1 1 290 319 150
355 2 2 1 1 281 310 230
356 2 2 1 1 64 306 4
357 2 2 1 1 264 326 161
358 2 2 1 1 4 306 52
359 2 2 1 1 303 311 221
360 2 2 1 1 208 299 237
361 2 2 1 1 155 232 84
362 2 2 1 1 162 264 67
363 2 2 1 1 171 314 300
364 2 2 1 1 169 312 30
365 2 2 1 1 320 326 242
366 2 2 1 1 311 320 228
367 2 2 1 1 284 302 205
368 2 2 1 1 252 327 169
369 2 2 1 1 2 323 33
370 2 2 1 1 244 326 264
371 2 2 1 1 177 306 64
372 2 2 1 1 295 298 170
373 2 2 1 1 191 309 197
374 2 2 1 1 159 303 262
375 2 2 1 1 221 311 228
376 2 2 1 1 189 304 196
377 2 2 1 1 29 324 1
378 2 2 1 1 173 316 215
379 2 2 1 1 260 325 259
380 2 2 1 1 161 326 320
381 2 2 1 1 268 328 304
382 2 2 1 1 227 293 206
383 2 2 1 1 230 310 231
384 2 2 1 1 283 320 311
385 2 2 1 1 159 311 303
386 2 2 1 1 240 322 258
387 2 2 1 1 171 323 34
388 2 2 1 1 248 302 284
389 2 2 1 1 197 322 240
390 2 2 1 1 257 315 256
391 2 2 1 1 30 312 29
392 2 2 1 1 75 305 76
393 2 2 1 1 274 275 192
394 2 2 1 1 283 311 159
395 2 2 1 1 228 320 242
396 2 2 1 1 242 326 244
397 2 2 1 1 163 325 73
398 2 2 1 1 247 316 178
399 2 2 1 1 161 320 283
400 2 2 1 1 155 313 273
401 2 2 1 1 65 308 66
402 2 2 1 1 54 318 307
403 2 2 1 1 53 318 54
404 2 2 1 1 150 319 236
405 2 2 1 1 254 327 251
406 2 2 1 1 300 314 252
407 2 2 1 1 192 275 185
408 2 2 1 1 151 317 277
409 2 2 1 1 83 313 155
410 2 2 1 1 52 306 173
411 2 2 1 1 273 321 155
412 2 2 1 1 289 328 266
413 2 2 1 1 267 273 269
414 2 2 1 1 65 324 308
415 2 2 1 1 273 313 269
416 2 2 1 1 267 269 149
417 2 2 1 1 300 323 171
418 2 2 1 1 196 328 289
419 2 2 1 1 33 323 300
420 2 2 1 1 304 328 196
421 2 2 1 1 251 327 314
422 2 2 1 1 312 324 29
423 2 2 1 1 314 327 252
424 2 2 3 4 102 330 101
425 2 2 3 4 115 329 103
426 2 2 3 4 105 91 92
427 2 2 3 4 113 112 99
428 2 2 3 4 105 92 106
429 2 2 3 4 99 112 98
430 2 2 3 4 112 111 98
431 2 2 3 4 106 92 93
432 2 2 3 4 105 331 91
433 2 2 3 4 99 332 113
434 2 2 3 4 98 111 97
435 2 2 3 4 106 93 107
436 2 2 3 4 111 110 97
437 2 2 3 4 107 93 94
438 2 2 3 4 114 330 6
439 2 2 3 4 330 332 101
440 2 2 3 4 90 329 3
441 2 2 3 4 108 107 94
442 2 2 3 4 97 110 96
443 2 2 3 4 110 109 96
444 2 2 3 4 108 94 95
445 2 2 3 4 96 109 95
446 2 2 3 4 108 95 109
447 2 2 3 4 329 331 103
448 2 2 3 4 104 331 105
449 2 2 3 4 100 332 99
450 2 2 3 4 114 332 330
451 2 2 3 4 90 331 329
452 2 2 3 4 103 331 104
453 2 2 3 4 101 332 100
454 2 2 3 4 3 329 115
455 2 2 3 4 6 330 102
456 2 2 3 4 113 332 114
457 2 2 3 4 91 331 90
458 2 2 3 4 4 102 101
459 2 2 3 4 115 103 5
460 2 2 4 7 116 407 139
461 2 2 4 7 364 399 384
462 2 2 4 7 382 386 381
463 2 2 4 7 352 386 382
464 2 2 4 7 363 404 399
465 2 2 4 7 116 139 5
466 2 2 4 7 399 404 373
467 2 2 4 7 338 388 378
468 2 2 4 7 355 414 368
469 2 2 4 7 384 390 364
470 2 2 4 7 131 369 335
471 2 2 4 7 390 397 394
472 2 2 4 7 338 391 388
473 2 2 4 7 342 353 343
474 2 2 4 7 139 407 365
475 2 2 4 7 134 406 342
476 2 2 4 7 368 371 355
477 2 2 4 7 132 369 131
478 2 2 4 7 342 377 353
479 2 2 4 7 134 342 133
480 2 2 4 7 148 135 7
481 2 2 4 7 128 403 6
482 2 2 4 7 342 343 340
483 2 2 4 7 148 402 337
484 2 2 4 7 133 342 340
485 2 2 4 7 369 382 335
486 2 2 4 7 342 406 377
487 2 2 4 7 394 397 345
488 2 2 4 7 394 405 390
489 2 2 4 7 6 403 127
490 2 2 4 7 356 406 379
491 2 2 4 7 376 413 367
492 2 2 4 7 333 358 146
493 2 2 4 7 372 400 368
494 2 2 4 7 145 333 146
495 2 2 4 7 144 372 145
496 2 2 4 7 351 370 363
497 2 2 4 7 393 401 396
498 2 2 4 7 143 334 144
499 2 2 4 7 136 415 336
500 2 2 4 7 136 336 137
501 2 2 4 7 357 406 356
502 2 2 4 7 391 411 388
503 2 2 4 7 358 402 147
504 2 2 4 7 371 404 370
505 2 2 4 7 133 340 132
506 2 2 4 7 373 404 334
507 2 2 4 7 344 411 391
508 2 2 4 7 353 354 343
509 2 2 4 7 340 369 132
510 2 2 4 7 367 413 358
511 2 2 4 7 384 399 341
512 2 2 4 7 386 387 381
513 2 2 4 7 395 407 398
514 2 2 4 7 363 399 364
515 2 2 4 7 377 406 357
516 2 2 4 7 358 413 402
517 2 2 4 7 129 380 362
518 2 2 4 7 365 407 395
519 2 2 4 7 354 414 355
520 2 2 4 7 343 347 346
521 2 2 4 7 355 371 370
522 2 2 4 7 125 344 124
523 2 2 4 7 123 338 122
524 2 2 4 7 334 404 371
525 2 2 4 7 121 339 120
526 2 2 4 7 368 400 371
527 2 2 4 7 119 345 118
528 2 2 4 7 126 393 125
529 2 2 4 7 146 358 147
530 2 2 4 7 383 384 341
531 2 2 4 7 353 408 354
532 2 2 4 7 131 335 130
533 2 2 4 7 396 401 362
534 2 2 4 7 141 341 142
535 2 2 4 7 139 365 140
536 2 2 4 7 335 382 381
537 2 2 4 7 143 373 334
538 2 2 4 7 349 370 351
539 2 2 4 7 355 370 349
540 2 2 4 7 344 391 124
541 2 2 4 7 343 346 340
542 2 2 4 7 351 363 361
543 2 2 4 7 129 362 128
544 2 2 4 7 333 367 358
545 2 2 4 7 341 373 142
546 2 2 4 7 339 394 120
547 2 2 4 7 338 392 122
548 2 2 4 7 347 355 349
549 2 2 4 7 337 375 374
550 2 2 4 7 125 393 344
551 2 2 4 7 360 385 350
552 2 2 4 7 141 383 341
553 2 2 4 7 365 383 140
554 2 2 4 7 366 378 360
555 2 2 4 7 378 385 360
556 2 2 4 7 393 396 387
557 2 2 4 7 363 364 361
558 2 2 4 7 347 348 346
559 2 2 4 7 124 391 123
560 2 2 4 7 351 361 360
561 2 2 4 7 343 354 347
562 2 2 4 7 361 366 360
563 2 2 4 7 354 355 347
564 2 2 4 7 130 380 129
565 2 2 4 7 351 360 350
566 2 2 4 7 370 404 363
567 2 2 4 7 349 351 350
568 2 2 4 7 347 349 348
569 2 2 4 7 334 400 144
570 2 2 4 7 350 352 348
571 2 2 4 7 122 392 121
572 2 2 4 7 140 383 141
573 2 2 4 7 148 337 135
574 2 2 4 7 120 394 119
575 2 2 4 7 350 385 352
576 2 2 4 7 380 396 362
577 2 2 4 7 349 350 348
578 2 2 4 7 346 369 340
579 2 2 4 7 385 386 352
580 2 2 4 7 142 373 143
581 2 2 4 7 336 374 359
582 2 2 4 7 123 391 338
583 2 2 4 7 335 381 380
584 2 2 4 7 121 392 339
585 2 2 4 7 118 398 117
586 2 2 4 7 344 393 387
587 2 2 4 7 367 408 376
588 2 2 4 7 385 388 386
589 2 2 4 7 379 406 134
590 2 2 4 7 341 399 373
591 2 2 4 7 335 380 130
592 2 2 4 7 361 389 366
593 2 2 4 7 336 415 374
594 2 2 4 7 352 410 348
595 2 2 4 7 127 401 126
596 2 2 4 7 336 356 137
597 2 2 4 7 383 395 384
598 2 2 4 7 119 394 345
599 2 2 4 7 135 415 136
600 2 2 4 7 345 398 118
601 2 2 4 7 359 377 357
602 2 2 4 7 369 410 382
603 2 2 4 7 145 372 333
604 2 2 4 7 336 359 357
605 2 2 4 7 392 412 409
606 2 2 4 7 395 398 397
607 2 2 4 7 384 397 390
608 2 2 4 7 378 388 385
609 2 2 4 7 382 410 352
610 2 2 4 7 333 372 368
611 2 2 4 7 337 402 375
612 2 2 4 7 365 395 383
613 2 2 4 7 408 414 354
614 2 2 4 7 126 401 393
615 2 2 4 7 336 357 356
616 2 2 4 7 387 411 344
617 2 2 4 7 364 389 361
618 2 2 4 7 333 368 367
619 2 2 4 7 364 390 389
620 2 2 4 7 337 415 135
621 2 2 4 7 144 400 372
622 2 2 4 7 387 396 381
623 2 2 4 7 409 412 366
624 2 2 4 7 397 398 345
625 2 2 4 7 381 396 380
626 2 2 4 7 371 400 334
627 2 2 4 7 353 377 376
628 2 2 4 7 346 410 369
629 2 2 4 7 398 407 117
630 2 2 4 7 117 407 116
631 2 2 4 7 137 356 138
632 2 2 4 7 378 412 338
633 2 2 4 7 362 403 128
634 2 2 4 7 392 409 339
635 2 2 4 7 376 377 359
636 2 2 4 7 374 375 359
637 2 2 4 7 395 397 384
638 2 2 4 7 376 408 353
639 2 2 4 7 339 405 394
640 2 2 4 7 386 411 387
641 2 2 4 7 338 412 392
642 2 2 4 7 390 405 389
643 2 2 4 7 375 376 359
644 2 2 4 7 366 412 378
645 2 2 4 7 389 409 366
646 2 2 4 7 348 410 346
647 2 2 4 7 388 411 386
648 2 2 4 7 127 403 401
649 2 2 4 7 367 414 408
650 2 2 4 7 402 413 375
651 2 2 4 7 368 414 367
652 2 2 4 7 374 415 337
653 2 2 4 7 405 409 389
654 2 2 4 7 375 413 376
655 2 2 4 7 339 409 405
656 2 2 4 7 138 379 8
657 2 2 4 7 401 403 362
658 2 2 4 7 356 379 138
659 2 2 4 7 8 379 134
660 2 2 4 7 147 402 148
661 2 2 2 211120 20 418 15
662 2 2 2 211120 11 424 25
663 2 2 2 211120 1 11 25
664 2 2 2 211120 20 15 2
665 2 2 2 211120 417 420 419
666 2 2 2 211120 417 422 420
667 2 2 2 211120 25 424 419
668 2 2 2 211120 20 425 418
669 2 2 2 211120 15 418 14
670 2 2 2 211120 13 417 12
671 2 2 2 211120 22 416 21
672 2 2 2 211120 25 419 24
673 2 2 2 211120 24 420 23
674 2 2 2 211120 419 420 24
675 2 2 2 211120 9 423 22
676 2 2 2 211120 23 423 9
677 2 2 2 211120 21 425 20
678 2 2 2 211120 420 422 416
679 2 2 2 211120 418 425 422
680 2 2 2 211120 418 421 14
681 2 2 2 211120 418 422 421
682 2 2 2 211120 13 421 417
683 2 2 2 211120 14 421 13
684 2 2 2 211120 417 424 12
685 2 2 2 211120 420 423 23
686 2 2 2 211120 419 424 417
687 2 2 2 211120 22 423 416
688 2 2 2 211120 12 424 11
689 2 2 2 211120 416 425 21
690 2 2 2 211120 416 423 420
691 2 2 2 211120 422 425 416
692 2 2 2 211120 421 422 417
693 2 2 4 211124 28 7 430
694 2 2 4 211124 17 18 428
695 2 2 4 211124 7 16 430
696 2 2 4 211124 426 17 428
697 2 2 4 211124 16 17 426
698 2 2 4 211124 16 426 430
699 2 2 4 211124 27 426 427
700 2 2 4 211124 18 19 429
701 2 2 4 211124 26 10 427
702 2 2 4 211124 427 426 428
703 2 2 4 211124 27 28 430
704 2 2 4 211124 26 427 428
705 2 2 4 211124 426 27 430
706 2 2 4 211124 26 428 429
707 2 2 4 211124 428 18 429
708 2 2 4 211124 10 27 427
709 2 2 4 211124 19 8 429
710 2 2 4 211124 8 26 429
$EndElements
