$MeshFormat
2.2 0 8
$EndMeshFormat
$PhysicalNames
4
2 1 "horn_surface"
2 2 "throat_cap"
2 3 "interface_wall"
2 4 "interface_face"
$EndPhysicalNames
$Nodes
383
1 15 0 -100
2 0 15 -100
3 60 0 40
4 0 60 0
5 60 0 50
6 0 60 10
7 0 0 -100
8 0 0 50
9 14.47935266101804 3.879747568792221 -100
10 12.98183200277036 7.495073559506185 -100
11 10.59962472916665 10.59962472916668 -100
12 7.495073559506146 12.98183200277038 -100
13 3.879747568792177 14.47935266101805 -100
14 59.42716279489511 7.923740982265562 49.24096769138483
15 57.92053490006083 15.50732983564504 47.27897250983191
16 55.56543153524975 22.53327405925033 44.31319970803263
17 52.51405895354814 28.94027156150139 40.65367698402519
18 48.86884778651126 34.7433643760211 36.55283013636642
19 44.68542608401262 39.98097228995172 32.20991653712409
20 39.98097228995161 44.6854260840127 27.79008346287583
21 34.74336437602098 48.86884778651133 23.44716986363349
22 28.94027156150129 52.5140589535482 19.34632301597473
23 22.53327405925032 55.56543153524976 15.68680029196737
24 15.50732983564491 57.92053490006086 12.72102749016805
25 7.92374098226541 59.42716279489512 10.75903230861513
26 0 11.25 -100
27 0 7.5 -100
28 0 3.75 -100
29 3.75 0 -100
30 7.5 0 -100
31 11.25 0 -100
32 0 54 14
33 0 48 18
34 0 42 22
35 0 36 26
36 0 30 30
37 0 24 34
38 0 18 38
39 0 12 42
40 0 5.999999999999993 46
41 7.5 0 50
42 15 0 50
43 22.5 0 50
44 30 0 50
45 37.5 0 50
46 45 0 50
47 52.5 0 50
48 14.47935266101804 3.87974756879222 -100
49 12.98183200277036 7.495073559506187 -100
50 10.59962472916665 10.59962472916668 -100
51 7.495073559506151 12.98183200277037 -100
52 3.879747568792178 14.47935266101805 -100
53 0 15.06961442026165 -96.06682401702032
54 0 15.28837703928126 -91.99476455662534
55 0 15.6714358156216 -87.78492964041462
56 0 16.23413343137488 -83.43944770739284
57 0 16.99178664281129 -78.96148204196398
58 0 17.95945091192069 -74.35519984973787
59 0 19.15169124841555 -69.62570107521147
60 0 20.58236508987949 -64.77890416957439
61 0 22.26444172110502 -59.82139405568998
62 0 24.20985833354765 -54.7602477856461
63 0 26.42943248267972 -49.60283839880201
64 0 28.93282109757708 -44.35664956151933
65 0 31.72854076421516 -39.02907642560318
66 0 34.82402078252761 -33.62728019279013
67 0 38.22570517520589 -28.15803565028401
68 0 41.93917219331762 -22.6276361793795
69 0 45.96927295827417 -17.04181378966152
70 0 50.32027578673254 -11.40569894847345
71 0 54.99601115494905 -5.723796949835372
72 59.42716279489511 7.923740982265564 39.24096769138484
73 57.92053490006082 15.50732983564504 37.27897250983191
74 55.56543153524975 22.53327405925033 34.31319970803263
75 52.51405895354815 28.9402715615014 30.6536769840252
76 48.86884778651125 34.74336437602108 26.55283013636643
77 44.68542608401263 39.98097228995171 22.20991653712409
78 39.98097228995162 44.6854260840127 17.79008346287583
79 34.74336437602098 48.86884778651132 13.44716986363349
80 28.94027156150129 52.51405895354821 9.346323015974727
81 22.53327405925032 55.56543153524976 5.686800291967367
82 15.50732983564491 57.92053490006086 2.721027490168049
83 7.923740982265408 59.42716279489512 0.7590323086151342
84 15.03734172480209 0 -95.9670910919739
85 15.15334845842929 0 -91.82737379297104
86 15.35418281655012 0 -87.57960218978759
87 15.64625077579923 0 -83.22269145997596
88 16.03619149404171 0 -78.75573024677452
89 16.5308631154091 0 -74.17799517403958
90 17.13732469086849 0 -69.48895898122876
91 17.86281770783554 0 -64.68829943610916
92 18.71474455637605 0 -59.77590755415668
93 19.70064409280608 0 -54.75188821904811
94 20.82816740059413 0 -49.61656299329911
95 22.10505212156174 0 -44.37046713128073
96 23.53909558540049 0 -39.01434195472903
97 25.13812799374241 0 -33.54913094302236
98 26.90998930452663 0 -27.97596223526448
99 28.86250325049806 0 -22.29613738393582
100 31.00345714631326 0 -16.51111015615272
101 33.34058281734264 0 -10.6224710433286
102 35.88154085643811 0 -4.631917499881398
103 38.63390586646609 0 1.458755219408316
104 41.6051625962158 0 7.647695411956438
105 44.80269695750339 0 13.93300780657133
106 48.23379786161701 0 20.31278091967971
107 51.90565886624756 0 26.78511268847619
108 55.82538482772118 0 33.34812757229087
109 59.42716279489511 7.923740982265564 39.24096769138484
110 57.92053490006082 15.50732983564504 37.27897250983191
111 55.56543153524975 22.53327405925033 34.31319970803263
112 52.51405895354815 28.9402715615014 30.6536769840252
113 48.86884778651125 34.74336437602108 26.55283013636643
114 44.68542608401263 39.98097228995171 22.20991653712409
115 39.98097228995162 44.6854260840127 17.79008346287583
116 34.74336437602098 48.86884778651132 13.44716986363349
117 28.94027156150129 52.51405895354821 9.346323015974727
118 22.53327405925032 55.56543153524976 5.686800291967367
119 15.50732983564491 57.92053490006086 2.721027490168049
120 7.923740982265408 59.42716279489512 0.7590323086151342
121 0 60 5
122 59.42716279489511 7.923740982265564 49.24096769138485
123 57.92053490006082 15.50732983564504 47.2789725098319
124 55.56543153524975 22.53327405925033 44.31319970803263
125 52.51405895354815 28.9402715615014 40.6536769840252
126 48.86884778651125 34.74336437602108 36.55283013636642
127 44.68542608401263 39.98097228995171 32.20991653712409
128 39.98097228995162 44.6854260840127 27.79008346287583
129 34.74336437602098 48.86884778651132 23.44716986363349
130 28.94027156150129 52.51405895354821 19.34632301597473
131 22.53327405925032 55.56543153524976 15.68680029196737
132 15.50732983564491 57.92053490006086 12.72102749016805
133 7.923740982265408 59.42716279489512 10.75903230861513
134 60 0 45
135 31.90589456338946 5.217809087560185 -13.74418776246327
136 4.770961379333277 36.08474329381161 -30.47932884167329
137 5.337701368388288 43.40082236989674 -19.52481341005853
138 31.33361373221343 45.52953983077985 6.825730707081716
139 5.067811162857648 29.67088492784845 -41.34662567037082
140 25.80488417972859 4.84259334348313 -30.63524699024875
141 37.16750503038671 5.377203515331932 -1.445285239759087
142 20.13457077275044 3.895803050177749 -51.48271819688894
143 4.278593941969987 20.82325355198735 -62.04289304371376
144 43.17380512001216 5.310706785327417 10.9576364064214
145 16.42536463451063 3.891703443779055 -71.74480765571792
146 4.723266012926761 24.65045078596721 -51.89354441446866
147 15.50148166684164 3.27030465503941 -80.96488656114521
148 14.80954447826968 3.607338297198158 -89.68248524459558
149 17.88984216318462 3.881555777476039 -62.48509917072973
150 22.51905112011379 4.728511084269496 -41.61127354701647
151 4.103315033702177 17.95291556628612 -71.83852945627186
152 19.39365023614763 51.9558611970439 -0.4607869679863445
153 44.9207031276047 32.44576200087892 19.71527806316853
154 3.69371587252483 15.45399030901431 -85.54759966494287
155 11.84148705368908 9.271580832029271 -95.87046790341499
156 51.8456514105216 21.36835973549834 28.23040024785013
157 3.24275783429113 14.77631993355402 -94.35955155945369
158 49.98323168839155 6.358116861999073 23.59801780063621
159 6.229006795498905 52.10933532649425 -8.113124240837529
160 53.33252402679006 5.566931973422487 29.31501266748831
161 51.61333522497105 12.92718145664371 26.84177879985172
162 47.75074334055449 12.75178972527239 20.13635961322019
163 11.63293250745332 53.93447501852558 -3.744565047253541
164 16.53198995142284 48.2910782008556 -6.668546299609741
165 22.66873456771682 45.8102509120717 -3.296160426061395
166 19.775017632146 42.55695081142228 -9.713588619349329
167 25.27320545619064 39.41497099496754 -6.043555498355429
168 22.77910489320737 36.55908407477285 -12.11513353604575
169 27.49120957198254 33.16188825122097 -8.08985428925501
170 25.15174075857846 30.34798332505514 -14.29033411057048
171 29.23535816043537 26.93831105035817 -9.742864015356471
172 31.51522465108068 29.3255036782435 -4.079813191062057
173 27.63575607754532 23.6453437375593 -15.12980479683403
174 23.28829280365862 27.73914560722928 -19.92489407603611
175 25.11525314220696 21.7478363369884 -21.77563169877885
176 21.53287538903569 25.27977529911128 -25.64297653994486
177 23.48770305359581 19.6695329223542 -27.15319806657006
178 32.72582239872722 23.17473594521958 -5.381597442545325
179 35.21663211060868 25.40899652961452 0.4239998187380473
180 20.06419933267695 22.97579190628952 -31.09725508283088
181 19.05732447096915 30.81362990871537 -23.65223419354294
182 26.31354123436868 15.60787778062078 -23.67938337006169
183 21.94718400617511 17.44944002796962 -32.93877564207974
184 18.69334989591913 20.80153183002694 -36.67919180718961
185 16.16917542408559 25.84243318475133 -34.68389902768778
186 14.88005173621971 23.72662611763004 -40.11281422781809
187 17.55099007793528 18.92486166353255 -41.8732182124136
188 27.62720057194924 5.038258318947261 -25.18075709520252
189 13.82935766332068 21.70852957649017 -45.45329912690163
190 16.49538198485392 17.0823469032149 -47.35544697570031
191 34.04798843342711 32.05526180888955 1.876738208712394
192 37.67113993677755 27.92484605084482 5.956502929127907
193 38.36307927383273 21.03986926537714 4.546429769172282
194 41.13571889156785 23.72094931994419 10.49953955895146
195 4.895731433161054 27.0231760698982 -46.63961752494618
196 12.96353129886283 19.87339369817341 -50.64866260658082
197 15.64325524484407 15.4709342034114 -52.53049048509088
198 12.30111062603311 18.2030307898633 -55.65611576321152
199 14.94821099852107 14.0114690362211 -57.59010526817784
200 16.70938140750536 39.71868123970582 -16.16826955445354
201 6.237562954779152 47.5024103018844 -13.80045409874033
202 11.75468791253159 16.69898557963484 -60.63588743760484
203 14.44117574105563 12.72195579637039 -62.31202330462574
204 11.34108429223042 15.34386685454498 -65.57544140887121
205 13.98533156194005 11.51525308299701 -67.3529214402682
206 11.15088000039768 14.09252738513969 -70.28795597103894
207 13.69280995336629 10.45715961768908 -72.05199793133973
208 11.05636707566544 13.02821508840304 -74.78634000543308
209 3.788922544215806 16.9563711357835 -76.52461132845484
210 19.41083577918072 13.8962973198131 -43.81203808665965
211 4.353699927763969 22.64236970335824 -57.02145522358069
212 4.058598507324117 19.29636036802953 -67.00877966362251
213 36.60104591639435 34.81110742420481 7.539183956279544
214 13.508542493283 9.508884000407692 -76.62811800155725
215 11.03128306090002 12.10048315299147 -79.27147374725544
216 41.54424089971457 16.81793137419523 9.40323747939075
217 38.99868294974105 14.07440116325677 3.842823824305133
218 40.01717978847819 5.782729409969029 4.653159895076414
219 17.63285796734394 10.91813963438014 -53.91436544606599
220 10.88490324774579 29.03147375455225 -37.35861237753196
221 13.54390138541316 30.31685315985623 -32.10002420673854
222 4.542710130920725 32.82646149572587 -35.95084290391568
223 44.39234384976904 19.43577232661426 15.19859611186079
224 26.1746213207327 10.1720298799633 -27.31563013787363
225 24.14299715116951 9.962104037228666 -33.27284642567587
226 20.50153525946766 15.63676086929798 -38.62497111254484
227 9.983443278104218 26.2191797023777 -43.34752027232526
228 13.41906842215692 8.656629995205144 -81.0824449915055
229 11.08687165771539 11.28177992278446 -83.76918900939599
230 13.41165930101326 7.886508523794078 -85.4181106159688
231 11.2704316045762 10.52545038167707 -88.12048370207368
232 7.813153178752035 14.09774538601336 -82.66990209296004
233 13.8224176035793 45.03047233499373 -12.54722606147483
234 28.12146095986549 42.56673886811867 0.4022522931182356
235 3.470132684322617 16.1715760965024 -81.10152619960513
236 7.800362095239425 13.54776891728766 -86.85080162444504
237 8.736882943616308 12.55817658221316 -90.63898003649116
238 9.13352429481599 11.93617748307324 -96.5927538378436
239 4.705803129440053 14.69280644215021 -89.76107551899011
240 11.63709066472402 9.740307176725359 -92.07044414290074
241 13.64113382947858 6.485627119704096 -93.31539620657266
242 18.37468763432467 12.39035278196901 -49.09238489025315
243 20.65151699657745 8.958336039067733 -45.35291835927376
244 22.1575700502621 10.30839771617902 -39.10745930673455
245 17.02125530932898 9.148089308945183 -59.33146930645363
246 19.0238031403254 5.900803577288639 -54.83267362730361
247 16.12103048706781 8.705254362369548 -64.36246601708969
248 17.13261590312575 3.787091578092666 -67.07845225855753
249 24.19266145999176 4.35578808742763 -35.94675744278398
250 15.0711580753713 3.502018482414288 -85.71488000336205
251 29.69154569791946 5.096487721679592 -19.47216465905372
252 30.30550880819976 10.60421094931448 -16.34398740151739
253 32.5852851191372 10.91223543558787 -10.78425802908404
254 30.41433962972409 16.37591236130983 -13.63298452526712
255 33.51223468502023 6.776514928776052 -9.579769712556576
256 46.46040842607606 5.801990043897533 17.22866488285566
257 9.340386408261256 23.89707996640396 -48.69503913789286
258 36.0217174837161 17.65908012411447 -1.167982275601845
259 35.05886724422548 10.57603282446255 -5.251908117399626
260 33.1655017643934 16.89437148928123 -7.38335494071328
261 30.67956257255757 21.85343359682108 -10.15709837939096
262 5.028036850924622 39.60215971861989 -25.01746722538936
263 11.06969193366585 39.70022921448496 -21.39783414998135
264 36.34631843665051 41.65218362857828 11.027735391165
265 8.474615119737775 20.07296999641862 -58.75152132154145
266 25.77047510101191 49.07729043129135 3.05817290763739
267 44.39062566285856 12.4225470740654 13.98227267901693
268 7.846581400830579 14.88935133734454 -78.00622408669959
269 15.92566561193392 3.610796760417784 -76.18142644101999
270 29.96601193857439 36.00200656328609 -2.056082261756708
271 8.876787308495416 21.79781737440782 -53.91047426489649
272 20.5994896570709 33.74738467154782 -18.07779149069805
273 17.66504151562236 28.19761087771103 -29.03340638816671
274 8.092669222935569 18.51883212647752 -63.73361098936405
275 28.14950621680045 10.39947559516847 -21.89254568627666
276 10.086337730292 36.512989180609 -26.59959839953695
277 15.68940312076608 36.04891717650474 -21.74185832752544
278 13.42100096475332 7.306367472339466 -89.4800243563856
279 40.74106428553774 30.70290057062307 12.32309823837769
280 40.64396192235876 37.40468052029468 15.08562628667728
281 47.89006995501192 19.80821568490396 21.38276887836056
282 14.44615146350733 32.83674910534255 -27.40928003214328
283 7.849205374672672 15.86473319922458 -73.51222109604026
284 48.44291215585452 27.15112138991427 23.82458302608435
285 44.32699587554514 26.11173143975477 16.75105032033334
286 5.751800066513917 13.88604196802866 -96.84118200316996
287 7.934495065548278 17.06943313988083 -68.71908946782146
288 32.399210481659 38.62993193870874 3.427609500473931
289 15.61822061195176 7.587607259010102 -69.59811127398693
290 27.85902601049755 18.1498585340418 -18.39901933168723
291 21.25247380458997 3.764980396556052 -46.87857944160746
292 5.290144649264339 56.16450638659825 -3.614314842743052
293 54.48565850596314 16.16861523294188 31.88046048631884
294 14.80250333256363 2.834359500315758 -94.11007480096738
295 24.20810648826934 14.5000129416234 -29.81094969902601
296 41.71274414430663 10.87414929082653 8.650855407632205
297 15.17392708617268 6.987990895019316 -74.02937170657485
298 13.87175384081563 5.755581826462807 -96.63838682254172
299 35.18629373728287 4.2322457391735 -6.006657598448895
300 7.404553402818109 13.18654451762644 -94.03637856192944
301 19.6245354025781 8.163100124493855 -49.9634509822671
302 11.08303107620106 49.40906312275106 -9.21958982770253
303 10.78824840340036 43.17828280936143 -17.04401113998924
304 55.77941719384066 9.326171444844887 33.49928980323733
305 9.197146195817185 33.27109464949154 -32.20080121923512
306 14.8013773004184 6.413742243330725 -78.711832073176
307 37.35115567127052 10.7093113749403 -0.2567963631869261
308 22.54798736444426 13.67518009742033 -34.9947933852488
309 2.803107730429217 14.75960703398112 -97.23978994622823
310 14.73553996532306 2.848867719927921 -97.20818360765578
311 18.67451764345628 3.851873905285441 -58.34985786369172
312 14.6264620579538 5.773082827752439 -82.80271696988957
313 9.773895520384228 11.53267449306812 -93.79362789478078
314 28.46144160959671 13.93631387084797 -19.41885239195786
315 59.76365380737437 4.706207791018588 42.69073856342051
316 4.241539729747148 59.79775912348627 7.523502710659125
317 12.92020240416932 58.55197521605864 7.72102749016768
318 59.04110496860857 10.458761783464 43.94937367761678
319 3.187413224064293 5.702997121066041 -100
320 9.15326963622539 6.703938807200503 -100
321 4.062711477305298 10.31429696890394 -100
322 9.095313502035349 2.943667133482402 -100
323 5.874892647991409 3.517852615010951 -100
324 5.877983254802947 7.583265474482387 -100
325 2.74519052838329 2.745190528383289 -100
326 7.502708834682757 9.737397391882469 -100
327 11.39195356040983 4.204485413796263 -100
328 6.789782552998144 21.55857641010822 36.14715353773262
329 45.21218546077564 28.72268945467066 39.25193508784925
330 26.24636053258853 5.757317785709025 47.02946547324441
331 32.37014933577284 42.30721251743311 27.33329567935537
332 6.869074891246516 32.8632305034795 28.74711163657873
333 40.84522933353782 5.847735885026317 47.77318855120192
334 21.26876660091322 49.10422339325051 19.84890044624798
335 11.58519160647046 5.370329733764157 46.72937984591809
336 6.661370107044527 45.29770054371044 20.35472595925944
337 49.89272602272356 16.7550189630827 45.56079938250225
338 8.639451366494313 52.16379408589355 15.78855848162358
339 51.80371611598825 9.587968835462025 47.86212634887947
340 13.51078985137539 48.16211294520318 19.1513212187855
341 12.393946010666 41.90443462491992 23.36170557367302
342 18.80638840187531 5.596953042716867 46.82687364616771
343 22.49564818473028 11.35386040412681 43.8016868836805
344 29.95596187397383 11.67521555285495 44.32119846868144
345 26.2185720025469 17.26329488696297 41.00334762864725
346 33.72308304620346 17.78584975226827 41.92174251358284
347 29.94783739022042 23.34750126573777 38.38705260042795
348 22.45261921007465 22.75254111410387 37.35826962718988
349 26.20438830913559 28.73051647737386 34.53644763586711
350 18.69910593097493 28.12676044086452 33.48337222961474
351 22.41725301710056 33.92584900175392 30.49379686045004
352 33.36173552691471 29.29526631756528 35.87127926045898
353 14.81363088170885 33.04328809090643 29.6941819195235
354 11.19201652142437 27.49875627298271 32.78430154264667
355 14.84232700762309 22.17182010678073 36.62370211921115
356 11.37526266946161 16.31375056683737 39.91101036876517
357 15.11787813389372 11.04321189188219 43.44063413662236
358 18.75130926407049 16.8015235551328 40.3341179848508
359 17.91545385962207 39.08061170243736 26.18435640968944
360 33.68557282451665 5.868985180786616 47.33555151922346
361 37.24065507769283 23.94051088421774 39.69465259330276
362 42.03801491701365 18.52123011485783 43.23162355523051
363 37.49617078987313 11.96225418669675 45.07016187735589
364 30.66520436204854 35.69559154296263 31.28119790358897
365 37.59881534102951 35.40529206424208 33.32991533435506
366 6.964285201092574 10.09382936695986 43.56848776833145
367 6.06172759481616 39.17785955719964 24.44178427972476
368 44.78958461198415 11.27205764346522 46.34137057836419
369 48.11142404457042 23.25604180437369 42.62856832805804
370 27.87122606627396 46.40473942674966 23.29713563942096
371 25.68838017324418 39.86684160477062 27.27980829968676
372 4.971215020951409 27.16641869202355 32.30676845599258
373 5.164739783029974 15.45137547692069 39.99323685972587
374 22.13750557831048 43.81363559133482 23.75091319750716
375 16.31036410198658 52.51082308150321 16.52311435910595
376 11.23134693870378 36.93396163112584 26.58034327204655
377 42.9843064980807 33.60922957434358 35.88441549950905
378 5.536074585827866 4.604318004138084 47.05585251390389
379 39.53403299731991 29.11832823597282 37.5713053752288
380 42.74354316792892 23.83238725335261 41.08958104652353
381 17.07058690044038 44.72045385730375 22.13076804565794
382 46.72715017032871 5.124291083434754 48.41424884782095
383 37.01430234274006 40.33922241008752 29.95065172005771
$EndNodes
$Elements
630
1 2 2 1 1 254 290 173
2 2 2 1 1 139 222 220
3 2 2 1 1 225 249 244
4 2 2 1 1 173 261 254
5 2 2 1 1 108 304 72
6 2 2 1 1 55 239 54
7 2 2 1 1 232 236 154
8 2 2 1 1 222 305 220
9 2 2 1 1 220 227 139
10 2 2 1 1 72 3 108
11 2 2 1 1 259 260 258
12 2 2 1 1 160 304 108
13 2 2 1 1 250 278 230
14 2 2 1 1 239 300 157
15 2 2 1 1 154 235 232
16 2 2 1 1 148 278 250
17 2 2 1 1 264 280 213
18 2 2 1 1 244 249 150
19 2 2 1 1 258 307 259
20 2 2 1 1 213 280 279
21 2 2 1 1 161 281 156
22 2 2 1 1 153 285 279
23 2 2 1 1 54 239 157
24 2 2 1 1 148 294 241
25 2 2 1 1 279 280 153
26 2 2 1 1 235 268 232
27 2 2 1 1 149 247 245
28 2 2 1 1 209 268 235
29 2 2 1 1 241 278 148
30 2 2 1 1 213 288 264
31 2 2 1 1 237 300 239
32 2 2 1 1 264 288 138
33 2 2 1 1 200 277 263
34 2 2 1 1 162 281 161
35 2 2 1 1 93 311 246
36 2 2 1 1 218 307 217
37 2 2 1 1 244 308 225
38 2 2 1 1 220 305 221
39 2 2 1 1 154 239 55
40 2 2 1 1 263 303 200
41 2 2 1 1 231 236 229
42 2 2 1 1 162 267 223
43 2 2 1 1 281 285 284
44 2 2 1 1 219 301 246
45 2 2 1 1 92 311 93
46 2 2 1 1 217 296 218
47 2 2 1 1 243 244 150
48 2 2 1 1 204 287 274
49 2 2 1 1 229 236 232
50 2 2 1 1 149 248 247
51 2 2 1 1 223 281 162
52 2 2 1 1 189 227 186
53 2 2 1 1 224 295 182
54 2 2 1 1 186 227 220
55 2 2 1 1 182 275 224
56 2 2 1 1 223 285 281
57 2 2 1 1 231 237 236
58 2 2 1 1 93 246 142
59 2 2 1 1 237 239 236
60 2 2 1 1 75 284 76
61 2 2 1 1 221 305 282
62 2 2 1 1 150 291 243
63 2 2 1 1 245 311 149
64 2 2 1 1 282 305 276
65 2 2 1 1 236 239 154
66 2 2 1 1 234 266 138
67 2 2 1 1 274 287 212
68 2 2 1 1 248 289 247
69 2 2 1 1 209 235 57
70 2 2 1 1 240 241 155
71 2 2 1 1 189 257 227
72 2 2 1 1 161 304 160
73 2 2 1 1 294 298 241
74 2 2 1 1 272 277 200
75 2 2 1 1 246 301 142
76 2 2 1 1 87 250 147
77 2 2 1 1 196 257 189
78 2 2 1 1 225 308 295
79 2 2 1 1 210 243 242
80 2 2 1 1 152 266 165
81 2 2 1 1 76 284 153
82 2 2 1 1 140 249 225
83 2 2 1 1 139 227 195
84 2 2 1 1 233 303 201
85 2 2 1 1 210 244 243
86 2 2 1 1 256 267 162
87 2 2 1 1 158 256 162
88 2 2 1 1 183 226 184
89 2 2 1 1 240 278 241
90 2 2 1 1 210 242 190
91 2 2 1 1 104 218 144
92 2 2 1 1 144 267 256
93 2 2 1 1 58 209 57
94 2 2 1 1 60 212 59
95 2 2 1 1 293 304 161
96 2 2 1 1 62 211 61
97 2 2 1 1 138 288 234
98 2 2 1 1 199 245 203
99 2 2 1 1 64 195 63
100 2 2 1 1 245 247 203
101 2 2 1 1 61 211 143
102 2 2 1 1 59 212 151
103 2 2 1 1 66 222 65
104 2 2 1 1 168 272 200
105 2 2 1 1 63 195 146
106 2 2 1 1 152 164 163
107 2 2 1 1 70 201 69
108 2 2 1 1 65 222 139
109 2 2 1 1 165 266 234
110 2 2 1 1 100 251 135
111 2 2 1 1 231 240 237
112 2 2 1 1 174 272 170
113 2 2 1 1 251 252 135
114 2 2 1 1 258 260 178
115 2 2 1 1 163 302 159
116 2 2 1 1 156 284 75
117 2 2 1 1 294 310 298
118 2 2 1 1 69 201 137
119 2 2 1 1 179 258 178
120 2 2 1 1 165 166 164
121 2 2 1 1 167 168 166
122 2 2 1 1 173 175 174
123 2 2 1 1 169 170 168
124 2 2 1 1 88 269 89
125 2 2 1 1 175 177 176
126 2 2 1 1 177 183 180
127 2 2 1 1 187 190 189
128 2 2 1 1 190 197 196
129 2 2 1 1 152 163 82
130 2 2 1 1 171 173 170
131 2 2 1 1 197 199 198
132 2 2 1 1 147 269 88
133 2 2 1 1 199 203 202
134 2 2 1 1 203 205 204
135 2 2 1 1 205 207 206
136 2 2 1 1 168 200 166
137 2 2 1 1 195 257 146
138 2 2 1 1 184 187 186
139 2 2 1 1 193 258 179
140 2 2 1 1 207 214 208
141 2 2 1 1 175 176 174
142 2 2 1 1 81 266 152
143 2 2 1 1 177 180 176
144 2 2 1 1 214 228 215
145 2 2 1 1 170 272 168
146 2 2 1 1 173 174 170
147 2 2 1 1 207 208 206
148 2 2 1 1 214 215 208
149 2 2 1 1 183 184 180
150 2 2 1 1 205 206 204
151 2 2 1 1 203 204 202
152 2 2 1 1 228 229 215
153 2 2 1 1 199 202 198
154 2 2 1 1 197 198 196
155 2 2 1 1 190 196 189
156 2 2 1 1 230 231 229
157 2 2 1 1 152 165 164
158 2 2 1 1 228 230 229
159 2 2 1 1 82 163 83
160 2 2 1 1 187 189 186
161 2 2 1 1 188 275 251
162 2 2 1 1 219 245 199
163 2 2 1 1 167 169 168
164 2 2 1 1 217 258 193
165 2 2 1 1 91 248 149
166 2 2 1 1 165 167 166
167 2 2 1 1 138 266 80
168 2 2 1 1 181 272 174
169 2 2 1 1 169 171 170
170 2 2 1 1 143 212 60
171 2 2 1 1 146 211 62
172 2 2 1 1 151 209 58
173 2 2 1 1 139 195 64
174 2 2 1 1 217 307 258
175 2 2 1 1 136 222 66
176 2 2 1 1 81 152 82
177 2 2 1 1 216 217 193
178 2 2 1 1 97 249 140
179 2 2 1 1 175 182 177
180 2 2 1 1 187 210 190
181 2 2 1 1 169 270 172
182 2 2 1 1 159 201 70
183 2 2 1 1 224 275 188
184 2 2 1 1 89 269 145
185 2 2 1 1 247 289 205
186 2 2 1 1 197 219 199
187 2 2 1 1 262 276 136
188 2 2 1 1 106 256 158
189 2 2 1 1 79 138 80
190 2 2 1 1 76 153 77
191 2 2 1 1 166 233 164
192 2 2 1 1 206 287 204
193 2 2 1 1 74 156 75
194 2 2 1 1 137 263 262
195 2 2 1 1 151 283 209
196 2 2 1 1 196 271 257
197 2 2 1 1 61 143 60
198 2 2 1 1 63 146 62
199 2 2 1 1 59 151 58
200 2 2 1 1 65 139 64
201 2 2 1 1 67 136 66
202 2 2 1 1 184 186 185
203 2 2 1 1 146 271 211
204 2 2 1 1 56 154 55
205 2 2 1 1 284 285 153
206 2 2 1 1 69 137 68
207 2 2 1 1 263 276 262
208 2 2 1 1 219 246 245
209 2 2 1 1 87 147 88
210 2 2 1 1 89 145 90
211 2 2 1 1 85 148 86
212 2 2 1 1 251 275 252
213 2 2 1 1 91 149 92
214 2 2 1 1 93 142 94
215 2 2 1 1 158 162 161
216 2 2 1 1 95 150 96
217 2 2 1 1 54 157 53
218 2 2 1 1 97 140 98
219 2 2 1 1 229 232 215
220 2 2 1 1 71 159 70
221 2 2 1 1 257 271 146
222 2 2 1 1 140 225 224
223 2 2 1 1 100 135 101
224 2 2 1 1 99 251 100
225 2 2 1 1 102 141 103
226 2 2 1 1 104 144 105
227 2 2 1 1 184 226 187
228 2 2 1 1 106 158 107
229 2 2 1 1 201 302 233
230 2 2 1 1 107 160 108
231 2 2 1 1 190 242 197
232 2 2 1 1 172 178 171
233 2 2 1 1 176 273 181
234 2 2 1 1 158 160 107
235 2 2 1 1 80 266 81
236 2 2 1 1 263 277 276
237 2 2 1 1 137 262 68
238 2 2 1 1 204 274 202
239 2 2 1 1 200 233 166
240 2 2 1 1 202 274 265
241 2 2 1 1 202 265 198
242 2 2 1 1 226 244 210
243 2 2 1 1 67 262 136
244 2 2 1 1 176 181 174
245 2 2 1 1 181 277 272
246 2 2 1 1 184 185 180
247 2 2 1 1 194 216 193
248 2 2 1 1 158 161 160
249 2 2 1 1 295 308 183
250 2 2 1 1 192 193 179
251 2 2 1 1 167 270 169
252 2 2 1 1 90 248 91
253 2 2 1 1 96 249 97
254 2 2 1 1 79 264 138
255 2 2 1 1 98 188 99
256 2 2 1 1 186 220 185
257 2 2 1 1 209 283 268
258 2 2 1 1 215 268 208
259 2 2 1 1 208 283 206
260 2 2 1 1 169 172 171
261 2 2 1 1 51 238 50
262 2 2 1 1 200 303 233
263 2 2 1 1 105 256 106
264 2 2 1 1 165 234 167
265 2 2 1 1 187 226 210
266 2 2 1 1 164 302 163
267 2 2 1 1 197 242 219
268 2 2 1 1 142 301 291
269 2 2 1 1 205 289 207
270 2 2 1 1 252 253 135
271 2 2 1 1 231 278 240
272 2 2 1 1 140 224 188
273 2 2 1 1 50 155 49
274 2 2 1 1 78 280 264
275 2 2 1 1 172 179 178
276 2 2 1 1 145 248 90
277 2 2 1 1 198 271 196
278 2 2 1 1 53 309 2
279 2 2 1 1 150 249 96
280 2 2 1 1 50 238 155
281 2 2 1 1 140 188 98
282 2 2 1 1 68 262 67
283 2 2 1 1 57 235 56
284 2 2 1 1 252 254 253
285 2 2 1 1 192 194 193
286 2 2 1 1 194 223 216
287 2 2 1 1 180 273 176
288 2 2 1 1 291 301 243
289 2 2 1 1 188 251 99
290 2 2 1 1 156 293 161
291 2 2 1 1 182 295 177
292 2 2 1 1 211 265 143
293 2 2 1 1 232 268 215
294 2 2 1 1 155 313 240
295 2 2 1 1 77 280 78
296 2 2 1 1 230 278 231
297 2 2 1 1 172 270 191
298 2 2 1 1 78 264 79
299 2 2 1 1 212 287 151
300 2 2 1 1 144 296 267
301 2 2 1 1 144 256 105
302 2 2 1 1 254 261 260
303 2 2 1 1 227 257 195
304 2 2 1 1 265 271 198
305 2 2 1 1 153 280 77
306 2 2 1 1 1 310 84
307 2 2 1 1 225 295 224
308 2 2 1 1 86 250 87
309 2 2 1 1 220 221 185
310 2 2 1 1 103 218 104
311 2 2 1 1 254 260 253
312 2 2 1 1 185 273 180
313 2 2 1 1 173 290 175
314 2 2 1 1 277 282 276
315 2 2 1 1 191 192 179
316 2 2 1 1 181 282 277
317 2 2 1 1 279 285 194
318 2 2 1 1 141 307 218
319 2 2 1 1 172 191 179
320 2 2 1 1 253 260 259
321 2 2 1 1 255 299 101
322 2 2 1 1 265 274 143
323 2 2 1 1 191 213 192
324 2 2 1 1 203 247 205
325 2 2 1 1 273 282 181
326 2 2 1 1 218 296 144
327 2 2 1 1 221 273 185
328 2 2 1 1 234 270 167
329 2 2 1 1 171 261 173
330 2 2 1 1 242 301 219
331 2 2 1 1 95 291 150
332 2 2 1 1 51 286 238
333 2 2 1 1 201 303 137
334 2 2 1 1 223 267 216
335 2 2 1 1 101 299 102
336 2 2 1 1 85 294 148
337 2 2 1 1 56 235 154
338 2 2 1 1 268 283 208
339 2 2 1 1 143 274 212
340 2 2 1 1 211 271 265
341 2 2 1 1 191 288 213
342 2 2 1 1 252 314 254
343 2 2 1 1 142 291 94
344 2 2 1 1 73 293 74
345 2 2 1 1 241 298 155
346 2 2 1 1 283 287 206
347 2 2 1 1 52 286 51
348 2 2 1 1 159 292 163
349 2 2 1 1 221 282 273
350 2 2 1 1 74 293 156
351 2 2 1 1 151 287 283
352 2 2 1 1 135 255 101
353 2 2 1 1 192 279 194
354 2 2 1 1 276 305 136
355 2 2 1 1 267 296 216
356 2 2 1 1 83 292 4
357 2 2 1 1 250 312 147
358 2 2 1 1 4 292 71
359 2 2 1 1 289 297 207
360 2 2 1 1 194 285 223
361 2 2 1 1 141 218 103
362 2 2 1 1 148 250 86
363 2 2 1 1 157 300 286
364 2 2 1 1 155 298 49
365 2 2 1 1 306 312 228
366 2 2 1 1 297 306 214
367 2 2 1 1 270 288 191
368 2 2 1 1 238 313 155
369 2 2 1 1 2 309 52
370 2 2 1 1 230 312 250
371 2 2 1 1 163 292 83
372 2 2 1 1 281 284 156
373 2 2 1 1 177 295 183
374 2 2 1 1 145 289 248
375 2 2 1 1 207 297 214
376 2 2 1 1 175 290 182
377 2 2 1 1 48 310 1
378 2 2 1 1 159 302 201
379 2 2 1 1 246 311 245
380 2 2 1 1 147 312 306
381 2 2 1 1 254 314 290
382 2 2 1 1 213 279 192
383 2 2 1 1 216 296 217
384 2 2 1 1 269 306 297
385 2 2 1 1 145 297 289
386 2 2 1 1 226 308 244
387 2 2 1 1 157 309 53
388 2 2 1 1 234 288 270
389 2 2 1 1 183 308 226
390 2 2 1 1 243 301 242
391 2 2 1 1 49 298 48
392 2 2 1 1 94 291 95
393 2 2 1 1 260 261 178
394 2 2 1 1 269 297 145
395 2 2 1 1 214 306 228
396 2 2 1 1 228 312 230
397 2 2 1 1 149 311 92
398 2 2 1 1 233 302 164
399 2 2 1 1 147 306 269
400 2 2 1 1 141 299 259
401 2 2 1 1 84 294 85
402 2 2 1 1 73 304 293
403 2 2 1 1 72 304 73
404 2 2 1 1 136 305 222
405 2 2 1 1 240 313 237
406 2 2 1 1 286 300 238
407 2 2 1 1 178 261 171
408 2 2 1 1 137 303 263
409 2 2 1 1 102 299 141
410 2 2 1 1 71 292 159
411 2 2 1 1 259 307 141
412 2 2 1 1 275 314 252
413 2 2 1 1 253 259 255
414 2 2 1 1 84 310 294
415 2 2 1 1 259 299 255
416 2 2 1 1 253 255 135
417 2 2 1 1 286 309 157
418 2 2 1 1 182 314 275
419 2 2 1 1 52 309 286
420 2 2 1 1 290 314 182
421 2 2 1 1 237 313 300
422 2 2 1 1 298 310 48
423 2 2 1 1 300 313 238
424 2 2 3 4 121 316 120
425 2 2 3 4 134 315 122
426 2 2 3 4 110 124 123
427 2 2 3 4 124 110 111
428 2 2 3 4 132 131 118
429 2 2 3 4 124 111 125
430 2 2 3 4 131 117 118
431 2 2 3 4 131 130 117
432 2 2 3 4 125 111 112
433 2 2 3 4 118 317 132
434 2 2 3 4 130 116 117
435 2 2 3 4 125 112 126
436 2 2 3 4 129 116 130
437 2 2 3 4 126 112 113
438 2 2 3 4 133 316 6
439 2 2 3 4 316 317 120
440 2 2 3 4 109 315 3
441 2 2 3 4 127 126 113
442 2 2 3 4 129 115 116
443 2 2 3 4 128 115 129
444 2 2 3 4 127 113 114
445 2 2 3 4 115 128 114
446 2 2 3 4 127 114 128
447 2 2 3 4 119 317 118
448 2 2 3 4 123 318 110
449 2 2 3 4 133 317 316
450 2 2 3 4 120 317 119
451 2 2 3 4 110 318 109
452 2 2 3 4 315 318 122
453 2 2 3 4 3 315 134
454 2 2 3 4 6 316 121
455 2 2 3 4 132 317 133
456 2 2 3 4 122 318 123
457 2 2 3 4 109 318 315
458 2 2 3 4 4 121 120
459 2 2 3 4 134 122 5
460 2 2 2 211026 319 321 27
461 2 2 2 211026 26 321 13
462 2 2 2 211026 9 327 31
463 2 2 2 211026 320 324 323
464 2 2 2 211026 27 321 26
465 2 2 2 211026 1 9 31
466 2 2 2 211026 2 26 13
467 2 2 2 211026 320 323 322
468 2 2 2 211026 31 327 322
469 2 2 2 211026 319 324 321
470 2 2 2 211026 13 321 12
471 2 2 2 211026 323 324 319
472 2 2 2 211026 11 320 10
473 2 2 2 211026 28 319 27
474 2 2 2 211026 31 322 30
475 2 2 2 211026 30 323 29
476 2 2 2 211026 321 326 12
477 2 2 2 211026 322 323 30
478 2 2 2 211026 7 325 28
479 2 2 2 211026 29 325 7
480 2 2 2 211026 11 326 320
481 2 2 2 211026 320 327 10
482 2 2 2 211026 323 325 29
483 2 2 2 211026 322 327 320
484 2 2 2 211026 12 326 11
485 2 2 2 211026 28 325 319
486 2 2 2 211026 10 327 9
487 2 2 2 211026 324 326 321
488 2 2 2 211026 319 325 323
489 2 2 2 211026 320 326 324
490 2 2 4 211030 47 14 339
491 2 2 4 211030 14 47 5
492 2 2 4 211030 25 32 338
493 2 2 4 211030 25 6 32
494 2 2 4 211030 33 336 338
495 2 2 4 211030 15 337 339
496 2 2 4 211030 39 40 366
497 2 2 4 211030 32 33 338
498 2 2 4 211030 354 328 355
499 2 2 4 211030 14 15 339
500 2 2 4 211030 366 40 378
501 2 2 4 211030 353 332 354
502 2 2 4 211030 24 25 338
503 2 2 4 211030 355 328 356
504 2 2 4 211030 362 337 369
505 2 2 4 211030 338 336 340
506 2 2 4 211030 24 338 375
507 2 2 4 211030 337 362 368
508 2 2 4 211030 328 354 372
509 2 2 4 211030 331 364 383
510 2 2 4 211030 339 337 368
511 2 2 4 211030 364 331 371
512 2 2 4 211030 332 353 376
513 2 2 4 211030 354 332 372
514 2 2 4 211030 355 356 358
515 2 2 4 211030 340 336 341
516 2 2 4 211030 338 340 375
517 2 2 4 211030 364 365 383
518 2 2 4 211030 348 355 358
519 2 2 4 211030 350 354 355
520 2 2 4 211030 350 353 354
521 2 2 4 211030 348 350 355
522 2 2 4 211030 356 357 358
523 2 2 4 211030 345 348 358
524 2 2 4 211030 335 42 342
525 2 2 4 211030 22 23 334
526 2 2 4 211030 15 16 337
527 2 2 4 211030 335 342 357
528 2 2 4 211030 20 21 331
529 2 2 4 211030 350 351 353
530 2 2 4 211030 342 343 357
531 2 2 4 211030 17 18 329
532 2 2 4 211030 359 341 376
533 2 2 4 211030 348 349 350
534 2 2 4 211030 41 42 335
535 2 2 4 211030 357 343 358
536 2 2 4 211030 43 330 342
537 2 2 4 211030 42 43 342
538 2 2 4 211030 342 330 343
539 2 2 4 211030 345 347 348
540 2 2 4 211030 47 339 382
541 2 2 4 211030 43 44 330
542 2 2 4 211030 330 44 360
543 2 2 4 211030 343 345 358
544 2 2 4 211030 44 45 360
545 2 2 4 211030 350 349 351
546 2 2 4 211030 344 360 363
547 2 2 4 211030 348 347 349
548 2 2 4 211030 353 351 359
549 2 2 4 211030 344 330 360
550 2 2 4 211030 343 330 344
551 2 2 4 211030 45 333 360
552 2 2 4 211030 45 46 333
553 2 2 4 211030 37 38 328
554 2 2 4 211030 343 344 345
555 2 2 4 211030 360 333 363
556 2 2 4 211030 361 346 362
557 2 2 4 211030 357 356 366
558 2 2 4 211030 35 36 332
559 2 2 4 211030 353 359 376
560 2 2 4 211030 346 344 363
561 2 2 4 211030 345 346 347
562 2 2 4 211030 335 357 366
563 2 2 4 211030 349 347 352
564 2 2 4 211030 345 344 346
565 2 2 4 211030 347 346 361
566 2 2 4 211030 362 346 363
567 2 2 4 211030 33 34 336
568 2 2 4 211030 351 349 364
569 2 2 4 211030 352 347 361
570 2 2 4 211030 349 352 364
571 2 2 4 211030 364 352 365
572 2 2 4 211030 341 336 367
573 2 2 4 211030 35 332 367
574 2 2 4 211030 331 370 371
575 2 2 4 211030 362 369 380
576 2 2 4 211030 336 34 367
577 2 2 4 211030 34 35 367
578 2 2 4 211030 8 41 378
579 2 2 4 211030 40 8 378
580 2 2 4 211030 340 334 375
581 2 2 4 211030 362 363 368
582 2 2 4 211030 351 364 371
583 2 2 4 211030 19 365 377
584 2 2 4 211030 365 19 383
585 2 2 4 211030 39 366 373
586 2 2 4 211030 335 366 378
587 2 2 4 211030 337 16 369
588 2 2 4 211030 356 328 373
589 2 2 4 211030 363 333 368
590 2 2 4 211030 22 334 370
591 2 2 4 211030 37 328 372
592 2 2 4 211030 332 36 372
593 2 2 4 211030 17 329 369
594 2 2 4 211030 331 21 370
595 2 2 4 211030 21 22 370
596 2 2 4 211030 46 47 382
597 2 2 4 211030 16 17 369
598 2 2 4 211030 359 351 371
599 2 2 4 211030 334 340 381
600 2 2 4 211030 339 368 382
601 2 2 4 211030 371 370 374
602 2 2 4 211030 365 352 379
603 2 2 4 211030 18 19 377
604 2 2 4 211030 328 38 373
605 2 2 4 211030 19 20 383
606 2 2 4 211030 334 23 375
607 2 2 4 211030 38 39 373
608 2 2 4 211030 368 333 382
609 2 2 4 211030 341 359 381
610 2 2 4 211030 36 37 372
611 2 2 4 211030 366 356 373
612 2 2 4 211030 377 365 379
613 2 2 4 211030 23 24 375
614 2 2 4 211030 329 18 377
615 2 2 4 211030 41 335 378
616 2 2 4 211030 367 332 376
617 2 2 4 211030 359 371 374
618 2 2 4 211030 20 331 383
619 2 2 4 211030 341 367 376
620 2 2 4 211030 340 341 381
621 2 2 4 211030 333 46 382
622 2 2 4 211030 361 362 380
623 2 2 4 211030 379 361 380
624 2 2 4 211030 352 361 379
625 2 2 4 211030 359 374 381
626 2 2 4 211030 370 334 374
627 2 2 4 211030 329 379 380
628 2 2 4 211030 369 329 380
629 2 2 4 211030 374 334 381
630 2 2 4 211030 329 377 379
$EndElements
