$MeshFormat
2.2 0 8
$EndMeshFormat
$PhysicalNames
4
2 1 "horn_surface"
2 2 "throat_cap"
2 3 "interface_wall"
2 4 "interface_face"
$EndPhysicalNames
$Nodes
722
1 15 0 -100
2 -15 0 -100
3 60 0 6
4 -60 0 6
5 60 0 20
6 -60 0 20
7 14.27551292542904 3.811029765405697 -100
8 12.81196139485719 7.394529692491842 -100
9 10.48552574657258 10.48673721823474 -100
10 7.414320024441962 12.84312106899973 -100
11 3.837914611331585 14.32439546593872 -100
12 8.265236317583913e-14 14.829629 -100
13 -3.837914611331432 14.32439546593876 -100
14 -7.414320024441818 12.84312106899982 -100
15 -10.48552574657247 10.48673721823485 -100
16 -12.81196139485712 7.394529692491964 -100
17 -14.27551292542902 3.811029765405759 -100
18 58.79901734873361 7.66981241801001 20
19 57.10205265570602 15.24411927762484 20
20 54.65366622654403 22.60698783966733 20
21 51.24784562715137 29.57811864040922 20
22 47.02657732861478 36.08816967601094 20
23 41.94210225966807 41.94694826622098 20
24 36.10811002454768 47.06169590047784 20
25 29.65727983156206 51.37248440413362 20
26 22.69834812962905 54.80313712625293 20
27 15.35165855690222 57.29758298857487 20
28 7.741957542190034 58.81038130635508 20
29 2.479570841984468e-13 59.31851666666667 20
30 -7.741957542189542 58.81038130635515 20
31 -15.35165855690174 57.29758298857501 20
32 -22.69834812962861 54.80313712625312 20
33 -29.65727983156163 51.37248440413387 20
34 -36.10811002454734 47.0616959004781 20
35 -41.9421022596678 41.94694826622125 20
36 -47.02657732861449 36.08816967601132 20
37 -51.24784562715116 29.57811864040961 20
38 -54.65366622654386 22.60698783966775 20
39 -57.1020526557059 15.24411927762527 20
40 -58.79901734873361 7.669812418009964 20
41 -11.25 0 -100
42 -7.5 0 -100
43 -3.75 0 -100
44 0 0 -100
45 3.75 0 -100
46 7.5 0 -100
47 11.25 0 -100
48 -52 0 20
49 -44 0 20
50 -36 0 20
51 -28 0 20
52 -20 0 20
53 -12 0 20
54 -4 0 20
55 4 0 20
56 12 0 20
57 20 0 20
58 28 0 20
59 36 0 20
60 44 0 20
61 52 0 20
62 14.27551292542904 3.811029765405697 -100
63 12.81196139485719 7.394529692491841 -100
64 10.48552574657258 10.48673721823474 -100
65 7.414320024441965 12.84312106899973 -100
66 3.837914611331587 14.32439546593872 -100
67 7.987029223185025e-14 14.829629 -100
68 -3.837914611331432 14.32439546593876 -100
69 -7.414320024441819 12.84312106899981 -100
70 -10.48552574657247 10.48673721823485 -100
71 -12.81196139485712 7.394529692491964 -100
72 -14.27551292542903 3.811029765405757 -100
73 -16.3408321458106 0 -96.16926696078382
74 -17.74890060383081 0 -92.20898126620196
75 -19.22789647236597 0 -88.11521432421218
76 -20.78172004960639 0 -83.88396378443856
77 -22.4144934139893 0 -79.51115242496488
78 -24.13057011390918 0 -74.99263657511858
79 -25.93454829227647 0 -70.32420681398621
80 -27.83128231323304 0 -65.50159433403432
81 -29.82589546183031 0 -60.52047599971551
82 -31.92379246557186 0 -55.37648134005967
83 -34.13067252780465 0 -50.06519962769674
84 -36.45254275447017 0 -44.58218733298975
85 -38.89573156587094 0 -38.92297685994203
86 -41.46689993665835 0 -33.08309125253322
87 -44.173058662816 0 -27.05804596029329
88 -47.02157801132593 0 -20.84336886267018
89 -50.02020174668739 0 -14.43461064431763
90 -53.1770599614924 0 -7.827358282169297
91 -56.50068065593428 0 -1.017251241832855
92 58.79633638495386 7.684274220800301 5.767358939243623
93 57.09518529309656 15.26955482551218 5.44895335531902
94 54.64168812262132 22.63644925858618 5.005605013963669
95 51.23423994099598 29.60217283579118 4.41695311662805
96 47.01697075563901 36.10101238113734 3.736797536017863
97 41.94262425360635 41.94642632640269 2.999740313596231
98 36.12222215591426 47.05086500523409 2.259767630140725
99 29.68350902263919 51.3573333463189 1.569330744319383
100 22.73049724955331 54.78981059061421 0.9761010767254594
101 15.38076476872707 57.28977663650507 0.5193507769741595
102 7.759191054957194 58.80811007854771 0.2326329594366802
103 -2.926530984215248e-13 59.31851666666667 0.1339746666666667
104 -7.759191054957758 58.80811007854764 0.2326329594366945
105 -15.38076476872762 57.28977663650491 0.5193507769741871
106 -22.73049724955383 54.78981059061399 0.9761010767254981
107 -29.6835090226397 51.35733334631861 1.569330744319431
108 -36.12222215591476 47.0508650052337 2.259767630140784
109 -41.94262425360672 41.94642632640233 2.999740313596282
110 -47.01697075563935 36.10101238113688 3.736797536017916
111 -51.2342399409962 29.60217283579079 4.416953116628087
112 -54.64168812262136 22.63644925858605 5.005605013963677
113 -57.09518529309658 15.26955482551206 5.448953355319026
114 -58.79633638495386 7.684274220800272 5.767358939243625
115 16.3408321458106 0 -96.16926696078382
116 17.74890060383081 0 -92.20898126620196
117 19.22789647236597 0 -88.11521432421218
118 20.78172004960639 0 -83.88396378443856
119 22.4144934139893 0 -79.51115242496488
120 24.13057011390918 0 -74.99263657511858
121 25.93454829227647 0 -70.32420681398621
122 27.83128231323304 0 -65.50159433403432
123 29.82589546183031 0 -60.52047599971551
124 31.92379246557186 0 -55.37648134005967
125 34.13067252780465 0 -50.06519962769674
126 36.45254275447017 0 -44.58218733298975
127 38.89573156587094 0 -38.92297685994203
128 41.46689993665835 0 -33.08309125253322
129 44.173058662816 0 -27.05804596029329
130 47.02157801132593 0 -20.84336886267018
131 50.02020174668739 0 -14.43461064431763
132 53.1770599614924 0 -7.827358282169297
133 56.50068065593428 0 -1.017251241832855
134 58.79633638495386 7.684274220800301 5.767358939243623
135 57.09518529309656 15.26955482551218 5.44895335531902
136 54.64168812262132 22.63644925858618 5.005605013963669
137 51.23423994099598 29.60217283579118 4.41695311662805
138 47.01697075563901 36.10101238113734 3.736797536017863
139 41.94262425360635 41.94642632640269 2.999740313596231
140 36.12222215591426 47.05086500523409 2.259767630140725
141 29.68350902263919 51.3573333463189 1.569330744319383
142 22.73049724955331 54.78981059061421 0.9761010767254594
143 15.38076476872707 57.28977663650507 0.5193507769741595
144 7.759191054957194 58.80811007854771 0.2326329594366802
145 -2.926530984215248e-13 59.31851666666667 0.1339746666666667
146 -7.759191054957758 58.80811007854764 0.2326329594366945
147 -15.38076476872762 57.28977663650491 0.5193507769741871
148 -22.73049724955383 54.78981059061399 0.9761010767254981
149 -29.6835090226397 51.35733334631861 1.569330744319431
150 -36.12222215591476 47.0508650052337 2.259767630140784
151 -41.94262425360672 41.94642632640233 2.999740313596282
152 -47.01697075563935 36.10101238113688 3.736797536017916
153 -51.2342399409962 29.60217283579079 4.416953116628087
154 -54.64168812262136 22.63644925858605 5.005605013963677
155 -57.09518529309658 15.26955482551206 5.448953355319026
156 -58.79633638495386 7.684274220800272 5.767358939243625
157 -60 0 13.00009418604572
158 58.79901734873361 7.66981241801001 20
159 57.10205265570602 15.24411927762484 20
160 54.65366622654403 22.60698783966733 20
161 51.24784562715138 29.57811864040923 20
162 47.02657732861476 36.08816967601094 20
163 41.94210225966807 41.94694826622098 20
164 36.10811002454767 47.06169590047786 20
165 29.65727983156205 51.37248440413362 20
166 22.69834812962903 54.80313712625293 20
167 15.3516585569022 57.29758298857489 20
168 7.741957542190008 58.81038130635508 20
169 2.243682495350896e-13 59.31851666666667 20
170 -7.741957542189554 58.81038130635515 20
171 -15.35165855690176 57.297582988575 20
172 -22.69834812962862 54.80313712625311 20
173 -29.65727983156165 51.37248440413386 20
174 -36.10811002454736 47.06169590047809 20
175 -41.94210225966779 41.94694826622124 20
176 -47.0265773286145 36.0881696760113 20
177 -51.24784562715116 29.5781186404096 20
178 -54.65366622654385 22.60698783966774 20
179 -57.10205265570592 15.24411927762522 20
180 -58.79901734873363 7.66981241800992 20
181 60 0 13.00009418604572
182 22.79258361460118 3.76659109239206 -76.91057429706143
183 -22.68625013351738 4.066023365614113 -77.02923195353262
184 34.67457796570108 5.042429001339256 -46.9550134125849
185 -3.752122152614305 55.96944429349671 -5.797347931404488
186 28.23308949929074 4.866484426027599 -62.53795528774455
187 2.079296317198083 15.79499835946315 -96.88079524350951
188 -37.01025738726071 5.197379183219526 -41.4659725700153
189 25.15043072350424 50.0403185094388 -4.95000974666295
190 -31.80299068667505 46.45403838831686 -3.781942743289019
191 42.16741226058394 5.544606825280409 -29.69554660150693
192 -42.17991747974647 5.656998532853589 -29.62445191507418
193 -19.81105123531883 3.599280036168539 -84.89551056516962
194 -6.132511281965879 14.73832544176576 -96.7816826394168
195 42.6045952788704 36.63788476182229 -2.643157061170591
196 19.82668437458552 3.585095508921253 -84.86150363454998
197 -47.12519012175488 30.9107002026343 -1.495259266999152
198 9.658661924486001 12.50738819997783 -97.22095268642227
199 47.92823595906485 6.18365216282038 -16.97998663639756
200 -32.38661382153504 4.846622096826874 -52.45465829696177
201 -26.27583649416355 4.362620968016341 -67.67413641158127
202 -47.81027052323319 5.972756050612155 -17.30649475236871
203 -12.62514972320218 9.675236828929597 -96.87949898818388
204 17.71543570375067 3.38661150122004 -90.71011768023565
205 17.78697648667677 7.154305937276237 -87.55577246124986
206 50.50542585113226 24.41848554255864 -1.334284592706251
207 10.79204804643415 54.97677859814755 -5.75837098843493
208 -18.5945889805879 53.18218622447645 -4.796650104460189
209 -53.49656979769443 17.84890149541979 -0.1940522736905311
210 14.664121585761 6.060360411190963 -96.87439241695506
211 54.1405338610467 5.812673659822631 -4.18676194377261
212 -16.41946691561736 3.872820999975509 -93.97239711184722
213 -54.17097664639727 6.014007286524551 -4.059081261695463
214 -9.827503046927838 12.55460008024605 -96.82103009441417
215 -8.612189146217682 14.80360373935482 -93.51438056083654
216 -4.831866457935774 16.47256986047635 -93.42907122732419
217 -7.372121255891945 16.81584977735202 -90.12793457625254
218 -3.325820055297666 18.1931759347759 -89.79472674019522
219 -6.059588450330039 18.7051040761423 -86.62356387421219
220 -1.901572193157059 19.76923590277952 -86.12208972917962
221 -4.701060420665376 20.5675413600618 -82.82518537159253
222 -0.3426117499400303 21.34098401560452 -82.20283375689458
223 -3.247739259123671 22.33903964516212 -78.99004286571656
224 1.27435257645577 22.82242430718302 -78.26842368234283
225 -1.74088035601515 24.10424646858752 -74.9235953625095
226 2.937113151724203 24.32550805487493 -74.06844385268531
227 -0.1751459708494005 25.85508317066408 -70.69037611408818
228 4.481997817789265 25.92290408013513 -69.5420391788371
229 1.446715257910696 27.60543717862962 -66.2887184705652
230 6.406638356374155 27.33949892859122 -65.17116655986557
231 3.124581610080104 29.36795600886117 -61.71902078357442
232 8.133316652133347 28.93976783938182 -60.38028782934745
233 4.858769753806967 31.1543280604559 -56.98150439054115
234 10.03003508564395 30.54358322297849 -55.42440812013555
235 6.650047729031558 33.00307777859636 -52.01402423078945
236 0.8921650692252086 33.14952620455877 -53.23999405932393
237 12.0060345807263 32.08546646908641 -50.5059081650781
238 3.034521126905299 35.19946861673897 -48.2984510188715
239 -2.62461379707129 34.80516781438286 -49.26193853124595
240 -2.818449495892437 27.1842560716293 -67.04461555165851
241 -0.6942741264390995 37.1654539794074 -44.21085363171167
242 -6.635021511475848 36.21254316098155 -44.92779895973379
243 -4.554544731794973 38.81616473451452 -39.99795358764388
244 -10.44180486447776 37.37426320130431 -40.45554220397533
245 1.419979153788311 39.49282740307082 -39.08696146682919
246 -12.38787687524853 34.36252625267792 -45.38973004006309
247 -16.05457232154522 35.07596172499719 -40.71139691628392
248 4.216001832064411 21.20408559511619 -81.46284445301625
249 15.27621443326109 28.90644724089878 -53.95089637655128
250 17.15145332426413 30.41110559050705 -48.77976147909808
251 9.208917717762068 25.01100683824495 -68.60058724828133
252 -17.77307168228197 31.72991947295948 -45.48099372867897
253 -21.29339588392914 32.02088208209669 -40.65572709435911
254 -19.74480187997652 35.61234025588064 -35.86881092656523
255 -24.90564005288389 32.1488516662472 -35.59924376248203
256 -7.679957758690518 21.0317460768009 -79.41027810691173
257 -2.553771977582064 41.45110380054957 -34.77866824247893
258 3.637607495428942 41.88882875328778 -33.67513561390108
259 20.34973986792048 26.70342710051058 -51.64145986239966
260 22.00891880743263 28.13184150877677 -46.66223349267605
261 -22.75288339533983 28.32661557486895 -45.23268572549442
262 -19.38381377330113 28.26146549092838 -50.11047577107428
263 -23.44744694983419 36.01563829416189 -30.83528574204258
264 -28.53974772000047 32.17220704335701 -30.33140736376074
265 -9.98070118758519 16.88993363110209 -86.68605745500108
266 19.04219957703885 32.05387101980971 -43.37582315589547
267 24.1109872953021 29.59467787223471 -41.06145245317015
268 21.01862748990967 33.76452077183907 -37.81635971439447
269 26.03275562396342 31.15102278146393 -35.65605340634589
270 23.00024534652246 35.51561454610053 -32.26068906924729
271 28.2909356665262 32.76605988915072 -29.76342434249653
272 29.11823322951123 26.0527222306644 -38.65848849544585
273 39.52364771768783 5.532914686998592 -35.60426283734731
274 -29.72924274479069 27.92034696357831 -34.91397122151015
275 -33.15247275706832 27.66969266417443 -29.46847928648192
276 -0.4908026874656616 44.14118980435013 -29.3178549231857
277 5.688236109072349 44.31218684634867 -28.16548251490591
278 -32.16404284948191 32.17089221179474 -24.82736317649838
279 -36.59626599321761 27.32785741201655 -23.867201609378
280 -23.96552032734208 24.59004181544843 -49.64320472794288
281 -20.84151217535419 24.75981131851801 -54.40373565869377
282 25.08385994896316 37.35376877471811 -26.51912103265525
283 24.80247131554578 23.69757930743607 -49.65343817033558
284 22.8854546287183 22.6073844257364 -54.71917530506255
285 32.40269165618464 4.985704440722589 -52.35383069427631
286 30.49259400969554 34.5400060909624 -23.81336321324171
287 33.17251165878436 29.36911562155982 -27.14806233459937
288 -16.17157830403149 28.00819744305266 -54.72547447937374
289 -17.72313795475579 24.73490905230494 -59.13153340381743
290 -21.99526314595219 21.21984117379978 -58.55788509769437
291 -19.10942553669804 21.38490536363427 -63.24835853708682
292 -30.26259266870061 4.770496055523598 -57.60848508894896
293 -35.78789107583142 32.09530690586837 -19.19731973123544
294 -40.05562149056858 26.9570954660641 -18.09089916618078
295 -30.88058132596346 36.74481812081288 -19.89427563151162
296 -33.69668591867195 23.57890123757899 -33.65243216192287
297 -39.54182345899159 5.433354430838744 -35.60337566913518
298 35.43058443261909 31.10076168355441 -21.09559589583497
299 37.69552837274274 25.47602944420558 -24.02651395329992
300 45.0183301633848 5.518946397864548 -23.46245080714655
301 -17.83835772940715 39.26770643155831 -30.89703475525325
302 1.663596909775718 46.83675434160434 -23.74940300827513
303 7.678229799081901 46.82093640805108 -22.48645782355531
304 33.15253334133878 36.71583381691931 -16.73186483452785
305 -4.672311356050301 46.09388982307796 -24.8020597806304
306 -30.35143709052545 9.563060829312503 -54.64427766891448
307 32.54520216614728 9.907681191046263 -49.31208151619467
308 40.11570604522618 27.13794118350236 -17.78551843564503
309 -22.8583411938785 17.59329336197662 -62.56927730085906
310 -20.3640041802954 17.82966291066224 -67.11093304173231
311 -28.21294574116056 4.618614100412181 -62.70938879365546
312 -16.36104028024165 21.38703818608127 -67.66713426248756
313 -17.86114631916867 18.12743412879792 -71.27966690457089
314 -24.45308811381802 4.223589209338644 -72.37820649049085
315 -40.69059394846066 21.83132911677255 -22.14184062582748
316 -45.00641242158387 5.490535767066801 -23.49869259493748
317 -43.92903595522139 21.19064335009901 -16.46004368961435
318 39.83723183049189 11.01494751918528 -32.26014393520364
319 -51.09336443398671 5.50810919395486 -10.56435855756897
320 1.024909725761154 18.47550362615131 -89.7770811203746
321 41.95705933011629 21.20804136847584 -20.27060269790945
322 15.91755321225332 35.49739842974058 -40.00619573558627
323 -22.52669152983476 8.262183724920837 -74.53084218416389
324 -12.93025337521495 27.55326833520076 -59.3367090903136
325 30.34037113655889 9.836576834840187 -54.47777828311808
326 3.882718466573502 49.61866276950905 -17.935960597753
327 -37.24255840782627 10.51657043271368 -38.28051588033802
328 37.3465133135658 10.66809342364238 -37.9585464731619
329 37.33194826136524 15.72375307684069 -34.41021068388192
330 34.73602066439032 15.4840826151765 -40.11575910155607
331 19.74264317600178 39.45811728454321 -28.71644158438235
332 21.60418292956773 41.64996176408557 -22.86994051549243
333 -30.34033159803638 24.10929203738116 -39.19795285733122
334 -34.76237793512067 10.22344577706208 -44.03808762329263
335 -34.77844881119474 36.8227734996104 -14.22895677587516
336 -20.84446375269037 7.928618623710317 -79.030606756436
337 44.23315011510712 22.97891381093413 -14.29629468798717
338 50.9207458264476 6.400195631646113 -10.61866375328024
339 -13.62749516415064 21.27742091193228 -71.91153806430641
340 -15.22310524829861 18.10884553731293 -75.93757940391001
341 -29.31811907173109 41.24344572005012 -14.9026570890578
342 -25.45555845037503 40.74900278934621 -20.30577097271882
343 -5.011492433411346 32.29357936904133 -54.30970340472781
344 -23.70213806335101 13.39081106728734 -66.35059794358231
345 -25.8081497969215 13.39047166719185 -61.65627834401106
346 -23.46861930329907 45.0199723370954 -15.0877061350112
347 -19.29428886295599 44.20386212859465 -20.39391968505212
348 29.94030674543799 14.5679567668978 -51.30795764289355
349 27.59017768392896 14.53561262327727 -56.46134229360992
350 9.951920051741894 49.39764727393229 -16.57907481437566
351 -12.01128570163022 23.97980481187397 -68.10553144628872
352 -9.195034284301045 23.59022086182094 -71.91558674422163
353 51.70660128797198 13.04995147548664 -6.271351962425462
354 -17.11056184771351 48.0533621154666 -15.04861209893609
355 -42.53890624673417 11.97422753622322 -25.87382636241576
356 -20.13869890314984 11.86249737294769 -76.31276025116257
357 -18.36500033525431 11.51474362090892 -80.84986467548366
358 9.355835639301597 41.48426664918793 -32.54362557503347
359 41.99914195698582 29.47080093668981 -11.89996276502763
360 45.43418811484381 16.85432626279849 -16.81385907556087
361 -43.6490683948267 26.49756802437778 -12.04433981999377
362 -47.04373734574327 20.80886542191339 -10.74260982982353
363 -12.25348005844852 11.94288617814672 -93.51944090473773
364 -17.69641715774433 3.490337010982344 -90.70012695652863
365 -17.9596683152242 6.551771088961489 -87.68660512294562
366 -14.75123509074056 8.314128041716987 -93.86227711884766
367 39.99450500980066 15.7897062095183 -28.76836604600823
368 -34.47353800312961 15.23832739744934 -40.89377445791809
369 -31.49882728146162 15.20635103997252 -47.30107424384853
370 -25.42015058607141 17.19879971043884 -57.8909234028189
371 -14.57143472816071 11.00399011280754 -90.25590805964902
372 42.68389346830052 16.08162250001831 -22.9708137447387
373 -51.95011796588352 12.27170830805308 -6.144032419925889
374 35.44121462601068 23.80346155713274 -30.11134176457948
375 -46.54852870808337 15.8168848042889 -15.22599300063534
376 -37.11833015469194 15.42259325625782 -35.10831125685663
377 -24.32860441622399 8.605829427107013 -69.7974514388706
378 -13.18301189244426 46.55595158091656 -20.41557745226103
379 -10.47939386803492 49.61786300673691 -15.93072401148464
380 -10.97318212806831 30.55472682769001 -54.65762224335094
381 -7.634356501787717 29.72628285674936 -58.90126960991326
382 16.19675198345693 43.07555116259285 -25.03238730703636
383 18.10526393416178 45.53082468163824 -18.94159712559026
384 23.9787164698139 43.6918758806672 -16.87177630565783
385 20.21599780865843 48.30215607924508 -12.23357934320096
386 -26.37128606512369 8.803989123932233 -64.66975968227705
387 -11.2615752930762 14.41037000738981 -90.27401904341241
388 -13.52748046090981 14.28379230182441 -86.46666672319826
389 -12.39352832804103 16.8716914609369 -83.12193265777981
390 -21.53086514925711 13.23123756248911 -71.3932785721647
391 28.19057987878006 9.794937220852949 -59.56041060597417
392 25.48039438100442 14.27262407614887 -61.37339889378503
393 26.05075439429333 9.841794974274343 -64.60218010952261
394 23.19549065018183 13.45384184738039 -67.40298139457356
395 22.13562904863907 18.25279397306683 -63.01562629331212
396 19.94234084131691 17.96072562794556 -67.7027624535355
397 20.52903807811657 14.79072712102731 -71.44081751858529
398 17.6044773326467 17.89746075244835 -72.15777582248555
399 18.90619469649931 14.35397640543239 -75.53091775072276
400 15.42740691001157 17.60738766191796 -76.56572487750861
401 16.84966392637308 14.34020051965236 -79.83386432413872
402 21.0489774595181 3.969984775798582 -81.38432263055509
403 18.26819341062932 21.63849140254784 -64.16747655082636
404 13.25924405440749 17.36988202187105 -80.68106788659992
405 11.39261642107418 20.17486935911771 -77.31562728865228
406 14.78377449633409 14.27586268599157 -84.07641639502766
407 11.13776671131676 16.98238924144924 -84.8142637912439
408 12.74598855631586 14.28010818891564 -87.92245856824661
409 9.077046752680149 16.53858056061271 -88.73366778548117
410 17.73153275641972 10.97497113133215 -83.05659725200454
411 21.74778604051545 10.59572367032023 -74.09859201550189
412 24.51285132331035 3.987102128218227 -72.34615625057863
413 26.27820253009154 4.517354106898429 -67.59031529743488
414 21.41205644090784 7.271661928645056 -78.1675423511667
415 30.26395825865805 5.002770972385458 -57.49570700220325
416 24.29321816213917 8.471436606902802 -69.99401321907921
417 10.74748493406558 14.03923894294094 -91.95515847464441
418 7.062422866612994 15.96843810847469 -92.60190488299926
419 13.78720309416792 11.68815356855344 -90.80958208248492
420 7.115753888959928 18.82487350410697 -85.37374194387583
421 6.665460497101382 52.50709583652998 -11.74653038230524
422 0.3288913807767473 52.94821669590329 -11.7816466586881
423 34.04326437620863 21.30610624253792 -35.61662092439811
424 6.124387235686701 14.81401888707145 -96.59368213412162
425 -1.660703016347026 30.6826236620209 -58.89915519970722
426 -9.933464744264953 26.99018875932303 -63.44271554941842
427 12.57232333789381 9.635492670514349 -97.06812968199048
428 -2.079296317197885 15.79499835946296 -96.88079524351011
429 -0.3186143334933394 17.22566068676077 -93.26983414275557
430 -15.82119217217264 42.81607871600936 -25.8152592670784
431 31.13901180792136 20.70193489072178 -42.00651736299866
432 53.51491921192571 17.37299857669908 -0.4296360783911462
433 37.04094753914907 5.242013157810595 -41.37683057577517
434 -43.64170281884799 16.12449797789277 -20.96909521707268
435 -8.795307429640715 33.43484344050181 -49.90015675061771
436 47.98516387480113 18.53280004269556 -10.56692312357811
437 32.28289550905586 14.97306328707944 -45.83891470902502
438 28.80265471367968 19.71185369326441 -47.83333444081825
439 -14.66412158618426 6.060360409917932 -96.87439241719972
440 16.49388445930219 3.529334147459173 -93.9932240406164
441 16.36964149620379 6.747696131490327 -91.6484027444136
442 46.81281449139546 25.35294720205448 -7.333593334860179
443 -34.65544079667047 4.962436402806185 -47.03425481618859
444 -27.123507213359 24.41841557625894 -44.51280775097987
445 -27.9168866411331 20.30257103371638 -48.81974306702167
446 -24.95435500565751 20.87780479813994 -53.69027869998249
447 -28.09178264833119 16.92432593213605 -52.66970788814566
448 16.08896944549046 21.09036451318239 -68.67053825052602
449 13.94778911728292 23.88031400218258 -65.98519653604293
450 16.05034701701911 24.73331859194878 -61.46734583723641
451 -19.43943907493418 7.277787477890538 -83.19194257783938
452 -16.73918307605565 10.98261906510975 -85.3464618855775
453 -21.17187955399319 3.659907754155059 -81.23019614994428
454 -16.35688567433747 7.011435283463371 -91.40024182461707
455 19.55988162133556 10.7443274852443 -79.07976981619828
456 13.6710100619035 20.62279765185474 -73.23187988778533
457 9.630425601025902 22.76671651888489 -73.41091068130547
458 -39.83734788381322 11.01440835248794 -32.26019744626639
459 -39.31497116309674 16.40902376953503 -29.70310746915364
460 5.085170394287503 17.94507617287906 -89.35790395712621
461 2.539135774760251 19.84891388809377 -85.71883548939266
462 8.633611288770549 19.87366299371999 -81.27365636405437
463 24.51175213472759 18.50204687434022 -57.97079838244809
464 -26.2355504528409 28.31350858391268 -39.95382007774793
465 -14.80820205474323 24.54193133362918 -63.50007369987771
466 -14.35594058557638 31.24781524972847 -50.11272999874446
467 7.383239834784459 39.34670713722536 -37.89089259674612
468 15.70667706503864 11.39930640198939 -87.07467767971943
469 27.27755460962682 45.23701338278937 -10.79088469433751
470 31.44632510941469 46.2404226592805 -4.523809008148486
471 32.56519135971141 41.41084931995421 -10.54119288200644
472 18.05896205951065 52.79339840607206 -5.843585182425851
473 37.17127215407054 41.53002404005176 -4.223697510647357
474 38.49164635175013 36.01847565529845 -9.779231858030638
475 -37.47919167241713 22.11032324350547 -28.07048089170556
476 31.32682795615969 27.52510542557716 -32.79337861103355
477 6.331239600520993 22.55176305860752 -76.7712269748901
478 -33.50377615628292 41.57673246588771 -9.07129534775445
479 -38.65135459916523 36.87672614935295 -8.410565169365416
480 -37.59763238319032 41.9456122399981 -3.062468700864039
481 26.92854120200483 24.81736087621997 -44.25503601134893
482 -10.9262205551271 21.12121126367638 -75.76290454518752
483 -32.49430485497926 9.857454939176719 -49.4626128864726
484 -30.28344130459477 12.93222802315254 -52.11536741395579
485 -3.224053580489058 49.48943492527032 -18.29094896587084
486 3.630898373458225 56.00901614494629 -5.739916322967826
487 -6.415532388281219 43.17344014973536 -30.2776826515462
488 -27.23073572538375 36.43065346051155 -25.33087460150966
489 -39.53759531628702 31.76534527978603 -13.46788546005902
490 -8.480642797546087 40.30275333256179 -35.40126306384276
491 -11.18451121350371 55.2075560230106 -5.17777715074542
492 5.092040458722558 37.30153884588481 -43.12094092387645
493 -7.289311330935522 26.16822833087955 -67.3866497986342
494 -25.39024234685738 50.27671384791416 -4.334368390403957
495 -14.15881337682232 38.33795582259427 -35.86199040450266
496 17.99848819801248 37.34652192736569 -34.40703604551616
497 34.97044862955426 10.10406512722232 -43.64053059840011
498 13.92433048632579 33.63956436200169 -45.59041081849411
499 26.72844730927379 18.92823141718109 -52.97184740566382
500 -28.2695881231882 9.204254527530342 -59.81689322701352
501 -21.6508589351622 40.11990507918549 -25.56852748278914
502 27.28966581554951 39.29119066822986 -20.56029520976746
503 -8.745593004168299 18.98375024869959 -83.28758760038215
504 20.68112580275492 21.9373104016615 -59.62635436052607
505 -31.13373499163205 19.86245417787632 -43.01019334980995
506 -42.49329657173938 36.83669573281232 -2.576034786412463
507 47.23110125344299 30.64135728202 -1.579560615605101
508 -17.1887175092197 14.76201789015889 -78.43396621999352
509 8.55758934315843 34.77680361643428 -47.11040437103031
510 -50.89403526287338 24.52114073684169 -0.5349958735524331
511 -28.13673629310867 13.24819966487073 -56.61270714052183
512 -27.66671261785526 45.6217028999616 -9.739820404498188
513 -6.24745501297615 23.08294318834416 -75.52284388970531
514 -15.50534979438856 14.09564640716587 -82.97806749152483
515 48.54393981483034 12.32308063290531 -13.07777439751196
516 -21.28276232688777 49.13766804963088 -9.884975649421861
517 -12.11656086196084 41.62841883735828 -30.71032140575883
518 -43.37177671552202 31.54660643062644 -7.264237106374175
519 -47.43645171647224 25.69426700008879 -5.88230008531308
520 -50.23485635717169 19.44791774174139 -5.539128453705324
521 18.22088370875827 25.65891850260429 -56.6485260931715
522 55.43802630180897 10.81256059492259 0.2395117896187991
523 37.95787053791366 32.30734653570085 -15.4030750261107
524 19.77963608347301 7.21207100038546 -82.38076423761623
525 -4.706597150860584 25.17198066629868 -71.2759854816893
526 12.87305328094487 27.84921112155082 -58.76166278212663
527 -11.85285609329286 18.81913521540163 -79.70634735883779
528 10.67639810937244 36.64371493904539 -41.8387174753657
529 -4.997148107675155 28.48534645256782 -63.16545998515132
530 3.562675080800432 16.80445343979152 -93.40298643080177
531 13.39858428757028 51.44879612469729 -11.07190411092519
532 -55.58993935910678 10.8409828274841 0.5538132762017899
533 42.48267396333535 10.80829797916177 -26.62804349039465
534 29.28475843461183 40.9601152412434 -15.39518559865399
535 11.93837298530431 11.8904145240191 -94.2539213169608
536 14.146232930528 9.189526943038286 -94.08562428295971
537 45.67381393153962 11.4672700744028 -19.48809214884101
538 -18.63532653178156 15.26560737745845 -74.6660867895128
539 -14.64482868916298 51.51406615966373 -10.26766700541332
540 -45.58112803557473 11.00612000248475 -19.91376599776154
541 -6.84728046981838 52.92774674745085 -10.89892935660236
542 10.75340895001295 26.62946929763424 -63.51746264130387
543 12.79176967577365 38.62829830740321 -36.30251034241029
544 -33.93907622645693 19.72217184300998 -37.55873728255015
545 15.50073782286721 2.947504401248921 -97.13457792601127
546 -56.92269474500122 5.516290710938611 1.346277162977526
547 43.64906591537634 31.77708196154725 -6.541176665088859
548 50.33299475850396 19.68218765157384 -5.190544311794696
549 -15.42539595022618 2.928542468652052 -97.35856865102167
550 39.40870348763104 20.34946822343923 -26.055378350453
551 12.60857769844707 22.81947105940009 -69.93889111037616
552 14.58166647343008 40.75018043775417 -30.75744071913184
553 11.10564149710467 43.79480614863301 -26.9779498425602
554 23.03472012279384 6.870554324042306 -74.36490731985542
555 -48.5923254794762 10.78939638950239 -13.70661649168146
556 -9.788630598688142 44.71403368688748 -25.81309258063302
557 8.895247511696901 14.21443493061154 -94.50953125341074
558 -0.7395868885414199 28.88323486058 -63.2685030834834
559 15.47109531591318 6.541140408032497 -94.22046789289948
560 -14.69651773413825 16.45120889733835 -80.09405690404816
561 13.13396592827615 46.18272576946709 -21.16120104510591
562 6.357699776551578 24.24742907438948 -72.60605736218227
563 -36.57246272699971 19.63107782177081 -32.38471992016662
564 56.70045550611152 5.446539000629791 0.878687737731972
565 -41.05193905207557 17.62407995384237 -25.15390290112994
566 15.56957520709709 48.49115843641328 -15.28743885237723
567 -8.333488848587653 47.46755219790965 -20.97260435881438
568 37.41079565906668 19.40592051051436 -30.9300031633703
569 -48.90134818467138 16.08811183551211 -10.30333645594187
570 15.70859293283361 9.381711946708659 -90.0504878885576
571 -3.885430856104189 59.1907134538516 12.86922583897496
572 11.56224456103787 58.18033662349998 12.86823019957247
573 -18.81378712026542 56.25551728595492 7.970112620752919
574 25.80154376113968 53.41263509486387 7.986793932750702
575 -32.47462348402085 49.63915752332409 8.621741636931517
576 32.72424854247941 49.4748977958935 13.61451052346403
577 -38.89406452889428 44.78709805958454 13.62942084864341
578 3.802720220666928 59.19609664649998 6.916277110068908
579 44.16395205487792 39.59463378600421 10.0705171174235
580 -12.04897662111548 58.08156131670966 13.45660479579462
581 -47.62455805498197 35.27281222560612 11.60887280978303
582 48.26256257127996 34.36698388248623 12.3480408592687
583 19.21239189665878 56.12057249723236 13.59804952924724
584 -51.6709882326852 28.81918291310769 12.19940217675074
585 -26.0561908903996 53.28891798235739 13.53227635352446
586 55.85994162093075 19.35477964706952 11.95042573883055
587 57.81073978222679 12.4198371081274 12.90055821729462
588 -57.96145002892951 11.76295925802542 12.33869106254527
589 38.63198547529487 45.01329312030266 9.329589092887089
590 52.82851452336186 26.62421359183216 11.31952258845373
591 -56.16600142661022 18.42486656181288 12.11589611934253
592 -43.68883175549539 40.12131660795454 9.72007844035616
593 -26.62362880816812 53.00780171994997 7.790663892345863
594 18.72308585452424 56.28578433447278 7.44522864512464
595 -11.21370908498719 58.24846692037038 7.011432943902
596 -3.822368995614812 59.19482831647298 5.364395777875678
597 3.683742722536659 59.20363686108961 13.6650644336324
598 11.4089792091364 58.21056295056927 5.511549630708869
599 -18.5856487523641 56.33133792240132 14.14447992987557
600 26.23394354221325 53.20166717019712 14.28807696147712
601 -32.95322491855031 49.32263395057294 14.72103008467847
602 32.62288354905875 49.54181589750048 6.631983143437942
603 -59.05034066492485 6.269138963803247 14.25435326677699
604 59.14173438027418 5.736563741956271 11.60144119407313
605 39.379885001023 44.3606584257586 15.14121629903642
606 -38.79274678907316 44.87485958014464 7.110154454973569
607 -59.50356235268988 3.492554938270521 9.493507442126978
608 44.5904518516668 39.109647126129 15.75572095388031
609 -43.8196934684823 39.9776391869831 15.4453885096937
610 59.55066188960531 3.183196136136566 16.12873098284611
611 1.877209635890936 3.250367526298552 -100
612 -7.154789059298416 9.075067846547604 -100
613 1.141397822565095 11.86250165868919 -100
614 9.357573439468254 6.772354805094492 -100
615 -5.555055758205329 3.197827957058045 -100
616 -10.54055330909544 4.533918897495313 -100
617 -1.862974353719066 3.243895657961785 -100
618 0.008295298645886445 6.290459001367815 -100
619 3.690094107177833 5.940191466748644 -100
620 5.44836902516584 3.037652411230008 -100
621 -4.013772732438631 6.963135242469182 -100
622 8.620026176507942 3.410073579535166 -100
623 -1.214660574235157 9.570700581614297 -100
624 -9.624374879093258 7.435106733797293 -100
625 -4.344265830593995 10.9895660957598 -100
626 4.10515635178851 11.21366415287049 -100
627 6.236963236534545 8.513033553927013 -100
628 -7.11329136397929 5.884162158593281 -100
629 -1.651088638719082 12.31535856040041 -100
630 11.26301478725249 4.277597568505439 -100
631 -8.296461290218508 2.624900649767868 -100
632 2.115945405741178 8.715654757820818 -100
633 6.621263828672421 5.614593527479055 -100
634 -3.792754925119872 53.23639079162998 20
635 24.19313209862407 47.38694239142849 20
636 -16 6.928203230275511 20
637 7.932915207745928 7.006970931127499 20
638 -24.60929703479232 46.87744485190679 20
639 38.61152240870825 34.86590828633215 20
640 -39.39813841465678 34.90700439301915 20
641 23.89510061427396 6.986287214052956 20
642 -32.03716046310005 6.925362603478828 20
643 39.36827771541146 6.987834665765892 20
644 -47.02910471620383 22.88964432322562 20
645 10.66008518263141 52.12541005621646 20
646 46.91357956030107 23.14302608023189 20
647 -46.63722981248171 6.219123468487215 20
648 51.39217388861937 9.987615917826458 20
649 -39.77885016551474 6.790256644726266 20
650 -35.95284410844337 13.75190528851468 20
651 -28.09345771843397 13.84108955265947 20
652 -32.0383742325066 20.63163374473192 20
653 -24.1925598726493 20.70826611342213 20
654 -28.12336277055971 27.47896676277741 20
655 -20.29197170064779 27.55968708017179 20
656 -16.31545749168843 20.76968904500529 20
657 -12.42305974229365 27.62694569702636 20
658 -8.35008115789344 20.79766020751516 20
659 -4.531716085279876 27.68950341587533 20
660 -8.53907892989959 34.4717874789643 20
661 -0.671894383002994 34.53769457567399 20
662 3.327117413508077 27.76625833047921 20
663 7.19520259402707 34.61060396550601 20
664 11.18901047228468 27.83877701450513 20
665 14.9867565565985 34.64051196483507 20
666 19.04974919094878 27.91346509879547 20
667 15.23072929961971 21.08547400851903 20
668 23.0819395329701 21.13596905468127 20
669 22.83866986365915 34.58844096859992 20
670 3.456784232873273 40.90809586076559 20
671 -24.22122050962274 34.17342847178061 20
672 19.39520139377685 14.17480859247443 20
673 27.08615302664319 14.33432755063352 20
674 30.97055442108966 21.21119246138422 20
675 35.19057186241363 14.22612772446242 20
676 38.77366477975983 21.53348434515942 20
677 44.03750595252604 14.11476587791187 20
678 34.66060327874803 28.08589010141125 20
679 31.70715514508836 7.064120338772303 20
680 -24.05648729699836 6.935283452013275 20
681 -44.14499560377513 13.8304255653065 20
682 -35.90437901304439 27.87482758232683 20
683 15.85879587691639 7.042755987284639 20
684 26.91864803134962 27.9768560340832 20
685 30.76348153652771 34.8777162176058 20
686 10.72761772756007 40.71008187545148 20
687 -16.3993544810359 34.24963989246999 20
688 -12.43577717646453 40.91616971010792 20
689 -4.349788121764447 40.9294326759524 20
690 -8.045462535679238 6.937585537814339 20
691 -0.0003339354955377391 6.926633295016142 20
692 3.72292958595094 14.00632417010422 20
693 -4.256433336580268 13.92457406870312 20
694 -12.25958233588027 13.91717296394456 20
695 7.418723040033002 20.99791188001213 20
696 -0.4720194708745964 20.88048559799769 20
697 -20.15292411927505 13.84995072622004 20
698 -39.84785742041888 21.16040980667017 20
699 -31.85675665624195 34.23631432244481 20
700 -27.83844773007289 40.3092836105527 20
701 11.59321573400714 14.05237426158699 20
702 18.53905118327165 42.19391489134748 20
703 -7.728263885313266 47.23861756280334 20
704 -16.25954023122775 48.68977678376459 20
705 -20.39681351876617 40.42113673612857 20
706 26.99351009200766 40.78632374397499 20
707 50.8197956567393 17.01930299865248 20
708 -50.61508228380429 16.96361081834728 20
709 42.5843689294353 28.63887793582144 20
710 17.42802656780689 50.07759064628524 20
711 3.490813782290533 53.27224983597817 20
712 -43.40898375334825 28.74969573694378 20
713 34.13515748607506 40.83813961987458 20
714 -34.64156755815331 40.73680372064777 20
715 0.2094886955247359 47.16767688703335 20
716 46.36101899786391 5.981937107495547 20
717 -10.3814252103107 53.16220635549993 20
718 -52.01759345784809 10.10268884530482 20
719 7.09143047119306 46.15980613938855 20
720 30.39221859499101 45.49024530463576 20
721 12.88924222649262 46.25336072173783 20
722 -30.5709404358255 45.27154249754385 20
$EndNodes
$Elements
1261
1 2 2 1 1 445 447 369
2 2 2 1 1 379 541 485
3 2 2 1 1 485 541 422
4 2 2 1 1 233 425 236
5 2 2 1 1 205 468 410
6 2 2 1 1 313 390 310
7 2 2 1 1 471 474 304
8 2 2 1 1 185 486 422
9 2 2 1 1 462 477 405
10 2 2 1 1 460 530 320
11 2 2 1 1 437 438 431
12 2 2 1 1 365 452 371
13 2 2 1 1 343 381 380
14 2 2 1 1 344 390 377
15 2 2 1 1 366 439 212
16 2 2 1 1 186 413 393
17 2 2 1 1 231 425 233
18 2 2 1 1 100 472 101
19 2 2 1 1 272 476 423
20 2 2 1 1 422 486 421
21 2 2 1 1 371 452 388
22 2 2 1 1 320 530 429
23 2 2 1 1 410 524 205
24 2 2 1 1 385 472 189
25 2 2 1 1 218 429 216
26 2 2 1 1 330 437 431
27 2 2 1 1 189 469 385
28 2 2 1 1 521 526 249
29 2 2 1 1 377 386 344
30 2 2 1 1 450 526 521
31 2 2 1 1 186 393 391
32 2 2 1 1 236 425 343
33 2 2 1 1 310 390 344
34 2 2 1 1 413 416 393
35 2 2 1 1 97 473 98
36 2 2 1 1 405 477 457
37 2 2 1 1 420 461 248
38 2 2 1 1 328 497 330
39 2 2 1 1 455 524 410
40 2 2 1 1 474 523 304
41 2 2 1 1 320 429 218
42 2 2 1 1 503 527 256
43 2 2 1 1 430 501 347
44 2 2 1 1 212 454 366
45 2 2 1 1 393 416 394
46 2 2 1 1 323 390 356
47 2 2 1 1 343 425 381
48 2 2 1 1 414 524 455
49 2 2 1 1 423 431 272
50 2 2 1 1 301 501 430
51 2 2 1 1 426 529 493
52 2 2 1 1 313 538 390
53 2 2 1 1 407 462 404
54 2 2 1 1 380 435 343
55 2 2 1 1 423 476 374
56 2 2 1 1 493 529 240
57 2 2 1 1 533 537 300
58 2 2 1 1 377 390 323
59 2 2 1 1 101 472 207
60 2 2 1 1 98 473 470
61 2 2 1 1 371 388 387
62 2 2 1 1 371 454 365
63 2 2 1 1 449 542 450
64 2 2 1 1 248 462 420
65 2 2 1 1 216 429 428
66 2 2 1 1 189 472 100
67 2 2 1 1 450 542 526
68 2 2 1 1 412 416 413
69 2 2 1 1 460 461 420
70 2 2 1 1 330 497 437
71 2 2 1 1 485 567 379
72 2 2 1 1 442 507 206
73 2 2 1 1 372 537 533
74 2 2 1 1 195 473 97
75 2 2 1 1 391 415 186
76 2 2 1 1 248 477 462
77 2 2 1 1 239 435 242
78 2 2 1 1 304 534 471
79 2 2 1 1 98 470 99
80 2 2 1 1 368 544 505
81 2 2 1 1 195 474 473
82 2 2 1 1 123 415 124
83 2 2 1 1 351 465 426
84 2 2 1 1 363 387 215
85 2 2 1 1 344 386 345
86 2 2 1 1 420 462 407
87 2 2 1 1 433 497 328
88 2 2 1 1 410 468 406
89 2 2 1 1 438 481 431
90 2 2 1 1 195 547 474
91 2 2 1 1 389 527 503
92 2 2 1 1 348 438 437
93 2 2 1 1 320 461 460
94 2 2 1 1 199 515 338
95 2 2 1 1 214 363 215
96 2 2 1 1 474 547 359
97 2 2 1 1 442 547 507
98 2 2 1 1 404 462 405
99 2 2 1 1 368 505 369
100 2 2 1 1 424 530 418
101 2 2 1 1 457 562 251
102 2 2 1 1 343 435 239
103 2 2 1 1 242 435 246
104 2 2 1 1 186 415 123
105 2 2 1 1 69 214 194
106 2 2 1 1 491 541 539
107 2 2 1 1 364 454 212
108 2 2 1 1 274 464 333
109 2 2 1 1 421 486 207
110 2 2 1 1 283 481 438
111 2 2 1 1 369 505 445
112 2 2 1 1 251 551 457
113 2 2 1 1 216 428 194
114 2 2 1 1 283 499 284
115 2 2 1 1 426 465 324
116 2 2 1 1 386 500 345
117 2 2 1 1 359 523 474
118 2 2 1 1 371 387 363
119 2 2 1 1 124 415 285
120 2 2 1 1 412 554 416
121 2 2 1 1 418 530 460
122 2 2 1 1 214 215 194
123 2 2 1 1 99 470 189
124 2 2 1 1 438 499 283
125 2 2 1 1 193 451 365
126 2 2 1 1 199 537 515
127 2 2 1 1 432 522 353
128 2 2 1 1 311 500 386
129 2 2 1 1 336 453 183
130 2 2 1 1 217 387 265
131 2 2 1 1 334 443 188
132 2 2 1 1 422 541 185
133 2 2 1 1 347 501 342
134 2 2 1 1 333 464 444
135 2 2 1 1 426 493 351
136 2 2 1 1 193 453 451
137 2 2 1 1 273 433 328
138 2 2 1 1 215 387 217
139 2 2 1 1 508 514 357
140 2 2 1 1 81 311 80
141 2 2 1 1 126 433 127
142 2 2 1 1 412 413 121
143 2 2 1 1 292 311 81
144 2 2 1 1 127 433 273
145 2 2 1 1 267 481 260
146 2 2 1 1 451 453 336
147 2 2 1 1 451 452 365
148 2 2 1 1 431 481 272
149 2 2 1 1 297 458 327
150 2 2 1 1 118 402 119
151 2 2 1 1 256 527 482
152 2 2 1 1 79 314 78
153 2 2 1 1 121 413 122
154 2 2 1 1 82 292 81
155 2 2 1 1 124 285 125
156 2 2 1 1 373 532 209
157 2 2 1 1 86 297 85
158 2 2 1 1 127 273 128
159 2 2 1 1 129 300 130
160 2 2 1 1 88 316 87
161 2 2 1 1 131 338 132
162 2 2 1 1 327 458 376
163 2 2 1 1 90 319 89
164 2 2 1 1 357 452 451
165 2 2 1 1 255 464 274
166 2 2 1 1 271 476 269
167 2 2 1 1 539 541 379
168 2 2 1 1 284 499 463
169 2 2 1 1 280 446 445
170 2 2 1 1 80 311 201
171 2 2 1 1 184 433 126
172 2 2 1 1 435 466 246
173 2 2 1 1 187 530 424
174 2 2 1 1 385 531 472
175 2 2 1 1 408 417 409
176 2 2 1 1 196 402 118
177 2 2 1 1 406 408 407
178 2 2 1 1 78 314 183
179 2 2 1 1 89 319 202
180 2 2 1 1 401 406 404
181 2 2 1 1 199 338 131
182 2 2 1 1 87 316 192
183 2 2 1 1 85 297 188
184 2 2 1 1 191 300 129
185 2 2 1 1 399 401 400
186 2 2 1 1 397 399 398
187 2 2 1 1 339 340 313
188 2 2 1 1 312 313 310
189 2 2 1 1 391 393 392
190 2 2 1 1 288 289 281
191 2 2 1 1 348 499 438
192 2 2 1 1 289 291 290
193 2 2 1 1 463 499 349
194 2 2 1 1 262 281 280
195 2 2 1 1 207 531 421
196 2 2 1 1 291 310 309
197 2 2 1 1 70 214 69
198 2 2 1 1 402 524 414
199 2 2 1 1 394 397 396
200 2 2 1 1 352 513 482
201 2 2 1 1 325 391 349
202 2 2 1 1 393 394 392
203 2 2 1 1 446 447 445
204 2 2 1 1 408 409 407
205 2 2 1 1 391 392 349
206 2 2 1 1 399 400 398
207 2 2 1 1 417 418 409
208 2 2 1 1 406 407 404
209 2 2 1 1 401 404 400
210 2 2 1 1 203 439 366
211 2 2 1 1 397 398 396
212 2 2 1 1 369 483 334
213 2 2 1 1 381 426 324
214 2 2 1 1 252 262 261
215 2 2 1 1 260 481 283
216 2 2 1 1 183 453 77
217 2 2 1 1 324 465 289
218 2 2 1 1 291 465 312
219 2 2 1 1 262 466 288
220 2 2 1 1 188 443 84
221 2 2 1 1 378 430 347
222 2 2 1 1 312 339 313
223 2 2 1 1 274 333 296
224 2 2 1 1 291 312 310
225 2 2 1 1 269 476 272
226 2 2 1 1 334 483 443
227 2 2 1 1 262 288 281
228 2 2 1 1 365 454 364
229 2 2 1 1 323 336 183
230 2 2 1 1 288 324 289
231 2 2 1 1 201 386 377
232 2 2 1 1 327 334 188
233 2 2 1 1 201 377 314
234 2 2 1 1 358 467 258
235 2 2 1 1 289 290 281
236 2 2 1 1 380 466 435
237 2 2 1 1 119 402 182
238 2 2 1 1 201 314 79
239 2 2 1 1 122 413 186
240 2 2 1 1 262 280 261
241 2 2 1 1 200 292 82
242 2 2 1 1 125 285 184
243 2 2 1 1 190 480 108
244 2 2 1 1 132 338 211
245 2 2 1 1 213 319 90
246 2 2 1 1 202 316 88
247 2 2 1 1 192 297 86
248 2 2 1 1 291 309 290
249 2 2 1 1 130 300 199
250 2 2 1 1 128 273 191
251 2 2 1 1 312 465 351
252 2 2 1 1 288 466 380
253 2 2 1 1 306 500 292
254 2 2 1 1 325 415 391
255 2 2 1 1 283 284 259
256 2 2 1 1 213 532 373
257 2 2 1 1 246 466 252
258 2 2 1 1 356 357 336
259 2 2 1 1 310 344 309
260 2 2 1 1 408 419 417
261 2 2 1 1 368 369 334
262 2 2 1 1 387 388 265
263 2 2 1 1 285 325 307
264 2 2 1 1 273 328 318
265 2 2 1 1 401 410 406
266 2 2 1 1 299 374 287
267 2 2 1 1 314 323 183
268 2 2 1 1 328 330 329
269 2 2 1 1 325 349 348
270 2 2 1 1 272 481 267
271 2 2 1 1 397 411 399
272 2 2 1 1 316 355 192
273 2 2 1 1 258 467 245
274 2 2 1 1 297 327 188
275 2 2 1 1 355 540 434
276 2 2 1 1 505 544 333
277 2 2 1 1 482 513 256
278 2 2 1 1 287 476 271
279 2 2 1 1 394 396 395
280 2 2 1 1 414 455 411
281 2 2 1 1 428 429 187
282 2 2 1 1 330 431 423
283 2 2 1 1 103 185 104
284 2 2 1 1 101 207 102
285 2 2 1 1 99 189 100
286 2 2 1 1 105 208 106
287 2 2 1 1 360 372 321
288 2 2 1 1 107 190 108
289 2 2 1 1 116 440 204
290 2 2 1 1 96 195 97
291 2 2 1 1 296 475 275
292 2 2 1 1 110 506 197
293 2 2 1 1 110 197 111
294 2 2 1 1 94 432 206
295 2 2 1 1 94 206 95
296 2 2 1 1 204 441 205
297 2 2 1 1 115 440 116
298 2 2 1 1 112 209 113
299 2 2 1 1 440 441 204
300 2 2 1 1 311 386 201
301 2 2 1 1 285 415 325
302 2 2 1 1 74 212 73
303 2 2 1 1 103 486 185
304 2 2 1 1 292 500 311
305 2 2 1 1 116 204 117
306 2 2 1 1 352 482 339
307 2 2 1 1 76 193 75
308 2 2 1 1 411 455 399
309 2 2 1 1 91 213 90
310 2 2 1 1 117 196 118
311 2 2 1 1 119 182 120
312 2 2 1 1 78 183 77
313 2 2 1 1 122 186 123
314 2 2 1 1 80 201 79
315 2 2 1 1 132 211 133
316 2 2 1 1 89 202 88
317 2 2 1 1 125 184 126
318 2 2 1 1 130 199 131
319 2 2 1 1 85 188 84
320 2 2 1 1 87 192 86
321 2 2 1 1 128 191 129
322 2 2 1 1 83 200 82
323 2 2 1 1 185 491 104
324 2 2 1 1 401 455 410
325 2 2 1 1 342 488 295
326 2 2 1 1 289 465 291
327 2 2 1 1 246 252 247
328 2 2 1 1 351 352 339
329 2 2 1 1 236 343 239
330 2 2 1 1 187 424 66
331 2 2 1 1 67 428 187
332 2 2 1 1 252 466 262
333 2 2 1 1 252 261 253
334 2 2 1 1 194 428 68
335 2 2 1 1 380 381 324
336 2 2 1 1 107 494 190
337 2 2 1 1 65 424 198
338 2 2 1 1 470 471 469
339 2 2 1 1 323 356 336
340 2 2 1 1 242 246 244
341 2 2 1 1 281 446 280
342 2 2 1 1 327 368 334
343 2 2 1 1 338 353 211
344 2 2 1 1 402 414 182
345 2 2 1 1 213 373 319
346 2 2 1 1 443 483 200
347 2 2 1 1 200 306 292
348 2 2 1 1 285 307 184
349 2 2 1 1 273 318 191
350 2 2 1 1 192 458 297
351 2 2 1 1 357 451 336
352 2 2 1 1 369 484 483
353 2 2 1 1 346 347 342
354 2 2 1 1 275 475 279
355 2 2 1 1 280 445 444
356 2 2 1 1 374 476 287
357 2 2 1 1 71 439 203
358 2 2 1 1 227 525 240
359 2 2 1 1 394 395 392
360 2 2 1 1 354 378 347
361 2 2 1 1 112 510 209
362 2 2 1 1 411 554 414
363 2 2 1 1 328 329 318
364 2 2 1 1 274 296 275
365 2 2 1 1 325 348 307
366 2 2 1 1 341 342 295
367 2 2 1 1 109 506 110
368 2 2 1 1 255 274 264
369 2 2 1 1 398 448 396
370 2 2 1 1 339 482 340
371 2 2 1 1 330 423 329
372 2 2 1 1 349 499 348
373 2 2 1 1 400 456 398
374 2 2 1 1 396 448 403
375 2 2 1 1 458 459 376
376 2 2 1 1 404 405 400
377 2 2 1 1 484 511 306
378 2 2 1 1 473 474 471
379 2 2 1 1 184 497 433
380 2 2 1 1 448 449 403
381 2 2 1 1 279 475 315
382 2 2 1 1 200 483 306
383 2 2 1 1 215 216 194
384 2 2 1 1 409 420 407
385 2 2 1 1 248 461 222
386 2 2 1 1 220 320 218
387 2 2 1 1 418 460 409
388 2 2 1 1 396 403 395
389 2 2 1 1 279 315 294
390 2 2 1 1 108 480 109
391 2 2 1 1 398 456 448
392 2 2 1 1 224 248 222
393 2 2 1 1 467 492 245
394 2 2 1 1 253 464 255
395 2 2 1 1 405 456 400
396 2 2 1 1 317 375 362
397 2 2 1 1 277 358 258
398 2 2 1 1 312 351 339
399 2 2 1 1 250 259 249
400 2 2 1 1 75 364 74
401 2 2 1 1 230 251 228
402 2 2 1 1 77 453 76
403 2 2 1 1 84 443 83
404 2 2 1 1 120 412 121
405 2 2 1 1 355 459 458
406 2 2 1 1 316 540 355
407 2 2 1 1 288 380 324
408 2 2 1 1 73 549 2
409 2 2 1 1 430 517 301
410 2 2 1 1 409 460 420
411 2 2 1 1 237 249 234
412 2 2 1 1 260 283 259
413 2 2 1 1 340 538 313
414 2 2 1 1 399 455 401
415 2 2 1 1 405 457 456
416 2 2 1 1 280 444 261
417 2 2 1 1 418 557 424
418 2 2 1 1 290 446 281
419 2 2 1 1 506 518 197
420 2 2 1 1 246 247 244
421 2 2 1 1 245 492 241
422 2 2 1 1 298 299 287
423 2 2 1 1 252 253 247
424 2 2 1 1 241 492 238
425 2 2 1 1 351 493 352
426 2 2 1 1 269 272 267
427 2 2 1 1 286 287 271
428 2 2 1 1 317 434 375
429 2 2 1 1 308 321 299
430 2 2 1 1 344 345 309
431 2 2 1 1 341 346 342
432 2 2 1 1 346 354 347
433 2 2 1 1 337 360 321
434 2 2 1 1 274 275 264
435 2 2 1 1 300 537 199
436 2 2 1 1 198 427 64
437 2 2 1 1 483 484 306
438 2 2 1 1 102 486 103
439 2 2 1 1 494 512 190
440 2 2 1 1 354 379 378
441 2 2 1 1 508 560 514
442 2 2 1 1 104 491 105
443 2 2 1 1 270 496 331
444 2 2 1 1 207 486 102
445 2 2 1 1 478 480 190
446 2 2 1 1 206 507 95
447 2 2 1 1 315 317 294
448 2 2 1 1 105 491 208
449 2 2 1 1 220 461 320
450 2 2 1 1 63 427 210
451 2 2 1 1 266 498 322
452 2 2 1 1 373 555 319
453 2 2 1 1 196 524 402
454 2 2 1 1 224 477 248
455 2 2 1 1 331 382 332
456 2 2 1 1 270 331 282
457 2 2 1 1 221 503 256
458 2 2 1 1 470 473 471
459 2 2 1 1 266 322 268
460 2 2 1 1 355 458 192
461 2 2 1 1 315 434 317
462 2 2 1 1 205 524 196
463 2 2 1 1 370 447 446
464 2 2 1 1 356 508 357
465 2 2 1 1 390 538 356
466 2 2 1 1 67 187 66
467 2 2 1 1 314 377 323
468 2 2 1 1 189 470 469
469 2 2 1 1 66 424 65
470 2 2 1 1 68 428 67
471 2 2 1 1 353 548 432
472 2 2 1 1 71 203 70
473 2 2 1 1 69 194 68
474 2 2 1 1 65 198 64
475 2 2 1 1 74 364 212
476 2 2 1 1 76 453 193
477 2 2 1 1 370 446 290
478 2 2 1 1 63 210 62
479 2 2 1 1 335 489 479
480 2 2 1 1 237 250 249
481 2 2 1 1 182 412 120
482 2 2 1 1 83 443 200
483 2 2 1 1 72 439 71
484 2 2 1 1 106 494 107
485 2 2 1 1 250 260 259
486 2 2 1 1 233 236 235
487 2 2 1 1 449 551 251
488 2 2 1 1 236 239 238
489 2 2 1 1 326 422 421
490 2 2 1 1 302 485 326
491 2 2 1 1 239 242 241
492 2 2 1 1 327 376 368
493 2 2 1 1 227 240 229
494 2 2 1 1 276 305 302
495 2 2 1 1 286 298 287
496 2 2 1 1 257 487 276
497 2 2 1 1 242 244 243
498 2 2 1 1 298 308 299
499 2 2 1 1 243 490 257
500 2 2 1 1 329 367 318
501 2 2 1 1 293 295 278
502 2 2 1 1 309 370 290
503 2 2 1 1 348 437 307
504 2 2 1 1 208 494 106
505 2 2 1 1 308 337 321
506 2 2 1 1 221 256 223
507 2 2 1 1 203 214 70
508 2 2 1 1 388 389 265
509 2 2 1 1 253 255 254
510 2 2 1 1 335 341 295
511 2 2 1 1 520 569 373
512 2 2 1 1 326 485 422
513 2 2 1 1 337 436 360
514 2 2 1 1 217 265 219
515 2 2 1 1 255 264 263
516 2 2 1 1 263 301 254
517 2 2 1 1 209 520 373
518 2 2 1 1 254 495 247
519 2 2 1 1 305 485 302
520 2 2 1 1 392 463 349
521 2 2 1 1 275 279 278
522 2 2 1 1 381 529 426
523 2 2 1 1 469 534 384
524 2 2 1 1 276 487 305
525 2 2 1 1 449 450 403
526 2 2 1 1 251 542 449
527 2 2 1 1 217 218 216
528 2 2 1 1 203 366 363
529 2 2 1 1 279 294 293
530 2 2 1 1 257 490 487
531 2 2 1 1 335 479 478
532 2 2 1 1 317 362 361
533 2 2 1 1 293 489 335
534 2 2 1 1 338 515 353
535 2 2 1 1 243 245 241
536 2 2 1 1 244 490 243
537 2 2 1 1 215 217 216
538 2 2 1 1 331 332 282
539 2 2 1 1 427 536 210
540 2 2 1 1 219 220 218
541 2 2 1 1 93 432 94
542 2 2 1 1 257 258 245
543 2 2 1 1 286 502 304
544 2 2 1 1 253 254 247
545 2 2 1 1 382 383 332
546 2 2 1 1 221 222 220
547 2 2 1 1 337 442 436
548 2 2 1 1 276 277 258
549 2 2 1 1 383 384 332
550 2 2 1 1 247 495 244
551 2 2 1 1 222 461 220
552 2 2 1 1 223 224 222
553 2 2 1 1 535 557 417
554 2 2 1 1 302 303 277
555 2 2 1 1 345 370 309
556 2 2 1 1 275 278 264
557 2 2 1 1 308 359 337
558 2 2 1 1 317 361 294
559 2 2 1 1 225 226 224
560 2 2 1 1 326 350 303
561 2 2 1 1 357 514 452
562 2 2 1 1 261 464 253
563 2 2 1 1 231 232 230
564 2 2 1 1 227 228 226
565 2 2 1 1 229 230 228
566 2 2 1 1 233 234 232
567 2 2 1 1 385 469 384
568 2 2 1 1 235 237 234
569 2 2 1 1 286 304 298
570 2 2 1 1 236 238 235
571 2 2 1 1 416 554 411
572 2 2 1 1 266 267 260
573 2 2 1 1 239 241 238
574 2 2 1 1 282 286 271
575 2 2 1 1 406 468 408
576 2 2 1 1 250 266 260
577 2 2 1 1 242 243 241
578 2 2 1 1 270 271 269
579 2 2 1 1 293 335 295
580 2 2 1 1 268 269 267
581 2 2 1 1 362 519 361
582 2 2 1 1 255 263 254
583 2 2 1 1 279 293 278
584 2 2 1 1 331 552 382
585 2 2 1 1 301 495 254
586 2 2 1 1 479 480 478
587 2 2 1 1 270 282 271
588 2 2 1 1 268 270 269
589 2 2 1 1 383 385 384
590 2 2 1 1 266 268 267
591 2 2 1 1 243 257 245
592 2 2 1 1 450 504 403
593 2 2 1 1 257 276 258
594 2 2 1 1 203 363 214
595 2 2 1 1 231 233 232
596 2 2 1 1 233 235 234
597 2 2 1 1 276 302 277
598 2 2 1 1 302 326 303
599 2 2 1 1 229 231 230
600 2 2 1 1 326 421 350
601 2 2 1 1 366 371 363
602 2 2 1 1 217 219 218
603 2 2 1 1 227 229 228
604 2 2 1 1 223 225 224
605 2 2 1 1 219 221 220
606 2 2 1 1 335 478 341
607 2 2 1 1 225 227 226
608 2 2 1 1 221 223 222
609 2 2 1 1 264 488 263
610 2 2 1 1 367 550 372
611 2 2 1 1 295 488 278
612 2 2 1 1 471 534 469
613 2 2 1 1 385 566 531
614 2 2 1 1 434 565 355
615 2 2 1 1 353 522 211
616 2 2 1 1 508 538 340
617 2 2 1 1 536 570 441
618 2 2 1 1 259 521 249
619 2 2 1 1 249 526 234
620 2 2 1 1 92 522 93
621 2 2 1 1 226 477 224
622 2 2 1 1 278 488 264
623 2 2 1 1 359 442 337
624 2 2 1 1 463 504 284
625 2 2 1 1 372 550 321
626 2 2 1 1 342 501 488
627 2 2 1 1 452 514 388
628 2 2 1 1 425 529 381
629 2 2 1 1 403 504 395
630 2 2 1 1 361 519 518
631 2 2 1 1 419 570 536
632 2 2 1 1 436 548 353
633 2 2 1 1 62 545 1
634 2 2 1 1 133 564 3
635 2 2 1 1 374 568 423
636 2 2 1 1 294 489 293
637 2 2 1 1 299 550 374
638 2 2 1 1 353 515 436
639 2 2 1 1 306 511 500
640 2 2 1 1 1 545 115
641 2 2 1 1 492 509 238
642 2 2 1 1 494 516 512
643 2 2 1 1 4 546 91
644 2 2 1 1 362 520 519
645 2 2 1 1 96 507 195
646 2 2 1 1 395 463 392
647 2 2 1 1 444 464 261
648 2 2 1 1 95 507 96
649 2 2 1 1 478 512 341
650 2 2 1 1 2 549 72
651 2 2 1 1 552 553 382
652 2 2 1 1 198 557 535
653 2 2 1 1 480 506 109
654 2 2 1 1 190 512 478
655 2 2 1 1 268 496 270
656 2 2 1 1 444 505 333
657 2 2 1 1 263 501 301
658 2 2 1 1 303 561 553
659 2 2 1 1 238 509 235
660 2 2 1 1 341 512 346
661 2 2 1 1 373 569 555
662 2 2 1 1 250 498 266
663 2 2 1 1 448 551 449
664 2 2 1 1 384 502 332
665 2 2 1 1 64 427 63
666 2 2 1 1 322 496 268
667 2 2 1 1 111 510 112
668 2 2 1 1 395 504 463
669 2 2 1 1 3 564 92
670 2 2 1 1 282 502 286
671 2 2 1 1 251 562 228
672 2 2 1 1 307 497 184
673 2 2 1 1 191 533 300
674 2 2 1 1 235 509 237
675 2 2 1 1 467 543 528
676 2 2 1 1 185 541 491
677 2 2 1 1 223 513 225
678 2 2 1 1 378 556 430
679 2 2 1 1 230 542 251
680 2 2 1 1 237 498 250
681 2 2 1 1 359 547 442
682 2 2 1 1 379 567 378
683 2 2 1 1 361 489 294
684 2 2 1 1 308 523 359
685 2 2 1 1 225 525 227
686 2 2 1 1 219 503 221
687 2 2 1 1 372 533 367
688 2 2 1 1 340 560 508
689 2 2 1 1 237 509 498
690 2 2 1 1 419 535 417
691 2 2 1 1 389 503 265
692 2 2 1 1 414 554 182
693 2 2 1 1 304 523 298
694 2 2 1 1 244 495 490
695 2 2 1 1 113 532 114
696 2 2 1 1 206 548 442
697 2 2 1 1 256 513 223
698 2 2 1 1 421 531 350
699 2 2 1 1 475 565 315
700 2 2 1 1 367 533 318
701 2 2 1 1 197 510 111
702 2 2 1 1 488 501 263
703 2 2 1 1 467 528 492
704 2 2 1 1 550 568 374
705 2 2 1 1 332 502 282
706 2 2 1 1 208 516 494
707 2 2 1 1 472 531 207
708 2 2 1 1 457 551 456
709 2 2 1 1 231 558 425
710 2 2 1 1 518 519 197
711 2 2 1 1 527 560 340
712 2 2 1 1 459 565 475
713 2 2 1 1 512 516 346
714 2 2 1 1 346 516 354
715 2 2 1 1 265 503 219
716 2 2 1 1 93 522 432
717 2 2 1 1 477 562 457
718 2 2 1 1 303 553 277
719 2 2 1 1 355 565 459
720 2 2 1 1 479 506 480
721 2 2 1 1 493 525 352
722 2 2 1 1 482 527 340
723 2 2 1 1 388 514 389
724 2 2 1 1 202 540 316
725 2 2 1 1 528 543 322
726 2 2 1 1 408 468 419
727 2 2 1 1 234 526 232
728 2 2 1 1 513 525 225
729 2 2 1 1 498 528 322
730 2 2 1 1 434 540 375
731 2 2 1 1 358 543 467
732 2 2 1 1 450 521 504
733 2 2 1 1 298 523 308
734 2 2 1 1 445 505 444
735 2 2 1 1 479 518 506
736 2 2 1 1 352 525 513
737 2 2 1 1 491 539 208
738 2 2 1 1 362 569 520
739 2 2 1 1 226 562 477
740 2 2 1 1 212 549 73
741 2 2 1 1 509 528 498
742 2 2 1 1 114 546 4
743 2 2 1 1 437 497 307
744 2 2 1 1 240 525 493
745 2 2 1 1 205 570 468
746 2 2 1 1 284 521 259
747 2 2 1 1 553 561 382
748 2 2 1 1 492 528 509
749 2 2 1 1 198 535 427
750 2 2 1 1 490 517 487
751 2 2 1 1 442 548 436
752 2 2 1 1 526 542 232
753 2 2 1 1 500 511 345
754 2 2 1 1 417 557 418
755 2 2 1 1 318 533 191
756 2 2 1 1 208 539 516
757 2 2 1 1 423 568 329
758 2 2 1 1 440 545 210
759 2 2 1 1 376 544 368
760 2 2 1 1 301 517 495
761 2 2 1 1 429 530 187
762 2 2 1 1 209 532 113
763 2 2 1 1 439 549 212
764 2 2 1 1 240 558 229
765 2 2 1 1 378 567 556
766 2 2 1 1 516 539 354
767 2 2 1 1 436 515 360
768 2 2 1 1 345 511 370
769 2 2 1 1 370 511 447
770 2 2 1 1 430 556 517
771 2 2 1 1 515 537 360
772 2 2 1 1 489 518 479
773 2 2 1 1 517 556 487
774 2 2 1 1 361 518 489
775 2 2 1 1 502 534 304
776 2 2 1 1 504 521 284
777 2 2 1 1 540 555 375
778 2 2 1 1 536 559 210
779 2 2 1 1 432 548 206
780 2 2 1 1 232 542 230
781 2 2 1 1 210 559 440
782 2 2 1 1 354 539 379
783 2 2 1 1 115 545 440
784 2 2 1 1 333 544 296
785 2 2 1 1 447 511 484
786 2 2 1 1 384 534 502
787 2 2 1 1 495 517 490
788 2 2 1 1 319 555 202
789 2 2 1 1 202 555 540
790 2 2 1 1 366 454 371
791 2 2 1 1 360 537 372
792 2 2 1 1 182 554 412
793 2 2 1 1 376 563 544
794 2 2 1 1 350 561 303
795 2 2 1 1 424 557 198
796 2 2 1 1 356 538 508
797 2 2 1 1 419 536 535
798 2 2 1 1 510 520 209
799 2 2 1 1 321 550 299
800 2 2 1 1 441 570 205
801 2 2 1 1 91 546 213
802 2 2 1 1 496 552 331
803 2 2 1 1 529 558 240
804 2 2 1 1 456 551 448
805 2 2 1 1 350 566 561
806 2 2 1 1 210 545 62
807 2 2 1 1 440 559 441
808 2 2 1 1 358 552 543
809 2 2 1 1 322 543 496
810 2 2 1 1 296 563 475
811 2 2 1 1 277 553 358
812 2 2 1 1 519 520 510
813 2 2 1 1 459 563 376
814 2 2 1 1 507 547 195
815 2 2 1 1 544 563 296
816 2 2 1 1 367 568 550
817 2 2 1 1 315 565 434
818 2 2 1 1 211 564 133
819 2 2 1 1 228 562 226
820 2 2 1 1 229 558 231
821 2 2 1 1 329 568 367
822 2 2 1 1 197 519 510
823 2 2 1 1 532 546 114
824 2 2 1 1 358 553 552
825 2 2 1 1 382 561 383
826 2 2 1 1 375 569 362
827 2 2 1 1 213 546 532
828 2 2 1 1 72 549 439
829 2 2 1 1 561 566 383
830 2 2 1 1 383 566 385
831 2 2 1 1 487 556 305
832 2 2 1 1 543 552 496
833 2 2 1 1 305 567 485
834 2 2 1 1 92 564 522
835 2 2 1 1 475 563 459
836 2 2 1 1 535 536 427
837 2 2 1 1 425 558 529
838 2 2 1 1 556 567 305
839 2 2 1 1 389 560 527
840 2 2 1 1 514 560 389
841 2 2 1 1 531 566 350
842 2 2 1 1 555 569 375
843 2 2 1 1 468 570 419
844 2 2 1 1 441 559 536
845 2 2 1 1 522 564 211
846 2 2 1 1 193 365 75
847 2 2 1 1 75 365 364
848 2 2 1 1 117 205 196
849 2 2 1 1 204 205 117
850 2 2 1 1 447 484 369
851 2 2 1 1 394 411 397
852 2 2 1 1 394 416 411
853 2 2 3 3 176 581 177
854 2 2 3 3 138 582 137
855 2 2 3 3 579 582 138
856 2 2 3 3 581 584 177
857 2 2 3 3 160 590 161
858 2 2 3 3 154 584 153
859 2 2 3 3 586 590 160
860 2 2 3 3 572 598 578
861 2 2 3 3 153 584 581
862 2 2 3 3 578 596 571
863 2 2 3 3 578 597 572
864 2 2 3 3 573 593 585
865 2 2 3 3 585 599 573
866 2 2 3 3 571 597 578
867 2 2 3 3 571 596 595
868 2 2 3 3 159 586 160
869 2 2 3 3 159 587 586
870 2 2 3 3 178 591 179
871 2 2 3 3 576 602 574
872 2 2 3 3 582 590 137
873 2 2 3 3 176 609 581
874 2 2 3 3 574 600 576
875 2 2 3 3 594 598 572
876 2 2 3 3 135 587 134
877 2 2 3 3 179 591 588
878 2 2 3 3 571 595 580
879 2 2 3 3 586 587 135
880 2 2 3 3 158 610 604
881 2 2 3 3 179 588 180
882 2 2 3 3 161 590 582
883 2 2 3 3 575 606 577
884 2 2 3 3 577 601 575
885 2 2 3 3 154 591 584
886 2 2 3 3 573 599 580
887 2 2 3 3 6 603 157
888 2 2 3 3 580 595 573
889 2 2 3 3 583 594 572
890 2 2 3 3 156 607 603
891 2 2 3 3 584 591 178
892 2 2 3 3 180 603 6
893 2 2 3 3 158 604 587
894 2 2 3 3 583 600 574
895 2 2 3 3 579 608 582
896 2 2 3 3 3 604 181
897 2 2 3 3 158 587 159
898 2 2 3 3 574 594 583
899 2 2 3 3 134 604 3
900 2 2 3 3 155 591 154
901 2 2 3 3 152 592 151
902 2 2 3 3 136 590 586
903 2 2 3 3 156 603 588
904 2 2 3 3 139 589 579
905 2 2 3 3 588 591 155
906 2 2 3 3 581 592 152
907 2 2 3 3 573 595 147
908 2 2 3 3 156 588 155
909 2 2 3 3 153 581 152
910 2 2 3 3 145 578 144
911 2 2 3 3 148 573 147
912 2 2 3 3 142 574 141
913 2 2 3 3 150 575 149
914 2 2 3 3 139 579 138
915 2 2 3 3 136 586 135
916 2 2 3 3 140 589 139
917 2 2 3 3 169 571 170
918 2 2 3 3 167 572 168
919 2 2 3 3 170 580 171
920 2 2 3 3 166 583 167
921 2 2 3 3 172 585 173
922 2 2 3 3 174 577 175
923 2 2 3 3 164 576 165
924 2 2 3 3 161 582 162
925 2 2 3 3 177 584 178
926 2 2 3 3 571 580 170
927 2 2 3 3 167 583 572
928 2 2 3 3 589 605 579
929 2 2 3 3 143 594 142
930 2 2 3 3 605 608 579
931 2 2 3 3 148 593 573
932 2 2 3 3 142 594 574
933 2 2 3 3 147 595 146
934 2 2 3 3 575 601 585
935 2 2 3 3 137 590 136
936 2 2 3 3 588 603 180
937 2 2 3 3 149 593 148
938 2 2 3 3 169 597 571
939 2 2 3 3 572 597 168
940 2 2 3 3 575 593 149
941 2 2 3 3 589 602 576
942 2 2 3 3 581 609 592
943 2 2 3 3 580 599 171
944 2 2 3 3 172 599 585
945 2 2 3 3 168 597 169
946 2 2 3 3 587 604 134
947 2 2 3 3 592 609 577
948 2 2 3 3 166 600 583
949 2 2 3 3 585 593 575
950 2 2 3 3 576 600 165
951 2 2 3 3 577 609 175
952 2 2 3 3 576 605 589
953 2 2 3 3 577 606 592
954 2 2 3 3 585 601 173
955 2 2 3 3 174 601 577
956 2 2 3 3 592 606 151
957 2 2 3 3 164 605 576
958 2 2 3 3 140 602 589
959 2 2 3 3 145 596 578
960 2 2 3 3 171 599 172
961 2 2 3 3 578 598 144
962 2 2 3 3 582 608 162
963 2 2 3 3 143 598 594
964 2 2 3 3 150 606 575
965 2 2 3 3 574 602 141
966 2 2 3 3 595 596 146
967 2 2 3 3 165 600 166
968 2 2 3 3 5 610 158
969 2 2 3 3 4 607 156
970 2 2 3 3 173 601 174
971 2 2 3 3 146 596 145
972 2 2 3 3 144 598 143
973 2 2 3 3 163 605 164
974 2 2 3 3 141 602 140
975 2 2 3 3 163 608 605
976 2 2 3 3 151 606 150
977 2 2 3 3 162 608 163
978 2 2 3 3 175 609 176
979 2 2 3 3 157 607 4
980 2 2 3 3 181 610 5
981 2 2 3 3 603 607 157
982 2 2 3 3 604 610 181
983 2 2 2 210083 41 616 17
984 2 2 2 210083 7 630 47
985 2 2 2 210083 10 627 9
986 2 2 2 210083 41 17 2
987 2 2 2 210083 1 7 47
988 2 2 2 210083 47 630 622
989 2 2 2 210083 621 625 612
990 2 2 2 210083 623 625 621
991 2 2 2 210083 9 627 614
992 2 2 2 210083 41 631 616
993 2 2 2 210083 626 632 627
994 2 2 2 210083 626 627 10
995 2 2 2 210083 17 616 16
996 2 2 2 210083 9 614 8
997 2 2 2 210083 15 612 14
998 2 2 2 210083 12 613 11
999 2 2 2 210083 45 611 44
1000 2 2 2 210083 44 617 43
1001 2 2 2 210083 46 620 45
1002 2 2 2 210083 43 615 42
1003 2 2 2 210083 611 619 618
1004 2 2 2 210083 611 617 44
1005 2 2 2 210083 45 620 611
1006 2 2 2 210083 43 617 615
1007 2 2 2 210083 611 618 617
1008 2 2 2 210083 47 622 46
1009 2 2 2 210083 611 620 619
1010 2 2 2 210083 46 622 620
1011 2 2 2 210083 617 621 615
1012 2 2 2 210083 618 621 617
1013 2 2 2 210083 627 632 619
1014 2 2 2 210083 618 623 621
1015 2 2 2 210083 42 631 41
1016 2 2 2 210083 618 632 623
1017 2 2 2 210083 623 632 613
1018 2 2 2 210083 622 633 620
1019 2 2 2 210083 612 628 621
1020 2 2 2 210083 614 633 622
1021 2 2 2 210083 616 631 628
1022 2 2 2 210083 616 624 16
1023 2 2 2 210083 15 624 612
1024 2 2 2 210083 613 626 11
1025 2 2 2 210083 612 625 14
1026 2 2 2 210083 16 624 15
1027 2 2 2 210083 11 626 10
1028 2 2 2 210083 14 625 13
1029 2 2 2 210083 614 630 8
1030 2 2 2 210083 616 628 624
1031 2 2 2 210083 12 629 613
1032 2 2 2 210083 621 628 615
1033 2 2 2 210083 613 632 626
1034 2 2 2 210083 622 630 614
1035 2 2 2 210083 613 629 623
1036 2 2 2 210083 8 630 7
1037 2 2 2 210083 13 629 12
1038 2 2 2 210083 615 631 42
1039 2 2 2 210083 619 632 618
1040 2 2 2 210083 620 633 619
1041 2 2 2 210083 628 631 615
1042 2 2 2 210083 623 629 625
1043 2 2 2 210083 625 629 13
1044 2 2 2 210083 624 628 612
1045 2 2 2 210083 619 633 627
1046 2 2 2 210083 627 633 614
1047 2 2 4 210087 18 648 61
1048 2 2 4 210087 48 718 40
1049 2 2 4 210087 32 704 31
1050 2 2 4 210087 22 709 21
1051 2 2 4 210087 682 712 698
1052 2 2 4 210087 647 718 48
1053 2 2 4 210087 18 61 5
1054 2 2 4 210087 48 40 6
1055 2 2 4 210087 698 712 644
1056 2 2 4 210087 677 716 648
1057 2 2 4 210087 681 698 644
1058 2 2 4 210087 638 704 32
1059 2 2 4 210087 676 677 646
1060 2 2 4 210087 648 716 61
1061 2 2 4 210087 708 718 681
1062 2 2 4 210087 644 708 681
1063 2 2 4 210087 681 718 647
1064 2 2 4 210087 648 707 677
1065 2 2 4 210087 639 709 22
1066 2 2 4 210087 689 715 703
1067 2 2 4 210087 704 717 31
1068 2 2 4 210087 21 709 646
1069 2 2 4 210087 677 707 646
1070 2 2 4 210087 643 677 675
1071 2 2 4 210087 675 679 643
1072 2 2 4 210087 635 710 702
1073 2 2 4 210087 639 685 678
1074 2 2 4 210087 641 679 673
1075 2 2 4 210087 703 715 634
1076 2 2 4 210087 683 701 637
1077 2 2 4 210087 673 679 675
1078 2 2 4 210087 672 683 641
1079 2 2 4 210087 641 673 672
1080 2 2 4 210087 710 721 702
1081 2 2 4 210087 658 694 693
1082 2 2 4 210087 643 716 677
1083 2 2 4 210087 693 694 690
1084 2 2 4 210087 672 701 683
1085 2 2 4 210087 692 696 693
1086 2 2 4 210087 695 696 692
1087 2 2 4 210087 704 705 688
1088 2 2 4 210087 693 696 658
1089 2 2 4 210087 690 694 636
1090 2 2 4 210087 636 697 680
1091 2 2 4 210087 636 680 52
1092 2 2 4 210087 643 679 59
1093 2 2 4 210087 59 679 58
1094 2 2 4 210087 642 650 649
1095 2 2 4 210087 52 680 51
1096 2 2 4 210087 58 679 641
1097 2 2 4 210087 640 712 682
1098 2 2 4 210087 694 697 636
1099 2 2 4 210087 678 685 684
1100 2 2 4 210087 649 681 647
1101 2 2 4 210087 642 649 50
1102 2 2 4 210087 666 684 669
1103 2 2 4 210087 670 689 661
1104 2 2 4 210087 650 681 649
1105 2 2 4 210087 668 684 666
1106 2 2 4 210087 684 685 669
1107 2 2 4 210087 655 687 671
1108 2 2 4 210087 49 647 48
1109 2 2 4 210087 49 649 647
1110 2 2 4 210087 691 693 690
1111 2 2 4 210087 651 652 650
1112 2 2 4 210087 663 686 670
1113 2 2 4 210087 54 691 690
1114 2 2 4 210087 676 678 674
1115 2 2 4 210087 641 683 57
1116 2 2 4 210087 56 683 637
1117 2 2 4 210087 642 651 650
1118 2 2 4 210087 654 682 652
1119 2 2 4 210087 53 690 636
1120 2 2 4 210087 60 643 59
1121 2 2 4 210087 637 692 691
1122 2 2 4 210087 653 654 652
1123 2 2 4 210087 660 688 687
1124 2 2 4 210087 661 689 660
1125 2 2 4 210087 657 687 655
1126 2 2 4 210087 51 680 642
1127 2 2 4 210087 675 676 674
1128 2 2 4 210087 655 671 654
1129 2 2 4 210087 665 686 663
1130 2 2 4 210087 663 670 661
1131 2 2 4 210087 674 684 668
1132 2 2 4 210087 692 693 691
1133 2 2 4 210087 660 687 657
1134 2 2 4 210087 659 660 657
1135 2 2 4 210087 51 642 50
1136 2 2 4 210087 58 641 57
1137 2 2 4 210087 660 689 688
1138 2 2 4 210087 637 691 55
1139 2 2 4 210087 659 661 660
1140 2 2 4 210087 651 653 652
1141 2 2 4 210087 675 677 676
1142 2 2 4 210087 666 669 665
1143 2 2 4 210087 637 701 692
1144 2 2 4 210087 53 636 52
1145 2 2 4 210087 50 649 49
1146 2 2 4 210087 57 683 56
1147 2 2 4 210087 54 690 53
1148 2 2 4 210087 56 637 55
1149 2 2 4 210087 653 655 654
1150 2 2 4 210087 673 674 668
1151 2 2 4 210087 678 684 674
1152 2 2 4 210087 55 691 54
1153 2 2 4 210087 664 665 663
1154 2 2 4 210087 662 663 661
1155 2 2 4 210087 658 659 657
1156 2 2 4 210087 664 666 665
1157 2 2 4 210087 673 675 674
1158 2 2 4 210087 656 657 655
1159 2 2 4 210087 659 662 661
1160 2 2 4 210087 662 664 663
1161 2 2 4 210087 642 680 651
1162 2 2 4 210087 28 645 27
1163 2 2 4 210087 656 658 657
1164 2 2 4 210087 33 638 32
1165 2 2 4 210087 653 656 655
1166 2 2 4 210087 30 634 29
1167 2 2 4 210087 667 668 666
1168 2 2 4 210087 26 635 25
1169 2 2 4 210087 36 640 35
1170 2 2 4 210087 23 639 22
1171 2 2 4 210087 672 673 668
1172 2 2 4 210087 664 667 666
1173 2 2 4 210087 38 644 37
1174 2 2 4 210087 669 706 702
1175 2 2 4 210087 658 696 659
1176 2 2 4 210087 656 694 658
1177 2 2 4 210087 21 646 20
1178 2 2 4 210087 667 672 668
1179 2 2 4 210087 19 648 18
1180 2 2 4 210087 680 697 651
1181 2 2 4 210087 651 697 653
1182 2 2 4 210087 662 695 664
1183 2 2 4 210087 659 696 662
1184 2 2 4 210087 653 697 656
1185 2 2 4 210087 682 699 640
1186 2 2 4 210087 664 695 667
1187 2 2 4 210087 656 697 694
1188 2 2 4 210087 662 696 695
1189 2 2 4 210087 638 705 704
1190 2 2 4 210087 650 698 681
1191 2 2 4 210087 682 698 652
1192 2 2 4 210087 654 699 682
1193 2 2 4 210087 669 702 665
1194 2 2 4 210087 639 713 685
1195 2 2 4 210087 671 700 699
1196 2 2 4 210087 700 705 638
1197 2 2 4 210087 695 701 667
1198 2 2 4 210087 692 701 695
1199 2 2 4 210087 652 698 650
1200 2 2 4 210087 702 706 635
1201 2 2 4 210087 685 713 706
1202 2 2 4 210087 688 705 687
1203 2 2 4 210087 671 699 654
1204 2 2 4 210087 671 705 700
1205 2 2 4 210087 646 709 676
1206 2 2 4 210087 667 701 672
1207 2 2 4 210087 670 715 689
1208 2 2 4 210087 665 702 686
1209 2 2 4 210087 713 720 706
1210 2 2 4 210087 61 716 60
1211 2 2 4 210087 689 703 688
1212 2 2 4 210087 687 705 671
1213 2 2 4 210087 676 709 678
1214 2 2 4 210087 685 706 669
1215 2 2 4 210087 678 709 639
1216 2 2 4 210087 20 707 19
1217 2 2 4 210087 39 708 38
1218 2 2 4 210087 38 708 644
1219 2 2 4 210087 646 707 20
1220 2 2 4 210087 37 712 36
1221 2 2 4 210087 19 707 648
1222 2 2 4 210087 36 712 640
1223 2 2 4 210087 29 711 28
1224 2 2 4 210087 27 710 26
1225 2 2 4 210087 28 711 645
1226 2 2 4 210087 645 710 27
1227 2 2 4 210087 634 711 29
1228 2 2 4 210087 26 710 635
1229 2 2 4 210087 644 712 37
1230 2 2 4 210087 24 713 23
1231 2 2 4 210087 700 714 699
1232 2 2 4 210087 23 713 639
1233 2 2 4 210087 35 714 34
1234 2 2 4 210087 640 714 35
1235 2 2 4 210087 703 704 688
1236 2 2 4 210087 638 722 700
1237 2 2 4 210087 711 719 645
1238 2 2 4 210087 699 714 640
1239 2 2 4 210087 30 717 634
1240 2 2 4 210087 703 717 704
1241 2 2 4 210087 635 720 25
1242 2 2 4 210087 33 722 638
1243 2 2 4 210087 715 719 711
1244 2 2 4 210087 702 721 686
1245 2 2 4 210087 60 716 643
1246 2 2 4 210087 634 717 703
1247 2 2 4 210087 31 717 30
1248 2 2 4 210087 686 719 670
1249 2 2 4 210087 40 718 39
1250 2 2 4 210087 706 720 635
1251 2 2 4 210087 39 718 708
1252 2 2 4 210087 25 720 24
1253 2 2 4 210087 24 720 713
1254 2 2 4 210087 700 722 714
1255 2 2 4 210087 34 722 33
1256 2 2 4 210087 714 722 34
1257 2 2 4 210087 634 715 711
1258 2 2 4 210087 670 719 715
1259 2 2 4 210087 645 721 710
1260 2 2 4 210087 719 721 645
1261 2 2 4 210087 686 721 719
$EndElements
