$MeshFormat
2.2 0 8
$EndMeshFormat
$PhysicalNames
4
2 1 "horn_surface"
2 2 "throat_cap"
2 3 "interface_wall"
2 4 "interface_face"
$EndPhysicalNames
$Nodes
671
1 15 0 -100
2 -15 0 -100
3 60 0 6
4 -60 0 6
5 60 0 26
6 -60 0 26
7 14.47935162378425 3.879751439756159 -100
8 12.98182797264858 7.495080539847818 -100
9 10.59961616478884 10.59963329353758 -100
10 7.495059563499384 12.98184008339298 -100
11 3.87972804480706 14.47935789249835 -100
12 6.360281427456963e-14 14.99013366666667 -100
13 -3.879728044806931 14.47935789249838 -100
14 -7.495059563499273 12.98184008339304 -100
15 -10.59961616478876 10.59963329353766 -100
16 -12.98182797264853 7.495080539847915 -100
17 -14.47935162378423 3.879751439756245 -100
18 59.43752203273502 7.843787277557119 5.888195162887217
19 57.90906015279923 15.55012487779946 5.589633445193141
20 55.38205609458618 22.9802821871915 5.113115817661118
21 51.91124555799763 30.00813345345147 4.493273912680862
22 47.55857571908132 36.51639799958725 3.772624542521483
23 42.39846362362086 42.39853412634984 2.999995024526001
24 36.51631883564138 47.55863650269607 2.227365834194038
25 30.00804708112285 51.91129548697573 1.506717459059518
26 22.98018122815309 55.38209798674806 0.8868764588439368
27 15.55002829134004 57.90908608895109 0.4103615548393624
28 7.844873518952218 59.44513127259008 0.110321093819324
29 -1.739072329106269e-13 59.96053466666667 0.007885333333333333
30 -7.844873518952549 59.44513127259003 0.1103210938193326
31 -15.55002829134038 57.90908608895099 0.4103615548393797
32 -22.9801812281534 55.38209798674794 0.8868764588439606
33 -30.00804708112315 51.91129548697555 1.506717459059548
34 -36.51631883564165 47.55863650269588 2.227365834194071
35 -42.39846362362103 42.39853412634967 2.999995024526024
36 -47.55857571908149 36.51639799958703 3.772624542521509
37 -51.91124555799776 30.00813345345127 4.493273912680884
38 -55.3820560945862 22.98028218719145 5.113115817661122
39 -57.90906015279922 15.5501248777995 5.589633445193138
40 -59.43752203273498 7.843787277557404 5.88819516288721
41 -11.25 0 -100
42 -7.5 0 -100
43 -3.75 0 -100
44 0 0 -100
45 3.75 0 -100
46 7.5 0 -100
47 11.25 0 -100
48 14.47935162378425 3.879751439756158 -100
49 12.98182797264858 7.495080539847817 -100
50 10.59961616478884 10.59963329353757 -100
51 7.495059563499384 12.98184008339298 -100
52 3.879728044807067 14.47935789249835 -100
53 7.124591938634238e-14 14.99013366666667 -100
54 -3.879728044806931 14.47935789249838 -100
55 -7.495059563499266 12.98184008339305 -100
56 -10.59961616478876 10.59963329353765 -100
57 -12.98182797264853 7.495080539847914 -100
58 -14.47935162378423 3.879751439756243 -100
59 -15.06240727751414 0 -96.05254236227454
60 -15.25779492041991 0 -91.97700084992212
61 -15.59865823806624 0 -87.77386754475059
62 -16.09772994459875 0 -83.44430721099886
63 -16.76785340268727 0 -78.99016031001224
64 -17.62185021222438 0 -74.41393231043759
65 -18.67238459780827 0 -69.71875779326484
66 -19.93183621214113 0 -64.90833846649173
67 -21.41218327359307 0 -59.98686577758016
68 -23.12490541667584 0 -54.95892301765454
69 -25.08091176805351 0 -49.82937464711512
70 -27.29049465108605 0 -44.60324974934593
71 -29.76331317607045 0 -39.28562540174119
72 -32.50840192822389 0 -33.88151999634847
73 -35.53420809447714 0 -28.39578483043056
74 -38.8486490316573 0 -22.83302082210276
75 -42.45917899491673 0 -17.19751279717656
76 -46.37287593626906 0 -11.49317223794735
77 -50.59653420092494 0 -5.72349674864322
78 -55.13674654898372 0 0.1084394398308512
79 59.43752203273502 7.843787277557115 5.888195162887219
80 57.90906015279923 15.55012487779944 5.589633445193141
81 55.3820560945862 22.98028218719147 5.113115817661122
82 51.91124555799765 30.00813345345143 4.493273912680866
83 47.55857571908136 36.5163979995872 3.772624542521489
84 42.39846362362091 42.39853412634979 2.999995024526007
85 36.51631883564144 47.55863650269603 2.227365834194044
86 30.00804708112291 51.91129548697569 1.506717459059523
87 22.98018122815315 55.38209798674804 0.8868764588439411
88 15.55002829134012 57.90908608895106 0.4103615548393665
89 7.844873518952294 59.44513127259006 0.110321093819326
90 -9.641115461533904e-14 59.96053466666666 0.007885333333333333
91 -7.844873518952483 59.44513127259005 0.1103210938193309
92 -15.55002829134031 57.90908608895101 0.4103615548393764
93 -22.98018122815336 55.38209798674797 0.886876458843957
94 -30.00804708112309 51.91129548697559 1.506717459059541
95 -36.51631883564161 47.55863650269589 2.227365834194066
96 -42.39846362362101 42.39853412634969 2.999995024526021
97 -47.55857571908147 36.51639799958704 3.772624542521508
98 -51.91124555799774 30.00813345345129 4.493273912680881
99 -55.38205609458618 22.98028218719151 5.113115817661118
100 -57.9090601527992 15.55012487779956 5.589633445193134
101 -59.43752203273498 7.843787277557395 5.888195162887212
102 15.06240727751415 0 -96.05254236227454
103 15.2577949204199 0 -91.97700084992212
104 15.59865823806625 0 -87.77386754475062
105 16.09772994459875 0 -83.44430721099886
106 16.76785340268728 0 -78.99016031001224
107 17.62185021222438 0 -74.41393231043759
108 18.67238459780827 0 -69.71875779326483
109 19.93183621214114 0 -64.90833846649173
110 21.41218327359307 0 -59.98686577758013
111 23.12490541667586 0 -54.95892301765454
112 25.08091176805352 0 -49.8293746471151
113 27.29049465108604 0 -44.6032497493459
114 29.76331317607048 0 -39.28562540174116
115 32.50840192822392 0 -33.88151999634844
116 35.53420809447717 0 -28.39578483043054
117 38.84864903165729 0 -22.83302082210274
118 42.45917899491675 0 -17.19751279717656
119 46.37287593626908 0 -11.49317223794731
120 50.59653420092496 0 -5.723496748643198
121 55.13674654898372 0 0.1084394398308501
122 60 0 12.66666666666667
123 60 0 19.33333333333334
124 -60 0 12.66666666666667
125 -60 0 19.33333333333334
126 59.43752203273502 7.843787277557119 25.88819516288722
127 57.90906015279923 15.55012487779946 25.58963344519314
128 55.38205609458618 22.9802821871915 25.11311581766112
129 51.91124555799763 30.00813345345147 24.49327391268086
130 47.55857571908132 36.51639799958725 23.77262454252148
131 42.39846362362086 42.39853412634984 22.999995024526
132 36.51631883564138 47.55863650269607 22.22736583419404
133 30.00804708112285 51.91129548697573 21.50671745905952
134 22.98018122815309 55.38209798674806 20.88687645884394
135 15.55002829134004 57.90908608895109 20.41036155483936
136 7.844873518952218 59.44513127259008 20.11032109381932
137 -1.739072329106269e-13 59.96053466666667 20.00788533333333
138 -7.844873518952549 59.44513127259003 20.11032109381933
139 -15.55002829134038 57.90908608895099 20.41036155483938
140 -22.9801812281534 55.38209798674794 20.88687645884396
141 -30.00804708112315 51.91129548697555 21.50671745905955
142 -36.51631883564165 47.55863650269588 22.22736583419407
143 -42.39846362362103 42.39853412634967 22.99999502452603
144 -47.55857571908149 36.51639799958703 23.77262454252151
145 -51.91124555799776 30.00813345345127 24.49327391268088
146 -55.3820560945862 22.98028218719145 25.11311581766113
147 -57.90906015279922 15.5501248777995 25.58963344519314
148 -59.43752203273498 7.843787277557404 25.88819516288721
149 -52 0 26
150 -44 0 26
151 -36 0 26
152 -28 0 26
153 -20 0 26
154 -12 0 26
155 -4 0 26
156 4 0 26
157 12 0 26
158 20 0 26
159 28 0 26
160 36 0 26
161 44 0 26
162 52 0 26
163 -28.1360956061387 5.040936946413288 -41.82705398423697
164 28.44309431878722 4.817155362518071 -41.25355088311338
165 16.73477599818257 3.938471758311927 -76.61618885885551
166 -3.58106139894389 54.92589108789061 -5.59500489702486
167 -16.08622507355165 3.08849265210908 -81.40359724718469
168 24.77898897075861 50.0058796151887 -3.596766252614069
169 -21.85234956931821 4.503980697852389 -57.3311215011508
170 -31.05790623510121 45.78644313449202 -3.499236289603457
171 20.27532707569036 4.06474528438323 -62.3846262870258
172 2.006334605162936 14.91987275622679 -96.22218565768367
173 37.25340534549814 5.148560121542353 -24.9059896553933
174 -36.89032953128191 5.505528699050116 -25.43500011293889
175 42.57528083162799 35.91826815107614 -1.517995924258602
176 15.45536236848437 3.441682908219217 -85.51996175202051
177 -46.26556024167839 29.83802615083991 -1.617721976610196
178 -9.136722223968849 11.94013030734505 -96.77707261946264
179 44.03906711906166 6.378994730494111 -14.23631108810972
180 -17.72446281563291 3.60803141643495 -72.24365056918494
181 23.70515499990455 4.657765536481949 -52.2424768922956
182 -44.22611462227839 5.946171753165094 -14.03872265303576
183 9.265146721202724 11.84696908920494 -96.60318386626172
184 11.12410478475409 54.21465561811163 -5.035154702792419
185 -18.00627604942634 53.01977159348026 -3.913568089327396
186 -15.14774327429521 2.766640720895722 -89.92007502390911
187 50.13895428482661 24.44510250309191 -0.148443884808852
188 -53.28640180574293 17.53451640010669 0.7781369076460589
189 14.73682079935048 3.450375461303526 -93.99447890639699
190 -13.90875879553945 5.727280737527741 -96.43724169880331
191 52.55485782882555 6.294655467224096 -2.713470790931388
192 -52.62757541789221 6.289269653719911 -2.621414534857469
193 18.89656623098901 4.023850895626257 -67.19088709070803
194 18.2907693590987 8.404271122997457 -64.52224775277205
195 19.81135400870772 8.669957163479205 -59.6558840413504
196 17.05389600067355 12.42455826032075 -61.69675941022246
197 15.50862239485285 12.15902078855044 -66.41130844313862
198 13.57736873294131 15.63175121060899 -63.431515019898
199 15.37353223894499 16.16806233178901 -58.50458077307424
200 11.78829990053542 14.99504554363634 -69.17392956220687
201 11.19320883481994 18.86569135166101 -60.0829773038197
202 13.19752338872706 19.59261410753131 -55.36412465547183
203 8.531206433928896 21.70180580928393 -56.61756951830171
204 11.08258941575499 22.71089905585715 -51.6329996800294
205 5.661198164050541 24.29966256133766 -52.7890944230813
206 8.641040464668436 25.60761813020128 -47.94501123588705
207 2.586352933303028 26.63922991577254 -48.79857642130374
208 5.126352469649281 28.4751554529431 -44.20943808832705
209 -0.6398284543294928 28.84538217230281 -44.4732830029883
210 2.073387801192426 31.1299010393982 -39.94346889681248
211 -3.832594129673057 30.86456791291867 -40.08535179683666
212 8.293704102993152 30.33152219405755 -39.25341743201418
213 0.1040655379631687 24.70838218474637 -53.50885695391946
214 4.833982106902967 33.46073912464232 -35.22784865734648
215 11.048973385909 32.38892904850127 -34.19204924594309
216 15.39139847064481 20.36056664322037 -50.54585500773476
217 -6.463849692849607 28.01646087685898 -44.50829494698149
218 -9.599888886516037 29.58959530587768 -39.78686455225905
219 -12.05056859657573 26.18767821438262 -43.94538892895299
220 -15.05442974461185 27.40725980147105 -38.99377087762005
221 -12.77332958088956 31.17072752837572 -34.96179596055831
222 -18.19922467800016 28.66001083605995 -33.94684360898898
223 -16.10695857046461 32.8860021112546 -29.84108146132494
224 -21.4449940332648 29.99327471042285 -28.82817174286409
225 7.688344370289364 35.90724274359369 -30.29750903653179
226 13.74187882416112 34.51394021339549 -29.22391915731469
227 16.77173024527326 30.32791603385573 -32.93793529139814
228 19.51716647014308 32.31230523909653 -27.71634115181145
229 22.06949699711343 27.59273299339542 -31.16660111167134
230 24.9513198549648 29.57226246803349 -25.58874644226618
231 6.40965543542652 20.6713473862111 -61.33435786473026
232 -19.37173226724169 34.61946385510394 -24.85466937619901
233 -24.99506268396151 31.49348275428893 -23.37966641989855
234 -13.89099840946287 36.90998862198045 -25.71552374360516
235 -23.4530951614761 25.27582639645909 -32.33844616138835
236 16.64039354540884 36.86837704495873 -23.98970341105605
237 -17.19921409161696 23.49874379163619 -42.77055012561796
238 -14.42645773521124 22.60365130616659 -47.8291920604572
239 27.05584389319478 24.29587268465567 -28.77031670081508
240 29.95083030785548 26.18521819548642 -23.22455273653842
241 27.86822769302574 31.56392827290619 -20.30699173333704
242 24.41027939136512 22.5829603534738 -34.21105239533703
243 28.75835004803078 18.95764079527008 -31.47819574281276
244 -18.99008229157739 19.34837725060536 -46.55622724509758
245 -16.52875345024515 18.75881521292674 -51.57862525032279
246 33.0308981593149 28.1666323921852 -17.74339778030993
247 -22.9226517546514 36.50151152575274 -19.59065603584895
248 -28.53360614478834 33.11821335505684 -18.03447531982487
249 -30.14509396401002 27.62031814473997 -21.6421276000841
250 -33.70895108395884 29.19695900200755 -16.08189565947881
251 -34.88711737772579 23.34372345593173 -19.32598066946587
252 34.63114487691148 22.28308011192589 -20.44939023619496
253 31.07843279853408 33.89782829524428 -14.70014549645613
254 37.83055949282036 24.33360635894947 -14.87293812386398
255 -20.44965897169524 15.11580545419577 -49.95012970675035
256 -38.45029205937291 24.87369843299316 -13.73777624701474
257 1.44428188892267 36.51849632934842 -30.75239808909026
258 4.44606852252297 39.41489650406425 -25.86496641777319
259 -18.26642702007611 14.74940294219449 -54.97873486421489
260 -14.33777167447524 18.17100845918319 -56.43116039565222
261 -16.2467909071102 14.51326346785806 -59.83160257967821
262 -12.37153852964758 17.57485954340885 -61.21754709983736
263 -14.36318093650444 14.28996111616999 -64.73246443720976
264 -10.31475925475344 17.11160390937464 -66.1555344608077
265 -12.58357516876403 14.20335179526388 -69.4435906055726
266 -8.506745802233345 16.71621673967372 -70.70251961755054
267 -10.90702711034506 14.18454917838861 -74.025596117999
268 -6.795149723483808 16.37631655952166 -75.09727026582381
269 -9.314187679033962 14.19713641996591 -78.58547834872567
270 -5.138626158690623 16.05922927793427 -79.48662738681888
271 -2.356973351422746 17.38814511102495 -76.12698202531818
272 -0.661152720740857 16.72096626520285 -80.30426795330075
273 -3.471191430647927 15.79658907969771 -83.73245726756106
274 0.9540199322154852 16.03876992081373 -84.52013220215431
275 3.750486768419519 16.16990681772334 -81.02521557255803
276 5.267673360619512 15.10418232567052 -84.94309481278512
277 7.869958409471097 14.50956642574129 -81.38611046258563
278 -5.999313273807749 18.91864752813219 -66.95384107369962
279 9.171261796395212 13.00074762661107 -85.4115599524509
280 -1.869782510627484 15.54304230540828 -87.82855130537369
281 -6.021359460817509 14.53862320143132 -87.00574861234003
282 6.491144339171896 15.97921461973518 -77.40457079861388
283 10.35695840036276 13.61964535031542 -77.80927508494244
284 -22.80801710765873 15.59676108353215 -44.8160892841702
285 26.22142041581749 17.36998105241621 -36.9743958465715
286 29.82922663697782 13.37492023564064 -34.13149839842561
287 -31.47485205659331 21.96716576683011 -24.96890175138777
288 22.00218360654377 20.93913217031892 -39.67158383114626
289 23.93065288220419 15.95739945454454 -42.36181476645211
290 -17.55328691285372 10.79514696084929 -63.12092355276132
291 -9.878037634201661 20.60871657307404 -57.71263758387727
292 -37.4335116170488 30.77626828629021 -10.64097158389766
293 -39.20314716604746 19.05394724108257 -16.38804681827054
294 -42.82216121948764 20.29845140650123 -10.96590762279765
295 6.816972035909059 13.94271466148034 -89.01907001717841
296 10.32609379388933 11.54674263377808 -89.1704468827871
297 -23.5032755420581 11.3169815182389 -47.9104451906681
298 38.90677581137989 18.03518556246134 -17.35759981667625
299 42.27651817709135 20.21858812461128 -11.70643929272398
300 -12.83295691296929 11.42807835074867 -77.17446299798553
301 -11.43683804977933 11.79822585593428 -81.57563933418271
302 25.43677952049133 37.06201127034721 -16.80577418907932
303 -26.70116158577703 38.52459963826438 -14.15740378957559
304 -20.83897896703684 41.45002049364852 -15.41924774992928
305 32.45423192730927 14.98833759432174 -28.70308470678507
306 -4.472047540052576 14.68042792490375 -91.05247518664341
307 33.6977092002568 5.526182855485458 -30.92077892001085
308 -2.048367275386173 39.39399344883192 -26.23620959397452
309 1.00397216666212 42.78478216869175 -21.35741651772996
310 7.570580907172869 42.36544602034662 -20.87513511518071
311 4.273664657088487 46.22994438557621 -16.34130742217338
312 -2.692864328711293 46.17386463058865 -16.59950402649206
313 10.99468034690671 45.50106186616375 -15.59751822550076
314 28.74474543699606 39.49069551293691 -11.43020326980498
315 -8.338855496389193 12.93813302389221 -90.37301062705718
316 14.13166111320797 11.82615672742247 -71.37892949508411
317 23.09146239384957 42.16990822110836 -13.03180550122802
318 41.29275214077564 26.56536640966314 -9.215338624182266
319 12.42815586166554 9.924717758858442 -85.21706868126725
320 13.08624959589821 8.198074400593507 -89.54328358130206
321 -4.722884589372164 36.16103272124295 -30.81633191773512
322 34.5624901892121 36.06730028784515 -9.291757128069298
323 32.64449075523583 41.65509237833958 -6.059330265549915
324 -24.54363625311712 43.78166463697093 -10.25239408282917
325 -20.24237754214873 4.296327299640269 -62.34612968943465
326 0.5336741746193391 50.40665925795372 -11.24474404166583
327 -6.398889071996518 49.8212477925012 -11.38391561208335
328 -9.031606122039351 45.17453318610975 -16.67069827741714
329 9.135390697793135 15.60455540890889 -73.3766962784176
330 5.004795142574057 17.45121434488779 -73.34995433641349
331 -0.3715812505458759 15.20871096792557 -92.95546864388783
332 27.59787920817663 11.77970601603428 -39.28433221531595
333 25.16224579497369 10.71442727955399 -44.91797543565877
334 22.08342795618508 14.50013113638841 -47.47693766856032
335 14.99379178810979 3.499732733703875 -89.94993074196792
336 -18.93610981474166 46.15730205780542 -11.13838429750208
337 -3.504005756236115 14.66734788299967 -95.51262973833552
338 -25.94293054000065 11.37544977276356 -42.80343512116436
339 -25.27906272001779 16.17016318004701 -39.75213715239209
340 -28.98718631803797 10.82074397791604 -37.31076022670943
341 -34.29205457516798 4.398309105141101 -30.11285552298129
342 -27.98092408025152 16.86053727402942 -34.54449275194299
343 -34.39070631466212 10.77424359500375 -27.85158344693942
344 -37.70167515221165 11.04563886426738 -22.44005739564022
345 -30.59609484117239 4.274252382858482 -37.03203668970584
346 3.971873701878559 14.70111186549591 -92.69372126904931
347 -25.84067485597364 4.187637524106972 -47.20835402613744
348 11.44990485724935 9.983339586238664 -93.08844778123498
349 25.74936320504225 4.697163623074844 -47.23794454719827
350 -43.04848917368692 13.4239758170812 -13.71498432870149
351 -48.52886614311144 5.641920649344949 -8.081429773418613
352 -46.65168340131356 15.8716375121626 -7.991670965034693
353 -46.47843824649375 22.41378240050745 -5.38463186450453
354 -9.868388260798117 12.38373619144028 -85.97508421684991
355 -11.54802757444095 10.2716373614787 -89.48996626533781
356 42.84053608113297 13.61222787444315 -13.93353575127482
357 48.37227681587515 5.765490699706974 -8.276619597043432
358 49.66074540647612 12.02359077176865 -5.324731711333069
359 39.54929380341818 11.02564607081635 -19.63143524410515
360 30.79899748185126 7.983483569514581 -35.39534791178015
361 19.68647575013471 25.78116175246783 -36.33363562330091
362 17.31546314865642 24.12343538971477 -41.64981934526004
363 14.39896794263493 28.34253121937617 -38.12321685168257
364 -14.61501409498323 7.860990516191277 -80.23068465987942
365 -15.56953622104968 7.851001069313557 -75.55921536085179
366 -13.02070928079565 9.19771586097297 -84.87194678089088
367 2.428802508416829 15.37645689841822 -88.65570853573742
368 -15.79256665319465 11.09896011980904 -67.78991556198397
369 19.42577504279956 19.71449179887183 -45.31520137763383
370 -31.26520620026099 40.05746461398682 -8.717327500305101
371 -36.54808854577903 40.96659932388958 -3.288363361317325
372 16.94455749730812 8.288175621550838 -69.23440780001935
373 15.82802409933523 8.010000696414624 -74.09457674313894
374 17.72050429675373 3.668757614974669 -72.20840096614194
375 15.09320431744003 7.448967742727102 -78.79077177276125
376 15.97117321319042 3.736087031273767 -81.27227148246723
377 -9.061984321461814 25.08857683289063 -48.6699359047353
378 -3.299672566077008 26.4590379471714 -48.99932977498042
379 -6.041238169942325 23.63518006370371 -54.09721492776524
380 -1.978754578483017 22.78188562701044 -58.12447066126307
381 3.439530591856224 22.82206804784473 -57.5269973080287
382 35.65296169946404 16.43246072574648 -22.9087803942783
383 -19.29504442220118 10.9051257680847 -58.246348579763
384 -21.28595132269449 11.01556029264209 -53.20811160576243
385 -23.64171332083733 4.512423359966094 -52.47181337810095
386 11.76508908338522 26.82304967579202 -43.06138744707917
387 -18.92079466941644 3.456315835762038 -67.4992190323552
388 1.127549798550914 21.36449394907105 -62.25391672699566
389 4.48784671471462 19.67454442458099 -65.9255936239816
390 -4.025400980584389 20.83920930180888 -62.68371438335111
391 9.378414557848572 18.10391094646758 -64.91019173790426
392 -10.69548195970563 52.97321951912416 -6.586562796574647
393 -15.57697307565375 2.764693613321726 -85.62231731259187
394 -4.056357735399907 18.16441886327694 -71.53838929233569
395 -0.9670141295133026 19.63269858781035 -67.7801758431518
396 -35.79266403814013 16.95042376387972 -22.39674482535188
397 2.156480597327493 17.26828995994133 -76.81622043266744
398 11.3482859625064 12.02955195635627 -80.92539603378655
399 -11.89369535270672 21.76786278328458 -52.63558775878881
400 -26.82417970831117 26.16691252279903 -27.1189125867895
401 -39.59911684538534 4.756783691157549 -21.19546953939776
402 4.032096266979374 55.03268295457825 -5.426612909075003
403 7.800740497453099 50.15673060388323 -10.68155387220141
404 14.51969074828274 48.93645655964706 -10.01901104413028
405 -7.664693140125677 14.39105318238482 -82.67388999108155
406 21.80838342599052 4.179473488145247 -57.62959392577892
407 21.65524405465057 8.651373126050739 -54.73877178560857
408 18.87925215075018 12.70440202189305 -56.72970426266816
409 23.38618103854238 9.402415119497819 -49.87984605155775
410 -14.25889527845706 11.28215391207341 -72.37377584496915
411 -5.600337527964157 42.28512853265907 -21.48041189788362
412 -20.15167139197476 24.44604117144633 -37.5975067355994
413 7.848101819915435 13.03217882183507 -92.85016767078901
414 45.93225390293839 22.43439065904176 -6.03110576329614
415 44.78087223706387 28.98639218207612 -3.747666033919192
416 31.54284791125966 20.66270634963087 -25.94250352207485
417 14.49868121002316 7.115087751922036 -83.16129926127867
418 -11.93027115890368 9.154436910749823 -96.62180653904382
419 -12.97848060870173 7.961847031413519 -92.44188306093635
420 5.790080517465669 13.88803881114248 -96.42219816257372
421 -22.99727551528918 49.72427630563753 -4.93104147027965
422 10.67909047724573 38.35775233699835 -25.37341888840486
423 -17.22491068541419 39.08039710336855 -20.72108424383803
424 7.582891738863563 17.56398258875265 -69.36779566836476
425 -1.254110833008759 33.72731071227338 -35.40055292052436
426 -21.57704430876941 20.09559306992627 -41.40168012453757
427 -32.19137477377152 34.86762472489741 -12.68713220050666
428 36.2904358336651 30.43934809525688 -12.16342198568099
429 18.14231199503098 52.32934535305539 -4.607606188532501
430 -42.25863767835881 26.46450780205577 -8.149549435916787
431 -50.66927382174732 23.42849936876657 -0.005162998724219767
432 -7.26474220838135 32.76567047995613 -35.55232585812288
433 22.46523328844604 34.69660964891165 -22.10239662959441
434 19.6101395444552 39.52947456308426 -18.55020819042167
435 -41.76077103304606 36.41441685481239 -1.967264960207287
436 53.71374903683862 12.69292504693991 -0.08275852865016209
437 55.77272246907508 7.744178849992302 1.49400027211657
438 17.21405068153394 16.76356284077259 -53.78967058470979
439 -16.84555032276812 3.123976365715577 -76.90761379992261
440 -8.158004882344198 38.53004458950676 -26.15402740278119
441 0.4083506588692272 18.32024260636886 -72.76611786615982
442 -10.44522707461594 11.02580049392714 -93.18097152642278
443 -31.21692482988658 12.6410089312734 -32.21456197817911
444 -31.71773409372953 16.81468956292293 -28.62206505753793
445 11.92712848017471 9.152025443794393 -96.76525404946928
446 -27.82801951125805 21.3911913417266 -30.60848090084801
447 40.52628817604928 4.608973185858421 -19.77114769785403
448 -13.8188947340718 7.116405831506317 -88.38001228910674
449 13.88622024440799 5.760383816989801 -96.73204963534039
450 -14.89070702007063 2.7144385572043 -93.97217271628475
451 -6.76271645837291 13.5455600981409 -94.15975127428898
452 -24.58198619594333 20.84640455222531 -35.92166169082892
453 39.61089860290052 32.28498678801947 -7.16069717757189
454 13.31787033105859 10.96560662443728 -76.77462369670552
455 -10.63789456147536 34.76211180147371 -30.71739458800639
456 26.95079989738757 44.83442327451736 -7.44667504782935
457 13.80297015494375 41.12822317020734 -20.0542396973397
458 13.56144278998489 6.815651697828973 -93.23075989759364
459 -41.13142343859328 9.034340186098394 -17.90072703102159
460 46.20425422022561 16.14609007461949 -8.466706685790843
461 -55.13411899666634 10.93883458480258 1.257569849665541
462 35.47021292084742 10.65812496656791 -26.13353987546353
463 37.35840114574613 41.95653878708742 -1.757424946434542
464 -50.47852321656283 11.84323609205134 -4.324359584999605
465 50.24973565157967 17.7876438395264 -2.780009518070411
466 20.5807783728081 13.36640156772584 -51.97347962637537
467 -8.309968036346373 19.51360890033075 -62.46729668697621
468 -16.73887002774259 7.895063003619752 -70.66242946758621
469 14.73476376065353 23.14569192873237 -46.47625152374141
470 17.22980632215961 44.32312040132415 -14.22938009706589
471 -40.77347678717398 32.0968533893033 -6.061213489613183
472 -11.5959886495626 40.87371833357165 -21.45068645277512
473 3.239104103840089 18.76493823413624 -69.92722221333062
474 20.92059463392067 47.31490747718095 -8.716903007899264
475 19.0217553693179 17.16228179093842 -49.77455584946165
476 -12.15330026084077 48.11517542192771 -11.91707260780858
477 -15.09195197019969 43.49278570983572 -16.36994086775479
478 -36.49733061734816 35.9821319323805 -7.470902195228567
479 -6.164731592078087 13.70364334465025 -97.12995426311545
480 31.60064744708445 46.47145258924301 -2.456064529403218
481 -56.36672404991575 5.098288510454273 1.914533769215859
482 32.61996770696652 10.51853800766432 -30.96158500261422
483 14.28208919482092 6.655535558865201 -86.30084383795212
484 -18.18806812258094 7.873274260297124 -65.57708963409486
485 -5.958323859580124 21.65096350986493 -59.0802693527279
486 46.14291194200752 10.70964816337444 -10.32139095805025
487 -14.81930630849237 6.230872938053105 -83.67001435470682
488 -46.21817144221555 10.52561418371629 -10.26774850128822
489 -14.79087147122867 2.596710915836958 -97.40587570937673
490 14.77249400017975 2.700904184995191 -97.39560950997226
491 12.00865961850244 13.23964460406295 -73.98842885645773
492 47.57751195802503 31.44141183119507 0.71914664161572
493 -39.53429566882635 13.95626079701492 -18.48358582762546
494 -31.9737994485515 7.162880598681729 -33.54067167569456
495 -19.75043192465833 7.932179765472966 -60.6593067780751
496 30.96385907415243 3.435678116858135 -36.49025100755616
497 -23.33535451818292 8.245624749804364 -50.93329959910946
498 -0.9301435214328787 14.99660721662367 -97.19776281382582
499 -25.53212239153035 8.169433961639312 -45.95159893449561
500 13.44550406157783 9.499430481817436 -81.18054868910642
501 53.7928704687078 18.73065449576693 1.770654246706146
502 -21.53089898676486 8.01579286091615 -55.6454466201963
503 -42.02131312685777 4.383965176148402 -17.52002870453841
504 -49.36384901118081 17.79812941407826 -3.859869740347893
505 37.81581609967777 37.24954929423514 -5.164031375166691
506 -14.35422584647204 5.088691503725959 -92.31536871509488
507 -16.10282031766567 50.1140823956969 -7.983804803939697
508 1.877951657361319 3.251295922495078 -100.0000000000001
509 -7.22674172022227 9.156782522881068 -100.0000000000001
510 1.180666097652869 11.61206383423453 -100.0000000000001
511 9.790142605605782 6.979604058910914 -100.0000000000001
512 -5.624999999999999 3.247595264191645 -100.0000000000001
513 -10.65083536402677 4.590433014445973 -100.0000000000001
514 -1.874508057106447 3.253737506111867 -100.0000000000001
515 -0.0178976283880549 6.323077843486564 -100.0000000000001
516 3.336906597578787 6.179872850580561 -100.0000000000001
517 5.394126839853186 3.095550230921178 -100.0000000000001
518 8.70393661770092 3.474082614423875 -100.0000000000001
519 -4.056527466012049 7.01728281697857 -100.0000000000001
520 -1.251973860879575 9.600623079137584 -100.0000000000001
521 -9.734103897227863 7.532663677664674 -100.0000000000001
522 -4.386843211292617 11.09012247635579 -100.0000000000001
523 7.735420719602085 9.234879521223828 -100.0000000000001
524 4.267382479937403 9.71698906290451 -100.0000000000001
525 -7.196154999306294 5.923921528206975 -100.0000000000001
526 11.44105176394791 4.365703730587753 -100.0000000000001
527 -8.376106465057028 2.670883812900544 -100.0000000000001
528 -1.667575803865238 12.35446018977859 -100.0000000000001
529 6.534247921703308 6.289544404364339 -100.0000000000001
530 1.503016737180285 8.686525334068751 -100.0000000000001
531 -58.75233313901369 11.97618235511305 12.54152524108934
532 58.75233313901373 11.9761823551129 12.54152524108955
533 -3.842383514259512 59.83729450494607 6.866389183583722
534 10.66278692790979 59.00483539728484 6.662270778165584
535 -18.26268269120602 57.11164607544274 7.012577720239704
536 25.54330425038353 54.24762927354133 7.532600538213636
537 -54.28407543625556 25.46575791404522 18.45669916621141
538 54.30716016110785 25.41649118173457 18.45065477061185
539 -32.38358403733947 50.46354340970824 8.182684422123652
540 38.67254879208548 45.82247924323545 8.915101262453796
541 -45.73735779381352 38.77318280920012 16.85370004206123
542 45.82241531995499 38.67262453333034 17.08488824653867
543 4.019394027318408 59.82566488779268 13.25181724102444
544 -11.97730920963859 58.75210342541834 13.45740472305918
545 20.22267324947104 56.44739939702532 14.3364496968409
546 -27.46142966098407 53.30230096141963 14.8951264537665
547 49.25031991632842 34.20046049517448 10.43248030622938
548 -49.23469665029666 34.22294786320603 10.42307250830989
549 34.2003779300379 49.25037725102344 15.56751026075329
550 56.5053781482539 20.06010129492882 11.91930550606751
551 -56.51257362195915 20.0398215652526 11.91300303531058
552 -40.5481737195885 44.17138457184519 16.14118146862416
553 -59.67286010306408 5.764226984523398 15.99999999995225
554 59.61447508061193 6.344724723992185 16.03286167326069
555 58.85298346728607 11.47135694033362 20.28211216738174
556 -58.80624560059066 11.70859220597473 19.9424061115269
557 59.71330416861454 5.320516910921175 21.8954037175258
558 -59.70482048200621 5.41689209746525 20.99121405221351
559 -56.94951690785253 18.76214864268728 19.25941511643769
560 -38.68547924806196 45.81156322966379 8.962262339525019
561 44.2077985428173 40.50847000788985 9.802859231072109
562 40.31803053320027 44.3815496357054 16.32983182884252
563 -44.46566063209928 40.22524743775914 9.601721287028168
564 50.60251003635226 32.16600271580398 17.68263486078091
565 -50.59375908055844 32.17976529298571 17.6152794055532
566 -34.37124404308388 49.13128466386607 15.43077961663302
567 32.19940891460697 50.58125954147568 8.312405689602514
568 57.0459704715747 18.4668072175241 19.22763727389819
569 27.41830297370374 53.32449778981601 14.9188485420078
570 -53.39148368128072 27.28763207693086 11.04747804927196
571 53.39375006803882 27.28319716536048 11.05227692485245
572 -25.311766114717 54.35604982703808 7.675003171703237
573 -19.82431263785754 56.58853315718098 14.49532639853628
574 17.97251313205105 57.20362236750516 7.170685184730483
575 12.14942598289521 58.71675229943212 14.11414194614779
576 -11.46124642251766 58.85495327276558 6.023933318327969
577 -3.972494925234694 59.82879739476742 14.17982655509282
578 3.702611271115341 59.84610593342756 5.829002656659444
579 59.70956104029963 5.363269259846328 10.55757880562214
580 -59.69046251659619 5.575884014455035 10.98922898331097
581 -3.752860816745529 53.66167885456174 20.95326859980575
582 24.39004823962594 47.26062106249726 22.11730444680194
583 -16 6.924447796588026 25.77191512035161
584 7.958140137959695 6.967827911645612 25.75988962850484
585 -23.58930272713618 47.83281158368133 22.02333788682542
586 39.07401688309621 35.0939796355873 23.87640288711886
587 -39.70909866758819 35.23537168101663 23.86540472764018
588 23.94180585388089 6.958976012702326 25.78763861111867
589 -32.02091242528793 6.923660248853732 25.81235192137088
590 39.58806452367564 6.93266845230842 25.83954397395381
591 -47.60311567559864 23.21281659188373 25.07086115815545
592 10.22940512092977 52.59426002340027 21.15618763045611
593 47.53678373732825 23.49839737696647 25.04854912486422
594 -47.99006003564436 6.081968541538913 25.89295580659282
595 52.05065904230567 10.62699243032317 25.78700484179262
596 -40.00200753783913 6.774270323334338 25.84536392710391
597 -36.01483093853784 13.79370265659857 25.57548941969157
598 -28.0589839940247 13.83361635135839 25.52855760944251
599 -32.05030056794833 20.69506474295205 25.15477659091515
600 -24.11442918287462 20.72247386455563 25.10121753179239
601 -28.0929996182565 27.55177371425828 24.57230250728887
602 -20.17053367060236 27.58510709410451 24.5140846219071
603 -16.17758521345123 20.75310856129641 25.05712422049844
604 -12.2379725909097 27.61817006088544 24.46907451458264
605 -8.197794831918101 20.76964781341159 25.02842551370738
606 -4.300148852643926 27.65428352856787 24.44269985496394
607 -8.306527695624739 34.46169110960743 23.72052660151518
608 -0.3811391549747615 34.49975048109362 23.70118295951367
609 3.620817847885403 27.70013119793102 24.43733607140133
610 7.544390874532146 34.54352642095829 23.70821010688901
611 11.54337770473853 27.74512340402118 24.45412817566902
612 15.42829447522157 34.5681605009606 23.74263662079024
613 19.4651563591261 27.79376105174355 24.49000117830204
614 15.57044267871856 20.93939200000046 25.04110256414987
615 23.48665373062095 20.97410188957315 25.07971066657835
616 23.3467403553092 34.56264305818593 23.80063944399399
617 3.757841203890119 40.94971318430685 22.86903566422003
618 -24.14898113589483 34.31975052496928 23.83543798865607
619 -36.11233504713246 28.09406090108114 24.5831423869861
620 19.66385112388575 14.03196506237319 25.47941723548733
621 27.49801116656501 14.13033745421242 25.51124237107124
622 31.43033860197815 21.02289862173488 25.12774681479962
623 35.54300510188892 14.06632971893526 25.56003536856963
624 39.28074945802739 21.53199819203031 25.14558706722487
625 35.16167666088275 28.1144894621947 24.57400702720179
626 44.54062677187848 14.31920252043038 25.6016794730366
627 31.7621611228586 7.015116063491353 25.80870548972497
628 -24.0328518887925 6.927480697355152 25.78893634321681
629 -44.38931141854709 13.88981969803563 25.62048737472468
630 -40.16622222722784 21.6214081073832 25.14506328779721
631 15.91873741442669 6.988852572366147 25.76943000223715
632 27.36606207605285 27.86990687035414 24.53717171023185
633 31.30697744905097 34.72225564477303 23.85114518330539
634 11.59389085711748 40.92915047894338 22.90339694107422
635 -16.23271652840483 34.34722466882775 23.77368583707587
636 -12.24151751346634 41.03650570758617 22.89253448377774
637 -4.12081410909458 41.01153088311102 22.86121353778514
638 -8.028808411181082 6.929779234687429 25.76139696019348
639 -0.006680899382231752 6.920125801703542 25.75825930392246
640 3.842306040379392 13.93116435764116 25.44523841930028
641 -4.145754191047403 13.88391914629402 25.44797719100258
642 -12.14555184026451 13.88043299409904 25.46215037019839
643 7.673811642868219 20.88513170191111 25.0188468212674
644 -0.2657102979745094 20.81681525222411 25.01515505024352
645 -20.08829548534924 13.84164631194728 25.49068054919796
646 -31.93843260214658 34.49346205606232 23.88304118489247
647 -27.6992595540726 40.71662267949402 23.07188883810381
648 11.77127411966392 13.95879312485955 25.45715439406509
649 19.70537791224467 41.05122309006679 22.94807518979124
650 27.4739167649059 40.69896601168248 23.07188435731188
651 -20.04483143585921 40.95809077135616 22.96379251246693
652 -8.378475454980251 47.48101039247361 21.93111185326563
653 -15.4788020985656 47.30492005402479 22.0117963516048
654 -50.67351504865236 16.86274415756197 25.50278647554909
655 16.1172556414214 48.18226404360965 21.88621829298469
656 34.80927037420735 40.93504806536666 23.11805690673929
657 -34.85494760642156 41.11129288665426 23.09542227229066
658 43.14138768622202 28.93412110514578 24.55383475714069
659 -43.84334883546605 29.11979483881333 24.54053844408115
660 51.4837228058604 17.39727621532438 25.47572685878784
661 3.703047526289207 53.45356797664545 20.9854718644466
662 0.2930126568551555 47.38054390775159 21.92266530739534
663 47.24469296567754 6.179874860323657 25.88794306068087
664 -52.95858109318626 10.77840744649795 25.78520687624032
665 -11.25412295204698 53.24986007760732 21.06363194758869
666 7.516583147091468 46.59744088648483 22.0604463305424
667 30.63925864965456 45.67536983143682 22.42328059047506
668 -30.74741713780355 46.08819191577221 22.36597488119271
669 54.38214017871755 5.189491215775011 25.93307104877017
670 -54.48249260936329 5.093323521064066 25.9349830897798
671 -17.89639771290669 52.71619870767971 21.21745826724174
$EndNodes
$Elements
1201
1 2 2 1 1 163 340 338
2 2 2 1 1 163 345 340
3 2 2 1 1 206 469 204
4 2 2 1 1 111 406 181
5 2 2 1 1 167 439 364
6 2 2 1 1 72 494 345
7 2 2 1 1 291 399 379
8 2 2 1 1 91 392 92
9 2 2 1 1 326 327 166
10 2 2 1 1 164 333 332
11 2 2 1 1 179 359 356
12 2 2 1 1 173 462 359
13 2 2 1 1 364 439 365
14 2 2 1 1 179 447 359
15 2 2 1 1 388 395 390
16 2 2 1 1 359 447 173
17 2 2 1 1 421 507 336
18 2 2 1 1 200 491 329
19 2 2 1 1 172 498 331
20 2 2 1 1 365 439 180
21 2 2 1 1 177 430 353
22 2 2 1 1 396 444 343
23 2 2 1 1 212 386 208
24 2 2 1 1 344 396 343
25 2 2 1 1 355 366 354
26 2 2 1 1 185 507 421
27 2 2 1 1 341 494 72
28 2 2 1 1 164 349 333
29 2 2 1 1 121 437 3
30 2 2 1 1 379 399 377
31 2 2 1 1 89 402 90
32 2 2 1 1 324 370 170
33 2 2 1 1 331 346 172
34 2 2 1 1 95 371 96
35 2 2 1 1 389 395 388
36 2 2 1 1 386 469 206
37 2 2 1 1 363 386 212
38 2 2 1 1 170 421 324
39 2 2 1 1 354 366 301
40 2 2 1 1 183 413 348
41 2 2 1 1 92 392 185
42 2 2 1 1 110 406 111
43 2 2 1 1 331 498 337
44 2 2 1 1 166 402 326
45 2 2 1 1 315 451 442
46 2 2 1 1 329 424 200
47 2 2 1 1 348 413 296
48 2 2 1 1 406 407 181
49 2 2 1 1 332 360 164
50 2 2 1 1 166 392 91
51 2 2 1 1 180 468 365
52 2 2 1 1 324 421 336
53 2 2 1 1 3 437 79
54 2 2 1 1 235 452 446
55 2 2 1 1 208 386 206
56 2 2 1 1 193 374 372
57 2 2 1 1 93 421 94
58 2 2 1 1 390 395 278
59 2 2 1 1 316 491 200
60 2 2 1 1 184 402 89
61 2 2 1 1 335 458 320
62 2 2 1 1 215 363 212
63 2 2 1 1 372 374 373
64 2 2 1 1 454 500 398
65 2 2 1 1 419 448 355
66 2 2 1 1 283 454 398
67 2 2 1 1 442 451 178
68 2 2 1 1 327 392 166
69 2 2 1 1 379 485 291
70 2 2 1 1 184 404 403
71 2 2 1 1 444 446 342
72 2 2 1 1 170 371 95
73 2 2 1 1 443 444 342
74 2 2 1 1 216 469 369
75 2 2 1 1 353 431 177
76 2 2 1 1 464 488 351
77 2 2 1 1 346 367 295
78 2 2 1 1 90 402 166
79 2 2 1 1 414 465 460
80 2 2 1 1 301 405 354
81 2 2 1 1 369 475 216
82 2 2 1 1 435 478 471
83 2 2 1 1 371 435 96
84 2 2 1 1 204 469 216
85 2 2 1 1 165 375 373
86 2 2 1 1 371 478 435
87 2 2 1 1 177 471 430
88 2 2 1 1 54 479 337
89 2 2 1 1 337 498 54
90 2 2 1 1 355 448 366
91 2 2 1 1 185 421 93
92 2 2 1 1 320 483 335
93 2 2 1 1 227 363 215
94 2 2 1 1 373 374 165
95 2 2 1 1 184 429 404
96 2 2 1 1 349 409 333
97 2 2 1 1 295 367 276
98 2 2 1 1 180 439 64
99 2 2 1 1 387 468 180
100 2 2 1 1 445 458 449
101 2 2 1 1 463 480 85
102 2 2 1 1 307 462 173
103 2 2 1 1 393 487 448
104 2 2 1 1 470 474 317
105 2 2 1 1 165 376 375
106 2 2 1 1 360 482 307
107 2 2 1 1 378 379 377
108 2 2 1 1 345 494 340
109 2 2 1 1 192 464 351
110 2 2 1 1 94 421 170
111 2 2 1 1 446 452 342
112 2 2 1 1 387 484 468
113 2 2 1 1 307 482 462
114 2 2 1 1 87 429 88
115 2 2 1 1 296 413 295
116 2 2 1 1 307 496 360
117 2 2 1 1 311 403 313
118 2 2 1 1 346 420 172
119 2 2 1 1 305 416 382
120 2 2 1 1 255 384 297
121 2 2 1 1 460 465 358
122 2 2 1 1 269 405 301
123 2 2 1 1 108 374 193
124 2 2 1 1 391 424 389
125 2 2 1 1 323 480 463
126 2 2 1 1 348 445 183
127 2 2 1 1 359 462 382
128 2 2 1 1 334 369 289
129 2 2 1 1 382 416 252
130 2 2 1 1 377 399 238
131 2 2 1 1 355 442 419
132 2 2 1 1 373 454 316
133 2 2 1 1 295 413 346
134 2 2 1 1 200 391 198
135 2 2 1 1 213 381 380
136 2 2 1 1 404 474 470
137 2 2 1 1 381 388 380
138 2 2 1 1 198 391 201
139 2 2 1 1 229 361 227
140 2 2 1 1 413 420 346
141 2 2 1 1 350 459 182
142 2 2 1 1 213 378 207
143 2 2 1 1 168 429 87
144 2 2 1 1 361 363 227
145 2 2 1 1 393 448 186
146 2 2 1 1 235 446 400
147 2 2 1 1 331 367 346
148 2 2 1 1 326 403 311
149 2 2 1 1 338 499 163
150 2 2 1 1 276 367 274
151 2 2 1 1 207 378 209
152 2 2 1 1 231 389 388
153 2 2 1 1 348 458 445
154 2 2 1 1 193 372 194
155 2 2 1 1 352 488 464
156 2 2 1 1 419 506 448
157 2 2 1 1 376 417 375
158 2 2 1 1 66 387 65
159 2 2 1 1 224 400 233
160 2 2 1 1 286 360 332
161 2 2 1 1 343 494 341
162 2 2 1 1 189 458 335
163 2 2 1 1 448 487 366
164 2 2 1 1 219 377 238
165 2 2 1 1 325 387 66
166 2 2 1 1 289 369 288
167 2 2 1 1 231 388 381
168 2 2 1 1 67 325 66
169 2 2 1 1 213 379 378
170 2 2 1 1 65 387 180
171 2 2 1 1 115 307 116
172 2 2 1 1 235 400 224
173 2 2 1 1 80 437 436
174 2 2 1 1 199 408 196
175 2 2 1 1 443 494 343
176 2 2 1 1 245 399 260
177 2 2 1 1 213 380 379
178 2 2 1 1 79 437 80
179 2 2 1 1 388 390 380
180 2 2 1 1 201 391 231
181 2 2 1 1 285 289 288
182 2 2 1 1 260 261 259
183 2 2 1 1 264 265 263
184 2 2 1 1 262 263 261
185 2 2 1 1 403 404 313
186 2 2 1 1 266 267 265
187 2 2 1 1 298 382 252
188 2 2 1 1 184 403 402
189 2 2 1 1 209 378 217
190 2 2 1 1 288 369 362
191 2 2 1 1 238 245 244
192 2 2 1 1 113 349 164
193 2 2 1 1 433 434 302
194 2 2 1 1 268 269 267
195 2 2 1 1 274 280 273
196 2 2 1 1 260 399 291
197 2 2 1 1 331 337 306
198 2 2 1 1 233 400 249
199 2 2 1 1 333 334 289
200 2 2 1 1 266 394 268
201 2 2 1 1 245 259 255
202 2 2 1 1 359 382 298
203 2 2 1 1 285 288 242
204 2 2 1 1 263 368 290
205 2 2 1 1 106 376 165
206 2 2 1 1 196 408 195
207 2 2 1 1 217 377 219
208 2 2 1 1 269 301 300
209 2 2 1 1 280 306 281
210 2 2 1 1 197 316 200
211 2 2 1 1 301 366 364
212 2 2 1 1 243 285 242
213 2 2 1 1 219 238 237
214 2 2 1 1 104 335 176
215 2 2 1 1 260 262 261
216 2 2 1 1 272 273 270
217 2 2 1 1 259 384 255
218 2 2 1 1 262 264 263
219 2 2 1 1 245 260 259
220 2 2 1 1 279 295 276
221 2 2 1 1 231 391 389
222 2 2 1 1 205 381 213
223 2 2 1 1 264 266 265
224 2 2 1 1 372 373 316
225 2 2 1 1 320 348 296
226 2 2 1 1 194 372 197
227 2 2 1 1 249 287 251
228 2 2 1 1 332 333 289
229 2 2 1 1 266 268 267
230 2 2 1 1 239 242 229
231 2 2 1 1 357 358 191
232 2 2 1 1 354 405 281
233 2 2 1 1 268 270 269
234 2 2 1 1 279 296 295
235 2 2 1 1 280 331 306
236 2 2 1 1 325 484 387
237 2 2 1 1 272 274 273
238 2 2 1 1 217 378 377
239 2 2 1 1 286 482 360
240 2 2 1 1 88 429 184
241 2 2 1 1 249 400 287
242 2 2 1 1 281 405 273
243 2 2 1 1 192 351 77
244 2 2 1 1 365 410 300
245 2 2 1 1 238 399 245
246 2 2 1 1 286 332 285
247 2 2 1 1 424 473 389
248 2 2 1 1 183 420 413
249 2 2 1 1 169 325 67
250 2 2 1 1 99 188 100
251 2 2 1 1 238 244 237
252 2 2 1 1 312 411 328
253 2 2 1 1 120 357 191
254 2 2 1 1 309 411 312
255 2 2 1 1 116 307 173
256 2 2 1 1 356 359 298
257 2 2 1 1 245 255 244
258 2 2 1 1 265 410 368
259 2 2 1 1 269 300 267
260 2 2 1 1 265 368 263
261 2 2 1 1 270 405 269
262 2 2 1 1 263 290 261
263 2 2 1 1 237 412 220
264 2 2 1 1 280 281 273
265 2 2 1 1 301 364 300
266 2 2 1 1 306 315 281
267 2 2 1 1 97 177 98
268 2 2 1 1 81 187 82
269 2 2 1 1 300 410 267
270 2 2 1 1 370 371 170
271 2 2 1 1 242 361 229
272 2 2 1 1 83 175 84
273 2 2 1 1 288 362 361
274 2 2 1 1 90 166 91
275 2 2 1 1 88 184 89
276 2 2 1 1 92 185 93
277 2 2 1 1 86 168 87
278 2 2 1 1 251 396 293
279 2 2 1 1 94 170 95
280 2 2 1 1 287 396 251
281 2 2 1 1 268 394 271
282 2 2 1 1 197 372 316
283 2 2 1 1 239 243 242
284 2 2 1 1 362 386 363
285 2 2 1 1 333 409 334
286 2 2 1 1 285 332 289
287 2 2 1 1 220 412 222
288 2 2 1 1 274 367 280
289 2 2 1 1 497 502 385
290 2 2 1 1 197 200 198
291 2 2 1 1 243 286 285
292 2 2 1 1 181 409 349
293 2 2 1 1 109 193 171
294 2 2 1 1 319 320 296
295 2 2 1 1 241 433 302
296 2 2 1 1 277 279 276
297 2 2 1 1 193 194 171
298 2 2 1 1 275 276 274
299 2 2 1 1 194 197 196
300 2 2 1 1 271 272 270
301 2 2 1 1 109 171 110
302 2 2 1 1 278 394 266
303 2 2 1 1 68 169 67
304 2 2 1 1 182 488 350
305 2 2 1 1 108 193 109
306 2 2 1 1 389 473 395
307 2 2 1 1 73 341 72
308 2 2 1 1 65 180 64
309 2 2 1 1 222 412 235
310 2 2 1 1 111 181 112
311 2 2 1 1 106 165 107
312 2 2 1 1 104 176 105
313 2 2 1 1 63 167 62
314 2 2 1 1 71 163 70
315 2 2 1 1 113 164 114
316 2 2 1 1 174 341 73
317 2 2 1 1 116 173 117
318 2 2 1 1 61 186 60
319 2 2 1 1 74 174 73
320 2 2 1 1 118 179 119
321 2 2 1 1 308 411 309
322 2 2 1 1 76 182 75
323 2 2 1 1 78 192 77
324 2 2 1 1 102 189 103
325 2 2 1 1 174 343 341
326 2 2 1 1 347 385 69
327 2 2 1 1 115 496 307
328 2 2 1 1 257 425 321
329 2 2 1 1 217 219 218
330 2 2 1 1 120 191 121
331 2 2 1 1 201 231 203
332 2 2 1 1 167 393 62
333 2 2 1 1 205 213 207
334 2 2 1 1 411 472 328
335 2 2 1 1 315 442 355
336 2 2 1 1 219 237 220
337 2 2 1 1 395 441 394
338 2 2 1 1 261 383 259
339 2 2 1 1 209 217 211
340 2 2 1 1 257 321 308
341 2 2 1 1 315 355 354
342 2 2 1 1 61 393 186
343 2 2 1 1 243 416 305
344 2 2 1 1 288 361 242
345 2 2 1 1 402 403 326
346 2 2 1 1 287 444 396
347 2 2 1 1 312 328 327
348 2 2 1 1 273 405 270
349 2 2 1 1 228 229 227
350 2 2 1 1 279 319 296
351 2 2 1 1 255 297 284
352 2 2 1 1 335 483 176
353 2 2 1 1 239 416 243
354 2 2 1 1 222 235 224
355 2 2 1 1 280 367 331
356 2 2 1 1 249 251 250
357 2 2 1 1 306 451 315
358 2 2 1 1 260 291 262
359 2 2 1 1 362 363 361
360 2 2 1 1 230 239 229
361 2 2 1 1 272 275 274
362 2 2 1 1 264 278 266
363 2 2 1 1 268 271 270
364 2 2 1 1 197 198 196
365 2 2 1 1 226 227 215
366 2 2 1 1 62 393 61
367 2 2 1 1 365 468 410
368 2 2 1 1 233 249 248
369 2 2 1 1 272 397 275
370 2 2 1 1 251 293 256
371 2 2 1 1 454 491 316
372 2 2 1 1 59 489 2
373 2 2 1 1 267 410 265
374 2 2 1 1 275 277 276
375 2 2 1 1 103 335 104
376 2 2 1 1 105 376 106
377 2 2 1 1 199 438 408
378 2 2 1 1 279 398 319
379 2 2 1 1 414 415 187
380 2 2 1 1 293 350 294
381 2 2 1 1 77 351 76
382 2 2 1 1 119 357 120
383 2 2 1 1 278 395 394
384 2 2 1 1 169 495 325
385 2 2 1 1 195 408 407
386 2 2 1 1 254 298 252
387 2 2 1 1 231 381 203
388 2 2 1 1 383 384 259
389 2 2 1 1 246 252 240
390 2 2 1 1 112 349 113
391 2 2 1 1 315 354 281
392 2 2 1 1 299 356 298
393 2 2 1 1 325 495 484
394 2 2 1 1 369 469 362
395 2 2 1 1 304 423 247
396 2 2 1 1 247 423 232
397 2 2 1 1 217 218 211
398 2 2 1 1 364 365 300
399 2 2 1 1 219 220 218
400 2 2 1 1 200 424 391
401 2 2 1 1 255 284 244
402 2 2 1 1 290 383 261
403 2 2 1 1 69 385 68
404 2 2 1 1 1 490 102
405 2 2 1 1 275 397 282
406 2 2 1 1 58 190 57
407 2 2 1 1 271 397 272
408 2 2 1 1 52 420 51
409 2 2 1 1 203 381 205
410 2 2 1 1 194 196 195
411 2 2 1 1 347 497 385
412 2 2 1 1 163 347 70
413 2 2 1 1 51 183 50
414 2 2 1 1 56 178 55
415 2 2 1 1 57 418 56
416 2 2 1 1 425 432 321
417 2 2 1 1 226 228 227
418 2 2 1 1 53 172 52
419 2 2 1 1 236 434 433
420 2 2 1 1 99 431 188
421 2 2 1 1 228 230 229
422 2 2 1 1 243 305 286
423 2 2 1 1 249 250 248
424 2 2 1 1 297 338 284
425 2 2 1 1 230 240 239
426 2 2 1 1 252 416 240
427 2 2 1 1 198 201 199
428 2 2 1 1 251 256 250
429 2 2 1 1 282 283 277
430 2 2 1 1 356 486 179
431 2 2 1 1 476 477 336
432 2 2 1 1 176 376 105
433 2 2 1 1 277 398 279
434 2 2 1 1 293 294 256
435 2 2 1 1 194 195 171
436 2 2 1 1 189 335 103
437 2 2 1 1 179 357 119
438 2 2 1 1 76 351 182
439 2 2 1 1 415 453 175
440 2 2 1 1 201 203 202
441 2 2 1 1 246 428 254
442 2 2 1 1 350 352 294
443 2 2 1 1 302 317 314
444 2 2 1 1 241 302 253
445 2 2 1 1 283 398 277
446 2 2 1 1 412 452 235
447 2 2 1 1 203 205 204
448 2 2 1 1 246 254 252
449 2 2 1 1 174 344 343
450 2 2 1 1 51 420 183
451 2 2 1 1 254 299 298
452 2 2 1 1 190 418 57
453 2 2 1 1 205 207 206
454 2 2 1 1 207 209 208
455 2 2 1 1 472 477 328
456 2 2 1 1 209 211 210
457 2 2 1 1 303 304 247
458 2 2 1 1 198 199 196
459 2 2 1 1 214 257 225
460 2 2 1 1 210 425 214
461 2 2 1 1 324 336 304
462 2 2 1 1 257 308 258
463 2 2 1 1 275 282 277
464 2 2 1 1 230 433 241
465 2 2 1 1 232 234 223
466 2 2 1 1 56 418 178
467 2 2 1 1 309 312 311
468 2 2 1 1 282 330 329
469 2 2 1 1 72 345 71
470 2 2 1 1 220 222 221
471 2 2 1 1 312 327 326
472 2 2 1 1 278 467 390
473 2 2 1 1 181 349 112
474 2 2 1 1 210 212 208
475 2 2 1 1 309 310 258
476 2 2 1 1 400 446 287
477 2 2 1 1 176 417 376
478 2 2 1 1 214 215 212
479 2 2 1 1 222 224 223
480 2 2 1 1 172 420 52
481 2 2 1 1 204 216 202
482 2 2 1 1 311 313 310
483 2 2 1 1 282 329 283
484 2 2 1 1 190 419 418
485 2 2 1 1 224 233 232
486 2 2 1 1 303 370 324
487 2 2 1 1 338 340 339
488 2 2 1 1 214 425 257
489 2 2 1 1 225 226 215
490 2 2 1 1 211 425 210
491 2 2 1 1 310 422 258
492 2 2 1 1 233 248 247
493 2 2 1 1 339 426 284
494 2 2 1 1 201 202 199
495 2 2 1 1 284 426 244
496 2 2 1 1 220 221 218
497 2 2 1 1 338 339 284
498 2 2 1 1 169 502 495
499 2 2 1 1 107 374 108
500 2 2 1 1 314 322 253
501 2 2 1 1 241 246 240
502 2 2 1 1 240 416 239
503 2 2 1 1 211 432 425
504 2 2 1 1 230 241 240
505 2 2 1 1 203 204 202
506 2 2 1 1 226 236 228
507 2 2 1 1 302 314 253
508 2 2 1 1 352 353 294
509 2 2 1 1 330 424 329
510 2 2 1 1 205 206 204
511 2 2 1 1 256 292 250
512 2 2 1 1 340 342 339
513 2 2 1 1 207 208 206
514 2 2 1 1 209 210 208
515 2 2 1 1 97 435 177
516 2 2 1 1 254 318 299
517 2 2 1 1 257 258 225
518 2 2 1 1 303 324 304
519 2 2 1 1 318 414 299
520 2 2 1 1 256 430 292
521 2 2 1 1 308 309 258
522 2 2 1 1 237 426 412
523 2 2 1 1 210 214 212
524 2 2 1 1 313 457 310
525 2 2 1 1 312 326 311
526 2 2 1 1 254 428 318
527 2 2 1 1 222 223 221
528 2 2 1 1 118 447 179
529 2 2 1 1 96 435 97
530 2 2 1 1 232 423 234
531 2 2 1 1 309 311 310
532 2 2 1 1 214 225 215
533 2 2 1 1 224 232 223
534 2 2 1 1 233 247 232
535 2 2 1 1 248 303 247
536 2 2 1 1 318 415 414
537 2 2 1 1 313 470 457
538 2 2 1 1 68 385 169
539 2 2 1 1 244 426 237
540 2 2 1 1 302 434 317
541 2 2 1 1 314 323 322
542 2 2 1 1 241 253 246
543 2 2 1 1 321 455 440
544 2 2 1 1 218 432 211
545 2 2 1 1 202 438 199
546 2 2 1 1 287 446 444
547 2 2 1 1 282 397 330
548 2 2 1 1 250 427 248
549 2 2 1 1 187 465 414
550 2 2 1 1 183 445 50
551 2 2 1 1 186 450 60
552 2 2 1 1 321 440 308
553 2 2 1 1 438 475 466
554 2 2 1 1 64 439 63
555 2 2 1 1 253 428 246
556 2 2 1 1 380 485 379
557 2 2 1 1 173 447 117
558 2 2 1 1 303 427 370
559 2 2 1 1 292 427 250
560 2 2 1 1 395 473 441
561 2 2 1 1 385 502 169
562 2 2 1 1 358 436 191
563 2 2 1 1 50 445 49
564 2 2 1 1 101 481 4
565 2 2 1 1 291 467 262
566 2 2 1 1 70 347 69
567 2 2 1 1 347 499 497
568 2 2 1 1 248 427 303
569 2 2 1 1 398 500 319
570 2 2 1 1 308 440 411
571 2 2 1 1 450 506 190
572 2 2 1 1 419 442 418
573 2 2 1 1 407 409 181
574 2 2 1 1 319 500 417
575 2 2 1 1 337 451 306
576 2 2 1 1 431 504 188
577 2 2 1 1 294 430 256
578 2 2 1 1 216 438 202
579 2 2 1 1 343 444 443
580 2 2 1 1 418 442 178
581 2 2 1 1 49 449 48
582 2 2 1 1 264 467 278
583 2 2 1 1 438 466 408
584 2 2 1 1 98 431 99
585 2 2 1 1 397 441 330
586 2 2 1 1 226 422 236
587 2 2 1 1 426 452 412
588 2 2 1 1 445 449 49
589 2 2 1 1 75 401 74
590 2 2 1 1 353 504 431
591 2 2 1 1 339 452 426
592 2 2 1 1 177 431 98
593 2 2 1 1 375 454 373
594 2 2 1 1 175 492 415
595 2 2 1 1 228 433 230
596 2 2 1 1 271 441 397
597 2 2 1 1 322 428 253
598 2 2 1 1 364 487 167
599 2 2 1 1 394 441 271
600 2 2 1 1 4 481 78
601 2 2 1 1 258 422 225
602 2 2 1 1 340 443 342
603 2 2 1 1 234 455 223
604 2 2 1 1 190 506 419
605 2 2 1 1 334 475 369
606 2 2 1 1 71 345 163
607 2 2 1 1 2 489 58
608 2 2 1 1 384 502 497
609 2 2 1 1 221 432 218
610 2 2 1 1 327 476 392
611 2 2 1 1 336 477 304
612 2 2 1 1 382 462 305
613 2 2 1 1 225 422 226
614 2 2 1 1 440 455 234
615 2 2 1 1 84 463 85
616 2 2 1 1 171 406 110
617 2 2 1 1 415 492 187
618 2 2 1 1 191 437 121
619 2 2 1 1 353 430 294
620 2 2 1 1 48 490 1
621 2 2 1 1 320 458 348
622 2 2 1 1 448 506 186
623 2 2 1 1 54 498 53
624 2 2 1 1 328 477 476
625 2 2 1 1 384 497 297
626 2 2 1 1 330 473 424
627 2 2 1 1 456 480 323
628 2 2 1 1 449 458 189
629 2 2 1 1 310 457 422
630 2 2 1 1 414 460 299
631 2 2 1 1 178 479 55
632 2 2 1 1 100 461 101
633 2 2 1 1 409 466 334
634 2 2 1 1 375 500 454
635 2 2 1 1 314 456 323
636 2 2 1 1 83 492 175
637 2 2 1 1 404 470 313
638 2 2 1 1 165 374 107
639 2 2 1 1 187 492 82
640 2 2 1 1 174 401 344
641 2 2 1 1 360 496 164
642 2 2 1 1 323 505 322
643 2 2 1 1 81 501 187
644 2 2 1 1 85 480 86
645 2 2 1 1 432 455 321
646 2 2 1 1 410 468 368
647 2 2 1 1 468 484 368
648 2 2 1 1 342 452 339
649 2 2 1 1 236 433 228
650 2 2 1 1 318 453 415
651 2 2 1 1 175 463 84
652 2 2 1 1 408 466 407
653 2 2 1 1 407 466 409
654 2 2 1 1 164 496 114
655 2 2 1 1 291 485 467
656 2 2 1 1 163 499 347
657 2 2 1 1 117 447 118
658 2 2 1 1 362 469 386
659 2 2 1 1 317 474 456
660 2 2 1 1 188 461 100
661 2 2 1 1 466 475 334
662 2 2 1 1 422 457 236
663 2 2 1 1 401 459 344
664 2 2 1 1 457 470 434
665 2 2 1 1 370 478 371
666 2 2 1 1 168 480 456
667 2 2 1 1 451 479 178
668 2 2 1 1 102 490 189
669 2 2 1 1 195 407 406
670 2 2 1 1 435 471 177
671 2 2 1 1 357 486 358
672 2 2 1 1 262 467 264
673 2 2 1 1 221 455 432
674 2 2 1 1 344 493 396
675 2 2 1 1 317 456 314
676 2 2 1 1 396 493 293
677 2 2 1 1 63 439 167
678 2 2 1 1 236 457 434
679 2 2 1 1 60 450 59
680 2 2 1 1 223 455 221
681 2 2 1 1 463 505 323
682 2 2 1 1 319 483 320
683 2 2 1 1 299 460 356
684 2 2 1 1 293 493 350
685 2 2 1 1 340 494 443
686 2 2 1 1 417 483 319
687 2 2 1 1 358 465 436
688 2 2 1 1 322 453 428
689 2 2 1 1 179 486 357
690 2 2 1 1 75 503 401
691 2 2 1 1 427 478 370
692 2 2 1 1 461 464 192
693 2 2 1 1 368 484 290
694 2 2 1 1 428 453 318
695 2 2 1 1 86 480 168
696 2 2 1 1 182 503 75
697 2 2 1 1 187 501 465
698 2 2 1 1 366 487 364
699 2 2 1 1 351 488 182
700 2 2 1 1 168 474 429
701 2 2 1 1 430 471 292
702 2 2 1 1 188 464 461
703 2 2 1 1 186 506 450
704 2 2 1 1 55 479 54
705 2 2 1 1 329 491 283
706 2 2 1 1 392 507 185
707 2 2 1 1 337 479 451
708 2 2 1 1 190 489 450
709 2 2 1 1 167 487 393
710 2 2 1 1 441 473 330
711 2 2 1 1 350 493 459
712 2 2 1 1 328 476 327
713 2 2 1 1 434 470 317
714 2 2 1 1 471 478 292
715 2 2 1 1 467 485 390
716 2 2 1 1 429 474 404
717 2 2 1 1 305 482 286
718 2 2 1 1 462 482 305
719 2 2 1 1 497 499 297
720 2 2 1 1 423 477 472
721 2 2 1 1 304 477 423
722 2 2 1 1 440 472 411
723 2 2 1 1 417 500 375
724 2 2 1 1 390 485 380
725 2 2 1 1 114 496 115
726 2 2 1 1 176 483 417
727 2 2 1 1 82 492 83
728 2 2 1 1 461 481 101
729 2 2 1 1 484 495 290
730 2 2 1 1 74 401 174
731 2 2 1 1 450 489 59
732 2 2 1 1 80 501 81
733 2 2 1 1 350 488 352
734 2 2 1 1 292 478 427
735 2 2 1 1 290 495 383
736 2 2 1 1 476 507 392
737 2 2 1 1 283 491 454
738 2 2 1 1 383 502 384
739 2 2 1 1 358 486 460
740 2 2 1 1 423 472 234
741 2 2 1 1 216 475 438
742 2 2 1 1 297 499 338
743 2 2 1 1 495 502 383
744 2 2 1 1 195 406 171
745 2 2 1 1 53 498 172
746 2 2 1 1 58 489 190
747 2 2 1 1 78 481 192
748 2 2 1 1 456 474 168
749 2 2 1 1 352 504 353
750 2 2 1 1 189 490 449
751 2 2 1 1 192 481 461
752 2 2 1 1 436 501 80
753 2 2 1 1 436 437 191
754 2 2 1 1 453 505 175
755 2 2 1 1 234 472 440
756 2 2 1 1 449 490 48
757 2 2 1 1 460 486 356
758 2 2 1 1 322 505 453
759 2 2 1 1 188 504 464
760 2 2 1 1 459 493 344
761 2 2 1 1 175 505 463
762 2 2 1 1 465 501 436
763 2 2 1 1 464 504 352
764 2 2 1 1 459 503 182
765 2 2 1 1 401 503 459
766 2 2 1 1 336 507 476
767 2 2 2 215456 41 513 17
768 2 2 2 215456 7 526 47
769 2 2 2 215456 41 17 2
770 2 2 2 215456 47 1 7
771 2 2 2 215456 11 524 10
772 2 2 2 215456 519 522 509
773 2 2 2 215456 47 526 518
774 2 2 2 215456 520 522 519
775 2 2 2 215456 510 524 11
776 2 2 2 215456 524 529 523
777 2 2 2 215456 41 527 513
778 2 2 2 215456 10 524 523
779 2 2 2 215456 17 513 16
780 2 2 2 215456 9 511 8
781 2 2 2 215456 15 509 14
782 2 2 2 215456 12 510 11
783 2 2 2 215456 516 529 524
784 2 2 2 215456 45 508 44
785 2 2 2 215456 44 514 43
786 2 2 2 215456 46 517 45
787 2 2 2 215456 43 512 42
788 2 2 2 215456 47 518 46
789 2 2 2 215456 508 516 515
790 2 2 2 215456 508 514 44
791 2 2 2 215456 45 517 508
792 2 2 2 215456 43 514 512
793 2 2 2 215456 508 515 514
794 2 2 2 215456 46 518 517
795 2 2 2 215456 508 517 516
796 2 2 2 215456 514 519 512
797 2 2 2 215456 515 519 514
798 2 2 2 215456 515 520 519
799 2 2 2 215456 42 527 41
800 2 2 2 215456 509 525 519
801 2 2 2 215456 518 529 517
802 2 2 2 215456 511 529 518
803 2 2 2 215456 513 527 525
804 2 2 2 215456 515 530 520
805 2 2 2 215456 520 530 510
806 2 2 2 215456 513 521 16
807 2 2 2 215456 9 523 511
808 2 2 2 215456 509 522 14
809 2 2 2 215456 523 529 511
810 2 2 2 215456 513 525 521
811 2 2 2 215456 15 521 509
812 2 2 2 215456 14 522 13
813 2 2 2 215456 16 521 15
814 2 2 2 215456 10 523 9
815 2 2 2 215456 511 526 8
816 2 2 2 215456 519 525 512
817 2 2 2 215456 12 528 510
818 2 2 2 215456 518 526 511
819 2 2 2 215456 510 528 520
820 2 2 2 215456 8 526 7
821 2 2 2 215456 13 528 12
822 2 2 2 215456 512 527 42
823 2 2 2 215456 516 530 515
824 2 2 2 215456 517 529 516
825 2 2 2 215456 525 527 512
826 2 2 2 215456 521 525 509
827 2 2 2 215456 520 528 522
828 2 2 2 215456 522 528 13
829 2 2 2 215456 524 530 516
830 2 2 2 215456 510 530 524
831 2 2 3 215457 533 577 544
832 2 2 3 215457 544 576 533
833 2 2 3 215457 545 575 574
834 2 2 3 215457 574 575 534
835 2 2 3 215457 572 573 546
836 2 2 3 215457 543 577 533
837 2 2 3 215457 535 573 572
838 2 2 3 215457 533 578 543
839 2 2 3 215457 551 559 531
840 2 2 3 215457 532 568 550
841 2 2 3 215457 547 571 564
842 2 2 3 215457 549 569 567
843 2 2 3 215457 565 570 548
844 2 2 3 215457 125 558 6
845 2 2 3 215457 531 559 556
846 2 2 3 215457 567 569 536
847 2 2 3 215457 564 571 538
848 2 2 3 215457 537 570 565
849 2 2 3 215457 555 568 532
850 2 2 3 215457 534 575 543
851 2 2 3 215457 560 566 552
852 2 2 3 215457 539 566 560
853 2 2 3 215457 542 562 561
854 2 2 3 215457 561 562 540
855 2 2 3 215457 543 578 534
856 2 2 3 215457 538 571 550
857 2 2 3 215457 550 568 538
858 2 2 3 215457 544 573 535
859 2 2 3 215457 535 576 544
860 2 2 3 215457 537 559 551
861 2 2 3 215457 551 570 537
862 2 2 3 215457 541 563 552
863 2 2 3 215457 552 563 560
864 2 2 3 215457 536 569 545
865 2 2 3 215457 545 574 536
866 2 2 3 215457 546 566 539
867 2 2 3 215457 39 551 531
868 2 2 3 215457 6 558 148
869 2 2 3 215457 539 572 546
870 2 2 3 215457 542 561 547
871 2 2 3 215457 548 563 541
872 2 2 3 215457 540 562 549
873 2 2 3 215457 4 580 124
874 2 2 3 215457 547 564 542
875 2 2 3 215457 541 565 548
876 2 2 3 215457 549 567 540
877 2 2 3 215457 18 532 19
878 2 2 3 215457 39 531 40
879 2 2 3 215457 532 550 19
880 2 2 3 215457 550 571 20
881 2 2 3 215457 19 550 20
882 2 2 3 215457 38 551 39
883 2 2 3 215457 25 536 26
884 2 2 3 215457 141 546 140
885 2 2 3 215457 129 538 128
886 2 2 3 215457 146 537 145
887 2 2 3 215457 21 547 22
888 2 2 3 215457 36 548 37
889 2 2 3 215457 31 535 32
890 2 2 3 215457 33 539 34
891 2 2 3 215457 133 549 132
892 2 2 3 215457 131 542 130
893 2 2 3 215457 135 545 134
894 2 2 3 215457 23 540 24
895 2 2 3 215457 144 541 143
896 2 2 3 215457 27 534 28
897 2 2 3 215457 139 544 138
898 2 2 3 215457 29 533 30
899 2 2 3 215457 137 543 136
900 2 2 3 215457 143 552 142
901 2 2 3 215457 541 552 143
902 2 2 3 215457 538 568 128
903 2 2 3 215457 146 559 537
904 2 2 3 215457 38 570 551
905 2 2 3 215457 123 554 122
906 2 2 3 215457 124 553 125
907 2 2 3 215457 40 580 4
908 2 2 3 215457 543 575 136
909 2 2 3 215457 137 577 543
910 2 2 3 215457 139 573 544
911 2 2 3 215457 544 577 138
912 2 2 3 215457 545 569 134
913 2 2 3 215457 135 575 545
914 2 2 3 215457 546 573 140
915 2 2 3 215457 141 566 546
916 2 2 3 215457 21 571 547
917 2 2 3 215457 548 570 37
918 2 2 3 215457 133 569 549
919 2 2 3 215457 547 561 22
920 2 2 3 215457 549 562 132
921 2 2 3 215457 36 563 548
922 2 2 3 215457 552 566 142
923 2 2 3 215457 131 562 542
924 2 2 3 215457 23 561 540
925 2 2 3 215457 539 560 34
926 2 2 3 215457 542 564 130
927 2 2 3 215457 144 565 541
928 2 2 3 215457 540 567 24
929 2 2 3 215457 531 556 553
930 2 2 3 215457 554 555 532
931 2 2 3 215457 129 564 538
932 2 2 3 215457 537 565 145
933 2 2 3 215457 25 567 536
934 2 2 3 215457 33 572 539
935 2 2 3 215457 535 572 32
936 2 2 3 215457 536 574 26
937 2 2 3 215457 27 574 534
938 2 2 3 215457 31 576 535
939 2 2 3 215457 533 576 30
940 2 2 3 215457 534 578 28
941 2 2 3 215457 29 578 533
942 2 2 3 215457 147 559 146
943 2 2 3 215457 128 568 127
944 2 2 3 215457 3 579 18
945 2 2 3 215457 127 555 126
946 2 2 3 215457 148 556 147
947 2 2 3 215457 34 560 35
948 2 2 3 215457 560 563 35
949 2 2 3 215457 22 561 23
950 2 2 3 215457 132 562 131
951 2 2 3 215457 35 563 36
952 2 2 3 215457 130 564 129
953 2 2 3 215457 145 565 144
954 2 2 3 215457 24 567 25
955 2 2 3 215457 142 566 141
956 2 2 3 215457 32 572 33
957 2 2 3 215457 134 569 133
958 2 2 3 215457 37 570 38
959 2 2 3 215457 20 571 21
960 2 2 3 215457 26 574 27
961 2 2 3 215457 30 576 31
962 2 2 3 215457 140 573 139
963 2 2 3 215457 28 578 29
964 2 2 3 215457 136 575 135
965 2 2 3 215457 138 577 137
966 2 2 3 215457 126 557 5
967 2 2 3 215457 5 557 123
968 2 2 3 215457 532 579 554
969 2 2 3 215457 122 579 3
970 2 2 3 215457 18 579 532
971 2 2 3 215457 553 558 125
972 2 2 3 215457 554 557 555
973 2 2 3 215457 556 559 147
974 2 2 3 215457 127 568 555
975 2 2 3 215457 531 580 40
976 2 2 3 215457 123 557 554
977 2 2 3 215457 124 580 553
978 2 2 3 215457 553 580 531
979 2 2 3 215457 554 579 122
980 2 2 3 215457 555 557 126
981 2 2 3 215457 556 558 553
982 2 2 3 215457 148 558 556
983 2 2 4 215478 135 655 134
984 2 2 4 215478 619 659 630
985 2 2 4 215478 130 658 129
986 2 2 4 215478 630 659 591
987 2 2 4 215478 629 630 591
988 2 2 4 215478 624 626 593
989 2 2 4 215478 591 654 629
990 2 2 4 215478 592 655 135
991 2 2 4 215478 134 655 582
992 2 2 4 215478 626 660 593
993 2 2 4 215478 629 664 594
994 2 2 4 215478 654 664 629
995 2 2 4 215478 626 663 595
996 2 2 4 215478 586 658 130
997 2 2 4 215478 129 658 593
998 2 2 4 215478 595 660 626
999 2 2 4 215478 637 662 652
1000 2 2 4 215478 587 659 619
1001 2 2 4 215478 586 633 625
1002 2 2 4 215478 590 626 623
1003 2 2 4 215478 623 627 590
1004 2 2 4 215478 652 662 581
1005 2 2 4 215478 588 627 621
1006 2 2 4 215478 631 648 584
1007 2 2 4 215478 619 646 587
1008 2 2 4 215478 621 627 623
1009 2 2 4 215478 620 631 588
1010 2 2 4 215478 588 621 620
1011 2 2 4 215478 605 642 641
1012 2 2 4 215478 641 642 638
1013 2 2 4 215478 640 644 641
1014 2 2 4 215478 620 648 631
1015 2 2 4 215478 643 644 640
1016 2 2 4 215478 655 666 634
1017 2 2 4 215478 641 644 605
1018 2 2 4 215478 638 642 583
1019 2 2 4 215478 583 645 628
1020 2 2 4 215478 636 653 651
1021 2 2 4 215478 583 628 153
1022 2 2 4 215478 593 658 624
1023 2 2 4 215478 160 627 159
1024 2 2 4 215478 590 627 160
1025 2 2 4 215478 589 597 596
1026 2 2 4 215478 153 628 152
1027 2 2 4 215478 625 633 632
1028 2 2 4 215478 159 627 588
1029 2 2 4 215478 642 645 583
1030 2 2 4 215478 613 632 616
1031 2 2 4 215478 596 629 594
1032 2 2 4 215478 589 596 151
1033 2 2 4 215478 590 663 626
1034 2 2 4 215478 597 630 629
1035 2 2 4 215478 617 637 608
1036 2 2 4 215478 615 632 613
1037 2 2 4 215478 597 629 596
1038 2 2 4 215478 632 633 616
1039 2 2 4 215478 602 635 618
1040 2 2 4 215478 584 640 639
1041 2 2 4 215478 150 594 149
1042 2 2 4 215478 150 596 594
1043 2 2 4 215478 588 631 158
1044 2 2 4 215478 598 599 597
1045 2 2 4 215478 610 634 617
1046 2 2 4 215478 584 639 156
1047 2 2 4 215478 624 625 622
1048 2 2 4 215478 589 598 597
1049 2 2 4 215478 601 619 599
1050 2 2 4 215478 154 638 583
1051 2 2 4 215478 639 641 638
1052 2 2 4 215478 161 590 160
1053 2 2 4 215478 600 601 599
1054 2 2 4 215478 607 636 635
1055 2 2 4 215478 608 637 607
1056 2 2 4 215478 623 624 622
1057 2 2 4 215478 622 632 615
1058 2 2 4 215478 640 641 639
1059 2 2 4 215478 604 635 602
1060 2 2 4 215478 152 628 589
1061 2 2 4 215478 602 618 601
1062 2 2 4 215478 612 634 610
1063 2 2 4 215478 610 617 608
1064 2 2 4 215478 607 635 604
1065 2 2 4 215478 606 607 604
1066 2 2 4 215478 152 589 151
1067 2 2 4 215478 157 631 584
1068 2 2 4 215478 607 637 636
1069 2 2 4 215478 155 639 638
1070 2 2 4 215478 599 630 597
1071 2 2 4 215478 606 608 607
1072 2 2 4 215478 159 588 158
1073 2 2 4 215478 598 600 599
1074 2 2 4 215478 621 622 615
1075 2 2 4 215478 623 626 624
1076 2 2 4 215478 154 583 153
1077 2 2 4 215478 151 596 150
1078 2 2 4 215478 155 638 154
1079 2 2 4 215478 157 584 156
1080 2 2 4 215478 600 602 601
1081 2 2 4 215478 613 616 612
1082 2 2 4 215478 619 630 599
1083 2 2 4 215478 584 648 640
1084 2 2 4 215478 625 632 622
1085 2 2 4 215478 158 631 157
1086 2 2 4 215478 156 639 155
1087 2 2 4 215478 611 612 610
1088 2 2 4 215478 609 610 608
1089 2 2 4 215478 621 623 622
1090 2 2 4 215478 605 606 604
1091 2 2 4 215478 603 604 602
1092 2 2 4 215478 611 613 612
1093 2 2 4 215478 606 609 608
1094 2 2 4 215478 609 611 610
1095 2 2 4 215478 616 650 649
1096 2 2 4 215478 601 646 619
1097 2 2 4 215478 589 628 598
1098 2 2 4 215478 136 592 135
1099 2 2 4 215478 603 605 604
1100 2 2 4 215478 600 603 602
1101 2 2 4 215478 141 585 140
1102 2 2 4 215478 138 581 137
1103 2 2 4 215478 134 582 133
1104 2 2 4 215478 144 587 143
1105 2 2 4 215478 614 615 613
1106 2 2 4 215478 620 621 615
1107 2 2 4 215478 146 591 145
1108 2 2 4 215478 131 586 130
1109 2 2 4 215478 605 644 606
1110 2 2 4 215478 611 614 613
1111 2 2 4 215478 603 642 605
1112 2 2 4 215478 129 593 128
1113 2 2 4 215478 614 620 615
1114 2 2 4 215478 628 645 598
1115 2 2 4 215478 127 595 126
1116 2 2 4 215478 598 645 600
1117 2 2 4 215478 609 643 611
1118 2 2 4 215478 606 644 609
1119 2 2 4 215478 600 645 603
1120 2 2 4 215478 611 643 614
1121 2 2 4 215478 603 645 642
1122 2 2 4 215478 618 647 646
1123 2 2 4 215478 609 644 643
1124 2 2 4 215478 647 651 585
1125 2 2 4 215478 618 646 601
1126 2 2 4 215478 616 649 612
1127 2 2 4 215478 651 653 585
1128 2 2 4 215478 649 650 582
1129 2 2 4 215478 640 648 643
1130 2 2 4 215478 643 648 614
1131 2 2 4 215478 636 651 635
1132 2 2 4 215478 618 651 647
1133 2 2 4 215478 592 666 655
1134 2 2 4 215478 614 648 620
1135 2 2 4 215478 612 649 634
1136 2 2 4 215478 617 662 637
1137 2 2 4 215478 586 656 633
1138 2 2 4 215478 633 650 616
1139 2 2 4 215478 624 658 625
1140 2 2 4 215478 649 655 634
1141 2 2 4 215478 635 651 618
1142 2 2 4 215478 147 654 146
1143 2 2 4 215478 146 654 591
1144 2 2 4 215478 633 656 650
1145 2 2 4 215478 625 658 586
1146 2 2 4 215478 662 666 661
1147 2 2 4 215478 162 663 161
1148 2 2 4 215478 661 666 592
1149 2 2 4 215478 637 652 636
1150 2 2 4 215478 652 653 636
1151 2 2 4 215478 132 656 131
1152 2 2 4 215478 647 657 646
1153 2 2 4 215478 131 656 586
1154 2 2 4 215478 143 657 142
1155 2 2 4 215478 587 657 143
1156 2 2 4 215478 582 655 649
1157 2 2 4 215478 646 657 587
1158 2 2 4 215478 145 659 144
1159 2 2 4 215478 144 659 587
1160 2 2 4 215478 652 665 653
1161 2 2 4 215478 591 659 145
1162 2 2 4 215478 128 660 127
1163 2 2 4 215478 137 661 136
1164 2 2 4 215478 136 661 592
1165 2 2 4 215478 581 661 137
1166 2 2 4 215478 593 660 128
1167 2 2 4 215478 127 660 595
1168 2 2 4 215478 162 669 663
1169 2 2 4 215478 585 668 647
1170 2 2 4 215478 138 665 581
1171 2 2 4 215478 656 667 650
1172 2 2 4 215478 5 669 162
1173 2 2 4 215478 582 667 133
1174 2 2 4 215478 126 669 5
1175 2 2 4 215478 141 668 585
1176 2 2 4 215478 585 671 140
1177 2 2 4 215478 149 670 6
1178 2 2 4 215478 161 663 590
1179 2 2 4 215478 6 670 148
1180 2 2 4 215478 148 664 147
1181 2 2 4 215478 650 667 582
1182 2 2 4 215478 139 665 138
1183 2 2 4 215478 665 671 653
1184 2 2 4 215478 581 665 652
1185 2 2 4 215478 653 671 585
1186 2 2 4 215478 634 666 617
1187 2 2 4 215478 581 662 661
1188 2 2 4 215478 594 670 149
1189 2 2 4 215478 147 664 654
1190 2 2 4 215478 647 668 657
1191 2 2 4 215478 133 667 132
1192 2 2 4 215478 663 669 595
1193 2 2 4 215478 132 667 656
1194 2 2 4 215478 142 668 141
1195 2 2 4 215478 657 668 142
1196 2 2 4 215478 140 671 139
1197 2 2 4 215478 595 669 126
1198 2 2 4 215478 617 666 662
1199 2 2 4 215478 139 671 665
1200 2 2 4 215478 664 670 594
1201 2 2 4 215478 148 670 664
$EndElements
