$MeshFormat
2.2 0 8
$EndMeshFormat
$PhysicalNames
4
2 1 "horn_surface"
2 2 "throat_cap"
2 3 "interface_wall"
2 4 "interface_face"
$EndPhysicalNames
$Nodes
401
1 15 0 -100
2 0 15 -100
3 60 0 6
4 0 60 0
5 60 0 20
6 0 60 20
7 0 0 -100
8 0 0 20
9 14.27558732942145 3.810753992184586 -100
10 12.81224245798759 7.394032545123743 -100
11 10.48613150000002 10.48613149999998 -100
12 7.394032545123805 12.81224245798756 -100
13 3.810753992184612 14.27558732942144 -100
14 58.79912133897325 7.669251271432188 20
15 57.10235027915322 15.24301615703559 20
16 54.65431114067894 22.60540021036233 20
17 51.24896990769337 29.57613000178032 20
18 47.02828748427122 36.08588259281174 20
19 41.94452533333326 41.9445253333334 20
20 36.08588259281158 47.02828748427135 20
21 29.57613000178016 51.24896990769346 20
22 22.60540021036225 54.65431114067897 20
23 15.24301615703555 57.10235027915323 20
24 7.669251271432231 58.79912133897325 20
25 0 11.25 -100
26 0 7.5 -100
27 0 3.75 -100
28 3.75 0 -100
29 7.5 0 -100
30 11.25 0 -100
31 0 52.5 20
32 0 45 20
33 0 37.5 20
34 0 30 20
35 0 22.5 20
36 0 15 20
37 0 7.5 20
38 7.5 0 20
39 15 0 20
40 22.5 0 20
41 30 0 20
42 37.5 0 20
43 45 0 20
44 52.5 0 20
45 14.27558732942145 3.810753992184586 -100
46 12.81224245798759 7.394032545123743 -100
47 10.48613150000002 10.48613149999998 -100
48 7.394032545123805 12.81224245798756 -100
49 3.810753992184612 14.27558732942144 -100
50 0 16.30544684501638 -96.35074625265736
51 0 17.67815672962378 -92.58201283171995
52 0 19.12211318678849 -88.69019374299523
53 0 20.64155956191796 -84.67161636892229
54 0 22.24101682445241 -80.52254503443561
55 0 23.92530082586743 -76.23918968675716
56 0 25.69954329347677 -71.81770872743331
57 0 27.5692119375395 -67.25421829610656
58 0 29.54013143090634 -62.54480330867485
59 0 31.61850715083839 -57.68552594836683
60 0 33.81094862036745 -52.6724392628991
61 0 36.1244949625311 -47.50160035977488
62 0 38.56663761074154 -42.16909387825103
63 0 41.14535395323448 -36.67103560106355
64 0 43.86912702454903 -31.00361093324643
65 0 46.7469783411492 -25.16308854956794
66 0 49.78849498862932 -19.14585042942691
67 0 53.00385983691773 -12.9484189205365
68 0 56.40387629503271 -6.567497422704497
69 58.79641861933014 7.683830772671175 5.767374595416762
70 57.09542006026282 15.26868585225698 5.448996615713903
71 54.64219615089009 22.63520070603563 5.005695095917519
72 51.23512418695417 29.60061018700729 4.417101711260701
73 47.01831375857564 36.09921744336656 3.73700452013461
74 41.94452533333322 41.94452533333344 2.999999999999984
75 36.09921744336633 47.01831375857582 2.262995479865363
76 29.60061018700704 51.23512418695432 1.582898288739275
77 22.63520070603542 54.64219615089019 0.994304904082466
78 15.2686858522568 57.09542006026288 0.551003384286088
79 7.683830772671026 58.79641861933016 0.2326254045832332
80 16.33923753967825 0 -96.17059150497172
81 17.74606013535635 0 -92.21124919080823
82 19.22416255322143 0 -88.11806288117387
83 20.77744406301789 0 -83.88705410817178
84 22.41002000906606 0 -79.51417566644841
85 24.12623224776737 0 -74.99531578810655
86 25.93065886001779 0 -70.32630541431007
87 27.82812747565335 0 -65.50291728301156
88 29.8237235376123 0 -60.52087931185485
89 31.92280388258875 0 -55.37587533471765
90 34.13100757859502 0 -50.06355395790966
91 36.45426768170215 0 -44.57953596699375
92 38.89881982926276 0 -38.9194298023826
93 41.47121909323725 0 -33.07882829289225
94 44.17834723443964 0 -27.05332846366995
95 47.02742285202391 0 -20.8385443065819
96 50.02601393125319 0 -14.43011435715176
97 53.1820487676531 0 -7.823713038418335
98 56.50382016086289 0 -1.015075522708459
99 58.79641861933014 7.683830772671175 5.767374595416762
100 57.09542006026282 15.26868585225698 5.448996615713903
101 54.64219615089009 22.63520070603563 5.005695095917519
102 51.23512418695417 29.60061018700729 4.417101711260701
103 47.01831375857564 36.09921744336656 3.73700452013461
104 41.94452533333322 41.94452533333344 2.999999999999984
105 36.09921744336633 47.01831375857582 2.262995479865363
106 29.60061018700704 51.23512418695432 1.582898288739275
107 22.63520070603542 54.64219615089019 0.994304904082466
108 15.2686858522568 57.09542006026288 0.551003384286088
109 7.683830772671026 58.79641861933016 0.2326254045832332
110 0 60 6.666619470448588
111 0 60 13.33327598775826
112 58.79912133897325 7.669251271432188 20
113 57.10235027915322 15.24301615703559 20
114 54.65431114067894 22.60540021036233 20
115 51.24896990769337 29.57613000178032 20
116 47.02828748427122 36.08588259281174 20
117 41.94452533333326 41.9445253333334 20
118 36.08588259281158 47.02828748427135 20
119 29.57613000178016 51.24896990769346 20
120 22.60540021036225 54.65431114067897 20
121 15.24301615703555 57.10235027915323 20
122 7.669251271432231 58.79912133897325 20
123 60 0 13.00008280666557
124 42.13743401237256 5.57312297111986 -29.75726711224459
125 37.02768132301444 5.190594679653431 -41.43136801454856
126 5.291030592286119 41.86863944015055 -33.31938252732265
127 4.60366382865433 32.06620050558506 -54.89535329473397
128 4.93563035213119 36.66174463969028 -44.52217544013468
129 4.294530895445903 27.93900222577471 -64.64184930083174
130 37.53966491846478 41.72719561964781 -3.442211208384662
131 32.38616685256112 4.847844015191589 -52.45337496949104
132 4.445585478022428 24.15833891187263 -73.73093898873685
133 28.23509416521391 4.436129059943091 -62.7365673005228
134 3.73829009037398 20.88341733754959 -82.38202279602528
135 24.43183256221024 4.21227570432041 -72.43023832288404
136 47.72771956601957 6.87792248771691 -17.15646281693498
137 5.675122918113098 47.50659927774598 -21.76973948749367
138 21.45000131791546 3.798412327339759 -80.40995790919615
139 9.677292863780476 12.62916124197023 -96.88149527478217
140 47.28043221260994 31.29420760177481 -0.8484675049096024
141 24.88621600486673 50.1420026982964 -4.723022127832779
142 18.00380793831166 3.403671566536195 -89.90259647726796
143 53.24442449687114 18.64730303823377 -0.216446863652136
144 3.419285568660664 17.90628410453139 -90.37342608095838
145 5.808999889141598 53.95706891916272 -9.325211476149157
146 14.84222448384852 6.158927534694276 -96.29133048349971
147 6.097911370854124 14.96713739946846 -96.08549380672929
148 8.99058207508255 14.52293106089613 -93.53078220708267
149 11.82174104078799 12.42528153487729 -93.40816063066784
150 10.47558972922341 15.16134737118797 -89.82621507500302
151 13.8878358982228 12.1712301495246 -89.72732485879231
152 19.1248956292016 3.411071201549158 -86.84465591762222
153 13.1979473085505 14.70751975801389 -86.22456007298085
154 3.538936019060241 19.38021686631675 -86.40148186905789
155 19.31667965391387 7.269010959914258 -83.50565174130686
156 7.113720512487648 19.25060127993298 -84.12863984069548
157 7.392034727925222 20.8105077599512 -80.00562553016195
158 10.71882729823301 18.59453237711087 -81.61696147622045
159 10.96462484360565 20.30985735021034 -77.3848333658016
160 14.26698672087537 17.53708037962643 -78.64904692526662
161 14.4289124000297 19.42152544162234 -74.52927327243354
162 17.45378006556295 16.08425299454115 -75.63885131767297
163 17.71494139964971 18.29012824452122 -71.24220239442764
164 22.85763496524957 3.869375034200162 -76.67833305588528
165 14.49449820923322 21.45376349507323 -70.20617810359786
166 18.01499904958219 20.32875914912544 -66.99531282933216
167 4.057721369041247 26.00182264668932 -69.41365097055204
168 20.9293455128058 16.33210770402524 -68.3244237637378
169 21.35849819311738 18.77563379660911 -63.68681975392238
170 18.18354520355833 22.56206008896949 -62.54269005600037
171 21.75837238342132 21.12918211732383 -59.12331949423223
172 4.453841103116764 29.96038127975027 -59.8115216800807
173 18.34846034569822 24.8871148849554 -57.86221210792858
174 22.38315079033725 23.49666974823657 -54.09397010196025
175 18.37655047175847 27.36620785387277 -53.03815283786918
176 22.57426150730065 26.06313402591073 -49.40783903205296
177 25.97486754183824 21.78847731057588 -50.45391842409778
178 26.47388983501285 24.41736677089457 -45.64796810409974
179 22.84937821771567 28.72693809338236 -44.35695587493539
180 26.95020448769643 27.13493669393327 -40.67333730345719
181 23.12907511136645 31.40269922716791 -39.2523346394841
182 27.53954937708728 30.03093587686967 -35.20547860898121
183 23.43565392768805 34.22458120867608 -33.85924838658629
184 28.07650268456643 32.90876467863572 -29.83872779691155
185 31.84776794271362 28.02666959354593 -31.22064152715063
186 5.046557948860935 39.22265856591586 -38.97078987473199
187 32.56241646481606 31.13119059728181 -25.6976831523099
188 28.5109154448005 35.98165834380276 -24.30430996278152
189 34.66001062997714 5.024647081892594 -46.99726771943231
190 36.02017900909374 25.73984563649243 -26.79850783018418
191 44.88913458080631 5.98857943276383 -23.57548142015239
192 30.09753273782205 22.42192640891392 -41.87370251560523
193 39.58346635788016 5.35043713999049 -35.54739240736101
194 36.90442415782171 29.079837698318 -21.2073797400939
195 4.72562649249006 34.34771564047256 -49.70512927469066
196 26.31998866261291 4.298221803331286 -67.58763461742639
197 40.0852901640709 23.21155113392791 -21.95794079128447
198 24.68701937659859 16.80124877678355 -59.92505087846436
199 30.23336895744491 4.53193829101757 -57.78588992510041
200 9.418704001480011 34.58954469493888 -46.70109775097302
201 40.0138423627683 10.62933777471301 -32.09603661014972
202 32.48141307847183 9.761971929820822 -49.55454729569204
203 18.50385308741516 35.30451511216827 -37.55513038875999
204 19.29118474304492 37.83160587812528 -31.95218085781817
205 5.410494558027571 44.68098617300027 -27.51516314558816
206 11.13404267822495 45.05870568001987 -24.11338928158125
207 41.04050696868957 26.77884769447164 -16.50786117798684
208 43.82785581280918 20.56869436920383 -17.19514715867511
209 37.63918667286069 32.9525845637646 -15.10467872269967
210 8.382409502860085 28.07938351684793 -61.90954517344219
211 11.23209374822723 48.09000163578517 -18.1614055741038
212 16.81674898509661 45.03826824044395 -20.53711119350321
213 34.96989076325099 22.49317613262792 -32.49831064825163
214 36.93939732591959 11.06035414397552 -38.62876667496312
215 26.3515620218762 8.546096663131202 -64.90565356052974
216 22.61686743065323 8.160229145517956 -74.38585769093038
217 16.89736903299947 48.20478269544613 -14.57163061697567
218 22.37914304135113 44.62017488016992 -16.56666927567594
219 38.69209550771185 19.95969210707379 -27.85047364663372
220 42.61676089373827 10.93638301317407 -26.27902654836674
221 16.94337619368392 14.16763411872475 -79.92124484833192
222 45.15343612849141 24.25557668060402 -11.4114560650359
223 47.55685510687607 17.81489803869224 -11.91052392126883
224 50.9072618848755 5.813915254493045 -10.85614855948118
225 14.3110284866029 28.17078558075514 -56.33831804949125
226 10.46269473522071 39.46250178148035 -35.77456941016471
227 20.9320610563404 7.785584339314237 -78.93071494702194
228 9.05052882112553 32.356257964311 -51.81552792130738
229 13.98871225111976 32.2946720488499 -48.07260413580423
230 7.923747008929794 24.67878572056426 -70.20337919986
231 3.232122663322964 16.59124890644325 -94.02896333850549
232 55.06131754149288 8.219166067073299 -1.503281099967522
233 18.56995632590682 32.48458384831261 -42.8940416055561
234 9.716709854682211 36.98128455253587 -41.40279864266898
235 15.61470861912986 11.9039268961399 -86.4692600407671
236 14.48244684475849 9.385051578693229 -92.98379708941916
237 16.47326093589042 3.66182823311442 -93.95970264785775
238 16.31453639711661 8.941488657082727 -89.16606422056354
239 22.50182226128336 41.34687241469798 -22.23713829665727
240 6.773419156393573 17.83166056789781 -88.02436892047567
241 27.81205825222191 40.35838840625203 -18.03531594718361
242 28.01999652320036 43.89785767200385 -11.95744041703522
243 32.65600825703518 39.10398549521548 -13.86862163918994
244 46.17381369114241 14.26712682942029 -16.93511536968413
245 34.66983608221443 10.20598597946105 -44.2607179638608
246 31.70163818948856 14.85597398667265 -47.20534825846502
247 29.72681273810268 14.16043560455173 -52.18128335811694
248 14.56358350542386 25.84254223582381 -60.91484010480207
249 12.67997519020695 9.701615973003616 -96.70621424493481
250 20.04841653940165 11.91816644141023 -76.43850564200677
251 22.02525748935217 12.30591114782233 -71.43508414969826
252 24.41054407375274 8.42924945428687 -69.73223690500602
253 23.99369526930148 12.33693187306919 -66.9184629578903
254 37.1469946747447 16.29097991278161 -34.32854771478908
255 34.91205392506971 15.97195482088643 -39.30784795194294
256 42.64474734596634 16.59366882422079 -22.69229902634999
257 45.00243068801272 10.83951005310231 -21.22967398693332
258 30.3231182347054 9.255787492956841 -54.91909519449566
259 49.09757323241109 21.60746588218345 -6.189897333010812
260 9.196755552753725 30.12323737190727 -56.69047153936961
261 10.53989568684001 42.27305655170589 -29.99266689976004
262 16.79490560265905 41.58280898384955 -27.11785668372655
263 8.094976683524541 26.18960122181738 -66.50693876895826
264 28.37585552058622 8.646802219286043 -59.95543374165738
265 27.90015800069898 13.16667660656476 -57.219677848193
266 26.26984967142961 18.24402157447359 -54.78800898110319
267 14.63136615930994 23.62830906115169 -65.46826366399544
268 22.57395155281659 47.85909545997887 -10.71454574186125
269 17.45389983377888 51.39318451502896 -8.371460548235342
270 31.21225398297227 45.71552789966611 -5.447759029059849
271 26.07245373773742 12.37713614249132 -62.14709976313144
272 13.77787896228806 15.85516113657674 -82.8815015132799
273 5.696806596311978 50.68493047810654 -15.57291152164276
274 11.38717028298661 51.33780653177288 -11.91259206237233
275 3.870078192385725 22.51188612340342 -78.15623377456005
276 7.387197492847166 22.00676942805217 -77.07221513776825
277 29.28345593857674 19.88003860058504 -46.67042444097151
278 18.57230508454325 29.71100889741188 -48.24770772990207
279 23.80634156885817 37.07867037220472 -28.36761211672971
280 10.85241548872528 22.22375027819212 -73.16658168207023
281 32.96218540476088 34.86043348056566 -19.72417754411349
282 38.67093084461082 36.76796877481281 -8.530568923430849
283 41.8843738358968 31.13292605065687 -10.26085287601129
284 46.28096934463191 27.92849544935861 -5.903614783221277
285 30.70025830673296 25.44892677780339 -36.74637365250337
286 33.53582222961618 20.08717345496305 -37.97189606697139
287 42.81935855976025 36.97764232006648 -1.902871740675596
288 51.20032501022813 15.38057496692205 -6.105442701586922
289 11.53423093380906 54.98945460913468 -5.08219124309525
290 10.26081499041493 17.16122337704136 -85.53607805361997
291 50.6190583938798 25.13051943263149 -0.5470437652626881
292 14.13336369383455 34.78306049826948 -42.8112225624986
293 49.26912765679941 11.66345799364167 -11.9085726761618
294 19.01997283097485 10.92662990801415 -80.10497980226482
295 11.48358524095078 23.90013324005434 -68.68284266536784
296 13.69525589305852 37.22201477752452 -38.18805330141252
297 16.33486908560086 6.479862744337456 -92.00953545047993
298 6.50027409121278 16.47196724522187 -91.76826848397781
299 34.28123300228733 41.11696217371006 -8.700455261525768
300 4.924151343415135 56.94254195315396 -4.100006806217013
301 15.49376474841763 3.002128764502769 -97.11811027215967
302 2.85002714136226 15.53754684904843 -97.14501378774673
303 40.40494064179443 14.92975895278035 -28.54461378680752
304 17.94129450034214 6.520483033926435 -87.75566221206041
305 17.33172532930223 9.202853490778622 -86.34596370169056
306 11.55666933958922 26.10411260656515 -63.69947264666788
307 16.62477922592493 12.44309201150378 -83.39205080855606
308 18.5211674812417 53.83829929964823 -3.30578086325523
309 14.77403625109473 39.3054199741574 -33.16551707931827
310 52.50794356104831 9.689285546514855 -6.124562604760662
311 23.67953651421941 15.51487547941668 -63.73101017187692
312 19.61962021834093 15.35995107527242 -72.48862852403769
313 13.64739817583916 30.38687460055164 -52.38326636567189
314 11.71590394396902 27.94328026493767 -59.48633347451425
315 32.09219575966889 18.00363777147511 -43.15725167033437
316 28.27425827545751 18.16604484695558 -50.80625994206297
317 26.75786680972301 46.93546751497718 -8.269216777229067
318 54.24301662844817 4.699718040683821 -4.334743577277893
319 33.71838617713492 14.49539201632904 -43.1733686424673
320 43.53789727986127 32.79382471511106 -5.609917958296892
321 55.18512403658907 13.18386218540991 0.7400274840426792
322 57.09241476684853 4.443349998917631 1.361091028667971
323 11.88984831325951 57.93272162773962 7.237872052559595
324 18.39576879493551 56.17532429446521 7.015615313663552
325 26.41707419822962 52.93219840894656 14.0309629536543
326 38.62851338202713 45.00338478628903 9.489602706134431
327 43.94421286165405 39.83995544442509 13.24915188879488
328 52.89987327043605 26.48187218023632 11.98378660353809
329 56.03238053923431 18.83681247550301 13.1015234115583
330 32.42132446308086 49.54795825462691 8.630105992887993
331 48.87803020777826 33.45615699189354 11.20252784872961
332 57.84671020709648 12.26501058350417 13.04776878789324
333 19.20229892769073 55.91122615179082 13.42888279576881
334 10.81383803826902 58.17070469969696 15.24299685740673
335 25.37487079216514 53.43818203625322 7.840530497223494
336 5.710002739992763 59.14623462485881 9.999947729103676
337 33.33093707907395 48.9607068139254 14.63130240810328
338 59.15163049925915 5.678113283034916 11.60928905402939
339 39.10727560863396 44.59251186021062 15.18656776271419
340 5.175527726929705 59.23564813633209 15.3057499885111
341 5.721966167765046 59.14420832760833 5.370604975955686
342 44.32490463216819 39.41299962894971 7.548108306649122
343 59.51292699959202 3.431382503203159 16.51019766934624
344 3.046758480248507 5.512807550845991 -100
345 9.069276192329623 6.533199743978873 -100
346 4.527765031661655 10.54820276423384 -100
347 9.058795765296642 2.901966675363554 -100
348 5.873614180953036 3.527294484411236 -100
349 7.484496713905658 9.475534671701439 -100
350 5.582800645069701 7.224825375246708 -100
351 2.74519052838329 2.745190528383291 -100
352 11.29318034900706 4.127990591330152 -100
353 2.624946898495363 8.296541395364315 -100
354 26.23840669976072 6.53646356242448 20
355 34.45329791324227 39.73204372459957 20
356 6.498319209796481 26.25249093652052 20
357 47.52288499456927 23.05710634247113 20
358 6.322209002797088 40.96317376694167 20
359 23.14165308975112 46.91481144190131 20
360 40.0895723342972 6.818209585156325 20
361 6.334318763354499 11.50893393805459 20
362 52.07750988907969 10.4087556463339 20
363 10.59464227453023 52.02968796161264 20
364 6.486104801292033 18.77974644814519 20
365 13.03331195060689 22.49463453361046 20
366 13.0140170184829 30.04101077887387 20
367 19.57342640592467 26.27483502399623 20
368 19.58441295099241 18.70147455093259 20
369 26.14104965444011 22.49227833838136 20
370 19.52694843105896 33.76226280843841 20
371 26.16313817319707 14.72441749668577 20
372 32.71788122370106 18.66076359326437 20
373 32.64132674888874 26.15692000131384 20
374 19.45938313648788 11.20636220525387 20
375 33.04420886312753 11.04944492339318 20
376 39.11353935134886 14.76199265885626 20
377 12.97535624482443 15.0145534055436 20
378 12.21563417163334 6.883260807934018 20
379 6.477214037905334 33.71772066106963 20
380 26.04004169997629 29.90742553578517 20
381 26.27139582058547 38.17705557677439 20
382 40.14057817787607 22.78715595773828 20
383 38.01014355115394 29.43768766020766 20
384 12.93701237556649 37.41822375272335 20
385 11.96082899856432 44.82059909015634 20
386 19.06172378394699 41.20265314289853 20
387 50.14462209158393 16.80999901057717 20
388 17.10121075236508 49.45406884273351 20
389 29.90567188363412 44.62023362704802 20
390 32.44863368513979 33.14564111460177 20
391 45.39436399579134 11.95614372800641 20
392 18.98763200112599 4.935896667921615 20
393 33.75 4.790875768253521 20
394 48.17124951606613 5.7334135615836 20
395 5.682508780982761 48.21325194932319 20
396 39.8250462658529 35.87972665764347 20
397 44.59244796464462 29.21121679468797 20
398 5.490381056766587 5.490381056766587 20
399 44.46319772223389 17.87447953952985 20
400 54.09124230273702 5.051523899022786 20
401 5.061362226107015 54.09081814135146 20
$EndNodes
$Elements
677
1 2 2 1 1 305 307 155
2 2 2 1 1 147 298 148
3 2 2 1 1 231 298 147
4 2 2 1 1 174 266 171
5 2 2 1 1 262 279 204
6 2 2 1 1 239 279 262
7 2 2 1 1 75 270 76
8 2 2 1 1 171 266 198
9 2 2 1 1 175 313 278
10 2 2 1 1 278 313 229
11 2 2 1 1 236 297 146
12 2 2 1 1 146 249 236
13 2 2 1 1 233 278 229
14 2 2 1 1 188 279 239
15 2 2 1 1 239 241 188
16 2 2 1 1 229 292 233
17 2 2 1 1 243 281 241
18 2 2 1 1 146 297 237
19 2 2 1 1 241 281 188
20 2 2 1 1 240 290 150
21 2 2 1 1 219 254 213
22 2 2 1 1 130 270 75
23 2 2 1 1 76 270 141
24 2 2 1 1 268 269 141
25 2 2 1 1 209 281 243
26 2 2 1 1 233 292 203
27 2 2 1 1 236 249 149
28 2 2 1 1 150 298 240
29 2 2 1 1 125 245 214
30 2 2 1 1 272 290 158
31 2 2 1 1 243 282 209
32 2 2 1 1 292 296 203
33 2 2 1 1 288 321 310
34 2 2 1 1 177 266 174
35 2 2 1 1 269 308 141
36 2 2 1 1 149 249 139
37 2 2 1 1 296 309 203
38 2 2 1 1 274 289 269
39 2 2 1 1 219 303 254
40 2 2 1 1 130 287 282
41 2 2 1 1 168 253 251
42 2 2 1 1 145 289 274
43 2 2 1 1 254 286 213
44 2 2 1 1 245 319 214
45 2 2 1 1 196 252 215
46 2 2 1 1 125 214 193
47 2 2 1 1 203 309 204
48 2 2 1 1 252 253 215
49 2 2 1 1 205 261 126
50 2 2 1 1 153 290 272
51 2 2 1 1 150 290 153
52 2 2 1 1 162 250 221
53 2 2 1 1 244 293 136
54 2 2 1 1 213 286 285
55 2 2 1 1 207 283 222
56 2 2 1 1 126 261 226
57 2 2 1 1 244 256 208
58 2 2 1 1 310 321 232
59 2 2 1 1 135 252 196
60 2 2 1 1 227 250 216
61 2 2 1 1 153 307 235
62 2 2 1 1 258 265 247
63 2 2 1 1 204 309 262
64 2 2 1 1 198 266 265
65 2 2 1 1 272 307 153
66 2 2 1 1 200 229 228
67 2 2 1 1 265 266 247
68 2 2 1 1 164 227 216
69 2 2 1 1 228 260 127
70 2 2 1 1 129 263 167
71 2 2 1 1 202 258 247
72 2 2 1 1 256 257 220
73 2 2 1 1 213 285 185
74 2 2 1 1 80 237 81
75 2 2 1 1 251 253 252
76 2 2 1 1 84 164 85
77 2 2 1 1 86 196 87
78 2 2 1 1 90 189 91
79 2 2 1 1 92 193 93
80 2 2 1 1 65 205 64
81 2 2 1 1 94 191 95
82 2 2 1 1 63 186 62
83 2 2 1 1 61 195 60
84 2 2 1 1 59 172 58
85 2 2 1 1 200 228 195
86 2 2 1 1 53 154 52
87 2 2 1 1 199 258 131
88 2 2 1 1 138 164 84
89 2 2 1 1 51 231 50
90 2 2 1 1 206 262 261
91 2 2 1 1 135 196 86
92 2 2 1 1 251 312 168
93 2 2 1 1 156 240 154
94 2 2 1 1 131 189 90
95 2 2 1 1 125 193 92
96 2 2 1 1 124 191 94
97 2 2 1 1 64 205 126
98 2 2 1 1 62 186 128
99 2 2 1 1 60 195 127
100 2 2 1 1 58 172 129
101 2 2 1 1 250 294 221
102 2 2 1 1 52 154 144
103 2 2 1 1 147 148 139
104 2 2 1 1 89 199 131
105 2 2 1 1 143 321 288
106 2 2 1 1 262 309 261
107 2 2 1 1 155 227 138
108 2 2 1 1 189 245 125
109 2 2 1 1 264 265 258
110 2 2 1 1 136 257 244
111 2 2 1 1 131 258 202
112 2 2 1 1 81 237 142
113 2 2 1 1 173 248 225
114 2 2 1 1 129 167 57
115 2 2 1 1 85 164 135
116 2 2 1 1 87 196 133
117 2 2 1 1 91 189 125
118 2 2 1 1 138 227 164
119 2 2 1 1 93 193 124
120 2 2 1 1 95 191 136
121 2 2 1 1 148 298 150
122 2 2 1 1 127 260 172
123 2 2 1 1 227 294 250
124 2 2 1 1 214 319 255
125 2 2 1 1 131 202 189
126 2 2 1 1 193 214 201
127 2 2 1 1 126 186 63
128 2 2 1 1 128 195 61
129 2 2 1 1 137 205 65
130 2 2 1 1 127 172 59
131 2 2 1 1 214 255 254
132 2 2 1 1 76 141 77
133 2 2 1 1 209 283 207
134 2 2 1 1 134 154 53
135 2 2 1 1 48 147 139
136 2 2 1 1 170 248 173
137 2 2 1 1 202 247 246
138 2 2 1 1 206 261 205
139 2 2 1 1 74 130 75
140 2 2 1 1 212 262 206
141 2 2 1 1 144 231 51
142 2 2 1 1 167 263 230
143 2 2 1 1 195 228 127
144 2 2 1 1 72 140 73
145 2 2 1 1 172 210 129
146 2 2 1 1 235 307 305
147 2 2 1 1 83 138 84
148 2 2 1 1 199 264 258
149 2 2 1 1 85 135 86
150 2 2 1 1 81 142 82
151 2 2 1 1 70 143 71
152 2 2 1 1 87 133 88
153 2 2 1 1 89 131 90
154 2 2 1 1 91 125 92
155 2 2 1 1 239 262 212
156 2 2 1 1 93 124 94
157 2 2 1 1 287 320 282
158 2 2 1 1 218 239 212
159 2 2 1 1 95 136 96
160 2 2 1 1 200 292 229
161 2 2 1 1 154 240 144
162 2 2 1 1 64 126 63
163 2 2 1 1 62 128 61
164 2 2 1 1 60 127 59
165 2 2 1 1 58 129 57
166 2 2 1 1 56 132 55
167 2 2 1 1 55 275 54
168 2 2 1 1 210 263 129
169 2 2 1 1 54 134 53
170 2 2 1 1 67 273 66
171 2 2 1 1 66 137 65
172 2 2 1 1 270 299 242
173 2 2 1 1 132 275 55
174 2 2 1 1 52 144 51
175 2 2 1 1 54 275 134
176 2 2 1 1 66 273 137
177 2 2 1 1 68 145 67
178 2 2 1 1 164 216 135
179 2 2 1 1 196 215 133
180 2 2 1 1 145 273 67
181 2 2 1 1 193 201 124
182 2 2 1 1 190 213 185
183 2 2 1 1 214 254 201
184 2 2 1 1 221 272 160
185 2 2 1 1 232 321 69
186 2 2 1 1 223 244 208
187 2 2 1 1 162 221 160
188 2 2 1 1 181 233 203
189 2 2 1 1 191 257 136
190 2 2 1 1 126 226 186
191 2 2 1 1 128 200 195
192 2 2 1 1 137 206 205
193 2 2 1 1 216 252 135
194 2 2 1 1 170 267 248
195 2 2 1 1 134 156 154
196 2 2 1 1 136 293 224
197 2 2 1 1 179 278 233
198 2 2 1 1 158 290 156
199 2 2 1 1 173 225 175
200 2 2 1 1 179 233 181
201 2 2 1 1 166 267 170
202 2 2 1 1 218 241 239
203 2 2 1 1 181 203 183
204 2 2 1 1 284 291 259
205 2 2 1 1 226 234 186
206 2 2 1 1 139 249 47
207 2 2 1 1 165 267 166
208 2 2 1 1 82 152 83
209 2 2 1 1 88 199 89
210 2 2 1 1 96 224 97
211 2 2 1 1 250 251 216
212 2 2 1 1 57 167 56
213 2 2 1 1 1 301 80
214 2 2 1 1 151 236 149
215 2 2 1 1 202 246 245
216 2 2 1 1 190 219 213
217 2 2 1 1 228 313 260
218 2 2 1 1 140 287 73
219 2 2 1 1 148 149 139
220 2 2 1 1 49 147 48
221 2 2 1 1 247 316 246
222 2 2 1 1 48 139 47
223 2 2 1 1 167 230 132
224 2 2 1 1 160 272 158
225 2 2 1 1 46 249 146
226 2 2 1 1 260 313 225
227 2 2 1 1 202 245 189
228 2 2 1 1 178 277 177
229 2 2 1 1 203 204 183
230 2 2 1 1 211 212 206
231 2 2 1 1 157 158 156
232 2 2 1 1 197 219 190
233 2 2 1 1 192 277 178
234 2 2 1 1 142 152 82
235 2 2 1 1 133 199 88
236 2 2 1 1 136 224 96
237 2 2 1 1 46 146 45
238 2 2 1 1 172 260 210
239 2 2 1 1 145 274 273
240 2 2 1 1 217 218 212
241 2 2 1 1 201 220 124
242 2 2 1 1 242 243 241
243 2 2 1 1 242 299 243
244 2 2 1 1 159 160 158
245 2 2 1 1 56 167 132
246 2 2 1 1 187 190 185
247 2 2 1 1 194 197 190
248 2 2 1 1 184 185 182
249 2 2 1 1 176 177 174
250 2 2 1 1 207 208 197
251 2 2 1 1 128 234 200
252 2 2 1 1 180 192 178
253 2 2 1 1 161 162 160
254 2 2 1 1 222 223 208
255 2 2 1 1 151 238 236
256 2 2 1 1 152 304 155
257 2 2 1 1 132 276 275
258 2 2 1 1 134 157 156
259 2 2 1 1 171 198 169
260 2 2 1 1 282 283 209
261 2 2 1 1 166 168 163
262 2 2 1 1 137 211 206
263 2 2 1 1 220 303 256
264 2 2 1 1 225 313 175
265 2 2 1 1 134 275 157
266 2 2 1 1 166 170 169
267 2 2 1 1 161 165 163
268 2 2 1 1 170 173 171
269 2 2 1 1 137 273 211
270 2 2 1 1 176 179 178
271 2 2 1 1 179 181 180
272 2 2 1 1 173 175 174
273 2 2 1 1 69 322 232
274 2 2 1 1 194 209 207
275 2 2 1 1 184 188 187
276 2 2 1 1 124 220 191
277 2 2 1 1 148 150 149
278 2 2 1 1 181 183 182
279 2 2 1 1 150 151 149
280 2 2 1 1 218 242 241
281 2 2 1 1 157 159 158
282 2 2 1 1 153 235 151
283 2 2 1 1 159 161 160
284 2 2 1 1 222 259 223
285 2 2 1 1 211 217 212
286 2 2 1 1 176 178 177
287 2 2 1 1 194 207 197
288 2 2 1 1 207 222 208
289 2 2 1 1 187 194 190
290 2 2 1 1 161 163 162
291 2 2 1 1 150 153 151
292 2 2 1 1 184 187 185
293 2 2 1 1 186 234 128
294 2 2 1 1 166 169 168
295 2 2 1 1 170 171 169
296 2 2 1 1 179 180 178
297 2 2 1 1 173 174 171
298 2 2 1 1 175 176 174
299 2 2 1 1 165 166 163
300 2 2 1 1 181 182 180
301 2 2 1 1 74 287 130
302 2 2 1 1 183 184 182
303 2 2 1 1 208 256 197
304 2 2 1 1 187 281 194
305 2 2 1 1 73 287 74
306 2 2 1 1 259 291 143
307 2 2 1 1 235 238 151
308 2 2 1 1 156 290 240
309 2 2 1 1 204 279 183
310 2 2 1 1 194 281 209
311 2 2 1 1 188 281 187
312 2 2 1 1 289 308 269
313 2 2 1 1 162 312 250
314 2 2 1 1 265 271 198
315 2 2 1 1 176 278 179
316 2 2 1 1 184 279 188
317 2 2 1 1 161 280 165
318 2 2 1 1 175 278 176
319 2 2 1 1 183 279 184
320 2 2 1 1 246 316 277
321 2 2 1 1 237 297 142
322 2 2 1 1 283 284 222
323 2 2 1 1 159 280 161
324 2 2 1 1 133 264 199
325 2 2 1 1 72 291 140
326 2 2 1 1 50 302 2
327 2 2 1 1 273 274 211
328 2 2 1 1 185 285 182
329 2 2 1 1 45 301 1
330 2 2 1 1 143 291 71
331 2 2 1 1 143 288 259
332 2 2 1 1 215 264 133
333 2 2 1 1 218 268 242
334 2 2 1 1 141 308 77
335 2 2 1 1 217 269 268
336 2 2 1 1 180 285 192
337 2 2 1 1 220 257 191
338 2 2 1 1 47 249 46
339 2 2 1 1 251 252 216
340 2 2 1 1 264 271 265
341 2 2 1 1 250 312 251
342 2 2 1 1 69 321 70
343 2 2 1 1 2 302 49
344 2 2 1 1 4 300 68
345 2 2 1 1 144 298 231
346 2 2 1 1 275 276 157
347 2 2 1 1 140 291 284
348 2 2 1 1 244 257 256
349 2 2 1 1 285 286 192
350 2 2 1 1 222 284 259
351 2 2 1 1 253 271 215
352 2 2 1 1 254 303 201
353 2 2 1 1 217 268 218
354 2 2 1 1 78 289 79
355 2 2 1 1 255 286 254
356 2 2 1 1 197 256 219
357 2 2 1 1 211 274 217
358 2 2 1 1 226 296 234
359 2 2 1 1 157 276 159
360 2 2 1 1 80 301 237
361 2 2 1 1 234 292 200
362 2 2 1 1 155 294 227
363 2 2 1 1 182 285 180
364 2 2 1 1 288 310 293
365 2 2 1 1 259 288 223
366 2 2 1 1 168 312 163
367 2 2 1 1 169 311 168
368 2 2 1 1 71 291 72
369 2 2 1 1 297 304 142
370 2 2 1 1 79 300 4
371 2 2 1 1 282 299 130
372 2 2 1 1 282 320 283
373 2 2 1 1 318 322 98
374 2 2 1 1 276 280 159
375 2 2 1 1 304 305 155
376 2 2 1 1 280 295 165
377 2 2 1 1 217 274 269
378 2 2 1 1 168 311 253
379 2 2 1 1 78 308 289
380 2 2 1 1 240 298 144
381 2 2 1 1 293 310 224
382 2 2 1 1 226 309 296
383 2 2 1 1 288 293 223
384 2 2 1 1 263 295 230
385 2 2 1 1 97 318 98
386 2 2 1 1 231 302 50
387 2 2 1 1 210 314 306
388 2 2 1 1 234 296 292
389 2 2 1 1 130 299 270
390 2 2 1 1 232 322 318
391 2 2 1 1 230 295 280
392 2 2 1 1 237 301 146
393 2 2 1 1 147 302 231
394 2 2 1 1 263 306 295
395 2 2 1 1 98 322 3
396 2 2 1 1 256 303 219
397 2 2 1 1 306 314 248
398 2 2 1 1 242 317 270
399 2 2 1 1 261 309 226
400 2 2 1 1 165 295 267
401 2 2 1 1 286 315 192
402 2 2 1 1 243 299 282
403 2 2 1 1 201 303 220
404 2 2 1 1 3 322 69
405 2 2 1 1 225 314 260
406 2 2 1 1 229 313 228
407 2 2 1 1 223 293 244
408 2 2 1 1 270 317 141
409 2 2 1 1 238 304 297
410 2 2 1 1 295 306 267
411 2 2 1 1 221 307 272
412 2 2 1 1 210 306 263
413 2 2 1 1 253 311 271
414 2 2 1 1 215 271 264
415 2 2 1 1 77 308 78
416 2 2 1 1 49 302 147
417 2 2 1 1 68 300 145
418 2 2 1 1 248 314 225
419 2 2 1 1 142 304 152
420 2 2 1 1 70 321 143
421 2 2 1 1 271 311 198
422 2 2 1 1 277 316 177
423 2 2 1 1 198 311 169
424 2 2 1 1 224 318 97
425 2 2 1 1 192 315 277
426 2 2 1 1 238 297 236
427 2 2 1 1 266 316 247
428 2 2 1 1 267 306 248
429 2 2 1 1 140 320 287
430 2 2 1 1 260 314 210
431 2 2 1 1 145 300 289
432 2 2 1 1 146 301 45
433 2 2 1 1 163 312 162
434 2 2 1 1 246 319 245
435 2 2 1 1 255 315 286
436 2 2 1 1 235 305 238
437 2 2 1 1 268 317 242
438 2 2 1 1 141 317 268
439 2 2 1 1 177 316 266
440 2 2 1 1 289 300 79
441 2 2 1 1 294 307 221
442 2 2 1 1 277 315 246
443 2 2 1 1 283 320 284
444 2 2 1 1 238 305 304
445 2 2 1 1 310 318 224
446 2 2 1 1 232 318 310
447 2 2 1 1 284 320 140
448 2 2 1 1 315 319 246
449 2 2 1 1 255 319 315
450 2 2 1 1 83 155 138
451 2 2 1 1 152 155 83
452 2 2 1 1 230 280 132
453 2 2 1 1 132 280 276
454 2 2 1 1 155 307 294
455 2 2 3 4 323 334 333
456 2 2 3 4 115 331 116
457 2 2 3 4 328 331 115
458 2 2 3 4 323 333 324
459 2 2 3 4 114 328 115
460 2 2 3 4 114 329 328
461 2 2 3 4 116 331 327
462 2 2 3 4 101 329 100
463 2 2 3 4 329 332 100
464 2 2 3 4 328 329 101
465 2 2 3 4 100 332 99
466 2 2 3 4 112 343 338
467 2 2 3 4 323 336 334
468 2 2 3 4 327 342 326
469 2 2 3 4 326 339 327
470 2 2 3 4 112 338 332
471 2 2 3 4 3 338 123
472 2 2 3 4 109 323 108
473 2 2 3 4 112 332 113
474 2 2 3 4 113 332 329
475 2 2 3 4 330 337 326
476 2 2 3 4 337 339 326
477 2 2 3 4 333 335 324
478 2 2 3 4 99 338 3
479 2 2 3 4 323 324 108
480 2 2 3 4 102 331 328
481 2 2 3 4 106 330 105
482 2 2 3 4 103 331 102
483 2 2 3 4 105 326 104
484 2 2 3 4 102 328 101
485 2 2 3 4 119 325 120
486 2 2 3 4 116 327 117
487 2 2 3 4 113 329 114
488 2 2 3 4 105 330 326
489 2 2 3 4 325 335 333
490 2 2 3 4 106 335 330
491 2 2 3 4 325 337 330
492 2 2 3 4 108 324 107
493 2 2 3 4 120 333 121
494 2 2 3 4 107 335 106
495 2 2 3 4 333 334 121
496 2 2 3 4 111 336 110
497 2 2 3 4 324 335 107
498 2 2 3 4 325 333 120
499 2 2 3 4 330 335 325
500 2 2 3 4 332 338 99
501 2 2 3 4 119 337 325
502 2 2 3 4 103 342 331
503 2 2 3 4 122 340 6
504 2 2 3 4 327 339 117
505 2 2 3 4 326 342 104
506 2 2 3 4 336 340 334
507 2 2 3 4 331 342 327
508 2 2 3 4 6 340 111
509 2 2 3 4 4 341 109
510 2 2 3 4 110 341 4
511 2 2 3 4 5 343 112
512 2 2 3 4 109 341 323
513 2 2 3 4 118 337 119
514 2 2 3 4 118 339 337
515 2 2 3 4 117 339 118
516 2 2 3 4 121 334 122
517 2 2 3 4 323 341 336
518 2 2 3 4 104 342 103
519 2 2 3 4 336 341 110
520 2 2 3 4 123 343 5
521 2 2 3 4 111 340 336
522 2 2 3 4 338 343 123
523 2 2 3 4 334 340 122
524 2 2 2 210063 25 346 13
525 2 2 2 210063 9 352 30
526 2 2 2 210063 30 1 9
527 2 2 2 210063 13 2 25
528 2 2 2 210063 345 348 347
529 2 2 2 210063 345 350 348
530 2 2 2 210063 30 352 347
531 2 2 2 210063 25 353 346
532 2 2 2 210063 13 346 12
533 2 2 2 210063 11 345 10
534 2 2 2 210063 27 344 26
535 2 2 2 210063 30 347 29
536 2 2 2 210063 29 348 28
537 2 2 2 210063 347 348 29
538 2 2 2 210063 28 351 7
539 2 2 2 210063 7 351 27
540 2 2 2 210063 26 353 25
541 2 2 2 210063 348 350 344
542 2 2 2 210063 346 353 350
543 2 2 2 210063 11 349 345
544 2 2 2 210063 346 349 12
545 2 2 2 210063 12 349 11
546 2 2 2 210063 345 352 10
547 2 2 2 210063 346 350 349
548 2 2 2 210063 348 351 28
549 2 2 2 210063 347 352 345
550 2 2 2 210063 27 351 344
551 2 2 2 210063 10 352 9
552 2 2 2 210063 344 353 26
553 2 2 2 210063 344 351 348
554 2 2 2 210063 350 353 344
555 2 2 2 210063 349 350 345
556 2 2 4 210067 360 376 375
557 2 2 4 210067 359 386 381
558 2 2 4 210067 39 378 38
559 2 2 4 210067 381 389 359
560 2 2 4 210067 386 388 385
561 2 2 4 210067 375 393 360
562 2 2 4 210067 359 388 386
563 2 2 4 210067 371 374 354
564 2 2 4 210067 378 398 38
565 2 2 4 210067 354 375 371
566 2 2 4 210067 396 397 18
567 2 2 4 210067 383 397 396
568 2 2 4 210067 371 375 372
569 2 2 4 210067 375 376 372
570 2 2 4 210067 381 390 355
571 2 2 4 210067 355 389 381
572 2 2 4 210067 376 382 372
573 2 2 4 210067 382 397 383
574 2 2 4 210067 364 377 365
575 2 2 4 210067 15 362 14
576 2 2 4 210067 357 397 382
577 2 2 4 210067 24 363 23
578 2 2 4 210067 361 377 364
579 2 2 4 210067 22 359 21
580 2 2 4 210067 368 374 371
581 2 2 4 210067 377 378 374
582 2 2 4 210067 17 357 16
583 2 2 4 210067 20 355 19
584 2 2 4 210067 365 377 368
585 2 2 4 210067 361 378 377
586 2 2 4 210067 368 371 369
587 2 2 4 210067 37 361 36
588 2 2 4 210067 365 368 367
589 2 2 4 210067 368 377 374
590 2 2 4 210067 36 364 35
591 2 2 4 210067 361 364 36
592 2 2 4 210067 41 354 40
593 2 2 4 210067 35 356 34
594 2 2 4 210067 371 372 369
595 2 2 4 210067 368 369 367
596 2 2 4 210067 34 379 33
597 2 2 4 210067 43 360 42
598 2 2 4 210067 365 366 356
599 2 2 4 210067 35 364 356
600 2 2 4 210067 365 367 366
601 2 2 4 210067 364 365 356
602 2 2 4 210067 33 358 32
603 2 2 4 210067 372 373 369
604 2 2 4 210067 367 370 366
605 2 2 4 210067 372 382 373
606 2 2 4 210067 382 383 373
607 2 2 4 210067 356 379 34
608 2 2 4 210067 369 380 367
609 2 2 4 210067 380 381 370
610 2 2 4 210067 33 379 358
611 2 2 4 210067 367 380 370
612 2 2 4 210067 366 379 356
613 2 2 4 210067 373 380 369
614 2 2 4 210067 379 384 358
615 2 2 4 210067 366 384 379
616 2 2 4 210067 370 384 366
617 2 2 4 210067 374 392 354
618 2 2 4 210067 360 391 376
619 2 2 4 210067 381 386 370
620 2 2 4 210067 383 396 390
621 2 2 4 210067 383 390 373
622 2 2 4 210067 354 393 375
623 2 2 4 210067 384 385 358
624 2 2 4 210067 380 390 381
625 2 2 4 210067 354 392 40
626 2 2 4 210067 8 398 37
627 2 2 4 210067 38 398 8
628 2 2 4 210067 41 393 354
629 2 2 4 210067 384 386 385
630 2 2 4 210067 360 393 42
631 2 2 4 210067 44 394 43
632 2 2 4 210067 32 395 31
633 2 2 4 210067 14 400 5
634 2 2 4 210067 6 401 24
635 2 2 4 210067 361 398 378
636 2 2 4 210067 5 400 44
637 2 2 4 210067 31 401 6
638 2 2 4 210067 370 386 384
639 2 2 4 210067 357 387 16
640 2 2 4 210067 16 387 15
641 2 2 4 210067 363 388 23
642 2 2 4 210067 15 387 362
643 2 2 4 210067 22 388 359
644 2 2 4 210067 20 389 355
645 2 2 4 210067 23 388 22
646 2 2 4 210067 390 396 355
647 2 2 4 210067 21 389 20
648 2 2 4 210067 359 389 21
649 2 2 4 210067 385 388 363
650 2 2 4 210067 373 390 380
651 2 2 4 210067 385 395 358
652 2 2 4 210067 18 397 17
653 2 2 4 210067 363 395 385
654 2 2 4 210067 19 396 18
655 2 2 4 210067 39 392 378
656 2 2 4 210067 376 399 382
657 2 2 4 210067 387 391 362
658 2 2 4 210067 378 392 374
659 2 2 4 210067 382 399 357
660 2 2 4 210067 44 400 394
661 2 2 4 210067 395 401 31
662 2 2 4 210067 40 392 39
663 2 2 4 210067 42 393 41
664 2 2 4 210067 355 396 19
665 2 2 4 210067 43 394 360
666 2 2 4 210067 358 395 32
667 2 2 4 210067 17 397 357
668 2 2 4 210067 37 398 361
669 2 2 4 210067 362 400 14
670 2 2 4 210067 24 401 363
671 2 2 4 210067 387 399 391
672 2 2 4 210067 360 394 391
673 2 2 4 210067 391 394 362
674 2 2 4 210067 357 399 387
675 2 2 4 210067 391 399 376
676 2 2 4 210067 394 400 362
677 2 2 4 210067 363 401 395
$EndElements
