$MeshFormat
2.2 0 8
$EndMeshFormat
$PhysicalNames
4
2 1 "horn_surface"
2 2 "throat_cap"
2 3 "interface_wall"
2 4 "interface_face"
$EndPhysicalNames
$Nodes
555
1 1.110223024625157e-16 -14.829629 -100
2 4.440892098500626e-16 -59.31851666666667 0
3 -4.440892098500626e-16 59.31851666666667 0
4 -1.110223024625157e-16 14.829629 -100
5 1.110223024625157e-16 -14.829629 -100
6 -1.110223024625157e-16 14.829629 -100
7 4.440892098500626e-16 -59.31851666666667 0
8 -4.440892098500626e-16 59.31851666666667 0
9 -4.440892098500626e-16 59.31851666666667 20
10 4.440892098500626e-16 -59.31851666666667 20
11 4.440892098500626e-16 -59.31851666666667 20
12 -4.440892098500626e-16 59.31851666666667 20
13 0 -17.45059226568048 -92.63982449264493
14 0 -20.16256711306013 -85.2969005756965
15 0 -22.96050940878991 -77.98630177033941
16 0 -25.84421424494206 -70.70910590130958
17 0 -28.81342762303949 -63.46637830061587
18 0 -31.8678465576779 -56.25916978329835
19 0 -35.00711946496032 -49.08851469820284
20 0 -38.23084678866532 -41.95542907315464
21 0 -41.53858150108574 -34.86090867403205
22 0 -44.92983003569451 -27.80592725211676
23 0 -48.40405316880172 -20.79143478581417
24 0 -51.96066707054703 -13.81835580217503
25 0 -55.59904459121675 -6.887587838545485
26 7.742523763769332 -58.8103067646438 0
27 15.35276185648678 -57.29728737178758 0
28 22.69993104278867 -54.80248148881195 0
29 29.65925822760984 -51.37134222770614 0
30 36.11037551643764 -47.05995761383087 0
31 41.94452533333336 -41.9445253333333 0
32 47.0599576138309 -36.11037551643759 0
33 51.37134222770618 -29.65925822760979 0
34 54.80248148881198 -22.69993104278859 0
35 57.29728737178762 -15.35276185648666 0
36 58.8103067646438 -7.742523763769245 0
37 59.31851666666667 1.019831841198027e-13 0
38 58.81030676464377 7.742523763769468 0
39 57.29728737178755 15.35276185648687 0
40 54.80248148881192 22.69993104278875 0
41 51.37134222770609 29.65925822760995 0
42 47.05995761383076 36.11037551643777 0
43 41.94452533333318 41.94452533333348 0
44 36.11037551643737 47.05995761383107 0
45 29.65925822760955 51.37134222770633 0
46 22.69993104278844 54.80248148881205 0
47 15.35276185648668 57.29728737178762 0
48 7.742523763769224 58.8103067646438 0
49 0 17.45059226568046 -92.63982449264492
50 0 20.16256711306009 -85.29690057569647
51 0 22.96050940878989 -77.98630177033938
52 0 25.84421424494205 -70.70910590130956
53 0 28.81342762303948 -63.46637830061584
54 0 31.86784655767788 -56.25916978329831
55 0 35.00711946496031 -49.08851469820281
56 0 38.23084678866535 -41.95542907315462
57 0 41.53858150108573 -34.86090867403202
58 0 44.92983003569451 -27.80592725211676
59 0 48.40405316880171 -20.79143478581416
60 0 51.96066707054703 -13.81835580217503
61 0 55.59904459121677 -6.887587838545475
62 7.414815596443247 -12.84283496319329 -100
63 12.84283496319324 -7.414815596443318 -100
64 14.829629 -7.781965738473675e-14 -100
65 12.84283496319332 7.414815596443184 -100
66 7.414815596443264 12.84283496319328 -100
67 0 -11.12222175000002 -100
68 0 -7.414814500000006 -100
69 0 -3.707407249999989 -100
70 0 0 -100
71 0 3.707407249999989 -100
72 0 7.414814500000006 -100
73 0 11.12222175000002 -100
74 3.838190428816657 -14.32432156373172 -100
75 7.414814612397392 -12.84283553133237 -100
76 10.4861315 -10.48613149999999 -100
77 12.84283553133238 -7.414814612397382 -100
78 14.32432156373172 -3.838190428816662 -100
79 14.829629 -3.33066907387547e-16 -100
80 14.32432156373172 3.838190428816655 -100
81 12.84283553133238 7.414814612397383 -99.99999999999999
82 10.48613149999999 10.48613150000001 -100
83 7.414814612397382 12.84283553133238 -100
84 3.838190428816647 14.32432156373172 -100
85 7.742523763769341 -58.81030676464379 0
86 15.35276185648677 -57.29728737178758 0
87 22.69993104278866 -54.80248148881195 0
88 29.65925822760984 -51.37134222770616 0
89 36.11037551643763 -47.05995761383087 0
90 41.94452533333335 -41.94452533333332 0
91 47.05995761383092 -36.11037551643757 0
92 51.37134222770618 -29.65925822760978 0
93 54.80248148881198 -22.69993104278858 0
94 57.29728737178762 -15.35276185648666 0
95 58.8103067646438 -7.74252376376926 0
96 59.31851666666667 1.096110295861763e-13 0
97 58.81030676464378 7.742523763769451 0
98 57.29728737178755 15.35276185648688 0
99 54.80248148881191 22.69993104278876 0
100 51.37134222770609 29.65925822760995 0
101 47.05995761383079 36.11037551643773 0
102 41.94452533333319 41.94452533333347 0
103 36.1103755164374 47.05995761383105 0
104 29.65925822760959 51.3713422277063 0
105 22.69993104278851 54.80248148881202 0
106 15.35276185648669 57.2972873717876 0
107 7.742523763769231 58.8103067646438 0
108 0 59.31851666666665 13.33333333333333
109 0 59.31851666666665 6.666666666666664
110 7.742523763769341 -58.81030676464379 20
111 15.35276185648677 -57.29728737178758 20
112 22.69993104278866 -54.80248148881195 20
113 29.65925822760984 -51.37134222770616 20
114 36.11037551643763 -47.05995761383087 20
115 41.94452533333335 -41.94452533333332 20
116 47.05995761383092 -36.11037551643757 20
117 51.37134222770618 -29.65925822760978 20
118 54.80248148881198 -22.69993104278858 20
119 57.29728737178762 -15.35276185648666 20
120 58.8103067646438 -7.74252376376926 20
121 59.31851666666667 1.096110295861763e-13 20
122 58.81030676464378 7.742523763769451 20
123 57.29728737178755 15.35276185648688 20
124 54.80248148881191 22.69993104278876 20
125 51.37134222770609 29.65925822760995 20
126 47.05995761383079 36.11037551643773 20
127 41.94452533333319 41.94452533333347 20
128 36.1103755164374 47.05995761383105 20
129 29.65925822760959 51.3713422277063 20
130 22.69993104278851 54.80248148881202 20
131 15.35276185648669 57.2972873717876 20
132 7.742523763769231 58.8103067646438 20
133 0 -59.31851666666665 13.33333333333333
134 0 -59.31851666666665 6.666666666666664
135 0 -51.40938111226015 20
136 0 -43.50024555671908 20
137 0 -35.59111000161872 20
138 0 -27.68197444544969 20
139 0 -19.77283888977232 20
140 0 -11.86370333382827 20
141 0 -3.954567777811073 20
142 0 3.954567778094463 20
143 0 11.86370333370652 20
144 0 19.77283888929407 20
145 0 27.68197444448259 20
146 0 35.59110999970936 20
147 0 43.50024555514055 20
148 0 51.40938111047905 20
149 7.742523763769341 -58.81030676464379 20
150 15.35276185648677 -57.29728737178758 20
151 22.69993104278866 -54.80248148881195 20
152 29.65925822760984 -51.37134222770616 20
153 36.11037551643763 -47.05995761383087 20
154 41.94452533333335 -41.94452533333332 20
155 47.05995761383092 -36.11037551643757 20
156 51.37134222770618 -29.65925822760978 20
157 54.80248148881198 -22.69993104278858 20
158 57.29728737178762 -15.35276185648666 20
159 58.8103067646438 -7.74252376376926 20
160 59.31851666666667 1.096110295861763e-13 20
161 58.81030676464378 7.742523763769451 20
162 57.29728737178755 15.35276185648688 20
163 54.80248148881191 22.69993104278876 20
164 51.37134222770609 29.65925822760995 20
165 47.05995761383079 36.11037551643773 20
166 41.94452533333319 41.94452533333347 20
167 36.1103755164374 47.05995761383105 20
168 29.65925822760959 51.3713422277063 20
169 22.69993104278851 54.80248148881202 20
170 15.35276185648669 57.2972873717876 20
171 7.742523763769231 58.8103067646438 20
172 55.83436435433641 -3.730089743533026 -6.212098233489604
173 6.042295814268616 -27.13796853485881 -65.90488900123734
174 6.733092287670963 26.59999231315348 -66.78895305205181
175 7.010823802982547 -36.15091602172239 -45.03915252828159
176 6.273449326881012 36.2509992800131 -45.1154259478059
177 50.09623542427848 24.80074128055244 -6.324013568776254
178 46.84328432260047 -31.2076189038517 -5.598572470260615
179 37.0762710118858 42.19665390251895 -5.814639775828688
180 31.24933281572558 -46.58778843075656 -5.952283185843434
181 16.41224554488638 -4.397648616716556 -93.91043246639626
182 6.492520266670835 46.49300798380636 -23.71256225633174
183 7.144028588134905 20.99648231805029 -80.00322825810763
184 6.397066506476516 -42.85629126312671 -31.10421918550733
185 7.984154551720266 -20.41370096760901 -80.67560588511367
186 6.766016657355568 -49.80862249369788 -17.11427068766619
187 24.7626862068424 50.52036398092555 -5.643518386426525
188 54.98988722531984 10.77031841732791 -6.070009970079512
189 53.11551399596307 -18.02995118000619 -5.962413957882532
190 12.45648556270373 11.44303681075508 -94.12264997709667
191 17.7449841714847 -53.01560042794137 -6.310166232670868
192 6.48881014518983 53.47813981399142 -10.15464327109594
193 10.4288846791074 -54.66803455830039 -6.783761687107859
194 16.4122455448864 4.397648616716376 -93.91043246639632
195 19.20701683124994 -6.073110015016847e-14 -87.85406903983365
196 17.76753685166842 -8.036651764536638 -87.06444627070579
197 21.41897323628681 -3.647197665484823 -81.17631871660268
198 21.22044211428321 4.504591869804647 -81.26525954393269
199 23.98850975099674 0.5611317612479755 -75.34656229811955
200 23.18858007025318 -7.129219980042119 -74.67639352137901
201 26.40285362813717 -3.043877506650529 -68.89627996591634
202 26.19184595988156 4.241956941914455 -69.00608474055267
203 29.06416061678347 1.112294546178669 -62.81461975522215
204 28.59387502588586 -6.762848808792769 -62.1047695760838
205 31.66151563520346 -2.480773463993962 -56.51237863457241
206 31.26505294650715 5.28636232630617 -56.62786375672599
207 34.33348965654724 1.694932787982641 -50.51296356912613
208 34.05132106351913 -6.06666596691035 -50.03297859318776
209 37.14711392002219 -1.918902657430352 -44.21904642659466
210 36.66929164677717 5.847625406141688 -44.35941589698906
211 36.2818664218329 -9.61946644483552 -43.47533248547833
212 39.88199387914713 2.256480132884667 -38.24942127777997
213 38.76208948860431 9.953651167584395 -38.09153708202709
214 35.10831866734577 13.16514927236352 -43.56192842975169
215 36.44498882819254 17.34534752174043 -37.35854468958964
216 32.35298967641021 -13.58116755723704 -48.90591205403405
217 34.15333352481563 -16.98979203599199 -42.14018969170778
218 38.40473330940816 -13.14865130000289 -36.86568028950893
219 35.92870723681319 -20.3764319997032 -35.35560738542569
220 40.67778700529543 14.0196592192457 -31.73966864161169
221 38.00475782537716 21.24111044390784 -30.67589941524914
222 33.08693887521386 24.21936125983639 -35.99191276596601
223 34.24596793216457 27.93406410004179 -29.31797000360048
224 40.45864065049399 -16.66065624664615 -30.22530809628791
225 37.74570295459536 -23.73764386885615 -28.50434749735054
226 32.51081239137462 -27.05120084072011 -33.27141583475212
227 29.38773900852024 -20.56782920502814 -47.15575986120709
228 34.17586798164933 -30.29221392806357 -26.29652332866338
229 28.75716423107372 30.42935485499988 -34.16623001891092
230 27.46578318802077 26.87574921822156 -41.52736261808986
231 29.80328135455136 33.98457404034158 -27.24895112953005
232 28.27261983714112 -33.07590120463897 -30.72735664028509
233 42.46848598061241 18.04830056654701 -25.32865069227406
234 44.59413269597481 10.59221754811063 -25.95840428604998
235 23.67010551856814 35.86979865203625 -31.84443239027197
236 24.59439369523685 39.29239037202613 -24.90324708056087
237 35.43925950919208 31.64353106069892 -22.57510276743592
238 29.76254883495348 -36.23978938144825 -23.81190003975279
239 42.51776710534889 -20.12492926135679 -23.51963107084758
240 44.57149292277489 -12.78253372400118 -24.87647375902327
241 35.71600121554301 -33.59134612840281 -19.54776136404796
242 23.50336273407526 -38.48368532430128 -27.47111492550432
243 24.90469359731456 -41.52437545479592 -20.7592095921127
244 22.6640532536314 -35.12627693710024 -34.30206935961785
245 46.6855158319999 14.71801886513639 -19.70628701691217
246 48.31254510603073 7.137510388517505 -19.93062498139315
247 45.69351965837155 2.89557784041745 -26.05894681388907
248 48.85069669641207 -0.6406329201845742 -19.89614466891951
249 27.87369381390391 -17.31606099530668 -54.07236513533269
250 24.06590706873447 -23.73785534404939 -51.81140246343979
251 22.75387019365179 -20.65830075214661 -58.90960198377755
252 18.07790140427188 -26.27755946256979 -56.19441327327824
253 44.21965656921775 21.90538728108323 -18.92022361813587
254 19.37444336105763 -29.16941856205764 -49.06470213409743
255 18.69126578039624 -42.9410306692157 -23.93729475736286
256 19.61788502404169 -46.13284224422644 -17.37936868645559
257 46.84809009976848 -16.38137231510051 -18.36492762892898
258 18.37096981324639 40.40498767790932 -28.92348629082028
259 19.31192980402117 43.79883176802889 -21.86035168236575
260 25.54906969535794 42.77063814449166 -17.98993723103928
261 17.72781674463531 37.07865299568753 -35.79116115836302
262 44.47603206990439 -23.64513390314262 -16.91029486078906
263 51.5864469016221 3.805440583038704 -14.27024919679896
264 20.05945834431418 47.14448945392458 -15.22428331476419
265 12.37880380756353 -30.49976205776862 -53.83807485220063
266 17.37444810146701 -23.20457974636665 -63.04633215962632
267 21.52486646332863 -17.59525075159772 -65.90726681006788
268 16.21157851567023 -20.25432236548761 -70.46276520634075
269 12.17333671089767 40.63447684496518 -33.00905510569286
270 12.22403615316684 -12.24641407504692 -93.04654317024197
271 13.54540120452232 -14.81892349419353 -85.52487990352338
272 19.11181188259505 -11.30121566909754 -79.93999391204429
273 16.81128907730589 9.597316068936331 -87.44818158000677
274 18.88428511440225 11.96502447683077 -79.54472575315566
275 48.66684495152892 18.81241693897243 -13.40080473629388
276 6.484510037164418 18.09535726801013 -87.81285839887781
277 26.42603141400705 -45.24363915179523 -12.97891145095172
278 13.07449503290803 -50.81329101655439 -12.83916658877802
279 14.95164596275909 -17.41408885640482 -78.0072118442628
280 51.93164633769857 -4.242895118823883 -13.53929630308295
281 12.00921155037444 -27.40509445985776 -60.82488627902424
282 13.03574121039831 47.53499247530548 -19.03532412374562
283 13.20830544788141 16.22208647689653 -83.29360500805271
284 14.8778321895092 18.27795429448753 -76.43254532072258
285 20.8087141885648 13.74354652586478 -72.96961632455749
286 17.51773913977348 19.76901221286639 -69.30048043922713
287 23.12786771027717 15.62571962314217 -65.63991459989319
288 19.88427697502213 21.67923985382862 -62.02243384891754
289 25.40308395292917 17.54760584374249 -58.57655223094552
290 22.19135059143887 23.65432886718753 -54.94795017277215
291 16.54410375957348 26.47267407116215 -57.7746973496789
292 17.80792970606495 29.66244725244266 -50.01128180027683
293 27.22553570119256 19.9089564328572 -51.98098324363878
294 11.53355633669356 30.5672526470152 -54.40222304933258
295 27.53459476687567 9.819481960372771 -62.46123769151729
296 10.46577778403709 22.77694554201447 -72.64698000869244
297 48.47103552469534 -8.557383191982716 -19.17146092292051
298 50.88502883377817 -12.47962721409036 -12.98422441971425
299 20.41124537586633 -14.25179900882765 -73.07785358784702
300 24.93041968556728 -10.68272660391813 -67.55958886995074
301 26.40404580074043 -14.07368649605963 -60.82626373182573
302 45.38700061959393 26.35906851370224 -12.80531749504943
303 46.48366972125969 31.07604807053279 -6.294784464004902
304 41.92291533316535 32.29271182081628 -11.97353485361914
305 45.7261750432436 -5.053710436635688 -25.61254209052942
306 42.88782686760939 -1.412676255866651 -31.97966027518848
307 6.424882366976226 -24.09335659396303 -72.97597323377438
308 31.15010427343855 -39.44221772497272 -17.12716444377032
309 37.75811152220577 -36.95247716901507 -12.14147154628377
310 41.4529583500449 -30.41156268328187 -14.8794477441869
311 39.59232737427625 -27.18465917553863 -21.54262995878421
312 30.56668569459483 37.70069227150876 -20.5295895059847
313 32.32194199452753 41.34965590024742 -12.80917686058978
314 39.76662822696758 -5.508160478030631 -37.81946967489863
315 5.794866101917615 30.0895451809524 -59.12164182354068
316 6.358870055143415 -46.36522629609689 -24.0045732877497
317 42.35406829918697 6.425371838601465 -32.12991303931382
318 6.758909784883738 -39.40567213023772 -38.17328602764528
319 13.33111859185247 -36.27676475740539 -41.04615723664529
320 13.22895104429029 -39.65511898813494 -34.30145337046234
321 33.45116915121942 8.902926134331278 -49.97026195416462
322 29.78142416749081 12.85049224797855 -54.94418693362479
323 42.2232864365828 -9.154245704707348 -31.36871041283568
324 30.52279020665051 -10.14582958907177 -55.57029484620885
325 6.100012354132472 39.71215660134948 -37.75185253748751
326 39.19104675375744 25.33888857003816 -24.26804538994706
327 30.95058068534456 -23.81041542699695 -40.17770799864215
328 25.50592269154883 -26.71871340242098 -44.78832056378567
329 19.8067925800809 -32.90633961174026 -41.57087162651329
330 50.52305713825437 11.5647106021099 -14.07120644907428
331 49.08858281375481 -19.68966240068254 -12.02754019277382
332 26.77870848510756 -29.94849989812854 -37.75913499755492
333 22.82570761075518 32.60289586452327 -38.56385092315402
334 16.76588999822119 33.83069819060925 -42.98881983295475
335 32.29629567274664 20.05473886168048 -42.42294734406298
336 14.07342884957669 50.98282665421658 -12.02988841469838
337 6.963255681166499 -17.64052373901472 -88.50595314711732
338 24.20153324145243 25.76263553677622 -48.32505233619275
339 52.44524384341393 17.93537251256312 -7.209654038653937
340 42.21289451007338 -37.02013149651707 -5.86105785633929
341 50.56335794390284 -24.63778077067011 -5.673784809452997
342 55.04787009673224 -11.06681663458762 -5.855696104738655
343 24.83348954894446 -50.35662753940575 -5.859833243731533
344 56.10804299043889 3.944734858987923 -5.673784796964689
345 17.82642631267991 53.34630393360064 -5.674986954047869
346 31.19337378173401 46.6847465706668 -5.859833211597756
347 37.1021019355539 -42.14718340359019 -5.852219112182953
348 13.80759396718526 24.5410689511616 -65.04262094943718
349 25.90333501710075 46.49253173868166 -11.39385866849472
350 12.89657497947829 -47.02187313177883 -20.0875808552446
351 6.169173233120419 49.86997206068607 -17.14556199000566
352 35.9968781309834 35.79134186001718 -16.14560056937254
353 42.30138386721004 37.19020917397807 -5.527081507959689
354 6.361862187795739 -33.06210687902342 -52.1171484703416
355 22.94429476044046 7.641990492791718 -74.86908491263998
356 20.48354305519243 -49.19907384316241 -11.25643393214923
357 11.23031876873428 55.32097908104117 -5.295184841819118
358 46.03846383268358 -27.18987260243947 -10.92290490784808
359 13.0640118647368 44.05512719484912 -25.72171588706654
360 41.00463951295472 28.04777520920189 -18.26646148812414
361 32.74151597381645 -42.10587270777035 -11.1706151675707
362 12.80248010424106 -43.40591948164735 -27.14121318449552
363 13.340246005697 -33.36028074355933 -47.02536118185562
364 6.071616320899932 -30.07003253663741 -59.04081854526288
365 5.594864579197396 42.99618219152046 -31.04688697366829
366 38.17875074760178 37.67716435031597 -10.59589686497845
367 21.8160420370165 30.07632350959239 -44.30924113361687
368 6.582237354653936 15.70197048521501 -93.81389739100786
369 5.577264278093559 -15.74058562127013 -94.72116018306858
370 5.889779750122557 33.14369680319263 -52.12993928479393
371 18.38147372825442 -39.60995953676444 -30.40682289277652
372 11.94067533531514 33.5897278415288 -47.6495392396853
373 11.71992951739245 37.26163356484412 -40.15321536846204
374 31.35505210869216 16.10737875767572 -48.542049107354
375 24.30361452323561 10.60498226719512 -69.04666599267328
376 11.70600055057881 -24.323204439988 -67.87620315021337
377 20.4096673937427 50.01044473866753 -9.879857259294688
378 53.96463853473669 0.9455973753253373 -9.960692745441236
379 6.488526867565261 -53.02095433680311 -11.02006905509718
380 11.81376326519752 -21.18519732347684 -74.6847875182082
381 5.423090543028144 56.47060058631284 -4.770918624666331
382 53.29137756718826 6.868200110168006 -10.41786443578137
383 42.81700650331928 -32.94395807360936 -9.86223257508199
384 11.51121479510564 14.75732308559563 -89.18015204254746
385 4.969111514703906 -56.4744395345338 -4.841342952080572
386 53.39507374491086 -7.920092204792578 -9.947459715754396
387 11.1700355664327 27.67596673440342 -61.00462763408411
388 4.729053907704833 24.13004657349126 -73.84536504033588
389 17.22048289261357 -36.72247090498644 -36.93705892834712
390 28.45644877665331 22.11664539234606 -46.77648540041702
391 3.216153673614858 1.849429649495959 -100
392 9.048797130076917 -7.156470940464098 -100
393 11.84994492105599 1.120268109636858 -100
394 6.908623517419969 9.679101121636725 -100
395 3.162524376567784 -5.499277148206696 -100
396 4.541052378468969 -10.53510723823321 -100
397 3.123445846064396 5.395702107009088 -100
398 6.865875625370414 3.931806433162551 -100
399 6.306462944258964 0.01491875296443279 -100
400 3.185149868074816 -1.845075231636462 -100
401 3.451496794683973 8.612357673673889 -100
402 6.938766056421901 -4.01557027796971 -100
403 9.558792475045756 -1.232681752654421 -100
404 7.450793887155552 -9.630338095479164 -100
405 9.035621585462717 7.099939474675063 -100
406 10.56939641660043 4.205032682550765 -100
407 10.97875104933112 -4.353557974920736 -100
408 5.824680619857816 -7.172761219444979 -100
409 4.322625070663594 11.31616752807495 -100
410 2.642620399298771 -8.284560046703426 -100
411 12.30828780183291 -1.660832409350993 -100
412 5.877012673800294 6.943781362031464 -100
413 9.03009447646631 1.607868845132037 -100
414 5.827411722110446 59.03092931518474 9.996139489178264
415 5.827411722112888 -59.03092931518451 9.996263615628937
416 19.06716755297363 56.1701020210262 6.718451827080901
417 55.90987252333039 19.81692676739065 6.679722638703151
418 19.06716755297375 -56.17010202102615 6.718451827080979
419 56.17010202102618 -19.06716755297365 6.718451827081002
420 32.95536160821457 49.32120588666727 6.71845183074726
421 32.95536160821481 -49.32120588666713 6.718451830747282
422 48.49026204998127 -34.16591084191869 13.27587987956826
423 49.32120588666704 32.95536160821492 13.28154816925269
424 59.0769263553605 -5.341516426220478 6.724091027242679
425 26.23573641830147 53.20078337661396 13.28154817088535
426 26.23573641830166 -53.20078337661387 13.28154817088527
427 39.11115135544468 -44.59770237344731 13.28154816958728
428 39.11115135544448 44.59770237344748 13.28154816958723
429 44.59770237344735 -39.11115135544463 6.718451830412733
430 44.59770237344722 39.11115135544478 6.718451830412757
431 58.42920338480236 -10.22959046270831 13.31204405578382
432 59.1910982356191 3.879577431938344 13.28154816789561
433 53.2007833766139 -26.2357364183016 6.71845182911475
434 53.20079140995769 26.23572012243299 6.718462318249533
435 58.17831910664472 11.57239949404341 13.28154817109053
436 12.04416772738932 58.08255797697937 6.441526000309228
437 11.92923270232062 58.1062551809302 13.67675347153722
438 12.04416772739489 -58.08255797697822 6.441526000307175
439 11.92923270232228 -58.10625518092986 13.67675347153576
440 54.80247055509491 -22.69995743909683 12.9410481198645
441 58.81030303522419 7.742552091474479 7.058951880214317
442 19.06716755297363 56.1701020210262 13.92798570136388
443 56.00363362995284 19.55049463466537 13.84423148001792
444 19.06716755297375 -56.17010202102615 13.92798570136389
445 58.17831910664478 -11.5723994940432 6.072014296684373
446 26.23573641830147 53.20078337661396 6.072014297596844
447 26.23573641830166 -53.20078337661387 6.07201429759664
448 32.95536160821457 49.32120588666727 13.92798570381524
449 32.9553616082148 -49.32120588666713 13.92798570381521
450 49.32120588666717 -32.95536160821474 6.072014296184729
451 49.32120588666704 32.95536160821492 6.072014296184746
452 44.41770315671776 -39.31551245720848 13.87448927792045
453 44.59770237344722 39.11115135544478 13.92798570351772
454 39.11115135544467 -44.59770237344732 6.072014296482227
455 39.11115135544448 44.59770237344748 6.072014296482039
456 59.19109823561913 -3.879577431938123 13.92798570474734
457 53.20078337661382 26.23573641830178 13.92799139631807
458 52.34058546495968 -27.91293556162818 14.3668586331324
459 59.28467910841629 1.998916909043715 5.634202359361874
460 57.78152285763766 13.4150850742159 5.633141362942558
461 56.74724501297115 -17.27480950241979 14.36579764797152
462 5.007099205157571 -59.10624729911692 15.34942159785971
463 5.302439496763167 -59.08045076173065 4.793889154427788
464 5.008333374169281 59.10614258863093 15.34897126843596
465 5.301672616676443 59.08051966762098 4.793503587694046
466 53.06659279920279 3.703708122696751 19.99999999999999
467 46.73109908565061 -24.10350716475569 19.99999999999999
468 6.849512312940775 15.81827111150031 20.00000000000001
469 6.874854279545501 -7.860730151771736 20
470 46.74796631324477 24.38784722237931 20
471 34.92681954216442 -39.21233072752114 19.99999999999998
472 34.85438012963995 39.29345885869665 20
473 6.866670613886131 -23.67211432041196 20
474 6.843375518984223 31.6476351313913 20
475 6.716888370441184 -39.33036198698019 19.99999999999999
476 51.99848620405372 -10.12655596224069 19.99999999999999
477 22.81268945225294 47.1395263324072 20
478 22.95031737286597 -47.13497740830551 19.99999999999999
479 6.006233141129899 47.44971207981265 20.00000000000001
480 10.46399071493868 -51.54506186778158 20
481 6.696728460397373 39.53942796040459 19.99999999999999
482 13.63533741780622 35.59262205611444 19.99999999999999
483 13.66907375081916 27.72732117510053 19.99999999999999
484 20.4618878858842 31.66460170952769 20.00000000000001
485 20.48096183539115 23.8188538263082 20.00000000000001
486 27.2605829266961 27.74504798485084 20.00000000000001
487 27.27811462108219 19.91007231906355 20.00000000000002
488 20.50183506679885 15.97795110774025 20.00000000000001
489 27.29862216948722 12.07268750812638 20.00000000000001
490 20.51799690755769 8.092266600117803 19.99999999999999
491 27.32714757980709 4.231332645959066 20
492 34.09044702644189 8.175444801314169 19.99999999999999
493 34.11427537970069 0.3476964143828374 20
494 27.35165510667514 -3.591526610369581 20
495 34.14113540105929 -7.480249943822965 20
496 27.38283831580365 -11.41642383154689 19.99999999999999
497 34.14357705300042 -15.26208260480188 19.99999999999999
498 27.36807207838087 -19.35429022834813 19.99999999999998
499 20.62337809164018 -15.40120474762655 19.99999999999999
500 20.58783926810109 -23.38767068782975 19.99999999999998
501 34.10638008620631 -23.21567036527437 20
502 40.49338478766155 -3.739058749599716 19.99999999999999
503 33.96485689266984 23.83515217914232 20.00000000000002
504 27.78822962307481 35.71262801688025 20
505 13.79556771923835 -19.45783011176445 19.99999999999999
506 13.74204570320153 44.04372068344628 19.99999999999999
507 6.844330757690368 23.75478429361631 20.00000000000001
508 21.09483950786665 39.69171221088007 20
509 6.857066471418229 -31.5265511803509 19.99999999999999
510 13.67523413538867 -35.46711420060083 20
511 13.93452984836606 -44.24862805739134 20
512 20.89513469223232 -39.63751414461125 19.99999999999999
513 20.4563263195902 -31.68039294408726 19.99999999999999
514 27.94158579213099 -35.62931357279243 19.99999999999998
515 27.48930141997787 -27.39117177053595 20
516 34.20102394964197 -31.25532066668673 19.99999999999999
517 13.7598382373942 -27.46356640204949 19.99999999999999
518 40.46179885696925 -11.4890429504627 20
519 33.97750091923979 16.00666978105913 20
520 40.61791183841687 12.05785027575843 19.99999999999999
521 40.55575145476192 4.045622986988985 20
522 34.03609641054945 31.65506762993615 20
523 6.849478968938821 7.933656422788761 20
524 6.846386620235416 0.003609644617726726 20
525 13.75061081683994 -3.79727062903074 19.99999999999999
526 13.7123459198809 4.095243673502702 20
527 13.694759065383 19.87195451734045 20.00000000000001
528 13.69858104885408 11.9873210796569 20.00000000000002
529 40.16397950663784 27.58522809493095 20.00000000000001
530 6.881383984303484 -15.72346777404626 19.99999999999999
531 20.56993178552818 0.2792228860543333 20
532 20.59755585976807 -7.59174568315812 19.99999999999999
533 13.75389177043657 -11.63870826740585 20
534 40.56632288558404 -19.50456367559145 19.99999999999999
535 40.38050473589266 19.94032719272659 20
536 40.1983222023843 -27.27433777650254 19.99999999999999
537 16.71047442071536 50.41075123805212 19.99999999999999
538 46.94516862955716 8.218840694361349 20
539 48.53882252527215 16.17093537344179 20
540 47.58236081474227 -16.00701140585119 20
541 40.63226502888659 34.52451392533827 20
542 53.11862014183926 -3.553835711758145 19.99999999999999
543 28.71996032495887 43.37810152603031 20.00000000000001
544 40.48906188270806 -34.60051242797434 19.99999999999999
545 28.74724800097934 -43.340905234861 19.99999999999999
546 17.08030462196058 -51.00568082659915 19.99999999999998
547 46.86684397357371 -0.2805089063985506 20
548 6.060954832584607 -46.98986924494142 20
549 10.76096697311353 51.98807430038292 20.00000000000001
550 52.93163529995857 10.23775395557622 20
551 46.07207469617933 -7.464668243056289 19.99999999999999
552 45.16995361779082 -30.34959659008765 19.99999999999999
553 45.1950969470895 30.45344164792978 19.99999999999999
554 5.106158502703796 -53.81794929027574 19.99999999999999
555 5.011769766442804 53.91669312239186 20.00000000000001
$EndNodes
$Elements
931
1 2 2 1 1 27 193 191
2 2 2 1 1 296 348 286
3 2 2 1 1 26 193 27
4 2 2 1 1 271 279 185
5 2 2 1 1 195 273 198
6 2 2 1 1 196 271 270
7 2 2 1 1 196 270 181
8 2 2 1 1 180 343 277
9 2 2 1 1 183 296 284
10 2 2 1 1 289 295 287
11 2 2 1 1 185 337 271
12 2 2 1 1 313 346 179
13 2 2 1 1 354 363 175
14 2 2 1 1 183 284 283
15 2 2 1 1 330 339 188
16 2 2 1 1 194 273 195
17 2 2 1 1 174 348 296
18 2 2 1 1 193 278 191
19 2 2 1 1 284 296 286
20 2 2 1 1 265 363 354
21 2 2 1 1 273 274 198
22 2 2 1 1 354 364 265
23 2 2 1 1 271 337 270
24 2 2 1 1 265 364 281
25 2 2 1 1 39 339 40
26 2 2 1 1 275 302 177
27 2 2 1 1 343 356 277
28 2 2 1 1 289 322 295
29 2 2 1 1 298 342 189
30 2 2 1 1 336 351 192
31 2 2 1 1 272 279 271
32 2 2 1 1 352 360 237
33 2 2 1 1 196 272 271
34 2 2 1 1 273 283 274
35 2 2 1 1 279 299 268
36 2 2 1 1 177 339 275
37 2 2 1 1 359 365 182
38 2 2 1 1 188 382 330
39 2 2 1 1 313 349 346
40 2 2 1 1 275 339 330
41 2 2 1 1 269 365 359
42 2 2 1 1 194 195 181
43 2 2 1 1 190 273 194
44 2 2 1 1 282 351 336
45 2 2 1 1 292 372 334
46 2 2 1 1 41 303 42
47 2 2 1 1 179 366 313
48 2 2 1 1 304 360 352
49 2 2 1 1 188 339 39
50 2 2 1 1 337 369 270
51 2 2 1 1 189 331 298
52 2 2 1 1 340 347 309
53 2 2 1 1 64 194 181
54 2 2 1 1 190 194 65
55 2 2 1 1 181 270 63
56 2 2 1 1 277 361 180
57 2 2 1 1 278 350 256
58 2 2 1 1 177 303 41
59 2 2 1 1 272 299 279
60 2 2 1 1 40 339 177
61 2 2 1 1 334 367 292
62 2 2 1 1 280 298 297
63 2 2 1 1 283 284 274
64 2 2 1 1 280 297 248
65 2 2 1 1 268 299 267
66 2 2 1 1 186 350 278
67 2 2 1 1 304 353 303
68 2 2 1 1 297 305 248
69 2 2 1 1 201 300 200
70 2 2 1 1 204 300 201
71 2 2 1 1 204 324 301
72 2 2 1 1 307 380 376
73 2 2 1 1 225 311 228
74 2 2 1 1 233 326 253
75 2 2 1 1 301 324 249
76 2 2 1 1 336 357 345
77 2 2 1 1 248 305 247
78 2 2 1 1 195 196 181
79 2 2 1 1 192 357 336
80 2 2 1 1 305 306 247
81 2 2 1 1 239 311 225
82 2 2 1 1 306 323 314
83 2 2 1 1 279 380 185
84 2 2 1 1 193 385 379
85 2 2 1 1 221 326 233
86 2 2 1 1 246 330 263
87 2 2 1 1 231 312 237
88 2 2 1 1 228 311 241
89 2 2 1 1 306 314 212
90 2 2 1 1 328 329 254
91 2 2 1 1 182 351 282
92 2 2 1 1 302 303 177
93 2 2 1 1 314 323 218
94 2 2 1 1 284 285 274
95 2 2 1 1 204 301 300
96 2 2 1 1 212 317 306
97 2 2 1 1 250 328 254
98 2 2 1 1 296 388 174
99 2 2 1 1 310 311 262
100 2 2 1 1 379 385 25
101 2 2 1 1 306 317 247
102 2 2 1 1 319 363 329
103 2 2 1 1 183 276 50
104 2 2 1 1 183 283 276
105 2 2 1 1 305 323 306
106 2 2 1 1 185 307 15
107 2 2 1 1 14 337 185
108 2 2 1 1 329 332 244
109 2 2 1 1 51 183 50
110 2 2 1 1 50 276 49
111 2 2 1 1 195 197 196
112 2 2 1 1 213 317 212
113 2 2 1 1 302 304 303
114 2 2 1 1 175 319 318
115 2 2 1 1 184 316 22
116 2 2 1 1 13 337 14
117 2 2 1 1 251 301 249
118 2 2 1 1 241 309 308
119 2 2 1 1 175 318 20
120 2 2 1 1 220 317 213
121 2 2 1 1 224 323 240
122 2 2 1 1 206 321 207
123 2 2 1 1 240 323 305
124 2 2 1 1 14 185 15
125 2 2 1 1 328 332 329
126 2 2 1 1 61 192 60
127 2 2 1 1 205 324 204
128 2 2 1 1 218 323 224
129 2 2 1 1 15 307 16
130 2 2 1 1 16 307 173
131 2 2 1 1 284 286 285
132 2 2 1 1 206 322 321
133 2 2 1 1 217 327 227
134 2 2 1 1 222 335 230
135 2 2 1 1 241 310 309
136 2 2 1 1 16 173 17
137 2 2 1 1 23 316 186
138 2 2 1 1 53 174 52
139 2 2 1 1 259 260 236
140 2 2 1 1 243 277 256
141 2 2 1 1 23 186 24
142 2 2 1 1 21 318 184
143 2 2 1 1 22 316 23
144 2 2 1 1 59 182 58
145 2 2 1 1 21 184 22
146 2 2 1 1 298 386 342
147 2 2 1 1 20 318 21
148 2 2 1 1 259 264 260
149 2 2 1 1 228 241 238
150 2 2 1 1 249 324 216
151 2 2 1 1 207 321 210
152 2 2 1 1 231 237 223
153 2 2 1 1 224 239 225
154 2 2 1 1 234 317 220
155 2 2 1 1 203 295 206
156 2 2 1 1 208 324 205
157 2 2 1 1 240 257 239
158 2 2 1 1 333 334 261
159 2 2 1 1 266 267 251
160 2 2 1 1 19 175 20
161 2 2 1 1 297 298 257
162 2 2 1 1 200 300 299
163 2 2 1 1 56 176 55
164 2 2 1 1 224 240 239
165 2 2 1 1 257 262 239
166 2 2 1 1 240 297 257
167 2 2 1 1 221 233 220
168 2 2 1 1 233 245 234
169 2 2 1 1 253 275 245
170 2 2 1 1 235 333 261
171 2 2 1 1 233 234 220
172 2 2 1 1 207 210 209
173 2 2 1 1 218 224 219
174 2 2 1 1 266 268 267
175 2 2 1 1 244 332 232
176 2 2 1 1 253 302 275
177 2 2 1 1 210 213 212
178 2 2 1 1 210 212 209
179 2 2 1 1 245 246 234
180 2 2 1 1 246 263 248
181 2 2 1 1 224 225 219
182 2 2 1 1 290 293 289
183 2 2 1 1 263 280 248
184 2 2 1 1 219 327 217
185 2 2 1 1 233 253 245
186 2 2 1 1 241 311 310
187 2 2 1 1 238 243 242
188 2 2 1 1 215 220 213
189 2 2 1 1 225 228 226
190 2 2 1 1 211 218 217
191 2 2 1 1 240 305 297
192 2 2 1 1 246 248 247
193 2 2 1 1 228 238 232
194 2 2 1 1 246 247 234
195 2 2 1 1 215 221 220
196 2 2 1 1 243 256 255
197 2 2 1 1 209 211 208
198 2 2 1 1 216 324 208
199 2 2 1 1 207 209 208
200 2 2 1 1 218 219 217
201 2 2 1 1 247 317 234
202 2 2 1 1 215 335 222
203 2 2 1 1 206 207 205
204 2 2 1 1 222 223 221
205 2 2 1 1 203 205 204
206 2 2 1 1 265 281 252
207 2 2 1 1 252 266 251
208 2 2 1 1 258 259 236
209 2 2 1 1 203 206 205
210 2 2 1 1 207 208 205
211 2 2 1 1 195 198 197
212 2 2 1 1 203 204 201
213 2 2 1 1 210 214 213
214 2 2 1 1 288 290 289
215 2 2 1 1 250 251 249
216 2 2 1 1 211 216 208
217 2 2 1 1 288 289 287
218 2 2 1 1 211 217 216
219 2 2 1 1 229 231 223
220 2 2 1 1 225 226 219
221 2 2 1 1 202 203 201
222 2 2 1 1 227 249 216
223 2 2 1 1 232 332 226
224 2 2 1 1 235 236 231
225 2 2 1 1 214 215 213
226 2 2 1 1 243 255 242
227 2 2 1 1 286 287 285
228 2 2 1 1 228 232 226
229 2 2 1 1 202 295 203
230 2 2 1 1 259 282 264
231 2 2 1 1 238 242 232
232 2 2 1 1 215 222 221
233 2 2 1 1 32 178 33
234 2 2 1 1 43 179 44
235 2 2 1 1 40 177 41
236 2 2 1 1 34 189 35
237 2 2 1 1 29 180 30
238 2 2 1 1 38 188 39
239 2 2 1 1 210 321 214
240 2 2 1 1 36 172 37
241 2 2 1 1 226 327 219
242 2 2 1 1 291 292 290
243 2 2 1 1 250 252 251
244 2 2 1 1 222 230 229
245 2 2 1 1 222 229 223
246 2 2 1 1 226 332 327
247 2 2 1 1 217 227 216
248 2 2 1 1 229 333 235
249 2 2 1 1 288 291 290
250 2 2 1 1 252 281 266
251 2 2 1 1 214 335 215
252 2 2 1 1 227 250 249
253 2 2 1 1 250 254 252
254 2 2 1 1 199 202 201
255 2 2 1 1 45 187 46
256 2 2 1 1 230 333 229
257 2 2 1 1 229 235 231
258 2 2 1 1 254 265 252
259 2 2 1 1 235 258 236
260 2 2 1 1 235 261 258
261 2 2 1 1 242 244 232
262 2 2 1 1 286 288 287
263 2 2 1 1 291 294 292
264 2 2 1 1 261 269 258
265 2 2 1 1 27 191 28
266 2 2 1 1 197 272 196
267 2 2 1 1 199 201 200
268 2 2 1 1 64 181 63
269 2 2 1 1 65 194 64
270 2 2 1 1 66 190 65
271 2 2 1 1 63 270 62
272 2 2 1 1 307 376 173
273 2 2 1 1 199 200 197
274 2 2 1 1 198 199 197
275 2 2 1 1 200 272 197
276 2 2 1 1 299 300 267
277 2 2 1 1 295 322 206
278 2 2 1 1 256 356 278
279 2 2 1 1 327 332 328
280 2 2 1 1 282 359 182
281 2 2 1 1 212 314 209
282 2 2 1 1 211 314 218
283 2 2 1 1 227 328 250
284 2 2 1 1 200 299 272
285 2 2 1 1 295 375 287
286 2 2 1 1 278 379 186
287 2 2 1 1 262 311 239
288 2 2 1 1 236 312 231
289 2 2 1 1 176 373 372
290 2 2 1 1 56 325 176
291 2 2 1 1 243 308 277
292 2 2 1 1 318 320 184
293 2 2 1 1 31 340 32
294 2 2 1 1 293 374 322
295 2 2 1 1 241 308 238
296 2 2 1 1 30 347 31
297 2 2 1 1 44 346 45
298 2 2 1 1 193 379 278
299 2 2 1 1 28 343 29
300 2 2 1 1 223 326 221
301 2 2 1 1 53 315 174
302 2 2 1 1 245 330 246
303 2 2 1 1 273 384 283
304 2 2 1 1 281 364 173
305 2 2 1 1 257 331 262
306 2 2 1 1 293 322 289
307 2 2 1 1 209 314 211
308 2 2 1 1 327 328 227
309 2 2 1 1 178 341 33
310 2 2 1 1 189 342 35
311 2 2 1 1 172 344 37
312 2 2 1 1 175 363 319
313 2 2 1 1 347 361 309
314 2 2 1 1 187 345 46
315 2 2 1 1 304 366 353
316 2 2 1 1 260 313 312
317 2 2 1 1 176 372 370
318 2 2 1 1 312 352 237
319 2 2 1 1 290 338 293
320 2 2 1 1 26 385 193
321 2 2 1 1 262 358 310
322 2 2 1 1 303 353 42
323 2 2 1 1 320 362 184
324 2 2 1 1 288 348 291
325 2 2 1 1 294 387 315
326 2 2 1 1 267 301 251
327 2 2 1 1 192 351 60
328 2 2 1 1 256 350 255
329 2 2 1 1 260 312 236
330 2 2 1 1 59 351 182
331 2 2 1 1 189 341 331
332 2 2 1 1 57 325 56
333 2 2 1 1 274 355 198
334 2 2 1 1 173 376 281
335 2 2 1 1 238 308 243
336 2 2 1 1 282 336 264
337 2 2 1 1 237 326 223
338 2 2 1 1 275 330 245
339 2 2 1 1 319 320 318
340 2 2 1 1 32 340 178
341 2 2 1 1 180 347 30
342 2 2 1 1 179 346 44
343 2 2 1 1 294 372 292
344 2 2 1 1 29 343 180
345 2 2 1 1 54 315 53
346 2 2 1 1 45 346 187
347 2 2 1 1 291 387 294
348 2 2 1 1 191 343 28
349 2 2 1 1 174 388 52
350 2 2 1 1 33 341 34
351 2 2 1 1 35 342 36
352 2 2 1 1 37 344 38
353 2 2 1 1 298 331 257
354 2 2 1 1 46 345 47
355 2 2 1 1 264 349 260
356 2 2 1 1 172 386 280
357 2 2 1 1 19 354 175
358 2 2 1 1 280 378 172
359 2 2 1 1 302 360 304
360 2 2 1 1 31 347 340
361 2 2 1 1 268 380 279
362 2 2 1 1 309 383 340
363 2 2 1 1 329 363 254
364 2 2 1 1 277 356 256
365 2 2 1 1 259 359 282
366 2 2 1 1 269 359 258
367 2 2 1 1 49 368 4
368 2 2 1 1 1 369 13
369 2 2 1 1 253 360 302
370 2 2 1 1 341 358 331
371 2 2 1 1 285 355 274
372 2 2 1 1 199 355 202
373 2 2 1 1 278 356 191
374 2 2 1 1 300 301 267
375 2 2 1 1 292 338 290
376 2 2 1 1 322 374 321
377 2 2 1 1 315 370 294
378 2 2 1 1 42 353 43
379 2 2 1 1 372 373 334
380 2 2 1 1 350 362 255
381 2 2 1 1 286 348 288
382 2 2 1 1 316 350 186
383 2 2 1 1 173 364 17
384 2 2 1 1 230 367 333
385 2 2 1 1 183 388 296
386 2 2 1 1 338 367 230
387 2 2 1 1 43 353 179
388 2 2 1 1 182 365 58
389 2 2 1 1 4 368 66
390 2 2 1 1 62 369 1
391 2 2 1 1 185 380 307
392 2 2 1 1 176 370 55
393 2 2 1 1 237 360 326
394 2 2 1 1 60 351 59
395 2 2 1 1 242 371 244
396 2 2 1 1 261 373 269
397 2 2 1 1 214 374 335
398 2 2 1 1 260 349 313
399 2 2 1 1 24 379 25
400 2 2 1 1 281 376 266
401 2 2 1 1 34 341 189
402 2 2 1 1 38 344 188
403 2 2 1 1 36 342 172
404 2 2 1 1 313 352 312
405 2 2 1 1 280 386 298
406 2 2 1 1 329 389 319
407 2 2 1 1 374 390 335
408 2 2 1 1 57 365 325
409 2 2 1 1 376 380 268
410 2 2 1 1 346 349 187
411 2 2 1 1 54 370 315
412 2 2 1 1 371 389 244
413 2 2 1 1 320 371 362
414 2 2 1 1 316 362 350
415 2 2 1 1 325 373 176
416 2 2 1 1 331 358 262
417 2 2 1 1 326 360 253
418 2 2 1 1 325 365 269
419 2 2 1 1 18 354 19
420 2 2 1 1 51 388 183
421 2 2 1 1 370 372 294
422 2 2 1 1 47 357 48
423 2 2 1 1 269 373 325
424 2 2 1 1 308 361 277
425 2 2 1 1 355 375 202
426 2 2 1 1 313 366 352
427 2 2 1 1 309 361 308
428 2 2 1 1 258 359 259
429 2 2 1 1 198 355 199
430 2 2 1 1 48 381 3
431 2 2 1 1 190 384 273
432 2 2 1 1 3 381 61
433 2 2 1 1 178 358 341
434 2 2 1 1 202 375 295
435 2 2 1 1 18 364 354
436 2 2 1 1 264 377 349
437 2 2 1 1 358 383 310
438 2 2 1 1 345 357 47
439 2 2 1 1 310 383 309
440 2 2 1 1 244 389 329
441 2 2 1 1 66 368 190
442 2 2 1 1 270 369 62
443 2 2 1 1 191 356 343
444 2 2 1 1 184 362 316
445 2 2 1 1 230 390 338
446 2 2 1 1 368 384 190
447 2 2 1 1 335 390 230
448 2 2 1 1 180 361 347
449 2 2 1 1 349 377 187
450 2 2 1 1 254 363 265
451 2 2 1 1 276 368 49
452 2 2 1 1 13 369 337
453 2 2 1 1 17 364 18
454 2 2 1 1 315 387 174
455 2 2 1 1 285 375 355
456 2 2 1 1 333 367 334
457 2 2 1 1 58 365 57
458 2 2 1 1 330 382 263
459 2 2 1 1 55 370 54
460 2 2 1 1 276 384 368
461 2 2 1 1 378 382 344
462 2 2 1 1 255 371 242
463 2 2 1 1 345 377 336
464 2 2 1 1 321 374 214
465 2 2 1 1 2 385 26
466 2 2 1 1 334 373 261
467 2 2 1 1 25 385 2
468 2 2 1 1 293 390 374
469 2 2 1 1 292 367 338
470 2 2 1 1 178 383 358
471 2 2 1 1 174 387 348
472 2 2 1 1 320 389 371
473 2 2 1 1 287 375 285
474 2 2 1 1 266 376 268
475 2 2 1 1 61 381 192
476 2 2 1 1 336 377 264
477 2 2 1 1 263 378 280
478 2 2 1 1 353 366 179
479 2 2 1 1 186 379 24
480 2 2 1 1 283 384 276
481 2 2 1 1 352 366 304
482 2 2 1 1 338 390 293
483 2 2 1 1 348 387 291
484 2 2 1 1 362 371 255
485 2 2 1 1 52 388 51
486 2 2 1 1 344 382 188
487 2 2 1 1 172 378 344
488 2 2 1 1 187 377 345
489 2 2 1 1 263 382 378
490 2 2 1 1 342 386 172
491 2 2 1 1 319 389 320
492 2 2 1 1 340 383 178
493 2 2 1 1 192 381 357
494 2 2 1 1 357 381 48
495 2 2 2 2 74 67 396
496 2 2 2 2 73 84 409
497 2 2 2 2 398 405 406
498 2 2 2 2 5 67 74
499 2 2 2 2 6 84 73
500 2 2 2 2 392 402 407
501 2 2 2 2 402 403 407
502 2 2 2 2 401 73 409
503 2 2 2 2 405 398 412
504 2 2 2 2 398 406 413
505 2 2 2 2 396 67 410
506 2 2 2 2 75 74 396
507 2 2 2 2 83 82 394
508 2 2 2 2 77 76 392
509 2 2 2 2 80 79 393
510 2 2 2 2 70 71 391
511 2 2 2 2 69 70 400
512 2 2 2 2 68 69 395
513 2 2 2 2 71 72 397
514 2 2 2 2 72 73 401
515 2 2 2 2 391 398 399
516 2 2 2 2 70 391 400
517 2 2 2 2 391 71 397
518 2 2 2 2 395 69 400
519 2 2 2 2 397 72 401
520 2 2 2 2 391 397 398
521 2 2 2 2 391 399 400
522 2 2 2 2 402 399 403
523 2 2 2 2 395 400 402
524 2 2 2 2 400 399 402
525 2 2 2 2 402 392 408
526 2 2 2 2 67 68 410
527 2 2 2 2 403 399 413
528 2 2 2 2 393 403 413
529 2 2 2 2 397 401 412
530 2 2 2 2 401 394 412
531 2 2 2 2 408 396 410
532 2 2 2 2 75 396 404
533 2 2 2 2 394 82 405
534 2 2 2 2 404 396 408
535 2 2 2 2 392 76 404
536 2 2 2 2 80 393 406
537 2 2 2 2 406 393 413
538 2 2 2 2 394 405 412
539 2 2 2 2 76 75 404
540 2 2 2 2 82 81 405
541 2 2 2 2 77 392 407
542 2 2 2 2 83 394 409
543 2 2 2 2 81 80 406
544 2 2 2 2 78 77 407
545 2 2 2 2 393 79 411
546 2 2 2 2 395 402 408
547 2 2 2 2 403 393 411
548 2 2 2 2 394 401 409
549 2 2 2 2 84 83 409
550 2 2 2 2 79 78 411
551 2 2 2 2 68 395 410
552 2 2 2 2 398 397 412
553 2 2 2 2 399 398 413
554 2 2 2 2 395 408 410
555 2 2 2 2 405 81 406
556 2 2 2 2 392 404 408
557 2 2 2 2 407 403 411
558 2 2 2 2 78 407 411
559 2 2 3 4 417 443 434
560 2 2 3 4 443 457 434
561 2 2 3 4 416 437 436
562 2 2 3 4 438 439 418
563 2 2 3 4 416 442 437
564 2 2 3 4 439 444 418
565 2 2 3 4 425 442 416
566 2 2 3 4 418 444 426
567 2 2 3 4 416 446 425
568 2 2 3 4 426 447 418
569 2 2 3 4 424 445 431
570 2 2 3 4 422 450 429
571 2 2 3 4 430 451 423
572 2 2 3 4 421 449 427
573 2 2 3 4 428 448 420
574 2 2 3 4 429 452 422
575 2 2 3 4 423 453 430
576 2 2 3 4 427 454 421
577 2 2 3 4 420 455 428
578 2 2 3 4 431 456 424
579 2 2 3 4 423 451 434
580 2 2 3 4 434 457 423
581 2 2 3 4 435 443 417
582 2 2 3 4 431 445 419
583 2 2 3 4 425 446 420
584 2 2 3 4 421 447 426
585 2 2 3 4 433 450 422
586 2 2 3 4 420 448 425
587 2 2 3 4 426 449 421
588 2 2 3 4 427 452 429
589 2 2 3 4 430 453 428
590 2 2 3 4 428 455 430
591 2 2 3 4 429 454 427
592 2 2 3 4 424 456 432
593 2 2 3 4 419 461 431
594 2 2 3 4 432 459 424
595 2 2 3 4 417 460 435
596 2 2 3 4 422 458 433
597 2 2 3 4 99 434 100
598 2 2 3 4 122 435 432
599 2 2 3 4 93 433 419
600 2 2 3 4 88 421 89
601 2 2 3 4 103 420 104
602 2 2 3 4 117 422 116
603 2 2 3 4 126 423 125
604 2 2 3 4 120 431 119
605 2 2 3 4 123 435 122
606 2 2 3 4 92 433 93
607 2 2 3 4 113 426 112
608 2 2 3 4 130 425 129
609 2 2 3 4 122 432 121
610 2 2 3 4 95 424 96
611 2 2 3 4 101 430 102
612 2 2 3 4 90 429 91
613 2 2 3 4 128 428 127
614 2 2 3 4 115 427 114
615 2 2 3 4 98 417 99
616 2 2 3 4 86 418 87
617 2 2 3 4 105 416 106
618 2 2 3 4 93 419 94
619 2 2 3 4 417 434 99
620 2 2 3 4 106 436 107
621 2 2 3 4 85 438 86
622 2 2 3 4 130 442 425
623 2 2 3 4 426 444 112
624 2 2 3 4 95 445 424
625 2 2 3 4 422 452 116
626 2 2 3 4 126 453 423
627 2 2 3 4 421 454 89
628 2 2 3 4 103 455 420
629 2 2 3 4 105 446 416
630 2 2 3 4 418 447 87
631 2 2 3 4 429 450 91
632 2 2 3 4 101 451 430
633 2 2 3 4 427 449 114
634 2 2 3 4 128 448 428
635 2 2 3 4 120 456 431
636 2 2 3 4 434 451 100
637 2 2 3 4 420 446 104
638 2 2 3 4 88 447 421
639 2 2 3 4 123 443 435
640 2 2 3 4 92 450 433
641 2 2 3 4 425 448 129
642 2 2 3 4 113 449 426
643 2 2 3 4 419 445 94
644 2 2 3 4 432 456 121
645 2 2 3 4 90 454 429
646 2 2 3 4 430 455 102
647 2 2 3 4 428 453 127
648 2 2 3 4 115 452 427
649 2 2 3 4 423 457 125
650 2 2 3 4 111 439 110
651 2 2 3 4 132 437 131
652 2 2 3 4 416 436 106
653 2 2 3 4 86 438 418
654 2 2 3 4 133 415 134
655 2 2 3 4 109 414 108
656 2 2 3 4 415 439 438
657 2 2 3 4 436 437 414
658 2 2 3 4 433 440 419
659 2 2 3 4 435 441 432
660 2 2 3 4 124 457 443
661 2 2 3 4 131 442 130
662 2 2 3 4 112 444 111
663 2 2 3 4 124 443 123
664 2 2 3 4 94 445 95
665 2 2 3 4 129 448 128
666 2 2 3 4 114 449 113
667 2 2 3 4 100 451 101
668 2 2 3 4 91 450 92
669 2 2 3 4 104 446 105
670 2 2 3 4 87 447 88
671 2 2 3 4 127 453 126
672 2 2 3 4 116 452 115
673 2 2 3 4 89 454 90
674 2 2 3 4 102 455 103
675 2 2 3 4 121 456 120
676 2 2 3 4 125 457 124
677 2 2 3 4 96 459 97
678 2 2 3 4 119 461 118
679 2 2 3 4 118 458 117
680 2 2 3 4 97 460 98
681 2 2 3 4 7 463 85
682 2 2 3 4 9 464 132
683 2 2 3 4 110 462 10
684 2 2 3 4 107 465 8
685 2 2 3 4 437 442 131
686 2 2 3 4 111 444 439
687 2 2 3 4 440 458 118
688 2 2 3 4 441 460 97
689 2 2 3 4 118 461 440
690 2 2 3 4 97 459 441
691 2 2 3 4 436 465 107
692 2 2 3 4 85 463 438
693 2 2 3 4 134 463 7
694 2 2 3 4 108 464 9
695 2 2 3 4 10 462 133
696 2 2 3 4 8 465 109
697 2 2 3 4 435 460 441
698 2 2 3 4 433 458 440
699 2 2 3 4 440 461 419
700 2 2 3 4 441 459 432
701 2 2 3 4 439 462 110
702 2 2 3 4 132 464 437
703 2 2 3 4 414 465 436
704 2 2 3 4 438 463 415
705 2 2 3 4 415 462 439
706 2 2 3 4 437 464 414
707 2 2 3 4 424 459 96
708 2 2 3 4 431 461 119
709 2 2 3 4 117 458 422
710 2 2 3 4 98 460 417
711 2 2 3 4 415 463 134
712 2 2 3 4 414 464 108
713 2 2 3 4 133 462 415
714 2 2 3 4 109 465 414
715 2 2 4 210102 163 539 162
716 2 2 4 210102 158 540 157
717 2 2 4 210102 504 543 508
718 2 2 4 210102 512 545 514
719 2 2 4 210102 478 545 512
720 2 2 4 210102 508 543 477
721 2 2 4 210102 506 508 477
722 2 2 4 210102 478 512 511
723 2 2 4 210102 470 539 163
724 2 2 4 210102 511 546 478
725 2 2 4 210102 477 537 506
726 2 2 4 210102 476 540 158
727 2 2 4 210102 157 540 467
728 2 2 4 210102 537 549 506
729 2 2 4 210102 506 549 479
730 2 2 4 210102 539 550 162
731 2 2 4 210102 471 516 514
732 2 2 4 210102 472 543 504
733 2 2 4 210102 514 545 471
734 2 2 4 210102 498 515 501
735 2 2 4 210102 521 547 538
736 2 2 4 210102 500 515 498
737 2 2 4 210102 514 516 515
738 2 2 4 210102 510 517 509
739 2 2 4 210102 513 515 500
740 2 2 4 210102 515 516 501
741 2 2 4 210102 500 517 513
742 2 2 4 210102 504 522 472
743 2 2 4 210102 473 517 505
744 2 2 4 210102 513 517 510
745 2 2 4 210102 509 517 473
746 2 2 4 210102 480 546 511
747 2 2 4 210102 505 530 473
748 2 2 4 210102 526 528 523
749 2 2 4 210102 538 547 466
750 2 2 4 210102 490 528 526
751 2 2 4 210102 530 533 469
752 2 2 4 210102 511 548 480
753 2 2 4 210102 520 539 535
754 2 2 4 210102 540 551 518
755 2 2 4 210102 525 531 526
756 2 2 4 210102 525 532 531
757 2 2 4 210102 505 517 500
758 2 2 4 210102 505 533 530
759 2 2 4 210102 468 527 507
760 2 2 4 210102 523 528 468
761 2 2 4 210102 481 506 479
762 2 2 4 210102 468 507 144
763 2 2 4 210102 526 531 490
764 2 2 4 210102 147 481 479
765 2 2 4 210102 473 530 139
766 2 2 4 210102 504 508 484
767 2 2 4 210102 502 521 493
768 2 2 4 210102 475 511 510
769 2 2 4 210102 484 508 482
770 2 2 4 210102 138 509 473
771 2 2 4 210102 144 507 145
772 2 2 4 210102 474 482 481
773 2 2 4 210102 511 512 510
774 2 2 4 210102 482 506 481
775 2 2 4 210102 487 519 503
776 2 2 4 210102 486 522 504
777 2 2 4 210102 482 508 506
778 2 2 4 210102 475 510 509
779 2 2 4 210102 147 479 148
780 2 2 4 210102 524 526 523
781 2 2 4 210102 495 518 502
782 2 2 4 210102 483 484 482
783 2 2 4 210102 474 481 146
784 2 2 4 210102 142 524 523
785 2 2 4 210102 486 504 484
786 2 2 4 210102 475 509 137
787 2 2 4 210102 143 523 468
788 2 2 4 210102 136 475 137
789 2 2 4 210102 469 525 524
790 2 2 4 210102 503 522 486
791 2 2 4 210102 492 520 519
792 2 2 4 210102 485 486 484
793 2 2 4 210102 493 521 492
794 2 2 4 210102 489 519 487
795 2 2 4 210102 487 503 486
796 2 2 4 210102 512 514 513
797 2 2 4 210102 497 518 495
798 2 2 4 210102 495 502 493
799 2 2 4 210102 474 483 482
800 2 2 4 210102 146 481 147
801 2 2 4 210102 492 519 489
802 2 2 4 210102 525 526 524
803 2 2 4 210102 491 492 489
804 2 2 4 210102 145 474 146
805 2 2 4 210102 468 528 527
806 2 2 4 210102 492 521 520
807 2 2 4 210102 469 524 141
808 2 2 4 210102 491 493 492
809 2 2 4 210102 138 473 139
810 2 2 4 210102 483 485 484
811 2 2 4 210102 143 468 144
812 2 2 4 210102 142 523 143
813 2 2 4 210102 140 469 141
814 2 2 4 210102 485 487 486
815 2 2 4 210102 498 501 497
816 2 2 4 210102 137 509 138
817 2 2 4 210102 512 513 510
818 2 2 4 210102 514 515 513
819 2 2 4 210102 141 524 142
820 2 2 4 210102 496 497 495
821 2 2 4 210102 494 495 493
822 2 2 4 210102 145 507 474
823 2 2 4 210102 490 491 489
824 2 2 4 210102 488 489 487
825 2 2 4 210102 496 498 497
826 2 2 4 210102 491 494 493
827 2 2 4 210102 494 496 495
828 2 2 4 210102 159 476 158
829 2 2 4 210102 488 490 489
830 2 2 4 210102 474 507 483
831 2 2 4 210102 485 488 487
832 2 2 4 210102 164 470 163
833 2 2 4 210102 161 466 160
834 2 2 4 210102 157 467 156
835 2 2 4 210102 167 472 166
836 2 2 4 210102 499 500 498
837 2 2 4 210102 169 477 168
838 2 2 4 210102 154 471 153
839 2 2 4 210102 503 529 522
840 2 2 4 210102 496 499 498
841 2 2 4 210102 152 478 151
842 2 2 4 210102 139 530 140
843 2 2 4 210102 499 505 500
844 2 2 4 210102 150 480 149
845 2 2 4 210102 483 527 485
846 2 2 4 210102 507 527 483
847 2 2 4 210102 485 527 488
848 2 2 4 210102 490 531 491
849 2 2 4 210102 488 528 490
850 2 2 4 210102 527 528 488
851 2 2 4 210102 140 530 469
852 2 2 4 210102 496 532 499
853 2 2 4 210102 469 533 525
854 2 2 4 210102 491 531 494
855 2 2 4 210102 494 532 496
856 2 2 4 210102 535 539 470
857 2 2 4 210102 531 532 494
858 2 2 4 210102 501 536 534
859 2 2 4 210102 501 534 497
860 2 2 4 210102 532 533 499
861 2 2 4 210102 525 533 532
862 2 2 4 210102 520 535 519
863 2 2 4 210102 476 551 540
864 2 2 4 210102 529 535 470
865 2 2 4 210102 503 535 529
866 2 2 4 210102 534 536 467
867 2 2 4 210102 499 533 505
868 2 2 4 210102 516 544 536
869 2 2 4 210102 497 534 518
870 2 2 4 210102 516 536 501
871 2 2 4 210102 170 537 169
872 2 2 4 210102 169 537 477
873 2 2 4 210102 502 547 521
874 2 2 4 210102 534 540 518
875 2 2 4 210102 519 535 503
876 2 2 4 210102 471 544 516
877 2 2 4 210102 475 548 511
878 2 2 4 210102 135 548 136
879 2 2 4 210102 547 551 542
880 2 2 4 210102 542 551 476
881 2 2 4 210102 521 538 520
882 2 2 4 210102 529 541 522
883 2 2 4 210102 538 539 520
884 2 2 4 210102 544 552 536
885 2 2 4 210102 166 541 165
886 2 2 4 210102 522 541 472
887 2 2 4 210102 472 541 166
888 2 2 4 210102 160 542 159
889 2 2 4 210102 467 540 534
890 2 2 4 210102 155 544 154
891 2 2 4 210102 168 543 167
892 2 2 4 210102 159 542 476
893 2 2 4 210102 153 545 152
894 2 2 4 210102 466 542 160
895 2 2 4 210102 151 546 150
896 2 2 4 210102 167 543 472
897 2 2 4 210102 477 543 168
898 2 2 4 210102 154 544 471
899 2 2 4 210102 471 545 153
900 2 2 4 210102 152 545 478
901 2 2 4 210102 478 546 151
902 2 2 4 210102 150 546 480
903 2 2 4 210102 538 550 539
904 2 2 4 210102 135 554 548
905 2 2 4 210102 161 550 466
906 2 2 4 210102 467 552 156
907 2 2 4 210102 11 554 135
908 2 2 4 210102 164 553 470
909 2 2 4 210102 470 553 529
910 2 2 4 210102 149 554 11
911 2 2 4 210102 136 548 475
912 2 2 4 210102 148 555 12
913 2 2 4 210102 12 555 171
914 2 2 4 210102 171 549 170
915 2 2 4 210102 162 550 161
916 2 2 4 210102 536 552 467
917 2 2 4 210102 466 550 538
918 2 2 4 210102 518 551 502
919 2 2 4 210102 479 555 148
920 2 2 4 210102 529 553 541
921 2 2 4 210102 170 549 537
922 2 2 4 210102 466 547 542
923 2 2 4 210102 156 552 155
924 2 2 4 210102 548 554 480
925 2 2 4 210102 155 552 544
926 2 2 4 210102 165 553 164
927 2 2 4 210102 541 553 165
928 2 2 4 210102 480 554 149
929 2 2 4 210102 502 551 547
930 2 2 4 210102 549 555 479
931 2 2 4 210102 171 555 549
$EndElements
