$MeshFormat
2.2 0 8
$EndMeshFormat
$Nodes
218
1 -0 -15 -100
2 3.882286 -14.488887 -100
3 7.5 -12.990381 -100
4 10.606602 -10.606602 -100
5 12.990381 -7.5 -100
6 14.488887 -3.882286 -100
7 15 0 -100
8 14.488887 3.882286 -100
9 12.990381 7.5 -100
10 10.606602 10.606602 -100
11 7.5 12.990381 -100
12 3.882286 14.488887 -100
13 0 15 -100
14 -3.882286 14.488887 -100
15 -7.5 12.990381 -100
16 -10.606602 10.606602 -100
17 -12.990381 7.5 -100
18 -14.488887 3.882286 -100
19 -15 0 -100
20 -14.488887 -3.882286 -100
21 -12.990381 -7.5 -100
22 -10.606602 -10.606602 -100
23 -7.5 -12.990381 -100
24 -3.882286 -14.488887 -100
25 -0 -35 -50
26 9.058667 -33.807404 -50
27 17.5 -30.310889 -50
28 24.748737 -24.748737 -50
29 30.310889 -17.5 -50
30 33.807404 -9.058667 -50
31 35 0 -50
32 33.807404 9.058667 -50
33 30.310889 17.5 -50
34 24.748737 24.748737 -50
35 17.5 30.310889 -50
36 9.058667 33.807404 -50
37 0 35 -50
38 -9.058667 33.807404 -50
39 -17.5 30.310889 -50
40 -24.748737 24.748737 -50
41 -30.310889 17.5 -50
42 -33.807404 9.058667 -50
43 -35 0 -50
44 -33.807404 -9.058667 -50
45 -30.310889 -17.5 -50
46 -24.748737 -24.748737 -50
47 -17.5 -30.310889 -50
48 -9.058667 -33.807404 -50
49 -0 -60 0
50 15.529143 -57.95555 0
51 30 -51.961524 0
52 42.426407 -42.426407 0
53 51.961524 -30 0
54 57.95555 -15.529143 0
55 60 0 0
56 57.95555 15.529143 0
57 51.961524 30 0
58 42.426407 42.426407 0
59 30 51.961524 0
60 15.529143 57.95555 0
61 0 60 0
62 -15.529143 57.95555 0
63 -30 51.961524 0
64 -42.426407 42.426407 0
65 -51.961524 30 0
66 -57.95555 15.529143 0
67 -60 0 0
68 -57.95555 -15.529143 0
69 -51.961524 -30 0
70 -42.426407 -42.426407 0
71 -30 -51.961524 0
72 -15.529143 -57.95555 0
73 3.838190666666668 -14.3243215 -100
74 8.955778 -33.4234175 -50
75 14.829629 1.110223024625157e-16 -100
76 59.31851666666667 4.440892098500626e-16 0
77 -59.31851666666667 -4.440892098500626e-16 0
78 -14.829629 -1.110223024625157e-16 -100
79 14.829629 1.110223024625157e-16 -100
80 -14.829629 -1.110223024625157e-16 -100
81 59.31851666666667 4.440892098500626e-16 0
82 -59.31851666666667 -4.440892098500626e-16 0
83 -59.31851666666667 -4.440892098500626e-16 20
84 59.31851666666667 4.440892098500626e-16 20
85 59.31851666666667 4.440892098500626e-16 20
86 -59.31851666666667 -4.440892098500626e-16 20
87 14.80923037232501 -0.776114934716376 -100
88 5.314400596693448 13.84449344747559 -100
89 -11.52465317707408 9.332482625745612 -100
90 -12.43711212909061 -8.076750998378389 -100
91 25.60402505031561 -23.27561256311823 -50
92 34.12300983495286 -5.738072365080515 -50
93 31.80828491644932 13.6211047831091 -50
94 19.39478698456867 28.65578960108655 -50
95 0.8234525770748076 34.59262166028199 -50
96 -18.00944205363635 29.54636242867426 -50
97 -31.12427349929079 15.1192477296222 -50
98 -34.35733514032441 -4.107920214705944 -50
99 -26.68235652114537 -22.03082155467035 -50
100 -10.53592937322723 -32.95928490514139 -50
101 21.09006211019064 0 -82.84485042322933
102 27.81797098632241 0 -65.86759474635477
103 35.01013024084869 0 -49.08174670155688
104 42.6618747742409 0 -32.50035256690313
105 50.76713862088543 0 -16.1358606331476
106 56.41497950804099 18.33032246745068 0
107 47.98914273011904 34.86614249554762 0
108 34.86614249554771 47.98914273011897 0
109 18.33032246745081 56.41497950804094 0
110 1.257548989386237e-13 59.31851666666667 0
111 -18.33032246745062 56.414979508041 0
112 -34.86614249554753 47.98914273011911 0
113 -47.98914273011894 34.86614249554775 0
114 -56.41497950804095 18.33032246745077 0
115 -21.09006211019061 0 -82.84485042322927
116 -27.8179709863224 0 -65.86759474635474
117 -35.01013024084867 0 -49.08174670155685
118 -42.66187477424089 0 -32.5003525669031
119 -50.76713862088543 0 -16.1358606331476
120 7.414814612730185 12.84283553114024 -100
121 -7.414814612730186 12.84283553114023 -100
122 -2.842170943040401e-14 0 -100
123 7.414814612730185 12.84283553114024 -100
124 -7.414814612730186 12.84283553114023 -100
125 56.41497950804099 18.33032246745069 0
126 47.98914273011904 34.86614249554761 0
127 34.86614249554769 47.98914273011899 0
128 18.33032246745079 56.41497950804095 0
129 8.220827218963222e-14 59.31851666666667 0
130 -18.33032246745064 56.41497950804099 0
131 -34.86614249554756 47.98914273011908 0
132 -47.98914273011896 34.86614249554773 0
133 -56.41497950804095 18.33032246745077 0
134 -59.31851666666665 0 10.00000000000001
135 56.41497950804099 18.33032246745069 20
136 47.98914273011904 34.86614249554761 20
137 34.86614249554769 47.98914273011899 20
138 18.33032246745079 56.41497950804095 20
139 8.220827218963222e-14 59.31851666666667 20
140 -18.33032246745064 56.41497950804099 20
141 -34.86614249554756 47.98914273011908 20
142 -47.98914273011896 34.86614249554773 20
143 -56.41497950804095 18.33032246745077 20
144 59.31851666666665 0 10.00000000000001
145 56.41497950804099 18.33032246745069 20
146 47.98914273011904 34.86614249554761 20
147 34.86614249554769 47.98914273011899 20
148 18.33032246745079 56.41497950804095 20
149 8.220827218963222e-14 59.31851666666667 20
150 -18.33032246745064 56.41497950804099 20
151 -34.86614249554756 47.98914273011908 20
152 -47.98914273011896 34.86614249554773 20
153 -56.41497950804095 18.33032246745077 20
154 -39.54567777729693 0 19.99999999999999
155 -19.77283888926661 0 20
156 1.324164111693449e-10 0 20
157 19.77283888984475 0 20.00000000000001
158 39.54567777941631 0 20.00000000000002
159 -5.551378372424686 52.19195898687299 -12.80345489424885
160 -0.09474292834145205 19.12947953077884 -88.06234029637668
161 -28.90970357596345 15.0222335086665 -54.61246605106885
162 28.02686753241684 15.3798446571969 -56.02337913124103
163 36.02518434484713 15.47692202047471 -39.8334398567911
164 24.15299937899223 28.34936729376066 -44.11637384679442
165 -36.49910330656926 36.49910330656942 -14.48235834897256
166 14.69180532322054 26.84928734581715 -59.20767233717798
167 8.228108480553855 35.7031058277089 -45.44949797069938
168 13.97720490130512 13.87528995390634 -86.54466200850261
169 19.21973212143811 39.44255204470409 -29.97461377772714
170 -1.5091780116467 30.85910664827033 -58.52648992415725
171 -9.845610697511958 36.82461566753611 -42.20119327083338
172 46.158531980163 22.01760388790159 -15.40697080490408
173 -45.17188105758558 13.36167247948263 -23.38658007607085
174 35.24836836135327 26.99858048814422 -28.89283551152831
175 7.286107493530536 23.40302233390854 -74.04231382158186
176 -8.350797101027068 23.544531818002 -72.85932695259316
177 -13.97720490130528 13.87528995390616 -86.54466200850266
178 35.11890398227112 37.33013741368898 -15.189422434768
179 -36.5613932567376 14.28150770544625 -39.74139550007168
180 -25.56512135372242 27.7291708462166 -43.07982610608153
181 21.284920660013 46.50415166432181 -15.40110473082645
182 -16.67601055800326 26.68533474015798 -57.19055401356753
183 -23.45049466297497 37.89476609378887 -28.55688331545691
184 20.80223611389258 14.72990097107257 -71.59081315911125
185 1.146271633222171 42.35801433976441 -33.10388100575395
186 -36.37098180960578 27.12404042189564 -26.90167291872995
187 -21.80307016628879 47.4080558310006 -13.39115417829961
188 -21.428807764705 14.23595127607648 -71.00075138392125
189 7.99084520524308 52.65875225986444 -11.31619248558928
190 -47.08711202296269 24.03460527182511 -12.07386952154214
191 42.7869627941033 13.20687340579782 -28.11525220648258
192 7.848527210653157 46.57405386846258 -23.13621862055005
193 -9.595804583389011 44.81113524697005 -25.97397434010029
194 -52.16093321701717 11.93545854870211 -10.84431287775167
195 52.8529284572857 26.92988231479942 9.97328331574556
196 58.10903429956723 11.91567780205179 10
197 26.92246640765286 52.85670502778953 9.998158327480173
198 -52.85292845728564 26.92988231479952 9.973283315745565
199 -58.10903429956721 11.91567780205186 10
200 -26.92968605201864 52.85302842151425 9.998158327875016
201 41.9411113669468 41.9479390202673 9.987856419387809
202 -41.95125728617734 41.93779229362354 10
203 -9.279831546566621 58.58746003257449 9.999440565647241
204 9.276177805406949 58.58803836810829 9.998978876199796
205 -6.889694567139493 44.39896950243334 20.00000000000002
206 -30.50115793444434 31.29228412288955 20.00000000000002
207 19.74095947488745 35.53906639105041 20.00000000000001
208 -7.31147729254789 15.85592935264982 20.00000000000001
209 27.48402662781232 17.71566280757863 20.00000000000001
210 10.78746454782396 16.82051811598667 19.99999999999999
211 -39.86282495937213 20.09181978494167 20.00000000000002
212 1.612779659709895 31.57838871147497 20.00000000000001
213 34.19166696286008 31.66527966396346 20.00000000000001
214 -21.3957137433303 41.99205095409812 20.00000000000001
215 6.558873832862302 45.44997873090551 20.00000000000001
216 -24.86315707183488 15.97035099962354 20.00000000000001
217 41.12510039613252 20.5154818401462 20
218 -14.24905712723726 30.27411734737417 20.00000000000001
$EndNodes
$Elements
354
1 15 2 0 1 1
2 15 2 0 2 2
3 15 2 0 3 3
4 15 2 0 4 4
5 15 2 0 5 5
6 15 2 0 6 6
7 15 2 0 7 7
8 15 2 0 8 8
9 15 2 0 9 9
10 15 2 0 10 10
11 15 2 0 11 11
12 15 2 0 12 12
13 15 2 0 13 13
14 15 2 0 14 14
15 15 2 0 15 15
16 15 2 0 16 16
17 15 2 0 17 17
18 15 2 0 18 18
19 15 2 0 19 19
20 15 2 0 20 20
21 15 2 0 21 21
22 15 2 0 22 22
23 15 2 0 23 23
24 15 2 0 24 24
25 15 2 0 25 25
26 15 2 0 26 26
27 15 2 0 27 27
28 15 2 0 28 28
29 15 2 0 29 29
30 15 2 0 30 30
31 15 2 0 31 31
32 15 2 0 32 32
33 15 2 0 33 33
34 15 2 0 34 34
35 15 2 0 35 35
36 15 2 0 36 36
37 15 2 0 37 37
38 15 2 0 38 38
39 15 2 0 39 39
40 15 2 0 40 40
41 15 2 0 41 41
42 15 2 0 42 42
43 15 2 0 43 43
44 15 2 0 44 44
45 15 2 0 45 45
46 15 2 0 46 46
47 15 2 0 47 47
48 15 2 0 48 48
49 15 2 0 49 49
50 15 2 0 50 50
51 15 2 0 51 51
52 15 2 0 52 52
53 15 2 0 53 53
54 15 2 0 54 54
55 15 2 0 55 55
56 15 2 0 56 56
57 15 2 0 57 57
58 15 2 0 58 58
59 15 2 0 59 59
60 15 2 0 60 60
61 15 2 0 61 61
62 15 2 0 62 62
63 15 2 0 63 63
64 15 2 0 64 64
65 15 2 0 65 65
66 15 2 0 66 66
67 15 2 0 67 67
68 15 2 0 68 68
69 15 2 0 69 69
70 15 2 0 70 70
71 15 2 0 71 71
72 15 2 0 72 72
73 15 2 0 73 73
74 15 2 0 74 74
75 15 2 0 85 75
76 15 2 0 86 76
77 15 2 0 87 77
78 15 2 0 88 78
79 15 2 0 89 79
80 15 2 0 90 80
81 15 2 0 91 81
82 15 2 0 92 82
83 15 2 0 93 83
84 15 2 0 94 84
85 15 2 0 95 85
86 15 2 0 96 86
87 1 2 0 10073 73 87
88 1 2 0 10073 87 88
89 1 2 0 10073 88 89
90 1 2 0 10073 89 90
91 1 2 0 10073 90 73
92 1 2 0 10074 74 91
93 1 2 0 10074 91 92
94 1 2 0 10074 92 93
95 1 2 0 10074 93 94
96 1 2 0 10074 94 95
97 1 2 0 10074 95 96
98 1 2 0 10074 96 97
99 1 2 0 10074 97 98
100 1 2 0 10074 98 99
101 1 2 0 10074 99 100
102 1 2 0 10074 100 74
103 1 2 0 10093 75 101
104 1 2 0 10093 101 102
105 1 2 0 10093 102 103
106 1 2 0 10093 103 104
107 1 2 0 10093 104 105
108 1 2 0 10093 105 76
109 1 2 0 10094 76 106
110 1 2 0 10094 106 107
111 1 2 0 10094 107 108
112 1 2 0 10094 108 109
113 1 2 0 10094 109 110
114 1 2 0 10094 110 111
115 1 2 0 10094 111 112
116 1 2 0 10094 112 113
117 1 2 0 10094 113 114
118 1 2 0 10094 114 77
119 1 2 0 10095 78 115
120 1 2 0 10095 115 116
121 1 2 0 10095 116 117
122 1 2 0 10095 117 118
123 1 2 0 10095 118 119
124 1 2 0 10095 119 77
125 1 2 0 10096 75 120
126 1 2 0 10096 120 121
127 1 2 0 10096 121 78
128 1 2 0 10097 79 122
129 1 2 0 10097 122 80
130 1 2 0 10098 79 123
131 1 2 0 10098 123 124
132 1 2 0 10098 124 80
133 1 2 0 10099 81 125
134 1 2 0 10099 125 126
135 1 2 0 10099 126 127
136 1 2 0 10099 127 128
137 1 2 0 10099 128 129
138 1 2 0 10099 129 130
139 1 2 0 10099 130 131
140 1 2 0 10099 131 132
141 1 2 0 10099 132 133
142 1 2 0 10099 133 82
143 1 2 0 10100 83 134
144 1 2 0 10100 134 82
145 1 2 0 10101 84 135
146 1 2 0 10101 135 136
147 1 2 0 10101 136 137
148 1 2 0 10101 137 138
149 1 2 0 10101 138 139
150 1 2 0 10101 139 140
151 1 2 0 10101 140 141
152 1 2 0 10101 141 142
153 1 2 0 10101 142 143
154 1 2 0 10101 143 83
155 1 2 0 10102 84 144
156 1 2 0 10102 144 81
157 1 2 0 10103 85 145
158 1 2 0 10103 145 146
159 1 2 0 10103 146 147
160 1 2 0 10103 147 148
161 1 2 0 10103 148 149
162 1 2 0 10103 149 150
163 1 2 0 10103 150 151
164 1 2 0 10103 151 152
165 1 2 0 10103 152 153
166 1 2 0 10103 153 86
167 1 2 0 10104 86 154
168 1 2 0 10104 154 155
169 1 2 0 10104 155 156
170 1 2 0 10104 156 157
171 1 2 0 10104 157 158
172 1 2 0 10104 158 85
173 2 2 0 1 105 172 106
174 2 2 0 1 76 105 106
175 2 2 0 1 175 176 170
176 2 2 0 1 166 175 170
177 2 2 0 1 172 178 107
178 2 2 0 1 182 188 161
179 2 2 0 1 106 172 107
180 2 2 0 1 176 188 182
181 2 2 0 1 169 181 178
182 2 2 0 1 169 178 174
183 2 2 0 1 160 176 175
184 2 2 0 1 120 168 75
185 2 2 0 1 78 177 121
186 2 2 0 1 160 177 176
187 2 2 0 1 75 168 101
188 2 2 0 1 115 177 78
189 2 2 0 1 165 187 183
190 2 2 0 1 186 190 165
191 2 2 0 1 173 190 186
192 2 2 0 1 166 184 175
193 2 2 0 1 183 186 165
194 2 2 0 1 162 184 166
195 2 2 0 1 178 181 108
196 2 2 0 1 108 181 109
197 2 2 0 1 107 178 108
198 2 2 0 1 192 193 159
199 2 2 0 1 161 188 116
200 2 2 0 1 162 166 164
201 2 2 0 1 180 183 171
202 2 2 0 1 171 182 180
203 2 2 0 1 117 161 116
204 2 2 0 1 174 178 172
205 2 2 0 1 102 184 162
206 2 2 0 1 102 162 103
207 2 2 0 1 166 170 167
208 2 2 0 1 179 180 161
209 2 2 0 1 101 184 102
210 2 2 0 1 166 167 164
211 2 2 0 1 162 164 163
212 2 2 0 1 117 179 161
213 2 2 0 1 112 165 113
214 2 2 0 1 110 159 111
215 2 2 0 1 162 163 103
216 2 2 0 1 105 191 172
217 2 2 0 1 119 173 118
218 2 2 0 1 103 163 104
219 2 2 0 1 170 171 167
220 2 2 0 1 169 174 164
221 2 2 0 1 121 160 120
222 2 2 0 1 185 193 192
223 2 2 0 1 173 186 179
224 2 2 0 1 167 169 164
225 2 2 0 1 173 179 118
226 2 2 0 1 189 192 159
227 2 2 0 1 164 174 163
228 2 2 0 1 180 182 161
229 2 2 0 1 176 182 170
230 2 2 0 1 172 191 174
231 2 2 0 1 168 184 101
232 2 2 0 1 187 193 183
233 2 2 0 1 160 175 168
234 2 2 0 1 160 168 120
235 2 2 0 1 170 182 171
236 2 2 0 1 121 177 160
237 2 2 0 1 118 179 117
238 2 2 0 1 104 191 105
239 2 2 0 1 179 186 180
240 2 2 0 1 116 188 115
241 2 2 0 1 112 187 165
242 2 2 0 1 167 185 169
243 2 2 0 1 183 193 171
244 2 2 0 1 175 184 168
245 2 2 0 1 180 186 183
246 2 2 0 1 111 187 112
247 2 2 0 1 174 191 163
248 2 2 0 1 109 189 110
249 2 2 0 1 165 190 113
250 2 2 0 1 177 188 176
251 2 2 0 1 171 193 185
252 2 2 0 1 110 189 159
253 2 2 0 1 159 187 111
254 2 2 0 1 181 189 109
255 2 2 0 1 114 194 77
256 2 2 0 1 171 185 167
257 2 2 0 1 113 190 114
258 2 2 0 1 159 193 187
259 2 2 0 1 77 194 119
260 2 2 0 1 115 188 177
261 2 2 0 1 119 194 173
262 2 2 0 1 163 191 104
263 2 2 0 1 169 192 181
264 2 2 0 1 185 192 169
265 2 2 0 1 173 194 190
266 2 2 0 1 190 194 114
267 2 2 0 1 181 192 189
268 2 2 0 2 124 123 122
269 2 2 0 2 122 123 79
270 2 2 0 2 124 122 80
271 2 2 0 4 134 199 83
272 2 2 0 4 82 199 134
273 2 2 0 4 84 196 144
274 2 2 0 4 144 196 81
275 2 2 0 4 83 199 143
276 2 2 0 4 133 199 82
277 2 2 0 4 135 196 84
278 2 2 0 4 81 196 125
279 2 2 0 4 136 201 195
280 2 2 0 4 141 202 200
281 2 2 0 4 200 203 140
282 2 2 0 4 138 204 197
283 2 2 0 4 195 201 126
284 2 2 0 4 200 202 131
285 2 2 0 4 130 203 200
286 2 2 0 4 197 204 128
287 2 2 0 4 143 198 142
288 2 2 0 4 136 195 135
289 2 2 0 4 138 197 137
290 2 2 0 4 141 200 140
291 2 2 0 4 140 203 139
292 2 2 0 4 129 203 130
293 2 2 0 4 128 204 129
294 2 2 0 4 139 204 138
295 2 2 0 4 131 202 132
296 2 2 0 4 142 202 141
297 2 2 0 4 137 201 136
298 2 2 0 4 126 201 127
299 2 2 0 4 132 198 133
300 2 2 0 4 125 195 126
301 2 2 0 4 127 197 128
302 2 2 0 4 130 200 131
303 2 2 0 4 197 201 137
304 2 2 0 4 198 202 142
305 2 2 0 4 127 201 197
306 2 2 0 4 132 202 198
307 2 2 0 4 129 204 203
308 2 2 0 4 203 204 139
309 2 2 0 4 195 196 135
310 2 2 0 4 143 199 198
311 2 2 0 4 125 196 195
312 2 2 0 4 198 199 133
313 2 2 0 210102 209 207 210
314 2 2 0 210102 153 86 154
315 2 2 0 210102 158 85 145
316 2 2 0 210102 158 145 217
317 2 2 0 210102 153 154 211
318 2 2 0 210102 207 209 213
319 2 2 0 210102 210 207 212
320 2 2 0 210102 157 209 210
321 2 2 0 210102 208 156 210
322 2 2 0 210102 209 158 217
323 2 2 0 210102 157 158 209
324 2 2 0 210102 155 156 208
325 2 2 0 210102 154 155 216
326 2 2 0 210102 156 157 210
327 2 2 0 210102 147 148 207
328 2 2 0 210102 149 150 205
329 2 2 0 210102 151 152 206
330 2 2 0 210102 152 153 211
331 2 2 0 210102 208 210 212
332 2 2 0 210102 206 152 211
333 2 2 0 210102 211 154 216
334 2 2 0 210102 208 212 218
335 2 2 0 210102 146 147 213
336 2 2 0 210102 155 208 216
337 2 2 0 210102 147 207 213
338 2 2 0 210102 148 149 215
339 2 2 0 210102 150 151 214
340 2 2 0 210102 212 205 218
341 2 2 0 210102 207 148 215
342 2 2 0 210102 149 205 215
343 2 2 0 210102 205 150 214
344 2 2 0 210102 151 206 214
345 2 2 0 210102 145 146 217
346 2 2 0 210102 206 216 218
347 2 2 0 210102 216 208 218
348 2 2 0 210102 206 211 216
349 2 2 0 210102 212 207 215
350 2 2 0 210102 205 212 215
351 2 2 0 210102 214 206 218
352 2 2 0 210102 146 213 217
353 2 2 0 210102 213 209 217
354 2 2 0 210102 205 214 218
$EndElements
