$MeshFormat
2.2 0 8
$EndMeshFormat
$PhysicalNames
4
2 1 "horn_surface"
2 2 "throat_cap"
2 3 "interface_wall"
2 4 "interface_face"
$EndPhysicalNames
$Nodes
369
1 15 0 -100
2 0 15 -100
3 60 0 6
4 0 60 0
5 60 0 20
6 0 60 20
7 0 0 -100
8 0 0 20
9 14.47935266101804 3.879747568792221 -100
10 12.98183200277036 7.495073559506185 -100
11 10.59962472916665 10.59962472916668 -100
12 7.495073559506146 12.98183200277038 -100
13 3.879747568792177 14.47935266101805 -100
14 59.43989694426985 7.825351881588535 20
15 57.9174114214495 15.51899137214472 20
16 55.39629039767537 22.94594791337725 20
17 51.92732825602518 29.98029476576294 20
18 47.56987872978563 36.50167238397287 20
19 42.39849887499999 42.39849887500002 20
20 36.50167238397285 47.56987872978564 20
21 29.98029476576291 51.9273282560252 20
22 22.94594791337722 55.39629039767539 20
23 15.51899137214472 57.9174114214495 20
24 7.825351881588609 59.43989694426985 20
25 0 11.25 -100
26 0 7.5 -100
27 0 3.75 -100
28 3.75 0 -100
29 7.5 0 -100
30 11.25 0 -100
31 0 52.5 20
32 0 45 20
33 0 37.5 20
34 0 30 20
35 0 22.5 20
36 0 15 20
37 0 7.5 20
38 7.5 0 20
39 15 0 20
40 22.5 0 20
41 30 0 20
42 37.5 0 20
43 45 0 20
44 52.5 0 20
45 14.47935266101804 3.87974756879222 -100
46 12.98183200277036 7.495073559506187 -100
47 10.59962472916665 10.59962472916668 -100
48 7.495073559506151 12.98183200277037 -100
49 3.879747568792178 14.47935266101805 -100
50 0 15.07010027143397 -96.05312111959861
51 0 15.29015329562607 -91.97014958430685
52 0 15.67502034533385 -87.75236624617297
53 0 16.23972172103256 -83.40199721858511
54 0 16.9992288706347 -78.92221320177691
55 0 17.9682543365706 -74.31708618528101
56 0 19.16104399956433 -69.59150681244739
57 0 20.59119291356091 -64.75106667420349
58 0 22.27148881789026 -59.80191030343882
59 0 24.21380128827519 -54.75056481354495
60 0 26.42901550799786 -49.60375766560499
61 0 28.9270147021272 -44.36824509833426
62 0 31.71671122017374 -39.05063813830053
63 0 34.80611702408073 -33.65725838713751
64 0 38.20244056312841 -28.19402608963422
65 0 41.91220820590493 -22.66636748897005
66 0 45.94140215768564 -17.07915122082152
67 0 50.29559397742558 -11.43665927390737
68 0 54.98007849314832 -5.742576494681199
69 59.4375230759992 7.843779187835189 5.888195369399328
70 57.90906446212334 15.55010882988284 5.589634275943845
71 55.38206639476627 22.98025736406919 5.113117716664717
72 51.91126217391151 30.00810470955584 4.493276784086971
73 47.55860106183565 36.5163649934815 3.772628554794272
74 42.39849887500012 42.39849887499989 3.000000000000016
75 36.51636499348174 47.55860106183545 2.227371445205759
76 30.00810470955609 51.91126217391136 1.506723215913054
77 22.98025736406945 55.38206639476617 0.8868822833353029
78 15.55010882988312 57.90906446212326 0.4103657240561691
79 7.843779187835408 59.43752307599916 0.1118046306006786
80 15.06226457720265 0 -96.05705848131571
81 15.25727070871276 0 -91.98516204176552
82 15.59759258759034 0 -87.78475405704076
83 16.09605187175152 0 -83.45696619096887
84 16.76558646876839 0 -79.00363519452017
85 17.61911377538249 0 -74.42728794918355
86 18.66938908194032 0 -69.73111029258681
87 19.92887157023079 0 -64.91888731299466
88 21.40959994774963 0 -59.99492674848823
89 23.12308873361512 0 -54.96395880768704
90 25.0802486404078 0 -49.83102475885786
91 27.29133490356448 0 -44.60135613297817
92 29.76592515099727 0 -39.28025477321158
93 32.51292396667706 0 -33.87298203066096
94 35.54059858426029 0 -28.38464369605085
95 38.85663106686901 0 -22.82010817261824
96 42.4681919216201 0 -17.18392478208294
97 46.38202046760084 0 -11.48027425873475
98 50.60452139456991 0 -5.712920396043972
99 55.14184757776861 0 0.1148006877750451
100 59.4375230759992 7.843779187835189 5.888195369399328
101 57.90906446212334 15.55010882988284 5.589634275943845
102 55.38206639476627 22.98025736406919 5.113117716664717
103 51.91126217391151 30.00810470955584 4.493276784086971
104 47.55860106183565 36.5163649934815 3.772628554794272
105 42.39849887500012 42.39849887499989 3.000000000000016
106 36.51636499348174 47.55860106183545 2.227371445205759
107 30.00810470955609 51.91126217391136 1.506723215913054
108 22.98025736406945 55.38206639476617 0.8868822833353029
109 15.55010882988312 57.90906446212326 0.4103657240561691
110 7.843779187835408 59.43752307599916 0.1118046306006786
111 0 60 6.666613665812327
112 0 60 13.33322368813922
113 59.43989694426985 7.825351881588533 20
114 57.91741142144951 15.51899137214472 20
115 55.39629039767537 22.94594791337725 20
116 51.92732825602518 29.98029476576294 20
117 47.56987872978563 36.50167238397287 20
118 42.39849887499999 42.39849887500002 20
119 36.50167238397285 47.56987872978564 20
120 29.98029476576292 51.92732825602519 20
121 22.94594791337723 55.39629039767537 20
122 15.51899137214471 57.9174114214495 20
123 7.825351881588609 59.43989694426984 20
124 60 0 13.00010708471406
125 36.89735665834036 5.507910322037864 -25.42284938374283
126 5.651108452298592 39.6927471558994 -25.18551872509369
127 5.271325737661851 32.85960004318051 -36.12378335573892
128 41.67935212694115 37.66060679858012 -1.142642232739973
129 30.82370318321646 4.987109498802448 -36.40639861954678
130 4.543771544685706 27.31556393000249 -46.76527998771799
131 4.421278790841621 22.79234168932929 -57.13184051679224
132 25.80720550024528 4.819813727391852 -47.05612544666005
133 3.786652626020928 19.52284593838312 -66.9282460390147
134 25.30109769714958 49.06956128780674 -4.23507880289942
135 44.18925170339788 5.735101212311571 -14.12534140135303
136 21.82973585715121 4.29234174915829 -57.50939089477985
137 3.520393271553726 17.08019452645698 -76.60461623357227
138 3.7037257150054 15.49063260501716 -85.5165965657402
139 15.05859325920698 3.42501975379236 -89.39094007991888
140 17.68864128091047 4.072855768456882 -71.97730431995979
141 16.00300159693453 3.664439198755032 -81.17184869964134
142 9.220718839298604 11.94133864895812 -95.25503018729628
143 50.44872179498662 24.34670259432698 0.1576709716541333
144 5.949755955656563 47.82697254676338 -13.97491068960715
145 13.9202177588467 5.70373991170756 -96.38035986833738
146 52.46894143293444 5.987754338935969 -2.861499604007894
147 11.09373546389319 54.54462446201413 -4.666490128854724
148 3.453447900549657 14.75279659974857 -93.9886042584325
149 20.26723990576417 4.20307293701031 -62.32503168021582
150 19.82498921847113 8.714450389856051 -59.56645896235036
151 21.52189585420622 9.072165989599217 -54.67408078179677
152 18.7726773197233 12.9321206262401 -56.64349883594983
153 20.76984111072039 13.35080503142803 -51.58504007714029
154 16.97433828679564 12.62648118307988 -61.54374577339817
155 17.32643995156121 16.96564504650875 -53.23401957622271
156 19.50190029663495 17.51466809238375 -48.38666332824139
157 15.30669745332095 20.73116727430053 -50.00296724065268
158 17.88883982347449 21.58483351714911 -44.82634191241422
159 21.97489926619435 18.05572623014706 -43.35087006023392
160 20.4377136531144 22.33210978850265 -40.11030900076026
161 24.59122535946063 18.66154239147718 -38.31424375808055
162 23.3551854600755 23.35428049000312 -34.76601411455027
163 27.43302285931392 19.39155059782227 -33.10828265924624
164 26.28715524287059 24.33998196703122 -29.73486861068588
165 21.0023656936408 28.43053227597708 -31.29266009870216
166 24.77075470937484 29.20019006637913 -26.20907062517092
167 29.65921811080466 25.4313661354184 -24.29632831247316
168 28.21814018003507 30.59098249334072 -20.9274460942297
169 33.06097190042107 26.55398187949475 -19.0762200896521
170 23.11561155464079 34.25559107368418 -22.03596913493665
171 26.73825897147017 35.90764780971277 -16.88115025837979
172 20.85123324382439 39.07544057672532 -18.20429369677647
173 34.02544798228538 20.92824525057496 -22.26475999269364
174 37.45488774385167 22.07086298740924 -16.87268329077702
175 15.59239872165626 25.78252901119788 -41.04146576510076
176 36.74652982685185 27.92658629042552 -13.5897084329325
177 41.42690846641542 23.38358014918759 -11.0133755753363
178 37.98046746514095 16.33415319909037 -19.57565372898745
179 25.53256933054404 13.98261500616888 -41.38077773047245
180 16.9814162445705 36.99832072299796 -23.58167369021836
181 40.41724334981494 5.709295705313053 -19.75694229835269
182 24.87415162773826 40.99128141010209 -13.00618512876813
183 18.82445250606359 44.26407547494266 -13.40045275777009
184 30.73294671717826 37.48280139649937 -11.63198733849605
185 34.48456983715297 15.05198791522237 -25.48030531121101
186 12.96711823537268 19.58735722963456 -55.72679360189181
187 10.71516846097227 23.0480225956112 -51.33206942568646
188 41.07563083391567 29.24470213689036 -7.703625320158769
189 29.06519586197883 43.03193474347636 -7.663436347083621
190 35.0026496170204 39.21493498890727 -6.159954791818038
191 4.501577585485812 24.7443843050485 -52.37243217234444
192 3.990417178160376 16.11003610223794 -81.03096351589031
193 7.667944533217282 15.19493407363096 -78.49413353852528
194 7.736956434448466 16.20507578303935 -74.02592885289509
195 11.06175290986946 13.55555189078255 -75.82711244064672
196 10.96414247467159 12.53547678935169 -80.26531566739497
197 11.23502316531545 14.73534172414584 -71.32481604725915
198 13.68189887860069 10.30572715288326 -77.35703063737648
199 13.47886266731174 9.292498509662298 -81.76050234187507
200 11.04015038753647 11.58597498645555 -84.55812430334278
201 13.41808454724986 8.299447520086089 -86.19526745028766
202 11.25284764938723 10.69039351833529 -88.78912515393425
203 15.39679786607558 3.61307657877818 -85.68693045186284
204 7.912821567472657 13.50660551975437 -87.66518426236885
205 3.719684972478854 15.00260207807674 -89.77652556427563
206 6.794894522621396 13.64906098067471 -92.35359471286489
207 7.767783582195176 14.25200074397895 -83.15726066754833
208 3.976810834890157 21.06158787672432 -62.06594261348253
209 8.392768458297624 18.78635031812947 -64.40306970434557
210 8.865603326581581 20.35111813282314 -59.5786924088786
211 12.88662180662916 17.18364031934697 -61.19332093528313
212 12.15347312191035 15.64701245875675 -66.51332242256115
213 4.871844411155426 29.9327142712005 -41.50528836789682
214 10.1134914015509 30.13810445282245 -38.50457997970691
215 10.43009042891503 33.23678961285458 -33.20907193556001
216 15.37451295352353 29.71168642951841 -35.10896230904169
217 15.83143212294451 32.91675645054796 -30.01474374516324
218 9.787417019652237 27.3620466393753 -43.68144149570853
219 4.904832124110346 36.24380574195292 -30.63287169893856
220 10.89553217804176 36.95091268464395 -27.30753839987691
221 16.7752657823511 3.68528604541416 -76.69645667017163
222 18.87529552230086 4.009187885383366 -67.28100165826478
223 16.75047051402591 8.523034251755119 -69.53089642883478
224 18.23760898134165 8.582049636893064 -64.44414418997536
225 5.635205115451731 43.60117954852272 -19.63793600652911
226 10.95823799977101 40.90463572523001 -21.6856943657595
227 28.07780411375795 4.818396217362414 -42.02393197358118
228 33.70753728033149 4.877911596516911 -31.05633023485999
229 31.18672458426334 9.906460989233459 -33.78779322208628
230 48.13436296504025 5.706047921345594 -8.607219021334055
231 49.55134425424225 11.91381468907477 -5.494205067347703
232 15.58618080399222 12.10741945603081 -66.29834916118479
233 13.88159588014203 11.36085231132349 -73.47796299446426
234 23.63321999654404 4.476353207365142 -52.50992056831635
235 23.52170546407016 9.298105152326004 -49.65475737754812
236 41.39832428751228 11.16106033194445 -16.85404026408445
237 30.73936684922776 20.04617574030914 -27.59941115137276
238 28.1016357237542 14.59831040694188 -36.22831124962283
239 13.44556425537879 7.444080847776529 -90.403755662705
240 11.456720394535 9.993620680507142 -92.88687993434239
241 3.41248392872936 18.21765048920044 -71.86671010901229
242 45.29650408689581 11.49354657757662 -11.25573243249151
243 45.67556168239404 17.93923387402838 -8.423645069729831
244 46.04185156029953 24.26506825702742 -4.96846391269213
245 31.95662381778572 32.05552060929826 -15.49837586875282
246 7.952074461526858 17.44460344336768 -69.1906495733202
247 15.92850398450357 7.673000390787347 -74.35191588102492
248 23.03261401344465 13.76601107132568 -46.41605067346162
249 53.38651446019331 12.84293867936072 -0.4459505022248382
250 55.81517365285703 7.863065587640918 1.562293754894225
251 28.40904952167159 9.724121738199921 -39.07261281484985
252 18.28379243428201 52.60450383094599 -4.243822613182129
253 13.21760586085718 49.45561015968472 -9.913032534663474
254 5.773611533790857 52.44538110520646 -8.267685183860003
255 11.55077340335388 44.99028031938144 -16.04450396933048
256 11.95820479004584 9.137074662373864 -96.2318649400126
257 45.63268831699138 31.05208698667215 -1.571002409725455
258 5.753533783933574 13.89022752207315 -96.8248542293961
259 41.54914724171257 17.39166818190634 -14.08353226378472
260 14.86835249988139 2.622275676142662 -94.8204351769934
261 25.93825211990042 9.546155775371281 -44.16539159433287
262 35.93165493319263 33.4397752029365 -10.12884246715325
263 37.66674808550215 10.78410211595881 -22.59548761170048
264 34.18949316433693 9.990688704941398 -28.53098241137787
265 15.26645362146121 6.96688639328516 -79.05427723674229
266 15.81808942450905 16.28698598358594 -57.37688433564953
267 20.14805561350219 48.10992995958946 -8.268577408636414
268 13.54091076560118 23.95210962797794 -46.45716601569916
269 31.16601472771265 15.03383201750608 -30.74958347903224
270 32.35206854238383 45.75908903310385 -2.544681298971025
271 19.04297479235299 26.11110104321262 -36.63223356863066
272 49.86543646583257 18.10100592338165 -3.133286593521604
273 8.788241176270374 22.0822542303479 -55.45760516002174
274 20.52965966407474 32.56206907750789 -26.4697396250522
275 15.77016634918528 41.66200311643766 -18.31476518382428
276 37.71372650303851 42.55255415177769 -0.9611196968784531
277 13.2725549965826 7.3085004735156 -93.72978914927053
278 14.7637878041967 6.390408280282317 -83.59054374618458
279 53.54709914817016 18.6181490106729 1.445483259802126
280 14.81442882636511 2.426312336681212 -97.65681910618058
281 2.851283705856338 14.75308206645177 -97.16620855900693
282 4.614240562616794 56.62586042975433 -3.501910469230124
283 8.826427337319734 25.65337521716365 -47.71125485562263
284 9.545101570195957 11.96781497252642 -91.3951899373393
285 14.5469702208775 14.47265685086687 -63.87586460448243
286 14.03575682022715 12.60772945595716 -69.66449333760742
287 39.80987379887788 34.32532980757414 -5.447334613159834
288 14.45797327295885 5.946366410474709 -87.43028325730965
289 14.3690188948809 5.048219716505744 -92.30688005886206
290 24.06946168430834 44.95792041387464 -9.321093829862425
291 58.75233572105709 11.9761696883336 12.54151845284992
292 12.01838083564384 58.74371545268112 13.21717933303621
293 11.93457192678707 58.76079982270097 6.422650120742976
294 19.89766615329633 56.56278216291533 13.311894795479
295 33.11291768259963 49.98800076833916 8.392274986694879
296 39.46633769747874 45.14059834781743 13.33144945228124
297 48.79365034604466 34.84889331571466 11.95986223603643
298 53.09299234198053 27.86394881514387 12.43388204198834
299 27.23575283913963 53.41796664003704 13.85886035259878
300 44.16055547456399 40.5599673431219 9.675178477477235
301 17.57058551644858 57.32835309476083 6.750768187098739
302 56.70581509648703 19.48630451498342 12.24572170182858
303 5.968514046370367 59.65302781133198 10.0131953626432
304 25.45299642612113 54.29006027191812 7.093088247306765
305 59.58019838335145 6.659778770652776 14.40156212908097
306 33.3123075999847 49.85534733428246 14.79180878939713
307 39.20661157779605 45.36636512661865 7.113292605066105
308 5.485333363706146 59.6986954949932 14.99884485881993
309 5.213000908407628 59.72257620515809 4.291320594949659
310 44.26667904712817 40.44411823633059 15.29665194912547
311 59.83608970503272 3.661001269230983 9.459941315296295
312 5.55288305014705 3.110396197534059 -100
313 6.596090466039779 9.146661171247803 -100
314 10.65083854882764 4.590429870897552 -100
315 2.92209746525025 9.093991809039833 -100
316 3.552319746729019 5.906863087039823 -100
317 9.575672492817436 7.5667182467784 -100
318 7.28855429625391 5.64241400537088 -100
319 2.745190528383289 2.74519052838329 -100
320 4.17860181191767 11.39036752881521 -100
321 8.376107662493297 2.670884504240696 -100
322 26.25323356778444 6.49923427202102 20
323 35.32945193722514 40.31309346422017 20
324 6.555626768968565 26.23669471223614 20
325 47.40397212311382 23.68307619522416 20
326 6.871669895941519 40.20440583704896 20
327 23.4394224988857 47.82090133099479 20
328 41.0670624196559 6.379381633713503 20
329 11.25 6.49519052838329 20
330 52.57907747791309 10.78550217205474 20
331 10.51897928018876 52.46326727889265 20
332 18.61463730002372 6.543452933684716 20
333 22.26731426954343 13.04791728192857 20
334 30.02621384333186 13.03273610293727 20
335 26.15269753958029 19.58039160329845 20
336 33.81614617320875 19.58877450122961 20
337 30.05581319540046 26.16337890383305 20
338 22.34099116062446 26.17000507564337 20
339 25.99878667833035 32.64848558151361 20
340 18.53675672979069 32.78645685770916 20
341 38.25232424711891 26.48384092170894 20
342 14.53389596637128 26.17392823096396 20
343 10.97077586299802 32.87404665756436 20
344 10.84102985451794 19.36663158169846 20
345 14.74379517249967 39.25700843328003 20
346 18.26119450505011 19.44503661396318 20
347 22.75735966623163 40.1162157161723 20
348 33.73519289468926 6.491959511814812 20
349 37.49607297910868 12.97911129992178 20
350 45.18721472339655 12.12684499213712 20
351 14.68566291322736 12.88427529959018 20
352 6.706047118981278 12.21235406663408 20
353 41.54617600006804 19.258449613387 20
354 33.13472610337821 33.35054639548182 20
355 45.12938975627726 30.49187441844795 20
356 17.22807093413356 50.92880432471149 20
357 50.00502369060273 17.38646870972083 20
358 29.7086063306535 44.63220700558827 20
359 40.49344542534276 35.81048782557085 20
360 11.74990088126823 45.44102719798333 20
361 48.46055151472486 5.761690866648969 20
362 5.736494409897826 48.33977579688477 20
363 29.38578614316376 38.21210963259524 20
364 4.876740228823326 33.75 20
365 17.98370983060376 44.71279140062839 20
366 4.675256008357035 18.75 20
367 5.49038105676658 5.490381056766584 20
368 54.49043213502137 5.131219821110157 20
369 5.158088599079907 54.4608357503454 20
$EndNodes
$Elements
612
1 2 2 1 1 90 234 132
2 2 2 1 1 186 211 210
3 2 2 1 1 214 216 175
4 2 2 1 1 142 258 206
5 2 2 1 1 175 218 214
6 2 2 1 1 186 266 211
7 2 2 1 1 253 255 144
8 2 2 1 1 183 255 253
9 2 2 1 1 204 205 138
10 2 2 1 1 206 284 142
11 2 2 1 1 126 220 219
12 2 2 1 1 188 287 257
13 2 2 1 1 99 250 3
14 2 2 1 1 144 254 253
15 2 2 1 1 204 206 205
16 2 2 1 1 216 217 165
17 2 2 1 1 234 235 132
18 2 2 1 1 260 289 81
19 2 2 1 1 89 234 90
20 2 2 1 1 188 257 244
21 2 2 1 1 138 207 204
22 2 2 1 1 217 220 180
23 2 2 1 1 257 287 128
24 2 2 1 1 3 250 69
25 2 2 1 1 142 284 240
26 2 2 1 1 154 285 211
27 2 2 1 1 126 219 64
28 2 2 1 1 220 226 180
29 2 2 1 1 223 247 233
30 2 2 1 1 233 286 223
31 2 2 1 1 192 207 138
32 2 2 1 1 219 220 215
33 2 2 1 1 211 266 154
34 2 2 1 1 216 271 175
35 2 2 1 1 206 258 148
36 2 2 1 1 242 259 243
37 2 2 1 1 81 289 139
38 2 2 1 1 126 226 220
39 2 2 1 1 212 246 209
40 2 2 1 1 180 274 217
41 2 2 1 1 165 271 216
42 2 2 1 1 214 218 213
43 2 2 1 1 253 254 147
44 2 2 1 1 213 218 130
45 2 2 1 1 193 207 192
46 2 2 1 1 217 274 165
47 2 2 1 1 187 273 191
48 2 2 1 1 197 246 212
49 2 2 1 1 264 269 185
50 2 2 1 1 243 259 177
51 2 2 1 1 222 224 149
52 2 2 1 1 227 261 251
53 2 2 1 1 241 246 194
54 2 2 1 1 189 270 190
55 2 2 1 1 140 247 223
56 2 2 1 1 137 241 194
57 2 2 1 1 191 283 187
58 2 2 1 1 223 224 222
59 2 2 1 1 244 272 243
60 2 2 1 1 130 191 60
61 2 2 1 1 224 232 154
62 2 2 1 1 240 256 142
63 2 2 1 1 223 286 232
64 2 2 1 1 204 284 206
65 2 2 1 1 167 237 164
66 2 2 1 1 230 231 146
67 2 2 1 1 209 246 133
68 2 2 1 1 190 276 128
69 2 2 1 1 196 207 193
70 2 2 1 1 54 192 53
71 2 2 1 1 143 272 244
72 2 2 1 1 270 276 190
73 2 2 1 1 58 208 57
74 2 2 1 1 52 205 51
75 2 2 1 1 4 282 68
76 2 2 1 1 94 228 125
77 2 2 1 1 53 192 138
78 2 2 1 1 57 208 133
79 2 2 1 1 181 263 236
80 2 2 1 1 95 181 96
81 2 2 1 1 92 227 129
82 2 2 1 1 51 205 148
83 2 2 1 1 133 246 241
84 2 2 1 1 236 259 242
85 2 2 1 1 98 230 146
86 2 2 1 1 128 287 190
87 2 2 1 1 177 244 243
88 2 2 1 1 236 263 178
89 2 2 1 1 134 270 189
90 2 2 1 1 221 247 140
91 2 2 1 1 131 210 208
92 2 2 1 1 129 251 229
93 2 2 1 1 125 181 95
94 2 2 1 1 223 232 224
95 2 2 1 1 164 237 163
96 2 2 1 1 85 221 140
97 2 2 1 1 244 257 143
98 2 2 1 1 87 222 149
99 2 2 1 1 83 203 141
100 2 2 1 1 130 283 191
101 2 2 1 1 201 202 200
102 2 2 1 1 199 201 200
103 2 2 1 1 199 200 196
104 2 2 1 1 239 240 202
105 2 2 1 1 201 239 202
106 2 2 1 1 208 209 133
107 2 2 1 1 173 237 167
108 2 2 1 1 229 251 238
109 2 2 1 1 178 185 173
110 2 2 1 1 137 192 54
111 2 2 1 1 131 208 58
112 2 2 1 1 138 205 52
113 2 2 1 1 150 224 154
114 2 2 1 1 205 206 148
115 2 2 1 1 78 147 79
116 2 2 1 1 149 224 150
117 2 2 1 1 96 181 135
118 2 2 1 1 198 199 196
119 2 2 1 1 76 134 77
120 2 2 1 1 71 143 72
121 2 2 1 1 211 212 209
122 2 2 1 1 73 128 74
123 2 2 1 1 227 251 129
124 2 2 1 1 195 196 193
125 2 2 1 1 127 214 213
126 2 2 1 1 70 250 249
127 2 2 1 1 88 149 136
128 2 2 1 1 53 138 52
129 2 2 1 1 55 137 54
130 2 2 1 1 185 237 173
131 2 2 1 1 57 133 56
132 2 2 1 1 69 250 70
133 2 2 1 1 59 131 58
134 2 2 1 1 61 130 60
135 2 2 1 1 63 127 62
136 2 2 1 1 150 154 152
137 2 2 1 1 65 126 64
138 2 2 1 1 149 150 136
139 2 2 1 1 83 141 84
140 2 2 1 1 202 204 200
141 2 2 1 1 85 140 86
142 2 2 1 1 185 269 237
143 2 2 1 1 87 149 88
144 2 2 1 1 88 136 89
145 2 2 1 1 90 132 91
146 2 2 1 1 92 129 93
147 2 2 1 1 94 125 95
148 2 2 1 1 225 226 126
149 2 2 1 1 51 148 50
150 2 2 1 1 81 139 82
151 2 2 1 1 67 144 66
152 2 2 1 1 96 135 97
153 2 2 1 1 170 180 172
154 2 2 1 1 183 275 255
155 2 2 1 1 155 186 157
156 2 2 1 1 189 290 134
157 2 2 1 1 253 267 183
158 2 2 1 1 137 193 192
159 2 2 1 1 98 146 99
160 2 2 1 1 195 198 196
161 2 2 1 1 251 261 179
162 2 2 1 1 175 268 218
163 2 2 1 1 134 252 77
164 2 2 1 1 127 213 62
165 2 2 1 1 242 243 231
166 2 2 1 1 200 207 196
167 2 2 1 1 144 225 66
168 2 2 1 1 1 280 80
169 2 2 1 1 82 203 83
170 2 2 1 1 65 225 126
171 2 2 1 1 174 178 173
172 2 2 1 1 84 221 85
173 2 2 1 1 86 222 87
174 2 2 1 1 61 213 130
175 2 2 1 1 230 242 231
176 2 2 1 1 125 264 263
177 2 2 1 1 169 173 167
178 2 2 1 1 210 273 186
179 2 2 1 1 161 179 159
180 2 2 1 1 186 187 157
181 2 2 1 1 229 269 264
182 2 2 1 1 210 211 209
183 2 2 1 1 132 261 227
184 2 2 1 1 215 216 214
185 2 2 1 1 194 195 193
186 2 2 1 1 140 223 222
187 2 2 1 1 46 145 45
188 2 2 1 1 50 281 2
189 2 2 1 1 91 227 92
190 2 2 1 1 235 261 132
191 2 2 1 1 150 152 151
192 2 2 1 1 48 142 47
193 2 2 1 1 204 207 200
194 2 2 1 1 208 210 209
195 2 2 1 1 178 259 236
196 2 2 1 1 93 228 94
197 2 2 1 1 195 233 198
198 2 2 1 1 155 266 186
199 2 2 1 1 152 155 153
200 2 2 1 1 191 273 131
201 2 2 1 1 179 248 159
202 2 2 1 1 66 225 65
203 2 2 1 1 141 221 84
204 2 2 1 1 252 253 147
205 2 2 1 1 127 215 214
206 2 2 1 1 140 222 86
207 2 2 1 1 169 174 173
208 2 2 1 1 155 157 156
209 2 2 1 1 139 203 82
210 2 2 1 1 150 151 136
211 2 2 1 1 143 257 72
212 2 2 1 1 154 266 152
213 2 2 1 1 97 230 98
214 2 2 1 1 137 194 193
215 2 2 1 1 162 165 164
216 2 2 1 1 158 175 160
217 2 2 1 1 62 213 61
218 2 2 1 1 60 191 59
219 2 2 1 1 170 172 171
220 2 2 1 1 166 170 168
221 2 2 1 1 161 238 179
222 2 2 1 1 228 264 125
223 2 2 1 1 172 183 182
224 2 2 1 1 194 197 195
225 2 2 1 1 215 217 216
226 2 2 1 1 152 153 151
227 2 2 1 1 158 159 156
228 2 2 1 1 160 161 159
229 2 2 1 1 155 156 153
230 2 2 1 1 162 163 161
231 2 2 1 1 166 167 164
232 2 2 1 1 157 158 156
233 2 2 1 1 184 262 245
234 2 2 1 1 181 236 135
235 2 2 1 1 215 220 217
236 2 2 1 1 263 264 185
237 2 2 1 1 182 184 171
238 2 2 1 1 125 263 181
239 2 2 1 1 133 241 56
240 2 2 1 1 189 190 184
241 2 2 1 1 168 169 167
242 2 2 1 1 129 229 228
243 2 2 1 1 165 166 164
244 2 2 1 1 176 177 174
245 2 2 1 1 77 252 78
246 2 2 1 1 158 160 159
247 2 2 1 1 160 162 161
248 2 2 1 1 231 249 146
249 2 2 1 1 162 164 163
250 2 2 1 1 170 171 168
251 2 2 1 1 169 176 174
252 2 2 1 1 170 274 180
253 2 2 1 1 156 248 153
254 2 2 1 1 172 182 171
255 2 2 1 1 78 252 147
256 2 2 1 1 184 245 171
257 2 2 1 1 166 168 167
258 2 2 1 1 46 256 145
259 2 2 1 1 182 189 184
260 2 2 1 1 176 188 177
261 2 2 1 1 142 256 47
262 2 2 1 1 132 227 91
263 2 2 1 1 174 259 178
264 2 2 1 1 68 254 67
265 2 2 1 1 233 247 198
266 2 2 1 1 226 275 180
267 2 2 1 1 153 248 235
268 2 2 1 1 55 241 137
269 2 2 1 1 47 256 46
270 2 2 1 1 48 258 142
271 2 2 1 1 129 228 93
272 2 2 1 1 141 278 265
273 2 2 1 1 202 284 204
274 2 2 1 1 197 233 195
275 2 2 1 1 194 246 197
276 2 2 1 1 248 261 235
277 2 2 1 1 145 289 260
278 2 2 1 1 245 262 176
279 2 2 1 1 159 248 156
280 2 2 1 1 72 257 73
281 2 2 1 1 238 251 179
282 2 2 1 1 163 238 161
283 2 2 1 1 190 262 184
284 2 2 1 1 180 275 172
285 2 2 1 1 135 230 97
286 2 2 1 1 76 270 134
287 2 2 1 1 73 257 128
288 2 2 1 1 79 282 4
289 2 2 1 1 265 278 199
290 2 2 1 1 187 268 157
291 2 2 1 1 49 258 48
292 2 2 1 1 225 255 226
293 2 2 1 1 64 219 63
294 2 2 1 1 158 268 175
295 2 2 1 1 146 250 99
296 2 2 1 1 169 245 176
297 2 2 1 1 127 219 215
298 2 2 1 1 59 191 131
299 2 2 1 1 153 235 151
300 2 2 1 1 162 271 165
301 2 2 1 1 68 282 254
302 2 2 1 1 171 245 168
303 2 2 1 1 134 267 252
304 2 2 1 1 179 261 248
305 2 2 1 1 144 255 225
306 2 2 1 1 252 267 253
307 2 2 1 1 165 274 166
308 2 2 1 1 45 280 1
309 2 2 1 1 177 259 174
310 2 2 1 1 188 244 177
311 2 2 1 1 128 276 74
312 2 2 1 1 221 265 247
313 2 2 1 1 175 271 160
314 2 2 1 1 136 234 89
315 2 2 1 1 168 245 169
316 2 2 1 1 152 266 155
317 2 2 1 1 238 269 229
318 2 2 1 1 135 242 230
319 2 2 1 1 131 273 210
320 2 2 1 1 2 281 49
321 2 2 1 1 231 272 249
322 2 2 1 1 178 263 185
323 2 2 1 1 232 285 154
324 2 2 1 1 212 286 197
325 2 2 1 1 236 242 135
326 2 2 1 1 176 262 188
327 2 2 1 1 277 289 145
328 2 2 1 1 237 269 163
329 2 2 1 1 67 254 144
330 2 2 1 1 75 270 76
331 2 2 1 1 141 265 221
332 2 2 1 1 56 241 55
333 2 2 1 1 157 268 158
334 2 2 1 1 229 264 228
335 2 2 1 1 198 265 199
336 2 2 1 1 148 281 50
337 2 2 1 1 203 278 141
338 2 2 1 1 247 265 198
339 2 2 1 1 163 269 238
340 2 2 1 1 80 260 81
341 2 2 1 1 256 277 145
342 2 2 1 1 71 279 143
343 2 2 1 1 160 271 162
344 2 2 1 1 232 286 212
345 2 2 1 1 151 235 234
346 2 2 1 1 166 274 170
347 2 2 1 1 186 273 187
348 2 2 1 1 183 290 182
349 2 2 1 1 243 272 231
350 2 2 1 1 147 282 79
351 2 2 1 1 187 283 268
352 2 2 1 1 172 275 183
353 2 2 1 1 203 288 278
354 2 2 1 1 239 277 240
355 2 2 1 1 74 276 75
356 2 2 1 1 75 276 270
357 2 2 1 1 70 279 71
358 2 2 1 1 240 277 256
359 2 2 1 1 218 283 130
360 2 2 1 1 278 288 201
361 2 2 1 1 211 285 212
362 2 2 1 1 199 278 201
363 2 2 1 1 134 290 267
364 2 2 1 1 260 280 145
365 2 2 1 1 255 275 226
366 2 2 1 1 267 290 183
367 2 2 1 1 240 284 202
368 2 2 1 1 139 289 239
369 2 2 1 1 63 219 127
370 2 2 1 1 190 287 262
371 2 2 1 1 201 288 239
372 2 2 1 1 212 285 232
373 2 2 1 1 80 280 260
374 2 2 1 1 239 288 139
375 2 2 1 1 254 282 147
376 2 2 1 1 249 279 70
377 2 2 1 1 272 279 249
378 2 2 1 1 268 283 218
379 2 2 1 1 143 279 272
380 2 2 1 1 139 288 203
381 2 2 1 1 145 280 45
382 2 2 1 1 151 234 136
383 2 2 1 1 182 290 189
384 2 2 1 1 258 281 148
385 2 2 1 1 249 250 146
386 2 2 1 1 197 286 233
387 2 2 1 1 49 281 258
388 2 2 1 1 262 287 188
389 2 2 1 1 239 289 277
390 2 2 3 4 116 297 117
391 2 2 3 4 294 304 301
392 2 2 3 4 299 304 294
393 2 2 3 4 116 298 297
394 2 2 3 4 103 298 102
395 2 2 3 4 297 298 103
396 2 2 3 4 124 305 5
397 2 2 3 4 292 301 293
398 2 2 3 4 294 301 292
399 2 2 3 4 297 310 117
400 2 2 3 4 114 302 115
401 2 2 3 4 305 311 100
402 2 2 3 4 298 302 102
403 2 2 3 4 291 302 114
404 2 2 3 4 296 307 295
405 2 2 3 4 295 306 296
406 2 2 3 4 5 305 113
407 2 2 3 4 113 291 114
408 2 2 3 4 113 305 291
409 2 2 3 4 6 308 112
410 2 2 3 4 115 302 298
411 2 2 3 4 110 293 109
412 2 2 3 4 122 292 123
413 2 2 3 4 291 305 100
414 2 2 3 4 121 299 294
415 2 2 3 4 295 304 299
416 2 2 3 4 293 301 109
417 2 2 3 4 122 294 292
418 2 2 3 4 102 302 101
419 2 2 3 4 101 291 100
420 2 2 3 4 101 302 291
421 2 2 3 4 120 299 121
422 2 2 3 4 105 300 104
423 2 2 3 4 107 295 106
424 2 2 3 4 104 297 103
425 2 2 3 4 121 294 122
426 2 2 3 4 118 296 119
427 2 2 3 4 104 300 297
428 2 2 3 4 109 301 108
429 2 2 3 4 299 306 295
430 2 2 3 4 112 303 111
431 2 2 3 4 123 308 6
432 2 2 3 4 300 310 297
433 2 2 3 4 115 298 116
434 2 2 3 4 300 307 296
435 2 2 3 4 105 307 300
436 2 2 3 4 120 306 299
437 2 2 3 4 296 306 119
438 2 2 3 4 296 310 300
439 2 2 3 4 107 304 295
440 2 2 3 4 118 310 296
441 2 2 3 4 295 307 106
442 2 2 3 4 301 304 108
443 2 2 3 4 4 309 110
444 2 2 3 4 111 309 4
445 2 2 3 4 124 311 305
446 2 2 3 4 100 311 3
447 2 2 3 4 110 309 293
448 2 2 3 4 292 308 123
449 2 2 3 4 119 306 120
450 2 2 3 4 293 309 303
451 2 2 3 4 293 303 292
452 2 2 3 4 108 304 107
453 2 2 3 4 112 308 303
454 2 2 3 4 303 309 111
455 2 2 3 4 106 307 105
456 2 2 3 4 3 311 124
457 2 2 3 4 117 310 118
458 2 2 3 4 303 308 292
459 2 2 2 213196 9 314 30
460 2 2 2 213196 25 320 13
461 2 2 2 213196 30 1 9
462 2 2 2 213196 2 25 13
463 2 2 2 213196 315 316 313
464 2 2 2 213196 316 318 313
465 2 2 2 213196 315 320 25
466 2 2 2 213196 314 321 30
467 2 2 2 213196 10 314 9
468 2 2 2 213196 12 313 11
469 2 2 2 213196 29 312 28
470 2 2 2 213196 26 315 25
471 2 2 2 213196 27 316 26
472 2 2 2 213196 26 316 315
473 2 2 2 213196 7 319 27
474 2 2 2 213196 28 319 7
475 2 2 2 213196 30 321 29
476 2 2 2 213196 312 318 316
477 2 2 2 213196 318 321 314
478 2 2 2 213196 10 317 314
479 2 2 2 213196 317 318 314
480 2 2 2 213196 313 317 11
481 2 2 2 213196 11 317 10
482 2 2 2 213196 12 320 313
483 2 2 2 213196 27 319 316
484 2 2 2 213196 313 320 315
485 2 2 2 213196 312 319 28
486 2 2 2 213196 13 320 12
487 2 2 2 213196 29 321 312
488 2 2 2 213196 316 319 312
489 2 2 2 213196 312 321 318
490 2 2 2 213196 313 318 317
491 2 2 4 213200 341 353 325
492 2 2 4 213200 343 345 326
493 2 2 4 213200 325 355 341
494 2 2 4 213200 350 357 353
495 2 2 4 213200 353 357 325
496 2 2 4 213200 341 359 354
497 2 2 4 213200 355 359 341
498 2 2 4 213200 326 364 343
499 2 2 4 213200 347 358 327
500 2 2 4 213200 333 351 332
501 2 2 4 213200 324 344 342
502 2 2 4 213200 342 343 324
503 2 2 4 213200 37 352 36
504 2 2 4 213200 347 363 358
505 2 2 4 213200 338 346 335
506 2 2 4 213200 346 351 333
507 2 2 4 213200 335 346 333
508 2 2 4 213200 332 351 329
509 2 2 4 213200 342 346 338
510 2 2 4 213200 344 352 351
511 2 2 4 213200 344 346 342
512 2 2 4 213200 15 330 14
513 2 2 4 213200 24 331 23
514 2 2 4 213200 340 342 338
515 2 2 4 213200 22 327 21
516 2 2 4 213200 340 343 342
517 2 2 4 213200 17 325 16
518 2 2 4 213200 20 323 19
519 2 2 4 213200 339 340 338
520 2 2 4 213200 39 329 38
521 2 2 4 213200 337 338 335
522 2 2 4 213200 340 345 343
523 2 2 4 213200 340 347 345
524 2 2 4 213200 40 332 39
525 2 2 4 213200 39 332 329
526 2 2 4 213200 339 347 340
527 2 2 4 213200 41 322 40
528 2 2 4 213200 35 324 34
529 2 2 4 213200 337 339 338
530 2 2 4 213200 42 348 41
531 2 2 4 213200 43 328 42
532 2 2 4 213200 322 332 40
533 2 2 4 213200 322 334 333
534 2 2 4 213200 334 335 333
535 2 2 4 213200 322 333 332
536 2 2 4 213200 33 326 32
537 2 2 4 213200 336 337 335
538 2 2 4 213200 334 336 335
539 2 2 4 213200 336 341 337
540 2 2 4 213200 41 348 322
541 2 2 4 213200 328 348 42
542 2 2 4 213200 322 348 334
543 2 2 4 213200 328 349 348
544 2 2 4 213200 348 349 334
545 2 2 4 213200 334 349 336
546 2 2 4 213200 37 367 352
547 2 2 4 213200 17 355 325
548 2 2 4 213200 344 351 346
549 2 2 4 213200 336 353 341
550 2 2 4 213200 337 354 339
551 2 2 4 213200 18 355 17
552 2 2 4 213200 328 350 349
553 2 2 4 213200 345 360 326
554 2 2 4 213200 351 352 329
555 2 2 4 213200 349 353 336
556 2 2 4 213200 350 353 349
557 2 2 4 213200 343 364 324
558 2 2 4 213200 341 354 337
559 2 2 4 213200 354 363 339
560 2 2 4 213200 324 366 344
561 2 2 4 213200 44 361 43
562 2 2 4 213200 32 362 31
563 2 2 4 213200 8 367 37
564 2 2 4 213200 38 367 8
565 2 2 4 213200 324 364 34
566 2 2 4 213200 344 366 352
567 2 2 4 213200 35 366 324
568 2 2 4 213200 33 364 326
569 2 2 4 213200 323 363 354
570 2 2 4 213200 330 357 350
571 2 2 4 213200 331 360 356
572 2 2 4 213200 15 357 330
573 2 2 4 213200 331 356 23
574 2 2 4 213200 22 356 327
575 2 2 4 213200 327 358 21
576 2 2 4 213200 325 357 16
577 2 2 4 213200 20 358 323
578 2 2 4 213200 328 361 350
579 2 2 4 213200 23 356 22
580 2 2 4 213200 14 368 5
581 2 2 4 213200 6 369 24
582 2 2 4 213200 16 357 15
583 2 2 4 213200 21 358 20
584 2 2 4 213200 327 365 347
585 2 2 4 213200 5 368 44
586 2 2 4 213200 31 369 6
587 2 2 4 213200 19 359 18
588 2 2 4 213200 350 361 330
589 2 2 4 213200 354 359 323
590 2 2 4 213200 323 359 19
591 2 2 4 213200 347 365 345
592 2 2 4 213200 18 359 355
593 2 2 4 213200 360 365 356
594 2 2 4 213200 352 367 329
595 2 2 4 213200 362 369 31
596 2 2 4 213200 44 368 361
597 2 2 4 213200 43 361 328
598 2 2 4 213200 352 366 36
599 2 2 4 213200 326 362 32
600 2 2 4 213200 34 364 33
601 2 2 4 213200 339 363 347
602 2 2 4 213200 36 366 35
603 2 2 4 213200 329 367 38
604 2 2 4 213200 330 368 14
605 2 2 4 213200 24 369 331
606 2 2 4 213200 358 363 323
607 2 2 4 213200 356 365 327
608 2 2 4 213200 360 362 326
609 2 2 4 213200 331 362 360
610 2 2 4 213200 345 365 360
611 2 2 4 213200 331 369 362
612 2 2 4 213200 361 368 330
$EndElements
