$MeshFormat
2.2 0 8
$EndMeshFormat
$Nodes
218
1 -15 0 -100
2 -14.488887 -3.882286 -100
3 -12.990381 -7.5 -100
4 -10.606602 -10.606602 -100
5 -7.5 -12.990381 -100
6 -3.882286 -14.488887 -100
7 -0 -15 -100
8 3.882286 -14.488887 -100
9 7.5 -12.990381 -100
10 10.606602 -10.606602 -100
11 12.990381 -7.5 -100
12 14.488887 -3.882286 -100
13 15 0 -100
14 14.488887 3.882286 -100
15 12.990381 7.5 -100
16 10.606602 10.606602 -100
17 7.5 12.990381 -100
18 3.882286 14.488887 -100
19 0 15 -100
20 -3.882286 14.488887 -100
21 -7.5 12.990381 -100
22 -10.606602 10.606602 -100
23 -12.990381 7.5 -100
24 -14.488887 3.882286 -100
25 -35 0 -50
26 -33.807404 -9.058667 -50
27 -30.310889 -17.5 -50
28 -24.748737 -24.748737 -50
29 -17.5 -30.310889 -50
30 -9.058667 -33.807404 -50
31 -0 -35 -50
32 9.058667 -33.807404 -50
33 17.5 -30.310889 -50
34 24.748737 -24.748737 -50
35 30.310889 -17.5 -50
36 33.807404 -9.058667 -50
37 35 0 -50
38 33.807404 9.058667 -50
39 30.310889 17.5 -50
40 24.748737 24.748737 -50
41 17.5 30.310889 -50
42 9.058667 33.807404 -50
43 0 35 -50
44 -9.058667 33.807404 -50
45 -17.5 30.310889 -50
46 -24.748737 24.748737 -50
47 -30.310889 17.5 -50
48 -33.807404 9.058667 -50
49 -60 0 0
50 -57.95555 -15.529143 0
51 -51.961524 -30 0
52 -42.426407 -42.426407 0
53 -30 -51.961524 0
54 -15.529143 -57.95555 0
55 -0 -60 0
56 15.529143 -57.95555 0
57 30 -51.961524 0
58 42.426407 -42.426407 0
59 51.961524 -30 0
60 57.95555 -15.529143 0
61 60 0 0
62 57.95555 15.529143 0
63 51.961524 30 0
64 42.426407 42.426407 0
65 30 51.961524 0
66 15.529143 57.95555 0
67 0 60 0
68 -15.529143 57.95555 0
69 -30 51.961524 0
70 -42.426407 42.426407 0
71 -51.961524 30 0
72 -57.95555 15.529143 0
73 -14.3243215 -3.838190666666668 -100
74 -33.4234175 -8.955778 -50
75 1.110223024625157e-16 -14.829629 -100
76 4.440892098500626e-16 -59.31851666666667 0
77 -4.440892098500626e-16 59.31851666666667 0
78 -1.110223024625157e-16 14.829629 -100
79 1.110223024625157e-16 -14.829629 -100
80 -1.110223024625157e-16 14.829629 -100
81 4.440892098500626e-16 -59.31851666666667 0
82 -4.440892098500626e-16 59.31851666666667 0
83 -4.440892098500626e-16 59.31851666666667 20
84 4.440892098500626e-16 -59.31851666666667 20
85 4.440892098500626e-16 -59.31851666666667 20
86 -4.440892098500626e-16 59.31851666666667 20
87 -0.776114934716376 -14.80923037232501 -100
88 13.84449344747559 -5.314400596693448 -100
89 9.332482625745612 11.52465317707408 -100
90 -8.076750998378389 12.43711212909061 -100
91 -23.27561256311823 -25.60402505031561 -50
92 -5.738072365080515 -34.12300983495286 -50
93 13.6211047831091 -31.80828491644932 -50
94 28.65578960108655 -19.39478698456867 -50
95 34.59262166028199 -0.8234525770748076 -50
96 29.54636242867426 18.00944205363635 -50
97 15.1192477296222 31.12427349929079 -50
98 -4.107920214705944 34.35733514032441 -50
99 -22.03082155467035 26.68235652114537 -50
100 -32.95928490514139 10.53592937322723 -50
101 0 -21.09006211019064 -82.8448504232293
102 0 -27.81797098632241 -65.86759474635477
103 0 -35.0101302408487 -49.08174670155686
104 0 -42.66187477424091 -32.50035256690309
105 0 -50.76713862088545 -16.13586063314762
106 18.33032246745068 -56.41497950804099 0
107 34.86614249554762 -47.98914273011904 0
108 47.98914273011897 -34.86614249554771 0
109 56.41497950804094 -18.33032246745081 0
110 59.31851666666667 -1.257548989386237e-13 0
111 56.414979508041 18.33032246745062 0
112 47.98914273011911 34.86614249554753 0
113 34.86614249554775 47.98914273011894 0
114 18.33032246745077 56.41497950804095 0
115 0 21.09006211019061 -82.84485042322929
116 0 27.8179709863224 -65.86759474635474
117 0 35.01013024084868 -49.08174670155684
118 0 42.66187477424091 -32.50035256690308
119 0 50.76713862088543 -16.1358606331476
120 12.84283553114024 -7.414814612730185 -100
121 12.84283553114023 7.414814612730186 -100
122 0 2.842170943040401e-14 -100
123 12.84283553114024 -7.414814612730185 -100
124 12.84283553114023 7.414814612730186 -100
125 18.33032246745069 -56.41497950804099 0
126 34.86614249554761 -47.98914273011904 0
127 47.98914273011899 -34.86614249554769 0
128 56.41497950804095 -18.33032246745079 0
129 59.31851666666667 -8.220827218963222e-14 0
130 56.41497950804099 18.33032246745064 0
131 47.98914273011908 34.86614249554756 0
132 34.86614249554773 47.98914273011896 0
133 18.33032246745077 56.41497950804095 0
134 0 59.31851666666665 10.00000000000001
135 18.33032246745069 -56.41497950804099 20
136 34.86614249554761 -47.98914273011904 20
137 47.98914273011899 -34.86614249554769 20
138 56.41497950804095 -18.33032246745079 20
139 59.31851666666667 -8.220827218963222e-14 20
140 56.41497950804099 18.33032246745064 20
141 47.98914273011908 34.86614249554756 20
142 34.86614249554773 47.98914273011896 20
143 18.33032246745077 56.41497950804095 20
144 0 -59.31851666666665 10.00000000000001
145 0 -39.54567777943907 20
146 0 -19.77283888977232 20
147 0 -5.501007982466888e-11 20
148 0 19.77283888929407 20
149 0 39.54567777730901 20
150 18.33032246745069 -56.41497950804099 20
151 34.86614249554761 -47.98914273011904 20
152 47.98914273011899 -34.86614249554769 20
153 56.41497950804095 -18.33032246745079 20
154 59.31851666666667 -8.220827218963222e-14 20
155 56.41497950804099 18.33032246745064 20
156 47.98914273011908 34.86614249554756 20
157 34.86614249554773 47.98914273011896 20
158 18.33032246745077 56.41497950804095 20
159 52.19195898687298 5.55137837242465 -12.80345489424887
160 19.12947953077883 0.09474292834144526 -88.06234029637668
161 15.0222335086665 28.90970357596345 -54.61246605106886
162 15.37984465719692 -28.02686753241684 -56.02337913124101
163 15.47692202047473 -36.02518434484713 -39.83343985679109
164 28.34936729376068 -24.15299937899221 -44.11637384679442
165 36.49910330656942 36.49910330656926 -14.48235834897256
166 26.84928734581717 -14.69180532322053 -59.20767233717797
167 35.70310582770892 -8.228108480553818 -45.44949797069938
168 13.87528995390634 -13.97720490130512 -86.54466200850261
169 39.4425520447041 -19.21973212143811 -29.97461377772711
170 30.85910664827033 1.509178011646721 -58.52648992415725
171 36.82461566753611 9.845610697511942 -42.20119327083339
172 22.0176038879016 -46.158531980163 -15.40697080490409
173 13.3616724794827 45.17188105758555 -23.38658007607085
174 26.99858048814424 -35.24836836135327 -28.89283551152827
175 23.40302233390854 -7.286107493530552 -74.04231382158184
176 23.544531818002 8.350797101027068 -72.85932695259316
177 13.87528995390617 13.97720490130527 -86.54466200850263
178 37.33013741368902 -35.11890398227109 -15.18942243476796
179 14.28150770544626 36.56139325673761 -39.74139550007166
180 27.7291708462166 25.56512135372242 -43.07982610608153
181 46.50415166432184 -21.28492066001299 -15.40110473082641
182 26.68533474015798 16.67601055800325 -57.19055401356754
183 37.89476609378887 23.45049466297497 -28.55688331545692
184 14.72990097107256 -20.80223611389258 -71.59081315911126
185 42.35801433976444 -1.146271633222112 -33.10388100575392
186 27.12404042189562 36.37098180960579 -26.90167291872995
187 47.4080558310006 21.80307016628878 -13.39115417829963
188 14.23595127607651 21.42880776470498 -71.00075138392127
189 52.65875225986443 -7.990845205243117 -11.31619248558927
190 24.03460527182519 47.08711202296266 -12.07386952154211
191 13.20687340579781 -42.78696279410332 -28.11525220648257
192 46.5740538684626 -7.848527210653126 -23.13621862055003
193 44.81113524697007 9.595804583389013 -25.97397434010026
194 11.93545854870223 52.16093321701717 -10.8443128777516
195 26.92988231479942 -52.8529284572857 9.97328331574556
196 11.91567780205179 -58.10903429956723 10
197 52.85670502778953 -26.92246640765286 9.998158327480173
198 26.92988231479952 52.85292845728564 9.973283315745565
199 11.91567780205186 58.10903429956721 10
200 52.85302842151425 26.92968605201864 9.998158327875016
201 41.9479390202673 -41.9411113669468 9.987856419387809
202 41.93779229362354 41.95125728617734 10
203 58.58746003257449 9.279831546566621 9.999440565647241
204 58.58803836810829 -9.276177805406949 9.998978876199796
205 44.39897041328415 6.889691753207569 20
206 31.29228439878438 30.50115868219011 20
207 35.53906693535481 -19.74096252778072 19.99999999999999
208 15.85592951586871 7.311477636189132 20
209 17.71566225108599 -27.48402835176958 19.99999999999999
210 16.82051814631416 -10.7874652883855 19.99999999999999
211 20.09181983985903 39.86282510897843 20.00000000000001
212 31.57838978425366 -1.61278392178819 20
213 31.66527910899811 -34.19166868725416 19.99999999999999
214 41.99205163123936 21.39571616846444 20.00000000000002
215 45.44997923649213 -6.558875858642468 19.99999999999999
216 15.97035099980434 24.86315707175947 20.00000000000001
217 20.51548160920127 -41.12510108297645 19.99999999999998
218 30.27411820517322 14.2490584977816 20
$EndNodes
$Elements
354
1 15 2 0 1 1
2 15 2 0 2 2
3 15 2 0 3 3
4 15 2 0 4 4
5 15 2 0 5 5
6 15 2 0 6 6
7 15 2 0 7 7
8 15 2 0 8 8
9 15 2 0 9 9
10 15 2 0 10 10
11 15 2 0 11 11
12 15 2 0 12 12
13 15 2 0 13 13
14 15 2 0 14 14
15 15 2 0 15 15
16 15 2 0 16 16
17 15 2 0 17 17
18 15 2 0 18 18
19 15 2 0 19 19
20 15 2 0 20 20
21 15 2 0 21 21
22 15 2 0 22 22
23 15 2 0 23 23
24 15 2 0 24 24
25 15 2 0 25 25
26 15 2 0 26 26
27 15 2 0 27 27
28 15 2 0 28 28
29 15 2 0 29 29
30 15 2 0 30 30
31 15 2 0 31 31
32 15 2 0 32 32
33 15 2 0 33 33
34 15 2 0 34 34
35 15 2 0 35 35
36 15 2 0 36 36
37 15 2 0 37 37
38 15 2 0 38 38
39 15 2 0 39 39
40 15 2 0 40 40
41 15 2 0 41 41
42 15 2 0 42 42
43 15 2 0 43 43
44 15 2 0 44 44
45 15 2 0 45 45
46 15 2 0 46 46
47 15 2 0 47 47
48 15 2 0 48 48
49 15 2 0 49 49
50 15 2 0 50 50
51 15 2 0 51 51
52 15 2 0 52 52
53 15 2 0 53 53
54 15 2 0 54 54
55 15 2 0 55 55
56 15 2 0 56 56
57 15 2 0 57 57
58 15 2 0 58 58
59 15 2 0 59 59
60 15 2 0 60 60
61 15 2 0 61 61
62 15 2 0 62 62
63 15 2 0 63 63
64 15 2 0 64 64
65 15 2 0 65 65
66 15 2 0 66 66
67 15 2 0 67 67
68 15 2 0 68 68
69 15 2 0 69 69
70 15 2 0 70 70
71 15 2 0 71 71
72 15 2 0 72 72
73 15 2 0 73 73
74 15 2 0 74 74
75 15 2 0 85 75
76 15 2 0 86 76
77 15 2 0 87 77
78 15 2 0 88 78
79 15 2 0 89 79
80 15 2 0 90 80
81 15 2 0 91 81
82 15 2 0 92 82
83 15 2 0 93 83
84 15 2 0 94 84
85 15 2 0 95 85
86 15 2 0 96 86
87 1 2 0 10073 73 87
88 1 2 0 10073 87 88
89 1 2 0 10073 88 89
90 1 2 0 10073 89 90
91 1 2 0 10073 90 73
92 1 2 0 10074 74 91
93 1 2 0 10074 91 92
94 1 2 0 10074 92 93
95 1 2 0 10074 93 94
96 1 2 0 10074 94 95
97 1 2 0 10074 95 96
98 1 2 0 10074 96 97
99 1 2 0 10074 97 98
100 1 2 0 10074 98 99
101 1 2 0 10074 99 100
102 1 2 0 10074 100 74
103 1 2 0 10093 75 101
104 1 2 0 10093 101 102
105 1 2 0 10093 102 103
106 1 2 0 10093 103 104
107 1 2 0 10093 104 105
108 1 2 0 10093 105 76
109 1 2 0 10094 76 106
110 1 2 0 10094 106 107
111 1 2 0 10094 107 108
112 1 2 0 10094 108 109
113 1 2 0 10094 109 110
114 1 2 0 10094 110 111
115 1 2 0 10094 111 112
116 1 2 0 10094 112 113
117 1 2 0 10094 113 114
118 1 2 0 10094 114 77
119 1 2 0 10095 78 115
120 1 2 0 10095 115 116
121 1 2 0 10095 116 117
122 1 2 0 10095 117 118
123 1 2 0 10095 118 119
124 1 2 0 10095 119 77
125 1 2 0 10096 75 120
126 1 2 0 10096 120 121
127 1 2 0 10096 121 78
128 1 2 0 10097 79 122
129 1 2 0 10097 122 80
130 1 2 0 10098 79 123
131 1 2 0 10098 123 124
132 1 2 0 10098 124 80
133 1 2 0 10099 81 125
134 1 2 0 10099 125 126
135 1 2 0 10099 126 127
136 1 2 0 10099 127 128
137 1 2 0 10099 128 129
138 1 2 0 10099 129 130
139 1 2 0 10099 130 131
140 1 2 0 10099 131 132
141 1 2 0 10099 132 133
142 1 2 0 10099 133 82
143 1 2 0 10100 83 134
144 1 2 0 10100 134 82
145 1 2 0 10101 84 135
146 1 2 0 10101 135 136
147 1 2 0 10101 136 137
148 1 2 0 10101 137 138
149 1 2 0 10101 138 139
150 1 2 0 10101 139 140
151 1 2 0 10101 140 141
152 1 2 0 10101 141 142
153 1 2 0 10101 142 143
154 1 2 0 10101 143 83
155 1 2 0 10102 84 144
156 1 2 0 10102 144 81
157 1 2 0 10103 85 145
158 1 2 0 10103 145 146
159 1 2 0 10103 146 147
160 1 2 0 10103 147 148
161 1 2 0 10103 148 149
162 1 2 0 10103 149 86
163 1 2 0 10104 85 150
164 1 2 0 10104 150 151
165 1 2 0 10104 151 152
166 1 2 0 10104 152 153
167 1 2 0 10104 153 154
168 1 2 0 10104 154 155
169 1 2 0 10104 155 156
170 1 2 0 10104 156 157
171 1 2 0 10104 157 158
172 1 2 0 10104 158 86
173 2 2 0 1 105 172 106
174 2 2 0 1 76 105 106
175 2 2 0 1 175 176 170
176 2 2 0 1 166 175 170
177 2 2 0 1 172 178 107
178 2 2 0 1 182 188 161
179 2 2 0 1 106 172 107
180 2 2 0 1 176 188 182
181 2 2 0 1 169 181 178
182 2 2 0 1 169 178 174
183 2 2 0 1 160 176 175
184 2 2 0 1 120 168 75
185 2 2 0 1 78 177 121
186 2 2 0 1 160 177 176
187 2 2 0 1 75 168 101
188 2 2 0 1 115 177 78
189 2 2 0 1 165 187 183
190 2 2 0 1 186 190 165
191 2 2 0 1 173 190 186
192 2 2 0 1 166 184 175
193 2 2 0 1 183 186 165
194 2 2 0 1 162 184 166
195 2 2 0 1 178 181 108
196 2 2 0 1 108 181 109
197 2 2 0 1 107 178 108
198 2 2 0 1 192 193 159
199 2 2 0 1 161 188 116
200 2 2 0 1 162 166 164
201 2 2 0 1 180 183 171
202 2 2 0 1 171 182 180
203 2 2 0 1 117 161 116
204 2 2 0 1 174 178 172
205 2 2 0 1 102 184 162
206 2 2 0 1 102 162 103
207 2 2 0 1 166 170 167
208 2 2 0 1 179 180 161
209 2 2 0 1 101 184 102
210 2 2 0 1 166 167 164
211 2 2 0 1 162 164 163
212 2 2 0 1 117 179 161
213 2 2 0 1 112 165 113
214 2 2 0 1 110 159 111
215 2 2 0 1 162 163 103
216 2 2 0 1 105 191 172
217 2 2 0 1 119 173 118
218 2 2 0 1 103 163 104
219 2 2 0 1 170 171 167
220 2 2 0 1 169 174 164
221 2 2 0 1 121 160 120
222 2 2 0 1 185 193 192
223 2 2 0 1 173 186 179
224 2 2 0 1 167 169 164
225 2 2 0 1 173 179 118
226 2 2 0 1 189 192 159
227 2 2 0 1 164 174 163
228 2 2 0 1 180 182 161
229 2 2 0 1 176 182 170
230 2 2 0 1 172 191 174
231 2 2 0 1 168 184 101
232 2 2 0 1 187 193 183
233 2 2 0 1 160 175 168
234 2 2 0 1 160 168 120
235 2 2 0 1 170 182 171
236 2 2 0 1 121 177 160
237 2 2 0 1 118 179 117
238 2 2 0 1 104 191 105
239 2 2 0 1 179 186 180
240 2 2 0 1 116 188 115
241 2 2 0 1 112 187 165
242 2 2 0 1 167 185 169
243 2 2 0 1 183 193 171
244 2 2 0 1 175 184 168
245 2 2 0 1 180 186 183
246 2 2 0 1 111 187 112
247 2 2 0 1 174 191 163
248 2 2 0 1 109 189 110
249 2 2 0 1 165 190 113
250 2 2 0 1 177 188 176
251 2 2 0 1 171 193 185
252 2 2 0 1 110 189 159
253 2 2 0 1 159 187 111
254 2 2 0 1 181 189 109
255 2 2 0 1 114 194 77
256 2 2 0 1 171 185 167
257 2 2 0 1 113 190 114
258 2 2 0 1 159 193 187
259 2 2 0 1 77 194 119
260 2 2 0 1 115 188 177
261 2 2 0 1 119 194 173
262 2 2 0 1 163 191 104
263 2 2 0 1 169 192 181
264 2 2 0 1 185 192 169
265 2 2 0 1 173 194 190
266 2 2 0 1 190 194 114
267 2 2 0 1 181 192 189
268 2 2 0 2 124 123 122
269 2 2 0 2 122 123 79
270 2 2 0 2 124 122 80
271 2 2 0 4 134 199 83
272 2 2 0 4 82 199 134
273 2 2 0 4 84 196 144
274 2 2 0 4 144 196 81
275 2 2 0 4 83 199 143
276 2 2 0 4 133 199 82
277 2 2 0 4 135 196 84
278 2 2 0 4 81 196 125
279 2 2 0 4 136 201 195
280 2 2 0 4 141 202 200
281 2 2 0 4 200 203 140
282 2 2 0 4 138 204 197
283 2 2 0 4 195 201 126
284 2 2 0 4 200 202 131
285 2 2 0 4 130 203 200
286 2 2 0 4 197 204 128
287 2 2 0 4 143 198 142
288 2 2 0 4 136 195 135
289 2 2 0 4 138 197 137
290 2 2 0 4 141 200 140
291 2 2 0 4 140 203 139
292 2 2 0 4 129 203 130
293 2 2 0 4 128 204 129
294 2 2 0 4 139 204 138
295 2 2 0 4 131 202 132
296 2 2 0 4 142 202 141
297 2 2 0 4 137 201 136
298 2 2 0 4 126 201 127
299 2 2 0 4 132 198 133
300 2 2 0 4 125 195 126
301 2 2 0 4 127 197 128
302 2 2 0 4 130 200 131
303 2 2 0 4 197 201 137
304 2 2 0 4 198 202 142
305 2 2 0 4 127 201 197
306 2 2 0 4 132 202 198
307 2 2 0 4 129 204 203
308 2 2 0 4 203 204 139
309 2 2 0 4 195 196 135
310 2 2 0 4 143 199 198
311 2 2 0 4 125 196 195
312 2 2 0 4 198 199 133
313 2 2 0 210102 207 210 209
314 2 2 0 210102 86 149 158
315 2 2 0 210102 150 145 85
316 2 2 0 210102 150 217 145
317 2 2 0 210102 149 211 158
318 2 2 0 210102 209 213 207
319 2 2 0 210102 207 212 210
320 2 2 0 210102 209 210 146
321 2 2 0 210102 147 210 208
322 2 2 0 210102 145 217 209
323 2 2 0 210102 145 209 146
324 2 2 0 210102 147 208 148
325 2 2 0 210102 148 216 149
326 2 2 0 210102 146 210 147
327 2 2 0 210102 153 207 152
328 2 2 0 210102 155 205 154
329 2 2 0 210102 157 206 156
330 2 2 0 210102 158 211 157
331 2 2 0 210102 210 212 208
332 2 2 0 210102 157 211 206
333 2 2 0 210102 149 216 211
334 2 2 0 210102 212 218 208
335 2 2 0 210102 152 213 151
336 2 2 0 210102 208 216 148
337 2 2 0 210102 207 213 152
338 2 2 0 210102 154 215 153
339 2 2 0 210102 156 214 155
340 2 2 0 210102 205 218 212
341 2 2 0 210102 153 215 207
342 2 2 0 210102 205 215 154
343 2 2 0 210102 155 214 205
344 2 2 0 210102 206 214 156
345 2 2 0 210102 151 217 150
346 2 2 0 210102 216 218 206
347 2 2 0 210102 208 218 216
348 2 2 0 210102 211 216 206
349 2 2 0 210102 207 215 212
350 2 2 0 210102 212 215 205
351 2 2 0 210102 206 218 214
352 2 2 0 210102 213 217 151
353 2 2 0 210102 209 217 213
354 2 2 0 210102 214 218 205
$EndElements
