$MeshFormat
2.2 0 8
$EndMeshFormat
$PhysicalNames
4
2 1 "horn_surface"
2 2 "throat_cap"
2 3 "interface_wall"
2 4 "interface_face"
$EndPhysicalNames
$Nodes
749
1 0 -15 -100
2 0 15 -100
3 0 -60 0
4 0 60 0
5 0 -60 20
6 0 60 20
7 3.811029765405697 -14.27551292542904 -100
8 7.394529692491842 -12.81196139485719 -100
9 10.48673721823474 -10.48552574657258 -100
10 12.84312106899973 -7.414320024441962 -100
11 14.32439546593872 -3.837914611331585 -100
12 14.829629 -8.265236317583913e-14 -100
13 14.32439546593876 3.837914611331432 -100
14 12.84312106899982 7.414320024441818 -100
15 10.48673721823485 10.48552574657247 -100
16 7.394529692491964 12.81196139485712 -100
17 3.811029765405759 14.27551292542902 -100
18 7.66981241801001 -58.79901734873361 20
19 15.24411927762484 -57.10205265570602 20
20 22.60698783966733 -54.65366622654403 20
21 29.57811864040922 -51.24784562715137 20
22 36.08816967601094 -47.02657732861478 20
23 41.94694826622098 -41.94210225966807 20
24 47.06169590047784 -36.10811002454768 20
25 51.37248440413362 -29.65727983156206 20
26 54.80313712625293 -22.69834812962905 20
27 57.29758298857487 -15.35165855690222 20
28 58.81038130635508 -7.741957542190034 20
29 59.31851666666667 -2.479570841984468e-13 20
30 58.81038130635515 7.741957542189542 20
31 57.29758298857501 15.35165855690174 20
32 54.80313712625312 22.69834812962861 20
33 51.37248440413387 29.65727983156163 20
34 47.0616959004781 36.10811002454734 20
35 41.94694826622125 41.9421022596678 20
36 36.08816967601132 47.02657732861449 20
37 29.57811864040961 51.24784562715116 20
38 22.60698783966775 54.65366622654386 20
39 15.24411927762527 57.1020526557059 20
40 7.669812418009964 58.79901734873361 20
41 0 11.25 -100
42 0 7.5 -100
43 0 3.75 -100
44 0 0 -100
45 0 -3.75 -100
46 0 -7.5 -100
47 0 -11.25 -100
48 0 52 20
49 0 44 20
50 0 36 20
51 0 28 20
52 0 20 20
53 0 12 20
54 0 4 20
55 0 -4 20
56 0 -12 20
57 0 -20 20
58 0 -28 20
59 0 -36 20
60 0 -44 20
61 0 -52 20
62 3.811029765405697 -14.27551292542904 -100
63 7.394529692491841 -12.81196139485719 -100
64 10.48673721823474 -10.48552574657258 -100
65 12.84312106899973 -7.414320024441965 -100
66 14.32439546593872 -3.837914611331587 -100
67 14.829629 -7.987029223185025e-14 -100
68 14.32439546593876 3.837914611331432 -100
69 12.84312106899981 7.414320024441819 -100
70 10.48673721823485 10.48552574657247 -100
71 7.394529692491964 12.81196139485712 -100
72 3.811029765405757 14.27551292542903 -100
73 0 16.30431377435963 -96.35153044333934
74 0 17.67612330655816 -92.58336065822891
75 0 19.11941680053813 -88.69189664502815
76 0 20.63844033185807 -84.67347843020866
77 0 22.23771323470051 -80.52438861185099
78 0 23.92204700960443 -76.24085494778211
79 0 25.69656357065556 -71.81905837288058
80 0 27.56671457401693 -67.25514179805405
81 0 29.53830313440237 -62.54521676741966
82 0 31.61750386435515 -57.68537798936916
83 0 33.81088642851488 -52.67171313767604
84 0 36.12543818480364 -47.50031868800679
85 0 38.56859003763502 -42.16731225879547
86 0 41.14823662522104 -36.66886098782721
87 0 43.87276805982724 -31.00118818896802
88 0 46.75109126384065 -25.16060607371807
89 0 49.79265616576389 -19.14354063458317
90 0 53.00748265451936 -12.94655785429553
91 0 56.40618678098681 -6.566393923281671
92 7.684274220800301 -58.79633638495386 0.2326410607563772
93 15.26955482551218 -57.09518529309656 0.5510466446809796
94 22.63644925858618 -54.64168812262132 0.9943949860363311
95 29.60217283579118 -51.23423994099598 1.58304688337195
96 36.10101238113734 -47.01697075563901 2.263202463982137
97 41.94642632640269 -41.94262425360635 3.000259686403768
98 47.05086500523409 -36.12222215591426 3.740232369859276
99 51.3573333463189 -29.68350902263919 4.430669255680618
100 54.78981059061421 -22.73049724955331 5.02389892327454
101 57.28977663650507 -15.38076476872707 5.480649223025841
102 58.80811007854771 -7.759191054957194 5.76736704056332
103 59.31851666666667 2.926530984215248e-13 5.866025333333333
104 58.80811007854764 7.759191054957758 5.767367040563306
105 57.28977663650491 15.38076476872762 5.480649223025813
106 54.78981059061399 22.73049724955383 5.023898923274501
107 51.35733334631861 29.6835090226397 4.43066925568057
108 47.0508650052337 36.12222215591476 3.740232369859215
109 41.94642632640233 41.94262425360672 3.000259686403718
110 36.10101238113688 47.01697075563935 2.263202463982084
111 29.60217283579079 51.2342399409962 1.583046883371912
112 22.63644925858605 54.64168812262136 0.9943949860363226
113 15.26955482551206 57.09518529309658 0.5510466446809734
114 7.684274220800272 58.79633638495386 0.2326410607563762
115 0 -16.30431377435963 -96.35153044333934
116 0 -17.67612330655816 -92.58336065822891
117 0 -19.11941680053813 -88.69189664502815
118 0 -20.63844033185807 -84.67347843020866
119 0 -22.23771323470051 -80.52438861185099
120 0 -23.92204700960443 -76.24085494778211
121 0 -25.69656357065556 -71.81905837288058
122 0 -27.56671457401693 -67.25514179805405
123 0 -29.53830313440237 -62.54521676741966
124 0 -31.61750386435515 -57.68537798936916
125 0 -33.81088642851488 -52.67171313767604
126 0 -36.12543818480364 -47.50031868800679
127 0 -38.56859003763502 -42.16731225879547
128 0 -41.14823662522104 -36.66886098782721
129 0 -43.87276805982724 -31.00118818896802
130 0 -46.75109126384065 -25.16060607371807
131 0 -49.79265616576389 -19.14354063458317
132 0 -53.00748265451936 -12.94655785429553
133 0 -56.40618678098681 -6.566393923281671
134 7.684274220800301 -58.79633638495386 0.2326410607563772
135 15.26955482551218 -57.09518529309656 0.5510466446809796
136 22.63644925858618 -54.64168812262132 0.9943949860363311
137 29.60217283579118 -51.23423994099598 1.58304688337195
138 36.10101238113734 -47.01697075563901 2.263202463982137
139 41.94642632640269 -41.94262425360635 3.000259686403768
140 47.05086500523409 -36.12222215591426 3.740232369859276
141 51.3573333463189 -29.68350902263919 4.430669255680618
142 54.78981059061421 -22.73049724955331 5.02389892327454
143 57.28977663650507 -15.38076476872707 5.480649223025841
144 58.80811007854771 -7.759191054957194 5.76736704056332
145 59.31851666666667 2.926530984215248e-13 5.866025333333333
146 58.80811007854764 7.759191054957758 5.767367040563306
147 57.28977663650491 15.38076476872762 5.480649223025813
148 54.78981059061399 22.73049724955383 5.023898923274501
149 51.35733334631861 29.6835090226397 4.43066925568057
150 47.0508650052337 36.12222215591476 3.740232369859215
151 41.94642632640233 41.94262425360672 3.000259686403718
152 36.10101238113688 47.01697075563935 2.263202463982084
153 29.60217283579079 51.2342399409962 1.583046883371912
154 22.63644925858605 54.64168812262136 0.9943949860363226
155 15.26955482551206 57.09518529309658 0.5510466446809734
156 7.684274220800272 58.79633638495386 0.2326410607563762
157 0 60 6.666622648584534
158 0 60 13.33332924847172
159 7.66981241801001 -58.79901734873361 20
160 15.24411927762484 -57.10205265570602 20
161 22.60698783966733 -54.65366622654403 20
162 29.57811864040923 -51.24784562715138 20
163 36.08816967601094 -47.02657732861476 20
164 41.94694826622098 -41.94210225966807 20
165 47.06169590047786 -36.10811002454767 20
166 51.37248440413362 -29.65727983156205 20
167 54.80313712625293 -22.69834812962903 20
168 57.29758298857489 -15.3516585569022 20
169 58.81038130635508 -7.741957542190008 20
170 59.31851666666667 -2.243682495350896e-13 20
171 58.81038130635515 7.741957542189554 20
172 57.297582988575 15.35165855690176 20
173 54.80313712625311 22.69834812962862 20
174 51.37248440413386 29.65727983156165 20
175 47.06169590047809 36.10811002454736 20
176 41.94694826622124 41.94210225966779 20
177 36.0881696760113 47.0265773286145 20
178 29.5781186404096 51.24784562715116 20
179 22.60698783966774 54.65366622654385 20
180 15.24411927762522 57.10205265570592 20
181 7.66981241800992 58.79901734873363 20
182 0 -60 6.666622648584534
183 0 -60 13.33332924847172
184 3.870132190564548 22.5085757950503 -78.1579784714298
185 3.870132190590062 -22.50857579504597 -78.15797847142706
186 4.936399371939455 -36.66313400523054 -44.52051696715657
187 5.035232374328803 36.72063463280539 -44.3529165804626
188 56.33983985081618 3.402231362013494 0.03042148609369994
189 4.32804385900221 27.99566916659506 -64.48648428191071
190 15.83633199110635 2.080112311079678 -96.69182854712557
191 50.60759757552184 -24.40524430012918 -1.454466753104623
192 4.363126117161839 -29.96271538297728 -59.84546166557449
193 46.81950875187432 30.8721202836162 -2.252930670508046
194 5.132218643334525 -41.8463200828341 -33.43427484048503
195 5.292732318849225 41.78906844621358 -33.48822098868528
196 38.20633129627883 -41.22758635593343 -3.215983561331277
197 12.66678164502554 9.80806029792042 -96.58086137134481
198 12.62799971422407 -9.688839176061276 -96.87572651733043
199 30.68489043052299 47.3134489996194 -3.517841896208759
200 5.683804415404255 -47.51790170995021 -21.74997429956489
201 3.450802391655527 -19.37646471832615 -86.4550697129923
202 3.610671691056704 19.33372441943169 -86.4765920333576
203 5.561374746338046 47.58239370435021 -21.66954477787423
204 4.5932438211857 32.08250412459859 -54.86139650090431
205 4.148423229257072 -26.03137881989865 -69.2911321114763
206 25.04054470821875 -50.35187590418337 -4.232408450398593
207 19.78259872545816 52.34105055966246 -5.091130398474347
208 53.61224922897727 17.45460933936885 -0.5739474121767475
209 55.47713210833217 -12.01105218832157 0.4650453931339407
210 5.773816815437666 -53.92573533450073 -9.400623807229758
211 6.236844871460605 14.63093705607002 -96.81237011750983
212 6.076436490132934 -14.95242581414146 -96.14408499889076
213 5.836878053737042 53.96237212862557 -9.309457041988901
214 9.590686542879521 -12.76491937888047 -96.7162653312767
215 9.487763759626977 -14.40601420184427 -93.07072660613237
216 3.48756118921562 -17.86445126143082 -90.43982763374193
217 6.954659460781427 -17.69725404680596 -88.18428942328086
218 7.200699677913134 -19.15297825995847 -84.28630609147829
219 10.41770389396107 -16.95159287402807 -85.79804792497292
220 10.652941474072 -18.54698136598829 -81.80640637494953
221 13.7038486340093 -15.7988902667955 -83.11855153865376
222 14.01630517409861 -17.50363149098354 -79.12339457703709
223 16.74579517411012 -14.15712277473317 -80.35157375098353
224 17.16305920353315 -16.06546762333853 -76.22707435484418
225 19.53158479362393 -12.29693520076856 -77.22987934367856
226 20.07606274013051 -14.32609494242557 -73.13830653759328
227 22.05882611664006 -10.2029341994459 -73.94781006523475
228 22.77258433066334 -12.36251610446293 -69.83480704170974
229 24.34300881080092 -7.929170388839039 -70.51438085375885
230 23.37883448869324 -5.725424017286393 -74.47394701709895
231 25.20627775870401 -3.280983233968988 -70.91881576220024
232 26.43415095407486 -5.583897152193487 -66.82892348164852
233 26.87271153248755 -0.7544389959508837 -67.12958316038034
234 28.31116485435485 -3.13336714379451 -63.07447365039894
235 25.29888487003602 1.573483861646732 -71.09299192044448
236 28.41076106999874 1.875011513425579 -63.0945106442592
237 30.14465215121021 -0.5746312945312876 -58.89100317905339
238 29.77634197842638 4.525381187463765 -58.9998225051723
239 31.73858763878045 2.019832825577383 -54.8212460155149
240 31.67962680482084 -3.259765577547275 -54.72314563692567
241 33.63420246089652 -0.2412652844301942 -50.36595312849008
242 33.19156876877526 5.195308045157423 -50.50260678251045
243 33.1402057685242 -6.014066413484678 -50.310666215
244 35.35708851848492 -2.65022064473087 -46.02235412242621
245 34.58947579872675 -8.900397286867067 -45.52306233934682
246 37.02936790842656 -5.834557767546638 -41.28976721407581
247 35.91675529441837 -11.68203941820244 -40.79859999795084
248 33.00168208607212 -14.39508819926606 -45.0471797272947
249 34.12236376724355 -17.18460880560205 -40.04419159982218
250 38.62722958472221 -8.83161661666383 -36.4164567493693
251 39.28259696814757 -2.541254337116309 -36.89400679574243
252 41.25461443743183 -5.849186458989328 -31.69254119716388
253 41.51106508321568 0.3691896029621664 -31.9861976745952
254 30.75520104565476 -19.71214494827317 -44.10390900865024
255 31.68599432151944 -22.41246969117696 -38.98168042389867
256 20.57052394345033 -16.48784054101639 -68.83779664035956
257 18.69954714714299 -10.51710874088075 -81.52754365028079
258 43.66391453557654 -2.736637901191898 -26.98143515983712
259 43.59610121174388 3.603434545797384 -27.00109384954494
260 41.03451376837823 6.725157386535798 -31.90348300298447
261 42.79424869829619 9.937313140623333 -26.72597779891582
262 39.81778815228776 12.88980818171475 -31.49398824917715
263 43.01912119119591 -9.038298789015208 -26.64088849418353
264 41.24520786452293 16.08673458027548 -26.2404345794269
265 37.81801194767131 18.92437921858562 -30.82923994564471
266 39.05994056436497 22.05315438971143 -25.32822663155518
267 35.16192812030494 24.67135316991357 -29.75332195273687
268 34.20666340418879 21.64873104147942 -35.0998029623633
269 31.13576497716472 26.98714936637237 -33.88903889079232
270 30.32830807351885 24.28773511044064 -39.02489524758955
271 31.96844317553308 29.88626513078983 -28.4237352673795
272 27.68498014735027 6.958368829076888 -62.97510980575736
273 27.88497963160667 -24.68447431886147 -42.79852804870466
274 28.673843841121 -27.34612451388728 -37.52013476128472
275 32.69665177819206 -25.12791467183068 -33.65317335690088
276 29.43904311659205 -30.04657915403342 -32.23517478610678
277 33.69252185523057 -27.88385091173745 -28.29375361343203
278 30.15219449254131 -33.0716784901691 -26.55840490826467
279 27.1279110332591 -22.12330222060934 -47.86680750070047
280 28.72801429585652 9.565078241581219 -58.7095271781092
281 26.19464299006088 11.87632028426988 -62.56874305711504
282 26.98536345319932 14.39748182696502 -58.12470438811496
283 24.04351927685996 16.50869747804803 -61.74969245765804
284 24.61066939280835 18.93711930010107 -57.2039971078311
285 23.45659735187794 14.09840893039922 -66.17339791699
286 27.02653590081429 28.90229556947895 -37.78464774386688
287 23.44454587332105 -14.54082809524272 -65.63216674991155
288 20.97882920990137 -18.65450193227406 -64.60075486001794
289 20.87824687336185 18.3543781281933 -65.27636569565709
290 20.45157878342827 16.0988380316774 -69.68011695480216
291 17.53216794520431 19.93144641864769 -68.53801699236816
292 17.23309473693437 17.8151637275651 -72.9641581176365
293 23.87919381842405 -26.64640618016437 -46.38129538057821
294 4.953703652899278 -34.28329446650471 -49.74703183373651
295 17.49498112761276 22.23788581003991 -64.21721011136827
296 4.306850357314889 26.01438220383936 -69.25243672215849
297 34.77766614189707 -30.80135256182032 -22.58545790944981
298 24.78816668495945 -32.02298972354929 -35.92826309964913
299 45.5960934646486 6.922604848860019 -21.82460137947468
300 45.81127643016289 -5.867752413617557 -21.65583580536997
301 44.8157166626608 -12.34505418629426 -21.199396809562
302 19.96111281601009 13.98049502496194 -73.8912291747571
303 16.98277403622293 15.75675861292695 -77.11717320140484
304 19.39851519827024 11.90423821732311 -78.06851840037655
305 16.67865440878822 13.70782642343845 -81.24680331447595
306 18.79757479153356 9.819447160130649 -82.17743140414127
307 4.48249327338673 29.99958693849903 -59.7037431839388
308 42.7651893636752 19.32714300054335 -20.59797858949638
309 40.26324562402109 25.33150364395641 -19.65779497643644
310 31.09200138041708 -35.87121110287479 -20.92935671322465
311 26.01712906616714 -37.64695692449677 -24.74511329093798
312 9.083303639369634 30.05280389366473 -56.92594512762888
313 27.78361408971342 16.9011380326689 -53.51006513989425
314 25.13840504737822 21.45584442992925 -52.50187254766197
315 30.76987723596753 -8.828133822684395 -54.42634199218184
316 14.24274077740093 -19.31622398349067 -75.02493404483896
317 3.909853506894065 -24.25533176791003 -73.76692175538624
318 33.07680916847669 19.10746276861169 -40.17314074961351
319 16.05465541892003 11.78309515548644 -85.73307671958469
320 18.26331125793676 7.726512554317443 -85.89268478311612
321 20.20968136114499 5.709410976512914 -82.67310408996663
322 19.2786646295876 3.590334743278349 -86.45788641380862
323 9.750643363596989 -34.50433200868854 -46.67669322777902
324 23.22873983601575 -24.16887125855146 -51.56099019264636
325 9.387604171694878 -32.25089251580666 -51.82627540911579
326 20.81555120936993 1.402996743658741 -83.01663707180845
327 19.59399053568492 -0.7632742243780193 -86.45104554833244
328 13.21171601472043 -14.25801657291601 -87.09265483717412
329 24.30892603639517 -16.39659238387749 -61.35399631974773
330 14.11778715604527 17.21643720553193 -79.54163715452286
331 3.683436179444586 20.92360203966364 -82.30225108867695
332 47.83649994992334 -9.078784339781752 -16.31010381098076
333 46.56172963930661 -15.52761389460403 -15.73277344364397
334 26.78797170994551 -40.64259405548465 -18.77022510009644
335 5.87471298393571 -50.67195938028768 -15.53736889149351
336 21.3899520573474 -41.84433585849278 -22.47847013604791
337 21.6922956416412 -45.10325339827411 -16.36319316213228
338 35.91221047542938 -33.82801059047079 -16.69176311531645
339 44.17586078271486 22.53005269216391 -15.09188335495952
340 36.32382779886368 -22.81203336372445 -29.74362757117637
341 14.375434378777 21.00978991507152 -71.29750309575763
342 4.060485022868201 24.23771135441777 -73.7329083908995
343 38.22734318880362 9.923111248600097 -36.7480166507702
344 41.42931146041362 28.69976255718091 -13.8920028583712
345 20.62365302354003 -39.03950943519838 -28.3495115930288
346 5.409806906363913 -44.54117203797927 -27.80374926228109
347 39.01259201073873 -28.48505172974291 -18.35006234243392
348 40.65809790967965 -31.4383649871943 -12.05598210371574
349 21.4983857552726 23.16953301206064 -56.1207805198427
350 9.166585795954882 32.38085365970093 -51.68532371337825
351 21.89834521970311 25.57619186065576 -51.30138994927128
352 9.790370955503793 -36.96709683698717 -41.39133906375648
353 14.71267669983486 -34.33936253752118 -43.20728580762645
354 9.131305769658647 25.7292587956962 -66.7672944534728
355 17.5097275341739 5.728945416272925 -89.76641972013979
356 36.93989779250553 31.21496398747402 -18.4976304776414
357 38.00557787224196 34.51292873525562 -12.51378439320805
358 33.05080286660272 36.73764744151863 -16.85316214684526
359 21.889300359685 9.826883572877527 -74.75229005106908
360 17.59196671706942 -20.26470357094966 -67.81467149066142
361 4.200406445852138 -27.90141903847321 -64.77221442556792
362 17.89537175542326 -22.37287254585359 -63.34327525757412
363 8.33885728295979 -26.03067743244172 -66.69235402766918
364 21.96864273407177 4.1109430868327 -79.01825503241663
365 27.4837971102317 -8.076269297050816 -62.74829811007197
366 13.17324703929493 -51.17988302004373 -11.30286899459517
367 48.46454036247169 -2.414476952777332 -16.53915252888051
368 19.21039991075348 -28.38186234754659 -49.99182111278852
369 46.25205503044348 16.35694414705106 -15.82669540416639
370 14.7942553257941 -37.00593992757328 -37.74545601338477
371 7.292975744989068 19.14344001646049 -84.22376934513134
372 7.046187932541354 17.75251388467018 -87.95410141521482
373 9.788017669418476 12.66698653382482 -96.60489881069876
374 8.515282442603993 14.76187717528472 -93.62276804095616
375 11.82230451605891 12.46019556063197 -93.33278063384091
376 50.796824975693 -5.641694258856948 -11.07446039591208
377 51.01767383709465 1.339318842501162 -11.18156865039938
378 26.4127372377848 -19.71375453893413 -52.60950901995862
379 18.73966184106838 -26.26211734240631 -54.67467323493739
380 17.78367728113943 26.90740933167483 -54.70848340091693
381 18.15480493533215 29.21485659981392 -49.72530517010453
382 20.85638312970924 -2.587818500563432 -82.60370990135098
383 18.97509517889045 -5.056325803953778 -86.39467074617632
384 18.1955686000807 -2.837834446877705 -89.76968275271324
385 17.12601461476296 -7.012764205574933 -89.54617843699009
386 16.56636973587775 -4.704818201989256 -93.13681290116577
387 10.55435319490195 16.81381450820885 -85.92305359496133
388 26.92580543482883 -44.09896514712176 -12.82531218062561
389 15.91062255342962 -42.46754846848629 -26.11627696860359
390 22.33919852733996 28.02231165807659 -46.33579926093365
391 18.43025814079628 31.5463873389707 -44.8675728979315
392 5.217060228386657 39.20195235759973 -38.94681057005168
393 10.44331934852611 39.50431823320875 -35.70366575536872
394 10.5382664867702 42.21542429980312 -30.11505414003795
395 15.63833325575306 39.37499788271526 -32.34592797847589
396 15.71642104440056 42.21514800213909 -26.74988798684031
397 20.74650386727448 38.8234945867904 -28.61801083856209
398 20.88713573623911 41.8533712278018 -22.95534094923235
399 5.887251401879035 50.66476607379986 -15.54652147948907
400 19.9875549578699 36.17217172757767 -34.32833628906902
401 11.14552388456478 47.96304185069116 -18.45582114072522
402 25.59697471058436 38.00985069475458 -24.63431633834881
403 7.845112174343912 22.37491472626324 -75.78898891119022
404 28.53252777653996 19.46244610858059 -48.80157533673339
405 30.76618568272069 14.36127005812787 -49.92742313378798
406 43.11539962315183 -18.30807319670044 -20.72599966070239
407 7.476423469403276 -22.51679182003029 -75.7493103369353
408 47.94548038579181 19.82451495435484 -10.04329836742795
409 49.88414612186862 13.09110394851657 -10.32759374591962
410 43.11106014076366 -25.89004870509094 -13.87474830949896
411 14.57644119174556 9.461514604414283 -92.73116423497189
412 14.98195808319539 6.38208476113349 -95.80818069869477
413 25.78949418842038 41.26565940763859 -18.85137015408031
414 21.26166047936126 44.97099873801826 -16.99351451331999
415 11.18285044853965 51.24346009259624 -12.1936359850004
416 26.09788231536889 44.54504703116928 -12.95795260824923
417 20.92630476123922 48.48686478634101 -11.02860894997032
418 45.37580512171174 -28.4026373024026 -7.277393490143751
419 47.48504279415775 -22.42940436645761 -8.896673467291649
420 17.93927550849594 -53.07803900150665 -5.035086569796384
421 34.71039456560915 39.59631703867021 -10.35175333761358
422 39.27429590030977 37.50815029910609 -6.656437635044606
423 4.978042065005088 16.31316748364566 -93.55358590015967
424 14.36774645555791 -23.43079355103213 -66.22040687013862
425 7.658237241170999 -24.28077048026152 -71.35018779793192
426 14.53020721634227 -25.48194094234586 -61.70671554351147
427 8.406617787615051 -27.98097677259433 -62.11528568485204
428 14.72913732337733 -9.144020055036586 -92.84421466105289
429 19.762699041813 -30.72983767326728 -44.82938418315685
430 14.44724235427421 -31.87015726414888 -48.51479568390448
431 37.20534870079853 -37.20920423452777 -10.13919509539557
432 14.16219050812593 11.767392577942 -89.86938210338299
433 15.77350146482828 -2.076466407429989 -96.8723424872972
434 17.0862011608776 -0.07579957748608132 -93.50854610915684
435 9.978439370288449 37.03322935402558 -41.13824206076971
436 11.37561031149082 -48.135526050257 -18.00590795091754
437 51.55614751414156 -16.56006512707316 -5.114285003948353
438 17.61566241599795 -9.055418376959777 -85.97771752669304
439 15.27771520649156 -39.67543393745473 -32.0442056920843
440 53.66098578915883 -1.613259553166496 -5.63127223833682
441 7.552813389349316 20.79331143355435 -79.90025484619387
442 10.94922516104958 20.18856495012824 -77.67354168594359
443 4.539890244142899 -32.10749522611415 -54.8287666650437
444 13.80034660103133 32.24568606141942 -48.34935376690196
445 4.732265672151431 34.37718015823578 -49.63672778753883
446 20.00848843025861 -36.31506164757431 -34.03901355809344
447 14.14603204477583 -29.71341461860766 -53.29143216121579
448 9.595556534750447 -29.86441213469833 -56.98231281481333
449 7.959897553432067 24.16513362613696 -71.39292100908685
450 10.53378805098172 15.01872828556378 -90.05553109007684
451 18.30651546160385 1.44725706773722 -89.9107146970868
452 36.62167223059512 16.0160979942638 -35.91530536621185
453 35.18351681304242 13.22395461550689 -41.28512925103301
454 36.60586423818056 7.167186356343888 -41.75095740015355
455 39.00938676383755 3.78195101948248 -37.30331377974473
456 33.830211443915 10.17252093984216 -46.48563649752869
457 29.80342150283256 -17.26224911314212 -48.90397619833431
458 28.93078523698717 -14.62729543296088 -53.64591057373208
459 10.73678538831819 18.47692977098335 -81.85640614347042
460 3.088658764256717 -16.58882515594782 -94.1176690579461
461 25.19397040108841 -34.94134121273459 -30.39097965432377
462 11.84122629093177 -12.06817720127058 -94.08507163820056
463 22.42875119744634 -22.34539890008654 -55.9353464855392
464 10.92017757576037 -45.14175640586079 -24.07031321647159
465 31.84332924257329 -11.92969459824011 -49.70194617060362
466 27.90504604306036 -11.92866753336738 -58.614465683667
467 25.39274949180699 9.33030861925417 -66.81709906823656
468 20.75443425203983 -48.79664226709455 -10.61992207376487
469 6.407096422267344 -16.41741921879522 -91.9973777761853
470 9.937667379815041 -15.62125684547673 -89.56459757339792
471 14.75547891163172 -6.166715402286231 -96.6440927953897
472 17.46300331843322 24.5912043584883 -59.6861058006554
473 9.091924304969076 27.92175721567458 -61.75058093293251
474 13.40951325513997 25.50071658849676 -62.99881112248374
475 14.30861670504497 19.21163118646823 -75.14117609181855
476 19.74646471362321 -33.58326750070141 -39.45653926446989
477 21.12563654461348 -8.256817376964205 -78.19020511210664
478 22.04843127432362 -4.050743614452683 -78.83705632415159
479 23.78613527165414 -1.321143886784879 -75.08551574822619
480 26.57672725072692 4.344783639797708 -67.036270547379
481 24.23671727098604 6.730315302128041 -71.65414019658736
482 10.63719586132544 45.01086086598771 -24.47835748917317
483 21.21678979306427 20.73797674923697 -60.73197182397242
484 32.46279230046142 33.303756104917 -22.74094960914762
485 24.4862378524068 -29.15685392363433 -41.23219392601298
486 15.08173629449492 36.83444590451039 -37.84692858402001
487 16.37408358297515 -45.47735559184971 -20.03722941573002
488 16.96274470557977 -47.91330027757402 -15.07113058166708
489 22.78432551343638 11.81735902803198 -70.44969367351882
490 24.42942521789032 35.35046000153643 -30.64852490345879
491 23.50481874539848 3.157775211107638 -75.37723752521539
492 3.682332529110026 -20.83803648340573 -82.52334414458899
493 7.299029225981314 -20.81088160570253 -80.07857524405111
494 41.6678089290961 -15.02144082387657 -26.13802373061263
495 15.45451195294531 -10.87731456291204 -88.50911961602537
496 13.32176809895416 27.60632504639272 -58.60070651160013
497 27.96375217762636 31.39371421563517 -32.41588776786611
498 14.37065648082018 -21.33337620227652 -70.62647190736803
499 13.89951127724939 23.23196154275894 -67.24380932546697
500 37.13170469698959 0.9951357022242191 -42.03389366208939
501 11.25861100080775 21.89266314548841 -73.4384332004222
502 10.3179183223709 -42.34968040833031 -29.96511766825387
503 10.15663052571805 -39.6151793075708 -35.64137783590073
504 10.88405133618405 -20.22372909420925 -77.67472439861422
505 36.18250243770285 27.8730357687645 -24.01121751514653
506 40.18276864031922 -11.83041981260477 -31.36984039214569
507 13.44346977212359 29.94926893553194 -53.50400686757346
508 25.5090090141225 50.77131882525205 -3.102025738133263
509 4.935992710230959 -39.26279980011983 -38.93456951465895
510 5.362605282327748 44.63266575237134 -27.63713658767902
511 31.05021206007569 7.212180349068734 -54.71461274421684
512 31.70048751816617 -46.67803403689616 -3.390278128948708
513 25.21815437966363 -10.20914349612403 -66.44925220062161
514 17.48572868662819 -18.14749116511372 -71.90575326828146
515 16.69848060993223 3.899844988505811 -93.34177955254711
516 21.01618571817547 8.041062981573857 -78.66603491521812
517 25.66311892212557 24.01470880570354 -47.67114084719291
518 35.11536071456676 -19.95197443415342 -35.19757655216105
519 37.11842257039691 -14.52473059767455 -36.09587194129127
520 37.51261373776244 -25.78928672595957 -24.15745336882366
521 44.41007506236509 13.30139612951635 -21.51418042372836
522 29.72728847670594 12.11379588535168 -54.31407442531869
523 42.58314670341095 32.44160745789016 -7.680178186727433
524 45.64631342633325 26.38489755156687 -8.78238778298282
525 49.80033394460951 24.00224688297765 -3.273659570805367
526 26.34495503514082 26.46139383290933 -42.71662354355941
527 31.9317091355941 -39.11199486557403 -14.83028750479283
528 46.14093953482267 0.6191625270998126 -21.68844626659795
529 3.420987514201681 17.78801223772628 -90.6838071343774
530 49.82013919738167 -12.1466058831883 -10.90743130491902
531 29.67677892655298 -5.938724142993983 -58.65778962179586
532 22.85182336565667 30.35504402634172 -41.48460989684409
533 46.87440308923537 -31.99678446824648 -0.9941764394425304
534 42.16674592995243 -34.81692444101008 -5.557332026568176
535 11.25909433242644 -55.15714674424305 -4.904469122999709
536 55.47333078588751 10.76357363664627 -0.007074294492857104
537 53.05559168513213 7.134026355084439 -6.026425626300801
538 56.33309763926501 -4.596416459204621 0.1737553286807829
539 13.85209189656076 15.25791149668862 -83.93413580559958
540 48.34572999776486 4.074995814511848 -16.57280756186537
541 16.03238641941544 -12.61259329493494 -84.43179179135953
542 32.60408746616861 -42.56915330971633 -8.676861757286357
543 11.76950524765452 54.98431339586313 -4.985143654930542
544 9.543933096476568 34.63954472149635 -46.51581022477374
545 29.44484426065977 21.88504162362927 -43.88122113423342
546 25.88626921637605 -12.25415119904526 -62.88610891817815
547 31.9012737396327 9.847068563135554 -51.11813784081004
548 32.057133358569 16.53117645473214 -45.00350623486781
549 16.03047960426285 45.12611093957631 -20.94605808828706
550 19.91620170127277 -6.722197219031758 -82.6329643171275
551 12.66989626553327 -12.97176468496947 -90.66912091501526
552 38.42631346992049 -17.46653915859359 -30.91847465952738
553 11.03710628773346 -22.0351001005583 -73.37650165730705
554 47.65863176872598 10.14752048020605 -16.26597495820849
555 5.496420697937996 56.81573735986507 -4.141559289543089
556 18.03690109828987 -24.40364854694838 -59.2365705611145
557 14.7184286109306 -27.563923202157 -57.14139826384136
558 52.95440750388803 -8.951965862371592 -5.716057821556018
559 14.37275914319202 34.45432780525303 -43.27708605890285
560 25.68314096764507 -17.50542784982896 -57.0547354234817
561 21.56277439279943 -20.61007005660595 -60.32733369987971
562 36.89731984322056 42.4049688225357 -3.362487732497777
563 43.21393180347647 36.518011724506 -1.862590781903708
564 16.29152667531271 9.035833810186736 -89.22739948596096
565 19.04225055572118 33.7488448154639 -39.94059785109507
566 35.18692397242903 4.213997349288341 -46.08184268771431
567 23.5585708331003 32.71386745988175 -36.37425082705775
568 13.04345238274148 14.30048431945561 -87.31911279604735
569 5.51028206485041 -56.72069550349887 -4.311125583150881
570 16.17405757696894 48.29178150546892 -14.90232798909489
571 39.81000116590702 -20.57128018156383 -25.32149448602496
572 50.16895378848314 7.181217683759 -12.01438352828469
573 52.54467663758997 13.33695615846941 -4.830647958562806
574 22.31945685912493 0.05672924608089779 -79.08115218077988
575 3.014581952576306 15.51950951501892 -97.09399319663679
576 2.628452515233984 -15.51151036021932 -97.34422997822465
577 29.99920989692543 40.75779626437183 -14.73843269609774
578 29.44078710622654 37.44302126674579 -20.73230539530927
579 11.2850743653493 -23.9222307573591 -68.84495512713247
580 54.14724721256295 -18.2893047918086 0.9475364677212895
581 41.18867179234627 -23.38955438475173 -19.93960090717119
582 28.85205475662757 34.18963587192206 -26.70298988100811
583 11.70153017396181 -25.74744082897405 -64.33788219664362
584 30.37811513575642 44.00889783512262 -9.107986104082842
585 25.70972419517384 47.79343887234842 -7.88787130463828
586 7.165865489229976 16.39013723683343 -91.27299319864942
587 11.88541145143191 -27.59192982158275 -60.09233809391949
588 27.23869969432374 -46.75636212928243 -8.07778109944309
589 11.33053431801666 23.39035246901694 -69.98823994732835
590 44.99418638789481 -20.49438961173765 -15.26111341331975
591 16.12381476772616 6.777830883318948 -92.38969980216609
592 22.48897827853141 6.566185575439068 -76.17983660866219
593 50.89125619396887 17.81977545370243 -5.661311273298908
594 2.129458096975341 16.66121618032031 -94.4449269834812
595 48.33006567179771 -17.28233362692431 -11.05672577491563
596 43.36906250576033 -37.56780620924648 -0.3579616767316862
597 16.31997545080709 51.06296851973367 -9.700537230029775
598 6.041382475519637 -59.08969730865428 10.14274853687557
599 6.126456507320014 59.07504431594964 10.22760552530134
600 18.62590561248271 56.10117476490561 7.495892531314691
601 17.41524907348855 -56.48086295615803 7.111310344660145
602 25.60814670137948 -53.32722549889781 13.55265978330149
603 25.47600351029034 53.39024246455499 13.93048417811854
604 38.63118128207107 -45.00112254291933 9.3339670109983
605 38.63118128207034 45.00112254291995 9.333967010998251
606 44.82115827905035 -38.85479800126786 13.44127794167538
607 44.82115827905022 38.85479800126803 13.44127794167507
608 48.19757788309827 -34.57748700078849 12.17875359268799
609 48.19757788309904 34.57748700078741 12.17875359268805
610 56.03149125357613 -19.47054607483492 11.97426277223098
611 56.03149125357594 19.47054607483546 11.97426277223098
612 31.65934965513106 50.02274742865796 8.493854973708833
613 32.1347409248942 -49.72830233870626 8.388910140104041
614 58.25020170505627 -11.20468750348104 12.40825335198831
615 59.19755729031822 -3.779965448667129 12.87103127820125
616 58.18052678708361 11.56128691693971 12.80447889915124
617 59.19284076749664 3.852957999191806 12.59039929735729
618 19.9253116634835 -55.66409732174326 13.52424414703186
619 19.48069570169226 55.81725894335811 13.75890879193843
620 53.0266850006986 -26.58598507684288 11.49784001219142
621 53.02668500070006 26.58598507684 11.49784001219318
622 25.60253759237577 53.32990907896216 7.770090334546218
623 25.75694940303655 -53.25575266191388 7.416212163862358
624 12.39707397915503 57.81604584851053 13.58469370690335
625 12.24334241400978 -57.85172203861904 13.73448059429378
626 10.89563875053981 58.15305267844541 6.307167076556197
627 11.97503505027952 -57.91333265735578 6.812867009342503
628 6.162905047363619 59.06874903764303 5.886280905416879
629 32.92260603010347 49.22718172962106 14.71790774016946
630 33.08375913670369 -49.12257965684338 14.84122149396108
631 39.10964712612872 44.59045185166705 15.44886782360082
632 39.10964712612899 -44.59045185166681 15.44886782360103
633 5.375993894333951 59.20236513930679 15.19668381272148
634 5.278029591807829 -59.21866764941511 15.21714290448877
635 44.31656038155312 -39.42951919712653 7.749734065000302
636 44.31656038155275 39.42951919712694 7.749734065000157
637 5.36562510912456 -59.20409405923191 4.935469836574348
638 3.250367526298552 -1.877209635890936 -100
639 9.075067846547604 7.154789059298416 -100
640 11.86250165868919 -1.141397822565095 -100
641 6.772354805094492 -9.357573439468254 -100
642 3.197827957058045 5.555055758205329 -100
643 4.533918897495313 10.54055330909544 -100
644 3.243895657961785 1.862974353719066 -100
645 6.290459001367815 -0.008295298645886445 -100
646 5.940191466748644 -3.690094107177833 -100
647 3.037652411230008 -5.44836902516584 -100
648 6.963135242469182 4.013772732438631 -100
649 3.410073579535166 -8.620026176507942 -100
650 9.570700581614297 1.214660574235157 -100
651 7.435106733797293 9.624374879093258 -100
652 10.9895660957598 4.344265830593995 -100
653 11.21366415287049 -4.10515635178851 -100
654 8.513033553927013 -6.236963236534545 -100
655 5.884162158593281 7.11329136397929 -100
656 12.31535856040041 1.651088638719082 -100
657 4.277597568505439 -11.26301478725249 -100
658 2.624900649767868 8.296461290218508 -100
659 8.715654757820818 -2.115945405741178 -100
660 5.614593527479055 -6.621263828672421 -100
661 53.23639079162998 3.792754925119872 20
662 47.38694239142849 -24.19313209862407 20
663 6.928203230275511 16 20
664 7.006970931127499 -7.932915207745928 20
665 46.87744485190679 24.60929703479232 20
666 34.86590828633215 -38.61152240870825 20
667 34.90700439301915 39.39813841465678 20
668 6.986287214052956 -23.89510061427396 20
669 6.925362603478828 32.03716046310005 20
670 6.987834665765892 -39.36827771541146 20
671 22.88964432322562 47.02910471620383 20
672 52.12541005621646 -10.66008518263141 20
673 23.14302608023189 -46.91357956030107 20
674 6.219123468487215 46.63722981248171 20
675 9.987615917826458 -51.39217388861937 20
676 6.790256644726266 39.77885016551474 20
677 13.75190528851468 35.95284410844337 20
678 13.84108955265947 28.09345771843397 20
679 20.63163374473192 32.0383742325066 20
680 20.70826611342213 24.1925598726493 20
681 27.47896676277741 28.12336277055971 20
682 27.55968708017179 20.29197170064779 20
683 20.76968904500529 16.31545749168843 20
684 27.62694569702636 12.42305974229365 20
685 20.79766020751516 8.35008115789344 20
686 27.68950341587533 4.531716085279876 20
687 34.4717874789643 8.53907892989959 20
688 34.53769457567399 0.671894383002994 20
689 27.76625833047921 -3.327117413508077 20
690 34.61060396550601 -7.19520259402707 20
691 27.83877701450513 -11.18901047228468 20
692 34.64051196483507 -14.9867565565985 20
693 27.91346509879547 -19.04974919094878 20
694 21.08547400851903 -15.23072929961971 20
695 21.13596905468127 -23.0819395329701 20
696 34.58844096859992 -22.83866986365915 20
697 40.90809586076559 -3.456784232873273 20
698 34.17342847178061 24.22122050962274 20
699 14.17480859247443 -19.39520139377685 20
700 14.33432755063352 -27.08615302664319 20
701 21.21119246138422 -30.97055442108966 20
702 14.22612772446242 -35.19057186241363 20
703 21.53348434515942 -38.77366477975983 20
704 14.11476587791187 -44.03750595252604 20
705 28.08589010141125 -34.66060327874803 20
706 7.064120338772303 -31.70715514508836 20
707 6.935283452013275 24.05648729699836 20
708 13.8304255653065 44.14499560377513 20
709 27.87482758232683 35.90437901304439 20
710 7.042755987284639 -15.85879587691639 20
711 27.9768560340832 -26.91864803134962 20
712 34.8777162176058 -30.76348153652771 20
713 40.71008187545148 -10.72761772756007 20
714 34.24963989246999 16.3993544810359 20
715 40.91616971010792 12.43577717646453 20
716 40.9294326759524 4.349788121764447 20
717 6.937585537814339 8.045462535679238 20
718 6.926633295016142 0.0003339354955377391 20
719 14.00632417010422 -3.72292958595094 20
720 13.92457406870312 4.256433336580268 20
721 13.91717296394456 12.25958233588027 20
722 20.99791188001213 -7.418723040033002 20
723 20.88048559799769 0.4720194708745964 20
724 13.84995072622004 20.15292411927505 20
725 21.16040980667017 39.84785742041888 20
726 34.23631432244481 31.85675665624195 20
727 40.3092836105527 27.83844773007289 20
728 14.05237426158699 -11.59321573400714 20
729 42.19391489134748 -18.53905118327165 20
730 47.23861756280334 7.728263885313266 20
731 48.68977678376459 16.25954023122775 20
732 40.42113673612857 20.39681351876617 20
733 40.78632374397499 -26.99351009200766 20
734 17.01930299865248 -50.8197956567393 20
735 16.96361081834728 50.61508228380429 20
736 28.63887793582144 -42.5843689294353 20
737 50.07759064628524 -17.42802656780689 20
738 53.27224983597817 -3.490813782290533 20
739 28.74969573694378 43.40898375334825 20
740 40.83813961987458 -34.13515748607506 20
741 40.73680372064777 34.64156755815331 20
742 47.16767688703335 -0.2094886955247359 20
743 5.981937107495547 -46.36101899786391 20
744 53.16220635549993 10.3814252103107 20
745 10.10268884530482 52.01759345784809 20
746 46.15980613938855 -7.09143047119306 20
747 45.49024530463576 -30.39221859499101 20
748 46.25336072173783 -12.88924222649262 20
749 45.27154249754385 30.5709404358255 20
$EndNodes
$Elements
1313
1 2 2 1 1 241 566 244
2 2 2 1 1 491 574 364
3 2 2 1 1 366 468 420
4 2 2 1 1 329 546 466
5 2 2 1 1 479 574 491
6 2 2 1 1 466 560 329
7 2 2 1 1 106 525 107
8 2 2 1 1 246 500 251
9 2 2 1 1 477 550 478
10 2 2 1 1 295 474 472
11 2 2 1 1 366 488 468
12 2 2 1 1 456 548 453
13 2 2 1 1 560 561 329
14 2 2 1 1 198 471 428
15 2 2 1 1 418 419 191
16 2 2 1 1 431 534 196
17 2 2 1 1 244 566 500
18 2 2 1 1 405 548 456
19 2 2 1 1 463 561 560
20 2 2 1 1 377 537 440
21 2 2 1 1 474 496 472
22 2 2 1 1 353 430 429
23 2 2 1 1 440 537 188
24 2 2 1 1 251 500 455
25 2 2 1 1 462 551 215
26 2 2 1 1 359 489 481
27 2 2 1 1 386 434 384
28 2 2 1 1 478 550 382
29 2 2 1 1 433 434 386
30 2 2 1 1 69 412 68
31 2 2 1 1 499 589 354
32 2 2 1 1 421 584 562
33 2 2 1 1 215 551 470
34 2 2 1 1 429 430 368
35 2 2 1 1 538 558 440
36 2 2 1 1 207 585 417
37 2 2 1 1 208 525 106
38 2 2 1 1 430 447 368
39 2 2 1 1 428 551 462
40 2 2 1 1 368 447 379
41 2 2 1 1 420 535 366
42 2 2 1 1 388 468 337
43 2 2 1 1 508 585 207
44 2 2 1 1 212 469 460
45 2 2 1 1 107 525 193
46 2 2 1 1 381 507 444
47 2 2 1 1 474 499 354
48 2 2 1 1 68 412 190
49 2 2 1 1 209 558 538
50 2 2 1 1 325 448 447
51 2 2 1 1 481 489 467
52 2 2 1 1 451 515 355
53 2 2 1 1 428 462 198
54 2 2 1 1 191 533 418
55 2 2 1 1 244 500 246
56 2 2 1 1 530 558 437
57 2 2 1 1 466 531 315
58 2 2 1 1 388 588 468
59 2 2 1 1 458 466 315
60 2 2 1 1 428 471 386
61 2 2 1 1 245 465 243
62 2 2 1 1 459 539 387
63 2 2 1 1 444 507 350
64 2 2 1 1 429 476 353
65 2 2 1 1 562 584 199
66 2 2 1 1 439 503 370
67 2 2 1 1 253 455 260
68 2 2 1 1 495 551 428
69 2 2 1 1 443 448 325
70 2 2 1 1 251 455 253
71 2 2 1 1 370 446 439
72 2 2 1 1 375 411 197
73 2 2 1 1 215 469 212
74 2 2 1 1 348 534 431
75 2 2 1 1 446 476 298
76 2 2 1 1 434 515 451
77 2 2 1 1 386 471 433
78 2 2 1 1 419 437 191
79 2 2 1 1 448 557 447
80 2 2 1 1 387 450 372
81 2 2 1 1 365 531 466
82 2 2 1 1 437 558 209
83 2 2 1 1 476 485 298
84 2 2 1 1 315 465 458
85 2 2 1 1 257 541 438
86 2 2 1 1 380 507 381
87 2 2 1 1 213 543 415
88 2 2 1 1 109 563 562
89 2 2 1 1 242 566 241
90 2 2 1 1 434 451 384
91 2 2 1 1 243 465 315
92 2 2 1 1 481 592 359
93 2 2 1 1 193 525 524
94 2 2 1 1 193 524 523
95 2 2 1 1 373 375 197
96 2 2 1 1 197 412 69
97 2 2 1 1 343 454 453
98 2 2 1 1 294 443 325
99 2 2 1 1 421 562 422
100 2 2 1 1 458 560 466
101 2 2 1 1 432 568 319
102 2 2 1 1 330 539 459
103 2 2 1 1 490 567 400
104 2 2 1 1 211 373 71
105 2 2 1 1 248 465 245
106 2 2 1 1 524 525 408
107 2 2 1 1 472 496 380
108 2 2 1 1 196 542 431
109 2 2 1 1 119 492 185
110 2 2 1 1 257 550 477
111 2 2 1 1 211 374 373
112 2 2 1 1 343 453 452
113 2 2 1 1 418 534 348
114 2 2 1 1 562 563 422
115 2 2 1 1 496 507 380
116 2 2 1 1 268 452 318
117 2 2 1 1 437 595 530
118 2 2 1 1 438 541 495
119 2 2 1 1 375 450 432
120 2 2 1 1 495 541 328
121 2 2 1 1 429 485 476
122 2 2 1 1 370 476 446
123 2 2 1 1 278 461 276
124 2 2 1 1 473 496 474
125 2 2 1 1 307 473 189
126 2 2 1 1 319 564 432
127 2 2 1 1 392 435 187
128 2 2 1 1 452 453 318
129 2 2 1 1 189 473 354
130 2 2 1 1 317 425 205
131 2 2 1 1 260 455 343
132 2 2 1 1 298 461 446
133 2 2 1 1 497 567 490
134 2 2 1 1 356 505 484
135 2 2 1 1 295 499 474
136 2 2 1 1 265 452 268
137 2 2 1 1 223 541 257
138 2 2 1 1 231 479 235
139 2 2 1 1 435 544 187
140 2 2 1 1 543 597 415
141 2 2 1 1 456 566 242
142 2 2 1 1 311 461 278
143 2 2 1 1 480 481 467
144 2 2 1 1 349 483 472
145 2 2 1 1 454 456 453
146 2 2 1 1 484 505 271
147 2 2 1 1 254 457 248
148 2 2 1 1 353 476 370
149 2 2 1 1 448 587 557
150 2 2 1 1 453 548 318
151 2 2 1 1 498 514 360
152 2 2 1 1 350 544 444
153 2 2 1 1 467 489 285
154 2 2 1 1 472 483 295
155 2 2 1 1 79 342 78
156 2 2 1 1 438 550 257
157 2 2 1 1 407 425 317
158 2 2 1 1 125 443 294
159 2 2 1 1 296 342 79
160 2 2 1 1 316 514 498
161 2 2 1 1 233 480 236
162 2 2 1 1 118 492 119
163 2 2 1 1 90 399 89
164 2 2 1 1 131 335 132
165 2 2 1 1 84 445 83
166 2 2 1 1 125 294 126
167 2 2 1 1 86 392 85
168 2 2 1 1 235 480 233
169 2 2 1 1 82 307 81
170 2 2 1 1 529 594 74
171 2 2 1 1 80 296 79
172 2 2 1 1 335 436 366
173 2 2 1 1 331 441 371
174 2 2 1 1 77 331 76
175 2 2 1 1 281 467 285
176 2 2 1 1 411 412 197
177 2 2 1 1 324 463 378
178 2 2 1 1 292 475 341
179 2 2 1 1 420 468 206
180 2 2 1 1 393 486 435
181 2 2 1 1 342 449 403
182 2 2 1 1 502 503 439
183 2 2 1 1 457 465 248
184 2 2 1 1 322 451 355
185 2 2 1 1 534 596 196
186 2 2 1 1 188 538 440
187 2 2 1 1 219 470 328
188 2 2 1 1 78 342 184
189 2 2 1 1 315 531 240
190 2 2 1 1 75 529 74
191 2 2 1 1 71 373 70
192 2 2 1 1 81 307 189
193 2 2 1 1 83 445 204
194 2 2 1 1 492 493 185
195 2 2 1 1 477 478 230
196 2 2 1 1 276 461 298
197 2 2 1 1 85 392 187
198 2 2 1 1 346 464 200
199 2 2 1 1 76 331 202
200 2 2 1 1 479 491 235
201 2 2 1 1 200 335 131
202 2 2 1 1 302 303 292
203 2 2 1 1 89 399 203
204 2 2 1 1 214 215 212
205 2 2 1 1 439 446 345
206 2 2 1 1 304 305 303
207 2 2 1 1 441 459 371
208 2 2 1 1 268 270 269
209 2 2 1 1 242 547 456
210 2 2 1 1 306 319 305
211 2 2 1 1 528 540 367
212 2 2 1 1 379 463 324
213 2 2 1 1 290 489 302
214 2 2 1 1 260 343 262
215 2 2 1 1 412 515 190
216 2 2 1 1 285 290 289
217 2 2 1 1 94 420 206
218 2 2 1 1 324 378 279
219 2 2 1 1 268 318 270
220 2 2 1 1 293 324 279
221 2 2 1 1 290 292 291
222 2 2 1 1 302 489 359
223 2 2 1 1 368 379 324
224 2 2 1 1 265 268 267
225 2 2 1 1 406 494 301
226 2 2 1 1 385 386 384
227 2 2 1 1 397 490 400
228 2 2 1 1 272 467 281
229 2 2 1 1 290 302 292
230 2 2 1 1 123 361 192
231 2 2 1 1 325 447 430
232 2 2 1 1 389 439 345
233 2 2 1 1 121 317 205
234 2 2 1 1 92 535 93
235 2 2 1 1 302 304 303
236 2 2 1 1 130 346 200
237 2 2 1 1 112 508 207
238 2 2 1 1 235 481 480
239 2 2 1 1 281 285 283
240 2 2 1 1 322 355 320
241 2 2 1 1 236 480 272
242 2 2 1 1 262 452 265
243 2 2 1 1 304 306 305
244 2 2 1 1 273 279 254
245 2 2 1 1 336 345 311
246 2 2 1 1 190 434 433
247 2 2 1 1 383 384 327
248 2 2 1 1 325 430 323
249 2 2 1 1 306 320 319
250 2 2 1 1 349 472 380
251 2 2 1 1 478 574 479
252 2 2 1 1 189 296 80
253 2 2 1 1 204 307 82
254 2 2 1 1 473 474 354
255 2 2 1 1 187 445 84
256 2 2 1 1 126 294 186
257 2 2 1 1 356 484 358
258 2 2 1 1 195 392 86
259 2 2 1 1 343 452 262
260 2 2 1 1 354 449 296
261 2 2 1 1 184 331 77
262 2 2 1 1 132 335 210
263 2 2 1 1 343 455 454
264 2 2 1 1 301 494 263
265 2 2 1 1 294 325 323
266 2 2 1 1 312 473 307
267 2 2 1 1 112 207 113
268 2 2 1 1 213 399 90
269 2 2 1 1 94 206 95
270 2 2 1 1 227 477 230
271 2 2 1 1 213 415 399
272 2 2 1 1 371 372 202
273 2 2 1 1 393 435 392
274 2 2 1 1 345 461 311
275 2 2 1 1 230 479 231
276 2 2 1 1 110 199 111
277 2 2 1 1 385 428 386
278 2 2 1 1 383 385 384
279 2 2 1 1 272 480 467
280 2 2 1 1 96 196 97
281 2 2 1 1 268 269 267
282 2 2 1 1 299 540 528
283 2 2 1 1 305 330 303
284 2 2 1 1 395 486 393
285 2 2 1 1 285 289 283
286 2 2 1 1 270 286 269
287 2 2 1 1 107 193 108
288 2 2 1 1 463 560 378
289 2 2 1 1 290 291 289
290 2 2 1 1 99 191 100
291 2 2 1 1 105 208 106
292 2 2 1 1 101 209 102
293 2 2 1 1 103 188 104
294 2 2 1 1 342 403 184
295 2 2 1 1 65 471 198
296 2 2 1 1 292 341 291
297 2 2 1 1 371 459 387
298 2 2 1 1 378 458 457
299 2 2 1 1 331 371 202
300 2 2 1 1 273 293 279
301 2 2 1 1 379 556 463
302 2 2 1 1 205 425 363
303 2 2 1 1 293 368 324
304 2 2 1 1 323 430 353
305 2 2 1 1 279 457 254
306 2 2 1 1 200 464 436
307 2 2 1 1 433 471 66
308 2 2 1 1 200 436 335
309 2 2 1 1 190 433 67
310 2 2 1 1 399 401 203
311 2 2 1 1 400 486 395
312 2 2 1 1 296 449 342
313 2 2 1 1 397 400 395
314 2 2 1 1 402 490 397
315 2 2 1 1 81 189 80
316 2 2 1 1 336 389 345
317 2 2 1 1 375 432 411
318 2 2 1 1 127 509 128
319 2 2 1 1 83 204 82
320 2 2 1 1 119 185 120
321 2 2 1 1 78 184 77
322 2 2 1 1 121 205 122
323 2 2 1 1 128 509 194
324 2 2 1 1 88 510 87
325 2 2 1 1 123 192 124
326 2 2 1 1 186 509 127
327 2 2 1 1 128 194 129
328 2 2 1 1 85 187 84
329 2 2 1 1 126 186 127
330 2 2 1 1 87 195 86
331 2 2 1 1 423 594 529
332 2 2 1 1 209 580 437
333 2 2 1 1 117 201 118
334 2 2 1 1 76 202 75
335 2 2 1 1 87 510 195
336 2 2 1 1 130 200 131
337 2 2 1 1 285 489 290
338 2 2 1 1 284 483 349
339 2 2 1 1 321 322 320
340 2 2 1 1 486 559 435
341 2 2 1 1 89 203 88
342 2 2 1 1 116 216 117
343 2 2 1 1 219 328 221
344 2 2 1 1 203 510 88
345 2 2 1 1 132 210 133
346 2 2 1 1 73 575 2
347 2 2 1 1 223 257 225
348 2 2 1 1 494 506 263
349 2 2 1 1 455 500 454
350 2 2 1 1 117 216 201
351 2 2 1 1 235 491 481
352 2 2 1 1 494 571 552
353 2 2 1 1 326 327 322
354 2 2 1 1 446 461 345
355 2 2 1 1 91 213 90
356 2 2 1 1 115 460 116
357 2 2 1 1 216 217 201
358 2 2 1 1 424 498 360
359 2 2 1 1 227 230 229
360 2 2 1 1 431 542 527
361 2 2 1 1 189 354 296
362 2 2 1 1 204 312 307
363 2 2 1 1 382 383 327
364 2 2 1 1 116 460 216
365 2 2 1 1 260 262 261
366 2 2 1 1 294 323 186
367 2 2 1 1 185 493 407
368 2 2 1 1 385 495 428
369 2 2 1 1 195 393 392
370 2 2 1 1 184 441 331
371 2 2 1 1 400 565 486
372 2 2 1 1 273 485 293
373 2 2 1 1 374 375 373
374 2 2 1 1 216 469 217
375 2 2 1 1 272 281 280
376 2 2 1 1 312 496 473
377 2 2 1 1 318 545 270
378 2 2 1 1 262 265 264
379 2 2 1 1 309 505 356
380 2 2 1 1 460 469 216
381 2 2 1 1 231 235 233
382 2 2 1 1 253 260 259
383 2 2 1 1 335 366 210
384 2 2 1 1 236 272 238
385 2 2 1 1 281 283 282
386 2 2 1 1 378 457 279
387 2 2 1 1 371 387 372
388 2 2 1 1 249 254 248
389 2 2 1 1 527 542 388
390 2 2 1 1 491 592 481
391 2 2 1 1 243 315 240
392 2 2 1 1 265 267 266
393 2 2 1 1 469 470 217
394 2 2 1 1 206 512 95
395 2 2 1 1 303 475 292
396 2 2 1 1 263 506 252
397 2 2 1 1 478 479 230
398 2 2 1 1 247 248 245
399 2 2 1 1 63 214 212
400 2 2 1 1 302 359 304
401 2 2 1 1 468 588 206
402 2 2 1 1 93 535 420
403 2 2 1 1 255 273 254
404 2 2 1 1 450 586 372
405 2 2 1 1 333 406 301
406 2 2 1 1 198 214 64
407 2 2 1 1 217 470 219
408 2 2 1 1 306 321 320
409 2 2 1 1 389 487 464
410 2 2 1 1 432 564 411
411 2 2 1 1 525 593 408
412 2 2 1 1 356 358 357
413 2 2 1 1 349 380 351
414 2 2 1 1 257 477 225
415 2 2 1 1 362 424 360
416 2 2 1 1 384 451 327
417 2 2 1 1 284 349 314
418 2 2 1 1 309 356 344
419 2 2 1 1 122 361 123
420 2 2 1 1 124 443 125
421 2 2 1 1 129 346 130
422 2 2 1 1 252 506 250
423 2 2 1 1 334 336 311
424 2 2 1 1 346 502 464
425 2 2 1 1 336 487 389
426 2 2 1 1 449 501 403
427 2 2 1 1 120 317 121
428 2 2 1 1 288 360 256
429 2 2 1 1 293 485 429
430 2 2 1 1 321 326 322
431 2 2 1 1 276 298 274
432 2 2 1 1 230 231 229
433 2 2 1 1 310 311 278
434 2 2 1 1 447 557 379
435 2 2 1 1 305 539 330
436 2 2 1 1 361 427 192
437 2 2 1 1 93 420 94
438 2 2 1 1 383 438 385
439 2 2 1 1 326 382 327
440 2 2 1 1 192 448 443
441 2 2 1 1 194 503 502
442 2 2 1 1 63 212 62
443 2 2 1 1 72 211 71
444 2 2 1 1 330 475 303
445 2 2 1 1 225 477 227
446 2 2 1 1 220 493 218
447 2 2 1 1 205 363 361
448 2 2 1 1 260 261 259
449 2 2 1 1 289 483 283
450 2 2 1 1 272 280 238
451 2 2 1 1 445 544 350
452 2 2 1 1 269 271 267
453 2 2 1 1 464 487 436
454 2 2 1 1 185 407 317
455 2 2 1 1 291 295 289
456 2 2 1 1 194 502 346
457 2 2 1 1 339 524 408
458 2 2 1 1 298 485 274
459 2 2 1 1 281 282 280
460 2 2 1 1 262 264 261
461 2 2 1 1 323 353 352
462 2 2 1 1 377 572 537
463 2 2 1 1 65 198 64
464 2 2 1 1 70 197 69
465 2 2 1 1 556 561 463
466 2 2 1 1 442 459 441
467 2 2 1 1 247 249 248
468 2 2 1 1 405 522 313
469 2 2 1 1 394 395 393
470 2 2 1 1 283 284 282
471 2 2 1 1 67 433 66
472 2 2 1 1 265 266 264
473 2 2 1 1 66 471 65
474 2 2 1 1 249 255 254
475 2 2 1 1 293 429 368
476 2 2 1 1 68 190 67
477 2 2 1 1 354 589 449
478 2 2 1 1 239 511 242
479 2 2 1 1 286 497 269
480 2 2 1 1 438 495 385
481 2 2 1 1 435 559 544
482 2 2 1 1 217 219 218
483 2 2 1 1 283 483 284
484 2 2 1 1 214 462 215
485 2 2 1 1 537 572 409
486 2 2 1 1 223 225 224
487 2 2 1 1 450 568 432
488 2 2 1 1 221 223 222
489 2 2 1 1 70 373 197
490 2 2 1 1 255 274 273
491 2 2 1 1 219 221 220
492 2 2 1 1 321 516 364
493 2 2 1 1 225 227 226
494 2 2 1 1 187 544 445
495 2 2 1 1 297 520 347
496 2 2 1 1 396 397 395
497 2 2 1 1 275 518 340
498 2 2 1 1 337 488 487
499 2 2 1 1 349 351 314
500 2 2 1 1 227 229 228
501 2 2 1 1 288 362 360
502 2 2 1 1 360 514 256
503 2 2 1 1 380 381 351
504 2 2 1 1 398 402 397
505 2 2 1 1 362 426 424
506 2 2 1 1 105 536 208
507 2 2 1 1 347 410 348
508 2 2 1 1 319 568 539
509 2 2 1 1 356 357 344
510 2 2 1 1 274 485 273
511 2 2 1 1 205 361 122
512 2 2 1 1 410 419 418
513 2 2 1 1 192 443 124
514 2 2 1 1 185 317 120
515 2 2 1 1 194 346 129
516 2 2 1 1 327 451 322
517 2 2 1 1 297 347 338
518 2 2 1 1 300 528 367
519 2 2 1 1 358 421 357
520 2 2 1 1 359 516 304
521 2 2 1 1 275 340 277
522 2 2 1 1 564 591 411
523 2 2 1 1 404 405 313
524 2 2 1 1 295 483 289
525 2 2 1 1 381 444 391
526 2 2 1 1 231 233 232
527 2 2 1 1 217 218 201
528 2 2 1 1 458 465 457
529 2 2 1 1 204 350 312
530 2 2 1 1 399 415 401
531 2 2 1 1 408 409 369
532 2 2 1 1 374 450 375
533 2 2 1 1 323 352 186
534 2 2 1 1 341 499 291
535 2 2 1 1 202 529 75
536 2 2 1 1 334 337 336
537 2 2 1 1 310 334 311
538 2 2 1 1 339 369 308
539 2 2 1 1 403 441 184
540 2 2 1 1 533 534 418
541 2 2 1 1 195 394 393
542 2 2 1 1 344 524 339
543 2 2 1 1 352 509 186
544 2 2 1 1 233 236 234
545 2 2 1 1 269 497 271
546 2 2 1 1 188 537 536
547 2 2 1 1 211 423 374
548 2 2 1 1 300 367 332
549 2 2 1 1 246 251 250
550 2 2 1 1 236 238 237
551 2 2 1 1 306 516 321
552 2 2 1 1 251 253 252
553 2 2 1 1 195 510 394
554 2 2 1 1 367 377 376
555 2 2 1 1 321 364 326
556 2 2 1 1 401 482 203
557 2 2 1 1 239 242 241
558 2 2 1 1 239 240 237
559 2 2 1 1 267 505 266
560 2 2 1 1 241 243 240
561 2 2 1 1 253 259 258
562 2 2 1 1 363 427 361
563 2 2 1 1 523 563 193
564 2 2 1 1 96 512 196
565 2 2 1 1 228 256 226
566 2 2 1 1 244 245 243
567 2 2 1 1 410 590 419
568 2 2 1 1 234 365 232
569 2 2 1 1 493 504 407
570 2 2 1 1 314 517 404
571 2 2 1 1 246 247 245
572 2 2 1 1 225 226 224
573 2 2 1 1 266 505 309
574 2 2 1 1 223 224 222
575 2 2 1 1 224 316 222
576 2 2 1 1 258 263 252
577 2 2 1 1 353 370 352
578 2 2 1 1 231 232 229
579 2 2 1 1 291 499 295
580 2 2 1 1 300 301 263
581 2 2 1 1 221 222 220
582 2 2 1 1 227 228 226
583 2 2 1 1 389 502 439
584 2 2 1 1 219 220 218
585 2 2 1 1 332 333 301
586 2 2 1 1 284 314 313
587 2 2 1 1 394 396 395
588 2 2 1 1 287 288 256
589 2 2 1 1 347 581 410
590 2 2 1 1 403 501 442
591 2 2 1 1 266 309 308
592 2 2 1 1 394 482 396
593 2 2 1 1 370 503 352
594 2 2 1 1 494 552 506
595 2 2 1 1 275 276 274
596 2 2 1 1 396 398 397
597 2 2 1 1 284 313 282
598 2 2 1 1 261 299 259
599 2 2 1 1 381 391 390
600 2 2 1 1 204 445 350
601 2 2 1 1 372 529 202
602 2 2 1 1 398 414 413
603 2 2 1 1 431 527 338
604 2 2 1 1 198 462 214
605 2 2 1 1 309 344 339
606 2 2 1 1 381 390 351
607 2 2 1 1 277 278 276
608 2 2 1 1 410 418 348
609 2 2 1 1 270 526 286
610 2 2 1 1 506 519 250
611 2 2 1 1 347 348 338
612 2 2 1 1 224 514 316
613 2 2 1 1 398 413 402
614 2 2 1 1 320 564 319
615 2 2 1 1 255 275 274
616 2 2 1 1 228 287 256
617 2 2 1 1 233 234 232
618 2 2 1 1 266 308 264
619 2 2 1 1 339 408 369
620 2 2 1 1 261 521 299
621 2 2 1 1 348 431 338
622 2 2 1 1 251 252 250
623 2 2 1 1 236 237 234
624 2 2 1 1 409 554 369
625 2 2 1 1 367 376 332
626 2 2 1 1 409 573 537
627 2 2 1 1 239 241 240
628 2 2 1 1 238 239 237
629 2 2 1 1 377 440 376
630 2 2 1 1 253 258 252
631 2 2 1 1 287 329 288
632 2 2 1 1 318 548 545
633 2 2 1 1 241 244 243
634 2 2 1 1 297 310 278
635 2 2 1 1 220 504 493
636 2 2 1 1 314 404 313
637 2 2 1 1 414 417 416
638 2 2 1 1 246 250 247
639 2 2 1 1 244 246 245
640 2 2 1 1 300 332 301
641 2 2 1 1 258 300 263
642 2 2 1 1 226 514 224
643 2 2 1 1 337 487 336
644 2 2 1 1 365 513 232
645 2 2 1 1 221 541 223
646 2 2 1 1 421 422 357
647 2 2 1 1 271 505 267
648 2 2 1 1 275 277 276
649 2 2 1 1 309 339 308
650 2 2 1 1 312 507 496
651 2 2 1 1 222 504 220
652 2 2 1 1 334 388 337
653 2 2 1 1 277 297 278
654 2 2 1 1 209 538 102
655 2 2 1 1 304 516 306
656 2 2 1 1 414 416 413
657 2 2 1 1 590 595 419
658 2 2 1 1 95 512 96
659 2 2 1 1 581 590 410
660 2 2 1 1 133 569 3
661 2 2 1 1 297 338 310
662 2 2 1 1 218 493 492
663 2 2 1 1 111 508 112
664 2 2 1 1 201 492 118
665 2 2 1 1 403 442 441
666 2 2 1 1 401 549 482
667 2 2 1 1 387 568 450
668 2 2 1 1 2 575 72
669 2 2 1 1 188 536 104
670 2 2 1 1 229 513 228
671 2 2 1 1 454 566 456
672 2 2 1 1 232 513 229
673 2 2 1 1 104 536 105
674 2 2 1 1 113 543 114
675 2 2 1 1 99 533 191
676 2 2 1 1 190 515 434
677 2 2 1 1 199 508 111
678 2 2 1 1 419 595 437
679 2 2 1 1 427 448 192
680 2 2 1 1 456 547 405
681 2 2 1 1 256 514 226
682 2 2 1 1 468 488 337
683 2 2 1 1 486 565 559
684 2 2 1 1 552 571 340
685 2 2 1 1 464 502 389
686 2 2 1 1 400 567 565
687 2 2 1 1 401 570 549
688 2 2 1 1 382 574 478
689 2 2 1 1 4 555 91
690 2 2 1 1 228 513 287
691 2 2 1 1 578 582 402
692 2 2 1 1 319 539 305
693 2 2 1 1 98 533 99
694 2 2 1 1 369 521 308
695 2 2 1 1 408 593 409
696 2 2 1 1 351 517 314
697 2 2 1 1 316 504 222
698 2 2 1 1 517 545 404
699 2 2 1 1 523 524 344
700 2 2 1 1 367 540 377
701 2 2 1 1 383 550 438
702 2 2 1 1 1 576 115
703 2 2 1 1 357 523 344
704 2 2 1 1 64 214 63
705 2 2 1 1 330 459 442
706 2 2 1 1 240 531 237
707 2 2 1 1 264 521 261
708 2 2 1 1 238 511 239
709 2 2 1 1 466 546 365
710 2 2 1 1 211 575 423
711 2 2 1 1 366 535 210
712 2 2 1 1 549 570 414
713 2 2 1 1 215 470 469
714 2 2 1 1 350 507 312
715 2 2 1 1 250 519 247
716 2 2 1 1 405 547 522
717 2 2 1 1 526 532 286
718 2 2 1 1 299 528 259
719 2 2 1 1 328 541 221
720 2 2 1 1 234 531 365
721 2 2 1 1 255 518 275
722 2 2 1 1 332 530 333
723 2 2 1 1 437 580 191
724 2 2 1 1 313 522 282
725 2 2 1 1 277 520 297
726 2 2 1 1 436 488 366
727 2 2 1 1 338 527 310
728 2 2 1 1 62 576 1
729 2 2 1 1 286 567 497
730 2 2 1 1 553 579 425
731 2 2 1 1 109 562 110
732 2 2 1 1 103 538 188
733 2 2 1 1 484 582 578
734 2 2 1 1 280 511 238
735 2 2 1 1 258 528 300
736 2 2 1 1 409 572 554
737 2 2 1 1 334 527 388
738 2 2 1 1 207 543 113
739 2 2 1 1 503 509 352
740 2 2 1 1 394 510 482
741 2 2 1 1 196 596 97
742 2 2 1 1 108 563 109
743 2 2 1 1 340 520 277
744 2 2 1 1 249 518 255
745 2 2 1 1 194 509 503
746 2 2 1 1 407 553 425
747 2 2 1 1 191 580 100
748 2 2 1 1 247 519 249
749 2 2 1 1 101 580 209
750 2 2 1 1 482 510 203
751 2 2 1 1 470 551 328
752 2 2 1 1 390 517 351
753 2 2 1 1 406 571 494
754 2 2 1 1 282 522 280
755 2 2 1 1 526 545 517
756 2 2 1 1 422 523 357
757 2 2 1 1 310 527 334
758 2 2 1 1 308 521 264
759 2 2 1 1 398 549 414
760 2 2 1 1 259 528 258
761 2 2 1 1 3 569 92
762 2 2 1 1 287 546 329
763 2 2 1 1 218 492 201
764 2 2 1 1 390 532 526
765 2 2 1 1 390 526 517
766 2 2 1 1 329 561 288
767 2 2 1 1 326 574 382
768 2 2 1 1 376 530 332
769 2 2 1 1 237 531 234
770 2 2 1 1 422 563 523
771 2 2 1 1 280 522 511
772 2 2 1 1 249 519 518
773 2 2 1 1 533 596 534
774 2 2 1 1 440 558 376
775 2 2 1 1 511 547 242
776 2 2 1 1 482 549 396
777 2 2 1 1 521 554 299
778 2 2 1 1 391 532 390
779 2 2 1 1 475 501 341
780 2 2 1 1 579 583 363
781 2 2 1 1 575 594 423
782 2 2 1 1 409 593 573
783 2 2 1 1 102 538 103
784 2 2 1 1 369 554 521
785 2 2 1 1 207 597 543
786 2 2 1 1 556 557 426
787 2 2 1 1 522 547 511
788 2 2 1 1 379 557 556
789 2 2 1 1 270 545 526
790 2 2 1 1 328 551 495
791 2 2 1 1 498 579 553
792 2 2 1 1 512 542 196
793 2 2 1 1 378 560 458
794 2 2 1 1 518 552 340
795 2 2 1 1 404 548 405
796 2 2 1 1 442 475 330
797 2 2 1 1 545 548 404
798 2 2 1 1 382 550 383
799 2 2 1 1 110 562 199
800 2 2 1 1 98 596 533
801 2 2 1 1 417 597 207
802 2 2 1 1 515 591 355
803 2 2 1 1 442 501 475
804 2 2 1 1 498 553 316
805 2 2 1 1 355 564 320
806 2 2 1 1 193 563 108
807 2 2 1 1 460 576 212
808 2 2 1 1 544 559 444
809 2 2 1 1 364 592 491
810 2 2 1 1 539 568 387
811 2 2 1 1 529 586 423
812 2 2 1 1 365 546 513
813 2 2 1 1 537 573 536
814 2 2 1 1 91 555 213
815 2 2 1 1 362 556 426
816 2 2 1 1 500 566 454
817 2 2 1 1 363 583 427
818 2 2 1 1 213 555 543
819 2 2 1 1 425 579 363
820 2 2 1 1 372 586 529
821 2 2 1 1 583 587 427
822 2 2 1 1 411 591 412
823 2 2 1 1 114 555 4
824 2 2 1 1 487 488 436
825 2 2 1 1 536 573 208
826 2 2 1 1 374 586 450
827 2 2 1 1 516 592 364
828 2 2 1 1 299 554 540
829 2 2 1 1 506 552 519
830 2 2 1 1 415 570 401
831 2 2 1 1 497 582 271
832 2 2 1 1 316 553 504
833 2 2 1 1 288 561 362
834 2 2 1 1 402 582 490
835 2 2 1 1 362 561 556
836 2 2 1 1 396 549 398
837 2 2 1 1 513 546 287
838 2 2 1 1 554 572 540
839 2 2 1 1 115 576 460
840 2 2 1 1 424 583 579
841 2 2 1 1 504 553 407
842 2 2 1 1 271 582 484
843 2 2 1 1 355 591 564
844 2 2 1 1 519 552 518
845 2 2 1 1 414 570 417
846 2 2 1 1 92 569 535
847 2 2 1 1 208 593 525
848 2 2 1 1 484 578 358
849 2 2 1 1 376 558 530
850 2 2 1 1 542 588 388
851 2 2 1 1 358 577 421
852 2 2 1 1 427 587 448
853 2 2 1 1 412 591 515
854 2 2 1 1 206 588 512
855 2 2 1 1 406 581 571
856 2 2 1 1 364 574 326
857 2 2 1 1 210 569 133
858 2 2 1 1 444 559 391
859 2 2 1 1 100 580 101
860 2 2 1 1 199 585 508
861 2 2 1 1 212 576 62
862 2 2 1 1 520 581 347
863 2 2 1 1 424 579 498
864 2 2 1 1 559 565 391
865 2 2 1 1 74 594 73
866 2 2 1 1 406 590 581
867 2 2 1 1 532 567 286
868 2 2 1 1 543 555 114
869 2 2 1 1 97 596 98
870 2 2 1 1 584 585 199
871 2 2 1 1 359 592 516
872 2 2 1 1 333 595 590
873 2 2 1 1 416 577 413
874 2 2 1 1 413 578 402
875 2 2 1 1 358 578 577
876 2 2 1 1 577 578 413
877 2 2 1 1 540 572 377
878 2 2 1 1 417 585 416
879 2 2 1 1 341 589 499
880 2 2 1 1 340 571 520
881 2 2 1 1 72 575 211
882 2 2 1 1 333 590 406
883 2 2 1 1 426 583 424
884 2 2 1 1 512 588 542
885 2 2 1 1 577 584 421
886 2 2 1 1 426 587 583
887 2 2 1 1 391 565 532
888 2 2 1 1 423 586 374
889 2 2 1 1 565 567 532
890 2 2 1 1 416 584 577
891 2 2 1 1 557 587 426
892 2 2 1 1 530 595 333
893 2 2 1 1 449 589 501
894 2 2 1 1 73 594 575
895 2 2 1 1 571 581 520
896 2 2 1 1 490 582 497
897 2 2 1 1 415 597 570
898 2 2 1 1 535 569 210
899 2 2 1 1 570 597 417
900 2 2 1 1 416 585 584
901 2 2 1 1 573 593 208
902 2 2 1 1 501 589 341
903 2 2 3 3 141 608 140
904 2 2 3 3 150 609 149
905 2 2 3 3 150 636 609
906 2 2 3 3 608 635 140
907 2 2 3 3 147 616 146
908 2 2 3 3 144 614 143
909 2 2 3 3 166 620 167
910 2 2 3 3 173 621 174
911 2 2 3 3 611 616 147
912 2 2 3 3 143 614 610
913 2 2 3 3 167 620 610
914 2 2 3 3 611 621 173
915 2 2 3 3 616 617 146
916 2 2 3 3 172 611 173
917 2 2 3 3 167 610 168
918 2 2 3 3 609 636 607
919 2 2 3 3 606 635 608
920 2 2 3 3 144 615 614
921 2 2 3 3 609 621 149
922 2 2 3 3 141 620 608
923 2 2 3 3 157 628 4
924 2 2 3 3 172 616 611
925 2 2 3 3 610 614 168
926 2 2 3 3 174 621 609
927 2 2 3 3 608 620 166
928 2 2 3 3 145 615 144
929 2 2 3 3 4 628 156
930 2 2 3 3 618 623 602
931 2 2 3 3 605 631 607
932 2 2 3 3 606 632 604
933 2 2 3 3 601 623 618
934 2 2 3 3 607 636 605
935 2 2 3 3 604 635 606
936 2 2 3 3 145 617 615
937 2 2 3 3 625 627 601
938 2 2 3 3 170 617 171
939 2 2 3 3 600 626 624
940 2 2 3 3 612 629 605
941 2 2 3 3 604 630 613
942 2 2 3 3 629 631 605
943 2 2 3 3 604 632 630
944 2 2 3 3 146 617 145
945 2 2 3 3 618 625 601
946 2 2 3 3 615 617 170
947 2 2 3 3 171 617 616
948 2 2 3 3 619 622 600
949 2 2 3 3 149 621 148
950 2 2 3 3 142 620 141
951 2 2 3 3 153 612 152
952 2 2 3 3 138 613 137
953 2 2 3 3 155 600 154
954 2 2 3 3 136 601 135
955 2 2 3 3 152 605 151
956 2 2 3 3 139 604 138
957 2 2 3 3 148 611 147
958 2 2 3 3 143 610 142
959 2 2 3 3 603 629 612
960 2 2 3 3 613 630 602
961 2 2 3 3 603 622 619
962 2 2 3 3 160 618 161
963 2 2 3 3 161 602 162
964 2 2 3 3 178 603 179
965 2 2 3 3 174 609 175
966 2 2 3 3 165 608 166
967 2 2 3 3 175 607 176
968 2 2 3 3 164 606 165
969 2 2 3 3 175 609 607
970 2 2 3 3 606 608 165
971 2 2 3 3 161 618 602
972 2 2 3 3 600 624 619
973 2 2 3 3 153 622 612
974 2 2 3 3 152 612 605
975 2 2 3 3 604 613 138
976 2 2 3 3 610 620 142
977 2 2 3 3 148 621 611
978 2 2 3 3 169 615 170
979 2 2 3 3 180 624 181
980 2 2 3 3 179 619 180
981 2 2 3 3 135 627 134
982 2 2 3 3 624 626 599
983 2 2 3 3 154 622 153
984 2 2 3 3 602 623 613
985 2 2 3 3 603 619 179
986 2 2 3 3 612 622 603
987 2 2 3 3 600 622 154
988 2 2 3 3 159 625 160
989 2 2 3 3 613 623 137
990 2 2 3 3 136 623 601
991 2 2 3 3 158 599 157
992 2 2 3 3 182 598 183
993 2 2 3 3 137 623 136
994 2 2 3 3 178 629 603
995 2 2 3 3 602 630 162
996 2 2 3 3 598 627 625
997 2 2 3 3 605 636 151
998 2 2 3 3 139 635 604
999 2 2 3 3 607 631 176
1000 2 2 3 3 164 632 606
1001 2 2 3 3 181 633 6
1002 2 2 3 3 624 633 181
1003 2 2 3 3 156 626 155
1004 2 2 3 3 134 637 3
1005 2 2 3 3 5 634 159
1006 2 2 3 3 619 624 180
1007 2 2 3 3 601 627 135
1008 2 2 3 3 614 615 169
1009 2 2 3 3 599 633 624
1010 2 2 3 3 625 634 598
1011 2 2 3 3 160 625 618
1012 2 2 3 3 159 634 625
1013 2 2 3 3 6 633 158
1014 2 2 3 3 155 626 600
1015 2 2 3 3 3 637 182
1016 2 2 3 3 627 637 134
1017 2 2 3 3 168 614 169
1018 2 2 3 3 171 616 172
1019 2 2 3 3 183 634 5
1020 2 2 3 3 598 637 627
1021 2 2 3 3 177 629 178
1022 2 2 3 3 162 630 163
1023 2 2 3 3 177 631 629
1024 2 2 3 3 630 632 163
1025 2 2 3 3 176 631 177
1026 2 2 3 3 163 632 164
1027 2 2 3 3 140 635 139
1028 2 2 3 3 151 636 150
1029 2 2 3 3 156 628 626
1030 2 2 3 3 626 628 599
1031 2 2 3 3 599 628 157
1032 2 2 3 3 158 633 599
1033 2 2 3 3 598 634 183
1034 2 2 3 3 182 637 598
1035 2 2 2 210083 41 643 17
1036 2 2 2 210083 7 657 47
1037 2 2 2 210083 10 654 9
1038 2 2 2 210083 41 17 2
1039 2 2 2 210083 1 7 47
1040 2 2 2 210083 47 657 649
1041 2 2 2 210083 648 652 639
1042 2 2 2 210083 650 652 648
1043 2 2 2 210083 9 654 641
1044 2 2 2 210083 41 658 643
1045 2 2 2 210083 653 659 654
1046 2 2 2 210083 653 654 10
1047 2 2 2 210083 17 643 16
1048 2 2 2 210083 9 641 8
1049 2 2 2 210083 15 639 14
1050 2 2 2 210083 12 640 11
1051 2 2 2 210083 45 638 44
1052 2 2 2 210083 44 644 43
1053 2 2 2 210083 46 647 45
1054 2 2 2 210083 43 642 42
1055 2 2 2 210083 638 646 645
1056 2 2 2 210083 638 644 44
1057 2 2 2 210083 45 647 638
1058 2 2 2 210083 43 644 642
1059 2 2 2 210083 638 645 644
1060 2 2 2 210083 47 649 46
1061 2 2 2 210083 638 647 646
1062 2 2 2 210083 46 649 647
1063 2 2 2 210083 644 648 642
1064 2 2 2 210083 645 648 644
1065 2 2 2 210083 654 659 646
1066 2 2 2 210083 645 650 648
1067 2 2 2 210083 42 658 41
1068 2 2 2 210083 645 659 650
1069 2 2 2 210083 650 659 640
1070 2 2 2 210083 649 660 647
1071 2 2 2 210083 639 655 648
1072 2 2 2 210083 641 660 649
1073 2 2 2 210083 643 658 655
1074 2 2 2 210083 643 651 16
1075 2 2 2 210083 15 651 639
1076 2 2 2 210083 640 653 11
1077 2 2 2 210083 639 652 14
1078 2 2 2 210083 16 651 15
1079 2 2 2 210083 11 653 10
1080 2 2 2 210083 14 652 13
1081 2 2 2 210083 641 657 8
1082 2 2 2 210083 643 655 651
1083 2 2 2 210083 12 656 640
1084 2 2 2 210083 648 655 642
1085 2 2 2 210083 640 659 653
1086 2 2 2 210083 649 657 641
1087 2 2 2 210083 640 656 650
1088 2 2 2 210083 8 657 7
1089 2 2 2 210083 13 656 12
1090 2 2 2 210083 642 658 42
1091 2 2 2 210083 646 659 645
1092 2 2 2 210083 647 660 646
1093 2 2 2 210083 655 658 642
1094 2 2 2 210083 650 656 652
1095 2 2 2 210083 652 656 13
1096 2 2 2 210083 651 655 639
1097 2 2 2 210083 646 660 654
1098 2 2 2 210083 654 660 641
1099 2 2 4 210087 18 675 61
1100 2 2 4 210087 48 745 40
1101 2 2 4 210087 32 731 31
1102 2 2 4 210087 22 736 21
1103 2 2 4 210087 709 739 725
1104 2 2 4 210087 674 745 48
1105 2 2 4 210087 18 61 5
1106 2 2 4 210087 48 40 6
1107 2 2 4 210087 725 739 671
1108 2 2 4 210087 704 743 675
1109 2 2 4 210087 708 725 671
1110 2 2 4 210087 665 731 32
1111 2 2 4 210087 703 704 673
1112 2 2 4 210087 675 743 61
1113 2 2 4 210087 735 745 708
1114 2 2 4 210087 671 735 708
1115 2 2 4 210087 708 745 674
1116 2 2 4 210087 675 734 704
1117 2 2 4 210087 666 736 22
1118 2 2 4 210087 716 742 730
1119 2 2 4 210087 731 744 31
1120 2 2 4 210087 21 736 673
1121 2 2 4 210087 704 734 673
1122 2 2 4 210087 670 704 702
1123 2 2 4 210087 702 706 670
1124 2 2 4 210087 662 737 729
1125 2 2 4 210087 666 712 705
1126 2 2 4 210087 668 706 700
1127 2 2 4 210087 730 742 661
1128 2 2 4 210087 710 728 664
1129 2 2 4 210087 700 706 702
1130 2 2 4 210087 699 710 668
1131 2 2 4 210087 668 700 699
1132 2 2 4 210087 737 748 729
1133 2 2 4 210087 685 721 720
1134 2 2 4 210087 670 743 704
1135 2 2 4 210087 720 721 717
1136 2 2 4 210087 699 728 710
1137 2 2 4 210087 719 723 720
1138 2 2 4 210087 722 723 719
1139 2 2 4 210087 731 732 715
1140 2 2 4 210087 720 723 685
1141 2 2 4 210087 717 721 663
1142 2 2 4 210087 663 724 707
1143 2 2 4 210087 663 707 52
1144 2 2 4 210087 670 706 59
1145 2 2 4 210087 59 706 58
1146 2 2 4 210087 669 677 676
1147 2 2 4 210087 52 707 51
1148 2 2 4 210087 58 706 668
1149 2 2 4 210087 667 739 709
1150 2 2 4 210087 721 724 663
1151 2 2 4 210087 705 712 711
1152 2 2 4 210087 676 708 674
1153 2 2 4 210087 669 676 50
1154 2 2 4 210087 693 711 696
1155 2 2 4 210087 697 716 688
1156 2 2 4 210087 677 708 676
1157 2 2 4 210087 695 711 693
1158 2 2 4 210087 711 712 696
1159 2 2 4 210087 682 714 698
1160 2 2 4 210087 49 674 48
1161 2 2 4 210087 49 676 674
1162 2 2 4 210087 718 720 717
1163 2 2 4 210087 678 679 677
1164 2 2 4 210087 690 713 697
1165 2 2 4 210087 54 718 717
1166 2 2 4 210087 703 705 701
1167 2 2 4 210087 668 710 57
1168 2 2 4 210087 56 710 664
1169 2 2 4 210087 669 678 677
1170 2 2 4 210087 681 709 679
1171 2 2 4 210087 53 717 663
1172 2 2 4 210087 60 670 59
1173 2 2 4 210087 664 719 718
1174 2 2 4 210087 680 681 679
1175 2 2 4 210087 687 715 714
1176 2 2 4 210087 688 716 687
1177 2 2 4 210087 684 714 682
1178 2 2 4 210087 51 707 669
1179 2 2 4 210087 702 703 701
1180 2 2 4 210087 682 698 681
1181 2 2 4 210087 692 713 690
1182 2 2 4 210087 690 697 688
1183 2 2 4 210087 701 711 695
1184 2 2 4 210087 719 720 718
1185 2 2 4 210087 687 714 684
1186 2 2 4 210087 686 687 684
1187 2 2 4 210087 51 669 50
1188 2 2 4 210087 58 668 57
1189 2 2 4 210087 687 716 715
1190 2 2 4 210087 664 718 55
1191 2 2 4 210087 686 688 687
1192 2 2 4 210087 678 680 679
1193 2 2 4 210087 702 704 703
1194 2 2 4 210087 693 696 692
1195 2 2 4 210087 664 728 719
1196 2 2 4 210087 53 663 52
1197 2 2 4 210087 50 676 49
1198 2 2 4 210087 57 710 56
1199 2 2 4 210087 54 717 53
1200 2 2 4 210087 56 664 55
1201 2 2 4 210087 680 682 681
1202 2 2 4 210087 700 701 695
1203 2 2 4 210087 705 711 701
1204 2 2 4 210087 55 718 54
1205 2 2 4 210087 691 692 690
1206 2 2 4 210087 689 690 688
1207 2 2 4 210087 685 686 684
1208 2 2 4 210087 691 693 692
1209 2 2 4 210087 700 702 701
1210 2 2 4 210087 683 684 682
1211 2 2 4 210087 686 689 688
1212 2 2 4 210087 689 691 690
1213 2 2 4 210087 669 707 678
1214 2 2 4 210087 28 672 27
1215 2 2 4 210087 683 685 684
1216 2 2 4 210087 33 665 32
1217 2 2 4 210087 680 683 682
1218 2 2 4 210087 30 661 29
1219 2 2 4 210087 694 695 693
1220 2 2 4 210087 26 662 25
1221 2 2 4 210087 36 667 35
1222 2 2 4 210087 23 666 22
1223 2 2 4 210087 699 700 695
1224 2 2 4 210087 691 694 693
1225 2 2 4 210087 38 671 37
1226 2 2 4 210087 696 733 729
1227 2 2 4 210087 685 723 686
1228 2 2 4 210087 683 721 685
1229 2 2 4 210087 21 673 20
1230 2 2 4 210087 694 699 695
1231 2 2 4 210087 19 675 18
1232 2 2 4 210087 707 724 678
1233 2 2 4 210087 678 724 680
1234 2 2 4 210087 689 722 691
1235 2 2 4 210087 686 723 689
1236 2 2 4 210087 680 724 683
1237 2 2 4 210087 709 726 667
1238 2 2 4 210087 691 722 694
1239 2 2 4 210087 683 724 721
1240 2 2 4 210087 689 723 722
1241 2 2 4 210087 665 732 731
1242 2 2 4 210087 677 725 708
1243 2 2 4 210087 709 725 679
1244 2 2 4 210087 681 726 709
1245 2 2 4 210087 696 729 692
1246 2 2 4 210087 666 740 712
1247 2 2 4 210087 698 727 726
1248 2 2 4 210087 727 732 665
1249 2 2 4 210087 722 728 694
1250 2 2 4 210087 719 728 722
1251 2 2 4 210087 679 725 677
1252 2 2 4 210087 729 733 662
1253 2 2 4 210087 712 740 733
1254 2 2 4 210087 715 732 714
1255 2 2 4 210087 698 726 681
1256 2 2 4 210087 698 732 727
1257 2 2 4 210087 673 736 703
1258 2 2 4 210087 694 728 699
1259 2 2 4 210087 697 742 716
1260 2 2 4 210087 692 729 713
1261 2 2 4 210087 740 747 733
1262 2 2 4 210087 61 743 60
1263 2 2 4 210087 716 730 715
1264 2 2 4 210087 714 732 698
1265 2 2 4 210087 703 736 705
1266 2 2 4 210087 712 733 696
1267 2 2 4 210087 705 736 666
1268 2 2 4 210087 20 734 19
1269 2 2 4 210087 39 735 38
1270 2 2 4 210087 38 735 671
1271 2 2 4 210087 673 734 20
1272 2 2 4 210087 37 739 36
1273 2 2 4 210087 19 734 675
1274 2 2 4 210087 36 739 667
1275 2 2 4 210087 29 738 28
1276 2 2 4 210087 27 737 26
1277 2 2 4 210087 28 738 672
1278 2 2 4 210087 672 737 27
1279 2 2 4 210087 661 738 29
1280 2 2 4 210087 26 737 662
1281 2 2 4 210087 671 739 37
1282 2 2 4 210087 24 740 23
1283 2 2 4 210087 727 741 726
1284 2 2 4 210087 23 740 666
1285 2 2 4 210087 35 741 34
1286 2 2 4 210087 667 741 35
1287 2 2 4 210087 730 731 715
1288 2 2 4 210087 665 749 727
1289 2 2 4 210087 738 746 672
1290 2 2 4 210087 726 741 667
1291 2 2 4 210087 30 744 661
1292 2 2 4 210087 730 744 731
1293 2 2 4 210087 662 747 25
1294 2 2 4 210087 33 749 665
1295 2 2 4 210087 742 746 738
1296 2 2 4 210087 729 748 713
1297 2 2 4 210087 60 743 670
1298 2 2 4 210087 661 744 730
1299 2 2 4 210087 31 744 30
1300 2 2 4 210087 713 746 697
1301 2 2 4 210087 40 745 39
1302 2 2 4 210087 733 747 662
1303 2 2 4 210087 39 745 735
1304 2 2 4 210087 25 747 24
1305 2 2 4 210087 24 747 740
1306 2 2 4 210087 727 749 741
1307 2 2 4 210087 34 749 33
1308 2 2 4 210087 741 749 34
1309 2 2 4 210087 661 742 738
1310 2 2 4 210087 697 746 742
1311 2 2 4 210087 672 748 737
1312 2 2 4 210087 746 748 672
1313 2 2 4 210087 713 748 746
$EndElements
