$MeshFormat
2.2 0 8
$EndMeshFormat
$Nodes
299
1 0 -15 -100
2 3.882286 -14.488887 -100
3 7.5 -12.990381 -100
4 10.606602 -10.606602 -100
5 12.990381 -7.5 -100
6 14.488887 -3.882286 -100
7 15 0 -100
8 14.488887 3.882286 -100
9 12.990381 7.5 -100
10 10.606602 10.606602 -100
11 7.5 12.990381 -100
12 3.882286 14.488887 -100
13 0 15 -100
14 0 -35 -50
15 9.058667 -33.807404 -49.866025
16 17.5 -30.310889 -49.5
17 24.748737 -24.748737 -49
18 30.310889 -17.5 -48.5
19 33.807404 -9.058667 -48.133975
20 35 0 -48
21 33.807404 9.058667 -48.133975
22 30.310889 17.5 -48.5
23 24.748737 24.748737 -49
24 17.5 30.310889 -49.5
25 9.058667 33.807404 -49.866025
26 0 35 -50
27 0 -60 0
28 15.529143 -57.95555 0.401924
29 30 -51.961524 1.5
30 42.426407 -42.426407 3
31 51.961524 -30 4.5
32 57.95555 -15.529143 5.598076
33 60 0 6
34 57.95555 15.529143 5.598076
35 51.961524 30 4.5
36 42.426407 42.426407 3
37 30 51.961524 1.5
38 15.529143 57.95555 0.401924
39 0 60 0
40 0 -60 10
41 15.529143 -57.95555 10.401924
42 30 -51.961524 11.5
43 42.426407 -42.426407 13
44 51.961524 -30 14.5
45 57.95555 -15.529143 15.598076
46 60 0 16
47 57.95555 15.529143 15.598076
48 51.961524 30 14.5
49 42.426407 42.426407 13
50 30 51.961524 11.5
51 15.529143 57.95555 10.401924
52 0 60 10
53 0 -60 20
54 15.529143 -57.95555 20
55 30 -51.961524 20
56 42.426407 -42.426407 20
57 51.961524 -30 20
58 57.95555 -15.529143 20
59 60 0 20
60 57.95555 15.529143 20
61 51.961524 30 20
62 42.426407 42.426407 20
63 30 51.961524 20
64 15.529143 57.95555 20
65 0 60 20
66 12.84312079074608 -7.414320506434609 -100
67 12.84312079074608 7.414320506434598 -100
68 14.96754350945998 -31.09343428544999 -49.59020578577871
69 27.05218839688725 -21.57501529587753 -48.78753916928973
70 33.73378236026175 -7.704261046491718 -48.13943091863028
71 33.73378236026188 7.704261046491119 -48.13943091863027
72 27.05218839688762 21.57501529587707 -48.78753916928969
73 14.96754350946036 31.09343428544981 -49.5902057857787
74 16.63035881817969 -56.71387069499228 0.6210868775445301
75 32.02713069186218 -49.79546264256764 1.821664927488804
76 44.82485206556454 -38.85053542105917 3.407045299143946
77 53.94389185415129 -24.67120427451585 4.87408041101812
78 58.71143221352923 -8.459793452440479 5.748863006478555
79 58.71143221352916 8.459793452440945 5.748863006478542
80 53.94389185415109 24.67120427451628 4.874080411018085
81 44.82485206556425 38.8505354210595 3.407045299143904
82 32.0271306918619 49.79546264256782 1.821664927488775
83 16.63035881817948 56.71387069499234 0.6210868775445189
84 16.63035881817969 -56.71387069499228 10.62108687754453
85 32.02713069186218 -49.79546264256764 11.8216649274888
86 44.82485206556454 -38.85053542105917 13.40704529914395
87 53.94389185415129 -24.67120427451585 14.87408041101812
88 58.71143221352923 -8.459793452440479 15.74886300647855
89 58.71143221352916 8.459793452440945 15.74886300647854
90 53.94389185415109 24.67120427451628 14.87408041101808
91 44.82485206556425 38.8505354210595 13.4070452991439
92 32.0271306918619 49.79546264256782 11.82166492748877
93 16.63035881817948 56.71387069499234 10.62108687754452
94 16.60354408658177 -56.72165684837908 20
95 32.00660399194534 -49.80823932127416 20
96 44.83162272119002 -38.84272005049733 20
97 53.95821725844724 -24.63984949822086 20
98 58.71410926048658 -8.441189130831015 20
99 58.71410926048664 8.441189130830574 20
100 53.95821725844745 24.63984949822041 20
101 44.83162272119038 38.84272005049692 20
102 32.00660399194582 49.80823932127386 20
103 16.60354408658215 56.72165684837897 20
104 0 -4.618527782440651e-14 -100
105 0 17.49999999999996 -50
106 0 -2.131628207280301e-14 -50
107 0 -17.50000000000001 -50
108 0 42.85714285714283 0
109 0 25.71428571428562 0
110 0 8.57142857142842 0
111 0 -8.571428571428783 0
112 0 -25.71428571428588 0
113 0 -42.85714285714295 0
114 0 42.85714285714283 10
115 0 25.71428571428562 10
116 0 8.57142857142842 10
117 0 -8.571428571428783 10
118 0 -25.71428571428588 10
119 0 -42.85714285714295 10
120 0 42.85714285714283 20
121 0 25.71428571428562 20
122 0 8.57142857142842 20
123 0 -8.571428571428783 20
124 0 -25.71428571428588 20
125 0 -42.85714285714295 20
126 12.84312079074607 -7.414320506434616 -100
127 12.84312079074608 7.414320506434593 -100
128 0 20.40781228063073 -85.2786261045373
129 0 26.15673418808015 -70.68709128311801
130 0 32.24705597964085 -56.23472933945468
131 0 38.67827167188587 -41.93081127511844
132 0 45.44906248460165 -27.78447447442498
133 0 52.55729055263178 -13.80465060492554
134 16.63035881817969 -56.71387069499228 0.6210868775445297
135 32.02713069186218 -49.79546264256764 1.821664927488803
136 44.82485206556454 -38.85053542105918 3.407045299143944
137 53.94389185415127 -24.67120427451586 4.874080411018119
138 58.71143221352922 -8.459793452440479 5.748863006478556
139 58.71143221352916 8.459793452440941 5.748863006478542
140 53.94389185415108 24.6712042745163 4.874080411018085
141 44.82485206556426 38.8505354210595 3.407045299143904
142 32.02713069186187 49.79546264256784 1.821664927488773
143 16.63035881817945 56.71387069499234 0.6210868775445166
144 0 -20.40781228063073 -85.2786261045373
145 0 -26.15673418808015 -70.68709128311801
146 0 -32.24705597964085 -56.23472933945468
147 0 -38.67827167188587 -41.93081127511844
148 0 -45.44906248460165 -27.78447447442498
149 0 -52.55729055263178 -13.80465060492554
150 0 -4.618527782440651e-14 -100
151 0 42.85714285714283 0
152 0 25.71428571428562 0
153 0 8.57142857142841 0
154 0 -8.571428571428783 0
155 0 -25.71428571428589 0
156 0 -42.85714285714294 0
157 16.63035881817969 -56.71387069499228 0.6210868775445297
158 32.02713069186218 -49.79546264256764 1.821664927488803
159 44.82485206556454 -38.85053542105918 3.407045299143944
160 53.94389185415127 -24.67120427451586 4.874080411018119
161 58.71143221352922 -8.459793452440479 5.748863006478556
162 58.71143221352916 8.459793452440941 5.748863006478542
163 53.94389185415108 24.6712042745163 4.874080411018085
164 44.82485206556426 38.8505354210595 3.407045299143904
165 32.02713069186187 49.79546264256784 1.821664927488773
166 16.63035881817945 56.71387069499234 0.6210868775445166
167 0 60 9.999963728124008
168 16.60354408658176 -56.72165684837908 20
169 32.00660399194532 -49.80823932127416 20
170 44.83162272118999 -38.84272005049735 20
171 53.95821725844723 -24.63984949822088 20
172 58.71410926048657 -8.441189130831049 20
173 58.71410926048664 8.441189130830544 20
174 53.95821725844746 24.63984949822039 20
175 44.83162272119039 38.84272005049691 20
176 32.00660399194587 49.80823932127383 20
177 16.60354408658217 56.72165684837896 20
178 0 -60 9.999963728124008
179 0 42.85714285714283 0
180 0 25.71428571428562 0
181 0 8.57142857142841 0
182 0 -8.571428571428783 0
183 0 -25.71428571428589 0
184 0 -42.85714285714294 0
185 0 42.85714285714283 20
186 0 25.71428571428562 20
187 0 8.57142857142841 20
188 0 -8.571428571428783 20
189 0 -25.71428571428589 20
190 0 -42.85714285714294 20
191 52.75908894784981 0.2450429945003657 -7.55528141250449
192 18.82082504065295 -5.487148223550946e-15 -88.63410814686512
193 11.64101136259212 -32.7929334853122 -49.02478941993019
194 12.31690131272334 32.86164858993747 -48.34081722812175
195 44.91125207415969 -28.47771940329081 -8.020005384761628
196 35.58521539890153 39.16491482367923 -9.757183453344705
197 13.33919307282194 -46.7239927743732 -19.63568113928969
198 22.96082904930242 47.63944919052782 -10.75258495068012
199 24.88648636296584 38.94187487076532 -23.86485045608604
200 38.49708493940555 27.20156180576236 -20.75581958571472
201 12.3883115238334 20.17578243428803 -75.83705332065384
202 12.16646150203569 -20.55302749450014 -75.2983418872352
203 31.30984905172751 26.66733195025477 -34.0335406313752
204 39.98944483149825 14.04673640142265 -30.34672155707138
205 33.72383530006571 13.75590728325084 -44.03601499033307
206 38.44413112735953 0.3984591529257605 -39.00360810213996
207 32.56120642042882 0.6172358984514296 -52.95138331042122
208 33.26304129417576 -12.97614780457908 -45.69359145577614
209 12.07864129944666 -41.30170392203597 -31.05172943626724
210 39.78774749354126 -13.36910623587116 -31.2405785402324
211 25.53366309008735 -37.99867320988991 -24.72919696300984
212 26.38883095356733 -13.64469759022806 -60.2697427927126
213 27.12824688777432 1.808116617729378 -66.35286078877422
214 13.5693489500799 -26.26382087226373 -61.18740282348094
215 31.42999670695056 -25.65307394929788 -35.21062551224108
216 38.11905703592273 -25.98872653463652 -22.83172107666088
217 46.84054061101283 13.89791681916599 -16.13301803340187
218 26.69113533016493 14.39909747328177 -58.763823804888
219 14.1124260579076 25.95148368415047 -61.21982334754014
220 11.45534715215504 41.57142862548496 -30.8878934035479
221 44.98008223184029 0.9574547196873072 -24.22402946342866
222 46.38835235936317 -12.51135419804529 -17.8208565268048
223 23.62355624807032 -25.24385628285516 -49.12912548385842
224 46.43098069869066 26.9277829238713 -6.846680446817735
225 52.17732528837232 -15.32872595431058 -4.569752630153239
226 25.15983282878067 -46.96869675498048 -9.817026260939324
227 10.7475726980612 -53.46541146859467 -8.249882041211539
228 24.22256067723605 25.5294901183741 -47.68350867276261
229 12.73183788693887 -14.27460933435944 -87.9421357110963
230 22.1996754951135 -9.343249627918958 -74.4994801755464
231 12.72722831786644 14.24003148803528 -88.02085680063522
232 12.24794395040717 47.01286404842224 -19.70240041193482
233 16.87507870616863 35.94458503858878 -37.97498933557904
234 21.69418211409464 8.648617459048882 -76.41168666621962
235 34.81825172255211 -35.77878626171096 -15.66058049558305
236 52.57380156964002 15.00910949795229 -3.950635324099203
237 10.36928118941749 53.13958212145966 -9.025926450689488
238 19.30911859173119 -34.09510031299362 -38.98373815252518
239 19.6620099716326 -17.87612573592294 -68.36504503341924
240 20.5739107603454 16.56802193692377 -68.70609974251741
241 36.6166184974234 -41.17120505815803 -5.485954254333829
242 0 22.58956489172298 -43.15377434332839
243 0 -29.81258092767393 -28.99396645290103
244 0 -16.6857847604478 -58.18653787684283
245 0 -1.269242133072819 -17.22417241260301
246 0 8.420326916808889 -73.72851518390492
247 0 -10.59184673824791 -72.64163696026633
248 0 -0.9703378924896064 -59.25388455301077
249 0 -7.213445643278594 -45.67489534434795
250 0 14.83967566426881 -57.3982075451793
251 0 34.70727603841509 -13.83481895466482
252 0 16.91656665700355 -14.7155009062393
253 0 11.70056689591779 -29.36327339131329
254 0 -23.26676766642812 -43.59934692579592
255 0 -13.75237037433154 -30.25884989585027
256 0 -19.24372150537579 -14.59334744480662
257 0 -35.69599067766623 -14.14744979194024
258 0 -2.747972692886981 -81.48793465034525
259 0 27.64441697932756 -27.65379653822797
260 0 7.888346501323652 -43.9742859016864
261 0 6.485296702404833 -86.89961657519817
262 0 -7.500000000000024 -90.16355104587127
263 0 -0.7930714887508525 -33.18951407692379
264 59.31851666666667 -9.555700175578608e-14 12.73967793652165
265 56.97129277688553 16.52122868755566 12.8852946794542
266 56.86132345754469 -16.89569059050828 12.77019890341357
267 24.02907256550129 -54.05225903481381 9.660688773598942
268 13.17172575151323 -57.63200019949856 11.66171825173952
269 6.631635153322526 -58.98684770050487 7.778692445078535
270 24.02907256126437 54.05225903667751 9.660688773432341
271 10.23577921434046 58.29345563485373 10.93343281565885
272 49.58399214711655 -32.55876389638943 11.62175668373165
273 38.84264966580731 -44.82083799627506 12.46130472568407
274 38.8426496658001 44.82083799628125 12.46130472568742
275 0 -17.14285714285735 9.27974032274664
276 0 -34.28571428571441 9.279740322746637
277 0 -49.02197461191657 9.943044449955289
278 0 -1.84741111297626e-13 9.279740322746637
279 0 34.28571428571422 9.27974032274664
280 0 49.02197461191646 9.943044449955291
281 0 17.14285714285703 9.27974032274664
282 44.09354080958951 -1.723903671004259e-13 20
283 13.31771423921074 -16.62272568054776 20
284 13.32012807568359 16.63509616799508 20
285 38.39941872828525 25.01021882993599 20
286 38.39700489181224 -25.00610058881616 20
287 19.40710679703726 40.56385271431808 20
288 19.40710679703702 -40.56385271431832 20
289 14.26053992561976 0.006179989027967449 20
290 29.78951339965482 -9.9920320317267 20
291 29.96947890748648 10.37129348196056 20
292 45.65572233989963 -13.55286388705922 20
293 45.52175329911459 13.60642700750284 20
294 24.1737640139022 26.52561734374196 20
295 24.14296515043917 -26.4596589806086 20
296 31.76370325047218 36.15012965195336 20
297 31.75706071048476 -36.13611433110291 20
298 11.64111196685699 29.75388971416969 20
299 11.63938285919677 -29.74981178567235 20
$EndNodes
$Elements
536
1 15 2 0 1 1
2 15 2 0 2 2
3 15 2 0 3 3
4 15 2 0 4 4
5 15 2 0 5 5
6 15 2 0 6 6
7 15 2 0 7 7
8 15 2 0 8 8
9 15 2 0 9 9
10 15 2 0 10 10
11 15 2 0 11 11
12 15 2 0 12 12
13 15 2 0 13 13
14 15 2 0 14 14
15 15 2 0 15 15
16 15 2 0 16 16
17 15 2 0 17 17
18 15 2 0 18 18
19 15 2 0 19 19
20 15 2 0 20 20
21 15 2 0 21 21
22 15 2 0 22 22
23 15 2 0 23 23
24 15 2 0 24 24
25 15 2 0 25 25
26 15 2 0 26 26
27 15 2 0 27 27
28 15 2 0 28 28
29 15 2 0 29 29
30 15 2 0 30 30
31 15 2 0 31 31
32 15 2 0 32 32
33 15 2 0 33 33
34 15 2 0 34 34
35 15 2 0 35 35
36 15 2 0 36 36
37 15 2 0 37 37
38 15 2 0 38 38
39 15 2 0 39 39
40 15 2 0 40 40
41 15 2 0 41 41
42 15 2 0 42 42
43 15 2 0 43 43
44 15 2 0 44 44
45 15 2 0 45 45
46 15 2 0 46 46
47 15 2 0 47 47
48 15 2 0 48 48
49 15 2 0 49 49
50 15 2 0 50 50
51 15 2 0 51 51
52 15 2 0 52 52
53 15 2 0 53 53
54 15 2 0 54 54
55 15 2 0 55 55
56 15 2 0 56 56
57 15 2 0 57 57
58 15 2 0 58 58
59 15 2 0 59 59
60 15 2 0 60 60
61 15 2 0 61 61
62 15 2 0 62 62
63 15 2 0 63 63
64 15 2 0 64 64
65 15 2 0 65 65
66 1 2 0 10066 1 66
67 1 2 0 10066 66 67
68 1 2 0 10066 67 13
69 1 2 0 10067 14 68
70 1 2 0 10067 68 69
71 1 2 0 10067 69 70
72 1 2 0 10067 70 71
73 1 2 0 10067 71 72
74 1 2 0 10067 72 73
75 1 2 0 10067 73 26
76 1 2 0 10068 27 74
77 1 2 0 10068 74 75
78 1 2 0 10068 75 76
79 1 2 0 10068 76 77
80 1 2 0 10068 77 78
81 1 2 0 10068 78 79
82 1 2 0 10068 79 80
83 1 2 0 10068 80 81
84 1 2 0 10068 81 82
85 1 2 0 10068 82 83
86 1 2 0 10068 83 39
87 1 2 0 10069 40 84
88 1 2 0 10069 84 85
89 1 2 0 10069 85 86
90 1 2 0 10069 86 87
91 1 2 0 10069 87 88
92 1 2 0 10069 88 89
93 1 2 0 10069 89 90
94 1 2 0 10069 90 91
95 1 2 0 10069 91 92
96 1 2 0 10069 92 93
97 1 2 0 10069 93 52
98 1 2 0 10070 53 94
99 1 2 0 10070 94 95
100 1 2 0 10070 95 96
101 1 2 0 10070 96 97
102 1 2 0 10070 97 98
103 1 2 0 10070 98 99
104 1 2 0 10070 99 100
105 1 2 0 10070 100 101
106 1 2 0 10070 101 102
107 1 2 0 10070 102 103
108 1 2 0 10070 103 65
109 1 2 0 10071 13 104
110 1 2 0 10071 104 1
111 1 2 0 10072 26 105
112 1 2 0 10072 105 106
113 1 2 0 10072 106 107
114 1 2 0 10072 107 14
115 1 2 0 10073 39 108
116 1 2 0 10073 108 109
117 1 2 0 10073 109 110
118 1 2 0 10073 110 111
119 1 2 0 10073 111 112
120 1 2 0 10073 112 113
121 1 2 0 10073 113 27
122 1 2 0 10074 52 114
123 1 2 0 10074 114 115
124 1 2 0 10074 115 116
125 1 2 0 10074 116 117
126 1 2 0 10074 117 118
127 1 2 0 10074 118 119
128 1 2 0 10074 119 40
129 1 2 0 10075 65 120
130 1 2 0 10075 120 121
131 1 2 0 10075 121 122
132 1 2 0 10075 122 123
133 1 2 0 10075 123 124
134 1 2 0 10075 124 125
135 1 2 0 10075 125 53
136 1 2 0 10076 1 126
137 1 2 0 10076 126 127
138 1 2 0 10076 127 13
139 1 2 0 10077 13 128
140 1 2 0 10077 128 129
141 1 2 0 10077 129 130
142 1 2 0 10077 130 131
143 1 2 0 10077 131 132
144 1 2 0 10077 132 133
145 1 2 0 10077 133 39
146 1 2 0 10078 27 134
147 1 2 0 10078 134 135
148 1 2 0 10078 135 136
149 1 2 0 10078 136 137
150 1 2 0 10078 137 138
151 1 2 0 10078 138 139
152 1 2 0 10078 139 140
153 1 2 0 10078 140 141
154 1 2 0 10078 141 142
155 1 2 0 10078 142 143
156 1 2 0 10078 143 39
157 1 2 0 10079 1 144
158 1 2 0 10079 144 145
159 1 2 0 10079 145 146
160 1 2 0 10079 146 147
161 1 2 0 10079 147 148
162 1 2 0 10079 148 149
163 1 2 0 10079 149 27
164 1 2 0 10080 13 150
165 1 2 0 10080 150 1
166 1 2 0 10081 39 151
167 1 2 0 10081 151 152
168 1 2 0 10081 152 153
169 1 2 0 10081 153 154
170 1 2 0 10081 154 155
171 1 2 0 10081 155 156
172 1 2 0 10081 156 27
173 1 2 0 10082 27 157
174 1 2 0 10082 157 158
175 1 2 0 10082 158 159
176 1 2 0 10082 159 160
177 1 2 0 10082 160 161
178 1 2 0 10082 161 162
179 1 2 0 10082 162 163
180 1 2 0 10082 163 164
181 1 2 0 10082 164 165
182 1 2 0 10082 165 166
183 1 2 0 10082 166 39
184 1 2 0 10083 39 167
185 1 2 0 10083 167 65
186 1 2 0 10084 53 168
187 1 2 0 10084 168 169
188 1 2 0 10084 169 170
189 1 2 0 10084 170 171
190 1 2 0 10084 171 172
191 1 2 0 10084 172 173
192 1 2 0 10084 173 174
193 1 2 0 10084 174 175
194 1 2 0 10084 175 176
195 1 2 0 10084 176 177
196 1 2 0 10084 177 65
197 1 2 0 10085 27 178
198 1 2 0 10085 178 53
199 1 2 0 10086 39 179
200 1 2 0 10086 179 180
201 1 2 0 10086 180 181
202 1 2 0 10086 181 182
203 1 2 0 10086 182 183
204 1 2 0 10086 183 184
205 1 2 0 10086 184 27
206 1 2 0 10087 65 185
207 1 2 0 10087 185 186
208 1 2 0 10087 186 187
209 1 2 0 10087 187 188
210 1 2 0 10087 188 189
211 1 2 0 10087 189 190
212 1 2 0 10087 190 53
213 2 2 0 1 131 233 194
214 2 2 0 1 128 231 13
215 2 2 0 1 1 229 144
216 2 2 0 1 13 231 127
217 2 2 0 1 126 229 1
218 2 2 0 1 219 228 218
219 2 2 0 1 214 239 212
220 2 2 0 1 212 223 214
221 2 2 0 1 194 228 219
222 2 2 0 1 228 233 203
223 2 2 0 1 192 234 230
224 2 2 0 1 218 240 219
225 2 2 0 1 194 233 228
226 2 2 0 1 215 216 211
227 2 2 0 1 212 230 213
228 2 2 0 1 149 227 27
229 2 2 0 1 191 221 217
230 2 2 0 1 230 234 213
231 2 2 0 1 191 222 221
232 2 2 0 1 194 219 130
233 2 2 0 1 134 226 135
234 2 2 0 1 220 232 199
235 2 2 0 1 134 227 226
236 2 2 0 1 142 198 143
237 2 2 0 1 211 238 215
238 2 2 0 1 212 239 230
239 2 2 0 1 216 222 195
240 2 2 0 1 206 221 210
241 2 2 0 1 141 196 142
242 2 2 0 1 136 195 137
243 2 2 0 1 202 214 145
244 2 2 0 1 212 213 207
245 2 2 0 1 206 207 205
246 2 2 0 1 204 205 203
247 2 2 0 1 138 191 139
248 2 2 0 1 207 218 205
249 2 2 0 1 208 223 212
250 2 2 0 1 201 231 128
251 2 2 0 1 144 229 202
252 2 2 0 1 208 212 207
253 2 2 0 1 215 223 208
254 2 2 0 1 204 206 205
255 2 2 0 1 200 203 199
256 2 2 0 1 145 214 146
257 2 2 0 1 129 201 128
258 2 2 0 1 144 202 145
259 2 2 0 1 206 208 207
260 2 2 0 1 200 204 203
261 2 2 0 1 213 218 207
262 2 2 0 1 147 209 148
263 2 2 0 1 146 214 193
264 2 2 0 1 210 215 208
265 2 2 0 1 196 198 142
266 2 2 0 1 148 209 197
267 2 2 0 1 148 197 149
268 2 2 0 1 146 193 147
269 2 2 0 1 131 194 130
270 2 2 0 1 127 192 126
271 2 2 0 1 206 210 208
272 2 2 0 1 209 211 197
273 2 2 0 1 200 217 204
274 2 2 0 1 196 200 199
275 2 2 0 1 39 237 133
276 2 2 0 1 199 232 198
277 2 2 0 1 204 221 206
278 2 2 0 1 205 228 203
279 2 2 0 1 130 219 129
280 2 2 0 1 27 227 134
281 2 2 0 1 143 237 39
282 2 2 0 1 200 224 217
283 2 2 0 1 196 199 198
284 2 2 0 1 132 220 131
285 2 2 0 1 191 225 222
286 2 2 0 1 210 222 216
287 2 2 0 1 213 240 218
288 2 2 0 1 221 222 210
289 2 2 0 1 210 216 215
290 2 2 0 1 133 232 132
291 2 2 0 1 217 221 204
292 2 2 0 1 141 224 196
293 2 2 0 1 214 223 193
294 2 2 0 1 209 238 211
295 2 2 0 1 140 224 141
296 2 2 0 1 222 225 195
297 2 2 0 1 138 225 191
298 2 2 0 1 234 240 213
299 2 2 0 1 197 227 149
300 2 2 0 1 196 224 200
301 2 2 0 1 211 226 197
302 2 2 0 1 199 233 220
303 2 2 0 1 136 241 195
304 2 2 0 1 129 219 201
305 2 2 0 1 217 236 191
306 2 2 0 1 216 235 211
307 2 2 0 1 191 236 139
308 2 2 0 1 203 233 199
309 2 2 0 1 192 229 126
310 2 2 0 1 127 231 192
311 2 2 0 1 192 230 229
312 2 2 0 1 218 228 205
313 2 2 0 1 224 236 217
314 2 2 0 1 195 225 137
315 2 2 0 1 231 234 192
316 2 2 0 1 133 237 232
317 2 2 0 1 132 232 220
318 2 2 0 1 137 225 138
319 2 2 0 1 195 241 235
320 2 2 0 1 198 237 143
321 2 2 0 1 215 238 223
322 2 2 0 1 139 236 140
323 2 2 0 1 140 236 224
324 2 2 0 1 202 239 214
325 2 2 0 1 195 235 216
326 2 2 0 1 229 230 202
327 2 2 0 1 135 241 136
328 2 2 0 1 201 234 231
329 2 2 0 1 211 235 226
330 2 2 0 1 226 227 197
331 2 2 0 1 219 240 201
332 2 2 0 1 223 238 193
333 2 2 0 1 232 237 198
334 2 2 0 1 226 241 135
335 2 2 0 1 235 241 226
336 2 2 0 1 230 239 202
337 2 2 0 1 201 240 234
338 2 2 0 1 220 233 131
339 2 2 0 1 193 238 147
340 2 2 0 1 147 238 209
341 2 2 0 2 247 248 246
342 2 2 0 2 246 258 247
343 2 2 0 2 255 256 245
344 2 2 0 2 131 259 132
345 2 2 0 2 245 263 255
346 2 2 0 2 247 258 144
347 2 2 0 2 245 256 154
348 2 2 0 2 253 259 242
349 2 2 0 2 242 260 253
350 2 2 0 2 132 259 251
351 2 2 0 2 129 250 130
352 2 2 0 2 154 256 155
353 2 2 0 2 242 259 131
354 2 2 0 2 132 251 133
355 2 2 0 2 133 251 151
356 2 2 0 2 130 250 242
357 2 2 0 2 248 260 250
358 2 2 0 2 249 260 248
359 2 2 0 2 248 250 246
360 2 2 0 2 246 250 129
361 2 2 0 2 253 263 245
362 2 2 0 2 149 257 148
363 2 2 0 2 133 151 39
364 2 2 0 2 156 149 27
365 2 2 0 2 251 252 152
366 2 2 0 2 156 257 149
367 2 2 0 2 252 253 245
368 2 2 0 2 256 257 155
369 2 2 0 2 128 261 246
370 2 2 0 2 252 259 253
371 2 2 0 2 153 252 245
372 2 2 0 2 243 255 254
373 2 2 0 2 151 251 152
374 2 2 0 2 148 257 243
375 2 2 0 2 153 245 154
376 2 2 0 2 155 257 156
377 2 2 0 2 244 254 249
378 2 2 0 2 152 252 153
379 2 2 0 2 145 247 144
380 2 2 0 2 243 256 255
381 2 2 0 2 254 255 249
382 2 2 0 2 251 259 252
383 2 2 0 2 146 254 244
384 2 2 0 2 128 246 129
385 2 2 0 2 244 247 145
386 2 2 0 2 244 248 247
387 2 2 0 2 146 244 145
388 2 2 0 2 130 242 131
389 2 2 0 2 243 254 147
390 2 2 0 2 148 243 147
391 2 2 0 2 244 249 248
392 2 2 0 2 250 260 242
393 2 2 0 2 147 254 146
394 2 2 0 2 246 261 258
395 2 2 0 2 243 257 256
396 2 2 0 2 144 262 1
397 2 2 0 2 13 261 128
398 2 2 0 2 261 262 258
399 2 2 0 2 1 262 150
400 2 2 0 2 150 261 13
401 2 2 0 2 150 262 261
402 2 2 0 2 255 263 249
403 2 2 0 2 249 263 260
404 2 2 0 2 260 263 253
405 2 2 0 2 258 262 144
406 2 2 0 3 164 175 163
407 2 2 0 3 53 269 268
408 2 2 0 3 39 271 166
409 2 2 0 3 157 269 27
410 2 2 0 3 177 271 65
411 2 2 0 3 53 268 168
412 2 2 0 3 172 264 173
413 2 2 0 3 162 264 161
414 2 2 0 3 171 266 172
415 2 2 0 3 173 265 174
416 2 2 0 3 163 265 162
417 2 2 0 3 161 266 160
418 2 2 0 3 170 272 171
419 2 2 0 3 160 272 159
420 2 2 0 3 270 274 165
421 2 2 0 3 158 273 267
422 2 2 0 3 176 274 270
423 2 2 0 3 267 273 169
424 2 2 0 3 165 274 164
425 2 2 0 3 159 273 158
426 2 2 0 3 176 270 177
427 2 2 0 3 168 267 169
428 2 2 0 3 174 265 163
429 2 2 0 3 159 272 170
430 2 2 0 3 161 264 172
431 2 2 0 3 173 264 162
432 2 2 0 3 175 274 176
433 2 2 0 3 169 273 170
434 2 2 0 3 172 266 161
435 2 2 0 3 160 266 171
436 2 2 0 3 162 265 173
437 2 2 0 3 166 270 165
438 2 2 0 3 158 267 157
439 2 2 0 3 164 274 175
440 2 2 0 3 170 273 159
441 2 2 0 3 171 272 160
442 2 2 0 3 27 269 178
443 2 2 0 3 268 269 157
444 2 2 0 3 267 268 157
445 2 2 0 3 166 271 270
446 2 2 0 3 168 268 267
447 2 2 0 3 270 271 177
448 2 2 0 3 167 271 39
449 2 2 0 3 178 269 53
450 2 2 0 3 65 271 167
451 2 2 0 3 175 174 163
452 2 2 0 4 178 277 27
453 2 2 0 4 39 280 167
454 2 2 0 4 53 277 178
455 2 2 0 4 167 280 65
456 2 2 0 4 179 280 39
457 2 2 0 4 27 277 184
458 2 2 0 4 190 277 53
459 2 2 0 4 65 280 185
460 2 2 0 4 188 278 275
461 2 2 0 4 188 275 189
462 2 2 0 4 187 278 188
463 2 2 0 4 275 276 189
464 2 2 0 4 189 276 190
465 2 2 0 4 187 281 278
466 2 2 0 4 185 279 186
467 2 2 0 4 186 281 187
468 2 2 0 4 279 281 186
469 2 2 0 4 275 278 182
470 2 2 0 4 182 278 181
471 2 2 0 4 183 275 182
472 2 2 0 4 278 281 181
473 2 2 0 4 180 279 179
474 2 2 0 4 181 281 180
475 2 2 0 4 183 276 275
476 2 2 0 4 184 276 183
477 2 2 0 4 180 281 279
478 2 2 0 4 185 280 279
479 2 2 0 4 276 277 190
480 2 2 0 4 279 280 179
481 2 2 0 4 184 277 276
482 2 2 0 210083 67 13 104
483 2 2 0 210083 104 1 66
484 2 2 0 210083 104 66 67
485 2 2 0 210087 120 287 103
486 2 2 0 210087 94 288 125
487 2 2 0 210087 120 103 65
488 2 2 0 210087 94 125 53
489 2 2 0 210087 290 295 286
490 2 2 0 210087 285 294 291
491 2 2 0 210087 283 295 290
492 2 2 0 210087 291 294 284
493 2 2 0 210087 283 289 123
494 2 2 0 210087 122 289 284
495 2 2 0 210087 124 283 123
496 2 2 0 210087 122 284 121
497 2 2 0 210087 282 291 290
498 2 2 0 210087 123 289 122
499 2 2 0 210087 99 282 98
500 2 2 0 210087 97 286 96
501 2 2 0 210087 101 285 100
502 2 2 0 210087 290 291 289
503 2 2 0 210087 283 290 289
504 2 2 0 210087 103 287 102
505 2 2 0 210087 95 288 94
506 2 2 0 210087 289 291 284
507 2 2 0 210087 120 298 287
508 2 2 0 210087 288 299 125
509 2 2 0 210087 286 292 290
510 2 2 0 210087 291 293 285
511 2 2 0 210087 290 292 282
512 2 2 0 210087 282 293 291
513 2 2 0 210087 121 298 120
514 2 2 0 210087 125 299 124
515 2 2 0 210087 98 292 97
516 2 2 0 210087 100 293 99
517 2 2 0 210087 99 293 282
518 2 2 0 210087 282 292 98
519 2 2 0 210087 97 292 286
520 2 2 0 210087 285 293 100
521 2 2 0 210087 287 296 102
522 2 2 0 210087 95 297 288
523 2 2 0 210087 286 297 96
524 2 2 0 210087 101 296 285
525 2 2 0 210087 102 296 101
526 2 2 0 210087 96 297 95
527 2 2 0 210087 284 298 121
528 2 2 0 210087 124 299 283
529 2 2 0 210087 294 296 287
530 2 2 0 210087 288 297 295
531 2 2 0 210087 295 297 286
532 2 2 0 210087 285 296 294
533 2 2 0 210087 294 298 284
534 2 2 0 210087 283 299 295
535 2 2 0 210087 287 298 294
536 2 2 0 210087 295 299 288
$EndElements
