$MeshFormat
2.2 0 8
$EndMeshFormat
$PhysicalNames
4
2 1 "horn_surface"
2 2 "throat_cap"
2 3 "interface_wall"
2 4 "interface_face"
$EndPhysicalNames
$Nodes
364
1 15 0 -100
2 0 15 -100
3 60 0 6
4 0 60 0
5 0 0 -100
6 60 0 26
7 0 60 20
8 0 0 26
9 14.47935266101804 3.879747568792221 -100
10 12.98183200277036 7.495073559506185 -100
11 10.59962472916665 10.59962472916668 -100
12 7.495073559506146 12.98183200277038 -100
13 3.879747568792177 14.47935266101805 -100
14 59.43752307599919 7.843779187835187 5.888195369399328
15 57.90906446212335 15.55010882988284 5.589634275943845
16 55.38206639476627 22.98025736406919 5.113117716664716
17 51.91126217391151 30.00810470955584 4.493276784086973
18 47.55860106183565 36.51636499348149 3.772628554794272
19 42.39849887500012 42.39849887499989 3.000000000000016
20 36.51636499348175 47.55860106183545 2.22737144520576
21 30.00810470955611 51.91126217391135 1.506723215913055
22 22.98025736406944 55.38206639476617 0.8868822833353022
23 15.5501088298831 57.90906446212326 0.4103657240561677
24 7.843779187835403 59.43752307599916 0.1118046306006785
25 0 11.25 -100
26 0 7.5 -100
27 0 3.75 -100
28 3.75 0 -100
29 7.5 0 -100
30 11.25 0 -100
31 14.47935266101804 3.87974756879222 -100
32 12.98183200277036 7.495073559506187 -100
33 10.59962472916665 10.59962472916668 -100
34 7.495073559506151 12.98183200277037 -100
35 3.879747568792178 14.47935266101805 -100
36 0 15.07010027143397 -96.05312111959861
37 0 15.29015329562607 -91.97014958430685
38 0 15.67502034533385 -87.75236624617297
39 0 16.23972172103256 -83.40199721858511
40 0 16.9992288706347 -78.92221320177691
41 0 17.9682543365706 -74.31708618528101
42 0 19.16104399956433 -69.59150681244739
43 0 20.59119291356091 -64.75106667420349
44 0 22.27148881789026 -59.80191030343882
45 0 24.21380128827519 -54.75056481354495
46 0 26.42901550799786 -49.60375766560499
47 0 28.9270147021272 -44.36824509833426
48 0 31.71671122017374 -39.05063813830053
49 0 34.80611702408073 -33.65725838713751
50 0 38.20244056312841 -28.19402608963422
51 0 41.91220820590493 -22.66636748897005
52 0 45.94140215768564 -17.07915122082152
53 0 50.29559397742558 -11.43665927390737
54 0 54.98007849314832 -5.742576494681199
55 59.4375230759992 7.843779187835189 5.888195369399328
56 57.90906446212334 15.55010882988284 5.589634275943845
57 55.38206639476627 22.98025736406919 5.113117716664717
58 51.91126217391151 30.00810470955584 4.493276784086971
59 47.55860106183565 36.5163649934815 3.772628554794272
60 42.39849887500012 42.39849887499989 3.000000000000016
61 36.51636499348174 47.55860106183545 2.227371445205759
62 30.00810470955609 51.91126217391136 1.506723215913054
63 22.98025736406945 55.38206639476617 0.8868822833353029
64 15.55010882988312 57.90906446212326 0.4103657240561691
65 7.843779187835408 59.43752307599916 0.1118046306006786
66 15.06226457720265 0 -96.05705848131571
67 15.25727070871276 0 -91.98516204176552
68 15.59759258759034 0 -87.78475405704076
69 16.09605187175152 0 -83.45696619096887
70 16.76558646876839 0 -79.00363519452017
71 17.61911377538249 0 -74.42728794918355
72 18.66938908194032 0 -69.73111029258681
73 19.92887157023079 0 -64.91888731299466
74 21.40959994774963 0 -59.99492674848823
75 23.12308873361512 0 -54.96395880768704
76 25.0802486404078 0 -49.83102475885786
77 27.29133490356448 0 -44.60135613297817
78 29.76592515099727 0 -39.28025477321158
79 32.51292396667706 0 -33.87298203066096
80 35.54059858426029 0 -28.38464369605085
81 38.85663106686901 0 -22.82010817261824
82 42.4681919216201 0 -17.18392478208294
83 46.38202046760084 0 -11.48027425873475
84 50.60452139456991 0 -5.712920396043972
85 55.14184757776861 0 0.1148006877750451
86 60 0 12.66666666666667
87 60 0 19.33333333333334
88 0 60 6.666666666666667
89 0 60 13.33333333333333
90 59.43752307599919 7.843779187835187 25.88819536939933
91 57.90906446212335 15.55010882988284 25.58963427594385
92 55.38206639476627 22.98025736406919 25.11311771666472
93 51.91126217391151 30.00810470955584 24.49327678408697
94 47.55860106183565 36.51636499348149 23.77262855479427
95 42.39849887500012 42.39849887499989 23.00000000000002
96 36.51636499348175 47.55860106183545 22.22737144520576
97 30.00810470955611 51.91126217391135 21.50672321591306
98 22.98025736406944 55.38206639476617 20.8868822833353
99 15.5501088298831 57.90906446212326 20.41036572405617
100 7.843779187835403 59.43752307599916 20.11180463060068
101 0 52.5 20.75
102 0 45 21.5
103 0 37.5 22.25
104 0 30 23
105 0 22.5 23.75
106 0 15 24.5
107 0 7.5 25.25
108 7.5 0 26
109 15 0 26
110 22.5 0 26
111 30 0 26
112 37.5 0 26
113 45 0 26
114 52.5 0 26
115 36.89735665834036 5.507910322037864 -25.42284938374283
116 5.651108452298592 39.6927471558994 -25.18551872509369
117 5.271325737661851 32.85960004318051 -36.12378335573892
118 41.67935212694115 37.66060679858012 -1.142642232739973
119 30.82370318321646 4.987109498802448 -36.40639861954678
120 4.543771544685706 27.31556393000249 -46.76527998771799
121 4.421278790841621 22.79234168932929 -57.13184051679224
122 25.80720550024528 4.819813727391852 -47.05612544666005
123 3.786652626020928 19.52284593838312 -66.9282460390147
124 25.30109769714958 49.06956128780674 -4.23507880289942
125 44.18925170339788 5.735101212311571 -14.12534140135303
126 21.82973585715121 4.29234174915829 -57.50939089477985
127 3.520393271553726 17.08019452645698 -76.60461623357227
128 3.7037257150054 15.49063260501716 -85.5165965657402
129 15.05859325920698 3.42501975379236 -89.39094007991888
130 17.68864128091047 4.072855768456882 -71.97730431995979
131 16.00300159693453 3.664439198755032 -81.17184869964134
132 9.220718839298604 11.94133864895812 -95.25503018729628
133 50.44872179498662 24.34670259432698 0.1576709716541333
134 5.949755955656563 47.82697254676338 -13.97491068960715
135 13.9202177588467 5.70373991170756 -96.38035986833738
136 52.46894143293444 5.987754338935969 -2.861499604007894
137 11.09373546389319 54.54462446201413 -4.666490128854724
138 3.453447900549657 14.75279659974857 -93.9886042584325
139 20.26723990576417 4.20307293701031 -62.32503168021582
140 19.82498921847113 8.714450389856051 -59.56645896235036
141 21.52189585420622 9.072165989599217 -54.67408078179677
142 18.7726773197233 12.9321206262401 -56.64349883594983
143 20.76984111072039 13.35080503142803 -51.58504007714029
144 16.97433828679564 12.62648118307988 -61.54374577339817
145 17.32643995156121 16.96564504650875 -53.23401957622271
146 19.50190029663495 17.51466809238375 -48.38666332824139
147 15.30669745332095 20.73116727430053 -50.00296724065268
148 17.88883982347449 21.58483351714911 -44.82634191241422
149 21.97489926619435 18.05572623014706 -43.35087006023392
150 20.4377136531144 22.33210978850265 -40.11030900076026
151 24.59122535946063 18.66154239147718 -38.31424375808055
152 23.3551854600755 23.35428049000312 -34.76601411455027
153 27.43302285931392 19.39155059782227 -33.10828265924624
154 26.28715524287059 24.33998196703122 -29.73486861068588
155 21.0023656936408 28.43053227597708 -31.29266009870216
156 24.77075470937484 29.20019006637913 -26.20907062517092
157 29.65921811080466 25.4313661354184 -24.29632831247316
158 28.21814018003507 30.59098249334072 -20.9274460942297
159 33.06097190042107 26.55398187949475 -19.0762200896521
160 23.11561155464079 34.25559107368418 -22.03596913493665
161 26.73825897147017 35.90764780971277 -16.88115025837979
162 20.85123324382439 39.07544057672532 -18.20429369677647
163 34.02544798228538 20.92824525057496 -22.26475999269364
164 37.45488774385167 22.07086298740924 -16.87268329077702
165 15.59239872165626 25.78252901119788 -41.04146576510076
166 36.74652982685185 27.92658629042552 -13.5897084329325
167 41.42690846641542 23.38358014918759 -11.0133755753363
168 37.98046746514095 16.33415319909037 -19.57565372898745
169 25.53256933054404 13.98261500616888 -41.38077773047245
170 16.9814162445705 36.99832072299796 -23.58167369021836
171 40.41724334981494 5.709295705313053 -19.75694229835269
172 24.87415162773826 40.99128141010209 -13.00618512876813
173 18.82445250606359 44.26407547494266 -13.40045275777009
174 30.73294671717826 37.48280139649937 -11.63198733849605
175 34.48456983715297 15.05198791522237 -25.48030531121101
176 12.96711823537268 19.58735722963456 -55.72679360189181
177 10.71516846097227 23.0480225956112 -51.33206942568646
178 41.07563083391567 29.24470213689036 -7.703625320158769
179 29.06519586197883 43.03193474347636 -7.663436347083621
180 35.0026496170204 39.21493498890727 -6.159954791818038
181 4.501577585485812 24.7443843050485 -52.37243217234444
182 3.990417178160376 16.11003610223794 -81.03096351589031
183 7.667944533217282 15.19493407363096 -78.49413353852528
184 7.736956434448466 16.20507578303935 -74.02592885289509
185 11.06175290986946 13.55555189078255 -75.82711244064672
186 10.96414247467159 12.53547678935169 -80.26531566739497
187 11.23502316531545 14.73534172414584 -71.32481604725915
188 13.68189887860069 10.30572715288326 -77.35703063737648
189 13.47886266731174 9.292498509662298 -81.76050234187507
190 11.04015038753647 11.58597498645555 -84.55812430334278
191 13.41808454724986 8.299447520086089 -86.19526745028766
192 11.25284764938723 10.69039351833529 -88.78912515393425
193 15.39679786607558 3.61307657877818 -85.68693045186284
194 7.912821567472657 13.50660551975437 -87.66518426236885
195 3.719684972478854 15.00260207807674 -89.77652556427563
196 6.794894522621396 13.64906098067471 -92.35359471286489
197 7.767783582195176 14.25200074397895 -83.15726066754833
198 3.976810834890157 21.06158787672432 -62.06594261348253
199 8.392768458297624 18.78635031812947 -64.40306970434557
200 8.865603326581581 20.35111813282314 -59.5786924088786
201 12.88662180662916 17.18364031934697 -61.19332093528313
202 12.15347312191035 15.64701245875675 -66.51332242256115
203 4.871844411155426 29.9327142712005 -41.50528836789682
204 10.1134914015509 30.13810445282245 -38.50457997970691
205 10.43009042891503 33.23678961285458 -33.20907193556001
206 15.37451295352353 29.71168642951841 -35.10896230904169
207 15.83143212294451 32.91675645054796 -30.01474374516324
208 9.787417019652237 27.3620466393753 -43.68144149570853
209 4.904832124110346 36.24380574195292 -30.63287169893856
210 10.89553217804176 36.95091268464395 -27.30753839987691
211 16.7752657823511 3.68528604541416 -76.69645667017163
212 18.87529552230086 4.009187885383366 -67.28100165826478
213 16.75047051402591 8.523034251755119 -69.53089642883478
214 18.23760898134165 8.582049636893064 -64.44414418997536
215 5.635205115451731 43.60117954852272 -19.63793600652911
216 10.95823799977101 40.90463572523001 -21.6856943657595
217 28.07780411375795 4.818396217362414 -42.02393197358118
218 33.70753728033149 4.877911596516911 -31.05633023485999
219 31.18672458426334 9.906460989233459 -33.78779322208628
220 48.13436296504025 5.706047921345594 -8.607219021334055
221 49.55134425424225 11.91381468907477 -5.494205067347703
222 15.58618080399222 12.10741945603081 -66.29834916118479
223 13.88159588014203 11.36085231132349 -73.47796299446426
224 23.63321999654404 4.476353207365142 -52.50992056831635
225 23.52170546407016 9.298105152326004 -49.65475737754812
226 41.39832428751228 11.16106033194445 -16.85404026408445
227 30.73936684922776 20.04617574030914 -27.59941115137276
228 28.1016357237542 14.59831040694188 -36.22831124962283
229 13.44556425537879 7.444080847776529 -90.403755662705
230 11.456720394535 9.993620680507142 -92.88687993434239
231 3.41248392872936 18.21765048920044 -71.86671010901229
232 45.29650408689581 11.49354657757662 -11.25573243249151
233 45.67556168239404 17.93923387402838 -8.423645069729831
234 46.04185156029953 24.26506825702742 -4.96846391269213
235 31.95662381778572 32.05552060929826 -15.49837586875282
236 7.952074461526858 17.44460344336768 -69.1906495733202
237 15.92850398450357 7.673000390787347 -74.35191588102492
238 23.03261401344465 13.76601107132568 -46.41605067346162
239 53.38651446019331 12.84293867936072 -0.4459505022248382
240 55.81517365285703 7.863065587640918 1.562293754894225
241 28.40904952167159 9.724121738199921 -39.07261281484985
242 18.28379243428201 52.60450383094599 -4.243822613182129
243 13.21760586085718 49.45561015968472 -9.913032534663474
244 5.773611533790857 52.44538110520646 -8.267685183860003
245 11.55077340335388 44.99028031938144 -16.04450396933048
246 11.95820479004584 9.137074662373864 -96.2318649400126
247 45.63268831699138 31.05208698667215 -1.571002409725455
248 5.753533783933574 13.89022752207315 -96.8248542293961
249 41.54914724171257 17.39166818190634 -14.08353226378472
250 14.86835249988139 2.622275676142662 -94.8204351769934
251 25.93825211990042 9.546155775371281 -44.16539159433287
252 35.93165493319263 33.4397752029365 -10.12884246715325
253 37.66674808550215 10.78410211595881 -22.59548761170048
254 34.18949316433693 9.990688704941398 -28.53098241137787
255 15.26645362146121 6.96688639328516 -79.05427723674229
256 15.81808942450905 16.28698598358594 -57.37688433564953
257 20.14805561350219 48.10992995958946 -8.268577408636414
258 13.54091076560118 23.95210962797794 -46.45716601569916
259 31.16601472771265 15.03383201750608 -30.74958347903224
260 32.35206854238383 45.75908903310385 -2.544681298971025
261 19.04297479235299 26.11110104321262 -36.63223356863066
262 49.86543646583257 18.10100592338165 -3.133286593521604
263 8.788241176270374 22.0822542303479 -55.45760516002174
264 20.52965966407474 32.56206907750789 -26.4697396250522
265 15.77016634918528 41.66200311643766 -18.31476518382428
266 37.71372650303851 42.55255415177769 -0.9611196968784531
267 13.2725549965826 7.3085004735156 -93.72978914927053
268 14.7637878041967 6.390408280282317 -83.59054374618458
269 53.54709914817016 18.6181490106729 1.445483259802126
270 14.81442882636511 2.426312336681212 -97.65681910618058
271 2.851283705856338 14.75308206645177 -97.16620855900693
272 4.614240562616794 56.62586042975433 -3.501910469230124
273 8.826427337319734 25.65337521716365 -47.71125485562263
274 9.545101570195957 11.96781497252642 -91.3951899373393
275 14.5469702208775 14.47265685086687 -63.87586460448243
276 14.03575682022715 12.60772945595716 -69.66449333760742
277 39.80987379887788 34.32532980757414 -5.447334613159834
278 14.45797327295885 5.946366410474709 -87.43028325730965
279 14.3690188948809 5.048219716505744 -92.30688005886206
280 24.06946168430834 44.95792041387464 -9.321093829862425
281 5.55288305014705 3.110396197534059 -100
282 6.596090466039779 9.146661171247803 -100
283 10.65083854882764 4.590429870897552 -100
284 2.92209746525025 9.093991809039833 -100
285 3.552319746729019 5.906863087039823 -100
286 9.575672492817436 7.5667182467784 -100
287 7.28855429625391 5.64241400537088 -100
288 2.745190528383289 2.74519052838329 -100
289 4.17860181191767 11.39036752881521 -100
290 8.376107662493297 2.670884504240696 -100
291 11.97616968833383 58.75233572105703 13.45848154715002
292 58.75233572105708 11.97616968833359 12.54151845284995
293 54.30716546250192 25.41647985427748 18.45065743061539
294 25.4164798534909 54.30716546287007 7.549342569529745
295 45.82244302341742 38.67259170815737 17.08489053611428
296 38.67259170815763 45.8224430234172 8.915109463885807
297 34.20042809813984 49.25034241342825 15.56751430025091
298 49.25034241342841 34.2004280981396 10.43248569974916
299 20.06008732780999 56.50538310676259 14.08069424048266
300 56.50538310666394 20.06008732808784 11.91930575958802
301 6.344720513914984 59.61447552669403 9.9671383174641
302 59.61447552673245 6.344720513552378 16.03286168273841
303 58.85298259845916 11.47136139776326 20.28210972225628
304 11.47136139687309 58.85298259863267 5.717890277857239
305 59.71330404413355 5.320518338822201 21.89540619896631
306 5.320518338098179 59.71330404419666 4.104593801890662
307 40.50843489612518 44.20783071626122 16.19713481759147
308 44.38151395372412 40.3180698115624 9.670165377128095
309 32.16597608260999 50.60252696601199 8.317362360202688
310 50.60252696588405 32.16597608281126 17.68263763984147
311 57.04597124528644 18.46680482744214 19.22764017451203
312 18.46680482643911 57.04597124561113 6.772359825861368
313 53.39376310908624 27.28317164374407 11.05228194582748
314 27.28317164363921 53.39376310913982 14.94771805418315
315 59.70956122616506 5.363267146073287 10.55758030525546
316 5.36326714557273 59.70956122620908 15.4424196949231
317 26.25 6.475007318083196 25.48835536671529
318 34.87524821459095 40.02003819360085 22.9247268595104
319 6.530680607267064 26.26067569680015 23.45273422814002
320 48.11072083390455 23.34899729788234 24.87988953472922
321 6.410389627622264 41.07304801724017 21.97749732314249
322 23.45148733670025 47.57620104430008 21.70370281201244
323 40.2590736390392 6.885774518986322 25.59280717376779
324 6.527459745132673 11.25403484289075 24.91534842890755
325 10.81149746086923 52.58311682474697 20.85627838593955
326 52.46700078777529 10.5230892408247 25.6612934982347
327 6.568262105865763 18.64295686217539 24.19746439045941
328 13.10537752511252 22.31900694984495 23.93496434610347
329 13.09131106267367 30.04390370259062 23.19673428960049
330 19.66725149039332 26.19761894920859 23.70645162280343
331 19.66779542295453 33.83776730649868 22.9846565037932
332 26.24859328488938 29.98749227223419 23.54576565076987
333 26.27659444657264 22.38411884043539 24.20978803042636
334 32.88541727117072 26.17194550968715 24.10269072001598
335 32.92547507085974 18.62495607974872 24.68621539406977
336 26.61611599218899 38.69821465096981 22.72756843174106
337 26.26656436194947 14.58614360793871 24.84577628612758
338 32.91986609241938 11.03044785753302 25.22502875642959
339 19.43588404784209 10.90194304563077 25.05978532677276
340 39.34908630809328 14.75985088469775 25.11868733234772
341 19.51296305898606 18.30636761309101 24.41266256619615
342 40.51308161059853 22.90362071732795 24.63034848011855
343 38.39479955118436 29.648425838945 24.02846863809633
344 6.521823452336401 33.7419515642665 22.71413334656943
345 13.03676615748951 37.50594392386331 22.45885184662511
346 12.95327242753407 14.73320814957892 24.64308084950886
347 12.2399905419052 6.732221059231252 25.38118627833853
348 12.16229448771354 45.18677014215087 21.65416354442267
349 19.11161626259894 41.81728767264397 22.16866670102481
350 32.80672990409174 33.37407996991868 23.47533716703697
351 50.70587964325593 16.98817175686229 25.34024253293295
352 30.29368938963484 45.15238831169561 22.21289671490769
353 17.34516145451596 50.07354197488513 21.25771891464794
354 45.76503191503402 11.99873816240942 25.43398586911361
355 5.77750476117822 48.46468374814039 21.2154160198844
356 48.40242464617531 5.782454785482509 25.74973482288387
357 33.65525331824027 4.903256753825127 25.65710657378801
358 40.24316859218942 36.47288214550774 23.49646147686119
359 18.75 4.739908935685071 25.59075202357369
360 44.88857651028044 18.00054935011322 25.09627859801827
361 45.28373741925299 29.54295794953187 24.31353326707048
362 5.5141310344648 5.498542280035615 25.46956071892009
363 54.45517953564931 5.170950373406789 25.85758742688248
364 5.13659031809435 54.50218541286035 20.58733448896237
$EndNodes
$Elements
623
1 2 2 1 1 76 224 122
2 2 2 1 1 176 201 200
3 2 2 1 1 204 206 165
4 2 2 1 1 132 248 196
5 2 2 1 1 165 208 204
6 2 2 1 1 176 256 201
7 2 2 1 1 243 245 134
8 2 2 1 1 173 245 243
9 2 2 1 1 194 195 128
10 2 2 1 1 196 274 132
11 2 2 1 1 116 210 209
12 2 2 1 1 178 277 247
13 2 2 1 1 85 240 3
14 2 2 1 1 134 244 243
15 2 2 1 1 194 196 195
16 2 2 1 1 206 207 155
17 2 2 1 1 224 225 122
18 2 2 1 1 250 279 67
19 2 2 1 1 75 224 76
20 2 2 1 1 178 247 234
21 2 2 1 1 128 197 194
22 2 2 1 1 207 210 170
23 2 2 1 1 247 277 118
24 2 2 1 1 3 240 55
25 2 2 1 1 132 274 230
26 2 2 1 1 144 275 201
27 2 2 1 1 116 209 50
28 2 2 1 1 210 216 170
29 2 2 1 1 213 237 223
30 2 2 1 1 223 276 213
31 2 2 1 1 182 197 128
32 2 2 1 1 209 210 205
33 2 2 1 1 201 256 144
34 2 2 1 1 206 261 165
35 2 2 1 1 196 248 138
36 2 2 1 1 232 249 233
37 2 2 1 1 67 279 129
38 2 2 1 1 116 216 210
39 2 2 1 1 202 236 199
40 2 2 1 1 170 264 207
41 2 2 1 1 155 261 206
42 2 2 1 1 204 208 203
43 2 2 1 1 243 244 137
44 2 2 1 1 203 208 120
45 2 2 1 1 183 197 182
46 2 2 1 1 207 264 155
47 2 2 1 1 177 263 181
48 2 2 1 1 187 236 202
49 2 2 1 1 254 259 175
50 2 2 1 1 233 249 167
51 2 2 1 1 212 214 139
52 2 2 1 1 217 251 241
53 2 2 1 1 231 236 184
54 2 2 1 1 179 260 180
55 2 2 1 1 130 237 213
56 2 2 1 1 127 231 184
57 2 2 1 1 181 273 177
58 2 2 1 1 213 214 212
59 2 2 1 1 234 262 233
60 2 2 1 1 120 181 46
61 2 2 1 1 214 222 144
62 2 2 1 1 230 246 132
63 2 2 1 1 213 276 222
64 2 2 1 1 194 274 196
65 2 2 1 1 157 227 154
66 2 2 1 1 220 221 136
67 2 2 1 1 199 236 123
68 2 2 1 1 180 266 118
69 2 2 1 1 186 197 183
70 2 2 1 1 40 182 39
71 2 2 1 1 133 262 234
72 2 2 1 1 260 266 180
73 2 2 1 1 44 198 43
74 2 2 1 1 38 195 37
75 2 2 1 1 4 272 54
76 2 2 1 1 80 218 115
77 2 2 1 1 39 182 128
78 2 2 1 1 43 198 123
79 2 2 1 1 171 253 226
80 2 2 1 1 81 171 82
81 2 2 1 1 78 217 119
82 2 2 1 1 37 195 138
83 2 2 1 1 123 236 231
84 2 2 1 1 226 249 232
85 2 2 1 1 84 220 136
86 2 2 1 1 118 277 180
87 2 2 1 1 167 234 233
88 2 2 1 1 226 253 168
89 2 2 1 1 124 260 179
90 2 2 1 1 211 237 130
91 2 2 1 1 121 200 198
92 2 2 1 1 119 241 219
93 2 2 1 1 115 171 81
94 2 2 1 1 213 222 214
95 2 2 1 1 154 227 153
96 2 2 1 1 71 211 130
97 2 2 1 1 234 247 133
98 2 2 1 1 73 212 139
99 2 2 1 1 69 193 131
100 2 2 1 1 120 273 181
101 2 2 1 1 191 192 190
102 2 2 1 1 189 191 190
103 2 2 1 1 189 190 186
104 2 2 1 1 229 230 192
105 2 2 1 1 191 229 192
106 2 2 1 1 198 199 123
107 2 2 1 1 163 227 157
108 2 2 1 1 219 241 228
109 2 2 1 1 168 175 163
110 2 2 1 1 127 182 40
111 2 2 1 1 121 198 44
112 2 2 1 1 128 195 38
113 2 2 1 1 140 214 144
114 2 2 1 1 195 196 138
115 2 2 1 1 64 137 65
116 2 2 1 1 139 214 140
117 2 2 1 1 82 171 125
118 2 2 1 1 188 189 186
119 2 2 1 1 62 124 63
120 2 2 1 1 57 133 58
121 2 2 1 1 201 202 199
122 2 2 1 1 59 118 60
123 2 2 1 1 217 241 119
124 2 2 1 1 185 186 183
125 2 2 1 1 117 204 203
126 2 2 1 1 56 240 239
127 2 2 1 1 74 139 126
128 2 2 1 1 39 128 38
129 2 2 1 1 41 127 40
130 2 2 1 1 175 227 163
131 2 2 1 1 43 123 42
132 2 2 1 1 55 240 56
133 2 2 1 1 45 121 44
134 2 2 1 1 47 120 46
135 2 2 1 1 49 117 48
136 2 2 1 1 140 144 142
137 2 2 1 1 51 116 50
138 2 2 1 1 139 140 126
139 2 2 1 1 69 131 70
140 2 2 1 1 192 194 190
141 2 2 1 1 71 130 72
142 2 2 1 1 175 259 227
143 2 2 1 1 73 139 74
144 2 2 1 1 74 126 75
145 2 2 1 1 76 122 77
146 2 2 1 1 78 119 79
147 2 2 1 1 80 115 81
148 2 2 1 1 215 216 116
149 2 2 1 1 37 138 36
150 2 2 1 1 67 129 68
151 2 2 1 1 53 134 52
152 2 2 1 1 82 125 83
153 2 2 1 1 160 170 162
154 2 2 1 1 173 265 245
155 2 2 1 1 145 176 147
156 2 2 1 1 179 280 124
157 2 2 1 1 243 257 173
158 2 2 1 1 127 183 182
159 2 2 1 1 84 136 85
160 2 2 1 1 185 188 186
161 2 2 1 1 241 251 169
162 2 2 1 1 165 258 208
163 2 2 1 1 124 242 63
164 2 2 1 1 117 203 48
165 2 2 1 1 232 233 221
166 2 2 1 1 190 197 186
167 2 2 1 1 134 215 52
168 2 2 1 1 1 270 66
169 2 2 1 1 68 193 69
170 2 2 1 1 51 215 116
171 2 2 1 1 164 168 163
172 2 2 1 1 70 211 71
173 2 2 1 1 72 212 73
174 2 2 1 1 47 203 120
175 2 2 1 1 220 232 221
176 2 2 1 1 115 254 253
177 2 2 1 1 159 163 157
178 2 2 1 1 200 263 176
179 2 2 1 1 151 169 149
180 2 2 1 1 176 177 147
181 2 2 1 1 219 259 254
182 2 2 1 1 200 201 199
183 2 2 1 1 122 251 217
184 2 2 1 1 205 206 204
185 2 2 1 1 184 185 183
186 2 2 1 1 130 213 212
187 2 2 1 1 32 135 31
188 2 2 1 1 36 271 2
189 2 2 1 1 77 217 78
190 2 2 1 1 225 251 122
191 2 2 1 1 140 142 141
192 2 2 1 1 34 132 33
193 2 2 1 1 194 197 190
194 2 2 1 1 198 200 199
195 2 2 1 1 168 249 226
196 2 2 1 1 79 218 80
197 2 2 1 1 185 223 188
198 2 2 1 1 145 256 176
199 2 2 1 1 142 145 143
200 2 2 1 1 181 263 121
201 2 2 1 1 169 238 149
202 2 2 1 1 52 215 51
203 2 2 1 1 131 211 70
204 2 2 1 1 242 243 137
205 2 2 1 1 117 205 204
206 2 2 1 1 130 212 72
207 2 2 1 1 159 164 163
208 2 2 1 1 145 147 146
209 2 2 1 1 129 193 68
210 2 2 1 1 140 141 126
211 2 2 1 1 133 247 58
212 2 2 1 1 144 256 142
213 2 2 1 1 83 220 84
214 2 2 1 1 127 184 183
215 2 2 1 1 152 155 154
216 2 2 1 1 148 165 150
217 2 2 1 1 48 203 47
218 2 2 1 1 46 181 45
219 2 2 1 1 160 162 161
220 2 2 1 1 156 160 158
221 2 2 1 1 151 228 169
222 2 2 1 1 218 254 115
223 2 2 1 1 162 173 172
224 2 2 1 1 184 187 185
225 2 2 1 1 205 207 206
226 2 2 1 1 142 143 141
227 2 2 1 1 148 149 146
228 2 2 1 1 150 151 149
229 2 2 1 1 145 146 143
230 2 2 1 1 152 153 151
231 2 2 1 1 156 157 154
232 2 2 1 1 147 148 146
233 2 2 1 1 174 252 235
234 2 2 1 1 171 226 125
235 2 2 1 1 205 210 207
236 2 2 1 1 253 254 175
237 2 2 1 1 172 174 161
238 2 2 1 1 115 253 171
239 2 2 1 1 123 231 42
240 2 2 1 1 179 180 174
241 2 2 1 1 158 159 157
242 2 2 1 1 119 219 218
243 2 2 1 1 155 156 154
244 2 2 1 1 166 167 164
245 2 2 1 1 63 242 64
246 2 2 1 1 148 150 149
247 2 2 1 1 150 152 151
248 2 2 1 1 221 239 136
249 2 2 1 1 152 154 153
250 2 2 1 1 160 161 158
251 2 2 1 1 159 166 164
252 2 2 1 1 160 264 170
253 2 2 1 1 146 238 143
254 2 2 1 1 162 172 161
255 2 2 1 1 64 242 137
256 2 2 1 1 174 235 161
257 2 2 1 1 156 158 157
258 2 2 1 1 32 246 135
259 2 2 1 1 172 179 174
260 2 2 1 1 166 178 167
261 2 2 1 1 132 246 33
262 2 2 1 1 122 217 77
263 2 2 1 1 164 249 168
264 2 2 1 1 54 244 53
265 2 2 1 1 223 237 188
266 2 2 1 1 216 265 170
267 2 2 1 1 143 238 225
268 2 2 1 1 41 231 127
269 2 2 1 1 33 246 32
270 2 2 1 1 34 248 132
271 2 2 1 1 119 218 79
272 2 2 1 1 131 268 255
273 2 2 1 1 192 274 194
274 2 2 1 1 187 223 185
275 2 2 1 1 184 236 187
276 2 2 1 1 238 251 225
277 2 2 1 1 135 279 250
278 2 2 1 1 235 252 166
279 2 2 1 1 149 238 146
280 2 2 1 1 58 247 59
281 2 2 1 1 228 241 169
282 2 2 1 1 153 228 151
283 2 2 1 1 180 252 174
284 2 2 1 1 170 265 162
285 2 2 1 1 125 220 83
286 2 2 1 1 62 260 124
287 2 2 1 1 59 247 118
288 2 2 1 1 65 272 4
289 2 2 1 1 255 268 189
290 2 2 1 1 177 258 147
291 2 2 1 1 35 248 34
292 2 2 1 1 215 245 216
293 2 2 1 1 50 209 49
294 2 2 1 1 148 258 165
295 2 2 1 1 136 240 85
296 2 2 1 1 159 235 166
297 2 2 1 1 117 209 205
298 2 2 1 1 45 181 121
299 2 2 1 1 143 225 141
300 2 2 1 1 152 261 155
301 2 2 1 1 54 272 244
302 2 2 1 1 161 235 158
303 2 2 1 1 124 257 242
304 2 2 1 1 169 251 238
305 2 2 1 1 134 245 215
306 2 2 1 1 242 257 243
307 2 2 1 1 155 264 156
308 2 2 1 1 31 270 1
309 2 2 1 1 167 249 164
310 2 2 1 1 178 234 167
311 2 2 1 1 118 266 60
312 2 2 1 1 211 255 237
313 2 2 1 1 165 261 150
314 2 2 1 1 126 224 75
315 2 2 1 1 158 235 159
316 2 2 1 1 142 256 145
317 2 2 1 1 228 259 219
318 2 2 1 1 125 232 220
319 2 2 1 1 121 263 200
320 2 2 1 1 2 271 35
321 2 2 1 1 221 262 239
322 2 2 1 1 168 253 175
323 2 2 1 1 222 275 144
324 2 2 1 1 202 276 187
325 2 2 1 1 226 232 125
326 2 2 1 1 166 252 178
327 2 2 1 1 267 279 135
328 2 2 1 1 227 259 153
329 2 2 1 1 53 244 134
330 2 2 1 1 61 260 62
331 2 2 1 1 131 255 211
332 2 2 1 1 42 231 41
333 2 2 1 1 147 258 148
334 2 2 1 1 219 254 218
335 2 2 1 1 188 255 189
336 2 2 1 1 138 271 36
337 2 2 1 1 193 268 131
338 2 2 1 1 237 255 188
339 2 2 1 1 153 259 228
340 2 2 1 1 66 250 67
341 2 2 1 1 246 267 135
342 2 2 1 1 57 269 133
343 2 2 1 1 150 261 152
344 2 2 1 1 222 276 202
345 2 2 1 1 141 225 224
346 2 2 1 1 156 264 160
347 2 2 1 1 176 263 177
348 2 2 1 1 173 280 172
349 2 2 1 1 233 262 221
350 2 2 1 1 137 272 65
351 2 2 1 1 177 273 258
352 2 2 1 1 162 265 173
353 2 2 1 1 193 278 268
354 2 2 1 1 229 267 230
355 2 2 1 1 60 266 61
356 2 2 1 1 61 266 260
357 2 2 1 1 56 269 57
358 2 2 1 1 230 267 246
359 2 2 1 1 208 273 120
360 2 2 1 1 268 278 191
361 2 2 1 1 201 275 202
362 2 2 1 1 189 268 191
363 2 2 1 1 124 280 257
364 2 2 1 1 250 270 135
365 2 2 1 1 245 265 216
366 2 2 1 1 257 280 173
367 2 2 1 1 230 274 192
368 2 2 1 1 129 279 229
369 2 2 1 1 49 209 117
370 2 2 1 1 180 277 252
371 2 2 1 1 191 278 229
372 2 2 1 1 202 275 222
373 2 2 1 1 66 270 250
374 2 2 1 1 229 278 129
375 2 2 1 1 244 272 137
376 2 2 1 1 239 269 56
377 2 2 1 1 262 269 239
378 2 2 1 1 258 273 208
379 2 2 1 1 133 269 262
380 2 2 1 1 129 278 193
381 2 2 1 1 135 270 31
382 2 2 1 1 141 224 126
383 2 2 1 1 172 280 179
384 2 2 1 1 248 271 138
385 2 2 1 1 239 240 136
386 2 2 1 1 187 276 223
387 2 2 1 1 35 271 248
388 2 2 1 1 252 277 178
389 2 2 1 1 229 279 267
390 2 2 2 213133 9 283 30
391 2 2 2 213133 25 289 13
392 2 2 2 213133 1 9 30
393 2 2 2 213133 2 25 13
394 2 2 2 213133 284 285 282
395 2 2 2 213133 285 287 282
396 2 2 2 213133 284 289 25
397 2 2 2 213133 283 290 30
398 2 2 2 213133 10 283 9
399 2 2 2 213133 12 282 11
400 2 2 2 213133 29 281 28
401 2 2 2 213133 26 284 25
402 2 2 2 213133 27 285 26
403 2 2 2 213133 26 285 284
404 2 2 2 213133 5 288 27
405 2 2 2 213133 28 288 5
406 2 2 2 213133 30 290 29
407 2 2 2 213133 281 287 285
408 2 2 2 213133 287 290 283
409 2 2 2 213133 10 286 283
410 2 2 2 213133 286 287 283
411 2 2 2 213133 282 286 11
412 2 2 2 213133 11 286 10
413 2 2 2 213133 12 289 282
414 2 2 2 213133 27 288 285
415 2 2 2 213133 282 289 284
416 2 2 2 213133 281 288 28
417 2 2 2 213133 13 289 12
418 2 2 2 213133 29 290 281
419 2 2 2 213133 285 288 281
420 2 2 2 213133 281 290 287
421 2 2 2 213133 282 287 286
422 2 2 3 213134 292 311 300
423 2 2 3 213134 291 312 299
424 2 2 3 213134 297 314 309
425 2 2 3 213134 298 313 310
426 2 2 3 213134 309 314 294
427 2 2 3 213134 310 313 293
428 2 2 3 213134 303 311 292
429 2 2 3 213134 304 312 291
430 2 2 3 213134 296 308 307
431 2 2 3 213134 307 308 295
432 2 2 3 213134 294 314 299
433 2 2 3 213134 293 313 300
434 2 2 3 213134 299 312 294
435 2 2 3 213134 300 311 293
436 2 2 3 213134 296 307 297
437 2 2 3 213134 295 308 298
438 2 2 3 213134 297 309 296
439 2 2 3 213134 298 310 295
440 2 2 3 213134 100 291 99
441 2 2 3 213134 14 292 15
442 2 2 3 213134 292 300 15
443 2 2 3 213134 291 299 99
444 2 2 3 213134 299 314 98
445 2 2 3 213134 300 313 16
446 2 2 3 213134 15 300 16
447 2 2 3 213134 99 299 98
448 2 2 3 213134 21 294 22
449 2 2 3 213134 93 293 92
450 2 2 3 213134 97 297 96
451 2 2 3 213134 17 298 18
452 2 2 3 213134 19 296 20
453 2 2 3 213134 95 295 94
454 2 2 3 213134 294 312 22
455 2 2 3 213134 293 311 92
456 2 2 3 213134 87 302 86
457 2 2 3 213134 88 301 89
458 2 2 3 213134 97 314 297
459 2 2 3 213134 17 313 298
460 2 2 3 213134 297 307 96
461 2 2 3 213134 298 308 18
462 2 2 3 213134 19 308 296
463 2 2 3 213134 95 307 295
464 2 2 3 213134 296 309 20
465 2 2 3 213134 295 310 94
466 2 2 3 213134 301 304 291
467 2 2 3 213134 302 303 292
468 2 2 3 213134 21 309 294
469 2 2 3 213134 93 310 293
470 2 2 3 213134 22 312 23
471 2 2 3 213134 92 311 91
472 2 2 3 213134 3 315 14
473 2 2 3 213134 7 316 100
474 2 2 3 213134 91 303 90
475 2 2 3 213134 23 304 24
476 2 2 3 213134 96 307 95
477 2 2 3 213134 18 308 19
478 2 2 3 213134 20 309 21
479 2 2 3 213134 94 310 93
480 2 2 3 213134 16 313 17
481 2 2 3 213134 98 314 97
482 2 2 3 213134 24 306 4
483 2 2 3 213134 90 305 6
484 2 2 3 213134 6 305 87
485 2 2 3 213134 4 306 88
486 2 2 3 213134 291 316 301
487 2 2 3 213134 292 315 302
488 2 2 3 213134 86 315 3
489 2 2 3 213134 89 316 7
490 2 2 3 213134 100 316 291
491 2 2 3 213134 14 315 292
492 2 2 3 213134 302 305 303
493 2 2 3 213134 301 306 304
494 2 2 3 213134 91 311 303
495 2 2 3 213134 23 312 304
496 2 2 3 213134 87 305 302
497 2 2 3 213134 88 306 301
498 2 2 3 213134 302 315 86
499 2 2 3 213134 301 316 89
500 2 2 3 213134 303 305 90
501 2 2 3 213134 304 306 24
502 2 2 4 213155 336 322 349
503 2 2 4 213155 322 336 352
504 2 2 4 213155 338 323 340
505 2 2 4 213155 348 349 353
506 2 2 4 213155 349 322 353
507 2 2 4 213155 323 338 357
508 2 2 4 213155 337 317 338
509 2 2 4 213155 317 337 339
510 2 2 4 213155 108 109 347
511 2 2 4 213155 328 327 346
512 2 2 4 213155 342 320 361
513 2 2 4 213155 336 318 352
514 2 2 4 213155 343 342 361
515 2 2 4 213155 333 330 341
516 2 2 4 213155 318 336 350
517 2 2 4 213155 94 358 361
518 2 2 4 213155 341 328 346
519 2 2 4 213155 330 328 341
520 2 2 4 213155 337 333 341
521 2 2 4 213155 327 324 346
522 2 2 4 213155 339 337 341
523 2 2 4 213155 339 346 347
524 2 2 4 213155 108 347 362
525 2 2 4 213155 90 91 326
526 2 2 4 213155 335 333 337
527 2 2 4 213155 99 100 325
528 2 2 4 213155 335 337 338
529 2 2 4 213155 97 98 322
530 2 2 4 213155 92 93 320
531 2 2 4 213155 95 96 318
532 2 2 4 213155 358 343 361
533 2 2 4 213155 334 333 335
534 2 2 4 213155 106 107 324
535 2 2 4 213155 332 330 333
536 2 2 4 213155 335 338 340
537 2 2 4 213155 106 324 327
538 2 2 4 213155 105 106 327
539 2 2 4 213155 335 340 342
540 2 2 4 213155 334 335 342
541 2 2 4 213155 104 105 319
542 2 2 4 213155 332 333 334
543 2 2 4 213155 110 111 317
544 2 2 4 213155 103 104 344
545 2 2 4 213155 319 105 327
546 2 2 4 213155 319 327 328
547 2 2 4 213155 319 328 329
548 2 2 4 213155 329 328 330
549 2 2 4 213155 112 113 323
550 2 2 4 213155 102 103 321
551 2 2 4 213155 331 330 332
552 2 2 4 213155 329 330 331
553 2 2 4 213155 331 332 336
554 2 2 4 213155 334 342 343
555 2 2 4 213155 104 319 344
556 2 2 4 213155 321 103 344
557 2 2 4 213155 319 329 344
558 2 2 4 213155 321 344 345
559 2 2 4 213155 344 329 345
560 2 2 4 213155 329 331 345
561 2 2 4 213155 339 341 346
562 2 2 4 213155 331 336 349
563 2 2 4 213155 346 324 347
564 2 2 4 213155 340 323 354
565 2 2 4 213155 338 317 357
566 2 2 4 213155 321 345 348
567 2 2 4 213155 348 345 349
568 2 2 4 213155 350 343 358
569 2 2 4 213155 345 331 349
570 2 2 4 213155 336 332 350
571 2 2 4 213155 334 343 350
572 2 2 4 213155 317 339 359
573 2 2 4 213155 107 8 362
574 2 2 4 213155 8 108 362
575 2 2 4 213155 101 102 355
576 2 2 4 213155 317 111 357
577 2 2 4 213155 112 323 357
578 2 2 4 213155 110 317 359
579 2 2 4 213155 113 114 356
580 2 2 4 213155 325 348 353
581 2 2 4 213155 318 350 358
582 2 2 4 213155 326 351 354
583 2 2 4 213155 326 91 351
584 2 2 4 213155 99 325 353
585 2 2 4 213155 97 322 352
586 2 2 4 213155 322 98 353
587 2 2 4 213155 339 347 359
588 2 2 4 213155 92 320 351
589 2 2 4 213155 318 96 352
590 2 2 4 213155 321 348 355
591 2 2 4 213155 6 90 363
592 2 2 4 213155 91 92 351
593 2 2 4 213155 96 97 352
594 2 2 4 213155 98 99 353
595 2 2 4 213155 332 334 350
596 2 2 4 213155 100 7 364
597 2 2 4 213155 114 6 363
598 2 2 4 213155 348 325 355
599 2 2 4 213155 7 101 364
600 2 2 4 213155 320 342 360
601 2 2 4 213155 94 95 358
602 2 2 4 213155 93 94 361
603 2 2 4 213155 347 324 362
604 2 2 4 213155 342 340 360
605 2 2 4 213155 354 351 360
606 2 2 4 213155 101 355 364
607 2 2 4 213155 323 113 356
608 2 2 4 213155 102 321 355
609 2 2 4 213155 347 109 359
610 2 2 4 213155 111 112 357
611 2 2 4 213155 95 318 358
612 2 2 4 213155 356 114 363
613 2 2 4 213155 109 110 359
614 2 2 4 213155 320 93 361
615 2 2 4 213155 324 107 362
616 2 2 4 213155 90 326 363
617 2 2 4 213155 325 100 364
618 2 2 4 213155 354 323 356
619 2 2 4 213155 351 320 360
620 2 2 4 213155 326 354 356
621 2 2 4 213155 355 325 364
622 2 2 4 213155 340 354 360
623 2 2 4 213155 326 356 363
$EndElements
