$MeshFormat
2.2 0 8
$EndMeshFormat
$Nodes
257
1 15 0 -100
2 14.488887 3.882286 -100
3 12.990381 7.5 -100
4 10.606602 10.606602 -100
5 7.5 12.990381 -100
6 3.882286 14.488887 -100
7 0 15 -100
8 35 0 -48
9 33.807404 9.058667 -48.133975
10 30.310889 17.5 -48.5
11 24.748737 24.748737 -49
12 17.5 30.310889 -49.5
13 9.058667 33.807404 -49.866025
14 0 35 -50
15 60 0 6
16 57.95555 15.529143 5.598076
17 51.961524 30 4.5
18 42.426407 42.426407 3
19 30 51.961524 1.5
20 15.529143 57.95555 0.401924
21 0 60 0
22 60 0 16
23 57.95555 15.529143 15.598076
24 51.961524 30 14.5
25 42.426407 42.426407 13
26 30 51.961524 11.5
27 15.529143 57.95555 10.401924
28 0 60 10
29 60 0 20
30 57.95555 15.529143 20
31 51.961524 30 20
32 42.426407 42.426407 20
33 30 51.961524 20
34 15.529143 57.95555 20
35 0 60 20
36 0 0 -100
37 0 0 -48
38 0 0 6
39 0 0 16
40 0 0 20
41 10.48613149999997 10.48613150000003 -100
42 31.87936767104284 13.19217808603894 -48.33095347451858
43 24.4676395 24.46763950000001 -49
44 13.19217808603896 31.87936767104283 -49.66904652548142
45 57.64528349184464 13.11682419502196 5.550804321569391
46 53.29462115279757 25.67616698390328 4.769156610790175
47 46.34609388461966 36.97864255071947 3.634195191395823
48 36.97864255071936 46.34609388461976 2.365804808604163
49 25.67616698390331 53.29462115279756 1.230843389209829
50 13.11682419502214 57.64528349184459 0.449195678430617
51 57.64528349184464 13.11682419502196 15.55080432156939
52 53.29462115279757 25.67616698390328 14.76915661079017
53 46.34609388461966 36.97864255071947 13.63419519139583
54 36.97864255071936 46.34609388461976 12.36580480860416
55 25.67616698390331 53.29462115279756 11.23084338920983
56 13.11682419502214 57.64528349184459 10.44919567843062
57 57.6508425884696 13.09380207835845 20
58 53.30829877536894 25.64766099142501 20
59 46.35502120179632 36.96720773922264 20
60 36.96720773922272 46.35502120179625 20
61 25.64766099142526 53.30829877536883 20
62 13.09380207835839 57.6508425884696 20
63 0 7.499999999999998 -100
64 7.500000000000002 0 -100
65 0 23.33333333333335 -49.33333333333334
66 0 11.66666666666668 -48.66666666666666
67 11.66666666666665 0 -48
68 23.33333333333329 0 -48
69 0 48 1.2
70 0 36 2.4
71 0 23.99999999999999 3.600000000000001
72 0 12 4.8
73 12 0 6
74 24.00000000000001 0 6
75 36.00000000000001 0 6
76 48.00000000000001 0 6
77 0 48 11.2
78 0 36 12.4
79 0 23.99999999999999 13.6
80 0 12 14.8
81 12 0 16
82 24.00000000000001 0 16
83 36.00000000000001 0 16
84 48.00000000000001 0 16
85 0 48 20
86 0 35.99999999999999 20
87 0 23.99999999999999 20
88 0 11.99999999999999 20
89 12 0 20
90 24.00000000000001 0 20
91 36.00000000000001 0 20
92 48.00000000000001 0 20
93 10.48613149999997 10.48613150000003 -100
94 0 19.71514707832179 -87.11259601988891
95 0 24.68971476142758 -74.32309793585702
96 0 29.92455353047054 -61.63791202629309
97 0 35.42005876583988 -49.06346342385019
98 0 41.17615699016711 -36.60615429722857
99 0 47.19229259107554 -24.2723295708075
100 0 53.46742025686444 -12.06823851328464
101 57.64528349184464 13.11682419502196 5.550804321569391
102 53.29462115279757 25.67616698390328 4.769156610790175
103 46.34609388461966 36.97864255071947 3.634195191395823
104 36.97864255071936 46.34609388461976 2.365804808604163
105 25.67616698390331 53.29462115279756 1.230843389209829
106 13.11682419502214 57.64528349184459 0.449195678430617
107 19.83987749505963 0 -86.43246566891673
108 24.91266767508063 0 -72.95028147311808
109 30.21425283467725 0 -59.55640720333241
110 35.74035362015758 0 -46.25358984476827
111 41.48655607826471 0 -33.04434826868274
112 47.44832792940422 0 -19.9309855166771
113 53.62104368242987 0 -6.915580265892779
114 0 7.5 -100
115 0 0 -86.74999150927302
116 0 0 -73.49998720119183
117 0 0 -60.24998532188216
118 0 0 -46.99998480302869
119 0 0 -33.74998528021763
120 0 0 -20.49998711171848
121 0 0 -7.249991397715457
122 0 47.99999999999997 1.200000000000002
123 0 35.99999999999998 2.400000000000002
124 0 23.99999999999998 3.600000000000002
125 0 11.99999999999998 4.800000000000002
126 7.5 0 -100
127 12.00000000000001 0 6
128 24.00000000000002 0 6
129 36.00000000000001 0 6
130 48.00000000000001 0 6
131 57.64528349184464 13.11682419502196 5.550804321569391
132 53.29462115279757 25.67616698390328 4.769156610790175
133 46.34609388461966 36.97864255071947 3.634195191395823
134 36.97864255071936 46.34609388461976 2.365804808604163
135 25.67616698390331 53.29462115279756 1.230843389209829
136 13.11682419502214 57.64528349184459 0.449195678430617
137 0 60 9.9998968669771
138 57.6508425884696 13.09380207835845 20
139 53.30829877536894 25.64766099142501 20
140 46.35502120179632 36.96720773922264 20
141 36.96720773922272 46.35502120179625 20
142 25.64766099142526 53.30829877536883 20
143 13.09380207835839 57.6508425884696 20
144 60 0 13.00008280666557
145 0 47.99999999999997 1.200000000000002
146 0 35.99999999999998 2.400000000000002
147 0 23.99999999999998 3.600000000000002
148 0 11.99999999999998 4.800000000000002
149 0 0 13.00008280666557
150 0 48 20
151 0 35.99999999999999 20
152 0 23.99999999999998 20
153 0 11.99999999999998 20
154 12.00000000000001 0 6
155 24.00000000000002 0 6
156 36.00000000000001 0 6
157 48.00000000000001 0 6
158 12.00000000000001 0 20
159 24.00000000000002 0 20
160 36.00000000000001 0 20
161 48.00000000000001 0 20
162 11.67871573814464 42.2058047141067 -29.47421740027599
163 29.42868163328811 45.04628553395752 -8.521407775408996
164 42.78663572946265 11.58218718964553 -25.56804499887354
165 31.12474187088532 11.76065608666176 -51.21387462143711
166 11.65182524287389 36.17444389092127 -41.85353606874818
167 23.83473559131262 34.34341696192772 -33.14948892957629
168 36.83420043383738 11.80714314987273 -38.38484943674449
169 11.36041376255861 24.83618267159231 -66.72337083735694
170 11.46976050817533 30.46940449168651 -54.17981145475104
171 45.96009091193079 29.10690523268471 -5.324919296486899
172 9.944884780937176 49.1130266121686 -16.82548373753994
173 10.35927339461938 19.57790378403574 -79.81399851739728
174 51.08623602033808 17.22805892084306 -5.282153377772698
175 20.8397821742318 29.85964527046069 -45.08050761125965
176 26.13070927081877 11.29402027936089 -63.09445168135571
177 35.39034365565346 23.76527338753261 -30.25747661629582
178 22.6750637977749 42.48131766039408 -20.04935641378878
179 21.60762016292863 22.30220708811667 -57.42028544798269
180 42.92741769275104 23.53282091637283 -16.26045753831914
181 48.53801683385394 9.779187996943383 -14.27681884138684
182 36.79427644134623 35.4852936501541 -13.08654076795951
183 31.78363622782808 33.43059112932528 -23.57767425620426
184 18.44693463572543 51.09837314729796 -8.234916997430348
185 19.37169414640931 9.763012729518831 -80.71894368091149
186 15.11856297197645 10.23544614491875 -90.20531463070662
187 30.57589808610953 22.31119193116806 -41.11070865709295
188 6.435086305571707 15.99713967444996 -93.05855263218389
189 39.76755599987172 38.78620120276846 -4.247605648761437
190 18.82030704330093 17.11006246627177 -71.25411869692199
191 8.386320369557181 54.52375139573846 -7.293653765515829
192 0 33.29822755161268 -26.0772357462795
193 0 13.06366817605313 -39.19275347751126
194 0 10.28053678526202 -13.47700545982883
195 0 29.80981816803462 -5.682557763714195
196 0 17.21819511020868 -63.44026948863041
197 0 27.50976310786249 -37.84988221678034
198 0 11.55227966598127 -26.63442663826358
199 0 22.05696350097355 -50.29439326886838
200 0 37.730866237409 -15.23553670783787
201 0 10.33541822395388 -91.92635136397917
202 0 23.02837166265907 -17.53376853330474
203 0 12.98567172997983 -74.99382197932638
204 0 10.37533752044419 -53.94245635941433
205 0 17.80745343420869 -4.855228724380721
206 0 8.567915997797851 -65.59613540924639
207 0 21.76714150808569 -28.41048724730177
208 0 9.214424365521612 -83.64839148430846
209 0 8.146952415648391 -2.939996366103789
210 0 41.22030672784425 -5.397234558037967
211 33.11093810753221 0 -21.32462164359034
212 18.44995480509579 0 -2.718473900905456
213 11.64979021326586 0 -40.45982650211678
214 25.49193052060431 0 -34.43661985035104
215 20.79988159116812 0 -21.57434689691329
216 15.96402742923227 0 -61.66203791787832
217 39.54324427655381 0 -6.849611453428638
218 11.38587034468868 0 -91.06373031234169
219 11.09870933459794 0 -27.77645630377196
220 21.53675922251375 0 -49.47480721864191
221 11.21617142612078 0 -13.58069643582431
222 12.88260871854047 0 -76.11929918491316
223 27.57311478391202 0 -10.86279734841692
224 10.50863344736987 0 -50.56571954704787
225 7.742544125126441 0 -67.45525796745873
226 29.66212174834096 0 -1.614556947041037
227 8.640325054738412 0 -2.555035201349066
228 19.06863990214906 55.95582058100453 8.812281978808326
229 30.94547493081542 50.45430444116261 9.482946653819148
230 10.27870426611604 58.28445874283565 11.08288601975726
231 41.50254552042974 42.38182819314381 10.91489595861403
232 49.9061878958106 31.84865842676658 11.80845891904984
233 55.40954871023197 20.64036561889666 12.37328688459309
234 0 42.76575965160021 9.457596516003555
235 0 30.56016606161348 10.82870926614341
236 0 7.41847296922273 10.06504932092646
237 0 18.74760473541295 11.67604735415026
238 0 51.24356329991515 11.81900392543398
239 18.89037266619724 0 13.15637458921234
240 8.07477167864816 0 12.99999999999997
241 41.10962733380273 0 13.15637458921234
242 51.92522832135179 0 12.99999999999997
243 30 0 12.91016895067466
244 5.92416964377752 5.924169643777523 -100
245 33.74680408678172 33.3885980326557 20
246 18.07089474182358 10.08897653164298 20
247 10.97125256172792 29.87108832861535 20
248 43.84798326972866 14.42105125765289 20
249 14.06961336684036 43.3366961958581 20
250 30.97004095793699 12.07246506998291 20
251 23.0826695464433 22.97862892439333 20
252 21.8404600446 34.58696455364333 20
253 9.607695154586736 17.99999999999999 20
254 35.17696327602677 22.14634636649819 20
255 8.723511174660675 8.723511174660675 20
256 26.70509536446907 42.52788590467294 20
257 42.98710109259839 26.90183449758095 20
$EndNodes
$Elements
510
1 15 2 0 1 1
2 15 2 0 2 2
3 15 2 0 3 3
4 15 2 0 4 4
5 15 2 0 5 5
6 15 2 0 6 6
7 15 2 0 7 7
8 15 2 0 8 8
9 15 2 0 9 9
10 15 2 0 10 10
11 15 2 0 11 11
12 15 2 0 12 12
13 15 2 0 13 13
14 15 2 0 14 14
15 15 2 0 15 15
16 15 2 0 16 16
17 15 2 0 17 17
18 15 2 0 18 18
19 15 2 0 19 19
20 15 2 0 20 20
21 15 2 0 21 21
22 15 2 0 22 22
23 15 2 0 23 23
24 15 2 0 24 24
25 15 2 0 25 25
26 15 2 0 26 26
27 15 2 0 27 27
28 15 2 0 28 28
29 15 2 0 29 29
30 15 2 0 30 30
31 15 2 0 31 31
32 15 2 0 32 32
33 15 2 0 33 33
34 15 2 0 34 34
35 15 2 0 35 35
36 15 2 0 36 36
37 15 2 0 37 37
38 15 2 0 38 38
39 15 2 0 39 39
40 15 2 0 40 40
41 1 2 0 10041 1 41
42 1 2 0 10041 41 7
43 1 2 0 10042 8 42
44 1 2 0 10042 42 43
45 1 2 0 10042 43 44
46 1 2 0 10042 44 14
47 1 2 0 10043 15 45
48 1 2 0 10043 45 46
49 1 2 0 10043 46 47
50 1 2 0 10043 47 48
51 1 2 0 10043 48 49
52 1 2 0 10043 49 50
53 1 2 0 10043 50 21
54 1 2 0 10044 22 51
55 1 2 0 10044 51 52
56 1 2 0 10044 52 53
57 1 2 0 10044 53 54
58 1 2 0 10044 54 55
59 1 2 0 10044 55 56
60 1 2 0 10044 56 28
61 1 2 0 10045 29 57
62 1 2 0 10045 57 58
63 1 2 0 10045 58 59
64 1 2 0 10045 59 60
65 1 2 0 10045 60 61
66 1 2 0 10045 61 62
67 1 2 0 10045 62 35
68 1 2 0 10046 7 63
69 1 2 0 10046 63 36
70 1 2 0 10047 36 64
71 1 2 0 10047 64 1
72 1 2 0 10048 14 65
73 1 2 0 10048 65 66
74 1 2 0 10048 66 37
75 1 2 0 10049 37 67
76 1 2 0 10049 67 68
77 1 2 0 10049 68 8
78 1 2 0 10050 21 69
79 1 2 0 10050 69 70
80 1 2 0 10050 70 71
81 1 2 0 10050 71 72
82 1 2 0 10050 72 38
83 1 2 0 10051 38 73
84 1 2 0 10051 73 74
85 1 2 0 10051 74 75
86 1 2 0 10051 75 76
87 1 2 0 10051 76 15
88 1 2 0 10052 28 77
89 1 2 0 10052 77 78
90 1 2 0 10052 78 79
91 1 2 0 10052 79 80
92 1 2 0 10052 80 39
93 1 2 0 10053 39 81
94 1 2 0 10053 81 82
95 1 2 0 10053 82 83
96 1 2 0 10053 83 84
97 1 2 0 10053 84 22
98 1 2 0 10054 35 85
99 1 2 0 10054 85 86
100 1 2 0 10054 86 87
101 1 2 0 10054 87 88
102 1 2 0 10054 88 40
103 1 2 0 10055 40 89
104 1 2 0 10055 89 90
105 1 2 0 10055 90 91
106 1 2 0 10055 91 92
107 1 2 0 10055 92 29
108 1 2 0 10056 1 93
109 1 2 0 10056 93 7
110 1 2 0 10057 7 94
111 1 2 0 10057 94 95
112 1 2 0 10057 95 96
113 1 2 0 10057 96 97
114 1 2 0 10057 97 98
115 1 2 0 10057 98 99
116 1 2 0 10057 99 100
117 1 2 0 10057 100 21
118 1 2 0 10058 15 101
119 1 2 0 10058 101 102
120 1 2 0 10058 102 103
121 1 2 0 10058 103 104
122 1 2 0 10058 104 105
123 1 2 0 10058 105 106
124 1 2 0 10058 106 21
125 1 2 0 10059 1 107
126 1 2 0 10059 107 108
127 1 2 0 10059 108 109
128 1 2 0 10059 109 110
129 1 2 0 10059 110 111
130 1 2 0 10059 111 112
131 1 2 0 10059 112 113
132 1 2 0 10059 113 15
133 1 2 0 10060 7 114
134 1 2 0 10060 114 36
135 1 2 0 10061 36 115
136 1 2 0 10061 115 116
137 1 2 0 10061 116 117
138 1 2 0 10061 117 118
139 1 2 0 10061 118 119
140 1 2 0 10061 119 120
141 1 2 0 10061 120 121
142 1 2 0 10061 121 38
143 1 2 0 10062 21 122
144 1 2 0 10062 122 123
145 1 2 0 10062 123 124
146 1 2 0 10062 124 125
147 1 2 0 10062 125 38
148 1 2 0 10063 36 126
149 1 2 0 10063 126 1
150 1 2 0 10064 38 127
151 1 2 0 10064 127 128
152 1 2 0 10064 128 129
153 1 2 0 10064 129 130
154 1 2 0 10064 130 15
155 1 2 0 10065 15 131
156 1 2 0 10065 131 132
157 1 2 0 10065 132 133
158 1 2 0 10065 133 134
159 1 2 0 10065 134 135
160 1 2 0 10065 135 136
161 1 2 0 10065 136 21
162 1 2 0 10066 21 137
163 1 2 0 10066 137 35
164 1 2 0 10067 29 138
165 1 2 0 10067 138 139
166 1 2 0 10067 139 140
167 1 2 0 10067 140 141
168 1 2 0 10067 141 142
169 1 2 0 10067 142 143
170 1 2 0 10067 143 35
171 1 2 0 10068 15 144
172 1 2 0 10068 144 29
173 1 2 0 10069 21 145
174 1 2 0 10069 145 146
175 1 2 0 10069 146 147
176 1 2 0 10069 147 148
177 1 2 0 10069 148 38
178 1 2 0 10070 38 149
179 1 2 0 10070 149 40
180 1 2 0 10071 35 150
181 1 2 0 10071 150 151
182 1 2 0 10071 151 152
183 1 2 0 10071 152 153
184 1 2 0 10071 153 40
185 1 2 0 10072 38 154
186 1 2 0 10072 154 155
187 1 2 0 10072 155 156
188 1 2 0 10072 156 157
189 1 2 0 10072 157 15
190 1 2 0 10073 40 158
191 1 2 0 10073 158 159
192 1 2 0 10073 159 160
193 1 2 0 10073 160 161
194 1 2 0 10073 161 29
195 2 2 0 1 185 190 108
196 2 2 0 1 113 174 101
197 2 2 0 1 163 182 178
198 2 2 0 1 113 101 15
199 2 2 0 1 182 183 178
200 2 2 0 1 175 187 179
201 2 2 0 1 179 187 165
202 2 2 0 1 108 190 176
203 2 2 0 1 177 187 167
204 2 2 0 1 178 184 163
205 2 2 0 1 113 181 174
206 2 2 0 1 1 186 107
207 2 2 0 1 174 180 171
208 2 2 0 1 93 186 1
209 2 2 0 1 174 181 180
210 2 2 0 1 112 181 113
211 2 2 0 1 167 183 177
212 2 2 0 1 172 184 178
213 2 2 0 1 167 187 175
214 2 2 0 1 179 190 169
215 2 2 0 1 180 183 182
216 2 2 0 1 165 168 110
217 2 2 0 1 186 188 173
218 2 2 0 1 168 177 164
219 2 2 0 1 176 190 179
220 2 2 0 1 109 176 165
221 2 2 0 1 108 176 109
222 2 2 0 1 100 172 99
223 2 2 0 1 111 164 112
224 2 2 0 1 111 168 164
225 2 2 0 1 109 165 110
226 2 2 0 1 110 168 111
227 2 2 0 1 99 172 162
228 2 2 0 1 97 170 96
229 2 2 0 1 177 183 180
230 2 2 0 1 99 162 98
231 2 2 0 1 166 170 97
232 2 2 0 1 98 166 97
233 2 2 0 1 162 166 98
234 2 2 0 1 96 169 95
235 2 2 0 1 96 170 169
236 2 2 0 1 162 167 166
237 2 2 0 1 104 163 105
238 2 2 0 1 95 173 94
239 2 2 0 1 166 175 170
240 2 2 0 1 169 173 95
241 2 2 0 1 167 175 166
242 2 2 0 1 102 171 103
243 2 2 0 1 176 179 165
244 2 2 0 1 101 174 102
245 2 2 0 1 162 178 167
246 2 2 0 1 170 179 169
247 2 2 0 1 185 186 173
248 2 2 0 1 173 188 94
249 2 2 0 1 180 182 171
250 2 2 0 1 177 180 164
251 2 2 0 1 165 187 168
252 2 2 0 1 164 181 112
253 2 2 0 1 172 178 162
254 2 2 0 1 175 179 170
255 2 2 0 1 178 183 167
256 2 2 0 1 163 184 105
257 2 2 0 1 102 174 171
258 2 2 0 1 94 188 7
259 2 2 0 1 21 191 100
260 2 2 0 1 105 184 106
261 2 2 0 1 106 191 21
262 2 2 0 1 104 189 163
263 2 2 0 1 107 186 185
264 2 2 0 1 171 189 103
265 2 2 0 1 168 187 177
266 2 2 0 1 163 189 182
267 2 2 0 1 107 185 108
268 2 2 0 1 180 181 164
269 2 2 0 1 182 189 171
270 2 2 0 1 100 191 172
271 2 2 0 1 103 189 104
272 2 2 0 1 7 188 93
273 2 2 0 1 169 190 173
274 2 2 0 1 173 190 185
275 2 2 0 1 93 188 186
276 2 2 0 1 172 191 184
277 2 2 0 1 184 191 106
278 2 2 0 2 200 202 195
279 2 2 0 2 192 202 200
280 2 2 0 2 7 201 94
281 2 2 0 2 197 199 193
282 2 2 0 2 193 207 197
283 2 2 0 2 100 122 21
284 2 2 0 2 202 205 195
285 2 2 0 2 196 199 96
286 2 2 0 2 98 197 192
287 2 2 0 2 198 207 193
288 2 2 0 2 100 210 122
289 2 2 0 2 96 199 97
290 2 2 0 2 99 200 100
291 2 2 0 2 97 199 197
292 2 2 0 2 95 196 96
293 2 2 0 2 97 197 98
294 2 2 0 2 98 192 99
295 2 2 0 2 116 208 115
296 2 2 0 2 120 198 119
297 2 2 0 2 192 200 99
298 2 2 0 2 121 194 120
299 2 2 0 2 194 202 198
300 2 2 0 2 119 193 118
301 2 2 0 2 194 198 120
302 2 2 0 2 203 208 116
303 2 2 0 2 119 198 193
304 2 2 0 2 95 203 196
305 2 2 0 2 194 205 202
306 2 2 0 2 123 195 124
307 2 2 0 2 199 204 193
308 2 2 0 2 200 210 100
309 2 2 0 2 193 204 118
310 2 2 0 2 118 204 117
311 2 2 0 2 196 204 199
312 2 2 0 2 115 208 201
313 2 2 0 2 94 203 95
314 2 2 0 2 195 205 124
315 2 2 0 2 204 206 117
316 2 2 0 2 38 209 121
317 2 2 0 2 125 209 38
318 2 2 0 2 123 210 195
319 2 2 0 2 202 207 198
320 2 2 0 2 124 205 125
321 2 2 0 2 197 207 192
322 2 2 0 2 203 206 196
323 2 2 0 2 195 210 200
324 2 2 0 2 196 206 204
325 2 2 0 2 117 206 116
326 2 2 0 2 192 207 202
327 2 2 0 2 114 201 7
328 2 2 0 2 116 206 203
329 2 2 0 2 121 209 194
330 2 2 0 2 122 210 123
331 2 2 0 2 94 208 203
332 2 2 0 2 201 208 94
333 2 2 0 2 194 209 205
334 2 2 0 2 205 209 125
335 2 2 0 2 36 115 114
336 2 2 0 2 115 201 114
337 2 2 0 3 126 218 115
338 2 2 0 3 129 217 130
339 2 2 0 3 221 223 212
340 2 2 0 3 214 219 213
341 2 2 0 3 215 223 221
342 2 2 0 3 213 220 214
343 2 2 0 3 130 217 113
344 2 2 0 3 218 222 115
345 2 2 0 3 215 219 214
346 2 2 0 3 107 218 1
347 2 2 0 3 214 220 110
348 2 2 0 3 115 222 116
349 2 2 0 3 113 15 130
350 2 2 0 3 112 217 211
351 2 2 0 3 117 225 216
352 2 2 0 3 216 224 117
353 2 2 0 3 113 217 112
354 2 2 0 3 211 223 215
355 2 2 0 3 211 215 214
356 2 2 0 3 112 211 111
357 2 2 0 3 1 218 126
358 2 2 0 3 211 214 111
359 2 2 0 3 109 216 108
360 2 2 0 3 111 214 110
361 2 2 0 3 129 226 217
362 2 2 0 3 219 221 120
363 2 2 0 3 216 222 108
364 2 2 0 3 118 213 119
365 2 2 0 3 110 220 109
366 2 2 0 3 127 212 128
367 2 2 0 3 119 219 120
368 2 2 0 3 107 222 218
369 2 2 0 3 217 223 211
370 2 2 0 3 120 221 121
371 2 2 0 3 117 224 118
372 2 2 0 3 213 219 119
373 2 2 0 3 109 220 216
374 2 2 0 3 121 227 38
375 2 2 0 3 38 227 127
376 2 2 0 3 216 225 222
377 2 2 0 3 108 222 107
378 2 2 0 3 215 221 219
379 2 2 0 3 212 226 128
380 2 2 0 3 118 224 213
381 2 2 0 3 213 224 220
382 2 2 0 3 223 226 212
383 2 2 0 3 128 226 129
384 2 2 0 3 116 225 117
385 2 2 0 3 221 227 121
386 2 2 0 3 127 227 212
387 2 2 0 3 217 226 223
388 2 2 0 3 220 224 216
389 2 2 0 3 212 227 221
390 2 2 0 3 222 225 116
391 2 2 0 3 36 126 115
392 2 2 0 4 21 230 136
393 2 2 0 4 35 230 137
394 2 2 0 4 143 230 35
395 2 2 0 4 142 228 143
396 2 2 0 4 142 229 228
397 2 2 0 4 141 229 142
398 2 2 0 4 141 231 229
399 2 2 0 4 140 231 141
400 2 2 0 4 139 232 140
401 2 2 0 4 140 232 231
402 2 2 0 4 136 228 135
403 2 2 0 4 139 233 232
404 2 2 0 4 135 229 134
405 2 2 0 4 133 232 132
406 2 2 0 4 138 233 139
407 2 2 0 4 134 231 133
408 2 2 0 4 229 231 134
409 2 2 0 4 132 233 131
410 2 2 0 4 228 230 143
411 2 2 0 4 228 229 135
412 2 2 0 4 232 233 132
413 2 2 0 4 231 232 133
414 2 2 0 4 136 230 228
415 2 2 0 4 15 131 144
416 2 2 0 4 137 230 21
417 2 2 0 4 138 29 144
418 2 2 0 4 131 233 144
419 2 2 0 4 144 233 138
420 2 2 0 5 21 145 137
421 2 2 0 5 38 236 148
422 2 2 0 5 145 238 137
423 2 2 0 5 153 237 236
424 2 2 0 5 137 238 35
425 2 2 0 5 35 238 150
426 2 2 0 5 150 234 151
427 2 2 0 5 236 237 148
428 2 2 0 5 234 235 151
429 2 2 0 5 151 235 152
430 2 2 0 5 235 237 152
431 2 2 0 5 152 237 153
432 2 2 0 5 146 234 145
433 2 2 0 5 146 235 234
434 2 2 0 5 149 236 38
435 2 2 0 5 147 235 146
436 2 2 0 5 147 237 235
437 2 2 0 5 148 237 147
438 2 2 0 5 150 238 234
439 2 2 0 5 234 238 145
440 2 2 0 5 40 153 149
441 2 2 0 5 153 236 149
442 2 2 0 6 29 242 144
443 2 2 0 6 149 240 40
444 2 2 0 6 144 242 15
445 2 2 0 6 38 240 149
446 2 2 0 6 40 240 158
447 2 2 0 6 161 242 29
448 2 2 0 6 154 240 38
449 2 2 0 6 15 242 157
450 2 2 0 6 155 239 154
451 2 2 0 6 241 243 156
452 2 2 0 6 157 241 156
453 2 2 0 6 155 243 239
454 2 2 0 6 156 243 155
455 2 2 0 6 160 243 241
456 2 2 0 6 158 239 159
457 2 2 0 6 160 241 161
458 2 2 0 6 159 243 160
459 2 2 0 6 239 243 159
460 2 2 0 6 239 240 154
461 2 2 0 6 157 242 241
462 2 2 0 6 158 240 239
463 2 2 0 6 241 242 161
464 2 2 0 210063 1 244 64
465 2 2 0 210063 63 244 7
466 2 2 0 210063 41 244 1
467 2 2 0 210063 7 244 41
468 2 2 0 210063 36 244 63
469 2 2 0 210063 64 244 36
470 2 2 0 210067 57 248 92
471 2 2 0 210067 85 249 62
472 2 2 0 210067 29 57 92
473 2 2 0 210067 85 62 35
474 2 2 0 210067 247 249 86
475 2 2 0 210067 247 253 251
476 2 2 0 210067 92 248 91
477 2 2 0 210067 248 250 91
478 2 2 0 210067 86 249 85
479 2 2 0 210067 245 252 251
480 2 2 0 210067 251 252 247
481 2 2 0 210067 251 254 245
482 2 2 0 210067 58 248 57
483 2 2 0 210067 62 249 61
484 2 2 0 210067 91 250 90
485 2 2 0 210067 90 250 246
486 2 2 0 210067 58 257 248
487 2 2 0 210067 249 256 61
488 2 2 0 210067 251 253 246
489 2 2 0 210067 247 252 249
490 2 2 0 210067 250 251 246
491 2 2 0 210067 250 254 251
492 2 2 0 210067 60 245 59
493 2 2 0 210067 248 257 254
494 2 2 0 210067 90 246 89
495 2 2 0 210067 87 247 86
496 2 2 0 210067 252 256 249
497 2 2 0 210067 87 253 247
498 2 2 0 210067 248 254 250
499 2 2 0 210067 88 253 87
500 2 2 0 210067 40 255 88
501 2 2 0 210067 89 255 40
502 2 2 0 210067 60 256 245
503 2 2 0 210067 245 257 59
504 2 2 0 210067 245 256 252
505 2 2 0 210067 61 256 60
506 2 2 0 210067 246 255 89
507 2 2 0 210067 59 257 58
508 2 2 0 210067 254 257 245
509 2 2 0 210067 88 255 253
510 2 2 0 210067 253 255 246
$EndElements
