$MeshFormat
2.2 0 8
$EndMeshFormat
$PhysicalNames
4
2 1 "horn_surface"
2 2 "throat_cap"
2 3 "interface_wall"
2 4 "interface_face"
$EndPhysicalNames
$Nodes
555
1 14.829629 1.110223024625157e-16 -100
2 59.31851666666667 4.440892098500626e-16 0
3 -59.31851666666667 -4.440892098500626e-16 0
4 -14.829629 -1.110223024625157e-16 -100
5 14.829629 1.110223024625157e-16 -100
6 -14.829629 -1.110223024625157e-16 -100
7 59.31851666666667 4.440892098500626e-16 0
8 -59.31851666666667 -4.440892098500626e-16 0
9 -59.31851666666667 -4.440892098500626e-16 20
10 59.31851666666667 4.440892098500626e-16 20
11 59.31851666666667 4.440892098500626e-16 20
12 -59.31851666666667 -4.440892098500626e-16 20
13 17.45059226568047 0 -92.63982449264495
14 20.16256711306012 0 -85.2969005756965
15 22.9605094087899 0 -77.98630177033942
16 25.84421424494205 0 -70.7091059013096
17 28.81342762303948 0 -63.4663783006159
18 31.86784655767789 0 -56.25916978329838
19 35.0071194649603 0 -49.08851469820286
20 38.23084678866532 0 -41.95542907315465
21 41.53858150108572 0 -34.8609086740321
22 44.92983003569451 0 -27.80592725211682
23 48.40405316880168 0 -20.79143478581421
24 51.960667070547 0 -13.81835580217506
25 55.59904459121672 0 -6.887587838545498
26 58.8103067646438 7.742523763769332 0
27 57.29728737178758 15.35276185648678 0
28 54.80248148881195 22.69993104278867 0
29 51.37134222770614 29.65925822760984 0
30 47.05995761383087 36.11037551643764 0
31 41.9445253333333 41.94452533333336 0
32 36.11037551643759 47.0599576138309 0
33 29.65925822760979 51.37134222770618 0
34 22.69993104278859 54.80248148881198 0
35 15.35276185648666 57.29728737178762 0
36 7.742523763769245 58.8103067646438 0
37 -1.019831841198027e-13 59.31851666666667 0
38 -7.742523763769468 58.81030676464377 0
39 -15.35276185648687 57.29728737178755 0
40 -22.69993104278875 54.80248148881192 0
41 -29.65925822760995 51.37134222770609 0
42 -36.11037551643777 47.05995761383076 0
43 -41.94452533333348 41.94452533333318 0
44 -47.05995761383107 36.11037551643737 0
45 -51.37134222770633 29.65925822760955 0
46 -54.80248148881205 22.69993104278844 0
47 -57.29728737178762 15.35276185648668 0
48 -58.8103067646438 7.742523763769224 0
49 -17.45059226568046 0 -92.63982449264492
50 -20.1625671130601 0 -85.2969005756965
51 -22.96050940878989 0 -77.98630177033942
52 -25.84421424494204 0 -70.7091059013096
53 -28.81342762303946 0 -63.46637830061589
54 -31.86784655767787 0 -56.25916978329838
55 -35.00711946496029 0 -49.08851469820286
56 -38.23084678866531 0 -41.95542907315466
57 -41.53858150108572 0 -34.86090867403209
58 -44.92983003569449 0 -27.80592725211677
59 -48.40405316880169 0 -20.79143478581416
60 -51.96066707054701 0 -13.81835580217506
61 -55.59904459121674 0 -6.887587838545498
62 12.84283496319329 7.414815596443247 -100
63 7.414815596443318 12.84283496319324 -100
64 7.781965738473675e-14 14.829629 -100
65 -7.414815596443184 12.84283496319332 -100
66 -12.84283496319328 7.414815596443264 -100
67 11.12222175000002 0 -100
68 7.414814500000006 0 -100
69 3.707407249999989 0 -100
70 0 0 -100
71 -3.707407249999989 0 -100
72 -7.414814500000006 0 -100
73 -11.12222175000002 0 -100
74 14.32432156373172 3.838190428816657 -100
75 12.84283553133237 7.414814612397392 -100
76 10.48613149999999 10.4861315 -100
77 7.414814612397382 12.84283553133238 -100
78 3.838190428816662 14.32432156373172 -100
79 3.33066907387547e-16 14.829629 -100
80 -3.838190428816655 14.32432156373172 -100
81 -7.414814612397383 12.84283553133238 -99.99999999999999
82 -10.48613150000001 10.48613149999999 -100
83 -12.84283553133238 7.414814612397382 -100
84 -14.32432156373172 3.838190428816647 -100
85 58.81030676464379 7.742523763769341 0
86 57.29728737178758 15.35276185648677 0
87 54.80248148881195 22.69993104278866 0
88 51.37134222770616 29.65925822760984 0
89 47.05995761383087 36.11037551643763 0
90 41.94452533333332 41.94452533333335 0
91 36.11037551643757 47.05995761383092 0
92 29.65925822760978 51.37134222770618 0
93 22.69993104278858 54.80248148881198 0
94 15.35276185648666 57.29728737178762 0
95 7.74252376376926 58.8103067646438 0
96 -1.096110295861763e-13 59.31851666666667 0
97 -7.742523763769451 58.81030676464378 0
98 -15.35276185648688 57.29728737178755 0
99 -22.69993104278876 54.80248148881191 0
100 -29.65925822760995 51.37134222770609 0
101 -36.11037551643773 47.05995761383079 0
102 -41.94452533333347 41.94452533333319 0
103 -47.05995761383105 36.1103755164374 0
104 -51.3713422277063 29.65925822760959 0
105 -54.80248148881202 22.69993104278851 0
106 -57.2972873717876 15.35276185648669 0
107 -58.8103067646438 7.742523763769231 0
108 -59.31851666666665 0 13.33333333333333
109 -59.31851666666665 0 6.666666666666664
110 58.81030676464379 7.742523763769341 20
111 57.29728737178758 15.35276185648677 20
112 54.80248148881195 22.69993104278866 20
113 51.37134222770616 29.65925822760984 20
114 47.05995761383087 36.11037551643763 20
115 41.94452533333332 41.94452533333335 20
116 36.11037551643757 47.05995761383092 20
117 29.65925822760978 51.37134222770618 20
118 22.69993104278858 54.80248148881198 20
119 15.35276185648666 57.29728737178762 20
120 7.74252376376926 58.8103067646438 20
121 -1.096110295861763e-13 59.31851666666667 20
122 -7.742523763769451 58.81030676464378 20
123 -15.35276185648688 57.29728737178755 20
124 -22.69993104278876 54.80248148881191 20
125 -29.65925822760995 51.37134222770609 20
126 -36.11037551643773 47.05995761383079 20
127 -41.94452533333347 41.94452533333319 20
128 -47.05995761383105 36.1103755164374 20
129 -51.3713422277063 29.65925822760959 20
130 -54.80248148881202 22.69993104278851 20
131 -57.2972873717876 15.35276185648669 20
132 -58.8103067646438 7.742523763769231 20
133 59.31851666666665 0 13.33333333333333
134 59.31851666666665 0 6.666666666666664
135 58.81030676464379 7.742523763769341 20
136 57.29728737178758 15.35276185648677 20
137 54.80248148881195 22.69993104278866 20
138 51.37134222770616 29.65925822760984 20
139 47.05995761383087 36.11037551643763 20
140 41.94452533333332 41.94452533333335 20
141 36.11037551643757 47.05995761383092 20
142 29.65925822760978 51.37134222770618 20
143 22.69993104278858 54.80248148881198 20
144 15.35276185648666 57.29728737178762 20
145 7.74252376376926 58.8103067646438 20
146 -1.096110295861763e-13 59.31851666666667 20
147 -7.742523763769451 58.81030676464378 20
148 -15.35276185648688 57.29728737178755 20
149 -22.69993104278876 54.80248148881191 20
150 -29.65925822760995 51.37134222770609 20
151 -36.11037551643773 47.05995761383079 20
152 -41.94452533333347 41.94452533333319 20
153 -47.05995761383105 36.1103755164374 20
154 -51.3713422277063 29.65925822760959 20
155 -54.80248148881202 22.69993104278851 20
156 -57.2972873717876 15.35276185648669 20
157 -58.8103067646438 7.742523763769231 20
158 -51.40938111047095 0 20.00000000000002
159 -43.50024555512973 0 19.99999999999999
160 -35.59110999969556 0 20
161 -27.68197444446265 0 20.00000000000002
162 -19.77283888926664 0 20.00000000000001
163 -11.86370333367485 0 19.99999999999999
164 -3.954567778068817 0 19.99999999999998
165 3.954567777808119 0 20
166 11.86370333380246 0 20
167 19.77283888984472 0 20.00000000000001
168 27.68197444549885 0 20.00000000000001
169 35.59111000160112 0 20.00000000000001
170 43.50024555673673 0 20.00000000000002
171 51.4093811123831 0 20
172 3.730089743533103 55.83436435433639 -6.212098233489614
173 27.13796853485877 6.042295814268568 -65.90488900123745
174 -26.59999231315345 6.733092287670956 -66.78895305205187
175 36.15091602172239 7.010823802982443 -45.03915252828163
176 -36.25099928001308 6.273449326881112 -45.11542594780593
177 -24.8007412805523 50.09623542427855 -6.324013568776254
178 31.2076189038517 46.84328432260047 -5.598572470260615
179 -42.1966539025189 37.07627101188585 -5.814639775828688
180 46.5877884307566 31.24933281572548 -5.952283185843488
181 4.397648616716554 16.41224554488637 -93.91043246639629
182 -46.49300798380635 6.492520266671163 -23.71256225633165
183 -20.99648231805027 7.144028588134915 -80.00322825810767
184 42.85629126312671 6.397066506476447 -31.10421918550736
185 20.41370096760901 7.984154551720234 -80.6756058851137
186 49.80862249369787 6.766016657355575 -17.11427068766622
187 -50.52036398092553 24.76268620684244 -5.643518386426514
188 -10.77031841732789 54.98988722531985 -6.070009970079512
189 18.02995118000619 53.11551399596307 -5.962413957882532
190 -11.44303681075507 12.45648556270374 -94.1226499770967
191 53.01560042794137 17.74498417148475 -6.310166232670836
192 -53.47813981399136 6.488810145190317 -10.15464327109593
193 54.66803455830038 10.42888467910742 -6.78376168710786
194 -4.397648616716376 16.41224554488641 -93.91043246639629
195 1.009964556453558e-13 19.20701683124994 -87.85406903983366
196 8.036651764536671 17.7675368516684 -87.06444627070584
197 3.647197665484904 21.41897323628679 -81.17631871660269
198 -4.504591869804552 21.22044211428323 -81.26525954393269
199 -0.5611317612478335 23.98850975099673 -75.34656229811955
200 7.129219980042254 23.18858007025313 -74.67639352137904
201 3.043877506650713 26.40285362813714 -68.89627996591635
202 -4.241956941914299 26.19184595988158 -69.00608474055267
203 -1.112294546178486 29.06416061678347 -62.81461975522217
204 6.762848808792944 28.59387502588577 -62.10476957608394
205 2.480773463994148 31.66151563520343 -56.51237863457245
206 -5.286362326305992 31.26505294650716 -56.62786375672604
207 -1.694932787982424 34.33348965654724 -50.51296356912616
208 6.066665966910559 34.05132106351906 -50.03297859318781
209 1.918902657430597 37.14711392002216 -44.21904642659469
210 -5.847625406141445 36.6692916467772 -44.35941589698908
211 9.619466444835771 36.28186642183281 -43.47533248547839
212 -2.256480132884389 39.88199387914715 -38.24942127777999
213 -9.953651167584125 38.76208948860438 -38.09153708202707
214 -13.16514927236328 35.10831866734586 -43.56192842975169
215 -17.34534752174021 36.44498882819266 -37.35854468958962
216 13.58116755723724 32.35298967641009 -48.90591205403415
217 16.98979203599224 34.15333352481545 -42.14018969170787
218 13.1486513000032 38.40473330940802 -36.865680289509
219 20.37643199970348 35.92870723681297 -35.3556073854258
220 -14.01965921924542 40.67778700529554 -31.73966864161168
221 -21.24111044390749 38.00475782537737 -30.67589941524913
222 -24.21936125983619 33.08693887521403 -35.99191276596598
223 -27.93406410004155 34.24596793216481 -29.31797000360042
224 16.6606562466465 40.45864065049381 -30.22530809628798
225 23.7376438688565 37.74570295459508 -28.50434749735064
226 27.05120084072038 32.5108123913743 -33.27141583475225
227 20.56782920502832 29.38773900852004 -47.15575986120723
228 30.29221392806389 34.17586798164898 -26.2965233286635
229 -30.42935485499972 28.75716423107397 -34.16623001891081
230 -26.87574921822146 27.4657831880209 -41.52736261808978
231 -33.98457404034142 29.80328135455164 -27.24895112952993
232 33.07590120463921 28.27261983714073 -30.72735664028525
233 -18.04830056654669 42.46848598061256 -25.32865069227405
234 -10.59221754811028 44.59413269597488 -25.95840428604999
235 -35.86979865203614 23.67010551856846 -31.8444323902718
236 -39.29239037202598 24.59439369523725 -24.9032470805607
237 -31.6435310606986 35.43925950919242 -22.57510276743584
238 36.23978938144852 29.76254883495305 -23.81190003975292
239 20.1249292613572 42.51776710534865 -23.51963107084766
240 12.78253372400159 44.57149292277474 -24.87647375902332
241 33.59134612840314 35.71600121554261 -19.54776136404809
242 38.48368532430146 23.50336273407481 -27.47111492550447
243 41.52437545479612 24.90469359731407 -20.75920959211285
244 35.12627693710039 22.66405325363104 -34.302069359618
245 -14.718018865136 46.68551583200005 -19.70628701691216
246 -7.137510388517097 48.31254510603075 -19.93062498139319
247 -2.895577840417082 45.69351965837154 -26.05894681388914
248 0.6406329201849992 48.85069669641203 -19.89614466891959
249 17.31606099530681 27.87369381390377 -54.0723651353328
250 23.73785534404949 24.06590706873427 -51.81140246343996
251 20.65830075214665 22.75387019365165 -58.9096019837777
252 26.27755946256981 18.07790140427167 -56.19441327327848
253 -21.90538728108279 44.21965656921795 -18.92022361813591
254 29.16941856205768 19.37444336105739 -49.06470213409763
255 42.9410306692158 18.69126578039587 -23.93729475736297
256 46.13284224422658 19.61788502404113 -17.37936868645575
257 16.38137231510098 46.84809009976829 -18.36492762892903
258 -40.40498767790928 18.37096981324675 -28.92348629082007
259 -43.79883176802884 19.31192980402158 -21.86035168236551
260 -42.77063814449149 25.54906969535841 -17.98993723103909
261 -37.07865299568753 17.72781674463556 -35.7911611583628
262 23.64513390314306 44.47603206990411 -16.91029486078914
263 -3.80544058303838 51.58644690162212 -14.27024919679898
264 -47.14448945392453 20.05945834431455 -15.22428331476397
265 30.49976205776862 12.37880380756333 -53.83807485220082
266 23.20457974636663 17.3744481014669 -63.04633215962654
267 17.59525075159771 21.52486646332857 -65.90726681006799
268 20.25432236548754 16.21157851567019 -70.46276520634095
269 -40.63447684496519 12.17333671089789 -33.0090551056927
270 12.24641407504692 12.22403615316684 -93.04654317024197
271 14.81892349419354 13.54540120452229 -85.52487990352343
272 11.30121566909757 19.111811882595 -79.93999391204432
273 -9.597316068936319 16.81128907730589 -87.44818158000679
274 -11.96502447683072 18.88428511440228 -79.54472575315565
275 -18.81241693897203 48.6668449515291 -13.40080473629385
276 -18.09535726801012 6.48451003716443 -87.81285839887782
277 45.24363915179526 26.42603141400688 -12.97891145095183
278 50.81329101655444 13.07449503290792 -12.83916658877801
279 17.41408885640485 14.95164596275903 -78.00721184426283
280 4.242895118824315 51.93164633769848 -13.53929630308304
281 27.40509445985773 12.00921155037433 -60.82488627902444
282 -47.5349924753055 13.0357412103986 -19.03532412374541
283 -16.22208647689651 13.20830544788143 -83.29360500805274
284 -18.2779542944875 14.87783218950924 -76.43254532072258
285 -13.74354652586472 20.80871418856484 -72.96961632455746
286 -19.76901221286636 17.51773913977352 -69.30048043922712
287 -15.62571962314209 23.12786771027723 -65.63991459989319
288 -21.6792398538286 19.88427697502214 -62.02243384891754
289 -17.54760584374247 25.40308395292918 -58.57655223094548
290 -23.65432886718753 22.19135059143887 -54.94795017277215
291 -26.47267407116216 16.54410375957344 -57.77469734967893
292 -29.66244725244261 17.80792970606506 -50.01128180027682
293 -19.90895643285717 27.22553570119259 -51.98098324363876
294 -30.56725264701519 11.53355633669361 -54.40222304933258
295 -9.819481960372656 27.53459476687571 -62.4612376915173
296 -22.77694554201446 10.46577778403709 -72.64698000869249
297 8.557383191983169 48.47103552469522 -19.17146092292055
298 12.47962721409091 50.88502883377803 -12.98422441971428
299 14.25179900882767 20.41124537586624 -73.07785358784716
300 10.68272660391819 24.93041968556718 -67.5595888699509
301 14.07368649605966 26.40404580074031 -60.82626373182595
302 -26.35906851370175 45.38700061959413 -12.80531749504959
303 -31.07604807053262 46.48366972125971 -6.294784464005032
304 -32.29271182081608 41.92291533316538 -11.97353485361932
305 5.053710436636085 45.72617504324355 -25.61254209052944
306 1.412676255867054 42.88782686760935 -31.97966027518854
307 24.09335659396301 6.424882366976192 -72.97597323377445
308 39.44221772497302 31.15010427343805 -17.12716444377048
309 36.9524771690151 37.75811152220568 -12.14147154628384
310 30.41156268328211 41.45295835004467 -14.87944774418699
311 27.18465917553897 39.59232737427595 -21.54262995878434
312 -37.7006922715087 30.566685694595 -20.52958950598459
313 -41.34965590024751 32.3219419945275 -12.80917686058969
314 5.508160478030918 39.76662822696752 -37.81946967489868
315 -30.08954518095238 5.794866101917592 -59.1216418235407
316 46.36522629609688 6.358870055143284 -24.00457328774974
317 -6.425371838601169 42.35406829918701 -32.12991303931385
318 39.4056721302377 6.758909784883723 -38.1732860276453
319 36.27676475740539 13.33111859185247 -41.04615723664529
320 39.65511898813492 13.22895104429024 -34.30145337046243
321 -8.902926134331089 33.45116915121945 -49.97026195416463
322 -12.85049224797847 29.78142416749085 -54.94418693362479
323 9.154245704707755 42.2232864365827 -31.36871041283571
324 10.14582958907191 30.52279020665043 -55.57029484620893
325 -39.71215660134948 6.100012354132613 -37.75185253748748
326 -25.33888857003764 39.19104675375782 -24.268045389947
327 23.81041542699715 30.9505806853443 -40.1777079986423
328 26.71871340242107 25.50592269154863 -44.78832056378585
329 32.90633961174031 19.80679258008067 -41.57087162651341
330 -11.56471060210958 50.52305713825442 -14.07120644907432
331 19.68966240068316 49.08858281375457 -12.02754019277381
332 29.94849989812871 26.77870848510723 -37.75913499755512
333 -32.60289586452322 22.82570761075541 -38.56385092315384
334 -33.83069819060923 16.76588999822144 -42.98881983295455
335 -20.05473886168034 32.29629567274675 -42.42294734406294
336 -50.98282665421667 14.07342884957721 -12.02988841469795
337 17.64052373901472 6.963255681166483 -88.50595314711732
338 -25.76263553677612 24.20153324145258 -48.32505233619271
339 -17.93537251256314 52.44524384341402 -7.209654038653798
340 37.02013149651707 42.21289451007338 -5.86105785633929
341 24.63778077067011 50.56335794390284 -5.673784809452997
342 11.06681663458775 55.04787009673221 -5.855696104738644
343 50.35662753940575 24.83348954894446 -5.859833243731533
344 -3.944734858987923 56.10804299043889 -5.673784796964689
345 -53.34630393360064 17.82642631267991 -5.674986954047869
346 -46.6847465706668 31.19337378173401 -5.859833211597756
347 42.14718340359022 37.10210193555386 -5.852219112182974
348 -24.5410689511616 13.80759396718526 -65.04262094943718
349 -46.49253173868168 25.90333501710085 -11.39385866849462
350 47.02187313177888 12.89657497947796 -20.08758085524466
351 -49.86997206068602 6.169173233120731 -17.14556199000567
352 -35.79134186001708 35.9968781309834 -16.14560056937268
353 -37.19020917397807 42.30138386721004 -5.527081507959689
354 33.06210687902343 6.361862187795589 -52.11714847034166
355 -7.641990492791608 22.94429476044051 -74.86908491263996
356 49.19907384316237 20.48354305519239 -11.25643393214932
357 -55.32097908104116 11.2303187687344 -5.295184841819076
358 27.18987260243972 46.03846383268343 -10.9229049078481
359 -44.05512719484913 13.06401186473724 -25.72171588706628
360 -28.04777520920115 41.00463951295505 -18.26646148812444
361 42.10587270777035 32.74151597381638 -11.17061516757074
362 43.40591948164737 12.80248010424086 -27.14121318449559
363 33.36028074355934 13.3402460056968 -47.02536118185576
364 30.07003253663739 6.071616320899845 -59.04081854526298
365 -42.99618219152045 5.594864579197576 -31.04688697366828
366 -37.67716435031598 38.17875074760179 -10.59589686497843
367 -30.07632350959232 21.81604203701671 -44.30924113361672
368 -15.701970485215 6.582237354653957 -93.81389739100788
369 15.74058562127013 5.577264278093559 -94.72116018306858
370 -33.14369680319262 5.889779750122647 -52.12993928479396
371 39.60995953676452 18.38147372825419 -30.40682289277658
372 -33.58972784152876 11.94067533531539 -47.6495392396852
373 -37.26163356484415 11.71992951739257 -40.15321536846191
374 -16.10737875767559 31.35505210869223 -48.542049107354
375 -10.60498226719502 24.30361452323566 -69.04666599267325
376 24.32320443998795 11.70600055057874 -67.87620315021354
377 -50.01044473866757 20.40966739374275 -9.879857259294589
378 -0.9455973753252633 53.96463853473676 -9.960692745441108
379 53.02095433680311 6.488526867565222 -11.02006905509719
380 21.18519732347684 11.81376326519745 -74.68478751820834
381 -56.47060058631284 5.423090543028222 -4.77091862466632
382 -6.868200110167695 53.29137756718833 -10.41786443578129
383 32.94395807360936 42.81700650331928 -9.86223257508199
384 -14.7573230855956 11.51121479510566 -89.1801520425475
385 56.47443953453379 4.969111514703916 -4.841342952080572
386 7.920092204792914 53.3950737449108 -9.94745971575442
387 -27.67596673440345 11.17003556643265 -61.00462763408408
388 -24.13004657349123 4.729053907704825 -73.84536504033596
389 36.7224709049865 17.22048289261334 -36.9370589283472
390 -22.11664539234602 28.45644877665338 -46.77648540041695
391 -1.849429649495957 3.216153673614865 -100
392 7.156470940464101 9.048797130076924 -100
393 -1.120268109636854 11.84994492105599 -100
394 -9.679101121636723 6.908623517419969 -100
395 5.499277148206716 3.162524376567795 -100
396 10.53510723823322 4.541052378468976 -100
397 -5.395702107009088 3.123445846064406 -100
398 -3.93180643316255 6.865875625370425 -100
399 -0.01491875296442746 6.306462944258964 -100
400 1.84507523163647 3.18514986807482 -100
401 -8.612357673673888 3.45149679468398 -100
402 4.015570277969718 6.938766056421912 -100
403 1.232681752654428 9.558792475045756 -100
404 9.630338095479164 7.450793887155559 -100
405 -7.099939474675063 9.035621585462721 -100
406 -4.205032682550765 10.56939641660043 -100
407 4.353557974920741 10.97875104933112 -100
408 7.172761219444983 5.824680619857837 -100
409 -11.31616752807494 4.322625070663591 -100
410 8.284560046703437 2.642620399298778 -100
411 1.660832409350996 12.30828780183292 -100
412 -6.943781362031464 5.877012673800301 -100
413 -1.607868845132034 9.030094476466314 -100
414 -59.03092931518474 5.827411722110446 9.996139489178264
415 59.03092931518451 5.827411722112888 9.996263615628937
416 -56.1701020210262 19.06716755297363 6.718451827080901
417 -19.81692676739065 55.90987252333039 6.679722638703151
418 56.17010202102615 19.06716755297375 6.718451827080979
419 19.06716755297365 56.17010202102618 6.718451827081002
420 -49.32120588666727 32.95536160821457 6.71845183074726
421 49.32120588666713 32.95536160821481 6.718451830747282
422 34.16591084191869 48.49026204998127 13.27587987956826
423 -32.95536160821492 49.32120588666704 13.28154816925269
424 5.341516426220478 59.0769263553605 6.724091027242679
425 -53.20078337661396 26.23573641830147 13.28154817088535
426 53.20078337661387 26.23573641830166 13.28154817088527
427 44.59770237344731 39.11115135544468 13.28154816958728
428 -44.59770237344748 39.11115135544448 13.28154816958723
429 39.11115135544463 44.59770237344735 6.718451830412733
430 -39.11115135544478 44.59770237344722 6.718451830412757
431 10.22959046270831 58.42920338480236 13.31204405578382
432 -3.879577431938344 59.1910982356191 13.28154816789561
433 26.2357364183016 53.2007833766139 6.71845182911475
434 -26.23572012243299 53.20079140995769 6.718462318249533
435 -11.57239949404341 58.17831910664472 13.28154817109053
436 -58.08255797697937 12.04416772738932 6.441526000309228
437 -58.1062551809302 11.92923270232062 13.67675347153722
438 58.08255797697822 12.04416772739489 6.441526000307175
439 58.10625518092986 11.92923270232228 13.67675347153576
440 22.69995743909683 54.80247055509491 12.9410481198645
441 -7.742552091474479 58.81030303522419 7.058951880214317
442 -56.1701020210262 19.06716755297363 13.92798570136388
443 -19.55049463466537 56.00363362995284 13.84423148001792
444 56.17010202102615 19.06716755297375 13.92798570136389
445 11.5723994940432 58.17831910664478 6.072014296684373
446 -53.20078337661396 26.23573641830147 6.072014297596844
447 53.20078337661387 26.23573641830166 6.07201429759664
448 -49.32120588666727 32.95536160821457 13.92798570381524
449 49.32120588666713 32.9553616082148 13.92798570381521
450 32.95536160821474 49.32120588666717 6.072014296184729
451 -32.95536160821492 49.32120588666704 6.072014296184746
452 39.31551245720848 44.41770315671776 13.87448927792045
453 -39.11115135544478 44.59770237344722 13.92798570351772
454 44.59770237344732 39.11115135544467 6.072014296482227
455 -44.59770237344748 39.11115135544448 6.072014296482039
456 3.879577431938123 59.19109823561913 13.92798570474734
457 -26.23573641830178 53.20078337661382 13.92799139631807
458 27.91293556162818 52.34058546495968 14.3668586331324
459 -1.998916909043715 59.28467910841629 5.634202359361874
460 -13.4150850742159 57.78152285763766 5.633141362942558
461 17.27480950241979 56.74724501297115 14.36579764797152
462 59.10624729911692 5.007099205157571 15.34942159785971
463 59.08045076173065 5.302439496763167 4.793889154427788
464 -59.10614258863093 5.008333374169281 15.34897126843596
465 -59.08051966762098 5.301672616676443 4.793503587694046
466 -3.7037150368113 53.06659005271874 20
467 24.10186373138955 46.73464684598441 20
468 -15.81827111147074 6.84951231294586 20.00000000000001
469 7.85524309993714 6.875561282754939 20.00000000000002
470 -24.38784839709808 46.74796813439018 20
471 39.21232877057255 34.9268228559289 20
472 -39.29345951926216 34.85437793461807 20.00000000000001
473 23.6721143187695 6.866670608349673 20.00000000000001
474 -31.64763513061652 6.84337551933724 20.00000000000002
475 39.33036198961068 6.716888379508539 20
476 10.12615952200698 52.00029908364662 20
477 -47.14375990841058 22.81304899806654 20
478 47.13497738387187 22.95031860002691 20
479 -47.45536120860213 6.00504734252146 20
480 51.54506182945639 10.46399242162956 20.00000000000002
481 -39.54601831036267 6.695345054058924 20
482 -35.6032100129143 13.6333240726525 20.00000000000001
483 -27.72908584817176 13.66873818136288 20.00000000000002
484 -31.67050121635233 20.46089939606816 20.00000000000001
485 -23.82013120240835 20.48074114631741 20.00000000000002
486 -27.74666048422085 27.26262202779536 20.00000000000002
487 -19.91055396144451 27.27841768741889 20.00000000000002
488 -15.9782443303784 20.50184874937516 20.00000000000001
489 -12.07281664875731 27.29867495743365 20
490 -8.0990621353048 20.51721088125122 20.00000000000001
491 -4.232481174284449 27.32556076762681 20
492 -8.175657741280398 34.09019135211193 20.00000000000001
493 -0.3479233211632362 34.11396829326125 20.00000000000001
494 3.591553006206016 27.35662151411185 20
495 7.47737250956536 34.14045972626666 20.00000000000001
496 11.41594916497677 27.38341218523371 19.99999999999999
497 15.256651141956 34.14515003499881 20
498 19.35330587578459 27.36842988093004 20.00000000000001
499 15.40035981184085 20.62304210445927 20.00000000000001
500 23.38745291807629 20.58784185930095 19.99999999999998
501 23.21224387141971 34.10814706557618 20
502 3.734666291419463 40.49422385006392 20
503 -23.83550119850694 33.96524725308367 20.00000000000001
504 -35.71772152676694 27.78780516045279 20.00000000000001
505 19.45727340493614 13.79527801246375 20
506 -43.90083458930835 13.71534810815098 20
507 -39.73754529086879 21.34494628306657 20.00000000000002
508 -23.75507842063338 6.844274817785672 20.00000000000001
509 31.52655118325166 6.857066472832796 20.00000000000001
510 35.46711420353905 13.67523413606482 20.00000000000001
511 44.24862804448588 13.93453428523194 20
512 39.63751409644088 20.89513518845673 20
513 31.6803929441055 20.45632631978894 20
514 35.62931315029623 27.94158645462525 20.00000000000001
515 27.390400264551 27.48965609176414 20
516 31.25461873457006 34.20138150646342 19.99999999999999
517 27.46347420638137 13.75980405461537 20
518 11.48392570500014 40.46649565904804 20.00000000000001
519 -16.0068652354668 33.97758267529106 20.00000000000001
520 -12.05791833640939 40.61788284982732 20
521 -4.046442271757538 40.55579111411556 20.00000000000001
522 -31.65506762663968 34.03609641231598 20.00000000000001
523 -7.944050152838089 6.85085163953477 20.00000000000001
524 -0.01745997970889279 6.848571190151913 20.00000000000001
525 3.786720861301811 13.74980441524362 20
526 -4.102169692252708 13.71120875307018 20.00000000000001
527 -19.87217503300134 13.69472265714132 20.00000000000001
528 -11.99025317354186 13.69851274639074 20
529 -27.58528763691876 40.16404669232241 20.00000000000001
530 -0.2850367300708108 20.56735837627765 20.00000000000001
531 15.73339873077528 6.862703968091227 20.00000000000001
532 7.588200609042076 20.59750992490853 19.99999999999999
533 11.636866171078 13.75064992946094 20.00000000000001
534 19.50267432799753 40.57035621707364 20
535 -19.94032718479893 40.38050473653362 20.00000000000001
536 27.27305903991738 40.19994309299553 20.00000000000001
537 -50.13435330552869 16.61632844907595 20.00000000000002
538 -8.21884068486014 46.94516862269491 20
539 -16.17094526156462 48.53881864255171 20
540 16.00954000667194 47.59240817066938 20
541 -34.52452513675165 40.63227768265814 20.00000000000002
542 3.553444990981415 53.11891677686317 19.99999999999999
543 -43.38729499670844 28.76163360306913 20.00000000000002
544 34.60027319757655 40.48930344008347 20
545 43.34090482618621 28.74724895092001 20
546 51.00568081146588 17.08030609610281 20.00000000000001
547 0.2793320934339532 46.86737769976993 20
548 46.9898691657021 6.060955558042235 20
549 -52.19341753337036 10.67726245571845 20
550 -10.23775731412384 52.93163397274505 20
551 7.458257945370819 46.07668068183216 20
552 30.34896431009833 45.17103565944209 20.00000000000001
553 -30.45345603355189 45.19511327920902 20.00000000000001
554 53.81794869242295 5.106158487251403 20.00000000000001
555 -53.91669491954951 5.011769615507372 20.00000000000002
$EndNodes
$Elements
931
1 2 2 1 1 27 193 191
2 2 2 1 1 296 348 286
3 2 2 1 1 26 193 27
4 2 2 1 1 271 279 185
5 2 2 1 1 195 273 198
6 2 2 1 1 196 271 270
7 2 2 1 1 196 270 181
8 2 2 1 1 180 343 277
9 2 2 1 1 183 296 284
10 2 2 1 1 289 295 287
11 2 2 1 1 185 337 271
12 2 2 1 1 313 346 179
13 2 2 1 1 354 363 175
14 2 2 1 1 183 284 283
15 2 2 1 1 330 339 188
16 2 2 1 1 194 273 195
17 2 2 1 1 174 348 296
18 2 2 1 1 193 278 191
19 2 2 1 1 284 296 286
20 2 2 1 1 265 363 354
21 2 2 1 1 273 274 198
22 2 2 1 1 354 364 265
23 2 2 1 1 271 337 270
24 2 2 1 1 265 364 281
25 2 2 1 1 39 339 40
26 2 2 1 1 275 302 177
27 2 2 1 1 343 356 277
28 2 2 1 1 289 322 295
29 2 2 1 1 298 342 189
30 2 2 1 1 336 351 192
31 2 2 1 1 272 279 271
32 2 2 1 1 352 360 237
33 2 2 1 1 196 272 271
34 2 2 1 1 273 283 274
35 2 2 1 1 279 299 268
36 2 2 1 1 177 339 275
37 2 2 1 1 359 365 182
38 2 2 1 1 188 382 330
39 2 2 1 1 313 349 346
40 2 2 1 1 275 339 330
41 2 2 1 1 269 365 359
42 2 2 1 1 194 195 181
43 2 2 1 1 190 273 194
44 2 2 1 1 282 351 336
45 2 2 1 1 292 372 334
46 2 2 1 1 41 303 42
47 2 2 1 1 179 366 313
48 2 2 1 1 304 360 352
49 2 2 1 1 188 339 39
50 2 2 1 1 337 369 270
51 2 2 1 1 189 331 298
52 2 2 1 1 340 347 309
53 2 2 1 1 64 194 181
54 2 2 1 1 190 194 65
55 2 2 1 1 181 270 63
56 2 2 1 1 277 361 180
57 2 2 1 1 278 350 256
58 2 2 1 1 177 303 41
59 2 2 1 1 272 299 279
60 2 2 1 1 40 339 177
61 2 2 1 1 334 367 292
62 2 2 1 1 280 298 297
63 2 2 1 1 283 284 274
64 2 2 1 1 280 297 248
65 2 2 1 1 268 299 267
66 2 2 1 1 186 350 278
67 2 2 1 1 304 353 303
68 2 2 1 1 297 305 248
69 2 2 1 1 201 300 200
70 2 2 1 1 204 300 201
71 2 2 1 1 204 324 301
72 2 2 1 1 307 380 376
73 2 2 1 1 225 311 228
74 2 2 1 1 233 326 253
75 2 2 1 1 301 324 249
76 2 2 1 1 336 357 345
77 2 2 1 1 248 305 247
78 2 2 1 1 195 196 181
79 2 2 1 1 192 357 336
80 2 2 1 1 305 306 247
81 2 2 1 1 239 311 225
82 2 2 1 1 306 323 314
83 2 2 1 1 279 380 185
84 2 2 1 1 193 385 379
85 2 2 1 1 221 326 233
86 2 2 1 1 246 330 263
87 2 2 1 1 231 312 237
88 2 2 1 1 228 311 241
89 2 2 1 1 306 314 212
90 2 2 1 1 328 329 254
91 2 2 1 1 182 351 282
92 2 2 1 1 302 303 177
93 2 2 1 1 314 323 218
94 2 2 1 1 284 285 274
95 2 2 1 1 204 301 300
96 2 2 1 1 212 317 306
97 2 2 1 1 250 328 254
98 2 2 1 1 296 388 174
99 2 2 1 1 310 311 262
100 2 2 1 1 379 385 25
101 2 2 1 1 306 317 247
102 2 2 1 1 319 363 329
103 2 2 1 1 183 276 50
104 2 2 1 1 183 283 276
105 2 2 1 1 305 323 306
106 2 2 1 1 185 307 15
107 2 2 1 1 14 337 185
108 2 2 1 1 329 332 244
109 2 2 1 1 51 183 50
110 2 2 1 1 50 276 49
111 2 2 1 1 195 197 196
112 2 2 1 1 213 317 212
113 2 2 1 1 302 304 303
114 2 2 1 1 175 319 318
115 2 2 1 1 184 316 22
116 2 2 1 1 13 337 14
117 2 2 1 1 251 301 249
118 2 2 1 1 241 309 308
119 2 2 1 1 175 318 20
120 2 2 1 1 220 317 213
121 2 2 1 1 224 323 240
122 2 2 1 1 206 321 207
123 2 2 1 1 240 323 305
124 2 2 1 1 14 185 15
125 2 2 1 1 328 332 329
126 2 2 1 1 61 192 60
127 2 2 1 1 205 324 204
128 2 2 1 1 218 323 224
129 2 2 1 1 15 307 16
130 2 2 1 1 16 307 173
131 2 2 1 1 284 286 285
132 2 2 1 1 206 322 321
133 2 2 1 1 217 327 227
134 2 2 1 1 222 335 230
135 2 2 1 1 241 310 309
136 2 2 1 1 16 173 17
137 2 2 1 1 23 316 186
138 2 2 1 1 53 174 52
139 2 2 1 1 259 260 236
140 2 2 1 1 243 277 256
141 2 2 1 1 23 186 24
142 2 2 1 1 21 318 184
143 2 2 1 1 22 316 23
144 2 2 1 1 59 182 58
145 2 2 1 1 21 184 22
146 2 2 1 1 298 386 342
147 2 2 1 1 20 318 21
148 2 2 1 1 259 264 260
149 2 2 1 1 228 241 238
150 2 2 1 1 249 324 216
151 2 2 1 1 207 321 210
152 2 2 1 1 231 237 223
153 2 2 1 1 224 239 225
154 2 2 1 1 234 317 220
155 2 2 1 1 203 295 206
156 2 2 1 1 208 324 205
157 2 2 1 1 240 257 239
158 2 2 1 1 333 334 261
159 2 2 1 1 266 267 251
160 2 2 1 1 19 175 20
161 2 2 1 1 297 298 257
162 2 2 1 1 200 300 299
163 2 2 1 1 56 176 55
164 2 2 1 1 224 240 239
165 2 2 1 1 257 262 239
166 2 2 1 1 240 297 257
167 2 2 1 1 221 233 220
168 2 2 1 1 233 245 234
169 2 2 1 1 253 275 245
170 2 2 1 1 235 333 261
171 2 2 1 1 233 234 220
172 2 2 1 1 207 210 209
173 2 2 1 1 218 224 219
174 2 2 1 1 266 268 267
175 2 2 1 1 244 332 232
176 2 2 1 1 253 302 275
177 2 2 1 1 210 213 212
178 2 2 1 1 210 212 209
179 2 2 1 1 245 246 234
180 2 2 1 1 246 263 248
181 2 2 1 1 224 225 219
182 2 2 1 1 290 293 289
183 2 2 1 1 263 280 248
184 2 2 1 1 219 327 217
185 2 2 1 1 233 253 245
186 2 2 1 1 241 311 310
187 2 2 1 1 238 243 242
188 2 2 1 1 215 220 213
189 2 2 1 1 225 228 226
190 2 2 1 1 211 218 217
191 2 2 1 1 240 305 297
192 2 2 1 1 246 248 247
193 2 2 1 1 228 238 232
194 2 2 1 1 246 247 234
195 2 2 1 1 215 221 220
196 2 2 1 1 243 256 255
197 2 2 1 1 209 211 208
198 2 2 1 1 216 324 208
199 2 2 1 1 207 209 208
200 2 2 1 1 218 219 217
201 2 2 1 1 247 317 234
202 2 2 1 1 215 335 222
203 2 2 1 1 206 207 205
204 2 2 1 1 222 223 221
205 2 2 1 1 203 205 204
206 2 2 1 1 265 281 252
207 2 2 1 1 252 266 251
208 2 2 1 1 258 259 236
209 2 2 1 1 203 206 205
210 2 2 1 1 207 208 205
211 2 2 1 1 195 198 197
212 2 2 1 1 203 204 201
213 2 2 1 1 210 214 213
214 2 2 1 1 288 290 289
215 2 2 1 1 250 251 249
216 2 2 1 1 211 216 208
217 2 2 1 1 288 289 287
218 2 2 1 1 211 217 216
219 2 2 1 1 229 231 223
220 2 2 1 1 225 226 219
221 2 2 1 1 202 203 201
222 2 2 1 1 227 249 216
223 2 2 1 1 232 332 226
224 2 2 1 1 235 236 231
225 2 2 1 1 214 215 213
226 2 2 1 1 243 255 242
227 2 2 1 1 286 287 285
228 2 2 1 1 228 232 226
229 2 2 1 1 202 295 203
230 2 2 1 1 259 282 264
231 2 2 1 1 238 242 232
232 2 2 1 1 215 222 221
233 2 2 1 1 32 178 33
234 2 2 1 1 43 179 44
235 2 2 1 1 40 177 41
236 2 2 1 1 34 189 35
237 2 2 1 1 29 180 30
238 2 2 1 1 38 188 39
239 2 2 1 1 210 321 214
240 2 2 1 1 36 172 37
241 2 2 1 1 226 327 219
242 2 2 1 1 291 292 290
243 2 2 1 1 250 252 251
244 2 2 1 1 222 230 229
245 2 2 1 1 222 229 223
246 2 2 1 1 226 332 327
247 2 2 1 1 217 227 216
248 2 2 1 1 229 333 235
249 2 2 1 1 288 291 290
250 2 2 1 1 252 281 266
251 2 2 1 1 214 335 215
252 2 2 1 1 227 250 249
253 2 2 1 1 250 254 252
254 2 2 1 1 199 202 201
255 2 2 1 1 45 187 46
256 2 2 1 1 230 333 229
257 2 2 1 1 229 235 231
258 2 2 1 1 254 265 252
259 2 2 1 1 235 258 236
260 2 2 1 1 235 261 258
261 2 2 1 1 242 244 232
262 2 2 1 1 286 288 287
263 2 2 1 1 291 294 292
264 2 2 1 1 261 269 258
265 2 2 1 1 27 191 28
266 2 2 1 1 197 272 196
267 2 2 1 1 199 201 200
268 2 2 1 1 64 181 63
269 2 2 1 1 65 194 64
270 2 2 1 1 66 190 65
271 2 2 1 1 63 270 62
272 2 2 1 1 307 376 173
273 2 2 1 1 199 200 197
274 2 2 1 1 198 199 197
275 2 2 1 1 200 272 197
276 2 2 1 1 299 300 267
277 2 2 1 1 295 322 206
278 2 2 1 1 256 356 278
279 2 2 1 1 327 332 328
280 2 2 1 1 282 359 182
281 2 2 1 1 212 314 209
282 2 2 1 1 211 314 218
283 2 2 1 1 227 328 250
284 2 2 1 1 200 299 272
285 2 2 1 1 295 375 287
286 2 2 1 1 278 379 186
287 2 2 1 1 262 311 239
288 2 2 1 1 236 312 231
289 2 2 1 1 176 373 372
290 2 2 1 1 56 325 176
291 2 2 1 1 243 308 277
292 2 2 1 1 318 320 184
293 2 2 1 1 31 340 32
294 2 2 1 1 293 374 322
295 2 2 1 1 241 308 238
296 2 2 1 1 30 347 31
297 2 2 1 1 44 346 45
298 2 2 1 1 193 379 278
299 2 2 1 1 28 343 29
300 2 2 1 1 223 326 221
301 2 2 1 1 53 315 174
302 2 2 1 1 245 330 246
303 2 2 1 1 273 384 283
304 2 2 1 1 281 364 173
305 2 2 1 1 257 331 262
306 2 2 1 1 293 322 289
307 2 2 1 1 209 314 211
308 2 2 1 1 327 328 227
309 2 2 1 1 178 341 33
310 2 2 1 1 189 342 35
311 2 2 1 1 172 344 37
312 2 2 1 1 175 363 319
313 2 2 1 1 347 361 309
314 2 2 1 1 187 345 46
315 2 2 1 1 304 366 353
316 2 2 1 1 260 313 312
317 2 2 1 1 176 372 370
318 2 2 1 1 312 352 237
319 2 2 1 1 290 338 293
320 2 2 1 1 26 385 193
321 2 2 1 1 262 358 310
322 2 2 1 1 303 353 42
323 2 2 1 1 320 362 184
324 2 2 1 1 288 348 291
325 2 2 1 1 294 387 315
326 2 2 1 1 267 301 251
327 2 2 1 1 192 351 60
328 2 2 1 1 256 350 255
329 2 2 1 1 260 312 236
330 2 2 1 1 59 351 182
331 2 2 1 1 189 341 331
332 2 2 1 1 57 325 56
333 2 2 1 1 274 355 198
334 2 2 1 1 173 376 281
335 2 2 1 1 238 308 243
336 2 2 1 1 282 336 264
337 2 2 1 1 237 326 223
338 2 2 1 1 275 330 245
339 2 2 1 1 319 320 318
340 2 2 1 1 32 340 178
341 2 2 1 1 180 347 30
342 2 2 1 1 179 346 44
343 2 2 1 1 294 372 292
344 2 2 1 1 29 343 180
345 2 2 1 1 54 315 53
346 2 2 1 1 45 346 187
347 2 2 1 1 291 387 294
348 2 2 1 1 191 343 28
349 2 2 1 1 174 388 52
350 2 2 1 1 33 341 34
351 2 2 1 1 35 342 36
352 2 2 1 1 37 344 38
353 2 2 1 1 298 331 257
354 2 2 1 1 46 345 47
355 2 2 1 1 264 349 260
356 2 2 1 1 172 386 280
357 2 2 1 1 19 354 175
358 2 2 1 1 280 378 172
359 2 2 1 1 302 360 304
360 2 2 1 1 31 347 340
361 2 2 1 1 268 380 279
362 2 2 1 1 309 383 340
363 2 2 1 1 329 363 254
364 2 2 1 1 277 356 256
365 2 2 1 1 259 359 282
366 2 2 1 1 269 359 258
367 2 2 1 1 49 368 4
368 2 2 1 1 1 369 13
369 2 2 1 1 253 360 302
370 2 2 1 1 341 358 331
371 2 2 1 1 285 355 274
372 2 2 1 1 199 355 202
373 2 2 1 1 278 356 191
374 2 2 1 1 300 301 267
375 2 2 1 1 292 338 290
376 2 2 1 1 322 374 321
377 2 2 1 1 315 370 294
378 2 2 1 1 42 353 43
379 2 2 1 1 372 373 334
380 2 2 1 1 350 362 255
381 2 2 1 1 286 348 288
382 2 2 1 1 316 350 186
383 2 2 1 1 173 364 17
384 2 2 1 1 230 367 333
385 2 2 1 1 183 388 296
386 2 2 1 1 338 367 230
387 2 2 1 1 43 353 179
388 2 2 1 1 182 365 58
389 2 2 1 1 4 368 66
390 2 2 1 1 62 369 1
391 2 2 1 1 185 380 307
392 2 2 1 1 176 370 55
393 2 2 1 1 237 360 326
394 2 2 1 1 60 351 59
395 2 2 1 1 242 371 244
396 2 2 1 1 261 373 269
397 2 2 1 1 214 374 335
398 2 2 1 1 260 349 313
399 2 2 1 1 24 379 25
400 2 2 1 1 281 376 266
401 2 2 1 1 34 341 189
402 2 2 1 1 38 344 188
403 2 2 1 1 36 342 172
404 2 2 1 1 313 352 312
405 2 2 1 1 280 386 298
406 2 2 1 1 329 389 319
407 2 2 1 1 374 390 335
408 2 2 1 1 57 365 325
409 2 2 1 1 376 380 268
410 2 2 1 1 346 349 187
411 2 2 1 1 54 370 315
412 2 2 1 1 371 389 244
413 2 2 1 1 320 371 362
414 2 2 1 1 316 362 350
415 2 2 1 1 325 373 176
416 2 2 1 1 331 358 262
417 2 2 1 1 326 360 253
418 2 2 1 1 325 365 269
419 2 2 1 1 18 354 19
420 2 2 1 1 51 388 183
421 2 2 1 1 370 372 294
422 2 2 1 1 47 357 48
423 2 2 1 1 269 373 325
424 2 2 1 1 308 361 277
425 2 2 1 1 355 375 202
426 2 2 1 1 313 366 352
427 2 2 1 1 309 361 308
428 2 2 1 1 258 359 259
429 2 2 1 1 198 355 199
430 2 2 1 1 48 381 3
431 2 2 1 1 190 384 273
432 2 2 1 1 3 381 61
433 2 2 1 1 178 358 341
434 2 2 1 1 202 375 295
435 2 2 1 1 18 364 354
436 2 2 1 1 264 377 349
437 2 2 1 1 358 383 310
438 2 2 1 1 345 357 47
439 2 2 1 1 310 383 309
440 2 2 1 1 244 389 329
441 2 2 1 1 66 368 190
442 2 2 1 1 270 369 62
443 2 2 1 1 191 356 343
444 2 2 1 1 184 362 316
445 2 2 1 1 230 390 338
446 2 2 1 1 368 384 190
447 2 2 1 1 335 390 230
448 2 2 1 1 180 361 347
449 2 2 1 1 349 377 187
450 2 2 1 1 254 363 265
451 2 2 1 1 276 368 49
452 2 2 1 1 13 369 337
453 2 2 1 1 17 364 18
454 2 2 1 1 315 387 174
455 2 2 1 1 285 375 355
456 2 2 1 1 333 367 334
457 2 2 1 1 58 365 57
458 2 2 1 1 330 382 263
459 2 2 1 1 55 370 54
460 2 2 1 1 276 384 368
461 2 2 1 1 378 382 344
462 2 2 1 1 255 371 242
463 2 2 1 1 345 377 336
464 2 2 1 1 321 374 214
465 2 2 1 1 2 385 26
466 2 2 1 1 334 373 261
467 2 2 1 1 25 385 2
468 2 2 1 1 293 390 374
469 2 2 1 1 292 367 338
470 2 2 1 1 178 383 358
471 2 2 1 1 174 387 348
472 2 2 1 1 320 389 371
473 2 2 1 1 287 375 285
474 2 2 1 1 266 376 268
475 2 2 1 1 61 381 192
476 2 2 1 1 336 377 264
477 2 2 1 1 263 378 280
478 2 2 1 1 353 366 179
479 2 2 1 1 186 379 24
480 2 2 1 1 283 384 276
481 2 2 1 1 352 366 304
482 2 2 1 1 338 390 293
483 2 2 1 1 348 387 291
484 2 2 1 1 362 371 255
485 2 2 1 1 52 388 51
486 2 2 1 1 344 382 188
487 2 2 1 1 172 378 344
488 2 2 1 1 187 377 345
489 2 2 1 1 263 382 378
490 2 2 1 1 342 386 172
491 2 2 1 1 319 389 320
492 2 2 1 1 340 383 178
493 2 2 1 1 192 381 357
494 2 2 1 1 357 381 48
495 2 2 2 2 74 67 396
496 2 2 2 2 73 84 409
497 2 2 2 2 398 405 406
498 2 2 2 2 5 67 74
499 2 2 2 2 6 84 73
500 2 2 2 2 392 402 407
501 2 2 2 2 402 403 407
502 2 2 2 2 401 73 409
503 2 2 2 2 405 398 412
504 2 2 2 2 398 406 413
505 2 2 2 2 396 67 410
506 2 2 2 2 75 74 396
507 2 2 2 2 83 82 394
508 2 2 2 2 77 76 392
509 2 2 2 2 80 79 393
510 2 2 2 2 70 71 391
511 2 2 2 2 69 70 400
512 2 2 2 2 68 69 395
513 2 2 2 2 71 72 397
514 2 2 2 2 72 73 401
515 2 2 2 2 391 398 399
516 2 2 2 2 70 391 400
517 2 2 2 2 391 71 397
518 2 2 2 2 395 69 400
519 2 2 2 2 397 72 401
520 2 2 2 2 391 397 398
521 2 2 2 2 391 399 400
522 2 2 2 2 402 399 403
523 2 2 2 2 395 400 402
524 2 2 2 2 400 399 402
525 2 2 2 2 402 392 408
526 2 2 2 2 67 68 410
527 2 2 2 2 403 399 413
528 2 2 2 2 393 403 413
529 2 2 2 2 397 401 412
530 2 2 2 2 401 394 412
531 2 2 2 2 408 396 410
532 2 2 2 2 75 396 404
533 2 2 2 2 394 82 405
534 2 2 2 2 404 396 408
535 2 2 2 2 392 76 404
536 2 2 2 2 80 393 406
537 2 2 2 2 406 393 413
538 2 2 2 2 394 405 412
539 2 2 2 2 76 75 404
540 2 2 2 2 82 81 405
541 2 2 2 2 77 392 407
542 2 2 2 2 83 394 409
543 2 2 2 2 81 80 406
544 2 2 2 2 78 77 407
545 2 2 2 2 393 79 411
546 2 2 2 2 395 402 408
547 2 2 2 2 403 393 411
548 2 2 2 2 394 401 409
549 2 2 2 2 84 83 409
550 2 2 2 2 79 78 411
551 2 2 2 2 68 395 410
552 2 2 2 2 398 397 412
553 2 2 2 2 399 398 413
554 2 2 2 2 395 408 410
555 2 2 2 2 405 81 406
556 2 2 2 2 392 404 408
557 2 2 2 2 407 403 411
558 2 2 2 2 78 407 411
559 2 2 3 4 417 443 434
560 2 2 3 4 443 457 434
561 2 2 3 4 416 437 436
562 2 2 3 4 438 439 418
563 2 2 3 4 416 442 437
564 2 2 3 4 439 444 418
565 2 2 3 4 425 442 416
566 2 2 3 4 418 444 426
567 2 2 3 4 416 446 425
568 2 2 3 4 426 447 418
569 2 2 3 4 424 445 431
570 2 2 3 4 422 450 429
571 2 2 3 4 430 451 423
572 2 2 3 4 421 449 427
573 2 2 3 4 428 448 420
574 2 2 3 4 429 452 422
575 2 2 3 4 423 453 430
576 2 2 3 4 427 454 421
577 2 2 3 4 420 455 428
578 2 2 3 4 431 456 424
579 2 2 3 4 423 451 434
580 2 2 3 4 434 457 423
581 2 2 3 4 435 443 417
582 2 2 3 4 431 445 419
583 2 2 3 4 425 446 420
584 2 2 3 4 421 447 426
585 2 2 3 4 433 450 422
586 2 2 3 4 420 448 425
587 2 2 3 4 426 449 421
588 2 2 3 4 427 452 429
589 2 2 3 4 430 453 428
590 2 2 3 4 428 455 430
591 2 2 3 4 429 454 427
592 2 2 3 4 424 456 432
593 2 2 3 4 419 461 431
594 2 2 3 4 432 459 424
595 2 2 3 4 417 460 435
596 2 2 3 4 422 458 433
597 2 2 3 4 99 434 100
598 2 2 3 4 122 435 432
599 2 2 3 4 93 433 419
600 2 2 3 4 88 421 89
601 2 2 3 4 103 420 104
602 2 2 3 4 117 422 116
603 2 2 3 4 126 423 125
604 2 2 3 4 120 431 119
605 2 2 3 4 123 435 122
606 2 2 3 4 92 433 93
607 2 2 3 4 113 426 112
608 2 2 3 4 130 425 129
609 2 2 3 4 122 432 121
610 2 2 3 4 95 424 96
611 2 2 3 4 101 430 102
612 2 2 3 4 90 429 91
613 2 2 3 4 128 428 127
614 2 2 3 4 115 427 114
615 2 2 3 4 98 417 99
616 2 2 3 4 86 418 87
617 2 2 3 4 105 416 106
618 2 2 3 4 93 419 94
619 2 2 3 4 417 434 99
620 2 2 3 4 106 436 107
621 2 2 3 4 85 438 86
622 2 2 3 4 130 442 425
623 2 2 3 4 426 444 112
624 2 2 3 4 95 445 424
625 2 2 3 4 422 452 116
626 2 2 3 4 126 453 423
627 2 2 3 4 421 454 89
628 2 2 3 4 103 455 420
629 2 2 3 4 105 446 416
630 2 2 3 4 418 447 87
631 2 2 3 4 429 450 91
632 2 2 3 4 101 451 430
633 2 2 3 4 427 449 114
634 2 2 3 4 128 448 428
635 2 2 3 4 120 456 431
636 2 2 3 4 434 451 100
637 2 2 3 4 420 446 104
638 2 2 3 4 88 447 421
639 2 2 3 4 123 443 435
640 2 2 3 4 92 450 433
641 2 2 3 4 425 448 129
642 2 2 3 4 113 449 426
643 2 2 3 4 419 445 94
644 2 2 3 4 432 456 121
645 2 2 3 4 90 454 429
646 2 2 3 4 430 455 102
647 2 2 3 4 428 453 127
648 2 2 3 4 115 452 427
649 2 2 3 4 423 457 125
650 2 2 3 4 111 439 110
651 2 2 3 4 132 437 131
652 2 2 3 4 416 436 106
653 2 2 3 4 86 438 418
654 2 2 3 4 133 415 134
655 2 2 3 4 109 414 108
656 2 2 3 4 415 439 438
657 2 2 3 4 436 437 414
658 2 2 3 4 433 440 419
659 2 2 3 4 435 441 432
660 2 2 3 4 124 457 443
661 2 2 3 4 131 442 130
662 2 2 3 4 112 444 111
663 2 2 3 4 124 443 123
664 2 2 3 4 94 445 95
665 2 2 3 4 129 448 128
666 2 2 3 4 114 449 113
667 2 2 3 4 100 451 101
668 2 2 3 4 91 450 92
669 2 2 3 4 104 446 105
670 2 2 3 4 87 447 88
671 2 2 3 4 127 453 126
672 2 2 3 4 116 452 115
673 2 2 3 4 89 454 90
674 2 2 3 4 102 455 103
675 2 2 3 4 121 456 120
676 2 2 3 4 125 457 124
677 2 2 3 4 96 459 97
678 2 2 3 4 119 461 118
679 2 2 3 4 118 458 117
680 2 2 3 4 97 460 98
681 2 2 3 4 7 463 85
682 2 2 3 4 9 464 132
683 2 2 3 4 110 462 10
684 2 2 3 4 107 465 8
685 2 2 3 4 437 442 131
686 2 2 3 4 111 444 439
687 2 2 3 4 440 458 118
688 2 2 3 4 441 460 97
689 2 2 3 4 118 461 440
690 2 2 3 4 97 459 441
691 2 2 3 4 436 465 107
692 2 2 3 4 85 463 438
693 2 2 3 4 134 463 7
694 2 2 3 4 108 464 9
695 2 2 3 4 10 462 133
696 2 2 3 4 8 465 109
697 2 2 3 4 435 460 441
698 2 2 3 4 433 458 440
699 2 2 3 4 440 461 419
700 2 2 3 4 441 459 432
701 2 2 3 4 439 462 110
702 2 2 3 4 132 464 437
703 2 2 3 4 414 465 436
704 2 2 3 4 438 463 415
705 2 2 3 4 415 462 439
706 2 2 3 4 437 464 414
707 2 2 3 4 424 459 96
708 2 2 3 4 431 461 119
709 2 2 3 4 117 458 422
710 2 2 3 4 98 460 417
711 2 2 3 4 415 463 134
712 2 2 3 4 414 464 108
713 2 2 3 4 133 462 415
714 2 2 3 4 109 465 414
715 2 2 4 210102 148 149 539
716 2 2 4 210102 143 144 540
717 2 2 4 210102 507 504 543
718 2 2 4 210102 514 512 545
719 2 2 4 210102 512 478 545
720 2 2 4 210102 477 507 543
721 2 2 4 210102 511 478 512
722 2 2 4 210102 477 506 507
723 2 2 4 210102 149 470 539
724 2 2 4 210102 478 511 546
725 2 2 4 210102 506 477 537
726 2 2 4 210102 144 476 540
727 2 2 4 210102 467 143 540
728 2 2 4 210102 148 539 550
729 2 2 4 210102 506 537 549
730 2 2 4 210102 479 506 549
731 2 2 4 210102 514 471 516
732 2 2 4 210102 504 472 543
733 2 2 4 210102 471 514 545
734 2 2 4 210102 501 498 515
735 2 2 4 210102 538 521 547
736 2 2 4 210102 498 500 515
737 2 2 4 210102 515 514 516
738 2 2 4 210102 509 510 517
739 2 2 4 210102 500 513 515
740 2 2 4 210102 501 515 516
741 2 2 4 210102 513 500 517
742 2 2 4 210102 472 504 522
743 2 2 4 210102 505 473 517
744 2 2 4 210102 510 513 517
745 2 2 4 210102 473 509 517
746 2 2 4 210102 511 480 546
747 2 2 4 210102 473 505 531
748 2 2 4 210102 466 538 547
749 2 2 4 210102 469 531 533
750 2 2 4 210102 523 526 528
751 2 2 4 210102 480 511 548
752 2 2 4 210102 526 490 528
753 2 2 4 210102 535 520 539
754 2 2 4 210102 518 540 551
755 2 2 4 210102 526 525 530
756 2 2 4 210102 500 505 517
757 2 2 4 210102 530 525 532
758 2 2 4 210102 531 505 533
759 2 2 4 210102 484 504 507
760 2 2 4 210102 508 468 527
761 2 2 4 210102 468 523 528
762 2 2 4 210102 162 468 508
763 2 2 4 210102 479 481 506
764 2 2 4 210102 506 482 507
765 2 2 4 210102 481 482 506
766 2 2 4 210102 479 159 481
767 2 2 4 210102 167 473 531
768 2 2 4 210102 482 484 507
769 2 2 4 210102 490 526 530
770 2 2 4 210102 524 525 526
771 2 2 4 210102 493 502 521
772 2 2 4 210102 510 475 511
773 2 2 4 210102 524 469 525
774 2 2 4 210102 473 168 509
775 2 2 4 210102 161 162 508
776 2 2 4 210102 165 469 524
777 2 2 4 210102 481 474 482
778 2 2 4 210102 510 511 512
779 2 2 4 210102 503 487 519
780 2 2 4 210102 504 486 522
781 2 2 4 210102 509 475 510
782 2 2 4 210102 158 159 479
783 2 2 4 210102 482 483 484
784 2 2 4 210102 160 474 481
785 2 2 4 210102 484 486 504
786 2 2 4 210102 169 475 509
787 2 2 4 210102 169 170 475
788 2 2 4 210102 523 524 526
789 2 2 4 210102 486 503 522
790 2 2 4 210102 519 492 520
791 2 2 4 210102 484 485 486
792 2 2 4 210102 492 493 521
793 2 2 4 210102 495 497 518
794 2 2 4 210102 487 489 519
795 2 2 4 210102 486 487 503
796 2 2 4 210102 513 512 514
797 2 2 4 210102 493 495 502
798 2 2 4 210102 482 474 483
799 2 2 4 210102 159 160 481
800 2 2 4 210102 489 492 519
801 2 2 4 210102 489 491 492
802 2 2 4 210102 502 495 518
803 2 2 4 210102 160 161 474
804 2 2 4 210102 527 468 528
805 2 2 4 210102 468 163 523
806 2 2 4 210102 520 492 521
807 2 2 4 210102 523 164 524
808 2 2 4 210102 492 491 493
809 2 2 4 210102 167 168 473
810 2 2 4 210102 484 483 485
811 2 2 4 210102 162 163 468
812 2 2 4 210102 164 165 524
813 2 2 4 210102 165 166 469
814 2 2 4 210102 486 485 487
815 2 2 4 210102 497 498 501
816 2 2 4 210102 168 169 509
817 2 2 4 210102 510 512 513
818 2 2 4 210102 513 514 515
819 2 2 4 210102 163 164 523
820 2 2 4 210102 495 496 497
821 2 2 4 210102 493 494 495
822 2 2 4 210102 474 161 508
823 2 2 4 210102 489 490 491
824 2 2 4 210102 487 488 489
825 2 2 4 210102 497 496 498
826 2 2 4 210102 493 491 494
827 2 2 4 210102 495 494 496
828 2 2 4 210102 144 145 476
829 2 2 4 210102 489 488 490
830 2 2 4 210102 483 474 508
831 2 2 4 210102 487 485 488
832 2 2 4 210102 149 150 470
833 2 2 4 210102 146 147 466
834 2 2 4 210102 142 143 467
835 2 2 4 210102 152 153 472
836 2 2 4 210102 498 499 500
837 2 2 4 210102 154 155 477
838 2 2 4 210102 139 140 471
839 2 2 4 210102 522 503 529
840 2 2 4 210102 498 496 499
841 2 2 4 210102 137 138 478
842 2 2 4 210102 166 167 531
843 2 2 4 210102 500 499 505
844 2 2 4 210102 135 136 480
845 2 2 4 210102 491 490 530
846 2 2 4 210102 485 483 527
847 2 2 4 210102 483 508 527
848 2 2 4 210102 488 485 527
849 2 2 4 210102 490 488 528
850 2 2 4 210102 494 491 530
851 2 2 4 210102 488 527 528
852 2 2 4 210102 469 166 531
853 2 2 4 210102 525 469 533
854 2 2 4 210102 499 496 532
855 2 2 4 210102 496 494 532
856 2 2 4 210102 470 535 539
857 2 2 4 210102 494 530 532
858 2 2 4 210102 534 501 536
859 2 2 4 210102 497 501 534
860 2 2 4 210102 499 532 533
861 2 2 4 210102 532 525 533
862 2 2 4 210102 540 476 551
863 2 2 4 210102 519 520 535
864 2 2 4 210102 470 529 535
865 2 2 4 210102 529 503 535
866 2 2 4 210102 467 534 536
867 2 2 4 210102 505 499 533
868 2 2 4 210102 536 516 544
869 2 2 4 210102 518 497 534
870 2 2 4 210102 501 516 536
871 2 2 4 210102 155 156 537
872 2 2 4 210102 521 502 547
873 2 2 4 210102 477 155 537
874 2 2 4 210102 518 534 540
875 2 2 4 210102 503 519 535
876 2 2 4 210102 516 471 544
877 2 2 4 210102 511 475 548
878 2 2 4 210102 170 171 548
879 2 2 4 210102 542 547 551
880 2 2 4 210102 476 542 551
881 2 2 4 210102 520 521 538
882 2 2 4 210102 522 529 541
883 2 2 4 210102 520 538 539
884 2 2 4 210102 536 544 552
885 2 2 4 210102 151 152 541
886 2 2 4 210102 472 522 541
887 2 2 4 210102 152 472 541
888 2 2 4 210102 145 146 542
889 2 2 4 210102 140 141 544
890 2 2 4 210102 153 154 543
891 2 2 4 210102 534 467 540
892 2 2 4 210102 476 145 542
893 2 2 4 210102 138 139 545
894 2 2 4 210102 146 466 542
895 2 2 4 210102 136 137 546
896 2 2 4 210102 472 153 543
897 2 2 4 210102 154 477 543
898 2 2 4 210102 471 140 544
899 2 2 4 210102 139 471 545
900 2 2 4 210102 478 138 545
901 2 2 4 210102 137 478 546
902 2 2 4 210102 480 136 546
903 2 2 4 210102 539 538 550
904 2 2 4 210102 548 171 554
905 2 2 4 210102 466 147 550
906 2 2 4 210102 142 467 552
907 2 2 4 210102 171 11 554
908 2 2 4 210102 470 150 553
909 2 2 4 210102 529 470 553
910 2 2 4 210102 11 135 554
911 2 2 4 210102 475 170 548
912 2 2 4 210102 12 158 555
913 2 2 4 210102 157 12 555
914 2 2 4 210102 156 157 549
915 2 2 4 210102 147 148 550
916 2 2 4 210102 467 536 552
917 2 2 4 210102 538 466 550
918 2 2 4 210102 502 518 551
919 2 2 4 210102 158 479 555
920 2 2 4 210102 541 529 553
921 2 2 4 210102 537 156 549
922 2 2 4 210102 542 466 547
923 2 2 4 210102 141 142 552
924 2 2 4 210102 480 548 554
925 2 2 4 210102 544 141 552
926 2 2 4 210102 150 151 553
927 2 2 4 210102 151 541 553
928 2 2 4 210102 135 480 554
929 2 2 4 210102 547 502 551
930 2 2 4 210102 479 549 555
931 2 2 4 210102 549 157 555
$EndElements
