$MeshFormat
2.2 0 8
$EndMeshFormat
$Nodes
1141
1 15 0 -100
2 14.970401 0.941858 -100
3 14.881721 1.879999 -100
4 14.734309 2.81072 -100
5 14.528747 3.730348 -100
6 14.265848 4.635255 -100
7 13.946647 5.521868 -100
8 13.572406 6.386689 -100
9 13.1446 7.226305 -100
10 12.664919 8.037402 -100
11 12.135255 8.816779 -100
12 11.557699 9.561360000000001 -100
13 10.934529 10.268207 -100
14 10.268207 10.934529 -100
15 9.561360000000001 11.557699 -100
16 8.816779 12.135255 -100
17 8.037402 12.664919 -100
18 7.226305 13.1446 -100
19 6.386689 13.572406 -100
20 5.521868 13.946647 -100
21 4.635255 14.265848 -100
22 3.730348 14.528747 -100
23 2.81072 14.734309 -100
24 1.879999 14.881721 -100
25 0.941858 14.970401 -100
26 0 15 -100
27 15.05 0 -95.333333
28 15.020302 0.944997 -95.33859
29 14.931326 1.886265 -95.35427799999999
30 14.783423 2.820089 -95.380149
31 14.577177 3.742783 -95.415796
32 14.313401 4.650706 -95.460655
33 13.993136 5.540275 -95.514021
34 13.617647 6.407978 -95.575051
35 13.188416 7.250393 -95.642782
36 12.707135 8.064193 -95.71614700000001
37 12.175706 8.846168 -95.793989
38 11.596224 9.593230999999999 -95.875079
39 10.970978 10.302434 -95.95814
40 10.302434 10.970978 -96.04186
41 9.593230999999999 11.596224 -96.124921
42 8.846168 12.175706 -96.206011
43 8.064193 12.707135 -96.28385299999999
44 7.250393 13.188416 -96.357218
45 6.407978 13.617647 -96.424949
46 5.540275 13.993136 -96.485979
47 4.650706 14.313401 -96.539345
48 3.742783 14.577177 -96.584204
49 2.820089 14.783423 -96.619851
50 1.886265 14.931326 -96.64572200000001
51 0.944997 15.020302 -96.66141
52 0 15.05 -96.666667
53 15.2 0 -90.666667
54 15.170006 0.954416 -90.67718000000001
55 15.080143 1.905065 -90.708556
56 14.930766 2.848196 -90.76029800000001
57 14.722464 3.780086 -90.831591
58 14.456059 4.697058 -90.921311
59 14.132603 5.595493 -91.028042
60 13.753371 6.471845 -91.15010100000001
61 13.319862 7.322656 -91.28556399999999
62 12.833784 8.144567 -91.432294
63 12.297058 8.934336 -91.587977
64 11.711801 9.688845000000001 -91.750158
65 11.080323 10.405116 -91.916279
66 10.405116 11.080323 -92.083721
67 9.688845000000001 11.711801 -92.249842
68 8.934336 12.297058 -92.412023
69 8.144567 12.833784 -92.567706
70 7.322656 13.319862 -92.71443600000001
71 6.471845 13.753371 -92.84989899999999
72 5.595493 14.132603 -92.971958
73 4.697058 14.456059 -93.078689
74 3.780086 14.722464 -93.168409
75 2.848196 14.930766 -93.23970199999999
76 1.905065 15.080143 -93.291444
77 0.954416 15.170006 -93.32281999999999
78 0 15.2 -93.333333
79 15.45 0 -86
80 15.419513 0.970114 -86.015771
81 15.328172 1.936398 -86.062834
82 15.176338 2.895041 -86.14044699999999
83 14.96461 3.842259 -86.247387
84 14.693823 4.774313 -86.38196600000001
85 14.365047 5.687524 -86.542063
86 13.979578 6.57829 -86.72515199999999
87 13.538938 7.443094 -86.928346
88 13.044866 8.278524000000001 -87.14844100000001
89 12.499313 9.081282 -87.38196600000001
90 11.90443 9.848201 -87.625237
91 11.262565 10.576253 -87.874419
92 10.576253 11.262565 -88.125581
93 9.848201 11.90443 -88.374763
94 9.081282 12.499313 -88.61803399999999
95 8.278524000000001 13.044866 -88.85155899999999
96 7.443094 13.538938 -89.071654
97 6.57829 13.979578 -89.27484800000001
98 5.687524 14.365047 -89.457937
99 4.774313 14.693823 -89.61803399999999
100 3.842259 14.96461 -89.752613
101 2.895041 15.176338 -89.85955300000001
102 1.936398 15.328172 -89.937166
103 0.970114 15.419513 -89.984229
104 0 15.45 -90
105 15.8 0 -81.333333
106 15.768822 0.99209 -81.354361
107 15.675412 1.980265 -81.417112
108 15.520139 2.960625 -81.520596
109 15.303614 3.9293 -81.66318200000001
110 15.026693 4.882469 -81.84262099999999
111 14.690468 5.816368 -82.056084
112 14.296267 6.727313 -82.300203
113 13.845646 7.611708 -82.571129
114 13.340381 8.466063 -82.864589
115 12.782469 9.287006999999999 -83.175955
116 12.174109 10.071299 -83.500316
117 11.517704 10.815844 -83.832559
118 10.815844 11.517704 -84.167441
119 10.071299 12.174109 -84.499684
120 9.287006999999999 12.782469 -84.824045
121 8.466063 13.340381 -85.135411
122 7.611708 13.845646 -85.428871
123 6.727313 14.296267 -85.699797
124 5.816368 14.690468 -85.943916
125 4.882469 15.026693 -86.15737900000001
126 3.9293 15.303614 -86.33681799999999
127 2.960625 15.520139 -86.479404
128 1.980265 15.675412 -86.582888
129 0.99209 15.768822 -86.645639
130 0 15.8 -86.666667
131 16.25 0 -76.666667
132 16.217934 1.020346 -76.69295099999999
133 16.121864 2.036665 -76.771389
134 15.962168 3.044946 -76.900745
135 15.739476 4.041211 -77.07897800000001
136 15.454668 5.021526 -77.30327699999999
137 15.108868 5.982024 -77.570105
138 14.70344 6.918913 -77.875253
139 14.239984 7.828497 -78.213911
140 13.720329 8.707185000000001 -78.580736
141 13.146526 9.55151 -78.969943
142 12.52084 10.35814 -79.37539599999999
143 11.84574 11.12389 -79.79069800000001
144 11.12389 11.84574 -80.20930199999999
145 10.35814 12.52084 -80.62460400000001
146 9.55151 13.146526 -81.030057
147 8.707185000000001 13.720329 -81.419264
148 7.828497 14.239984 -81.786089
149 6.918913 14.70344 -82.124747
150 5.982024 15.108868 -82.429895
151 5.021526 15.454668 -82.69672300000001
152 4.041211 15.739476 -82.92102199999999
153 3.044946 15.962168 -83.099255
154 2.036665 16.121864 -83.228611
155 1.020346 16.217934 -83.30704900000001
156 0 16.25 -83.333333
157 16.8 0 -72
158 16.766849 1.054881 -72.031541
159 16.667527 2.105598 -72.12566700000001
160 16.502426 3.148006 -72.280894
161 16.272197 4.17799 -72.494773
162 15.977749 5.191486 -72.763932
163 15.620245 6.184492 -73.084125
164 15.201094 7.153092 -73.450304
165 14.721952 8.093462000000001 -73.85669300000001
166 14.184709 9.00189 -74.29688299999999
167 13.591486 9.874791999999999 -74.763932
168 12.944622 10.708723 -75.25047499999999
169 12.246673 11.500391 -75.74883800000001
170 11.500391 12.246673 -76.25116199999999
171 10.708723 12.944622 -76.74952500000001
172 9.874791999999999 13.591486 -77.236068
173 9.00189 14.184709 -77.70311700000001
174 8.093462000000001 14.721952 -78.14330699999999
175 7.153092 15.201094 -78.549696
176 6.184492 15.620245 -78.915875
177 5.191486 15.977749 -79.236068
178 4.17799 16.272197 -79.505227
179 3.148006 16.502426 -79.719106
180 2.105598 16.667527 -79.87433299999999
181 1.054881 16.766849 -79.968459
182 0 16.8 -80
183 17.45 0 -67.333333
184 17.415566 1.095695 -67.370131
185 17.312402 2.187065 -67.479945
186 17.140913 3.269804 -67.66104300000001
187 16.901776 4.339639 -67.910569
188 16.595936 5.392347 -68.224587
189 16.2246 6.423773 -68.598146
190 15.789232 7.429849 -69.025355
191 15.291552 8.406601999999999 -69.499475
192 14.733522 9.350178 -70.01303
193 14.117347 10.256853 -70.55792099999999
194 13.445456 11.123049 -71.12555399999999
195 12.720503 11.945347 -71.70697800000001
196 11.945347 12.720503 -72.29302199999999
197 11.123049 13.445456 -72.87444600000001
198 10.256853 14.117347 -73.44207900000001
199 9.350178 14.733522 -73.98697
200 8.406601999999999 15.291552 -74.500525
201 7.429849 15.789232 -74.974645
202 6.423773 16.2246 -75.401854
203 5.392347 16.595936 -75.775413
204 4.339639 16.901776 -76.089431
205 3.269804 17.140913 -76.33895699999999
206 2.187065 17.312402 -76.520055
207 1.095695 17.415566 -76.629869
208 0 17.45 -76.666667
209 18.2 0 -62.666667
210 18.164086 1.142787 -62.708722
211 18.056488 2.281065 -62.834223
212 17.877628 3.41034 -63.041192
213 17.628214 4.526156 -63.326364
214 17.309229 5.624109 -63.685243
215 16.921932 6.699867 -64.112167
216 16.467852 7.749183 -64.60040499999999
217 15.948782 8.767917000000001 -65.142257
218 15.366768 9.752048 -65.72917700000001
219 14.724109 10.697692 -66.35190900000001
220 14.023341 11.601117 -67.00063299999999
221 13.267229 12.458757 -67.665117
222 12.458757 13.267229 -68.334883
223 11.601117 14.023341 -68.99936700000001
224 10.697692 14.724109 -69.64809099999999
225 9.752048 15.366768 -70.27082299999999
226 8.767917000000001 15.948782 -70.857743
227 7.749183 16.467852 -71.39959500000001
228 6.699867 16.921932 -71.887833
229 5.624109 17.309229 -72.314757
230 4.526156 17.628214 -72.673636
231 3.41034 17.877628 -72.958808
232 2.281065 18.056488 -73.16577700000001
233 1.142787 18.164086 -73.29127800000001
234 0 18.2 -73.333333
235 19.05 0 -58
236 19.012409 1.196159 -58.047312
237 18.899785 2.387598 -58.188501
238 18.712572 3.569614 -58.421341
239 18.451509 4.737542 -58.74216
240 18.117627 5.886774 -59.145898
241 17.712242 7.012773 -59.626188
242 17.236955 8.111096 -60.175456
243 16.693642 9.177407000000001 -60.785039
244 16.084447 10.2075 -61.445324
245 15.411774 11.197309 -62.145898
246 14.678277 12.142927 -62.875712
247 13.886852 13.040622 -63.623257
248 13.040622 13.886852 -64.376743
249 12.142927 14.678277 -65.12428800000001
250 11.197309 15.411774 -65.854102
251 10.2075 16.084447 -66.554676
252 9.177407000000001 16.693642 -67.214961
253 8.111096 17.236955 -67.824544
254 7.012773 17.712242 -68.373812
255 5.886774 18.117627 -68.854102
256 4.737542 18.451509 -69.25784
257 3.569614 18.712572 -69.578659
258 2.387598 18.899785 -69.811499
259 1.196159 19.012409 -69.95268799999999
260 0 19.05 -70
261 20 0 -53.333333
262 19.960535 1.25581 -53.385902
263 19.842294 2.506665 -53.542779
264 19.645745 3.747626 -53.80149
265 19.371663 4.973798 -54.157955
266 19.02113 6.18034 -54.606553
267 18.59553 7.362491 -55.140209
268 18.096541 8.515586000000001 -55.750507
269 17.526134 9.635073 -56.427821
270 16.886559 10.716536 -57.161471
271 16.18034 11.755705 -57.939887
272 15.410265 12.74848 -58.750791
273 14.579373 13.690942 -59.581397
274 13.690942 14.579373 -60.418603
275 12.74848 15.410265 -61.249209
276 11.755705 16.18034 -62.060113
277 10.716536 16.886559 -62.838529
278 9.635073 17.526134 -63.572179
279 8.515586000000001 18.096541 -64.249493
280 7.362491 18.59553 -64.859791
281 6.18034 19.02113 -65.39344699999999
282 4.973798 19.371663 -65.842045
283 3.747626 19.645745 -66.19851
284 2.506665 19.842294 -66.457221
285 1.25581 19.960535 -66.614098
286 0 20 -66.666667
287 21.05 0 -48.666667
288 21.008463 1.32174 -48.724492
289 20.884014 2.638265 -48.897057
290 20.677147 3.944377 -49.181639
291 20.388676 5.234922 -49.573751
292 20.01974 6.504808 -50.067209
293 19.571795 7.749022 -50.65423
294 19.046609 8.962654000000001 -51.325557
295 18.446256 10.140915 -52.070604
296 17.773103 11.279154 -52.877619
297 17.029808 12.37288 -53.733875
298 16.219304 13.417775 -54.62587
299 15.34479 14.409717 -55.539536
300 14.409717 15.34479 -56.460464
301 13.417775 16.219304 -57.37413
302 12.37288 17.029808 -58.266125
303 11.279154 17.773103 -59.122381
304 10.140915 18.446256 -59.929396
305 8.962654000000001 19.046609 -60.674443
306 7.749022 19.571795 -61.34577
307 6.504808 20.01974 -61.932791
308 5.234922 20.388676 -62.426249
309 3.944377 20.677147 -62.818361
310 2.638265 20.884014 -63.102943
311 1.32174 21.008463 -63.275508
312 0 21.05 -63.333333
313 22.2 0 -44
314 22.156193 1.39395 -44.063082
315 22.024946 2.782398 -44.251335
316 21.806777 4.159865 -44.561788
317 21.502546 5.520915 -44.989547
318 21.113455 6.860177 -45.527864
319 20.641038 8.172364999999999 -46.168251
320 20.087161 9.452299999999999 -46.900608
321 19.454008 10.694932 -47.713386
322 18.74408 11.895355 -48.593766
323 17.960177 13.048833 -49.527864
324 17.105394 14.150813 -50.500949
325 16.183104 15.196946 -51.497676
326 15.196946 16.183104 -52.502324
327 14.150813 17.105394 -53.499051
328 13.048833 17.960177 -54.472136
329 11.895355 18.74408 -55.406234
330 10.694932 19.454008 -56.286614
331 9.452299999999999 20.087161 -57.099392
332 8.172364999999999 20.641038 -57.831749
333 6.860177 21.113455 -58.472136
334 5.520915 21.502546 -59.010453
335 4.159865 21.806777 -59.438212
336 2.782398 22.024946 -59.748665
337 1.39395 22.156193 -59.936918
338 0 22.2 -60
339 23.45 0 -39.333333
340 23.403727 1.472438 -39.401673
341 23.26509 2.939064 -39.605613
342 23.034636 4.394092 -39.941937
343 22.713275 5.831778 -40.405342
344 22.302275 7.246449 -40.988519
345 21.803259 8.632521000000001 -41.682272
346 21.218194 9.984524 -42.475659
347 20.549392 11.297124 -43.356168
348 19.79949 12.565138 -44.309913
349 18.971449 13.783564 -45.321853
350 18.068536 14.947593 -46.376029
351 17.094314 16.05263 -47.455815
352 16.05263 17.094314 -48.544185
353 14.947593 18.068536 -49.623971
354 13.783564 18.971449 -50.678147
355 12.565138 19.79949 -51.690087
356 11.297124 20.549392 -52.643832
357 9.984524 21.218194 -53.524341
358 8.632521000000001 21.803259 -54.317728
359 7.246449 22.302275 -55.011481
360 5.831778 22.713275 -55.594658
361 4.394092 23.034636 -56.058063
362 2.939064 23.26509 -56.394387
363 1.472438 23.403727 -56.598327
364 0 23.45 -56.666667
365 24.8 0 -34.666667
366 24.751063 1.557205 -34.740263
367 24.604445 3.108264 -34.95989
368 24.360724 4.647057 -35.322086
369 24.020862 6.167509 -35.821138
370 23.586202 7.663621 -36.449175
371 23.058457 9.129489 -37.196293
372 22.439711 10.559326 -38.050709
373 21.732406 11.947491 -38.99895
374 20.939333 13.288505 -40.02606
375 20.063621 14.577074 -41.115841
376 19.108728 15.808115 -42.251108
377 18.078422 16.976768 -43.413955
378 16.976768 18.078422 -44.586045
379 15.808115 19.108728 -45.748892
380 14.577074 20.063621 -46.884159
381 13.288505 20.939333 -47.97394
382 11.947491 21.732406 -49.00105
383 10.559326 22.439711 -49.949291
384 9.129489 23.058457 -50.803707
385 7.663621 23.586202 -51.550825
386 6.167509 24.020862 -52.178862
387 4.647057 24.360724 -52.677914
388 3.108264 24.604445 -53.04011
389 1.557205 24.751063 -53.259737
390 0 24.8 -53.333333
391 26.25 0 -30
392 26.198202 1.648251 -30.078853
393 26.043011 3.289997 -30.314168
394 25.78504 4.91876 -30.702235
395 25.425308 6.52811 -31.236933
396 24.965234 8.111696 -31.90983
397 24.406633 9.663270000000001 -32.710314
398 23.75171 11.176706 -33.62576
399 23.00305 12.646034 -34.641732
400 22.163608 14.065453 -35.742207
401 21.236696 15.429363 -36.90983
402 20.225973 16.73238 -38.126187
403 19.135426 17.969362 -39.372095
404 17.969362 19.135426 -40.627905
405 16.73238 20.225973 -41.873813
406 15.429363 21.236696 -43.09017
407 14.065453 22.163608 -44.257793
408 12.646034 23.00305 -45.358268
409 11.176706 23.75171 -46.37424
410 9.663270000000001 24.406633 -47.289686
411 8.111696 24.965234 -48.09017
412 6.52811 25.425308 -48.763067
413 4.91876 25.78504 -49.297765
414 3.289997 26.043011 -49.685832
415 1.648251 26.198202 -49.921147
416 0 26.25 -50
417 27.8 0 -25.333333
418 27.745143 1.745576 -25.417443
419 27.580789 3.484264 -25.668446
420 27.307586 5.209201 -26.082384
421 26.926612 6.913579 -26.652729
422 26.439371 8.590672 -27.370485
423 25.847786 10.233863 -28.224335
424 25.154192 11.836664 -29.200811
425 24.361326 13.392752 -30.284514
426 23.472316 14.895985 -31.458354
427 22.490672 16.34043 -32.703819
428 21.420268 17.720387 -34.001266
429 20.265328 19.03041 -35.330234
430 19.03041 20.265328 -36.669766
431 17.720387 21.420268 -37.998734
432 16.34043 22.490672 -39.296181
433 14.895985 23.472316 -40.541646
434 13.392752 24.361326 -41.715486
435 11.836664 25.154192 -42.799189
436 10.233863 25.847786 -43.775665
437 8.590672 26.439371 -44.629515
438 6.913579 26.926612 -45.347271
439 5.209201 27.307586 -45.917616
440 3.484264 27.580789 -46.331554
441 1.745576 27.745143 -46.582557
442 0 27.8 -46.666667
443 29.45 0 -20.666667
444 29.391887 1.849181 -20.756033
445 29.217778 3.691064 -21.022724
446 28.92836 5.51838 -21.462533
447 28.524774 7.323917 -22.068524
448 28.008614 9.10055 -22.831141
449 27.381918 10.841268 -23.738356
450 26.647157 12.5392 -24.775861
451 25.807232 14.187646 -25.927296
452 24.865457 15.780099 -27.174501
453 23.82555 17.310276 -28.497807
454 22.691615 18.772136 -29.876345
455 21.468126 20.159912 -31.288374
456 20.159912 21.468126 -32.711626
457 18.772136 22.691615 -34.123655
458 17.310276 23.82555 -35.502193
459 15.780099 24.865457 -36.825499
460 14.187646 25.807232 -38.072704
461 12.5392 26.647157 -39.224139
462 10.841268 27.381918 -40.261644
463 9.10055 28.008614 -41.168859
464 7.323917 28.524774 -41.931476
465 5.51838 28.92836 -42.537467
466 3.691064 29.217778 -42.977276
467 1.849181 29.391887 -43.243967
468 0 29.45 -43.333333
469 31.2 0 -16
470 31.138434 1.959064 -16.094624
471 30.953979 3.910397 -16.377002
472 30.647362 5.846297 -16.842682
473 30.219795 7.759124 -17.48432
474 29.672963 9.64133 -18.291796
475 29.009026 11.485486 -19.252376
476 28.230604 13.284314 -20.350912
477 27.340768 15.030715 -21.570078
478 26.343031 16.717796 -22.890649
479 25.24133 18.3389 -24.291796
480 24.040013 19.887628 -25.751424
481 22.743821 21.35787 -27.246514
482 21.35787 22.743821 -28.753486
483 19.887628 24.040013 -30.248576
484 18.3389 25.24133 -31.708204
485 16.717796 26.343031 -33.109351
486 15.030715 27.340768 -34.429922
487 13.284314 28.230604 -35.649088
488 11.485486 29.009026 -36.747624
489 9.64133 29.672963 -37.708204
490 7.759124 30.219795 -38.51568
491 5.846297 30.647362 -39.157318
492 3.910397 30.953979 -39.622998
493 1.959064 31.138434 -39.905376
494 0 31.2 -40
495 33.05 0 -11.333333
496 32.984783 2.075227 -11.433214
497 32.789391 4.142263 -11.73128
498 32.464594 6.192952 -12.222831
499 32.011673 8.219201 -12.900115
500 31.432418 10.213012 -13.752451
501 30.729113 12.166516 -14.766397
502 29.904534 14.072006 -15.925963
503 28.961936 15.921959 -17.212861
504 27.905038 17.709076 -18.606796
505 26.738012 19.426303 -20.085785
506 25.465463 21.066863 -21.626503
507 24.092413 22.624282 -23.204653
508 22.624282 24.092413 -24.795347
509 21.066863 25.465463 -26.373497
510 19.426303 26.738012 -27.914215
511 17.709076 27.905038 -29.393204
512 15.921959 28.961936 -30.787139
513 14.072006 29.904534 -32.074037
514 12.166516 30.729113 -33.233603
515 10.213012 31.432418 -34.247549
516 8.219201 32.011673 -35.099885
517 6.192952 32.464594 -35.777169
518 4.142263 32.789391 -36.26872
519 2.075227 32.984783 -36.566786
520 0 33.05 -36.666667
521 35 0 -6.666667
522 34.930935 2.197668 -6.771804
523 34.724015 4.386663 -7.085558
524 34.380054 6.558346 -7.60298
525 33.900411 8.704146 -8.315911
526 33.286978 10.815595 -9.213107000000001
527 32.542177 12.884359 -10.280418
528 31.668947 14.902275 -11.501013
529 30.670734 16.861379 -12.855643
530 29.551477 18.753938 -14.322943
531 28.315595 20.572484 -15.879773
532 26.967963 22.30984 -17.501582
533 25.513902 23.959149 -19.162793
534 23.959149 25.513902 -20.837207
535 22.30984 26.967963 -22.498418
536 20.572484 28.315595 -24.120227
537 18.753938 29.551477 -25.677057
538 16.861379 30.670734 -27.144357
539 14.902275 31.668947 -28.498987
540 12.884359 32.542177 -29.719582
541 10.815595 33.286978 -30.786893
542 8.704146 33.900411 -31.684089
543 6.558346 34.380054 -32.39702
544 4.386663 34.724015 -32.914442
545 2.197668 34.930935 -33.228196
546 0 35 -33.333333
547 37.05 0 -2
548 36.97689 2.326389 -2.110394
549 36.75785 4.643596 -2.439836
550 36.393743 6.942478 -2.983129
551 35.886006 9.21396 -3.731706
552 35.236644 11.44908 -4.673762
553 34.448219 13.639015 -5.794439
554 33.523842 15.775123 -7.076064
555 32.467162 17.848974 -8.498424999999999
556 31.28235 19.852383 -10.03909
557 29.97408 21.777444 -11.673762
558 28.547516 23.616559 -13.376662
559 27.008288 25.36247 -15.120933
560 25.36247 27.008288 -16.879067
561 23.616559 28.547516 -18.623338
562 21.777444 29.97408 -20.326238
563 19.852383 31.28235 -21.96091
564 17.848974 32.467162 -23.501575
565 15.775123 33.523842 -24.923936
566 13.639015 34.448219 -26.205561
567 11.44908 35.236644 -27.326238
568 9.21396 35.886006 -28.268294
569 6.942478 36.393743 -29.016871
570 4.643596 36.75785 -29.560164
571 2.326389 36.97689 -29.889606
572 0 37.05 -30
573 39.2 0 2.666667
574 39.122648 2.461388 2.551016
575 38.890896 4.913063 2.205886
576 38.50566 7.345348 1.636722
577 37.96846 9.748644000000001 0.852498
578 37.281415 12.113466 -0.134417
579 36.447238 14.430482 -1.30846
580 35.46922 16.690548 -2.651115
581 34.351222 18.884744 -4.141207
582 33.097655 21.00441 -5.755237
583 31.713466 23.041182 -7.467751
584 30.204119 24.98702 -9.251741000000001
585 28.57557 26.834247 -11.079072
586 26.834247 28.57557 -12.920928
587 24.98702 30.204119 -14.748259
588 23.041182 31.713466 -16.532249
589 21.00441 33.097655 -18.244763
590 18.884744 34.351222 -19.858793
591 16.690548 35.46922 -21.348885
592 14.430482 36.447238 -22.69154
593 12.113466 37.281415 -23.865583
594 9.748644000000001 37.96846 -24.852498
595 7.345348 38.50566 -25.636722
596 4.913063 38.890896 -26.205886
597 2.461388 39.122648 -26.551016
598 0 39.2 -26.666667
599 41.45 0 7.333333
600 41.368208 2.602667 7.212425
601 41.123154 5.195063 6.851608
602 40.715807 7.766955 6.256573
603 40.147772 10.308196 5.436702
604 39.421293 12.808754 4.404927
605 38.539235 15.258763 3.177519
606 37.505081 17.648552 1.773835
607 36.322912 19.96869 0.216011
608 34.997393 22.210021 -1.471384
609 33.533754 24.363699 -3.261739
610 31.937774 26.421224 -5.12682
611 30.21575 28.374478 -7.037212
612 28.374478 30.21575 -8.962788
613 26.421224 31.937774 -10.87318
614 24.363699 33.533754 -12.738261
615 22.210021 34.997393 -14.528616
616 19.96869 36.322912 -16.216011
617 17.648552 37.505081 -17.773835
618 15.258763 38.539235 -19.177519
619 12.808754 39.421293 -20.404927
620 10.308196 40.147772 -21.436702
621 7.766955 40.715807 -22.256573
622 5.195063 41.123154 -22.851608
623 2.602667 41.368208 -23.212425
624 0 41.45 -23.333333
625 43.8 0 12
626 43.713571 2.750225 11.873835
627 43.454624 5.489596 11.497331
628 43.024182 8.207302 10.876424
629 42.423942 10.892617 10.020907
630 41.656275 13.534944 8.944272
631 40.72421 16.123855 7.663498
632 39.631425 18.649133 6.198784
633 38.382233 21.100811 4.573229
634 36.981563 23.469214 2.812469
635 35.434944 25.744994 0.944272
636 33.74848 27.919171 -1.001899
637 31.928826 29.983163 -2.995352
638 29.983163 31.928826 -5.004648
639 27.919171 33.74848 -6.998101
640 25.744994 35.434944 -8.944272
641 23.469214 36.981563 -10.812469
642 21.100811 38.382233 -12.573229
643 18.649133 39.631425 -14.198784
644 16.123855 40.72421 -15.663498
645 13.534944 41.656275 -16.944272
646 10.892617 42.423942 -18.020907
647 8.207302 43.024182 -18.876424
648 5.489596 43.454624 -19.497331
649 2.750225 43.713571 -19.873835
650 0 43.8 -20
651 46.25 0 16.666667
652 46.158736 2.904062 16.535245
653 45.885305 5.796662 16.143053
654 45.430785 8.666385999999999 15.496275
655 44.796971 11.501907 14.605111
656 43.986364 14.292036 13.483617
657 43.002162 17.025761 12.149477
658 41.848251 19.692292 10.623733
659 40.529184 22.281107 8.930446999999999
660 39.050167 24.781989 7.096322
661 37.417036 27.185068 5.150283
662 35.636237 29.48086 3.123022
663 33.714799 31.660304 1.046509
664 31.660304 33.714799 -1.046509
665 29.48086 35.636237 -3.123022
666 27.185068 37.417036 -5.150283
667 24.781989 39.050167 -7.096322
668 22.281107 40.529184 -8.930446999999999
669 19.692292 41.848251 -10.623733
670 17.025761 43.002162 -12.149477
671 14.292036 43.986364 -13.483617
672 11.501907 44.796971 -14.605111
673 8.666385999999999 45.430785 -15.496275
674 5.796662 45.885305 -16.143053
675 2.904062 46.158736 -16.535245
676 0 46.25 -16.666667
677 48.8 0 21.333333
678 48.703704 3.064177 21.196655
679 48.415197 6.116262 20.788775
680 47.935618 9.144208000000001 20.116126
681 47.266858 12.136066 19.189316
682 46.411558 15.080029 18.022961
683 45.373093 17.964478 16.635456
684 44.15556 20.778029 15.048682
685 42.763766 23.509579 13.287664
686 41.203203 26.148348 11.380174
687 39.480029 28.68392 9.356294999999999
688 37.601046 31.106291 7.247943
689 35.573669 33.405899 5.088369
690 33.405899 35.573669 2.911631
691 31.106291 37.601046 0.752057
692 28.68392 39.480029 -1.356295
693 26.148348 41.203203 -3.380174
694 23.509579 42.763766 -5.287664
695 20.778029 44.15556 -7.048682
696 17.964478 45.373093 -8.635456
697 15.080029 46.411558 -10.022961
698 12.136066 47.266858 -11.189316
699 9.144208000000001 47.935618 -12.116126
700 6.116262 48.415197 -12.788775
701 3.064177 48.703704 -13.196655
702 0 48.8 -13.333333
703 51.45 0 26
704 51.348475 3.230572 25.858065
705 51.044301 6.448395 25.434497
706 50.538679 9.640769000000001 24.735977
707 49.833604 12.795095 23.77352
708 48.931858 15.898924 22.562306
709 47.837 18.940008 21.121435
710 46.553352 21.906345 19.473632
711 45.085979 24.786227 17.644882
712 43.440672 27.568289 15.664027
713 41.623924 30.241551 13.562306
714 39.642906 32.795464 11.372864
715 37.505436 35.219949 9.130229
716 35.219949 37.505436 6.869771
717 32.795464 39.642906 4.627136
718 30.241551 41.623924 2.437694
719 27.568289 43.440672 0.335973
720 24.786227 45.085979 -1.644882
721 21.906345 46.553352 -3.473632
722 18.940008 47.837 -5.121435
723 15.898924 48.931858 -6.562306
724 12.795095 49.833604 -7.77352
725 9.640769000000001 50.538679 -8.735977
726 6.448395 51.044301 -9.434497
727 3.230572 51.348475 -9.858065
728 0 51.45 -10
729 54.2 0 30.666667
730 54.093049 3.403246 30.519474
731 53.772617 6.793061 30.080219
732 53.239969 10.156067 29.355828
733 52.497207 13.478992 28.357725
734 51.547263 16.748721 27.101651
735 50.393886 19.952351 25.607414
736 49.041626 23.077238 23.898581
737 47.495822 26.111049 22.0021
738 45.762574 29.041812 19.94788
739 43.848721 31.857961 17.768317
740 41.761818 34.54838 15.497785
741 39.5101 37.102453 13.17209
742 37.102453 39.5101 10.82791
743 34.54838 41.761818 8.502215
744 31.857961 43.848721 6.231683
745 29.041812 45.762574 4.05212
746 26.111049 47.495822 1.9979
747 23.077238 49.041626 0.101419
748 19.952351 50.393886 -1.607414
749 16.748721 51.547263 -3.101651
750 13.478992 52.497207 -4.357725
751 10.156067 53.239969 -5.355828
752 6.793061 53.772617 -6.080219
753 3.403246 54.093049 -6.519474
754 0 54.2 -6.666667
755 57.05 0 35.333333
756 56.937425 3.582199 35.180884
757 56.600144 7.150261 34.725941
758 56.039488 10.690104 33.975679
759 55.257669 14.187758 32.941929
760 54.257774 17.62942 31.640995
761 53.043749 21.001506 30.093393
762 51.620383 24.290709 28.32353
763 49.993296 27.484047 26.359318
764 48.168908 30.568919 24.231733
765 46.15442 33.533149 21.974329
766 43.957781 36.365039 19.622705
767 41.58766 39.053412 17.21395
768 39.053412 41.58766 14.78605
769 36.365039 43.957781 12.377295
770 33.533149 46.15442 10.025671
771 30.568919 48.168908 7.768267
772 27.484047 49.993296 5.640682
773 24.290709 51.620383 3.67647
774 21.001506 53.043749 1.906607
775 17.62942 54.257774 0.359005
776 14.187758 55.257669 -0.941929
777 10.690104 56.039488 -1.975679
778 7.150261 56.600144 -2.725941
779 3.582199 56.937425 -3.180884
780 0 57.05 -3.333333
781 60 0 40
782 59.881604 3.767431 39.842294
783 59.526882 7.519994 39.371663
784 58.937235 11.242879 38.59553
785 58.11499 14.921393 37.526134
786 57.063391 18.54102 36.18034
787 55.786589 22.087473 34.579373
788 54.289623 25.546757 32.74848
789 52.578401 28.90522 30.716536
790 50.659676 32.149608 28.515586
791 48.54102 35.267115 26.18034
792 46.230795 38.245439 23.747626
793 43.738118 41.072826 21.25581
794 41.072826 43.738118 18.74419
795 38.245439 46.230795 16.252374
796 35.267115 48.54102 13.81966
797 32.149608 50.659676 11.484414
798 28.90522 52.578401 9.283464
799 25.546757 54.289623 7.25152
800 22.087473 55.786589 5.420627
801 18.54102 57.063391 3.81966
802 14.921393 58.11499 2.473866
803 11.242879 58.937235 1.40447
804 7.519994 59.526882 0.628337
805 3.767431 59.881604 0.157706
806 0 60 0
807 60 0 45
808 59.881604 3.767431 44.842294
809 59.526882 7.519994 44.371663
810 58.937235 11.242879 43.59553
811 58.11499 14.921393 42.526134
812 57.063391 18.54102 41.18034
813 55.786589 22.087473 39.579373
814 54.289623 25.546757 37.74848
815 52.578401 28.90522 35.716536
816 50.659676 32.149608 33.515586
817 48.54102 35.267115 31.18034
818 46.230795 38.245439 28.747626
819 43.738118 41.072826 26.25581
820 41.072826 43.738118 23.74419
821 38.245439 46.230795 21.252374
822 35.267115 48.54102 18.81966
823 32.149608 50.659676 16.484414
824 28.90522 52.578401 14.283464
825 25.546757 54.289623 12.25152
826 22.087473 55.786589 10.420627
827 18.54102 57.063391 8.819660000000001
828 14.921393 58.11499 7.473866
829 11.242879 58.937235 6.40447
830 7.519994 59.526882 5.628337
831 3.767431 59.881604 5.157706
832 0 60 5
833 60 0 50
834 59.881604 3.767431 49.842294
835 59.526882 7.519994 49.371663
836 58.937235 11.242879 48.59553
837 58.11499 14.921393 47.526134
838 57.063391 18.54102 46.18034
839 55.786589 22.087473 44.579373
840 54.289623 25.546757 42.74848
841 52.578401 28.90522 40.716536
842 50.659676 32.149608 38.515586
843 48.54102 35.267115 36.18034
844 46.230795 38.245439 33.747626
845 43.738118 41.072826 31.25581
846 41.072826 43.738118 28.74419
847 38.245439 46.230795 26.252374
848 35.267115 48.54102 23.81966
849 32.149608 50.659676 21.484414
850 28.90522 52.578401 19.283464
851 25.546757 54.289623 17.25152
852 22.087473 55.786589 15.420627
853 18.54102 57.063391 13.81966
854 14.921393 58.11499 12.473866
855 11.242879 58.937235 11.40447
856 7.519994 59.526882 10.628337
857 3.767431 59.881604 10.157706
858 0 60 10
859 0 0 -100
860 0 0 -95.333333
861 0 0 -90.666667
862 0 0 -86
863 0 0 -81.333333
864 0 0 -76.666667
865 0 0 -72
866 0 0 -67.333333
867 0 0 -62.666667
868 0 0 -58
869 0 0 -53.333333
870 0 0 -48.666667
871 0 0 -44
872 0 0 -39.333333
873 0 0 -34.666667
874 0 0 -30
875 0 0 -25.333333
876 0 0 -20.666667
877 0 0 -16
878 0 0 -11.333333
879 0 0 -6.666667
880 0 0 -2
881 0 0 2.666667
882 0 0 7.333333
883 0 0 12
884 0 0 16.666667
885 0 0 21.333333
886 0 0 26
887 0 0 30.666667
888 0 0 35.333333
889 0 0 40
890 0 0 45
891 0 0 50
892 10.59962472916667 10.59962472916667 -100
893 10.63495689583334 10.63495689583333 -96
894 10.74095297916666 10.74095297916667 -92
895 10.91761343750002 10.91761343749998 -88
896 11.16493775000002 11.16493774999998 -84
897 11.48292645833332 11.48292645833334 -80
898 11.87157952083334 11.87157952083333 -76
899 12.33089697916666 12.33089697916668 -72
900 12.8608778333333 12.86087783333337 -68.00000000000003
901 13.46152304166667 13.46152304166666 -64
902 14.13283312499997 14.13283312500003 -60.00000000000003
903 14.87480708333334 14.87480708333333 -56
904 15.68744493750003 15.68744493749997 -51.99999999999996
905 20.03555486487093 12.15548633370231 -44.00736452690803
906 12.15548633370226 20.03555486487096 -51.99263547309201
907 21.18143154955647 12.86771595144883 -39.70994268262576
908 12.86771595144886 21.18143154955646 -48.29005731737422
909 22.41441227859641 13.62902770784371 -35.41059167464019
910 13.6290277078437 22.41441227859641 -44.58940832535981
911 23.73449893229237 14.43943083645728 -31.10912122933051
912 14.43943083645721 23.73449893229241 -40.89087877066954
913 25.14168943237161 15.29893206334257 -26.80542520545874
914 15.29893206334258 25.1416894323716 -37.19457479454125
915 26.63598356686023 16.20753398133319 -22.49946119400704
916 16.20753398133309 26.6359835668603 -33.50053880599305
917 28.21738179590267 17.16523674173938 -18.19123491888809
918 17.16523674173945 28.21738179590263 -29.80876508111185
919 31.92740549177005 14.28389766620498 -11.1373395174768
920 24.73245783333333 24.73245783333334 -20.00000000000001
921 14.28389766620498 31.92740549177006 -28.8626604825232
922 33.80273037112209 15.10869357951254 -6.686920167761976
923 26.18107310416666 26.18107310416668 -16.00000000000001
924 15.10869357951251 33.80273037112211 -25.31307983223805
925 35.7710273611637 15.97036837848706 -2.234255193715269
926 27.70035270833331 27.70035270833336 -12.00000000000003
927 15.97036837848694 35.77102736116375 -21.7657448062848
928 37.83228927701705 16.8689307197171 2.220536636989692
929 29.29029670833339 29.29029670833327 -7.999999999999936
930 16.86893071971718 37.83228927701701 -18.22053663698964
931 39.9865040284278 17.8043945786328 6.677322010294711
932 30.95090412500003 30.95090412499998 -3.999999999999975
933 17.8043945786328 39.98650402842779 -14.67732201029471
934 43.58033984223973 15.39491049631642 12.9344509966254
935 37.0157442464846 27.6782235137551 4.700554125502089
936 27.67822351375521 37.01574424648452 -4.700554125501998
937 15.39491049631654 43.58033984223968 -12.93445099662534
938 45.99288758648244 16.21611345594754 17.46485175895921
939 39.06497182547019 29.19308267567776 8.898070954146279
940 29.19308267567783 39.06497182547013 -0.898070954146217
941 16.21611345594764 45.99288758648241 -9.464851758959153
942 48.50098591262186 17.06679564081909 21.99660748858307
943 41.19543161919273 30.7661766648493 13.09664435824525
944 30.76617666484925 41.19543161919277 2.9033556417547
945 17.06679564081901 48.50098591262189 -5.996607488583116
946 51.10461782591512 17.94699416270893 26.52960141202963
947 43.4071225312971 32.39750587769723 17.29620200010531
948 32.39750587769709 43.40712253129719 6.703797999894577
949 17.9469941627088 51.10461782591517 -2.52960141202969
950 53.80376392250562 18.85675152053961 31.06372044542934
951 45.70003953739518 34.08707441476709 21.49667108601176
952 34.08707441476716 45.70003953739512 10.50332891398831
953 18.85675152053969 53.8037639225056 0.9362795545706946
954 57.58215712615224 16.72006624245352 36.84527627529714
955 51.36132540540929 30.93993760116672 29.324971361591
956 42.39849887499997 42.39849887500004 19.99999999999997
957 30.93993760116661 51.36132540540935 10.67502863840893
958 16.72006624245334 57.58215712615228 3.154723724702794
959 57.58215712615224 16.72006624245352 41.84527627529714
960 51.36132540540929 30.93993760116672 34.324971361591
961 42.39849887499997 42.39849887500004 24.99999999999997
962 30.93993760116661 51.36132540540935 15.67502863840894
963 16.72006624245334 57.58215712615228 8.154723724702794
964 57.58215712615223 16.72006624245352 46.84527627529714
965 51.36132540540927 30.93993760116672 39.32497136159098
966 42.39849887499997 42.39849887500003 29.99999999999996
967 30.9399376011666 51.36132540540935 20.67502863840893
968 16.72006624245334 57.58215712615228 13.15472372470279
969 0 9.1 -68
970 0 9.524999999999981 -63.99999999999999
971 0 9.999999999999993 -60
972 0 10.52500000000001 -56.00000000000001
973 10.52499999999999 0 -48.666667
974 0 11.10000000000001 -52.00000000000001
975 11.09999999999999 0 -44
976 0 11.72499999999998 -47.99999999999999
977 11.72499999999999 0 -39.333333
978 0 12.39999999999999 -43.99999999999999
979 12.4 0 -34.666667
980 0 13.12500000000001 -40.00000000000001
981 13.125 0 -30
982 0 13.89999999999999 -35.99999999999999
983 13.90000000000001 0 -25.333333
984 0 14.72499999999999 -31.99999999999999
985 14.72500000000003 0 -20.666667
986 0 15.59999999999997 -27.99999999999998
987 15.60000000000001 0 -16
988 0 22.03333333333333 -28.22222233333333
989 0 11.01666666666666 -19.77777766666666
990 16.52499999999996 0 -11.333333
991 0 23.33333333333333 -24.44444433333333
992 0 11.66666666666669 -15.55555566666668
993 17.5 0 -6.666667
994 0 24.7 -20.66666666666666
995 0 12.34999999999999 -11.33333333333333
996 18.52500000000005 0 -2
997 0 26.13333333333334 -16.88888900000001
998 0 13.06666666666667 -7.111111000000001
999 19.59999999999995 0 2.666667
1000 0 27.63333333333333 -13.11111099999999
1001 0 13.81666666666661 -2.888888999999956
1002 13.81666666666667 0 7.333333
1003 27.63333333333334 0 7.333333
1004 0 29.20000000000002 -9.333333333333353
1005 0 14.60000000000002 1.333333333333321
1006 14.59999999999998 0 12
1007 29.19999999999997 0 12
1008 0 30.83333333333332 -5.555555666666658
1009 0 15.4166666666666 5.555555666666713
1010 15.41666666666667 0 16.666667
1011 30.83333333333334 0 16.666667
1012 0 32.5333333333333 -1.777777666666646
1013 0 16.26666666666662 9.777777666666697
1014 16.26666666666664 0 21.333333
1015 32.5333333333333 0 21.333333
1016 0 38.58749999999996 -0.9999999999999751
1017 0 25.72499999999997 8.000000000000021
1018 0 12.86249999999998 17.00000000000001
1019 17.15000000000001 0 26
1020 34.3 0 26
1021 0 40.64999999999997 2.666666500000021
1022 0 27.09999999999996 12.00000000000003
1023 0 13.54999999999998 21.33333350000002
1024 18.06666666666662 0 30.666667
1025 36.13333333333331 0 30.666667
1026 0 42.78749999999999 6.333333500000011
1027 0 28.52499999999997 16.00000000000002
1028 0 14.26249999999997 25.66666650000002
1029 19.0166666666667 0 35.333333
1030 38.03333333333335 0 35.333333
1031 0 45 10
1032 0 30 20
1033 0 15 30
1034 20 0 40
1035 40 0 40
1036 0 45 15
1037 0 30 25
1038 0 15 35
1039 20 0 45
1040 40 0 45
1041 0 45 20
1042 0 30 30
1043 0 15 40
1044 20 0 50
1045 40 0 50
1046 10.59962472916667 10.59962472916667 -100
1047 0 16.55919051020631 -81.38584473501444
1048 0 21.07510134743352 -63.25734704561548
1049 0 28.14229952130419 -45.95824775307867
1050 0 37.27198650657073 -29.64852262840167
1051 0 48.01311005519321 -14.34810755976526
1052 57.58215712615224 16.72006624245351 36.84527627529714
1053 51.36132540540928 30.93993760116671 29.32497136159099
1054 42.39849887499997 42.39849887500002 19.99999999999997
1055 30.93993760116661 51.36132540540934 10.67502863840894
1056 16.72006624245335 57.58215712615228 3.154723724702797
1057 15.79576698117124 0 -81.38278426859419
1058 18.16030248275798 0 -62.89895783481171
1059 22.02874005859661 0 -44.67001907109479
1060 27.30322806683527 0 -26.79658937331515
1061 33.86489869478219 0 -9.353922436392608
1062 41.58565367229365 0 7.608220441360943
1063 50.33768302226208 0 24.06258175318275
1064 0 7.5 -100
1065 0 0 -79.99999988774448
1066 0 0 -59.99999939567522
1067 0 0 -39.9999991357759
1068 0 0 -19.99999726056996
1069 0 0 3.578848244867316e-06
1070 0 0 20.00001320971804
1071 0 44.99999999999999 10.00000000000001
1072 0 29.99999999999999 20.00000000000001
1073 0 15 30
1074 7.5 0 -100
1075 20.00000000000001 0 40
1076 39.99999999999999 0 40
1077 57.58215712615224 16.72006624245351 36.84527627529714
1078 51.36132540540928 30.93993760116671 29.32497136159099
1079 42.39849887499997 42.39849887500002 19.99999999999997
1080 30.93993760116661 51.36132540540934 10.67502863840894
1081 16.72006624245335 57.58215712615228 3.154723724702797
1082 0 60 5
1083 57.58215712615224 16.72006624245351 46.84527627529714
1084 51.36132540540929 30.9399376011667 39.324971361591
1085 42.39849887499997 42.39849887500002 29.99999999999997
1086 30.93993760116661 51.36132540540934 20.67502863840894
1087 16.72006624245335 57.58215712615228 13.1547237247028
1088 60 0 45
1089 0 44.99999999999999 10.00000000000001
1090 0 29.99999999999999 20.00000000000001
1091 0 15 30
1092 0 0 45
1093 0 44.99999999999999 20.00000000000001
1094 0 29.99999999999999 30.00000000000001
1095 0 15 40
1096 20.00000000000001 0 40
1097 39.99999999999999 0 40
1098 20.00000000000001 0 50
1099 39.99999999999999 0 50
1100 14.82660613246876 39.0267957921101 -18.94071099872911
1101 35.35555054272215 35.36914411189368 5.888018779547871
1102 29.54346000752133 14.84819335180565 -16.37714984627157
1103 11.74394289081687 31.12716698972219 -33.0426633122099
1104 15.55327856494404 15.4559559336876 -52.82077278351046
1105 47.05722885358331 13.59791723332016 18.99940864633764
1106 11.81253502033574 13.46083112180463 -70.08831816139981
1107 37.99112483937351 15.11593820941405 2.06415709079864
1108 28.66511281095736 30.01918307310985 -8.559772172385253
1109 21.74792922684231 16.43373472344905 -34.47676641078731
1110 23.72520241364146 44.64805486484417 -3.204313217740837
1111 10.28926429920424 51.38517523167015 -7.335582166908416
1112 43.78436255462857 26.94771079231248 16.08265128941733
1113 10.7559645951898 11.08175510123831 -88.01338304489603
1114 22.67711380647409 25.82465018575857 -22.92041710048874
1115 0 30.80609466351739 -2.448749234616737
1116 0 14.68068852825722 8.674832736018203
1117 0 17.76258053259707 -30.56577274284999
1118 0 13.65797162637448 -10.89029463676653
1119 0 13.95603625418261 -47.75989996201393
1120 0 9.641645510659046 -70.19262662742817
1121 0 7.47108620834104 -90.77762632199884
1122 0 28.386965190601 -17.69417764555205
1123 15.56390627346719 0 8.282440503375371
1124 30.43644422723708 0 22.13076575213347
1125 12.51614561256483 0 26.91234364133587
1126 15.67290129194505 0 -10.23298738663006
1127 12.45573816938786 0 -27.56440869084951
1128 8.899374846820196 0 -71.10741198022218
1129 7.225738585689321 0 -90.73527270926336
1130 10.51007062548501 0 -52.49185846079264
1131 28.61214985053493 0 3.548481635642217
1132 30 0 45
1133 9.769651508183664 0 45
1134 50.23034849181633 0 45
1135 17.28332612176588 24.91173642485192 35.25912446416405
1136 35.17044852094926 28.23228882228457 36.92695648091036
1137 15.62522357424075 39.75748928077589 25.32673413329668
1138 28.15905790043963 13.61752944078481 43.1553334427666
1139 42.42020793521485 18.02435546678076 43.51198688687161
1140 28.88998767638522 38.33972955300022 29.095432173017
1141 13.41795855140928 10.97897280983919 43.37152272348764
$EndNodes
$Elements
1400
1 15 2 0 1 1
2 15 2 0 2 2
3 15 2 0 3 3
4 15 2 0 4 4
5 15 2 0 5 5
6 15 2 0 6 6
7 15 2 0 7 7
8 15 2 0 8 8
9 15 2 0 9 9
10 15 2 0 10 10
11 15 2 0 11 11
12 15 2 0 12 12
13 15 2 0 13 13
14 15 2 0 14 14
15 15 2 0 15 15
16 15 2 0 16 16
17 15 2 0 17 17
18 15 2 0 18 18
19 15 2 0 19 19
20 15 2 0 20 20
21 15 2 0 21 21
22 15 2 0 22 22
23 15 2 0 23 23
24 15 2 0 24 24
25 15 2 0 25 25
26 15 2 0 26 26
27 15 2 0 27 27
28 15 2 0 28 28
29 15 2 0 29 29
30 15 2 0 30 30
31 15 2 0 31 31
32 15 2 0 32 32
33 15 2 0 33 33
34 15 2 0 34 34
35 15 2 0 35 35
36 15 2 0 36 36
37 15 2 0 37 37
38 15 2 0 38 38
39 15 2 0 39 39
40 15 2 0 40 40
41 15 2 0 41 41
42 15 2 0 42 42
43 15 2 0 43 43
44 15 2 0 44 44
45 15 2 0 45 45
46 15 2 0 46 46
47 15 2 0 47 47
48 15 2 0 48 48
49 15 2 0 49 49
50 15 2 0 50 50
51 15 2 0 51 51
52 15 2 0 52 52
53 15 2 0 53 53
54 15 2 0 54 54
55 15 2 0 55 55
56 15 2 0 56 56
57 15 2 0 57 57
58 15 2 0 58 58
59 15 2 0 59 59
60 15 2 0 60 60
61 15 2 0 61 61
62 15 2 0 62 62
63 15 2 0 63 63
64 15 2 0 64 64
65 15 2 0 65 65
66 15 2 0 66 66
67 15 2 0 67 67
68 15 2 0 68 68
69 15 2 0 69 69
70 15 2 0 70 70
71 15 2 0 71 71
72 15 2 0 72 72
73 15 2 0 73 73
74 15 2 0 74 74
75 15 2 0 75 75
76 15 2 0 76 76
77 15 2 0 77 77
78 15 2 0 78 78
79 15 2 0 79 79
80 15 2 0 80 80
81 15 2 0 81 81
82 15 2 0 82 82
83 15 2 0 83 83
84 15 2 0 84 84
85 15 2 0 85 85
86 15 2 0 86 86
87 15 2 0 87 87
88 15 2 0 88 88
89 15 2 0 89 89
90 15 2 0 90 90
91 15 2 0 91 91
92 15 2 0 92 92
93 15 2 0 93 93
94 15 2 0 94 94
95 15 2 0 95 95
96 15 2 0 96 96
97 15 2 0 97 97
98 15 2 0 98 98
99 15 2 0 99 99
100 15 2 0 100 100
101 15 2 0 101 101
102 15 2 0 102 102
103 15 2 0 103 103
104 15 2 0 104 104
105 15 2 0 105 105
106 15 2 0 106 106
107 15 2 0 107 107
108 15 2 0 108 108
109 15 2 0 109 109
110 15 2 0 110 110
111 15 2 0 111 111
112 15 2 0 112 112
113 15 2 0 113 113
114 15 2 0 114 114
115 15 2 0 115 115
116 15 2 0 116 116
117 15 2 0 117 117
118 15 2 0 118 118
119 15 2 0 119 119
120 15 2 0 120 120
121 15 2 0 121 121
122 15 2 0 122 122
123 15 2 0 123 123
124 15 2 0 124 124
125 15 2 0 125 125
126 15 2 0 126 126
127 15 2 0 127 127
128 15 2 0 128 128
129 15 2 0 129 129
130 15 2 0 130 130
131 15 2 0 131 131
132 15 2 0 132 132
133 15 2 0 133 133
134 15 2 0 134 134
135 15 2 0 135 135
136 15 2 0 136 136
137 15 2 0 137 137
138 15 2 0 138 138
139 15 2 0 139 139
140 15 2 0 140 140
141 15 2 0 141 141
142 15 2 0 142 142
143 15 2 0 143 143
144 15 2 0 144 144
145 15 2 0 145 145
146 15 2 0 146 146
147 15 2 0 147 147
148 15 2 0 148 148
149 15 2 0 149 149
150 15 2 0 150 150
151 15 2 0 151 151
152 15 2 0 152 152
153 15 2 0 153 153
154 15 2 0 154 154
155 15 2 0 155 155
156 15 2 0 156 156
157 15 2 0 157 157
158 15 2 0 158 158
159 15 2 0 159 159
160 15 2 0 160 160
161 15 2 0 161 161
162 15 2 0 162 162
163 15 2 0 163 163
164 15 2 0 164 164
165 15 2 0 165 165
166 15 2 0 166 166
167 15 2 0 167 167
168 15 2 0 168 168
169 15 2 0 169 169
170 15 2 0 170 170
171 15 2 0 171 171
172 15 2 0 172 172
173 15 2 0 173 173
174 15 2 0 174 174
175 15 2 0 175 175
176 15 2 0 176 176
177 15 2 0 177 177
178 15 2 0 178 178
179 15 2 0 179 179
180 15 2 0 180 180
181 15 2 0 181 181
182 15 2 0 182 182
183 15 2 0 183 183
184 15 2 0 184 184
185 15 2 0 185 185
186 15 2 0 186 186
187 15 2 0 187 187
188 15 2 0 188 188
189 15 2 0 189 189
190 15 2 0 190 190
191 15 2 0 191 191
192 15 2 0 192 192
193 15 2 0 193 193
194 15 2 0 194 194
195 15 2 0 195 195
196 15 2 0 196 196
197 15 2 0 197 197
198 15 2 0 198 198
199 15 2 0 199 199
200 15 2 0 200 200
201 15 2 0 201 201
202 15 2 0 202 202
203 15 2 0 203 203
204 15 2 0 204 204
205 15 2 0 205 205
206 15 2 0 206 206
207 15 2 0 207 207
208 15 2 0 208 208
209 15 2 0 209 209
210 15 2 0 210 210
211 15 2 0 211 211
212 15 2 0 212 212
213 15 2 0 213 213
214 15 2 0 214 214
215 15 2 0 215 215
216 15 2 0 216 216
217 15 2 0 217 217
218 15 2 0 218 218
219 15 2 0 219 219
220 15 2 0 220 220
221 15 2 0 221 221
222 15 2 0 222 222
223 15 2 0 223 223
224 15 2 0 224 224
225 15 2 0 225 225
226 15 2 0 226 226
227 15 2 0 227 227
228 15 2 0 228 228
229 15 2 0 229 229
230 15 2 0 230 230
231 15 2 0 231 231
232 15 2 0 232 232
233 15 2 0 233 233
234 15 2 0 234 234
235 15 2 0 235 235
236 15 2 0 236 236
237 15 2 0 237 237
238 15 2 0 238 238
239 15 2 0 239 239
240 15 2 0 240 240
241 15 2 0 241 241
242 15 2 0 242 242
243 15 2 0 243 243
244 15 2 0 244 244
245 15 2 0 245 245
246 15 2 0 246 246
247 15 2 0 247 247
248 15 2 0 248 248
249 15 2 0 249 249
250 15 2 0 250 250
251 15 2 0 251 251
252 15 2 0 252 252
253 15 2 0 253 253
254 15 2 0 254 254
255 15 2 0 255 255
256 15 2 0 256 256
257 15 2 0 257 257
258 15 2 0 258 258
259 15 2 0 259 259
260 15 2 0 260 260
261 15 2 0 261 261
262 15 2 0 262 262
263 15 2 0 263 263
264 15 2 0 264 264
265 15 2 0 265 265
266 15 2 0 266 266
267 15 2 0 267 267
268 15 2 0 268 268
269 15 2 0 269 269
270 15 2 0 270 270
271 15 2 0 271 271
272 15 2 0 272 272
273 15 2 0 273 273
274 15 2 0 274 274
275 15 2 0 275 275
276 15 2 0 276 276
277 15 2 0 277 277
278 15 2 0 278 278
279 15 2 0 279 279
280 15 2 0 280 280
281 15 2 0 281 281
282 15 2 0 282 282
283 15 2 0 283 283
284 15 2 0 284 284
285 15 2 0 285 285
286 15 2 0 286 286
287 15 2 0 287 287
288 15 2 0 288 288
289 15 2 0 289 289
290 15 2 0 290 290
291 15 2 0 291 291
292 15 2 0 292 292
293 15 2 0 293 293
294 15 2 0 294 294
295 15 2 0 295 295
296 15 2 0 296 296
297 15 2 0 297 297
298 15 2 0 298 298
299 15 2 0 299 299
300 15 2 0 300 300
301 15 2 0 301 301
302 15 2 0 302 302
303 15 2 0 303 303
304 15 2 0 304 304
305 15 2 0 305 305
306 15 2 0 306 306
307 15 2 0 307 307
308 15 2 0 308 308
309 15 2 0 309 309
310 15 2 0 310 310
311 15 2 0 311 311
312 15 2 0 312 312
313 15 2 0 313 313
314 15 2 0 314 314
315 15 2 0 315 315
316 15 2 0 316 316
317 15 2 0 317 317
318 15 2 0 318 318
319 15 2 0 319 319
320 15 2 0 320 320
321 15 2 0 321 321
322 15 2 0 322 322
323 15 2 0 323 323
324 15 2 0 324 324
325 15 2 0 325 325
326 15 2 0 326 326
327 15 2 0 327 327
328 15 2 0 328 328
329 15 2 0 329 329
330 15 2 0 330 330
331 15 2 0 331 331
332 15 2 0 332 332
333 15 2 0 333 333
334 15 2 0 334 334
335 15 2 0 335 335
336 15 2 0 336 336
337 15 2 0 337 337
338 15 2 0 338 338
339 15 2 0 339 339
340 15 2 0 340 340
341 15 2 0 341 341
342 15 2 0 342 342
343 15 2 0 343 343
344 15 2 0 344 344
345 15 2 0 345 345
346 15 2 0 346 346
347 15 2 0 347 347
348 15 2 0 348 348
349 15 2 0 349 349
350 15 2 0 350 350
351 15 2 0 351 351
352 15 2 0 352 352
353 15 2 0 353 353
354 15 2 0 354 354
355 15 2 0 355 355
356 15 2 0 356 356
357 15 2 0 357 357
358 15 2 0 358 358
359 15 2 0 359 359
360 15 2 0 360 360
361 15 2 0 361 361
362 15 2 0 362 362
363 15 2 0 363 363
364 15 2 0 364 364
365 15 2 0 365 365
366 15 2 0 366 366
367 15 2 0 367 367
368 15 2 0 368 368
369 15 2 0 369 369
370 15 2 0 370 370
371 15 2 0 371 371
372 15 2 0 372 372
373 15 2 0 373 373
374 15 2 0 374 374
375 15 2 0 375 375
376 15 2 0 376 376
377 15 2 0 377 377
378 15 2 0 378 378
379 15 2 0 379 379
380 15 2 0 380 380
381 15 2 0 381 381
382 15 2 0 382 382
383 15 2 0 383 383
384 15 2 0 384 384
385 15 2 0 385 385
386 15 2 0 386 386
387 15 2 0 387 387
388 15 2 0 388 388
389 15 2 0 389 389
390 15 2 0 390 390
391 15 2 0 391 391
392 15 2 0 392 392
393 15 2 0 393 393
394 15 2 0 394 394
395 15 2 0 395 395
396 15 2 0 396 396
397 15 2 0 397 397
398 15 2 0 398 398
399 15 2 0 399 399
400 15 2 0 400 400
401 15 2 0 401 401
402 15 2 0 402 402
403 15 2 0 403 403
404 15 2 0 404 404
405 15 2 0 405 405
406 15 2 0 406 406
407 15 2 0 407 407
408 15 2 0 408 408
409 15 2 0 409 409
410 15 2 0 410 410
411 15 2 0 411 411
412 15 2 0 412 412
413 15 2 0 413 413
414 15 2 0 414 414
415 15 2 0 415 415
416 15 2 0 416 416
417 15 2 0 417 417
418 15 2 0 418 418
419 15 2 0 419 419
420 15 2 0 420 420
421 15 2 0 421 421
422 15 2 0 422 422
423 15 2 0 423 423
424 15 2 0 424 424
425 15 2 0 425 425
426 15 2 0 426 426
427 15 2 0 427 427
428 15 2 0 428 428
429 15 2 0 429 429
430 15 2 0 430 430
431 15 2 0 431 431
432 15 2 0 432 432
433 15 2 0 433 433
434 15 2 0 434 434
435 15 2 0 435 435
436 15 2 0 436 436
437 15 2 0 437 437
438 15 2 0 438 438
439 15 2 0 439 439
440 15 2 0 440 440
441 15 2 0 441 441
442 15 2 0 442 442
443 15 2 0 443 443
444 15 2 0 444 444
445 15 2 0 445 445
446 15 2 0 446 446
447 15 2 0 447 447
448 15 2 0 448 448
449 15 2 0 449 449
450 15 2 0 450 450
451 15 2 0 451 451
452 15 2 0 452 452
453 15 2 0 453 453
454 15 2 0 454 454
455 15 2 0 455 455
456 15 2 0 456 456
457 15 2 0 457 457
458 15 2 0 458 458
459 15 2 0 459 459
460 15 2 0 460 460
461 15 2 0 461 461
462 15 2 0 462 462
463 15 2 0 463 463
464 15 2 0 464 464
465 15 2 0 465 465
466 15 2 0 466 466
467 15 2 0 467 467
468 15 2 0 468 468
469 15 2 0 469 469
470 15 2 0 470 470
471 15 2 0 471 471
472 15 2 0 472 472
473 15 2 0 473 473
474 15 2 0 474 474
475 15 2 0 475 475
476 15 2 0 476 476
477 15 2 0 477 477
478 15 2 0 478 478
479 15 2 0 479 479
480 15 2 0 480 480
481 15 2 0 481 481
482 15 2 0 482 482
483 15 2 0 483 483
484 15 2 0 484 484
485 15 2 0 485 485
486 15 2 0 486 486
487 15 2 0 487 487
488 15 2 0 488 488
489 15 2 0 489 489
490 15 2 0 490 490
491 15 2 0 491 491
492 15 2 0 492 492
493 15 2 0 493 493
494 15 2 0 494 494
495 15 2 0 495 495
496 15 2 0 496 496
497 15 2 0 497 497
498 15 2 0 498 498
499 15 2 0 499 499
500 15 2 0 500 500
501 15 2 0 501 501
502 15 2 0 502 502
503 15 2 0 503 503
504 15 2 0 504 504
505 15 2 0 505 505
506 15 2 0 506 506
507 15 2 0 507 507
508 15 2 0 508 508
509 15 2 0 509 509
510 15 2 0 510 510
511 15 2 0 511 511
512 15 2 0 512 512
513 15 2 0 513 513
514 15 2 0 514 514
515 15 2 0 515 515
516 15 2 0 516 516
517 15 2 0 517 517
518 15 2 0 518 518
519 15 2 0 519 519
520 15 2 0 520 520
521 15 2 0 521 521
522 15 2 0 522 522
523 15 2 0 523 523
524 15 2 0 524 524
525 15 2 0 525 525
526 15 2 0 526 526
527 15 2 0 527 527
528 15 2 0 528 528
529 15 2 0 529 529
530 15 2 0 530 530
531 15 2 0 531 531
532 15 2 0 532 532
533 15 2 0 533 533
534 15 2 0 534 534
535 15 2 0 535 535
536 15 2 0 536 536
537 15 2 0 537 537
538 15 2 0 538 538
539 15 2 0 539 539
540 15 2 0 540 540
541 15 2 0 541 541
542 15 2 0 542 542
543 15 2 0 543 543
544 15 2 0 544 544
545 15 2 0 545 545
546 15 2 0 546 546
547 15 2 0 547 547
548 15 2 0 548 548
549 15 2 0 549 549
550 15 2 0 550 550
551 15 2 0 551 551
552 15 2 0 552 552
553 15 2 0 553 553
554 15 2 0 554 554
555 15 2 0 555 555
556 15 2 0 556 556
557 15 2 0 557 557
558 15 2 0 558 558
559 15 2 0 559 559
560 15 2 0 560 560
561 15 2 0 561 561
562 15 2 0 562 562
563 15 2 0 563 563
564 15 2 0 564 564
565 15 2 0 565 565
566 15 2 0 566 566
567 15 2 0 567 567
568 15 2 0 568 568
569 15 2 0 569 569
570 15 2 0 570 570
571 15 2 0 571 571
572 15 2 0 572 572
573 15 2 0 573 573
574 15 2 0 574 574
575 15 2 0 575 575
576 15 2 0 576 576
577 15 2 0 577 577
578 15 2 0 578 578
579 15 2 0 579 579
580 15 2 0 580 580
581 15 2 0 581 581
582 15 2 0 582 582
583 15 2 0 583 583
584 15 2 0 584 584
585 15 2 0 585 585
586 15 2 0 586 586
587 15 2 0 587 587
588 15 2 0 588 588
589 15 2 0 589 589
590 15 2 0 590 590
591 15 2 0 591 591
592 15 2 0 592 592
593 15 2 0 593 593
594 15 2 0 594 594
595 15 2 0 595 595
596 15 2 0 596 596
597 15 2 0 597 597
598 15 2 0 598 598
599 15 2 0 599 599
600 15 2 0 600 600
601 15 2 0 601 601
602 15 2 0 602 602
603 15 2 0 603 603
604 15 2 0 604 604
605 15 2 0 605 605
606 15 2 0 606 606
607 15 2 0 607 607
608 15 2 0 608 608
609 15 2 0 609 609
610 15 2 0 610 610
611 15 2 0 611 611
612 15 2 0 612 612
613 15 2 0 613 613
614 15 2 0 614 614
615 15 2 0 615 615
616 15 2 0 616 616
617 15 2 0 617 617
618 15 2 0 618 618
619 15 2 0 619 619
620 15 2 0 620 620
621 15 2 0 621 621
622 15 2 0 622 622
623 15 2 0 623 623
624 15 2 0 624 624
625 15 2 0 625 625
626 15 2 0 626 626
627 15 2 0 627 627
628 15 2 0 628 628
629 15 2 0 629 629
630 15 2 0 630 630
631 15 2 0 631 631
632 15 2 0 632 632
633 15 2 0 633 633
634 15 2 0 634 634
635 15 2 0 635 635
636 15 2 0 636 636
637 15 2 0 637 637
638 15 2 0 638 638
639 15 2 0 639 639
640 15 2 0 640 640
641 15 2 0 641 641
642 15 2 0 642 642
643 15 2 0 643 643
644 15 2 0 644 644
645 15 2 0 645 645
646 15 2 0 646 646
647 15 2 0 647 647
648 15 2 0 648 648
649 15 2 0 649 649
650 15 2 0 650 650
651 15 2 0 651 651
652 15 2 0 652 652
653 15 2 0 653 653
654 15 2 0 654 654
655 15 2 0 655 655
656 15 2 0 656 656
657 15 2 0 657 657
658 15 2 0 658 658
659 15 2 0 659 659
660 15 2 0 660 660
661 15 2 0 661 661
662 15 2 0 662 662
663 15 2 0 663 663
664 15 2 0 664 664
665 15 2 0 665 665
666 15 2 0 666 666
667 15 2 0 667 667
668 15 2 0 668 668
669 15 2 0 669 669
670 15 2 0 670 670
671 15 2 0 671 671
672 15 2 0 672 672
673 15 2 0 673 673
674 15 2 0 674 674
675 15 2 0 675 675
676 15 2 0 676 676
677 15 2 0 677 677
678 15 2 0 678 678
679 15 2 0 679 679
680 15 2 0 680 680
681 15 2 0 681 681
682 15 2 0 682 682
683 15 2 0 683 683
684 15 2 0 684 684
685 15 2 0 685 685
686 15 2 0 686 686
687 15 2 0 687 687
688 15 2 0 688 688
689 15 2 0 689 689
690 15 2 0 690 690
691 15 2 0 691 691
692 15 2 0 692 692
693 15 2 0 693 693
694 15 2 0 694 694
695 15 2 0 695 695
696 15 2 0 696 696
697 15 2 0 697 697
698 15 2 0 698 698
699 15 2 0 699 699
700 15 2 0 700 700
701 15 2 0 701 701
702 15 2 0 702 702
703 15 2 0 703 703
704 15 2 0 704 704
705 15 2 0 705 705
706 15 2 0 706 706
707 15 2 0 707 707
708 15 2 0 708 708
709 15 2 0 709 709
710 15 2 0 710 710
711 15 2 0 711 711
712 15 2 0 712 712
713 15 2 0 713 713
714 15 2 0 714 714
715 15 2 0 715 715
716 15 2 0 716 716
717 15 2 0 717 717
718 15 2 0 718 718
719 15 2 0 719 719
720 15 2 0 720 720
721 15 2 0 721 721
722 15 2 0 722 722
723 15 2 0 723 723
724 15 2 0 724 724
725 15 2 0 725 725
726 15 2 0 726 726
727 15 2 0 727 727
728 15 2 0 728 728
729 15 2 0 729 729
730 15 2 0 730 730
731 15 2 0 731 731
732 15 2 0 732 732
733 15 2 0 733 733
734 15 2 0 734 734
735 15 2 0 735 735
736 15 2 0 736 736
737 15 2 0 737 737
738 15 2 0 738 738
739 15 2 0 739 739
740 15 2 0 740 740
741 15 2 0 741 741
742 15 2 0 742 742
743 15 2 0 743 743
744 15 2 0 744 744
745 15 2 0 745 745
746 15 2 0 746 746
747 15 2 0 747 747
748 15 2 0 748 748
749 15 2 0 749 749
750 15 2 0 750 750
751 15 2 0 751 751
752 15 2 0 752 752
753 15 2 0 753 753
754 15 2 0 754 754
755 15 2 0 755 755
756 15 2 0 756 756
757 15 2 0 757 757
758 15 2 0 758 758
759 15 2 0 759 759
760 15 2 0 760 760
761 15 2 0 761 761
762 15 2 0 762 762
763 15 2 0 763 763
764 15 2 0 764 764
765 15 2 0 765 765
766 15 2 0 766 766
767 15 2 0 767 767
768 15 2 0 768 768
769 15 2 0 769 769
770 15 2 0 770 770
771 15 2 0 771 771
772 15 2 0 772 772
773 15 2 0 773 773
774 15 2 0 774 774
775 15 2 0 775 775
776 15 2 0 776 776
777 15 2 0 777 777
778 15 2 0 778 778
779 15 2 0 779 779
780 15 2 0 780 780
781 15 2 0 781 781
782 15 2 0 782 782
783 15 2 0 783 783
784 15 2 0 784 784
785 15 2 0 785 785
786 15 2 0 786 786
787 15 2 0 787 787
788 15 2 0 788 788
789 15 2 0 789 789
790 15 2 0 790 790
791 15 2 0 791 791
792 15 2 0 792 792
793 15 2 0 793 793
794 15 2 0 794 794
795 15 2 0 795 795
796 15 2 0 796 796
797 15 2 0 797 797
798 15 2 0 798 798
799 15 2 0 799 799
800 15 2 0 800 800
801 15 2 0 801 801
802 15 2 0 802 802
803 15 2 0 803 803
804 15 2 0 804 804
805 15 2 0 805 805
806 15 2 0 806 806
807 15 2 0 807 807
808 15 2 0 808 808
809 15 2 0 809 809
810 15 2 0 810 810
811 15 2 0 811 811
812 15 2 0 812 812
813 15 2 0 813 813
814 15 2 0 814 814
815 15 2 0 815 815
816 15 2 0 816 816
817 15 2 0 817 817
818 15 2 0 818 818
819 15 2 0 819 819
820 15 2 0 820 820
821 15 2 0 821 821
822 15 2 0 822 822
823 15 2 0 823 823
824 15 2 0 824 824
825 15 2 0 825 825
826 15 2 0 826 826
827 15 2 0 827 827
828 15 2 0 828 828
829 15 2 0 829 829
830 15 2 0 830 830
831 15 2 0 831 831
832 15 2 0 832 832
833 15 2 0 833 833
834 15 2 0 834 834
835 15 2 0 835 835
836 15 2 0 836 836
837 15 2 0 837 837
838 15 2 0 838 838
839 15 2 0 839 839
840 15 2 0 840 840
841 15 2 0 841 841
842 15 2 0 842 842
843 15 2 0 843 843
844 15 2 0 844 844
845 15 2 0 845 845
846 15 2 0 846 846
847 15 2 0 847 847
848 15 2 0 848 848
849 15 2 0 849 849
850 15 2 0 850 850
851 15 2 0 851 851
852 15 2 0 852 852
853 15 2 0 853 853
854 15 2 0 854 854
855 15 2 0 855 855
856 15 2 0 856 856
857 15 2 0 857 857
858 15 2 0 858 858
859 15 2 0 859 859
860 15 2 0 860 860
861 15 2 0 861 861
862 15 2 0 862 862
863 15 2 0 863 863
864 15 2 0 864 864
865 15 2 0 865 865
866 15 2 0 866 866
867 15 2 0 867 867
868 15 2 0 868 868
869 15 2 0 869 869
870 15 2 0 870 870
871 15 2 0 871 871
872 15 2 0 872 872
873 15 2 0 873 873
874 15 2 0 874 874
875 15 2 0 875 875
876 15 2 0 876 876
877 15 2 0 877 877
878 15 2 0 878 878
879 15 2 0 879 879
880 15 2 0 880 880
881 15 2 0 881 881
882 15 2 0 882 882
883 15 2 0 883 883
884 15 2 0 884 884
885 15 2 0 885 885
886 15 2 0 886 886
887 15 2 0 887 887
888 15 2 0 888 888
889 15 2 0 889 889
890 15 2 0 890 890
891 15 2 0 891 891
892 1 2 0 10892 1 892
893 1 2 0 10892 892 26
894 1 2 0 10893 27 893
895 1 2 0 10893 893 52
896 1 2 0 10894 53 894
897 1 2 0 10894 894 78
898 1 2 0 10895 79 895
899 1 2 0 10895 895 104
900 1 2 0 10896 105 896
901 1 2 0 10896 896 130
902 1 2 0 10897 131 897
903 1 2 0 10897 897 156
904 1 2 0 10898 157 898
905 1 2 0 10898 898 182
906 1 2 0 10899 183 899
907 1 2 0 10899 899 208
908 1 2 0 10900 209 900
909 1 2 0 10900 900 234
910 1 2 0 10901 235 901
911 1 2 0 10901 901 260
912 1 2 0 10902 261 902
913 1 2 0 10902 902 286
914 1 2 0 10903 287 903
915 1 2 0 10903 903 312
916 1 2 0 10904 313 904
917 1 2 0 10904 904 338
918 1 2 0 10905 339 905
919 1 2 0 10905 905 906
920 1 2 0 10905 906 364
921 1 2 0 10906 365 907
922 1 2 0 10906 907 908
923 1 2 0 10906 908 390
924 1 2 0 10907 391 909
925 1 2 0 10907 909 910
926 1 2 0 10907 910 416
927 1 2 0 10908 417 911
928 1 2 0 10908 911 912
929 1 2 0 10908 912 442
930 1 2 0 10909 443 913
931 1 2 0 10909 913 914
932 1 2 0 10909 914 468
933 1 2 0 10910 469 915
934 1 2 0 10910 915 916
935 1 2 0 10910 916 494
936 1 2 0 10911 495 917
937 1 2 0 10911 917 918
938 1 2 0 10911 918 520
939 1 2 0 10912 521 919
940 1 2 0 10912 919 920
941 1 2 0 10912 920 921
942 1 2 0 10912 921 546
943 1 2 0 10913 547 922
944 1 2 0 10913 922 923
945 1 2 0 10913 923 924
946 1 2 0 10913 924 572
947 1 2 0 10914 573 925
948 1 2 0 10914 925 926
949 1 2 0 10914 926 927
950 1 2 0 10914 927 598
951 1 2 0 10915 599 928
952 1 2 0 10915 928 929
953 1 2 0 10915 929 930
954 1 2 0 10915 930 624
955 1 2 0 10916 625 931
956 1 2 0 10916 931 932
957 1 2 0 10916 932 933
958 1 2 0 10916 933 650
959 1 2 0 10917 651 934
960 1 2 0 10917 934 935
961 1 2 0 10917 935 936
962 1 2 0 10917 936 937
963 1 2 0 10917 937 676
964 1 2 0 10918 677 938
965 1 2 0 10918 938 939
966 1 2 0 10918 939 940
967 1 2 0 10918 940 941
968 1 2 0 10918 941 702
969 1 2 0 10919 703 942
970 1 2 0 10919 942 943
971 1 2 0 10919 943 944
972 1 2 0 10919 944 945
973 1 2 0 10919 945 728
974 1 2 0 10920 729 946
975 1 2 0 10920 946 947
976 1 2 0 10920 947 948
977 1 2 0 10920 948 949
978 1 2 0 10920 949 754
979 1 2 0 10921 755 950
980 1 2 0 10921 950 951
981 1 2 0 10921 951 952
982 1 2 0 10921 952 953
983 1 2 0 10921 953 780
984 1 2 0 10922 781 954
985 1 2 0 10922 954 955
986 1 2 0 10922 955 956
987 1 2 0 10922 956 957
988 1 2 0 10922 957 958
989 1 2 0 10922 958 806
990 1 2 0 10923 807 959
991 1 2 0 10923 959 960
992 1 2 0 10923 960 961
993 1 2 0 10923 961 962
994 1 2 0 10923 962 963
995 1 2 0 10923 963 832
996 1 2 0 10924 833 964
997 1 2 0 10924 964 965
998 1 2 0 10924 965 966
999 1 2 0 10924 966 967
1000 1 2 0 10924 967 968
1001 1 2 0 10924 968 858
1002 1 2 0 10925 26 859
1003 1 2 0 10926 859 1
1004 1 2 0 10927 52 860
1005 1 2 0 10928 860 27
1006 1 2 0 10929 78 861
1007 1 2 0 10930 861 53
1008 1 2 0 10931 104 862
1009 1 2 0 10932 862 79
1010 1 2 0 10933 130 863
1011 1 2 0 10934 863 105
1012 1 2 0 10935 156 864
1013 1 2 0 10936 864 131
1014 1 2 0 10937 182 865
1015 1 2 0 10938 865 157
1016 1 2 0 10939 208 866
1017 1 2 0 10940 866 183
1018 1 2 0 10941 234 969
1019 1 2 0 10941 969 867
1020 1 2 0 10942 867 209
1021 1 2 0 10943 260 970
1022 1 2 0 10943 970 868
1023 1 2 0 10944 868 235
1024 1 2 0 10945 286 971
1025 1 2 0 10945 971 869
1026 1 2 0 10946 869 261
1027 1 2 0 10947 312 972
1028 1 2 0 10947 972 870
1029 1 2 0 10948 870 973
1030 1 2 0 10948 973 287
1031 1 2 0 10949 338 974
1032 1 2 0 10949 974 871
1033 1 2 0 10950 871 975
1034 1 2 0 10950 975 313
1035 1 2 0 10951 364 976
1036 1 2 0 10951 976 872
1037 1 2 0 10952 872 977
1038 1 2 0 10952 977 339
1039 1 2 0 10953 390 978
1040 1 2 0 10953 978 873
1041 1 2 0 10954 873 979
1042 1 2 0 10954 979 365
1043 1 2 0 10955 416 980
1044 1 2 0 10955 980 874
1045 1 2 0 10956 874 981
1046 1 2 0 10956 981 391
1047 1 2 0 10957 442 982
1048 1 2 0 10957 982 875
1049 1 2 0 10958 875 983
1050 1 2 0 10958 983 417
1051 1 2 0 10959 468 984
1052 1 2 0 10959 984 876
1053 1 2 0 10960 876 985
1054 1 2 0 10960 985 443
1055 1 2 0 10961 494 986
1056 1 2 0 10961 986 877
1057 1 2 0 10962 877 987
1058 1 2 0 10962 987 469
1059 1 2 0 10963 520 988
1060 1 2 0 10963 988 989
1061 1 2 0 10963 989 878
1062 1 2 0 10964 878 990
1063 1 2 0 10964 990 495
1064 1 2 0 10965 546 991
1065 1 2 0 10965 991 992
1066 1 2 0 10965 992 879
1067 1 2 0 10966 879 993
1068 1 2 0 10966 993 521
1069 1 2 0 10967 572 994
1070 1 2 0 10967 994 995
1071 1 2 0 10967 995 880
1072 1 2 0 10968 880 996
1073 1 2 0 10968 996 547
1074 1 2 0 10969 598 997
1075 1 2 0 10969 997 998
1076 1 2 0 10969 998 881
1077 1 2 0 10970 881 999
1078 1 2 0 10970 999 573
1079 1 2 0 10971 624 1000
1080 1 2 0 10971 1000 1001
1081 1 2 0 10971 1001 882
1082 1 2 0 10972 882 1002
1083 1 2 0 10972 1002 1003
1084 1 2 0 10972 1003 599
1085 1 2 0 10973 650 1004
1086 1 2 0 10973 1004 1005
1087 1 2 0 10973 1005 883
1088 1 2 0 10974 883 1006
1089 1 2 0 10974 1006 1007
1090 1 2 0 10974 1007 625
1091 1 2 0 10975 676 1008
1092 1 2 0 10975 1008 1009
1093 1 2 0 10975 1009 884
1094 1 2 0 10976 884 1010
1095 1 2 0 10976 1010 1011
1096 1 2 0 10976 1011 651
1097 1 2 0 10977 702 1012
1098 1 2 0 10977 1012 1013
1099 1 2 0 10977 1013 885
1100 1 2 0 10978 885 1014
1101 1 2 0 10978 1014 1015
1102 1 2 0 10978 1015 677
1103 1 2 0 10979 728 1016
1104 1 2 0 10979 1016 1017
1105 1 2 0 10979 1017 1018
1106 1 2 0 10979 1018 886
1107 1 2 0 10980 886 1019
1108 1 2 0 10980 1019 1020
1109 1 2 0 10980 1020 703
1110 1 2 0 10981 754 1021
1111 1 2 0 10981 1021 1022
1112 1 2 0 10981 1022 1023
1113 1 2 0 10981 1023 887
1114 1 2 0 10982 887 1024
1115 1 2 0 10982 1024 1025
1116 1 2 0 10982 1025 729
1117 1 2 0 10983 780 1026
1118 1 2 0 10983 1026 1027
1119 1 2 0 10983 1027 1028
1120 1 2 0 10983 1028 888
1121 1 2 0 10984 888 1029
1122 1 2 0 10984 1029 1030
1123 1 2 0 10984 1030 755
1124 1 2 0 10985 806 1031
1125 1 2 0 10985 1031 1032
1126 1 2 0 10985 1032 1033
1127 1 2 0 10985 1033 889
1128 1 2 0 10986 889 1034
1129 1 2 0 10986 1034 1035
1130 1 2 0 10986 1035 781
1131 1 2 0 10987 832 1036
1132 1 2 0 10987 1036 1037
1133 1 2 0 10987 1037 1038
1134 1 2 0 10987 1038 890
1135 1 2 0 10988 890 1039
1136 1 2 0 10988 1039 1040
1137 1 2 0 10988 1040 807
1138 1 2 0 10989 858 1041
1139 1 2 0 10989 1041 1042
1140 1 2 0 10989 1042 1043
1141 1 2 0 10989 1043 891
1142 1 2 0 10990 891 1044
1143 1 2 0 10990 1044 1045
1144 1 2 0 10990 1045 833
1145 1 2 0 10991 1 1046
1146 1 2 0 10991 1046 26
1147 1 2 0 10992 26 1047
1148 1 2 0 10992 1047 1048
1149 1 2 0 10992 1048 1049
1150 1 2 0 10992 1049 1050
1151 1 2 0 10992 1050 1051
1152 1 2 0 10992 1051 806
1153 1 2 0 10993 781 1052
1154 1 2 0 10993 1052 1053
1155 1 2 0 10993 1053 1054
1156 1 2 0 10993 1054 1055
1157 1 2 0 10993 1055 1056
1158 1 2 0 10993 1056 806
1159 1 2 0 10994 1 1057
1160 1 2 0 10994 1057 1058
1161 1 2 0 10994 1058 1059
1162 1 2 0 10994 1059 1060
1163 1 2 0 10994 1060 1061
1164 1 2 0 10994 1061 1062
1165 1 2 0 10994 1062 1063
1166 1 2 0 10994 1063 781
1167 1 2 0 10995 26 1064
1168 1 2 0 10995 1064 859
1169 1 2 0 10996 859 1065
1170 1 2 0 10996 1065 1066
1171 1 2 0 10996 1066 1067
1172 1 2 0 10996 1067 1068
1173 1 2 0 10996 1068 1069
1174 1 2 0 10996 1069 1070
1175 1 2 0 10996 1070 889
1176 1 2 0 10997 806 1071
1177 1 2 0 10997 1071 1072
1178 1 2 0 10997 1072 1073
1179 1 2 0 10997 1073 889
1180 1 2 0 10998 859 1074
1181 1 2 0 10998 1074 1
1182 1 2 0 10999 889 1075
1183 1 2 0 10999 1075 1076
1184 1 2 0 10999 1076 781
1185 1 2 0 11000 781 1077
1186 1 2 0 11000 1077 1078
1187 1 2 0 11000 1078 1079
1188 1 2 0 11000 1079 1080
1189 1 2 0 11000 1080 1081
1190 1 2 0 11000 1081 806
1191 1 2 0 11001 806 1082
1192 1 2 0 11001 1082 858
1193 1 2 0 11002 833 1083
1194 1 2 0 11002 1083 1084
1195 1 2 0 11002 1084 1085
1196 1 2 0 11002 1085 1086
1197 1 2 0 11002 1086 1087
1198 1 2 0 11002 1087 858
1199 1 2 0 11003 781 1088
1200 1 2 0 11003 1088 833
1201 1 2 0 11004 806 1089
1202 1 2 0 11004 1089 1090
1203 1 2 0 11004 1090 1091
1204 1 2 0 11004 1091 889
1205 1 2 0 11005 889 1092
1206 1 2 0 11005 1092 891
1207 1 2 0 11006 858 1093
1208 1 2 0 11006 1093 1094
1209 1 2 0 11006 1094 1095
1210 1 2 0 11006 1095 891
1211 1 2 0 11007 889 1096
1212 1 2 0 11007 1096 1097
1213 1 2 0 11007 1097 781
1214 1 2 0 11008 891 1098
1215 1 2 0 11008 1098 1099
1216 1 2 0 11008 1099 833
1217 2 2 0 1 1063 1105 1052
1218 2 2 0 1 1052 1105 1053
1219 2 2 0 1 1046 1113 1
1220 2 2 0 1 26 1113 1046
1221 2 2 0 1 1063 1052 781
1222 2 2 0 1 1 1113 1057
1223 2 2 0 1 1047 1113 26
1224 2 2 0 1 1049 1104 1048
1225 2 2 0 1 1101 1112 1107
1226 2 2 0 1 1105 1112 1053
1227 2 2 0 1 1102 1107 1061
1228 2 2 0 1 1100 1103 1050
1229 2 2 0 1 1062 1105 1063
1230 2 2 0 1 1058 1106 1104
1231 2 2 0 1 1062 1107 1105
1232 2 2 0 1 1104 1109 1059
1233 2 2 0 1 1060 1109 1102
1234 2 2 0 1 1107 1108 1101
1235 2 2 0 1 1061 1107 1062
1236 2 2 0 1 1050 1103 1049
1237 2 2 0 1 1060 1102 1061
1238 2 2 0 1 1051 1100 1050
1239 2 2 0 1 1059 1109 1060
1240 2 2 0 1 1058 1104 1059
1241 2 2 0 1 1057 1106 1058
1242 2 2 0 1 1102 1108 1107
1243 2 2 0 1 1108 1114 1100
1244 2 2 0 1 1054 1101 1055
1245 2 2 0 1 1100 1110 1108
1246 2 2 0 1 1101 1110 1055
1247 2 2 0 1 1055 1110 1056
1248 2 2 0 1 1104 1106 1048
1249 2 2 0 1 1107 1112 1105
1250 2 2 0 1 1053 1112 1054
1251 2 2 0 1 1056 1111 806
1252 2 2 0 1 1054 1112 1101
1253 2 2 0 1 1102 1114 1108
1254 2 2 0 1 1100 1111 1110
1255 2 2 0 1 806 1111 1051
1256 2 2 0 1 1057 1113 1106
1257 2 2 0 1 1100 1114 1103
1258 2 2 0 1 1051 1111 1100
1259 2 2 0 1 1108 1110 1101
1260 2 2 0 1 1048 1106 1047
1261 2 2 0 1 1110 1111 1056
1262 2 2 0 1 1109 1114 1102
1263 2 2 0 1 1106 1113 1047
1264 2 2 0 1 1103 1114 1109
1265 2 2 0 1 1103 1109 1049
1266 2 2 0 1 1049 1109 1104
1267 2 2 0 2 1051 1115 1071
1268 2 2 0 2 1115 1116 1072
1269 2 2 0 2 1064 1121 26
1270 2 2 0 2 1051 1071 806
1271 2 2 0 2 1071 1115 1072
1272 2 2 0 2 859 1121 1064
1273 2 2 0 2 1072 1116 1073
1274 2 2 0 2 1073 1116 1070
1275 2 2 0 2 1068 1117 1067
1276 2 2 0 2 1073 1070 889
1277 2 2 0 2 1117 1119 1067
1278 2 2 0 2 1051 1122 1115
1279 2 2 0 2 1048 1120 1066
1280 2 2 0 2 1115 1118 1116
1281 2 2 0 2 1049 1117 1050
1282 2 2 0 2 1068 1118 1117
1283 2 2 0 2 1070 1116 1069
1284 2 2 0 2 1050 1122 1051
1285 2 2 0 2 1049 1119 1117
1286 2 2 0 2 1066 1119 1048
1287 2 2 0 2 1066 1120 1065
1288 2 2 0 2 1047 1121 1065
1289 2 2 0 2 1047 1120 1048
1290 2 2 0 2 1067 1119 1066
1291 2 2 0 2 1069 1118 1068
1292 2 2 0 2 1116 1118 1069
1293 2 2 0 2 1118 1122 1117
1294 2 2 0 2 1048 1119 1049
1295 2 2 0 2 1115 1122 1118
1296 2 2 0 2 1065 1120 1047
1297 2 2 0 2 1117 1122 1050
1298 2 2 0 2 26 1121 1047
1299 2 2 0 2 1065 1121 859
1300 2 2 0 3 1 1129 1074
1301 2 2 0 3 1074 1129 859
1302 2 2 0 3 1075 1125 1124
1303 2 2 0 3 1067 1130 1059
1304 2 2 0 3 1076 1063 781
1305 2 2 0 3 1061 1126 1060
1306 2 2 0 3 1065 1128 1066
1307 2 2 0 3 1075 1124 1076
1308 2 2 0 3 1059 1127 1067
1309 2 2 0 3 1069 1123 1070
1310 2 2 0 3 889 1125 1075
1311 2 2 0 3 1126 1127 1060
1312 2 2 0 3 1069 1126 1123
1313 2 2 0 3 1124 1125 1123
1314 2 2 0 3 1063 1124 1062
1315 2 2 0 3 1076 1124 1063
1316 2 2 0 3 1124 1131 1062
1317 2 2 0 3 1123 1131 1124
1318 2 2 0 3 1068 1126 1069
1319 2 2 0 3 1058 1128 1057
1320 2 2 0 3 1068 1127 1126
1321 2 2 0 3 1065 1129 1057
1322 2 2 0 3 1126 1131 1123
1323 2 2 0 3 1060 1127 1059
1324 2 2 0 3 1066 1130 1067
1325 2 2 0 3 1123 1125 1070
1326 2 2 0 3 1058 1130 1128
1327 2 2 0 3 1070 1125 889
1328 2 2 0 3 1128 1130 1066
1329 2 2 0 3 1067 1127 1068
1330 2 2 0 3 1061 1131 1126
1331 2 2 0 3 1059 1130 1058
1332 2 2 0 3 1062 1131 1061
1333 2 2 0 3 1057 1128 1065
1334 2 2 0 3 1057 1129 1
1335 2 2 0 3 859 1129 1065
1336 2 2 0 4 1083 781 1077
1337 2 2 0 4 1088 781 1083
1338 2 2 0 4 806 1082 1081
1339 2 2 0 4 1088 1083 833
1340 2 2 0 4 858 1081 1082
1341 2 2 0 4 858 1087 1081
1342 2 2 0 4 1084 1077 1078
1343 2 2 0 4 1083 1077 1084
1344 2 2 0 4 1085 1078 1079
1345 2 2 0 4 1085 1084 1078
1346 2 2 0 4 1086 1079 1080
1347 2 2 0 4 1085 1079 1086
1348 2 2 0 4 1081 1087 1080
1349 2 2 0 4 1087 1086 1080
1350 2 2 0 5 1082 806 1089
1351 2 2 0 5 1089 858 1082
1352 2 2 0 5 1093 858 1089
1353 2 2 0 5 889 1095 1091
1354 2 2 0 5 889 1092 1095
1355 2 2 0 5 1095 1092 891
1356 2 2 0 5 1090 1093 1089
1357 2 2 0 5 1091 1094 1090
1358 2 2 0 5 1090 1094 1093
1359 2 2 0 5 1095 1094 1091
1360 2 2 0 6 1096 1132 1098
1361 2 2 0 6 1099 1132 1097
1362 2 2 0 6 1098 1133 1096
1363 2 2 0 6 1097 1134 1099
1364 2 2 0 6 1099 1134 833
1365 2 2 0 6 1096 1133 889
1366 2 2 0 6 1097 1132 1096
1367 2 2 0 6 1098 1132 1099
1368 2 2 0 6 1088 1134 781
1369 2 2 0 6 781 1134 1097
1370 2 2 0 6 833 1134 1088
1371 2 2 0 6 889 1133 1092
1372 2 2 0 6 1092 1133 891
1373 2 2 0 6 891 1133 1098
1374 2 2 0 211026 26 859 892
1375 2 2 0 211026 859 1 892
1376 2 2 0 211030 968 1041 1137
1377 2 2 0 211030 967 968 1137
1378 2 2 0 211030 964 1045 833
1379 2 2 0 211030 1045 964 1139
1380 2 2 0 211030 968 858 1041
1381 2 2 0 211030 1135 1136 1140
1382 2 2 0 211030 1137 1135 1140
1383 2 2 0 211030 967 1137 1140
1384 2 2 0 211030 1136 1135 1138
1385 2 2 0 211030 1042 1135 1137
1386 2 2 0 211030 1041 1042 1137
1387 2 2 0 211030 1042 1043 1135
1388 2 2 0 211030 965 966 1136
1389 2 2 0 211030 1044 1045 1138
1390 2 2 0 211030 1138 1045 1139
1391 2 2 0 211030 891 1044 1141
1392 2 2 0 211030 1043 891 1141
1393 2 2 0 211030 964 965 1139
1394 2 2 0 211030 965 1136 1139
1395 2 2 0 211030 966 967 1140
1396 2 2 0 211030 1136 1138 1139
1397 2 2 0 211030 1136 966 1140
1398 2 2 0 211030 1135 1043 1141
1399 2 2 0 211030 1138 1135 1141
1400 2 2 0 211030 1044 1138 1141
$EndElements
